G04 EAGLE Gerber RS-274X export*
G75*
%MOMM*%
%FSLAX34Y34*%
%LPD*%
%INSolder Mask bottom*%
%IPPOS*%
%AMOC8*
5,1,8,0,0,1.08239X$1,22.5*%
G01*
%ADD10C,0.001000*%
%ADD11C,0.654800*%
%ADD12R,0.500000X0.500000*%
%ADD13C,1.200000*%
%ADD14C,3.116000*%

G36*
X164581Y49374D02*
X164581Y49374D01*
X164581Y49375D01*
X167313Y49993D01*
X167314Y49993D01*
X170276Y51067D01*
X170277Y51067D01*
X173484Y52636D01*
X173484Y52637D01*
X176948Y54739D01*
X176949Y54739D01*
X180684Y57414D01*
X184703Y60700D01*
X184703Y60701D01*
X184703Y60700D01*
X189019Y64636D01*
X189151Y64768D01*
X189284Y64900D01*
X189416Y65032D01*
X189548Y65164D01*
X189679Y65296D01*
X189811Y65429D01*
X189941Y65561D01*
X190071Y65694D01*
X190243Y65860D01*
X190415Y66027D01*
X190589Y66196D01*
X190765Y66367D01*
X190941Y66539D01*
X191118Y66714D01*
X191119Y66714D01*
X191297Y66890D01*
X191475Y67069D01*
X191476Y67069D01*
X196436Y72802D01*
X201329Y78760D01*
X206152Y84938D01*
X210901Y91332D01*
X215572Y97935D01*
X220162Y104744D01*
X224668Y111753D01*
X229086Y118956D01*
X230215Y120920D01*
X231345Y122914D01*
X232478Y124936D01*
X233611Y126987D01*
X234746Y129067D01*
X235883Y131175D01*
X237020Y133311D01*
X238159Y135476D01*
X238223Y135605D01*
X238288Y135734D01*
X238354Y135863D01*
X238421Y135992D01*
X238488Y136123D01*
X238555Y136254D01*
X238621Y136386D01*
X238688Y136519D01*
X239044Y137207D01*
X239402Y137899D01*
X239760Y138594D01*
X240119Y139292D01*
X240478Y139994D01*
X240837Y140699D01*
X240837Y140700D01*
X241196Y141409D01*
X241554Y142121D01*
X241563Y142141D01*
X241573Y142162D01*
X241584Y142185D01*
X241596Y142208D01*
X241608Y142232D01*
X241620Y142256D01*
X241632Y142282D01*
X241644Y142307D01*
X241663Y142345D01*
X241683Y142383D01*
X241704Y142422D01*
X241724Y142462D01*
X241745Y142504D01*
X241766Y142547D01*
X241786Y142591D01*
X241786Y142592D01*
X241806Y142638D01*
X242459Y143949D01*
X243113Y145273D01*
X243767Y146610D01*
X244421Y147960D01*
X245075Y149321D01*
X245728Y150693D01*
X246380Y152075D01*
X247032Y153466D01*
X247167Y153757D01*
X247302Y154047D01*
X247437Y154335D01*
X247572Y154624D01*
X247707Y154912D01*
X247842Y155201D01*
X247977Y155490D01*
X248112Y155781D01*
X248404Y156414D01*
X248695Y157048D01*
X248986Y157685D01*
X249276Y158323D01*
X249565Y158962D01*
X249854Y159604D01*
X250141Y160246D01*
X250428Y160890D01*
X250609Y161294D01*
X250790Y161700D01*
X250969Y162107D01*
X251149Y162514D01*
X251328Y162922D01*
X251507Y163331D01*
X251688Y163739D01*
X251869Y164146D01*
X252282Y165092D01*
X252695Y166042D01*
X253108Y166996D01*
X253520Y167955D01*
X253931Y168918D01*
X254341Y169884D01*
X254749Y170855D01*
X255155Y171829D01*
X255403Y172424D01*
X255652Y173020D01*
X255902Y173617D01*
X256151Y174214D01*
X256401Y174812D01*
X256650Y175412D01*
X256899Y176014D01*
X257148Y176617D01*
X257380Y177191D01*
X257611Y177767D01*
X257842Y178346D01*
X258073Y178926D01*
X258304Y179507D01*
X258534Y180087D01*
X258764Y180668D01*
X258993Y181247D01*
X259167Y181689D01*
X259340Y182131D01*
X259514Y182575D01*
X259687Y183020D01*
X259860Y183464D01*
X260032Y183910D01*
X260204Y184355D01*
X260374Y184800D01*
X260435Y184958D01*
X260496Y185117D01*
X260557Y185275D01*
X260619Y185434D01*
X260681Y185592D01*
X260745Y185751D01*
X260809Y185911D01*
X260874Y186071D01*
X261081Y186614D01*
X261288Y187157D01*
X261495Y187700D01*
X261702Y188245D01*
X261909Y188790D01*
X262116Y189335D01*
X262323Y189882D01*
X262530Y190429D01*
X262934Y191512D01*
X263337Y192598D01*
X263739Y193689D01*
X264139Y194783D01*
X264538Y195882D01*
X264936Y196985D01*
X265332Y198093D01*
X265727Y199207D01*
X265883Y199655D01*
X266039Y200105D01*
X266195Y200557D01*
X266350Y201009D01*
X266505Y201461D01*
X266660Y201912D01*
X266814Y202362D01*
X266969Y202810D01*
X267200Y203487D01*
X267432Y204165D01*
X267663Y204845D01*
X267895Y205526D01*
X268125Y206208D01*
X268356Y206891D01*
X268586Y207574D01*
X268815Y208257D01*
X268860Y208395D01*
X268906Y208533D01*
X268953Y208670D01*
X269000Y208808D01*
X269049Y208948D01*
X269098Y209089D01*
X269148Y209233D01*
X269198Y209380D01*
X269365Y209886D01*
X269531Y210392D01*
X269697Y210899D01*
X269862Y211407D01*
X270026Y211915D01*
X270191Y212424D01*
X270355Y212935D01*
X270520Y213446D01*
X270847Y214457D01*
X271172Y215471D01*
X271494Y216487D01*
X271814Y217505D01*
X272133Y218525D01*
X272451Y219548D01*
X272768Y220573D01*
X273086Y221600D01*
X273194Y221961D01*
X273303Y222321D01*
X273413Y222680D01*
X273524Y223038D01*
X273634Y223396D01*
X273744Y223755D01*
X273853Y224114D01*
X273960Y224474D01*
X274320Y225681D01*
X274320Y225682D01*
X274678Y226894D01*
X275034Y228111D01*
X275388Y229332D01*
X275739Y230557D01*
X276087Y231785D01*
X276433Y233017D01*
X276777Y234251D01*
X276903Y234704D01*
X277029Y235158D01*
X277155Y235613D01*
X277280Y236070D01*
X277405Y236527D01*
X277531Y236984D01*
X277657Y237442D01*
X277783Y237899D01*
X278069Y238965D01*
X278355Y240035D01*
X278639Y241107D01*
X278923Y242184D01*
X279205Y243263D01*
X279485Y244346D01*
X279764Y245432D01*
X280041Y246522D01*
X280134Y246876D01*
X280227Y247231D01*
X280319Y247587D01*
X280411Y247943D01*
X280503Y248301D01*
X280594Y248659D01*
X280685Y249017D01*
X280775Y249375D01*
X281123Y250775D01*
X281469Y252179D01*
X281811Y253587D01*
X282150Y255000D01*
X282486Y256417D01*
X282820Y257839D01*
X283152Y259265D01*
X283481Y260695D01*
X283563Y261068D01*
X283645Y261440D01*
X283727Y261812D01*
X283808Y262184D01*
X283890Y262556D01*
X283971Y262928D01*
X284053Y263300D01*
X284136Y263672D01*
X284394Y264840D01*
X284650Y266012D01*
X284904Y267186D01*
X285156Y268364D01*
X285407Y269545D01*
X285656Y270728D01*
X285903Y271915D01*
X286149Y273105D01*
X286235Y273518D01*
X286320Y273930D01*
X286404Y274342D01*
X286487Y274754D01*
X286571Y275167D01*
X286654Y275581D01*
X286737Y275997D01*
X286819Y276416D01*
X286956Y277117D01*
X287091Y277822D01*
X287225Y278528D01*
X287357Y279236D01*
X287489Y279944D01*
X287621Y280653D01*
X287752Y281362D01*
X287884Y282069D01*
X288042Y282900D01*
X288201Y283729D01*
X288359Y284558D01*
X288518Y285388D01*
X288675Y286219D01*
X288830Y287054D01*
X288984Y287892D01*
X289135Y288735D01*
X289167Y288919D01*
X289198Y289102D01*
X289229Y289284D01*
X289259Y289464D01*
X289288Y289644D01*
X289318Y289822D01*
X289347Y289999D01*
X289377Y290175D01*
X289483Y290792D01*
X289586Y291410D01*
X289687Y292029D01*
X289787Y292650D01*
X289885Y293271D01*
X289984Y293891D01*
X290084Y294511D01*
X290185Y295130D01*
X290318Y295943D01*
X290452Y296756D01*
X290587Y297569D01*
X290722Y298383D01*
X290856Y299199D01*
X290989Y300016D01*
X291121Y300835D01*
X291252Y301658D01*
X291315Y302083D01*
X291378Y302509D01*
X291442Y302936D01*
X291506Y303362D01*
X291513Y303412D01*
X291528Y303510D01*
X291529Y303519D01*
X291544Y303616D01*
X291559Y303714D01*
X291560Y303723D01*
X291570Y303789D01*
X291572Y303799D01*
X291586Y303897D01*
X291603Y304007D01*
X291618Y304105D01*
X291635Y304216D01*
X291635Y304217D01*
X291701Y304644D01*
X291767Y305072D01*
X291973Y306503D01*
X292177Y307938D01*
X292379Y309375D01*
X292578Y310816D01*
X292775Y312261D01*
X292969Y313711D01*
X293159Y315166D01*
X293346Y316627D01*
X293374Y316829D01*
X293401Y317033D01*
X293429Y317238D01*
X293456Y317444D01*
X293483Y317652D01*
X293509Y317862D01*
X293535Y318074D01*
X293560Y318287D01*
X293764Y319937D01*
X293962Y321593D01*
X294156Y323255D01*
X294345Y324923D01*
X294528Y326596D01*
X294708Y328274D01*
X294883Y329955D01*
X295053Y331641D01*
X295097Y332065D01*
X295140Y332490D01*
X295182Y332916D01*
X295224Y333341D01*
X295265Y333767D01*
X295305Y334193D01*
X295345Y334619D01*
X295384Y335045D01*
X295424Y335472D01*
X295463Y335901D01*
X295501Y336331D01*
X295537Y336762D01*
X295574Y337192D01*
X295610Y337622D01*
X295647Y338050D01*
X295685Y338476D01*
X295771Y339441D01*
X295858Y340408D01*
X295945Y341376D01*
X296031Y342345D01*
X296115Y343317D01*
X296198Y344291D01*
X296278Y345268D01*
X296354Y346248D01*
X296384Y346630D01*
X296415Y347013D01*
X296447Y347395D01*
X296478Y347777D01*
X296509Y348160D01*
X296539Y348544D01*
X296568Y348929D01*
X296597Y349314D01*
X296647Y350068D01*
X296695Y350825D01*
X296741Y351584D01*
X296785Y352345D01*
X296828Y353105D01*
X296871Y353865D01*
X296913Y354623D01*
X296957Y355378D01*
X297021Y356366D01*
X297085Y357354D01*
X297150Y358342D01*
X297213Y359331D01*
X297275Y360322D01*
X297334Y361317D01*
X297390Y362315D01*
X297443Y363319D01*
X297458Y363655D01*
X297473Y363992D01*
X297486Y364328D01*
X297500Y364664D01*
X297513Y365000D01*
X297526Y365336D01*
X297539Y365670D01*
X297553Y366002D01*
X297581Y366626D01*
X297606Y367251D01*
X297628Y367877D01*
X297649Y368503D01*
X297668Y369129D01*
X297688Y369755D01*
X297707Y370379D01*
X297728Y371001D01*
X297762Y371872D01*
X297795Y372742D01*
X297828Y373613D01*
X297861Y374485D01*
X297892Y375358D01*
X297921Y376233D01*
X297948Y377111D01*
X297971Y377992D01*
X297985Y378468D01*
X297997Y378945D01*
X298009Y379422D01*
X298020Y379900D01*
X298031Y380378D01*
X298041Y380856D01*
X298050Y381335D01*
X298059Y381815D01*
X298086Y383407D01*
X298112Y385001D01*
X298136Y386597D01*
X298157Y388196D01*
X298174Y389798D01*
X298187Y391403D01*
X298196Y393010D01*
X298199Y394621D01*
X298199Y394864D01*
X298198Y395106D01*
X298198Y395348D01*
X298198Y395590D01*
X298197Y395831D01*
X298196Y396073D01*
X298194Y396313D01*
X298192Y396554D01*
X298192Y396672D01*
X298192Y396795D01*
X298191Y396923D01*
X298190Y397055D01*
X298188Y397192D01*
X298185Y397333D01*
X298181Y397479D01*
X298176Y397629D01*
X298176Y398017D01*
X298176Y398152D01*
X298176Y398289D01*
X298175Y398427D01*
X298175Y398569D01*
X298173Y398713D01*
X298172Y398860D01*
X298169Y399010D01*
X298169Y399011D01*
X298167Y399040D01*
X298165Y399065D01*
X298164Y399085D01*
X298163Y399102D01*
X298163Y399117D01*
X298163Y399130D01*
X298163Y399142D01*
X298163Y399165D01*
X298160Y399353D01*
X298158Y399538D01*
X298157Y399721D01*
X298155Y399904D01*
X298154Y400087D01*
X298152Y400271D01*
X298150Y400459D01*
X298147Y400650D01*
X298145Y400691D01*
X298143Y400732D01*
X298142Y400772D01*
X298141Y400811D01*
X298140Y400850D01*
X298140Y400888D01*
X298140Y400926D01*
X298140Y400964D01*
X298137Y401155D01*
X298135Y401348D01*
X298132Y401542D01*
X298129Y401737D01*
X298125Y401933D01*
X298121Y402131D01*
X298116Y402330D01*
X298111Y402531D01*
X298111Y402571D01*
X298111Y402612D01*
X298110Y402656D01*
X298110Y402701D01*
X298109Y402748D01*
X298108Y402797D01*
X298106Y402848D01*
X298104Y402900D01*
X298101Y403084D01*
X298098Y403274D01*
X298094Y403469D01*
X298091Y403670D01*
X298088Y403874D01*
X298084Y404081D01*
X298080Y404290D01*
X298075Y404502D01*
X298072Y404576D01*
X298070Y404653D01*
X298068Y404732D01*
X298067Y404813D01*
X298066Y404895D01*
X298066Y404978D01*
X298066Y405063D01*
X298066Y405149D01*
X298058Y405698D01*
X298049Y406257D01*
X298039Y406828D01*
X298029Y407409D01*
X298017Y408002D01*
X298005Y408606D01*
X297992Y409220D01*
X297978Y409845D01*
X297976Y409899D01*
X297974Y409956D01*
X297973Y410015D01*
X297971Y410075D01*
X297970Y410137D01*
X297968Y410201D01*
X297967Y410265D01*
X297964Y410331D01*
X297953Y410959D01*
X297941Y411598D01*
X297928Y412247D01*
X297914Y412905D01*
X297900Y413571D01*
X297885Y414246D01*
X297870Y414927D01*
X297854Y415616D01*
X297848Y415940D01*
X297843Y416271D01*
X297837Y416604D01*
X297831Y416938D01*
X297825Y417273D01*
X297818Y417609D01*
X297810Y417946D01*
X297802Y418285D01*
X297799Y418375D01*
X297796Y418465D01*
X297793Y418554D01*
X297791Y418642D01*
X297788Y418731D01*
X297785Y418819D01*
X297783Y418909D01*
X297780Y418999D01*
X297749Y420496D01*
X297718Y422014D01*
X297686Y423551D01*
X297653Y425105D01*
X297620Y426673D01*
X297586Y428253D01*
X297551Y429842D01*
X297515Y431439D01*
X297419Y433065D01*
X297341Y434432D01*
X297270Y435639D01*
X297197Y436782D01*
X297113Y437961D01*
X297007Y439272D01*
X296869Y440814D01*
X296691Y442684D01*
X296667Y442802D01*
X296667Y442803D01*
X296622Y442911D01*
X296622Y442912D01*
X296560Y443009D01*
X296559Y443010D01*
X296481Y443095D01*
X296389Y443164D01*
X296388Y443164D01*
X296388Y443165D01*
X296284Y443217D01*
X296170Y443250D01*
X296169Y443250D01*
X296048Y443261D01*
X295927Y443248D01*
X295926Y443247D01*
X295813Y443213D01*
X295812Y443213D01*
X295709Y443159D01*
X295708Y443159D01*
X295617Y443088D01*
X295540Y443002D01*
X295540Y443001D01*
X295480Y442902D01*
X295479Y442902D01*
X295439Y442791D01*
X295438Y442790D01*
X295419Y442670D01*
X295054Y438076D01*
X294689Y433481D01*
X294324Y428887D01*
X293960Y424292D01*
X293595Y419698D01*
X293230Y415103D01*
X292865Y410509D01*
X292500Y405914D01*
X290229Y384019D01*
X287439Y362622D01*
X287431Y362569D01*
X287426Y362535D01*
X287421Y362501D01*
X287416Y362467D01*
X287411Y362433D01*
X287410Y362433D01*
X287357Y362080D01*
X287352Y362046D01*
X287347Y362012D01*
X287342Y361978D01*
X287336Y361944D01*
X287283Y361592D01*
X287278Y361558D01*
X287273Y361524D01*
X287267Y361490D01*
X287262Y361456D01*
X287209Y361103D01*
X287204Y361069D01*
X287198Y361035D01*
X287193Y361001D01*
X287188Y360967D01*
X287135Y360614D01*
X287129Y360580D01*
X287124Y360546D01*
X287119Y360512D01*
X287114Y360478D01*
X287061Y360125D01*
X287060Y360125D01*
X287055Y360091D01*
X287050Y360057D01*
X287045Y360023D01*
X287040Y359989D01*
X286986Y359637D01*
X286981Y359603D01*
X286976Y359569D01*
X286971Y359535D01*
X286966Y359501D01*
X286912Y359148D01*
X286907Y359114D01*
X286902Y359080D01*
X286897Y359046D01*
X286892Y359012D01*
X286838Y358659D01*
X286833Y358625D01*
X286828Y358591D01*
X286823Y358557D01*
X286818Y358523D01*
X286817Y358523D01*
X286764Y358170D01*
X286759Y358136D01*
X286754Y358102D01*
X286749Y358068D01*
X286743Y358034D01*
X286690Y357682D01*
X286685Y357648D01*
X286680Y357614D01*
X286674Y357580D01*
X286669Y357546D01*
X286616Y357193D01*
X286611Y357159D01*
X286605Y357125D01*
X286600Y357091D01*
X286595Y357057D01*
X286542Y356704D01*
X286536Y356670D01*
X286531Y356636D01*
X286526Y356602D01*
X286521Y356568D01*
X286468Y356215D01*
X286467Y356215D01*
X286462Y356181D01*
X286457Y356147D01*
X286452Y356113D01*
X286447Y356079D01*
X286393Y355727D01*
X286388Y355693D01*
X286383Y355659D01*
X286378Y355625D01*
X286373Y355591D01*
X286319Y355238D01*
X286314Y355204D01*
X286309Y355170D01*
X286304Y355136D01*
X286299Y355102D01*
X286245Y354749D01*
X286240Y354715D01*
X286235Y354681D01*
X286230Y354647D01*
X286225Y354613D01*
X286224Y354613D01*
X286171Y354260D01*
X286166Y354226D01*
X286161Y354192D01*
X286156Y354158D01*
X286150Y354124D01*
X286097Y353772D01*
X286092Y353738D01*
X286087Y353704D01*
X286081Y353670D01*
X286076Y353636D01*
X286028Y353317D01*
X286023Y353283D01*
X286018Y353249D01*
X286012Y353215D01*
X286007Y353181D01*
X286002Y353147D01*
X285954Y352828D01*
X285949Y352794D01*
X285943Y352760D01*
X285938Y352726D01*
X285933Y352692D01*
X285928Y352658D01*
X285880Y352339D01*
X285875Y352305D01*
X285874Y352305D01*
X285869Y352271D01*
X285864Y352237D01*
X285859Y352203D01*
X285854Y352169D01*
X285806Y351851D01*
X285800Y351817D01*
X285795Y351783D01*
X285790Y351749D01*
X285785Y351715D01*
X285780Y351681D01*
X285731Y351362D01*
X285726Y351328D01*
X285721Y351294D01*
X285716Y351260D01*
X285711Y351226D01*
X285706Y351192D01*
X285657Y350873D01*
X285652Y350839D01*
X285647Y350805D01*
X285642Y350771D01*
X285637Y350737D01*
X285632Y350703D01*
X285631Y350703D01*
X285583Y350384D01*
X285578Y350350D01*
X285573Y350316D01*
X285568Y350282D01*
X285563Y350248D01*
X285557Y350214D01*
X285509Y349896D01*
X285504Y349862D01*
X285499Y349828D01*
X285494Y349794D01*
X285488Y349760D01*
X285483Y349726D01*
X285435Y349407D01*
X285430Y349373D01*
X285425Y349339D01*
X285419Y349305D01*
X285414Y349271D01*
X285409Y349237D01*
X285361Y348918D01*
X285356Y348884D01*
X285350Y348850D01*
X285345Y348816D01*
X285340Y348782D01*
X285335Y348748D01*
X285287Y348429D01*
X285282Y348395D01*
X285281Y348395D01*
X285276Y348361D01*
X285271Y348327D01*
X285266Y348293D01*
X285261Y348259D01*
X285213Y347941D01*
X285207Y347907D01*
X285202Y347873D01*
X285197Y347839D01*
X285192Y347805D01*
X285138Y347452D01*
X285133Y347418D01*
X285128Y347384D01*
X285123Y347350D01*
X285118Y347316D01*
X285064Y346963D01*
X285059Y346929D01*
X285054Y346895D01*
X285049Y346861D01*
X285044Y346827D01*
X284990Y346474D01*
X284985Y346440D01*
X284980Y346406D01*
X284975Y346372D01*
X284970Y346338D01*
X284916Y345986D01*
X284911Y345952D01*
X284906Y345918D01*
X284901Y345884D01*
X284895Y345850D01*
X284842Y345497D01*
X284837Y345463D01*
X284832Y345429D01*
X284826Y345395D01*
X284821Y345361D01*
X284768Y345008D01*
X284763Y344974D01*
X284757Y344940D01*
X284752Y344906D01*
X284747Y344872D01*
X284694Y344519D01*
X284689Y344485D01*
X284688Y344485D01*
X284683Y344451D01*
X284678Y344417D01*
X284673Y344383D01*
X284620Y344031D01*
X284614Y343997D01*
X284609Y343963D01*
X284604Y343929D01*
X284599Y343895D01*
X284545Y343542D01*
X284540Y343508D01*
X284535Y343474D01*
X284530Y343440D01*
X284525Y343406D01*
X284471Y343053D01*
X284466Y343019D01*
X284461Y342985D01*
X284456Y342951D01*
X284451Y342917D01*
X284397Y342564D01*
X284392Y342530D01*
X284387Y342496D01*
X284383Y342469D01*
X281313Y324303D01*
X278485Y308868D01*
X276150Y296909D01*
X274562Y289168D01*
X273975Y286391D01*
X262954Y244075D01*
X251234Y207421D01*
X238871Y175928D01*
X225921Y149096D01*
X212441Y126421D01*
X198486Y107406D01*
X184113Y91547D01*
X169378Y78344D01*
X168321Y77651D01*
X167306Y77030D01*
X166331Y76480D01*
X165397Y75999D01*
X164502Y75584D01*
X163646Y75234D01*
X162829Y74947D01*
X162050Y74721D01*
X161792Y74678D01*
X161530Y74640D01*
X161265Y74605D01*
X160997Y74575D01*
X160727Y74551D01*
X160454Y74533D01*
X160180Y74521D01*
X159905Y74517D01*
X157042Y74989D01*
X153908Y76936D01*
X150482Y80941D01*
X146747Y87586D01*
X142683Y97454D01*
X138271Y111126D01*
X133491Y129184D01*
X128326Y152211D01*
X128326Y152212D01*
X128287Y152332D01*
X128287Y152333D01*
X128228Y152440D01*
X128228Y152441D01*
X128152Y152533D01*
X128151Y152533D01*
X128151Y152534D01*
X128060Y152609D01*
X128059Y152609D01*
X128059Y152610D01*
X127956Y152667D01*
X127955Y152667D01*
X127955Y152668D01*
X127842Y152705D01*
X127841Y152705D01*
X127721Y152721D01*
X127720Y152721D01*
X127595Y152714D01*
X127594Y152714D01*
X127475Y152681D01*
X127474Y152680D01*
X127366Y152626D01*
X127365Y152626D01*
X127270Y152553D01*
X127190Y152464D01*
X127128Y152362D01*
X127127Y152362D01*
X127085Y152250D01*
X127085Y152249D01*
X127065Y152129D01*
X127065Y152128D01*
X127069Y152004D01*
X127069Y152003D01*
X127116Y151612D01*
X127163Y151219D01*
X127212Y150827D01*
X127261Y150435D01*
X127311Y150043D01*
X127362Y149651D01*
X127413Y149261D01*
X127465Y148872D01*
X127465Y148871D01*
X127796Y146638D01*
X128229Y143515D01*
X128777Y139612D01*
X129450Y135043D01*
X130261Y129918D01*
X130261Y129917D01*
X131222Y124348D01*
X132344Y118447D01*
X133640Y112326D01*
X133641Y112325D01*
X133640Y112325D01*
X135614Y103865D01*
X137682Y95538D01*
X139736Y87650D01*
X141664Y80508D01*
X143356Y74419D01*
X144701Y69689D01*
X145590Y66625D01*
X145910Y65534D01*
X146721Y63163D01*
X147771Y60532D01*
X147771Y60531D01*
X149114Y57816D01*
X149114Y57815D01*
X150802Y55193D01*
X150803Y55193D01*
X150803Y55192D01*
X152889Y52840D01*
X152889Y52839D01*
X155426Y50934D01*
X155427Y50934D01*
X158468Y49653D01*
X158469Y49653D01*
X162066Y49174D01*
X162067Y49174D01*
X164581Y49374D01*
G37*
G36*
X212359Y631536D02*
X212359Y631536D01*
X212360Y631537D01*
X212360Y631536D01*
X215083Y631863D01*
X215084Y631863D01*
X217762Y632397D01*
X220391Y633130D01*
X220391Y633131D01*
X220392Y633131D01*
X222969Y634056D01*
X222970Y634056D01*
X225493Y635166D01*
X227958Y636451D01*
X230362Y637905D01*
X230364Y637906D01*
X230366Y637907D01*
X230367Y637907D01*
X230369Y637908D01*
X230373Y637910D01*
X230374Y637911D01*
X230375Y637911D01*
X230376Y637912D01*
X230377Y637912D01*
X230781Y638206D01*
X231187Y638504D01*
X231592Y638808D01*
X231998Y639118D01*
X232403Y639433D01*
X232809Y639755D01*
X233214Y640084D01*
X233619Y640420D01*
X233620Y640420D01*
X233655Y640447D01*
X233689Y640473D01*
X233722Y640500D01*
X233755Y640526D01*
X233787Y640552D01*
X233818Y640578D01*
X233849Y640604D01*
X233879Y640629D01*
X234306Y640989D01*
X234733Y641356D01*
X235161Y641730D01*
X235589Y642113D01*
X236017Y642503D01*
X236447Y642902D01*
X236447Y642903D01*
X236877Y643311D01*
X237309Y643728D01*
X238365Y644967D01*
X238366Y644967D01*
X241110Y648468D01*
X244979Y653999D01*
X249410Y661332D01*
X253838Y670237D01*
X257701Y680483D01*
X257701Y680484D01*
X257702Y680484D01*
X260435Y691842D01*
X260436Y691843D01*
X261477Y704083D01*
X261477Y704084D01*
X261391Y707541D01*
X261125Y711041D01*
X261125Y711042D01*
X260668Y714580D01*
X260009Y718152D01*
X260008Y718152D01*
X260009Y718152D01*
X259135Y721751D01*
X259135Y721752D01*
X258035Y725374D01*
X256699Y729015D01*
X255114Y732669D01*
X255112Y732673D01*
X255105Y732690D01*
X255094Y732716D01*
X255080Y732750D01*
X255061Y732793D01*
X255039Y732842D01*
X255014Y732898D01*
X255014Y732899D01*
X254994Y732937D01*
X254984Y732956D01*
X254974Y732975D01*
X254964Y732994D01*
X254954Y733012D01*
X254944Y733031D01*
X254935Y733050D01*
X254920Y733086D01*
X254900Y733136D01*
X254873Y733197D01*
X254841Y733270D01*
X254803Y733354D01*
X254760Y733448D01*
X254713Y733551D01*
X254661Y733663D01*
X254598Y733800D01*
X254533Y733940D01*
X254467Y734085D01*
X254398Y734233D01*
X254326Y734386D01*
X254251Y734544D01*
X254173Y734706D01*
X254091Y734874D01*
X254089Y734878D01*
X254087Y734881D01*
X254086Y734885D01*
X254085Y734885D01*
X254084Y734888D01*
X254082Y734892D01*
X254079Y734899D01*
X254077Y734902D01*
X253987Y735094D01*
X253896Y735287D01*
X253802Y735482D01*
X253707Y735680D01*
X253609Y735882D01*
X253509Y736089D01*
X253405Y736302D01*
X253298Y736523D01*
X253290Y736537D01*
X253282Y736552D01*
X253274Y736566D01*
X253266Y736581D01*
X253250Y736609D01*
X253242Y736624D01*
X253235Y736638D01*
X253127Y736857D01*
X253014Y737084D01*
X252897Y737320D01*
X252776Y737563D01*
X252650Y737814D01*
X252520Y738072D01*
X252386Y738336D01*
X252247Y738605D01*
X252242Y738616D01*
X252237Y738627D01*
X252231Y738638D01*
X252226Y738649D01*
X252221Y738660D01*
X252215Y738671D01*
X252204Y738693D01*
X252062Y738971D01*
X251917Y739252D01*
X251770Y739539D01*
X251619Y739830D01*
X251466Y740126D01*
X251309Y740428D01*
X251150Y740735D01*
X250986Y741048D01*
X250964Y741085D01*
X250945Y741116D01*
X250930Y741140D01*
X250918Y741158D01*
X250909Y741171D01*
X250903Y741180D01*
X250899Y741185D01*
X250899Y741186D01*
X250730Y741506D01*
X250558Y741830D01*
X250384Y742158D01*
X250206Y742490D01*
X250024Y742826D01*
X249840Y743166D01*
X249651Y743510D01*
X249459Y743859D01*
X249449Y743879D01*
X249439Y743901D01*
X249438Y743901D01*
X249426Y743925D01*
X249413Y743951D01*
X249399Y743977D01*
X249385Y744003D01*
X249371Y744029D01*
X249357Y744054D01*
X249163Y744405D01*
X248966Y744762D01*
X248766Y745125D01*
X248562Y745493D01*
X248354Y745866D01*
X248142Y746243D01*
X247926Y746624D01*
X247707Y747008D01*
X247690Y747040D01*
X247674Y747072D01*
X247657Y747103D01*
X247640Y747132D01*
X247625Y747159D01*
X247610Y747184D01*
X247596Y747205D01*
X247596Y747206D01*
X247584Y747223D01*
X247359Y747619D01*
X247133Y748018D01*
X246904Y748419D01*
X246672Y748823D01*
X246438Y749230D01*
X246200Y749640D01*
X245958Y750052D01*
X245712Y750467D01*
X245690Y750507D01*
X245667Y750546D01*
X245644Y750585D01*
X245621Y750624D01*
X245597Y750662D01*
X245573Y750700D01*
X245549Y750738D01*
X245524Y750776D01*
X245279Y751192D01*
X245029Y751614D01*
X244775Y752040D01*
X244518Y752471D01*
X244258Y752905D01*
X243995Y753342D01*
X243731Y753780D01*
X243464Y754220D01*
X243464Y754221D01*
X243434Y754270D01*
X243405Y754318D01*
X243376Y754363D01*
X243348Y754407D01*
X243321Y754449D01*
X243295Y754489D01*
X243270Y754528D01*
X243247Y754567D01*
X242972Y755015D01*
X242694Y755467D01*
X242411Y755924D01*
X242125Y756384D01*
X241836Y756847D01*
X241543Y757314D01*
X241248Y757783D01*
X240949Y758255D01*
X240916Y758308D01*
X240884Y758358D01*
X240852Y758407D01*
X240820Y758454D01*
X240789Y758499D01*
X240759Y758543D01*
X240731Y758587D01*
X240703Y758630D01*
X240403Y759105D01*
X240098Y759584D01*
X239789Y760066D01*
X239476Y760551D01*
X239159Y761040D01*
X238838Y761532D01*
X238515Y762026D01*
X238190Y762522D01*
X238154Y762573D01*
X238120Y762623D01*
X238086Y762673D01*
X238053Y762722D01*
X238020Y762772D01*
X237987Y762821D01*
X237955Y762869D01*
X237923Y762918D01*
X237588Y763420D01*
X237250Y763925D01*
X236908Y764434D01*
X236563Y764946D01*
X236215Y765459D01*
X235865Y765975D01*
X235512Y766492D01*
X235156Y767011D01*
X235121Y767064D01*
X235085Y767117D01*
X235050Y767169D01*
X235015Y767222D01*
X234980Y767273D01*
X234980Y767274D01*
X234944Y767325D01*
X234909Y767377D01*
X234874Y767428D01*
X234873Y767428D01*
X234507Y767958D01*
X234137Y768490D01*
X233763Y769023D01*
X233386Y769558D01*
X233007Y770094D01*
X232625Y770633D01*
X232241Y771173D01*
X231856Y771715D01*
X231818Y771767D01*
X231780Y771819D01*
X231743Y771872D01*
X231705Y771926D01*
X231666Y771980D01*
X231625Y772035D01*
X231583Y772091D01*
X231539Y772148D01*
X231141Y772701D01*
X230739Y773257D01*
X230332Y773816D01*
X229921Y774378D01*
X229505Y774943D01*
X229086Y775510D01*
X228664Y776080D01*
X228238Y776652D01*
X228208Y776693D01*
X228177Y776735D01*
X228145Y776778D01*
X228111Y776823D01*
X228076Y776869D01*
X228039Y776916D01*
X227999Y776964D01*
X227958Y777012D01*
X227865Y777136D01*
X227772Y777259D01*
X227679Y777383D01*
X227586Y777508D01*
X227492Y777632D01*
X227398Y777757D01*
X227304Y777881D01*
X227210Y778006D01*
X227203Y778017D01*
X227195Y778027D01*
X227188Y778038D01*
X227180Y778049D01*
X227172Y778059D01*
X227163Y778070D01*
X227155Y778080D01*
X227146Y778090D01*
X226759Y778599D01*
X226310Y779184D01*
X225836Y779799D01*
X225370Y780402D01*
X224947Y780947D01*
X224602Y781392D01*
X224369Y781691D01*
X224283Y781801D01*
X224283Y781802D01*
X224282Y781802D01*
X224281Y781803D01*
X224280Y781805D01*
X224278Y781807D01*
X224276Y781808D01*
X224276Y781809D01*
X224275Y781810D01*
X224273Y781812D01*
X224273Y781813D01*
X224271Y781814D01*
X224269Y781816D01*
X224268Y781818D01*
X224261Y781825D01*
X224255Y781832D01*
X224249Y781839D01*
X224243Y781847D01*
X224236Y781854D01*
X224230Y781861D01*
X224224Y781868D01*
X224218Y781875D01*
X224216Y781875D01*
X224215Y781876D01*
X224212Y781877D01*
X224208Y781879D01*
X224204Y781881D01*
X224199Y781883D01*
X224194Y781885D01*
X224190Y781887D01*
X224187Y781889D01*
X224184Y781898D01*
X224178Y781911D01*
X224177Y781912D01*
X224163Y781928D01*
X224162Y781928D01*
X224162Y781929D01*
X224134Y781948D01*
X224133Y781948D01*
X224086Y781969D01*
X224086Y781970D01*
X224014Y781994D01*
X223913Y782021D01*
X223912Y782021D01*
X223776Y782050D01*
X223775Y782050D01*
X223712Y782047D01*
X223650Y782037D01*
X223589Y782021D01*
X223530Y782000D01*
X223530Y781999D01*
X223474Y781972D01*
X223473Y781972D01*
X223420Y781940D01*
X223370Y781903D01*
X223324Y781862D01*
X223324Y781861D01*
X223319Y781855D01*
X223316Y781848D01*
X223314Y781841D01*
X223313Y781841D01*
X223312Y781833D01*
X223310Y781827D01*
X223308Y781820D01*
X223306Y781814D01*
X223302Y781809D01*
X223259Y781764D01*
X223221Y781715D01*
X223220Y781715D01*
X223187Y781662D01*
X223158Y781606D01*
X223158Y781605D01*
X223135Y781546D01*
X223118Y781484D01*
X223108Y781419D01*
X223104Y781352D01*
X223110Y781273D01*
X223126Y781199D01*
X223127Y781199D01*
X223153Y781130D01*
X223188Y781066D01*
X223189Y781066D01*
X223231Y781007D01*
X223232Y781007D01*
X223281Y780953D01*
X223282Y780953D01*
X223282Y780952D01*
X223337Y780903D01*
X223397Y780858D01*
X223505Y780719D01*
X223644Y780539D01*
X223810Y780325D01*
X223997Y780084D01*
X224201Y779819D01*
X224418Y779539D01*
X224642Y779248D01*
X224869Y778953D01*
X225084Y778642D01*
X225358Y778197D01*
X225667Y777664D01*
X225989Y777083D01*
X226301Y776500D01*
X226580Y775955D01*
X226803Y775494D01*
X226948Y775158D01*
X229336Y768663D01*
X231533Y762222D01*
X233500Y755833D01*
X235197Y749496D01*
X236586Y743210D01*
X237626Y736974D01*
X238279Y730787D01*
X238506Y724647D01*
X238275Y718676D01*
X237565Y712747D01*
X236336Y706857D01*
X234551Y701004D01*
X232172Y695184D01*
X229160Y689395D01*
X225479Y683635D01*
X221090Y677900D01*
X217402Y673825D01*
X213746Y670459D01*
X210131Y667751D01*
X206572Y665650D01*
X203080Y664104D01*
X199667Y663063D01*
X196346Y662475D01*
X193129Y662289D01*
X190280Y662428D01*
X187535Y662832D01*
X184907Y663463D01*
X182405Y664283D01*
X180040Y665254D01*
X177824Y666338D01*
X175767Y667497D01*
X173879Y668694D01*
X172177Y669889D01*
X170665Y671047D01*
X169355Y672128D01*
X168257Y673097D01*
X167382Y673915D01*
X166741Y674545D01*
X166345Y674950D01*
X166206Y675091D01*
X166205Y675091D01*
X166118Y675171D01*
X166118Y675172D01*
X166020Y675233D01*
X166019Y675233D01*
X165914Y675276D01*
X165913Y675276D01*
X165802Y675299D01*
X165689Y675303D01*
X165688Y675303D01*
X165576Y675287D01*
X165467Y675251D01*
X165467Y675250D01*
X165365Y675193D01*
X165364Y675193D01*
X165275Y675120D01*
X165275Y675119D01*
X165274Y675119D01*
X165201Y675032D01*
X165145Y674934D01*
X165145Y674933D01*
X165107Y674827D01*
X165088Y674716D01*
X165089Y674715D01*
X165088Y674715D01*
X165089Y674602D01*
X165090Y674602D01*
X165089Y674601D01*
X165111Y674489D01*
X165112Y674489D01*
X165111Y674488D01*
X165155Y674380D01*
X169848Y665674D01*
X169848Y665673D01*
X174183Y658473D01*
X174184Y658473D01*
X178146Y652607D01*
X181719Y647904D01*
X184887Y644193D01*
X187632Y641303D01*
X187633Y641303D01*
X187633Y641302D01*
X189940Y639062D01*
X191793Y637299D01*
X191801Y637293D01*
X191808Y637286D01*
X191815Y637280D01*
X191823Y637274D01*
X191830Y637268D01*
X191837Y637262D01*
X191845Y637255D01*
X191852Y637249D01*
X192067Y637094D01*
X192279Y636942D01*
X192491Y636792D01*
X192701Y636646D01*
X192702Y636646D01*
X192912Y636502D01*
X193124Y636360D01*
X193337Y636220D01*
X193553Y636081D01*
X193582Y636062D01*
X193611Y636043D01*
X193639Y636025D01*
X193666Y636007D01*
X193693Y635989D01*
X193718Y635971D01*
X193743Y635954D01*
X193768Y635938D01*
X193976Y635807D01*
X194182Y635678D01*
X194388Y635552D01*
X194593Y635427D01*
X194797Y635304D01*
X195002Y635183D01*
X195206Y635063D01*
X195411Y634944D01*
X195447Y634924D01*
X195481Y634904D01*
X195516Y634883D01*
X195552Y634862D01*
X195588Y634840D01*
X195626Y634817D01*
X195665Y634794D01*
X195707Y634770D01*
X195943Y634641D01*
X196178Y634513D01*
X196414Y634387D01*
X196651Y634263D01*
X196888Y634140D01*
X197127Y634019D01*
X197368Y633900D01*
X197609Y633783D01*
X197622Y633776D01*
X197635Y633770D01*
X197648Y633764D01*
X197660Y633758D01*
X197673Y633751D01*
X197698Y633739D01*
X197711Y633733D01*
X197984Y633604D01*
X198257Y633477D01*
X198532Y633353D01*
X198808Y633231D01*
X199086Y633113D01*
X199086Y633112D01*
X199367Y632996D01*
X199650Y632883D01*
X199937Y632773D01*
X199938Y632773D01*
X201173Y632452D01*
X202400Y632176D01*
X202400Y632177D01*
X202400Y632176D01*
X203618Y631945D01*
X204828Y631756D01*
X206030Y631611D01*
X207225Y631508D01*
X208412Y631446D01*
X208413Y631446D01*
X209593Y631426D01*
X209594Y631426D01*
X212359Y631536D01*
G37*
G36*
X155575Y536855D02*
X155575Y536855D01*
X160635Y537566D01*
X160635Y537567D01*
X160636Y537567D01*
X165182Y539394D01*
X165183Y539394D01*
X169168Y541965D01*
X172542Y544906D01*
X175256Y547844D01*
X175256Y547845D01*
X177261Y550408D01*
X178509Y552224D01*
X178950Y552919D01*
X178949Y552919D01*
X178950Y552919D01*
X184964Y563814D01*
X184963Y563815D01*
X184964Y563815D01*
X189538Y574929D01*
X189538Y574930D01*
X192870Y585830D01*
X192870Y585831D01*
X195155Y596085D01*
X195156Y596085D01*
X196591Y605260D01*
X197375Y612922D01*
X197374Y612922D01*
X197375Y612922D01*
X197702Y618638D01*
X197769Y621975D01*
X197769Y622133D01*
X197768Y622271D01*
X197766Y622389D01*
X197765Y622487D01*
X197763Y622563D01*
X197762Y622618D01*
X197761Y622651D01*
X197760Y622662D01*
X197760Y622663D01*
X197752Y622763D01*
X197752Y622764D01*
X197728Y622860D01*
X197728Y622861D01*
X197689Y622951D01*
X197638Y623034D01*
X197637Y623034D01*
X197574Y623107D01*
X197574Y623108D01*
X197500Y623171D01*
X197417Y623221D01*
X197416Y623221D01*
X197416Y623222D01*
X197325Y623259D01*
X197176Y623313D01*
X196742Y623490D01*
X196032Y623823D01*
X195053Y624343D01*
X193812Y625082D01*
X192316Y626071D01*
X190571Y627341D01*
X188586Y628925D01*
X186374Y630850D01*
X183948Y633147D01*
X181318Y635847D01*
X178496Y638980D01*
X175491Y642575D01*
X172314Y646665D01*
X168977Y651278D01*
X165490Y656445D01*
X165489Y656446D01*
X165420Y656534D01*
X165339Y656607D01*
X165249Y656665D01*
X165152Y656707D01*
X165151Y656707D01*
X165049Y656732D01*
X164944Y656740D01*
X164943Y656739D01*
X164943Y656740D01*
X164837Y656729D01*
X164732Y656701D01*
X164732Y656700D01*
X164731Y656700D01*
X164631Y656652D01*
X164631Y656651D01*
X164543Y656589D01*
X164543Y656588D01*
X164542Y656588D01*
X164467Y656513D01*
X164467Y656512D01*
X164466Y656512D01*
X164405Y656426D01*
X164358Y656331D01*
X164358Y656330D01*
X164327Y656229D01*
X164327Y656228D01*
X164313Y656121D01*
X164317Y656010D01*
X164863Y651900D01*
X165326Y647925D01*
X165709Y644082D01*
X166016Y640367D01*
X166249Y636780D01*
X166411Y633317D01*
X166507Y629976D01*
X166538Y626753D01*
X166233Y617114D01*
X165394Y608607D01*
X164123Y601141D01*
X162522Y594626D01*
X160694Y588972D01*
X158741Y584087D01*
X156765Y579880D01*
X154870Y576261D01*
X153374Y573798D01*
X151823Y571752D01*
X150224Y570093D01*
X148583Y568795D01*
X146905Y567832D01*
X145197Y567176D01*
X143466Y566800D01*
X141717Y566677D01*
X136974Y567441D01*
X132276Y569521D01*
X127802Y572485D01*
X123730Y575899D01*
X120241Y579331D01*
X117511Y582348D01*
X115722Y584517D01*
X115051Y585404D01*
X115051Y585405D01*
X114968Y585496D01*
X114967Y585496D01*
X114871Y585568D01*
X114870Y585568D01*
X114765Y585620D01*
X114764Y585620D01*
X114652Y585651D01*
X114651Y585651D01*
X114535Y585661D01*
X114418Y585650D01*
X114418Y585649D01*
X114417Y585649D01*
X114303Y585616D01*
X114303Y585615D01*
X114302Y585615D01*
X114193Y585559D01*
X114098Y585483D01*
X114098Y585482D01*
X114097Y585482D01*
X114019Y585392D01*
X113960Y585291D01*
X113960Y585290D01*
X113959Y585290D01*
X113919Y585181D01*
X113920Y585181D01*
X113919Y585181D01*
X113900Y585067D01*
X113900Y585066D01*
X113902Y584950D01*
X113902Y584949D01*
X113926Y584834D01*
X113927Y584833D01*
X113926Y584833D01*
X113974Y584721D01*
X113975Y584721D01*
X113982Y584708D01*
X113989Y584694D01*
X114003Y584667D01*
X114010Y584653D01*
X114017Y584640D01*
X114024Y584626D01*
X114031Y584613D01*
X117427Y578369D01*
X121078Y571841D01*
X124967Y565250D01*
X124968Y565250D01*
X124968Y565249D01*
X129082Y558813D01*
X133406Y552752D01*
X137925Y547285D01*
X137926Y547285D01*
X137926Y547284D01*
X142625Y542631D01*
X147490Y539010D01*
X148088Y538684D01*
X148679Y538383D01*
X148680Y538383D01*
X149264Y538110D01*
X149842Y537865D01*
X150413Y537650D01*
X150414Y537650D01*
X150979Y537464D01*
X150980Y537464D01*
X151540Y537309D01*
X152095Y537187D01*
X152096Y537187D01*
X152539Y537108D01*
X152980Y537041D01*
X152980Y537040D01*
X153419Y536983D01*
X153854Y536937D01*
X154288Y536901D01*
X154719Y536875D01*
X155147Y536860D01*
X155148Y536860D01*
X155574Y536855D01*
X155575Y536855D01*
G37*
G36*
X263253Y456178D02*
X263253Y456178D01*
X263254Y456177D01*
X270450Y458435D01*
X270451Y458436D01*
X270452Y458436D01*
X277484Y464190D01*
X284109Y472271D01*
X290084Y481508D01*
X295167Y490730D01*
X299114Y498769D01*
X301685Y504454D01*
X302635Y506614D01*
X302885Y507272D01*
X303130Y507928D01*
X303371Y508584D01*
X303607Y509240D01*
X303839Y509894D01*
X304067Y510549D01*
X304292Y511202D01*
X304513Y511855D01*
X304529Y511903D01*
X304542Y511947D01*
X304554Y511989D01*
X304565Y512028D01*
X304575Y512063D01*
X304584Y512094D01*
X304593Y512122D01*
X304601Y512146D01*
X304652Y512305D01*
X304702Y512461D01*
X304751Y512616D01*
X304799Y512768D01*
X304847Y512919D01*
X304895Y513069D01*
X304943Y513217D01*
X304992Y513364D01*
X305143Y513842D01*
X305293Y514321D01*
X305440Y514799D01*
X305585Y515276D01*
X305728Y515754D01*
X305869Y516231D01*
X306008Y516708D01*
X306145Y517184D01*
X306178Y517306D01*
X306211Y517426D01*
X306245Y517546D01*
X306278Y517666D01*
X306311Y517785D01*
X306344Y517905D01*
X306376Y518026D01*
X306407Y518147D01*
X306431Y518233D01*
X306458Y518323D01*
X306486Y518415D01*
X306514Y518510D01*
X306543Y518608D01*
X306571Y518709D01*
X306598Y518812D01*
X306623Y518917D01*
X306755Y519418D01*
X306884Y519920D01*
X307010Y520423D01*
X307134Y520928D01*
X307255Y521433D01*
X307373Y521940D01*
X307489Y522447D01*
X307602Y522955D01*
X307728Y523531D01*
X307851Y524108D01*
X307970Y524684D01*
X308086Y525261D01*
X308200Y525838D01*
X308310Y526416D01*
X308417Y526994D01*
X308522Y527573D01*
X308524Y527584D01*
X308526Y527595D01*
X308528Y527606D01*
X308530Y527616D01*
X308532Y527627D01*
X308534Y527638D01*
X308533Y527638D01*
X308534Y527638D01*
X308535Y527649D01*
X308537Y527659D01*
X308545Y527699D01*
X308554Y527743D01*
X308563Y527791D01*
X308573Y527841D01*
X308582Y527894D01*
X308592Y527949D01*
X308601Y528007D01*
X308610Y528066D01*
X308744Y528879D01*
X308869Y529693D01*
X308986Y530507D01*
X309095Y531322D01*
X309197Y532137D01*
X309292Y532952D01*
X309381Y533767D01*
X309466Y534583D01*
X309479Y534700D01*
X309493Y534819D01*
X309506Y534939D01*
X309518Y535061D01*
X309530Y535183D01*
X309541Y535306D01*
X309550Y535430D01*
X309559Y535554D01*
X309629Y536349D01*
X309692Y537145D01*
X309749Y537942D01*
X309799Y538740D01*
X309843Y539540D01*
X309880Y540342D01*
X309911Y541144D01*
X309936Y541949D01*
X309938Y542067D01*
X309939Y542184D01*
X309940Y542299D01*
X309940Y542412D01*
X309941Y542523D01*
X309943Y542633D01*
X309946Y542741D01*
X309950Y542848D01*
X309950Y543034D01*
X309951Y543218D01*
X309953Y543400D01*
X309954Y543580D01*
X309956Y543759D01*
X309957Y543936D01*
X309958Y544113D01*
X309958Y544290D01*
X309947Y545811D01*
X309913Y547334D01*
X309857Y548860D01*
X309777Y550390D01*
X309674Y551923D01*
X309548Y553461D01*
X309399Y555003D01*
X309226Y556550D01*
X309221Y556602D01*
X309215Y556657D01*
X309209Y556714D01*
X309203Y556772D01*
X309197Y556832D01*
X309190Y556894D01*
X309183Y556957D01*
X309174Y557022D01*
X309060Y557893D01*
X308939Y558766D01*
X308810Y559642D01*
X308675Y560521D01*
X308533Y561401D01*
X308384Y562284D01*
X308228Y563168D01*
X308065Y564053D01*
X308054Y564112D01*
X308054Y564113D01*
X308042Y564170D01*
X308031Y564225D01*
X308020Y564278D01*
X308009Y564329D01*
X308000Y564379D01*
X307992Y564427D01*
X307986Y564473D01*
X307986Y564474D01*
X307416Y567249D01*
X306776Y570042D01*
X306066Y572853D01*
X305287Y575685D01*
X304437Y578538D01*
X303516Y581415D01*
X302524Y584317D01*
X301461Y587245D01*
X301455Y587258D01*
X301450Y587272D01*
X301445Y587285D01*
X301445Y587286D01*
X301439Y587299D01*
X301434Y587313D01*
X301428Y587326D01*
X301423Y587340D01*
X301418Y587353D01*
X300581Y589340D01*
X299706Y591330D01*
X298793Y593325D01*
X297840Y595324D01*
X296846Y597327D01*
X295810Y599335D01*
X294732Y601346D01*
X293609Y603361D01*
X293609Y603362D01*
X293542Y603457D01*
X293541Y603458D01*
X293460Y603538D01*
X293459Y603538D01*
X293367Y603601D01*
X293366Y603601D01*
X293366Y603602D01*
X293264Y603647D01*
X293156Y603673D01*
X293155Y603673D01*
X293043Y603680D01*
X293042Y603680D01*
X292928Y603666D01*
X292815Y603630D01*
X292710Y603577D01*
X292709Y603577D01*
X292618Y603507D01*
X292542Y603423D01*
X292542Y603422D01*
X292484Y603327D01*
X292484Y603326D01*
X292483Y603326D01*
X292443Y603222D01*
X292443Y603221D01*
X292422Y603110D01*
X292422Y603109D01*
X292421Y602995D01*
X292442Y602880D01*
X292442Y602879D01*
X292690Y602049D01*
X293185Y600310D01*
X293841Y597725D01*
X294571Y594353D01*
X295291Y590256D01*
X295912Y585495D01*
X296349Y580131D01*
X296516Y574224D01*
X296238Y566607D01*
X295311Y558428D01*
X293590Y549792D01*
X290930Y540802D01*
X287185Y531563D01*
X282209Y522178D01*
X275857Y512751D01*
X267983Y503385D01*
X267689Y503046D01*
X266876Y502188D01*
X265604Y500986D01*
X263935Y499615D01*
X261931Y498249D01*
X259652Y497063D01*
X257161Y496230D01*
X254518Y495927D01*
X252291Y496165D01*
X249992Y496957D01*
X247652Y498409D01*
X245305Y500627D01*
X242983Y503720D01*
X240720Y507793D01*
X238548Y512954D01*
X236502Y519309D01*
X236496Y519331D01*
X236490Y519353D01*
X236484Y519375D01*
X236478Y519397D01*
X236472Y519419D01*
X236466Y519441D01*
X236460Y519464D01*
X236454Y519486D01*
X236444Y519520D01*
X236434Y519554D01*
X236425Y519588D01*
X236415Y519622D01*
X236405Y519657D01*
X236396Y519691D01*
X236386Y519726D01*
X236376Y519760D01*
X236371Y519763D01*
X236371Y519764D01*
X236371Y519766D01*
X236371Y519768D01*
X236370Y519770D01*
X236370Y519771D01*
X236370Y519772D01*
X236370Y519774D01*
X236369Y519774D01*
X236320Y519893D01*
X236250Y519996D01*
X236250Y519997D01*
X236164Y520083D01*
X236163Y520083D01*
X236063Y520151D01*
X236062Y520151D01*
X235951Y520198D01*
X235950Y520199D01*
X235832Y520224D01*
X235831Y520224D01*
X235707Y520227D01*
X235707Y520226D01*
X235706Y520227D01*
X235581Y520204D01*
X235580Y520204D01*
X235462Y520158D01*
X235462Y520157D01*
X235461Y520157D01*
X235358Y520090D01*
X235358Y520089D01*
X235357Y520089D01*
X235270Y520005D01*
X235270Y520004D01*
X235201Y519904D01*
X235200Y519904D01*
X235152Y519792D01*
X235151Y519792D01*
X235124Y519672D01*
X235125Y519671D01*
X235124Y519671D01*
X235121Y519546D01*
X235121Y519545D01*
X235143Y519418D01*
X235143Y519417D01*
X235143Y519416D01*
X235143Y519415D01*
X235143Y519414D01*
X235144Y519413D01*
X235144Y519412D01*
X235143Y519412D01*
X235144Y519411D01*
X235143Y519410D01*
X235147Y519397D01*
X235151Y519384D01*
X235155Y519371D01*
X235159Y519358D01*
X235162Y519345D01*
X235166Y519332D01*
X235169Y519320D01*
X235172Y519307D01*
X235194Y519228D01*
X235216Y519149D01*
X235238Y519071D01*
X235260Y518993D01*
X235282Y518914D01*
X235304Y518837D01*
X235326Y518759D01*
X235348Y518681D01*
X235408Y518453D01*
X235466Y518226D01*
X235524Y517997D01*
X235581Y517768D01*
X235639Y517538D01*
X235697Y517306D01*
X235756Y517072D01*
X235817Y516837D01*
X237066Y512152D01*
X237065Y512152D01*
X238599Y506224D01*
X240277Y499629D01*
X241963Y492942D01*
X243515Y486739D01*
X244797Y481596D01*
X245667Y478088D01*
X245989Y476791D01*
X245989Y476790D01*
X247832Y471680D01*
X249779Y467365D01*
X249780Y467365D01*
X249779Y467364D01*
X251824Y463808D01*
X253958Y460976D01*
X253959Y460976D01*
X253959Y460975D01*
X256176Y458832D01*
X256176Y458831D01*
X258468Y457341D01*
X258469Y457341D01*
X260830Y456468D01*
X260831Y456467D01*
X263252Y456177D01*
X263253Y456178D01*
G37*
G36*
X101322Y461503D02*
X101322Y461503D01*
X101323Y461503D01*
X102763Y461690D01*
X104221Y462004D01*
X105695Y462447D01*
X105695Y462448D01*
X107185Y463022D01*
X108691Y463729D01*
X108691Y463730D01*
X108691Y463729D01*
X110211Y464572D01*
X111745Y465552D01*
X121287Y473651D01*
X121288Y473651D01*
X129060Y483160D01*
X129060Y483161D01*
X135216Y493313D01*
X135216Y493314D01*
X139911Y503343D01*
X143297Y512483D01*
X145529Y519966D01*
X145529Y519967D01*
X146761Y525026D01*
X147146Y526896D01*
X147146Y526897D01*
X147155Y527023D01*
X147155Y527024D01*
X147140Y527147D01*
X147139Y527147D01*
X147140Y527148D01*
X147101Y527264D01*
X147101Y527265D01*
X147042Y527371D01*
X147042Y527372D01*
X146964Y527466D01*
X146869Y527544D01*
X146869Y527545D01*
X146760Y527603D01*
X146759Y527603D01*
X146759Y527604D01*
X146637Y527640D01*
X143367Y528681D01*
X139810Y530642D01*
X135997Y533499D01*
X131963Y537229D01*
X127743Y541809D01*
X123369Y547216D01*
X118877Y553424D01*
X114299Y560413D01*
X114241Y560495D01*
X114240Y560495D01*
X114240Y560496D01*
X114171Y560566D01*
X114092Y560623D01*
X114092Y560624D01*
X114006Y560668D01*
X114005Y560668D01*
X113914Y560699D01*
X113913Y560699D01*
X113817Y560715D01*
X113817Y560714D01*
X113816Y560715D01*
X113718Y560715D01*
X113619Y560700D01*
X113619Y560699D01*
X113522Y560670D01*
X113522Y560669D01*
X113521Y560670D01*
X113433Y560626D01*
X113432Y560625D01*
X113352Y560569D01*
X113351Y560569D01*
X113282Y560501D01*
X113282Y560500D01*
X113281Y560500D01*
X113222Y560423D01*
X113222Y560422D01*
X113175Y560337D01*
X113176Y560336D01*
X113175Y560336D01*
X113142Y560243D01*
X113123Y560145D01*
X113123Y560144D01*
X110748Y540690D01*
X108093Y524623D01*
X105216Y511702D01*
X102172Y501690D01*
X99016Y494346D01*
X95805Y489431D01*
X92595Y486705D01*
X89441Y485927D01*
X83698Y488316D01*
X77939Y494874D01*
X72406Y504220D01*
X67339Y514968D01*
X62979Y525738D01*
X59566Y535145D01*
X57341Y541806D01*
X56546Y544338D01*
X56545Y544338D01*
X56541Y544341D01*
X56540Y544340D01*
X56516Y544379D01*
X56515Y544379D01*
X56453Y544451D01*
X56363Y544540D01*
X56251Y544635D01*
X56126Y544721D01*
X56125Y544722D01*
X55994Y544788D01*
X55993Y544788D01*
X55862Y544822D01*
X55861Y544822D01*
X55860Y544822D01*
X55737Y544811D01*
X55736Y544810D01*
X55736Y544811D01*
X55622Y544765D01*
X55622Y544764D01*
X55522Y544700D01*
X55437Y544620D01*
X55437Y544619D01*
X55369Y544526D01*
X55369Y544525D01*
X55320Y544421D01*
X55319Y544420D01*
X55290Y544308D01*
X55290Y544307D01*
X55282Y544189D01*
X55282Y544188D01*
X55297Y544067D01*
X55298Y544067D01*
X55297Y544067D01*
X58838Y529139D01*
X62890Y514462D01*
X62890Y514461D01*
X67487Y500567D01*
X67487Y500566D01*
X72666Y487986D01*
X72666Y487985D01*
X78461Y477251D01*
X78462Y477251D01*
X84908Y468894D01*
X84909Y468894D01*
X84909Y468893D01*
X92042Y463447D01*
X92043Y463447D01*
X92044Y463446D01*
X99899Y461441D01*
X99899Y461442D01*
X99900Y461441D01*
X101322Y461503D01*
G37*
G36*
X193247Y346956D02*
X193247Y346956D01*
X194474Y347057D01*
X195729Y347228D01*
X195730Y347228D01*
X197012Y347469D01*
X197013Y347469D01*
X198323Y347782D01*
X198324Y347782D01*
X199663Y348169D01*
X201032Y348631D01*
X202431Y349169D01*
X202431Y349170D01*
X210630Y353845D01*
X210631Y353846D01*
X218112Y360406D01*
X218113Y360406D01*
X224761Y368772D01*
X224760Y368772D01*
X224761Y368773D01*
X230460Y378864D01*
X230459Y378864D01*
X230460Y378864D01*
X235094Y390602D01*
X238548Y403906D01*
X238548Y403907D01*
X240706Y418698D01*
X240706Y418699D01*
X241453Y434897D01*
X241453Y434898D01*
X241350Y441150D01*
X241037Y447578D01*
X240509Y454176D01*
X239759Y460942D01*
X238782Y467870D01*
X237572Y474958D01*
X236123Y482202D01*
X234430Y489596D01*
X234429Y489597D01*
X234430Y489597D01*
X234390Y489709D01*
X234389Y489709D01*
X234390Y489709D01*
X234332Y489809D01*
X234331Y489809D01*
X234331Y489810D01*
X234258Y489897D01*
X234257Y489897D01*
X234170Y489970D01*
X234169Y489970D01*
X234071Y490026D01*
X234070Y490026D01*
X233962Y490064D01*
X233847Y490083D01*
X233847Y490082D01*
X233847Y490083D01*
X233728Y490080D01*
X233727Y490080D01*
X233613Y490056D01*
X233508Y490012D01*
X233507Y490011D01*
X233413Y489949D01*
X233412Y489949D01*
X233331Y489871D01*
X233264Y489779D01*
X233214Y489676D01*
X233214Y489675D01*
X233213Y489675D01*
X233182Y489563D01*
X233182Y489562D01*
X233171Y489442D01*
X233197Y489158D01*
X233260Y488462D01*
X233349Y487371D01*
X233451Y485903D01*
X233552Y484074D01*
X233641Y481903D01*
X233705Y479408D01*
X233730Y476606D01*
X233520Y468162D01*
X232735Y458282D01*
X231156Y447357D01*
X228559Y435778D01*
X224724Y423939D01*
X219430Y412230D01*
X212455Y401044D01*
X203577Y390772D01*
X199730Y387190D01*
X196132Y384187D01*
X192775Y381733D01*
X189654Y379796D01*
X186763Y378346D01*
X184096Y377350D01*
X181646Y376778D01*
X179406Y376597D01*
X174037Y377858D01*
X169867Y381421D01*
X166732Y386628D01*
X164469Y392820D01*
X162914Y399336D01*
X161903Y405518D01*
X161273Y410705D01*
X160861Y414238D01*
X160861Y414239D01*
X160831Y414359D01*
X160831Y414360D01*
X160779Y414469D01*
X160708Y414565D01*
X160707Y414565D01*
X160621Y414645D01*
X160620Y414645D01*
X160620Y414646D01*
X160519Y414709D01*
X160519Y414708D01*
X160519Y414709D01*
X160407Y414752D01*
X160406Y414752D01*
X160286Y414774D01*
X160160Y414772D01*
X160159Y414772D01*
X160039Y414747D01*
X159929Y414700D01*
X159928Y414699D01*
X159928Y414700D01*
X159830Y414633D01*
X159829Y414633D01*
X159745Y414549D01*
X159744Y414549D01*
X159676Y414451D01*
X159627Y414342D01*
X159627Y414341D01*
X159599Y414224D01*
X159599Y414223D01*
X159594Y414100D01*
X159594Y414099D01*
X160096Y407670D01*
X160964Y399751D01*
X162312Y390876D01*
X164255Y381578D01*
X164255Y381577D01*
X166906Y372388D01*
X166907Y372388D01*
X170382Y363841D01*
X170382Y363840D01*
X174795Y356468D01*
X174796Y356468D01*
X180262Y350803D01*
X180263Y350803D01*
X180504Y350646D01*
X180745Y350489D01*
X180986Y350332D01*
X181227Y350176D01*
X181468Y350019D01*
X181709Y349862D01*
X181950Y349705D01*
X182191Y349549D01*
X182191Y349548D01*
X183293Y348960D01*
X184432Y348439D01*
X185608Y347989D01*
X185608Y347990D01*
X185608Y347989D01*
X186821Y347614D01*
X188071Y347317D01*
X189359Y347100D01*
X190684Y346968D01*
X192046Y346923D01*
X193247Y346956D01*
G37*
G36*
X341905Y995303D02*
X341905Y995303D01*
X341905Y995304D01*
X341906Y995304D01*
X342468Y995524D01*
X342468Y995525D01*
X342469Y995524D01*
X343096Y995938D01*
X343096Y995939D01*
X343097Y995939D01*
X343792Y996575D01*
X343793Y996575D01*
X344559Y997460D01*
X345399Y998623D01*
X345653Y998982D01*
X346329Y1000029D01*
X347294Y1001716D01*
X347294Y1001717D01*
X348417Y1003999D01*
X348416Y1003999D01*
X348417Y1003999D01*
X349566Y1006831D01*
X350610Y1010165D01*
X350610Y1010166D01*
X350611Y1010166D01*
X351418Y1013956D01*
X351419Y1013957D01*
X351858Y1018158D01*
X351799Y1022723D01*
X351799Y1022724D01*
X351109Y1027607D01*
X351108Y1027607D01*
X351109Y1027607D01*
X349656Y1032762D01*
X349656Y1032763D01*
X347309Y1038144D01*
X343937Y1043705D01*
X339408Y1049399D01*
X333591Y1055180D01*
X326354Y1061002D01*
X326353Y1061002D01*
X326352Y1061003D01*
X325857Y1061119D01*
X324468Y1061375D01*
X324468Y1061374D01*
X324468Y1061375D01*
X322327Y1061635D01*
X319578Y1061764D01*
X319577Y1061764D01*
X316362Y1061625D01*
X312824Y1061083D01*
X312823Y1061083D01*
X309105Y1060002D01*
X305350Y1058246D01*
X305349Y1058245D01*
X305349Y1058246D01*
X301700Y1055679D01*
X301700Y1055678D01*
X301699Y1055678D01*
X298299Y1052164D01*
X298298Y1052164D01*
X295289Y1047567D01*
X292814Y1041752D01*
X292814Y1041751D01*
X291017Y1034582D01*
X291017Y1034581D01*
X290039Y1025921D01*
X290040Y1025921D01*
X290039Y1025921D01*
X290025Y1015635D01*
X290026Y1015634D01*
X290025Y1015634D01*
X291117Y1003586D01*
X291117Y1003585D01*
X291119Y1003585D01*
X291121Y1003582D01*
X291122Y1003583D01*
X291123Y1003582D01*
X291547Y1003742D01*
X292755Y1004172D01*
X294655Y1004799D01*
X297150Y1005551D01*
X300147Y1006354D01*
X303552Y1007135D01*
X307271Y1007821D01*
X311208Y1008339D01*
X315270Y1008616D01*
X319363Y1008579D01*
X323391Y1008155D01*
X327262Y1007271D01*
X330880Y1005854D01*
X334151Y1003830D01*
X336982Y1001128D01*
X339277Y997673D01*
X339294Y997608D01*
X339294Y997607D01*
X339347Y997428D01*
X339440Y997162D01*
X339574Y996839D01*
X339574Y996838D01*
X339753Y996486D01*
X339753Y996485D01*
X339978Y996130D01*
X339979Y996130D01*
X340253Y995801D01*
X340254Y995801D01*
X340254Y995800D01*
X340581Y995526D01*
X340582Y995526D01*
X340582Y995525D01*
X340964Y995332D01*
X340965Y995332D01*
X341404Y995249D01*
X341405Y995249D01*
X341905Y995303D01*
G37*
G36*
X273049Y736267D02*
X273049Y736267D01*
X275831Y736374D01*
X275832Y736374D01*
X278431Y736683D01*
X278432Y736683D01*
X280853Y737176D01*
X280854Y737176D01*
X283103Y737832D01*
X285185Y738634D01*
X287105Y739563D01*
X288867Y740599D01*
X288867Y740600D01*
X288868Y740600D01*
X290469Y741718D01*
X290472Y741718D01*
X293128Y744028D01*
X293129Y744028D01*
X295299Y746444D01*
X295299Y746445D01*
X297024Y748841D01*
X298345Y751090D01*
X299302Y753065D01*
X299302Y753066D01*
X299938Y754640D01*
X300292Y755688D01*
X300407Y756081D01*
X301068Y757819D01*
X301632Y759597D01*
X302100Y761411D01*
X302100Y761412D01*
X302477Y763259D01*
X302477Y763260D01*
X302765Y765137D01*
X302765Y765138D01*
X302967Y767042D01*
X302967Y767043D01*
X303086Y768971D01*
X303125Y770920D01*
X303125Y770921D01*
X301849Y782883D01*
X301848Y782883D01*
X301849Y782884D01*
X298511Y794932D01*
X298510Y794932D01*
X298510Y794933D01*
X293798Y806550D01*
X293798Y806551D01*
X288399Y817220D01*
X283002Y826424D01*
X278293Y833645D01*
X274962Y838365D01*
X273694Y840068D01*
X272181Y841831D01*
X271015Y843299D01*
X270078Y844555D01*
X269250Y845681D01*
X268412Y846760D01*
X267445Y847875D01*
X266230Y849108D01*
X264647Y850543D01*
X264547Y850614D01*
X264546Y850614D01*
X264438Y850663D01*
X264437Y850663D01*
X264324Y850691D01*
X264323Y850691D01*
X264207Y850698D01*
X264207Y850697D01*
X264206Y850698D01*
X264092Y850683D01*
X264091Y850683D01*
X263981Y850648D01*
X263981Y850647D01*
X263980Y850647D01*
X263877Y850592D01*
X263877Y850591D01*
X263784Y850515D01*
X263783Y850515D01*
X263704Y850420D01*
X263704Y850419D01*
X263646Y850315D01*
X263646Y850314D01*
X263609Y850203D01*
X263609Y850202D01*
X263593Y850088D01*
X263593Y850087D01*
X263598Y849971D01*
X263598Y849970D01*
X263624Y849856D01*
X263671Y849746D01*
X263672Y849746D01*
X263740Y849643D01*
X264986Y847695D01*
X267675Y843038D01*
X271311Y836254D01*
X275395Y827922D01*
X279431Y818626D01*
X282922Y808946D01*
X285372Y799464D01*
X286282Y790760D01*
X286061Y787297D01*
X285437Y784167D01*
X284358Y781409D01*
X282775Y779060D01*
X280633Y777159D01*
X277883Y775745D01*
X274471Y774855D01*
X270346Y774528D01*
X268726Y774568D01*
X267009Y774689D01*
X265194Y774894D01*
X263280Y775185D01*
X261264Y775564D01*
X259146Y776034D01*
X256924Y776596D01*
X254596Y777253D01*
X249928Y779007D01*
X245356Y781341D01*
X241044Y784004D01*
X237151Y786744D01*
X233840Y789311D01*
X231272Y791454D01*
X229609Y792923D01*
X229011Y793466D01*
X228922Y793539D01*
X228921Y793539D01*
X228824Y793593D01*
X228823Y793593D01*
X228720Y793628D01*
X228719Y793628D01*
X228719Y793629D01*
X228612Y793645D01*
X228611Y793645D01*
X228503Y793643D01*
X228502Y793643D01*
X228394Y793623D01*
X228394Y793622D01*
X228394Y793623D01*
X228290Y793583D01*
X228289Y793583D01*
X228191Y793525D01*
X228190Y793525D01*
X228107Y793448D01*
X228106Y793447D01*
X228038Y793359D01*
X227987Y793262D01*
X227987Y793261D01*
X227953Y793157D01*
X227952Y793157D01*
X227936Y793049D01*
X227937Y793048D01*
X227936Y793048D01*
X227939Y792938D01*
X227939Y792937D01*
X227960Y792827D01*
X227961Y792827D01*
X228002Y792719D01*
X228003Y792717D01*
X228004Y792715D01*
X228005Y792714D01*
X228005Y792712D01*
X228006Y792710D01*
X228008Y792707D01*
X228009Y792705D01*
X228019Y792689D01*
X228039Y792658D01*
X228049Y792643D01*
X228059Y792627D01*
X228068Y792612D01*
X228078Y792596D01*
X228088Y792581D01*
X228088Y792580D01*
X236932Y781610D01*
X244415Y771339D01*
X250594Y762002D01*
X255525Y753832D01*
X259265Y747066D01*
X261872Y741939D01*
X263402Y738685D01*
X263912Y737539D01*
X263913Y737538D01*
X263913Y737537D01*
X263971Y737490D01*
X264030Y737442D01*
X264089Y737394D01*
X264147Y737346D01*
X264206Y737298D01*
X264264Y737251D01*
X264323Y737203D01*
X264381Y737155D01*
X264383Y737155D01*
X264383Y737154D01*
X264802Y737077D01*
X265214Y737004D01*
X265621Y736935D01*
X266023Y736869D01*
X266420Y736807D01*
X266814Y736747D01*
X266814Y736746D01*
X267205Y736689D01*
X267593Y736634D01*
X267787Y736610D01*
X267979Y736587D01*
X268170Y736564D01*
X268360Y736542D01*
X268549Y736520D01*
X268736Y736498D01*
X268922Y736476D01*
X269107Y736454D01*
X269107Y736455D01*
X269107Y736454D01*
X269201Y736446D01*
X269293Y736438D01*
X269384Y736430D01*
X269474Y736423D01*
X269562Y736415D01*
X269650Y736409D01*
X269736Y736402D01*
X269820Y736396D01*
X270232Y736366D01*
X270639Y736339D01*
X271043Y736317D01*
X271044Y736317D01*
X271444Y736299D01*
X271841Y736285D01*
X272235Y736275D01*
X272626Y736269D01*
X273014Y736267D01*
X273049Y736267D01*
X273049Y736267D01*
G37*
G36*
X142761Y264920D02*
X142761Y264920D01*
X142762Y264920D01*
X143919Y265066D01*
X143920Y265067D01*
X143920Y265066D01*
X145089Y265313D01*
X146269Y265661D01*
X147459Y266112D01*
X148657Y266668D01*
X148658Y266668D01*
X149863Y267330D01*
X151076Y268100D01*
X152123Y268757D01*
X154905Y270934D01*
X154905Y270935D01*
X154906Y270934D01*
X159007Y274988D01*
X159007Y274989D01*
X164013Y281276D01*
X164014Y281276D01*
X169509Y290152D01*
X169509Y290153D01*
X175078Y301974D01*
X175078Y301975D01*
X180306Y317099D01*
X184777Y335881D01*
X184777Y335882D01*
X184787Y335958D01*
X184786Y335958D01*
X184787Y335958D01*
X184787Y336034D01*
X184779Y336108D01*
X184779Y336109D01*
X184762Y336181D01*
X184762Y336182D01*
X184738Y336251D01*
X184738Y336252D01*
X184705Y336318D01*
X184705Y336319D01*
X184664Y336381D01*
X184664Y336382D01*
X184616Y336440D01*
X184563Y336491D01*
X184504Y336536D01*
X184440Y336573D01*
X184440Y336574D01*
X184372Y336603D01*
X184372Y336604D01*
X184301Y336625D01*
X184301Y336626D01*
X184228Y336639D01*
X184228Y336638D01*
X184228Y336639D01*
X184154Y336643D01*
X184153Y336643D01*
X184079Y336637D01*
X184067Y336636D01*
X184031Y336633D01*
X183972Y336628D01*
X183888Y336622D01*
X183782Y336616D01*
X183652Y336611D01*
X183498Y336608D01*
X183321Y336606D01*
X181663Y336729D01*
X179241Y337240D01*
X176221Y338403D01*
X172774Y340476D01*
X169066Y343720D01*
X165265Y348397D01*
X161540Y354767D01*
X158059Y363089D01*
X158037Y363278D01*
X158015Y363460D01*
X157993Y363636D01*
X157972Y363805D01*
X157950Y363967D01*
X157929Y364123D01*
X157908Y364272D01*
X157887Y364415D01*
X157863Y364567D01*
X157839Y364711D01*
X157816Y364847D01*
X157794Y364974D01*
X157772Y365093D01*
X157751Y365203D01*
X157751Y365204D01*
X157731Y365306D01*
X157711Y365401D01*
X157700Y365444D01*
X157689Y365486D01*
X157678Y365526D01*
X157666Y365566D01*
X157654Y365605D01*
X157642Y365644D01*
X157629Y365683D01*
X157616Y365721D01*
X157615Y365722D01*
X157615Y365723D01*
X157587Y365755D01*
X157573Y365800D01*
X157559Y365857D01*
X157558Y365857D01*
X157529Y365923D01*
X157528Y365923D01*
X157528Y365924D01*
X157469Y365994D01*
X157469Y365995D01*
X157365Y366069D01*
X157364Y366069D01*
X157201Y366142D01*
X157201Y366143D01*
X156964Y366213D01*
X156962Y366213D01*
X156765Y366169D01*
X156764Y366169D01*
X156617Y366109D01*
X156617Y366108D01*
X156616Y366108D01*
X156511Y366037D01*
X156510Y366036D01*
X156438Y365961D01*
X156392Y365887D01*
X156391Y365887D01*
X156364Y365822D01*
X156346Y365772D01*
X156332Y365743D01*
X156332Y365742D01*
X156331Y365742D01*
X156307Y365648D01*
X156290Y365561D01*
X156277Y365478D01*
X156269Y365394D01*
X156264Y365307D01*
X156261Y365213D01*
X156259Y365108D01*
X156257Y364990D01*
X156258Y364931D01*
X156259Y364870D01*
X156260Y364805D01*
X156262Y364737D01*
X156264Y364666D01*
X156267Y364590D01*
X156270Y364511D01*
X156273Y364428D01*
X156326Y364002D01*
X156465Y362827D01*
X156661Y361058D01*
X156886Y358848D01*
X157110Y356354D01*
X157305Y353728D01*
X157441Y351126D01*
X157491Y348701D01*
X157379Y342677D01*
X156986Y336209D01*
X156248Y329490D01*
X155097Y322710D01*
X153466Y316062D01*
X151290Y309738D01*
X148502Y303928D01*
X145036Y298826D01*
X142583Y295975D01*
X140258Y293582D01*
X138060Y291625D01*
X135990Y290079D01*
X134045Y288919D01*
X132225Y288123D01*
X130529Y287666D01*
X128956Y287524D01*
X126970Y287725D01*
X125168Y288383D01*
X123536Y289465D01*
X122057Y290940D01*
X120715Y292777D01*
X119496Y294945D01*
X118383Y297411D01*
X117362Y300144D01*
X117321Y300311D01*
X117236Y300631D01*
X117123Y301056D01*
X116996Y301535D01*
X116866Y302020D01*
X116750Y302460D01*
X116660Y302808D01*
X116611Y303013D01*
X115942Y306233D01*
X115295Y309458D01*
X114671Y312693D01*
X114072Y315948D01*
X113498Y319229D01*
X112951Y322544D01*
X112432Y325900D01*
X112432Y325901D01*
X111941Y329306D01*
X111941Y329307D01*
X111911Y329428D01*
X111911Y329429D01*
X111860Y329539D01*
X111859Y329539D01*
X111859Y329540D01*
X111790Y329637D01*
X111789Y329637D01*
X111704Y329719D01*
X111703Y329719D01*
X111603Y329783D01*
X111492Y329828D01*
X111491Y329828D01*
X111372Y329851D01*
X111371Y329851D01*
X111245Y329851D01*
X111244Y329850D01*
X111244Y329851D01*
X111122Y329827D01*
X111121Y329827D01*
X111009Y329782D01*
X111009Y329781D01*
X111009Y329782D01*
X110909Y329717D01*
X110908Y329717D01*
X110823Y329636D01*
X110823Y329635D01*
X110822Y329635D01*
X110754Y329539D01*
X110753Y329539D01*
X110704Y329431D01*
X110703Y329430D01*
X110675Y329313D01*
X110670Y329189D01*
X110672Y329187D01*
X110672Y329185D01*
X110673Y329183D01*
X110675Y329179D01*
X110676Y329173D01*
X110678Y329165D01*
X110680Y329155D01*
X110682Y329145D01*
X110683Y329136D01*
X110682Y329136D01*
X110680Y329136D01*
X110679Y329135D01*
X110677Y329135D01*
X110675Y329134D01*
X110673Y329134D01*
X110670Y329130D01*
X110670Y329129D01*
X110675Y329096D01*
X110680Y329062D01*
X110685Y329029D01*
X110690Y328995D01*
X110694Y328962D01*
X110699Y328929D01*
X110704Y328896D01*
X110708Y328864D01*
X110805Y327827D01*
X110986Y326167D01*
X111250Y323969D01*
X111598Y321315D01*
X112030Y318288D01*
X112545Y314972D01*
X113144Y311449D01*
X113826Y307804D01*
X114106Y306202D01*
X114506Y304363D01*
X114986Y302395D01*
X114986Y302394D01*
X115507Y300405D01*
X116030Y298503D01*
X116514Y296796D01*
X116921Y295393D01*
X117211Y294402D01*
X119148Y288516D01*
X119148Y288515D01*
X121431Y283012D01*
X121432Y283012D01*
X124048Y278015D01*
X124048Y278014D01*
X126982Y273644D01*
X126982Y273643D01*
X130220Y270022D01*
X130221Y270022D01*
X130221Y270021D01*
X133748Y267271D01*
X133749Y267271D01*
X137551Y265514D01*
X137552Y265514D01*
X137552Y265513D01*
X141616Y264871D01*
X141617Y264871D01*
X142761Y264920D01*
G37*
G36*
X156352Y152596D02*
X156352Y152596D01*
X156929Y152693D01*
X157503Y152819D01*
X158073Y152976D01*
X158641Y153166D01*
X158641Y153167D01*
X158641Y153166D01*
X159208Y153392D01*
X159208Y153393D01*
X159775Y153656D01*
X160343Y153960D01*
X161477Y154640D01*
X162593Y155376D01*
X163692Y156166D01*
X163693Y156166D01*
X164776Y157007D01*
X165845Y157897D01*
X165846Y157897D01*
X166901Y158833D01*
X167943Y159813D01*
X168973Y160834D01*
X168974Y160835D01*
X181373Y178969D01*
X181373Y178970D01*
X191367Y201768D01*
X199213Y227491D01*
X205166Y254399D01*
X209484Y280755D01*
X212421Y304820D01*
X212421Y304821D01*
X214234Y324856D01*
X215180Y339124D01*
X215181Y339127D01*
X215182Y339130D01*
X215182Y339133D01*
X215183Y339136D01*
X215183Y339137D01*
X215184Y339139D01*
X215183Y339139D01*
X215184Y339139D01*
X215183Y339139D01*
X215184Y339139D01*
X215184Y339140D01*
X215182Y339143D01*
X215182Y339145D01*
X215182Y339146D01*
X215181Y339146D01*
X215181Y339152D01*
X215182Y339160D01*
X215182Y339168D01*
X215183Y339176D01*
X215183Y339184D01*
X215184Y339192D01*
X215184Y339193D01*
X215184Y339201D01*
X215184Y339210D01*
X215180Y339333D01*
X215180Y339334D01*
X215153Y339451D01*
X215152Y339451D01*
X215104Y339559D01*
X215104Y339560D01*
X215036Y339656D01*
X215036Y339657D01*
X214952Y339739D01*
X214951Y339739D01*
X214951Y339740D01*
X214852Y339806D01*
X214740Y339853D01*
X214739Y339853D01*
X214617Y339879D01*
X214616Y339879D01*
X214492Y339879D01*
X214491Y339878D01*
X214491Y339879D01*
X214372Y339855D01*
X214371Y339855D01*
X214260Y339810D01*
X214259Y339810D01*
X214159Y339746D01*
X214158Y339746D01*
X214071Y339665D01*
X214000Y339570D01*
X214000Y339569D01*
X213947Y339461D01*
X213948Y339461D01*
X213947Y339460D01*
X213916Y339342D01*
X213648Y337697D01*
X212855Y333045D01*
X211554Y325777D01*
X209759Y316282D01*
X207488Y304950D01*
X204756Y292170D01*
X201580Y278333D01*
X197976Y263829D01*
X193965Y249050D01*
X189547Y234380D01*
X184746Y220213D01*
X179585Y206944D01*
X174087Y194965D01*
X168276Y184670D01*
X162177Y176453D01*
X155811Y170707D01*
X155776Y170682D01*
X155681Y170625D01*
X155526Y170547D01*
X155309Y170458D01*
X155030Y170370D01*
X154689Y170293D01*
X154284Y170239D01*
X153814Y170219D01*
X151514Y170657D01*
X148364Y172585D01*
X144470Y176730D01*
X139941Y183819D01*
X134884Y194580D01*
X129406Y209739D01*
X123615Y230025D01*
X117619Y256164D01*
X117618Y256167D01*
X117618Y256170D01*
X117617Y256173D01*
X117617Y256175D01*
X117617Y256178D01*
X117616Y256181D01*
X117616Y256184D01*
X117615Y256187D01*
X117613Y256189D01*
X117613Y256191D01*
X117612Y256195D01*
X117612Y256196D01*
X117610Y256203D01*
X117609Y256207D01*
X117608Y256211D01*
X117607Y256215D01*
X117607Y256219D01*
X117606Y256219D01*
X117568Y256342D01*
X117568Y256343D01*
X117509Y256452D01*
X117508Y256452D01*
X117508Y256453D01*
X117431Y256546D01*
X117431Y256547D01*
X117339Y256623D01*
X117338Y256623D01*
X117233Y256680D01*
X117233Y256681D01*
X117118Y256716D01*
X117117Y256717D01*
X116996Y256730D01*
X116996Y256729D01*
X116995Y256730D01*
X116870Y256718D01*
X116869Y256718D01*
X116748Y256684D01*
X116747Y256684D01*
X116639Y256628D01*
X116638Y256628D01*
X116544Y256553D01*
X116543Y256553D01*
X116465Y256462D01*
X116465Y256461D01*
X116405Y256357D01*
X116365Y256242D01*
X116365Y256241D01*
X116364Y256241D01*
X116347Y256119D01*
X116347Y256118D01*
X116353Y255990D01*
X121416Y227170D01*
X121417Y227170D01*
X121416Y227170D01*
X126599Y204084D01*
X131821Y186135D01*
X137004Y172725D01*
X137004Y172724D01*
X142069Y163256D01*
X142070Y163256D01*
X146937Y157132D01*
X146938Y157132D01*
X146938Y157131D01*
X151530Y153754D01*
X151531Y153754D01*
X155768Y152527D01*
X155769Y152527D01*
X155770Y152526D01*
X156352Y152596D01*
G37*
G36*
X404286Y590885D02*
X404286Y590885D01*
X404287Y590885D01*
X408904Y592164D01*
X408905Y592164D01*
X413242Y594453D01*
X413242Y594454D01*
X416984Y597629D01*
X416984Y597630D01*
X416985Y597630D01*
X419892Y601442D01*
X419892Y601443D01*
X421942Y605750D01*
X421943Y605750D01*
X423115Y610410D01*
X423115Y610411D01*
X423388Y615282D01*
X423387Y615282D01*
X423388Y615282D01*
X422740Y620222D01*
X422739Y620223D01*
X421149Y625090D01*
X421148Y625091D01*
X418594Y629744D01*
X418593Y629744D01*
X418593Y629745D01*
X415207Y633755D01*
X415206Y633755D01*
X411236Y636823D01*
X411235Y636823D01*
X411235Y636824D01*
X406836Y638993D01*
X406835Y638994D01*
X402164Y640309D01*
X402163Y640308D01*
X402163Y640309D01*
X397374Y640813D01*
X397373Y640813D01*
X392622Y640551D01*
X392622Y640550D01*
X392621Y640551D01*
X388064Y639565D01*
X388063Y639565D01*
X383855Y637900D01*
X383854Y637900D01*
X379859Y635162D01*
X379859Y635161D01*
X379858Y635161D01*
X376833Y631555D01*
X376833Y631554D01*
X374767Y627276D01*
X374767Y627275D01*
X373652Y622518D01*
X373652Y622517D01*
X373477Y617478D01*
X373478Y617478D01*
X373477Y617478D01*
X374234Y612351D01*
X374235Y612351D01*
X374234Y612351D01*
X375912Y607332D01*
X375913Y607332D01*
X378502Y602617D01*
X378503Y602616D01*
X381872Y598515D01*
X385799Y595229D01*
X385799Y595228D01*
X390143Y592790D01*
X390144Y592790D01*
X390144Y592789D01*
X394766Y591231D01*
X394767Y591231D01*
X399527Y590585D01*
X404286Y590885D01*
G37*
G36*
X314340Y580713D02*
X314340Y580713D01*
X314341Y580713D01*
X315518Y581088D01*
X315518Y581089D01*
X316799Y581709D01*
X318203Y582579D01*
X319750Y583704D01*
X319750Y583705D01*
X321461Y585091D01*
X323356Y586743D01*
X325455Y588666D01*
X325455Y588667D01*
X330826Y594490D01*
X330826Y594491D01*
X335444Y600885D01*
X335445Y600885D01*
X339339Y607517D01*
X339340Y607518D01*
X342540Y614054D01*
X342541Y614054D01*
X345077Y620161D01*
X346979Y625506D01*
X346979Y625507D01*
X348276Y629757D01*
X348998Y632578D01*
X349374Y633778D01*
X349660Y634835D01*
X349868Y635744D01*
X349868Y635745D01*
X350010Y636503D01*
X350098Y637105D01*
X350146Y637548D01*
X350166Y637826D01*
X350170Y637935D01*
X350321Y638612D01*
X350468Y639300D01*
X350611Y639996D01*
X350750Y640699D01*
X350885Y641408D01*
X351016Y642121D01*
X351143Y642837D01*
X351267Y643554D01*
X351301Y643774D01*
X351303Y643786D01*
X351325Y643930D01*
X351334Y643992D01*
X351367Y644209D01*
X351399Y644426D01*
X351431Y644641D01*
X351462Y644855D01*
X351472Y644921D01*
X351491Y645044D01*
X351494Y645068D01*
X351527Y645280D01*
X351560Y645499D01*
X351562Y645511D01*
X351564Y645524D01*
X351602Y645775D01*
X351604Y645788D01*
X351606Y645800D01*
X351681Y646320D01*
X351754Y646841D01*
X351823Y647361D01*
X351891Y647882D01*
X351956Y648403D01*
X352020Y648925D01*
X352083Y649447D01*
X352108Y649667D01*
X352132Y649888D01*
X352157Y650109D01*
X352182Y650331D01*
X352206Y650554D01*
X352229Y650777D01*
X352251Y651001D01*
X352271Y651225D01*
X352331Y651843D01*
X352388Y652462D01*
X352441Y653082D01*
X352491Y653702D01*
X352536Y654322D01*
X352577Y654942D01*
X352614Y655561D01*
X352647Y656179D01*
X352650Y656260D01*
X352656Y656344D01*
X352663Y656432D01*
X352671Y656524D01*
X352671Y656525D01*
X352678Y656621D01*
X352684Y656720D01*
X352688Y656824D01*
X352690Y656930D01*
X352722Y657624D01*
X352748Y658318D01*
X352770Y659012D01*
X352787Y659706D01*
X352800Y660400D01*
X352809Y661094D01*
X352815Y661786D01*
X352819Y662477D01*
X352816Y662704D01*
X352813Y662928D01*
X352809Y663151D01*
X352805Y663373D01*
X352801Y663594D01*
X352797Y663814D01*
X352793Y664034D01*
X352789Y664253D01*
X352781Y664739D01*
X352771Y665224D01*
X352759Y665710D01*
X352746Y666195D01*
X352731Y666680D01*
X352714Y667165D01*
X352695Y667648D01*
X352674Y668131D01*
X352661Y668378D01*
X352648Y668624D01*
X352636Y668870D01*
X352623Y669116D01*
X352610Y669361D01*
X352596Y669605D01*
X352582Y669848D01*
X352566Y670089D01*
X352532Y670600D01*
X352497Y671109D01*
X352460Y671617D01*
X352421Y672124D01*
X352380Y672630D01*
X352338Y673136D01*
X352294Y673642D01*
X352249Y674148D01*
X352230Y674330D01*
X352213Y674513D01*
X352196Y674698D01*
X352180Y674883D01*
X352162Y675068D01*
X352144Y675254D01*
X352125Y675441D01*
X352104Y675628D01*
X352035Y676277D01*
X351962Y676924D01*
X351886Y677570D01*
X351807Y678214D01*
X351725Y678857D01*
X351640Y679498D01*
X351552Y680139D01*
X351462Y680778D01*
X351423Y681042D01*
X351382Y681303D01*
X351340Y681561D01*
X351298Y681818D01*
X351255Y682073D01*
X351212Y682328D01*
X351170Y682582D01*
X351129Y682837D01*
X351063Y683245D01*
X350997Y683653D01*
X350930Y684061D01*
X350861Y684468D01*
X350790Y684874D01*
X350718Y685281D01*
X350643Y685687D01*
X350566Y686092D01*
X350514Y686378D01*
X350462Y686665D01*
X350410Y686953D01*
X350357Y687242D01*
X350303Y687531D01*
X350248Y687820D01*
X350192Y688109D01*
X350133Y688397D01*
X350056Y688778D01*
X349979Y689158D01*
X349900Y689537D01*
X349820Y689915D01*
X349740Y690291D01*
X349659Y690667D01*
X349578Y691042D01*
X349498Y691415D01*
X349435Y691692D01*
X349374Y691968D01*
X349313Y692245D01*
X349252Y692522D01*
X349191Y692799D01*
X349130Y693076D01*
X349069Y693354D01*
X349007Y693632D01*
X348935Y693926D01*
X348862Y694216D01*
X348788Y694505D01*
X348713Y694790D01*
X348639Y695075D01*
X348565Y695358D01*
X348492Y695640D01*
X348421Y695921D01*
X348421Y695922D01*
X348379Y696033D01*
X348379Y696034D01*
X348319Y696134D01*
X348244Y696221D01*
X348156Y696293D01*
X348057Y696348D01*
X348056Y696348D01*
X348056Y696349D01*
X347949Y696386D01*
X347948Y696386D01*
X347835Y696405D01*
X347834Y696404D01*
X347834Y696405D01*
X347716Y696402D01*
X347715Y696401D01*
X347715Y696402D01*
X347600Y696375D01*
X347599Y696375D01*
X347494Y696329D01*
X347494Y696328D01*
X347493Y696328D01*
X347399Y696265D01*
X347399Y696264D01*
X347398Y696264D01*
X347317Y696185D01*
X347316Y696185D01*
X347251Y696093D01*
X347251Y696092D01*
X347250Y696092D01*
X347202Y695989D01*
X347202Y695988D01*
X347201Y695988D01*
X347172Y695876D01*
X347172Y695875D01*
X347164Y695755D01*
X347169Y695228D01*
X347175Y694695D01*
X347181Y694159D01*
X347187Y693618D01*
X347192Y693073D01*
X347196Y692523D01*
X347199Y691971D01*
X347200Y691414D01*
X346979Y681208D01*
X346186Y670365D01*
X344657Y659300D01*
X342229Y648429D01*
X338737Y638165D01*
X334018Y628926D01*
X327908Y621124D01*
X320242Y615176D01*
X320085Y615074D01*
X319663Y614825D01*
X318992Y614479D01*
X318088Y614085D01*
X316968Y613692D01*
X315648Y613351D01*
X314145Y613110D01*
X312474Y613019D01*
X310548Y613143D01*
X308473Y613548D01*
X306267Y614298D01*
X303949Y615458D01*
X301539Y617091D01*
X299055Y619262D01*
X296518Y622035D01*
X293945Y625474D01*
X293864Y625568D01*
X293770Y625643D01*
X293769Y625643D01*
X293769Y625644D01*
X293665Y625699D01*
X293664Y625699D01*
X293552Y625734D01*
X293551Y625734D01*
X293435Y625749D01*
X293317Y625743D01*
X293317Y625742D01*
X293316Y625742D01*
X293201Y625714D01*
X293200Y625714D01*
X293089Y625663D01*
X293088Y625663D01*
X292990Y625592D01*
X292990Y625591D01*
X292989Y625591D01*
X292908Y625505D01*
X292908Y625504D01*
X292845Y625405D01*
X292845Y625404D01*
X292844Y625404D01*
X292801Y625295D01*
X292800Y625294D01*
X292777Y625179D01*
X292775Y625061D01*
X292775Y625060D01*
X292795Y624942D01*
X292796Y624942D01*
X292840Y624828D01*
X292840Y624827D01*
X293427Y623674D01*
X294277Y622010D01*
X295297Y620010D01*
X296397Y617847D01*
X297485Y615697D01*
X298469Y613733D01*
X299258Y612130D01*
X299760Y611062D01*
X301117Y607846D01*
X302307Y604758D01*
X303348Y601808D01*
X304261Y599007D01*
X305067Y596364D01*
X305787Y593891D01*
X306439Y591596D01*
X307046Y589492D01*
X307628Y587602D01*
X307628Y587601D01*
X308206Y585894D01*
X308206Y585893D01*
X308810Y584388D01*
X308811Y584387D01*
X308810Y584387D01*
X309470Y583103D01*
X310214Y582060D01*
X310214Y582059D01*
X311072Y581278D01*
X311073Y581277D01*
X312072Y580777D01*
X312073Y580777D01*
X312073Y580776D01*
X313245Y580576D01*
X313246Y580577D01*
X313246Y580576D01*
X314340Y580713D01*
G37*
G36*
X325172Y982010D02*
X325172Y982010D01*
X328257Y982744D01*
X328258Y982744D01*
X331259Y984232D01*
X331330Y984279D01*
X331530Y984416D01*
X331841Y984640D01*
X331841Y984641D01*
X332245Y984947D01*
X332722Y985331D01*
X333255Y985788D01*
X333825Y986314D01*
X334413Y986905D01*
X335002Y987557D01*
X335572Y988264D01*
X335572Y988265D01*
X336105Y989024D01*
X336583Y989830D01*
X336583Y989831D01*
X336987Y990680D01*
X337299Y991568D01*
X337299Y991569D01*
X337501Y992491D01*
X337500Y992491D01*
X337501Y992492D01*
X337573Y993444D01*
X337572Y993445D01*
X337569Y993448D01*
X337568Y993448D01*
X337530Y993441D01*
X337420Y993422D01*
X337245Y993392D01*
X337010Y993353D01*
X336720Y993309D01*
X336382Y993261D01*
X336001Y993212D01*
X335584Y993163D01*
X335135Y993117D01*
X334661Y993075D01*
X334168Y993041D01*
X333662Y993017D01*
X333147Y993003D01*
X332631Y993004D01*
X332119Y993021D01*
X331616Y993056D01*
X330986Y993263D01*
X330087Y993760D01*
X328929Y994491D01*
X327521Y995400D01*
X325873Y996432D01*
X323994Y997531D01*
X321894Y998643D01*
X319582Y999712D01*
X319582Y999711D01*
X319582Y999712D01*
X317068Y1000682D01*
X314361Y1001498D01*
X311471Y1002105D01*
X308407Y1002448D01*
X308406Y1002448D01*
X305178Y1002471D01*
X305178Y1002470D01*
X305178Y1002471D01*
X301794Y1002118D01*
X298265Y1001335D01*
X294600Y1000066D01*
X294599Y1000066D01*
X294599Y1000064D01*
X294597Y1000061D01*
X294598Y1000061D01*
X294598Y1000059D01*
X294837Y999771D01*
X295529Y998965D01*
X296635Y997733D01*
X298116Y996165D01*
X298117Y996165D01*
X299936Y994353D01*
X302054Y992387D01*
X304434Y990358D01*
X307035Y988356D01*
X307036Y988356D01*
X309821Y986473D01*
X309822Y986473D01*
X312753Y984799D01*
X315792Y983425D01*
X315793Y983425D01*
X318901Y982441D01*
X318901Y982442D01*
X318901Y982441D01*
X322040Y981940D01*
X322041Y981939D01*
X325172Y982010D01*
G37*
G36*
X255269Y1023723D02*
X255269Y1023723D01*
X255438Y1023747D01*
X255617Y1023792D01*
X255801Y1023863D01*
X255986Y1023964D01*
X255987Y1023965D01*
X255987Y1023964D01*
X256169Y1024101D01*
X256343Y1024278D01*
X256344Y1024278D01*
X256506Y1024500D01*
X256652Y1024770D01*
X256652Y1024771D01*
X256777Y1025095D01*
X256777Y1025096D01*
X256778Y1025096D01*
X256878Y1025479D01*
X256878Y1025480D01*
X256884Y1025533D01*
X256898Y1025689D01*
X256920Y1025941D01*
X256945Y1026284D01*
X256971Y1026710D01*
X256996Y1027215D01*
X257016Y1027791D01*
X257029Y1028433D01*
X257032Y1029134D01*
X257023Y1029889D01*
X256998Y1030691D01*
X256955Y1031534D01*
X256892Y1032411D01*
X256805Y1033318D01*
X256692Y1034246D01*
X256692Y1034247D01*
X256550Y1035192D01*
X256354Y1036255D01*
X256116Y1037323D01*
X255830Y1038387D01*
X255493Y1039437D01*
X255493Y1039438D01*
X255102Y1040467D01*
X255102Y1040468D01*
X254651Y1041468D01*
X254138Y1042430D01*
X253559Y1043346D01*
X252909Y1044207D01*
X252185Y1045005D01*
X251383Y1045731D01*
X250499Y1046376D01*
X250498Y1046376D01*
X250498Y1046377D01*
X249529Y1046933D01*
X249528Y1046933D01*
X248469Y1047393D01*
X248468Y1047393D01*
X247315Y1047747D01*
X247315Y1047748D01*
X246064Y1047988D01*
X246062Y1047987D01*
X246061Y1047987D01*
X245975Y1047922D01*
X245731Y1047732D01*
X245348Y1047423D01*
X244845Y1047000D01*
X244242Y1046470D01*
X244241Y1046470D01*
X243557Y1045837D01*
X242811Y1045109D01*
X242023Y1044290D01*
X241211Y1043387D01*
X240396Y1042405D01*
X239597Y1041351D01*
X238833Y1040230D01*
X238833Y1040229D01*
X238832Y1040229D01*
X238123Y1039047D01*
X238122Y1039047D01*
X237486Y1037810D01*
X237486Y1037809D01*
X236943Y1036523D01*
X236943Y1036522D01*
X236512Y1035192D01*
X236409Y1034791D01*
X236317Y1034387D01*
X236237Y1033981D01*
X236170Y1033571D01*
X236117Y1033159D01*
X236077Y1032745D01*
X236077Y1032744D01*
X236051Y1032328D01*
X236051Y1032327D01*
X236041Y1031908D01*
X236046Y1031487D01*
X236068Y1031064D01*
X236106Y1030639D01*
X236106Y1030638D01*
X236161Y1030212D01*
X236234Y1029783D01*
X236235Y1029783D01*
X236234Y1029783D01*
X236326Y1029353D01*
X236437Y1028922D01*
X236568Y1028490D01*
X236627Y1028312D01*
X236673Y1028179D01*
X236706Y1028083D01*
X236730Y1028017D01*
X236747Y1027977D01*
X236748Y1027976D01*
X236760Y1027953D01*
X236761Y1027953D01*
X236772Y1027941D01*
X236773Y1027941D01*
X236784Y1027934D01*
X236799Y1027927D01*
X236818Y1027912D01*
X236846Y1027882D01*
X236885Y1027832D01*
X236938Y1027754D01*
X237006Y1027642D01*
X237092Y1027489D01*
X237199Y1027290D01*
X237201Y1027290D01*
X237201Y1027288D01*
X237316Y1027252D01*
X237647Y1027149D01*
X238176Y1026989D01*
X238886Y1026781D01*
X239756Y1026532D01*
X240769Y1026254D01*
X240770Y1026254D01*
X241907Y1025954D01*
X243151Y1025641D01*
X244482Y1025325D01*
X244483Y1025325D01*
X245883Y1025014D01*
X247334Y1024717D01*
X248817Y1024444D01*
X250314Y1024203D01*
X251806Y1024003D01*
X251807Y1024003D01*
X253276Y1023854D01*
X254703Y1023763D01*
X254722Y1023758D01*
X254722Y1023759D01*
X254722Y1023758D01*
X254777Y1023746D01*
X254777Y1023747D01*
X254777Y1023746D01*
X254864Y1023732D01*
X254977Y1023720D01*
X254977Y1023721D01*
X254978Y1023720D01*
X255114Y1023716D01*
X255269Y1023723D01*
G37*
%LPC*%
G36*
X238511Y1031237D02*
X238511Y1031237D01*
X238316Y1031303D01*
X238137Y1031410D01*
X237974Y1031557D01*
X237866Y1031690D01*
X237773Y1031840D01*
X237693Y1032007D01*
X237627Y1032190D01*
X237575Y1032386D01*
X237536Y1032596D01*
X237510Y1032818D01*
X237498Y1033051D01*
X237498Y1033294D01*
X237512Y1033547D01*
X237538Y1033807D01*
X237577Y1034074D01*
X237628Y1034347D01*
X237691Y1034624D01*
X237691Y1034625D01*
X237766Y1034906D01*
X237853Y1035190D01*
X237888Y1035292D01*
X237923Y1035395D01*
X237960Y1035497D01*
X237998Y1035600D01*
X238038Y1035703D01*
X238079Y1035805D01*
X238122Y1035908D01*
X238166Y1036010D01*
X238211Y1036112D01*
X238258Y1036214D01*
X238307Y1036316D01*
X238357Y1036417D01*
X238409Y1036518D01*
X238462Y1036619D01*
X238517Y1036719D01*
X238574Y1036819D01*
X238795Y1037182D01*
X239024Y1037517D01*
X239261Y1037825D01*
X239503Y1038105D01*
X239749Y1038353D01*
X239996Y1038571D01*
X240243Y1038758D01*
X240487Y1038910D01*
X240728Y1039029D01*
X240963Y1039113D01*
X241190Y1039161D01*
X241408Y1039172D01*
X241614Y1039144D01*
X241807Y1039078D01*
X241985Y1038971D01*
X242146Y1038823D01*
X242254Y1038692D01*
X242348Y1038543D01*
X242427Y1038377D01*
X242494Y1038195D01*
X242547Y1037999D01*
X242586Y1037790D01*
X242613Y1037568D01*
X242626Y1037335D01*
X242626Y1037092D01*
X242614Y1036839D01*
X242589Y1036579D01*
X242551Y1036311D01*
X242501Y1036038D01*
X242439Y1035759D01*
X242364Y1035477D01*
X242278Y1035192D01*
X242244Y1035090D01*
X242209Y1034988D01*
X242173Y1034886D01*
X242135Y1034784D01*
X242096Y1034681D01*
X242056Y1034579D01*
X242014Y1034477D01*
X241970Y1034375D01*
X241925Y1034273D01*
X241879Y1034171D01*
X241831Y1034070D01*
X241781Y1033969D01*
X241730Y1033868D01*
X241677Y1033767D01*
X241623Y1033668D01*
X241567Y1033568D01*
X241343Y1033204D01*
X241110Y1032867D01*
X240871Y1032558D01*
X240627Y1032279D01*
X240380Y1032029D01*
X240132Y1031811D01*
X239884Y1031625D01*
X239640Y1031472D01*
X239398Y1031353D01*
X239163Y1031269D01*
X238936Y1031221D01*
X238717Y1031210D01*
X238511Y1031237D01*
G37*
%LPD*%
D10*
X420454Y640101D02*
X420149Y640371D01*
X419841Y640637D01*
X419531Y640899D01*
X419218Y641156D01*
X418902Y641410D01*
X418583Y641659D01*
X418262Y641904D01*
X417939Y642144D01*
X417613Y642380D01*
X417285Y642612D01*
X416954Y642840D01*
X416622Y643062D01*
X416287Y643281D01*
X415950Y643495D01*
X415610Y643704D01*
X415269Y643908D01*
X415202Y643951D01*
X415015Y644080D01*
X414728Y644294D01*
X414363Y644593D01*
X413940Y644977D01*
X413481Y645445D01*
X413007Y645997D01*
X412537Y646633D01*
X412094Y647353D01*
X411697Y648155D01*
X411369Y649040D01*
X411130Y650007D01*
X411000Y651056D01*
X411001Y652186D01*
X411154Y653398D01*
X411479Y654691D01*
X411839Y655922D01*
X412207Y657195D01*
X412582Y658504D01*
X412963Y659842D01*
X413347Y661202D01*
X413732Y662579D01*
X414118Y663966D01*
X414501Y665356D01*
X414880Y666742D01*
X415253Y668120D01*
X415619Y669481D01*
X415974Y670820D01*
X416319Y672130D01*
X416650Y673405D01*
X416965Y674639D01*
X417264Y675824D01*
X424276Y709087D01*
X428228Y739649D01*
X429481Y767585D01*
X428394Y792973D01*
X425327Y815889D01*
X420639Y836410D01*
X414691Y854613D01*
X407841Y870574D01*
X400450Y884370D01*
X392877Y896078D01*
X385483Y905774D01*
X378626Y913535D01*
X372667Y919438D01*
X367965Y923559D01*
X364880Y925976D01*
X363772Y926764D01*
X359084Y930697D01*
X355052Y934095D01*
X351611Y937015D01*
X348696Y939513D01*
X346242Y941646D01*
X344184Y943469D01*
X342457Y945039D01*
X340997Y946413D01*
X339739Y947645D01*
X338617Y948793D01*
X337567Y949913D01*
X336525Y951060D01*
X335424Y952292D01*
X334201Y953664D01*
X332790Y955232D01*
X331126Y957054D01*
X329361Y959217D01*
X328078Y961318D01*
X327226Y963346D01*
X326756Y965291D01*
X326615Y967141D01*
X326753Y968886D01*
X327120Y970516D01*
X327664Y972019D01*
X328335Y973385D01*
X329081Y974604D01*
X329852Y975665D01*
X330597Y976556D01*
X331264Y977268D01*
X331804Y977790D01*
X332166Y978111D01*
X332297Y978220D01*
X334816Y979993D01*
X337139Y981750D01*
X339271Y983476D01*
X341218Y985159D01*
X342982Y986784D01*
X344570Y988339D01*
X345985Y989810D01*
X347232Y991183D01*
X348315Y992445D01*
X349239Y993582D01*
X350009Y994582D01*
X350629Y995430D01*
X351103Y996113D01*
X351436Y996618D01*
X351632Y996930D01*
X351697Y997037D01*
X351969Y997427D01*
X352692Y998565D01*
X353722Y1000401D01*
X354917Y1002888D01*
X356134Y1005978D01*
X357230Y1009621D01*
X358062Y1013769D01*
X358487Y1018374D01*
X358364Y1023387D01*
X357548Y1028760D01*
X355898Y1034445D01*
X353271Y1040392D01*
X349523Y1046554D01*
X344512Y1052882D01*
X338096Y1059328D01*
X330131Y1065843D01*
X330240Y1066386D01*
X330453Y1067634D01*
X330702Y1069517D01*
X330919Y1071965D01*
X331036Y1074909D01*
X330984Y1078280D01*
X330695Y1082010D01*
X330100Y1086028D01*
X329133Y1090265D01*
X327723Y1094653D01*
X325804Y1099122D01*
X323306Y1103602D01*
X320162Y1108025D01*
X316304Y1112322D01*
X311662Y1116422D01*
X306170Y1120258D01*
X299242Y1124140D01*
X291551Y1127594D01*
X283110Y1130494D01*
X273933Y1132715D01*
X264031Y1134132D01*
X253417Y1134621D01*
X242105Y1134056D01*
X230106Y1132312D01*
X217434Y1129264D01*
X204101Y1124788D01*
X190120Y1118757D01*
X175503Y1111047D01*
X160264Y1101533D01*
X144414Y1090090D01*
X127968Y1076593D01*
X110936Y1060916D01*
X99472Y1049347D01*
X90763Y1039624D01*
X84533Y1031568D01*
X80502Y1024997D01*
X78394Y1019734D01*
X77932Y1015596D01*
X78836Y1012406D01*
X80830Y1009982D01*
X83637Y1008144D01*
X86977Y1006714D01*
X90575Y1005510D01*
X94151Y1004354D01*
X97429Y1003065D01*
X100131Y1001462D01*
X101979Y999368D01*
X102695Y996600D01*
X102449Y994277D01*
X101687Y991232D01*
X100478Y987415D01*
X98885Y982773D01*
X96977Y977255D01*
X94817Y970809D01*
X92473Y963384D01*
X90011Y954928D01*
X87496Y945390D01*
X84994Y934717D01*
X82571Y922859D01*
X80294Y909763D01*
X78228Y895377D01*
X76439Y879652D01*
X74993Y862534D01*
X73956Y843972D01*
X69948Y838718D01*
X66426Y833162D01*
X63358Y827392D01*
X60714Y821497D01*
X58462Y815565D01*
X56570Y809685D01*
X55008Y803945D01*
X53743Y798434D01*
X52745Y793239D01*
X51982Y788451D01*
X51422Y784156D01*
X51035Y780444D01*
X50788Y777402D01*
X50650Y775121D01*
X50591Y773687D01*
X50578Y773189D01*
X45858Y768816D01*
X41841Y762790D01*
X38471Y755376D01*
X35695Y746842D01*
X33457Y737456D01*
X31701Y727484D01*
X30374Y717194D01*
X29420Y706853D01*
X28784Y696728D01*
X28412Y687086D01*
X28247Y678195D01*
X28236Y670321D01*
X28323Y663731D01*
X28453Y658694D01*
X28571Y655476D01*
X28623Y654343D01*
X30608Y630813D01*
X32852Y608894D01*
X35355Y588555D01*
X38117Y569762D01*
X41137Y552484D01*
X44414Y536688D01*
X47950Y522341D01*
X51744Y509410D01*
X55795Y497865D01*
X60104Y487670D01*
X64669Y478796D01*
X69492Y471208D01*
X74571Y464874D01*
X79907Y459762D01*
X85499Y455840D01*
X91347Y453074D01*
X91470Y449289D01*
X91860Y438509D01*
X92554Y421596D01*
X93586Y399413D01*
X94992Y372824D01*
X96806Y342690D01*
X99064Y309875D01*
X101801Y275241D01*
X105051Y239651D01*
X108851Y203968D01*
X113235Y169055D01*
X118238Y135774D01*
X123896Y104988D01*
X130243Y77560D01*
X137315Y54352D01*
X145146Y36228D01*
X145387Y35733D01*
X146138Y34435D01*
X147443Y32613D01*
X149344Y30546D01*
X151885Y28516D01*
X155109Y26800D01*
X159059Y25679D01*
X163778Y25432D01*
X169308Y26339D01*
X175694Y28679D01*
X182978Y32732D01*
X191203Y38777D01*
X200412Y47095D01*
X210649Y57964D01*
X221957Y71665D01*
X234378Y88476D01*
X243290Y101778D01*
X251878Y115899D01*
X260109Y130811D01*
X267951Y146484D01*
X275370Y162889D01*
X282336Y179997D01*
X288815Y197778D01*
X294776Y216202D01*
X300186Y235242D01*
X305013Y254866D01*
X309225Y275046D01*
X312789Y295753D01*
X315674Y316957D01*
X317846Y338629D01*
X319275Y360740D01*
X319926Y383259D01*
X319981Y388757D01*
X320017Y394085D01*
X320032Y399253D01*
X320023Y404268D01*
X319988Y409140D01*
X319924Y413878D01*
X319829Y418489D01*
X319701Y422982D01*
X319537Y427367D01*
X319335Y431651D01*
X319093Y435843D01*
X318808Y439952D01*
X318479Y443986D01*
X318101Y447954D01*
X317674Y451865D01*
X317194Y455727D01*
X322364Y464064D01*
X327387Y472314D01*
X332265Y480475D01*
X337000Y488548D01*
X341594Y496534D01*
X346048Y504434D01*
X350364Y512246D01*
X354544Y519973D01*
X358589Y527613D01*
X362501Y535168D01*
X366283Y542638D01*
X369935Y550022D01*
X373459Y557323D01*
X376857Y564539D01*
X380130Y571671D01*
X383281Y578720D01*
X383305Y578764D01*
X383378Y578886D01*
X383505Y579076D01*
X383692Y579321D01*
X383943Y579611D01*
X384264Y579933D01*
X384658Y580276D01*
X385132Y580628D01*
X385689Y580978D01*
X386335Y581314D01*
X387074Y581624D01*
X387912Y581897D01*
X388853Y582122D01*
X389903Y582286D01*
X391065Y582377D01*
X392345Y582386D01*
X394069Y582350D01*
X395783Y582340D01*
X397487Y582363D01*
X399179Y582424D01*
X400858Y582531D01*
X402524Y582688D01*
X404174Y582903D01*
X405807Y583182D01*
X407422Y583531D01*
X409019Y583957D01*
X410594Y584465D01*
X412148Y585063D01*
X413679Y585756D01*
X415186Y586550D01*
X416667Y587453D01*
X418121Y588470D01*
X420756Y590649D01*
X423111Y593036D01*
X425185Y595609D01*
X426973Y598343D01*
X428473Y601215D01*
X429680Y604202D01*
X430591Y607280D01*
X431203Y610425D01*
X431513Y613614D01*
X431517Y616824D01*
X431211Y620031D01*
X430593Y623211D01*
X429658Y626342D01*
X428404Y629399D01*
X426826Y632359D01*
X424922Y635199D01*
X424667Y635537D01*
X424409Y635870D01*
X424148Y636199D01*
X423883Y636524D01*
X423614Y636845D01*
X423343Y637162D01*
X423068Y637475D01*
X422790Y637783D01*
X422509Y638088D01*
X422225Y638388D01*
X421937Y638684D01*
X421647Y638975D01*
X421353Y639263D01*
X421056Y639547D01*
X420757Y639826D01*
X420454Y640101D01*
X215561Y980361D02*
X213545Y982768D01*
X215561Y980361D02*
X217943Y978462D01*
X220605Y977087D01*
X223459Y976253D01*
X226420Y975977D01*
X229401Y976274D01*
X232316Y977162D01*
X235077Y978658D01*
X237483Y980673D01*
X239382Y983055D01*
X240757Y985716D01*
X241590Y988570D01*
X241866Y991531D01*
X241568Y994512D01*
X240680Y997426D01*
X239184Y1000186D01*
X237170Y1002592D01*
X234789Y1004490D01*
X232128Y1005865D01*
X229273Y1006700D01*
X226312Y1006977D01*
X223331Y1006680D01*
X220417Y1005792D01*
X217655Y1004297D01*
X215249Y1002282D01*
X213350Y999901D01*
X211976Y997239D01*
X211143Y994385D01*
X210866Y991423D01*
X211164Y988442D01*
X212051Y985528D01*
X213545Y982768D01*
D11*
X290000Y750000D03*
X160000Y160000D03*
X240000Y670000D03*
X180000Y600000D03*
X100000Y470000D03*
X320000Y600000D03*
X270000Y470000D03*
X184600Y357300D03*
X144600Y279200D03*
X170000Y60000D03*
D12*
X317500Y1054100D03*
X250000Y1030000D03*
X320000Y990000D03*
X250000Y1040000D03*
D13*
X350000Y908400D03*
X369400Y890200D03*
X383400Y868400D03*
X394500Y844700D03*
X402100Y819400D03*
X406900Y785200D03*
X407800Y758200D03*
X406200Y730300D03*
X401800Y704300D03*
X396400Y677500D03*
D14*
X402590Y612140D03*
M02*
