M48
;GenerationSoftware,Autodesk,EAGLE,9.6.1*%
;CreationDate,2020-05-06T05:38:31Z*%
FMAT,2
ICI,OFF
METRIC,TZ,000.000
T4C0.305
T3C0.350
T2C0.800
T1C2.100
%
G90
M71
T1
X40259Y61214
X10100Y88400
X10670Y102200
X33820Y56920
T2
X39640Y67750
X40180Y70430
X40620Y73030
X40780Y75820
X40690Y78520
X40210Y81940
X39450Y84470
X38340Y86840
X36940Y89020
X35000Y90840
T3
X16000Y16000
X29000Y75000
X24000Y67000
X18000Y60000
X10000Y47000
X32000Y60000
X27000Y47000
X18460Y35730
X14460Y27920
X17000Y6000
T4
X15250Y89500
X27000Y86500
X35750Y54500
X35500Y75500
X22250Y37000
X29000Y62500
X28500Y83500
X19500Y90250
X20250Y91250
X23750Y90750
X29250Y84000
X37250Y75500
X20259Y60299
X15500Y53000
X35000Y83500
M30