  0
SECTION
  2
HEADER
  9
$ACADVER
  1
AC1014
  9
$ACADMAINTVER
 70
     9
  9
$DWGCODEPAGE
  3
UNDEFINED
  9
$INSBASE
 10
0.0
 20
0.0
 30
0.0
  9
$EXTMIN
 10
1.000000000000000E+20
 20
1.000000000000000E+20
 30
1.000000000000000E+20
  9
$EXTMAX
 10
-1.000000000000000E+20
 20
-1.000000000000000E+20
 30
-1.000000000000000E+20
  9
$LIMMIN
 10
0.0
 20
0.0
  9
$LIMMAX
 10
12.0
 20
9.0
  9
$ORTHOMODE
 70
     0
  9
$REGENMODE
 70
     1
  9
$FILLMODE
 70
     1
  9
$QTEXTMODE
 70
     0
  9
$MIRRTEXT
 70
     1
  9
$DRAGMODE
 70
     2
  9
$LTSCALE
 40
1.0
  9
$OSMODE
 70
    37
  9
$ATTMODE
 70
     1
  9
$TEXTSIZE
 40
0.2
  9
$TRACEWID
 40
0.05
  9
$TEXTSTYLE
  7
STANDARD
  9
$CLAYER
  8
0
  9
$CELTYPE
  6
BYLAYER
  9
$CECOLOR
 62
   256
  9
$CELTSCALE
 40
1.0
  9
$DELOBJ
 70
     1
  9
$DISPSILH
 70
     0
  9
$DIMSCALE
 40
1.0
  9
$DIMASZ
 40
0.18
  9
$DIMEXO
 40
0.0625
  9
$DIMDLI
 40
0.38
  9
$DIMRND
 40
0.0
  9
$DIMDLE
 40
0.0
  9
$DIMEXE
 40
0.18
  9
$DIMTP
 40
0.0
  9
$DIMTM
 40
0.0
  9
$DIMTXT
 40
0.18
  9
$DIMCEN
 40
0.09
  9
$DIMTSZ
 40
0.0
  9
$DIMTOL
 70
     0
  9
$DIMLIM
 70
     0
  9
$DIMTIH
 70
     1
  9
$DIMTOH
 70
     1
  9
$DIMSE1
 70
     0
  9
$DIMSE2
 70
     0
  9
$DIMTAD
 70
     0
  9
$DIMZIN
 70
     0
  9
$DIMBLK
  1

  9
$DIMASO
 70
     1
  9
$DIMSHO
 70
     1
  9
$DIMPOST
  1

  9
$DIMAPOST
  1

  9
$DIMALT
 70
     0
  9
$DIMALTD
 70
     2
  9
$DIMALTF
 40
25.4
  9
$DIMLFAC
 40
1.0
  9
$DIMTOFL
 70
     0
  9
$DIMTVP
 40
0.0
  9
$DIMTIX
 70
     0
  9
$DIMSOXD
 70
     0
  9
$DIMSAH
 70
     0
  9
$DIMBLK1
  1

  9
$DIMBLK2
  1

  9
$DIMSTYLE
  2
STANDARD
  9
$DIMCLRD
 70
     0
  9
$DIMCLRE
 70
     0
  9
$DIMCLRT
 70
     0
  9
$DIMTFAC
 40
1.0
  9
$DIMGAP
 40
0.09
  9
$DIMJUST
 70
     0
  9
$DIMSD1
 70
     0
  9
$DIMSD2
 70
     0
  9
$DIMTOLJ
 70
     1
  9
$DIMTZIN
 70
     0
  9
$DIMALTZ
 70
     0
  9
$DIMALTTZ
 70
     0
  9
$DIMFIT
 70
     3
  9
$DIMUPT
 70
     0
  9
$DIMUNIT
 70
     2
  9
$DIMDEC
 70
     4
  9
$DIMTDEC
 70
     4
  9
$DIMALTU
 70
     2
  9
$DIMALTTD
 70
     2
  9
$DIMTXSTY
  7
STANDARD
  9
$DIMAUNIT
 70
     0
  9
$LUNITS
 70
     2
  9
$LUPREC
 70
     4
  9
$SKETCHINC
 40
0.1
  9
$FILLETRAD
 40
0.5
  9
$AUNITS
 70
     0
  9
$AUPREC
 70
     0
  9
$MENU
  1
.
  9
$ELEVATION
 40
0.0
  9
$PELEVATION
 40
0.0
  9
$THICKNESS
 40
0.0
  9
$LIMCHECK
 70
     0
  9
$CHAMFERA
 40
0.5
  9
$CHAMFERB
 40
0.5
  9
$CHAMFERC
 40
1.0
  9
$CHAMFERD
 40
0.0
  9
$SKPOLY
 70
     0
  9
$TDCREATE
 40
2458969.518113426
  9
$TDUPDATE
 40
2458969.518113426
  9
$TDINDWG
 40
0.0000000116
  9
$TDUSRTIMER
 40
0.0000000116
  9
$USRTIMER
 70
     1
  9
$ANGBASE
 50
0.0
  9
$ANGDIR
 70
     0
  9
$PDMODE
 70
     0
  9
$PDSIZE
 40
0.0
  9
$PLINEWID
 40
0.0
  9
$COORDS
 70
     1
  9
$SPLFRAME
 70
     0
  9
$SPLINETYPE
 70
     6
  9
$SPLINESEGS
 70
     8
  9
$ATTDIA
 70
     0
  9
$ATTREQ
 70
     1
  9
$HANDLING
 70
     1
  9
$HANDSEED
  5
C7
  9
$SURFTAB1
 70
     6
  9
$SURFTAB2
 70
     6
  9
$SURFTYPE
 70
     6
  9
$SURFU
 70
     6
  9
$SURFV
 70
     6
  9
$UCSNAME
  2

  9
$UCSORG
 10
0.0
 20
0.0
 30
0.0
  9
$UCSXDIR
 10
1.0
 20
0.0
 30
0.0
  9
$UCSYDIR
 10
0.0
 20
1.0
 30
0.0
  9
$PUCSNAME
  2

  9
$PUCSORG
 10
0.0
 20
0.0
 30
0.0
  9
$PUCSXDIR
 10
1.0
 20
0.0
 30
0.0
  9
$PUCSYDIR
 10
0.0
 20
1.0
 30
0.0
  9
$USERI1
 70
     0
  9
$USERI2
 70
     0
  9
$USERI3
 70
     0
  9
$USERI4
 70
     0
  9
$USERI5
 70
     0
  9
$USERR1
 40
0.0
  9
$USERR2
 40
0.0
  9
$USERR3
 40
0.0
  9
$USERR4
 40
0.0
  9
$USERR5
 40
0.0
  9
$WORLDVIEW
 70
     1
  9
$SHADEDGE
 70
     3
  9
$SHADEDIF
 70
    70
  9
$TILEMODE
 70
     1
  9
$MAXACTVP
 70
    64
  9
$PINSBASE
 10
0.0
 20
0.0
 30
0.0
  9
$PLIMCHECK
 70
     0
  9
$PEXTMIN
 10
1.000000000000000E+20
 20
1.000000000000000E+20
 30
1.000000000000000E+20
  9
$PEXTMAX
 10
-1.000000000000000E+20
 20
-1.000000000000000E+20
 30
-1.000000000000000E+20
  9
$PLIMMIN
 10
0.0
 20
0.0
  9
$PLIMMAX
 10
12.0
 20
9.0
  9
$UNITMODE
 70
     0
  9
$VISRETAIN
 70
     1
  9
$PLINEGEN
 70
     0
  9
$PSLTSCALE
 70
     1
  9
$TREEDEPTH
 70
  3020
  9
$PICKSTYLE
 70
     1
  9
$CMLSTYLE
  2
STANDARD
  9
$CMLJUST
 70
     0
  9
$CMLSCALE
 40
1.0
  9
$PROXYGRAPHICS
 70
     1
  9
$MEASUREMENT
 70
     0
  0
ENDSEC
  0
SECTION
  2
CLASSES
  0
CLASS
  1
ACDBDICTIONARYWDFLT
  2
AcDbDictionaryWithDefault
  3
ObjectDBX Classes
 90
        0
280
     0
281
     0
  0
CLASS
  1
VISUALSTYLE
  2
AcDbVisualStyle
  3
ObjectDBX Classes
 90
     4095
280
     0
281
     0
  0
CLASS
  1
MATERIAL
  2
AcDbMaterial
  3
ObjectDBX Classes
 90
     1153
280
     0
281
     0
  0
CLASS
  1
SUN
  2
AcDbSun
  3
SCENEOE
 90
     1024
280
     0
281
     0
  0
CLASS
  1
DICTIONARYVAR
  2
AcDbDictionaryVar
  3
ObjectDBX Classes
 90
        0
280
     0
281
     0
  0
CLASS
  1
XRECORD
  2
AcDbXrecord
  3
AutoCAD 2000
 90
        0
280
     0
281
     0
  0
CLASS
  1
LWPOLYLINE
  2
AcDbPolyline
  3
AutoCAD 2000
 90
        0
280
     0
281
     1
  0
CLASS
  1
HATCH
  2
AcDbHatch
  3
AutoCAD 2000
 90
        0
280
     0
281
     1
  0
CLASS
  1
ACDBPLACEHOLDER
  2
AcDbPlaceHolder
  3
ObjectDBX Classes
 90
        0
280
     0
281
     0
  0
CLASS
  1
LAYOUT
  2
AcDbLayout
  3
ObjectDBX Classes
 90
        0
280
     0
281
     0
  0
ENDSEC
  0
SECTION
  2
TABLES
  0
TABLE
  2
VPORT
  5
8
330
0
100
AcDbSymbolTable
 70
     1
  0
VPORT
  5
29
330
8
100
AcDbSymbolTableRecord
100
AcDbViewportTableRecord
  2
*ACTIVE
 70
     0
 10
0.0
 20
0.0
 11
1.0
 21
1.0
 12
0.0
 22
0.0
 13
0.0
 23
0.0
 14
0.5
 24
0.5
 15
0.5
 25
0.5
 16
0.0
 26
0.0
 36
1.0
 17
104.9999989878935
 27
148.4996183011652
 37
0.0
 40
297.0000052006764
 41
0.7070706878738762
 42
50.0
 43
0.0
 44
0.0
 50
0.0
 51
0.0
 71
     0
 72
   100
 73
     1
 74
     3
 75
     0
 76
     0
 77
     0
 78
     0
  0
ENDTAB
  0
TABLE
  2
LTYPE
  5
5
330
0
100
AcDbSymbolTable
 70
     1
  0
LTYPE
  5
14
330
5
100
AcDbSymbolTableRecord
100
AcDbLinetypeTableRecord
  2
BYBLOCK
 70
     0
  3

 72
    65
 73
     0
 40
0.0
  0
LTYPE
  5
15
330
5
100
AcDbSymbolTableRecord
100
AcDbLinetypeTableRecord
  2
BYLAYER
 70
     0
  3

 72
    65
 73
     0
 40
0.0
  0
LTYPE
  5
16
330
5
100
AcDbSymbolTableRecord
100
AcDbLinetypeTableRecord
  2
CONTINUOUS
 70
     0
  3
Solid line
 72
    65
 73
     0
 40
0.0
  0
ENDTAB
  0
TABLE
  2
LAYER
  5
2
330
0
100
AcDbSymbolTable
 70
    15
  0
LAYER
  5
10
330
2
100
AcDbSymbolTableRecord
100
AcDbLayerTableRecord
  2
0
 70
     0
 62
     7
  6
CONTINUOUS
  0
LAYER
  5
40
330
2
100
AcDbSymbolTableRecord
100
AcDbLayerTableRecord
  2
OUTLINE
 70
     5
 62
     7
  6
CONTINUOUS
  0
LAYER
  5
41
330
2
100
AcDbSymbolTableRecord
100
AcDbLayerTableRecord
  2
OUTLINE_U_306E_U_30B3_U_30
 70
     4
 62
     7
  6
CONTINUOUS
  0
LAYER
  5
42
330
2
100
AcDbSymbolTableRecord
100
AcDbLayerTableRecord
  2
L2-SILK
 70
     5
 62
     7
  6
CONTINUOUS
  0
LAYER
  5
43
330
2
100
AcDbSymbolTableRecord
100
AcDbLayerTableRecord
  2
L2-PATTERN
 70
     1
 62
     7
  6
CONTINUOUS
  0
LAYER
  5
44
330
2
100
AcDbSymbolTableRecord
100
AcDbLayerTableRecord
  2
L2-RESIST
 70
     5
 62
     7
  6
CONTINUOUS
  0
LAYER
  5
45
330
2
100
AcDbSymbolTableRecord
100
AcDbLayerTableRecord
  2
L1-PATTERN
 70
     0
 62
     7
  6
CONTINUOUS
  0
LAYER
  5
94
330
2
100
AcDbSymbolTableRecord
100
AcDbLayerTableRecord
  2
_U_30EC_U_30A4_U_30E4_U_30
 70
     1
 62
     7
  6
CONTINUOUS
  0
LAYER
  5
95
330
2
100
AcDbSymbolTableRecord
100
AcDbLayerTableRecord
  2
L1-RESIST
 70
     5
 62
     7
  6
CONTINUOUS
  0
LAYER
  5
96
330
2
100
AcDbSymbolTableRecord
100
AcDbLayerTableRecord
  2
L1-SILK
 70
     5
 62
     7
  6
CONTINUOUS
  0
LAYER
  5
97
330
2
100
AcDbSymbolTableRecord
100
AcDbLayerTableRecord
  2
DRILL
 70
     4
 62
     7
  6
CONTINUOUS
  0
LAYER
  5
98
330
2
100
AcDbSymbolTableRecord
100
AcDbLayerTableRecord
  2
_U_30EC_U_30A4_U_30E4_U_31
 70
     1
 62
     7
  6
CONTINUOUS
  0
LAYER
  5
99
330
2
100
AcDbSymbolTableRecord
100
AcDbLayerTableRecord
  2
HANE
 70
     5
 62
     7
  6
CONTINUOUS
  0
LAYER
  5
9A
330
2
100
AcDbSymbolTableRecord
100
AcDbLayerTableRecord
  2
L2-RESIST_U_306E_U_30B3_U_
 70
     5
 62
     7
  6
CONTINUOUS
  0
LAYER
  5
9B
330
2
100
AcDbSymbolTableRecord
100
AcDbLayerTableRecord
  2
_U_30EC_U_30A4_U_30E4_U_32
 70
     5
 62
     7
  6
CONTINUOUS
  0
ENDTAB
  0
TABLE
  2
STYLE
  5
3
330
0
100
AcDbSymbolTable
 70
     1
  0
STYLE
  5
11
330
3
100
AcDbSymbolTableRecord
100
AcDbTextStyleTableRecord
  2
STANDARD
 70
     0
 40
0.0
 41
1.0
 50
0.0
 71
     0
 42
0.2
  3
txt
  4

  0
ENDTAB
  0
TABLE
  2
VIEW
  5
6
330
0
100
AcDbSymbolTable
 70
     0
  0
ENDTAB
  0
TABLE
  2
UCS
  5
7
330
0
100
AcDbSymbolTable
 70
     0
  0
ENDTAB
  0
TABLE
  2
APPID
  5
9
330
0
100
AcDbSymbolTable
 70
     1
  0
APPID
  5
12
330
9
100
AcDbSymbolTableRecord
100
AcDbRegAppTableRecord
  2
ACAD
 70
     0
  0
ENDTAB
  0
TABLE
  2
DIMSTYLE
  5
A
330
0
100
AcDbSymbolTable
 70
     1
  0
DIMSTYLE
105
27
330
A
100
AcDbSymbolTableRecord
100
AcDbDimStyleTableRecord
  2
STANDARD
 70
     0
  3

  4

  5

  6

  7

 40
1.0
 41
0.18
 42
0.0625
 43
0.38
 44
0.18
 45
0.0
 46
0.0
 47
0.0
 48
0.0
140
0.18
141
0.09
142
0.0
143
25.4
144
1.0
145
0.0
146
1.0
147
0.09
 71
     0
 72
     0
 73
     1
 74
     1
 75
     0
 76
     0
 77
     0
 78
     0
170
     0
171
     2
172
     0
173
     0
174
     0
175
     0
176
     0
177
     0
178
     0
270
     2
271
     4
272
     4
273
     2
274
     2
340
11
275
     0
280
     0
281
     0
282
     0
283
     1
284
     0
285
     0
286
     0
287
     3
288
     0
  0
ENDTAB
  0
TABLE
  2
BLOCK_RECORD
  5
1
330
0
100
AcDbSymbolTable
 70
     1
  0
BLOCK_RECORD
  5
1F
330
1
100
AcDbSymbolTableRecord
100
AcDbBlockTableRecord
  2
*MODEL_SPACE
  0
BLOCK_RECORD
  5
1B
330
1
100
AcDbSymbolTableRecord
100
AcDbBlockTableRecord
  2
*PAPER_SPACE
  0
ENDTAB
  0
ENDSEC
  0
SECTION
  2
BLOCKS
  0
BLOCK
  5
20
330
1F
100
AcDbEntity
  8
0
100
AcDbBlockBegin
  2
*MODEL_SPACE
 70
     0
 10
0.0
 20
0.0
 30
0.0
  3
*MODEL_SPACE
  1

  0
ENDBLK
  5
21
330
1F
100
AcDbEntity
  8
0
100
AcDbBlockEnd
  0
BLOCK
  5
1C
330
1B
100
AcDbEntity
 67
     1
  8
0
100
AcDbBlockBegin
  2
*PAPER_SPACE
 70
     0
 10
0.0
 20
0.0
 30
0.0
  3
*PAPER_SPACE
  1

  0
ENDBLK
  5
1D
330
1B
100
AcDbEntity
 67
     1
  8
0
100
AcDbBlockEnd
  0
ENDSEC
  0
SECTION
  2
ENTITIES
  0
POLYLINE
  5
46
330
1F
100
AcDbEntity
  8
L1-PATTERN
100
AcDb2dPolyline
 66
     1
 10
0.0
 20
0.0
 30
0.0
  0
VERTEX
  5
47
330
46
100
AcDbEntity
  8
L1-PATTERN
100
AcDbVertex
100
AcDb2dVertex
 10
38.5829162501199
 20
61.25851320218754
 30
0.0
  0
VERTEX
  5
48
330
46
100
AcDbEntity
  8
L1-PATTERN
100
AcDbVertex
100
AcDb2dVertex
 10
38.61540780691516
 20
61.58095260776015
 30
0.0
  0
VERTEX
  5
49
330
46
100
AcDbEntity
  8
L1-PATTERN
100
AcDbVertex
100
AcDb2dVertex
 10
38.70864070348473
 20
61.88130033853358
 30
0.0
  0
VERTEX
  5
4A
330
46
100
AcDbEntity
  8
L1-PATTERN
100
AcDbVertex
100
AcDb2dVertex
 10
38.85615538579378
 20
62.15307530862623
 30
0.0
  0
VERTEX
  5
4B
330
46
100
AcDbEntity
  8
L1-PATTERN
100
AcDbVertex
100
AcDb2dVertex
 10
39.05153536350101
 20
62.38988255954359
 30
0.0
  0
VERTEX
  5
4C
330
46
100
AcDbEntity
  8
L1-PATTERN
100
AcDbVertex
100
AcDb2dVertex
 10
39.28832108257158
 20
62.58524100540404
 30
0.0
  0
VERTEX
  5
4D
330
46
100
AcDbEntity
  8
L1-PATTERN
100
AcDbVertex
100
AcDb2dVertex
 10
39.56011758451101
 20
62.73277721955986
 30
0.0
  0
VERTEX
  5
4E
330
46
100
AcDbEntity
  8
L1-PATTERN
100
AcDbVertex
100
AcDb2dVertex
 10
39.86044378343767
 20
62.82601011612944
 30
0.0
  0
VERTEX
  5
4F
330
46
100
AcDbEntity
  8
L1-PATTERN
100
AcDbVertex
100
AcDb2dVertex
 10
40.18290472085705
 20
62.8585016729247
 30
0.0
  0
VERTEX
  5
50
330
46
100
AcDbEntity
  8
L1-PATTERN
100
AcDbVertex
100
AcDb2dVertex
 10
40.50536565827644
 20
62.82601011612944
 30
0.0
  0
VERTEX
  5
51
330
46
100
AcDbEntity
  8
L1-PATTERN
100
AcDbVertex
100
AcDb2dVertex
 10
40.80569185720309
 20
62.73277721955986
 30
0.0
  0
VERTEX
  5
52
330
46
100
AcDbEntity
  8
L1-PATTERN
100
AcDbVertex
100
AcDb2dVertex
 10
41.07748835914252
 20
62.58524100540404
 30
0.0
  0
VERTEX
  5
53
330
46
100
AcDbEntity
  8
L1-PATTERN
100
AcDbVertex
100
AcDb2dVertex
 10
41.3142740782131
 20
62.38988255954359
 30
0.0
  0
VERTEX
  5
54
330
46
100
AcDbEntity
  8
L1-PATTERN
100
AcDbVertex
100
AcDb2dVertex
 10
41.50965405592033
 20
62.15307530862623
 30
0.0
  0
VERTEX
  5
55
330
46
100
AcDbEntity
  8
L1-PATTERN
100
AcDbVertex
100
AcDb2dVertex
 10
41.65716873822937
 20
61.88130033853358
 30
0.0
  0
VERTEX
  5
56
330
46
100
AcDbEntity
  8
L1-PATTERN
100
AcDbVertex
100
AcDb2dVertex
 10
41.75040163479895
 20
61.58095260776015
 30
0.0
  0
VERTEX
  5
57
330
46
100
AcDbEntity
  8
L1-PATTERN
100
AcDbVertex
100
AcDb2dVertex
 10
41.78291472344099
 20
61.25851320218754
 30
0.0
  0
VERTEX
  5
58
330
46
100
AcDbEntity
  8
L1-PATTERN
100
AcDbVertex
100
AcDb2dVertex
 10
42.32375165093165
 20
61.25851320218754
 30
0.0
  0
VERTEX
  5
59
330
46
100
AcDbEntity
  8
L1-PATTERN
100
AcDbVertex
100
AcDb2dVertex
 10
42.3387162844457
 20
61.5257664844558
 30
0.0
  0
VERTEX
  5
5A
330
46
100
AcDbEntity
  8
L1-PATTERN
100
AcDbVertex
100
AcDb2dVertex
 10
42.27388389378266
 20
62.01975011334707
 30
0.0
  0
VERTEX
  5
5B
330
46
100
AcDbEntity
  8
L1-PATTERN
100
AcDbVertex
100
AcDb2dVertex
 10
42.11480660975125
 20
62.50647750987252
 30
0.0
  0
VERTEX
  5
5C
330
46
100
AcDbEntity
  8
L1-PATTERN
100
AcDbVertex
100
AcDb2dVertex
 10
41.85935277951997
 20
62.97178071884907
 30
0.0
  0
VERTEX
  5
5D
330
46
100
AcDbEntity
  8
L1-PATTERN
100
AcDbVertex
100
AcDb2dVertex
 10
41.5207214251667
 20
63.37278983333216
 30
0.0
  0
VERTEX
  5
5E
330
46
100
AcDbEntity
  8
L1-PATTERN
100
AcDbVertex
100
AcDb2dVertex
 10
41.12367417049165
 20
63.67959711814044
 30
0.0
  0
VERTEX
  5
5F
330
46
100
AcDbEntity
  8
L1-PATTERN
100
AcDbVertex
100
AcDb2dVertex
 10
40.68377854071881
 20
63.89655200632404
 30
0.0
  0
VERTEX
  5
60
330
46
100
AcDbEntity
  8
L1-PATTERN
100
AcDbVertex
100
AcDb2dVertex
 10
40.21660206107215
 20
64.02804699462668
 30
0.0
  0
VERTEX
  5
61
330
46
100
AcDbEntity
  8
L1-PATTERN
100
AcDbVertex
100
AcDb2dVertex
 10
39.73766919308208
 20
64.0784961116388
 30
0.0
  0
VERTEX
  5
62
330
46
100
AcDbEntity
  8
L1-PATTERN
100
AcDbVertex
100
AcDb2dVertex
 10
39.26256899381934
 20
64.05224879041056
 30
0.0
  0
VERTEX
  5
63
330
46
100
AcDbEntity
  8
L1-PATTERN
100
AcDbVertex
100
AcDb2dVertex
 10
38.80682592481435
 20
63.95369752768563
 30
0.0
  0
VERTEX
  5
64
330
46
100
AcDbEntity
  8
L1-PATTERN
100
AcDbVertex
100
AcDb2dVertex
 10
38.38600751129108
 20
63.78721328836092
 30
0.0
  0
VERTEX
  5
65
330
46
100
AcDbEntity
  8
L1-PATTERN
100
AcDbVertex
100
AcDb2dVertex
 10
37.9865056260828
 20
63.51343585651748
 30
0.0
  0
VERTEX
  5
66
330
46
100
AcDbEntity
  8
L1-PATTERN
100
AcDbVertex
100
AcDb2dVertex
 10
37.6839831787843
 20
63.15284201844573
 30
0.0
  0
VERTEX
  5
67
330
46
100
AcDbEntity
  8
L1-PATTERN
100
AcDbVertex
100
AcDb2dVertex
 10
37.47744970444357
 20
62.72493962733092
 30
0.0
  0
VERTEX
  5
68
330
46
100
AcDbEntity
  8
L1-PATTERN
100
AcDbVertex
100
AcDb2dVertex
 10
37.36595780180217
 20
62.24930113189861
 30
0.0
  0
VERTEX
  5
69
330
46
100
AcDbEntity
  8
L1-PATTERN
100
AcDbVertex
100
AcDb2dVertex
 10
37.3485170059081
 20
61.74539132164048
 30
0.0
  0
VERTEX
  5
6A
330
46
100
AcDbEntity
  8
L1-PATTERN
100
AcDbVertex
100
AcDb2dVertex
 10
37.42039031046912
 20
61.25851320218754
 30
0.0
  0
VERTEX
  5
6B
330
46
100
AcDbEntity
  8
L1-PATTERN
100
AcDbVertex
100
AcDb2dVertex
 10
38.5829162501199
 20
61.25851320218754
 30
0.0
  0
SEQEND
  5
6D
330
46
100
AcDbEntity
  8
L1-PATTERN
  0
HATCH
  5
6C
330
1F
100
AcDbEntity
  8
L1-PATTERN
 62
     1
100
AcDbHatch
 10
0.0
 20
0.0
 30
0.0
210
0.0
220
0.0
230
1.0
  2
SOLID
 70
     1
 71
     0
 91
        1
 92
        1
 93
       36
 72
     1
 10
38.5829162501199
 20
61.25851320218754
 11
38.61540780691516
 21
61.58095260776015
 72
     1
 10
38.61540780691516
 20
61.58095260776015
 11
38.70864070348473
 21
61.88130033853358
 72
     1
 10
38.70864070348473
 20
61.88130033853358
 11
38.85615538579378
 21
62.15307530862623
 72
     1
 10
38.85615538579378
 20
62.15307530862623
 11
39.05153536350101
 21
62.38988255954359
 72
     1
 10
39.05153536350101
 20
62.38988255954359
 11
39.28832108257158
 21
62.58524100540404
 72
     1
 10
39.28832108257158
 20
62.58524100540404
 11
39.56011758451101
 21
62.73277721955986
 72
     1
 10
39.56011758451101
 20
62.73277721955986
 11
39.86044378343767
 21
62.82601011612944
 72
     1
 10
39.86044378343767
 20
62.82601011612944
 11
40.18290472085705
 21
62.8585016729247
 72
     1
 10
40.18290472085705
 20
62.8585016729247
 11
40.50536565827644
 21
62.82601011612944
 72
     1
 10
40.50536565827644
 20
62.82601011612944
 11
40.80569185720309
 21
62.73277721955986
 72
     1
 10
40.80569185720309
 20
62.73277721955986
 11
41.07748835914252
 21
62.58524100540404
 72
     1
 10
41.07748835914252
 20
62.58524100540404
 11
41.3142740782131
 21
62.38988255954359
 72
     1
 10
41.3142740782131
 20
62.38988255954359
 11
41.50965405592033
 21
62.15307530862623
 72
     1
 10
41.50965405592033
 20
62.15307530862623
 11
41.65716873822937
 21
61.88130033853358
 72
     1
 10
41.65716873822937
 20
61.88130033853358
 11
41.75040163479895
 21
61.58095260776015
 72
     1
 10
41.75040163479895
 20
61.58095260776015
 11
41.78291472344099
 21
61.25851320218754
 72
     1
 10
41.78291472344099
 20
61.25851320218754
 11
42.32375165093165
 21
61.25851320218754
 72
     1
 10
42.32375165093165
 20
61.25851320218754
 11
42.3387162844457
 21
61.5257664844558
 72
     1
 10
42.3387162844457
 20
61.5257664844558
 11
42.27388389378266
 21
62.01975011334707
 72
     1
 10
42.27388389378266
 20
62.01975011334707
 11
42.11480660975125
 21
62.50647750987252
 72
     1
 10
42.11480660975125
 20
62.50647750987252
 11
41.85935277951997
 21
62.97178071884907
 72
     1
 10
41.85935277951997
 20
62.97178071884907
 11
41.5207214251667
 21
63.37278983333216
 72
     1
 10
41.5207214251667
 20
63.37278983333216
 11
41.12367417049165
 21
63.67959711814044
 72
     1
 10
41.12367417049165
 20
63.67959711814044
 11
40.68377854071881
 21
63.89655200632404
 72
     1
 10
40.68377854071881
 20
63.89655200632404
 11
40.21660206107215
 21
64.02804699462668
 72
     1
 10
40.21660206107215
 20
64.02804699462668
 11
39.73766919308208
 21
64.0784961116388
 72
     1
 10
39.73766919308208
 20
64.0784961116388
 11
39.26256899381934
 21
64.05224879041056
 72
     1
 10
39.26256899381934
 20
64.05224879041056
 11
38.80682592481435
 21
63.95369752768563
 72
     1
 10
38.80682592481435
 20
63.95369752768563
 11
38.38600751129108
 21
63.78721328836092
 72
     1
 10
38.38600751129108
 20
63.78721328836092
 11
37.9865056260828
 21
63.51343585651748
 72
     1
 10
37.9865056260828
 20
63.51343585651748
 11
37.6839831787843
 21
63.15284201844573
 72
     1
 10
37.6839831787843
 20
63.15284201844573
 11
37.47744970444357
 21
62.72493962733092
 72
     1
 10
37.47744970444357
 20
62.72493962733092
 11
37.36595780180217
 21
62.24930113189861
 72
     1
 10
37.36595780180217
 20
62.24930113189861
 11
37.3485170059081
 21
61.74539132164048
 72
     1
 10
37.3485170059081
 20
61.74539132164048
 11
37.42039031046912
 21
61.25851320218754
 72
     1
 10
37.42039031046912
 20
61.25851320218754
 11
38.5829162501199
 21
61.25851320218754
 97
        0
 75
     2
 76
     1
 98
        0
  0
POLYLINE
  5
6E
330
1F
100
AcDbEntity
  8
L1-PATTERN
100
AcDb2dPolyline
 66
     1
 10
0.0
 20
0.0
 30
0.0
  0
VERTEX
  5
6F
330
6E
100
AcDbEntity
  8
L1-PATTERN
100
AcDbVertex
100
AcDb2dVertex
 10
41.78291472344099
 20
61.25851320218754
 30
0.0
  0
VERTEX
  5
70
330
6E
100
AcDbEntity
  8
L1-PATTERN
100
AcDbVertex
100
AcDb2dVertex
 10
41.75040163479895
 20
60.93605226476816
 30
0.0
  0
VERTEX
  5
71
330
6E
100
AcDbEntity
  8
L1-PATTERN
100
AcDbVertex
100
AcDb2dVertex
 10
41.65716873822937
 20
60.63570453399472
 30
0.0
  0
VERTEX
  5
72
330
6E
100
AcDbEntity
  8
L1-PATTERN
100
AcDbVertex
100
AcDb2dVertex
 10
41.50965405592033
 20
60.36392956390208
 30
0.0
  0
VERTEX
  5
73
330
6E
100
AcDbEntity
  8
L1-PATTERN
100
AcDbVertex
100
AcDb2dVertex
 10
41.3142740782131
 20
60.1271438448315
 30
0.0
  0
VERTEX
  5
74
330
6E
100
AcDbEntity
  8
L1-PATTERN
100
AcDbVertex
100
AcDb2dVertex
 10
41.07748835914252
 20
59.93176386712427
 30
0.0
  0
VERTEX
  5
75
330
6E
100
AcDbEntity
  8
L1-PATTERN
100
AcDbVertex
100
AcDb2dVertex
 10
40.80569185720309
 20
59.78424918481522
 30
0.0
  0
VERTEX
  5
76
330
6E
100
AcDbEntity
  8
L1-PATTERN
100
AcDbVertex
100
AcDb2dVertex
 10
40.50536565827644
 20
59.69101628824565
 30
0.0
  0
VERTEX
  5
77
330
6E
100
AcDbEntity
  8
L1-PATTERN
100
AcDbVertex
100
AcDb2dVertex
 10
40.18290472085705
 20
59.65850319960361
 30
0.0
  0
VERTEX
  5
78
330
6E
100
AcDbEntity
  8
L1-PATTERN
100
AcDbVertex
100
AcDb2dVertex
 10
39.86044378343767
 20
59.69101628824565
 30
0.0
  0
VERTEX
  5
79
330
6E
100
AcDbEntity
  8
L1-PATTERN
100
AcDbVertex
100
AcDb2dVertex
 10
39.56011758451101
 20
59.78424918481522
 30
0.0
  0
VERTEX
  5
7A
330
6E
100
AcDbEntity
  8
L1-PATTERN
100
AcDbVertex
100
AcDb2dVertex
 10
39.28832108257158
 20
59.93176386712427
 30
0.0
  0
VERTEX
  5
7B
330
6E
100
AcDbEntity
  8
L1-PATTERN
100
AcDbVertex
100
AcDb2dVertex
 10
39.05153536350101
 20
60.1271438448315
 30
0.0
  0
VERTEX
  5
7C
330
6E
100
AcDbEntity
  8
L1-PATTERN
100
AcDbVertex
100
AcDb2dVertex
 10
38.85615538579378
 20
60.36392956390208
 30
0.0
  0
VERTEX
  5
7D
330
6E
100
AcDbEntity
  8
L1-PATTERN
100
AcDbVertex
100
AcDb2dVertex
 10
38.70864070348473
 20
60.63570453399472
 30
0.0
  0
VERTEX
  5
7E
330
6E
100
AcDbEntity
  8
L1-PATTERN
100
AcDbVertex
100
AcDb2dVertex
 10
38.61540780691516
 20
60.93605226476816
 30
0.0
  0
VERTEX
  5
7F
330
6E
100
AcDbEntity
  8
L1-PATTERN
100
AcDbVertex
100
AcDb2dVertex
 10
38.5829162501199
 20
61.25851320218754
 30
0.0
  0
VERTEX
  5
80
330
6E
100
AcDbEntity
  8
L1-PATTERN
100
AcDbVertex
100
AcDb2dVertex
 10
37.42039031046912
 20
61.25851320218754
 30
0.0
  0
VERTEX
  5
81
330
6E
100
AcDbEntity
  8
L1-PATTERN
100
AcDbVertex
100
AcDb2dVertex
 10
37.4241799155029
 20
61.23278264528209
 30
0.0
  0
VERTEX
  5
82
330
6E
100
AcDbEntity
  8
L1-PATTERN
100
AcDbVertex
100
AcDb2dVertex
 10
37.59199912932813
 20
60.73096142416188
 30
0.0
  0
VERTEX
  5
83
330
6E
100
AcDbEntity
  8
L1-PATTERN
100
AcDbVertex
100
AcDb2dVertex
 10
37.85098418243179
 20
60.25943551146509
 30
0.0
  0
VERTEX
  5
84
330
6E
100
AcDbEntity
  8
L1-PATTERN
100
AcDbVertex
100
AcDb2dVertex
 10
38.18787145719566
 20
59.84938302133323
 30
0.0
  0
VERTEX
  5
85
330
6E
100
AcDbEntity
  8
L1-PATTERN
100
AcDbVertex
100
AcDb2dVertex
 10
38.58050468328022
 20
59.52076397573396
 30
0.0
  0
VERTEX
  5
86
330
6E
100
AcDbEntity
  8
L1-PATTERN
100
AcDbVertex
100
AcDb2dVertex
 10
39.01488816027666
 20
59.27691581091862
 30
0.0
  0
VERTEX
  5
87
330
6E
100
AcDbEntity
  8
L1-PATTERN
100
AcDbVertex
100
AcDb2dVertex
 10
39.47706925146971
 20
59.12106830390463
 30
0.0
  0
VERTEX
  5
88
330
6E
100
AcDbEntity
  8
L1-PATTERN
100
AcDbVertex
100
AcDb2dVertex
 10
39.95307378829732
 20
59.05651582724976
 30
0.0
  0
VERTEX
  5
89
330
6E
100
AcDbEntity
  8
L1-PATTERN
100
AcDbVertex
100
AcDb2dVertex
 10
40.42892760219745
 20
59.08650968981822
 30
0.0
  0
VERTEX
  5
8A
330
6E
100
AcDbEntity
  8
L1-PATTERN
100
AcDbVertex
100
AcDb2dVertex
 10
40.89065652460807
 20
59.21436579601455
 30
0.0
  0
VERTEX
  5
8B
330
6E
100
AcDbEntity
  8
L1-PATTERN
100
AcDbVertex
100
AcDb2dVertex
 10
41.32432945066067
 20
59.44331392285619
 30
0.0
  0
VERTEX
  5
8C
330
6E
100
AcDbEntity
  8
L1-PATTERN
100
AcDbVertex
100
AcDb2dVertex
 10
41.69850988405237
 20
59.76086559920909
 30
0.0
  0
VERTEX
  5
8D
330
6E
100
AcDbEntity
  8
L1-PATTERN
100
AcDbVertex
100
AcDb2dVertex
 10
41.98918981562033
 20
60.14206541465199
 30
0.0
  0
VERTEX
  5
8E
330
6E
100
AcDbEntity
  8
L1-PATTERN
100
AcDbVertex
100
AcDb2dVertex
 10
42.19421606068626
 20
60.572723882155
 30
0.0
  0
VERTEX
  5
8F
330
6E
100
AcDbEntity
  8
L1-PATTERN
100
AcDbVertex
100
AcDb2dVertex
 10
42.31143543457188
 20
61.03869457838182
 30
0.0
  0
VERTEX
  5
90
330
6E
100
AcDbEntity
  8
L1-PATTERN
100
AcDbVertex
100
AcDb2dVertex
 10
42.32375165093165
 20
61.25851320218754
 30
0.0
  0
VERTEX
  5
91
330
6E
100
AcDbEntity
  8
L1-PATTERN
100
AcDbVertex
100
AcDb2dVertex
 10
41.78291472344099
 20
61.25851320218754
 30
0.0
  0
SEQEND
  5
93
330
6E
100
AcDbEntity
  8
L1-PATTERN
  0
HATCH
  5
92
330
1F
100
AcDbEntity
  8
L1-PATTERN
 62
     1
100
AcDbHatch
 10
0.0
 20
0.0
 30
0.0
210
0.0
220
0.0
230
1.0
  2
SOLID
 70
     1
 71
     0
 91
        1
 92
        1
 93
       34
 72
     1
 10
41.78291472344099
 20
61.25851320218754
 11
41.75040163479895
 21
60.93605226476816
 72
     1
 10
41.75040163479895
 20
60.93605226476816
 11
41.65716873822937
 21
60.63570453399472
 72
     1
 10
41.65716873822937
 20
60.63570453399472
 11
41.50965405592033
 21
60.36392956390208
 72
     1
 10
41.50965405592033
 20
60.36392956390208
 11
41.3142740782131
 21
60.1271438448315
 72
     1
 10
41.3142740782131
 20
60.1271438448315
 11
41.07748835914252
 21
59.93176386712427
 72
     1
 10
41.07748835914252
 20
59.93176386712427
 11
40.80569185720309
 21
59.78424918481522
 72
     1
 10
40.80569185720309
 20
59.78424918481522
 11
40.50536565827644
 21
59.69101628824565
 72
     1
 10
40.50536565827644
 20
59.69101628824565
 11
40.18290472085705
 21
59.65850319960361
 72
     1
 10
40.18290472085705
 20
59.65850319960361
 11
39.86044378343767
 21
59.69101628824565
 72
     1
 10
39.86044378343767
 20
59.69101628824565
 11
39.56011758451101
 21
59.78424918481522
 72
     1
 10
39.56011758451101
 20
59.78424918481522
 11
39.28832108257158
 21
59.93176386712427
 72
     1
 10
39.28832108257158
 20
59.93176386712427
 11
39.05153536350101
 21
60.1271438448315
 72
     1
 10
39.05153536350101
 20
60.1271438448315
 11
38.85615538579378
 21
60.36392956390208
 72
     1
 10
38.85615538579378
 20
60.36392956390208
 11
38.70864070348473
 21
60.63570453399472
 72
     1
 10
38.70864070348473
 20
60.63570453399472
 11
38.61540780691516
 21
60.93605226476816
 72
     1
 10
38.61540780691516
 20
60.93605226476816
 11
38.5829162501199
 21
61.25851320218754
 72
     1
 10
38.5829162501199
 20
61.25851320218754
 11
37.42039031046912
 21
61.25851320218754
 72
     1
 10
37.42039031046912
 20
61.25851320218754
 11
37.4241799155029
 21
61.23278264528209
 72
     1
 10
37.4241799155029
 20
61.23278264528209
 11
37.59199912932813
 21
60.73096142416188
 72
     1
 10
37.59199912932813
 20
60.73096142416188
 11
37.85098418243179
 21
60.25943551146509
 72
     1
 10
37.85098418243179
 20
60.25943551146509
 11
38.18787145719566
 21
59.84938302133323
 72
     1
 10
38.18787145719566
 20
59.84938302133323
 11
38.58050468328022
 21
59.52076397573396
 72
     1
 10
38.58050468328022
 20
59.52076397573396
 11
39.01488816027666
 21
59.27691581091862
 72
     1
 10
39.01488816027666
 20
59.27691581091862
 11
39.47706925146971
 21
59.12106830390463
 72
     1
 10
39.47706925146971
 20
59.12106830390463
 11
39.95307378829732
 21
59.05651582724976
 72
     1
 10
39.95307378829732
 20
59.05651582724976
 11
40.42892760219745
 21
59.08650968981822
 72
     1
 10
40.42892760219745
 20
59.08650968981822
 11
40.89065652460807
 21
59.21436579601455
 72
     1
 10
40.89065652460807
 20
59.21436579601455
 11
41.32432945066067
 21
59.44331392285619
 72
     1
 10
41.32432945066067
 20
59.44331392285619
 11
41.69850988405237
 21
59.76086559920909
 72
     1
 10
41.69850988405237
 20
59.76086559920909
 11
41.98918981562033
 21
60.14206541465199
 72
     1
 10
41.98918981562033
 20
60.14206541465199
 11
42.19421606068626
 21
60.572723882155
 72
     1
 10
42.19421606068626
 20
60.572723882155
 11
42.31143543457188
 21
61.03869457838182
 72
     1
 10
42.31143543457188
 20
61.03869457838182
 11
42.32375165093165
 21
61.25851320218754
 72
     1
 10
42.32375165093165
 20
61.25851320218754
 11
41.78291472344099
 21
61.25851320218754
 97
        0
 75
     2
 76
     1
 98
        0
  0
ENDSEC
  0
SECTION
  2
OBJECTS
  0
DICTIONARY
  5
C
330
0
100
AcDbDictionary
  3
ACAD_GROUP
350
D
  3
ACAD_LAYOUT
350
1A
  3
ACAD_MATERIAL
350
3B
  3
ACAD_MLEADERSTYLE
350
BE
  3
ACAD_MLINESTYLE
350
17
  3
ACAD_PLOTSETTINGS
350
19
  3
ACAD_VISUALSTYLE
350
2A
  3
ACDBHEADERROUNDTRIPXREC
350
9C
  3
ACDBVARIABLEDICTIONARY
350
BC
  0
DICTIONARY
  5
D
102
{ACAD_REACTORS
330
C
102
}
330
C
100
AcDbDictionary
  0
DICTIONARY
  5
1A
102
{ACAD_REACTORS
330
C
102
}
330
C
100
AcDbDictionary
  0
DICTIONARY
  5
3B
102
{ACAD_REACTORS
330
C
102
}
330
C
100
AcDbDictionary
  3
BYBLOCK
350
3D
  3
BYLAYER
350
3C
  3
GLOBAL
350
3E
  0
DICTIONARY
  5
BE
102
{ACAD_REACTORS
330
C
102
}
330
C
100
AcDbDictionary
  0
DICTIONARY
  5
17
102
{ACAD_REACTORS
330
C
102
}
330
C
100
AcDbDictionary
  3
STANDARD
350
18
  0
DICTIONARY
  5
19
102
{ACAD_REACTORS
330
C
102
}
330
C
100
AcDbDictionary
  0
DICTIONARY
  5
2A
102
{ACAD_REACTORS
330
C
102
}
330
C
100
AcDbDictionary
  3
2DWIREFRAME
350
2F
  3
3DWIREFRAME
350
30
  3
3D_HIDDEN
350
31
  3
BASIC
350
32
  3
BRIGHTEN
350
36
  3
COLORCHANGE
350
3A
  3
CONCEPTUAL
350
34
  3
DIM
350
35
  3
FACEPATTERN
350
39
  3
FLAT
350
2B
  3
FLATWITHEDGES
350
2C
  3
GOURAUD
350
2D
  3
GOURAUDWITHEDGES
350
2E
  3
LINEPATTERN
350
38
  3
REALISTIC
350
33
  3
THICKEN
350
37
  0
DICTIONARY
  5
9C
102
{ACAD_REACTORS
330
C
102
}
330
C
100
AcDbDictionary
  3
CEPSNTYPE
350
A5
  3
DIMSTYLEDATA
350
BB
  3
FINGERPRINTGUID
350
A6
  3
HYPERLINKBASE
350
9F
  3
INSUNITS
350
A4
  3
LAYOUTDICT
350
A1
  3
LWETCUNION
350
A3
  3
PLOTSETDICT
350
A2
  3
PSVPSCALE
350
A8
  3
PUCSBASE
350
AB
  3
PUCSORGBACK
350
B1
  3
PUCSORGBOTTOM
350
AD
  3
PUCSORGFRONT
350
B0
  3
PUCSORGLEFT
350
AE
  3
PUCSORGRIGHT
350
AF
  3
PUCSORGTOP
350
AC
  3
PUCSORTHOREF
350
A9
  3
PUCSORTHOVIEW
350
AA
  3
STYLESHEET
350
A0
  3
TSTACKALIGN
350
9D
  3
TSTACKSIZE
350
9E
  3
UCSBASE
350
B4
  3
UCSORGBACK
350
BA
  3
UCSORGBOTTOM
350
B6
  3
UCSORGFRONT
350
B9
  3
UCSORGLEFT
350
B7
  3
UCSORGRIGHT
350
B8
  3
UCSORGTOP
350
B5
  3
UCSORTHOREF
350
B2
  3
UCSORTHOVIEW
350
B3
  3
VERSIONGUID
350
A7
  0
DICTIONARY
  5
BC
102
{ACAD_REACTORS
330
C
102
}
330
C
100
AcDbDictionary
  3
DIMASSOC
350
BF
  3
HIDETEXT
350
C0
  0
MATERIAL
  5
3D
102
{ACAD_REACTORS
330
3B
102
}
102
{ACAD_XDICTIONARY
360
C3
102
}
330
3B
100
AcDbMaterial
  1
ByBlock
  0
MATERIAL
  5
3C
102
{ACAD_REACTORS
330
3B
102
}
102
{ACAD_XDICTIONARY
360
C1
102
}
330
3B
100
AcDbMaterial
  1
ByLayer
  0
MATERIAL
  5
3E
102
{ACAD_REACTORS
330
3B
102
}
102
{ACAD_XDICTIONARY
360
C5
102
}
330
3B
100
AcDbMaterial
  1
Global
  0
MLINESTYLE
  5
18
102
{ACAD_REACTORS
330
17
102
}
330
17
100
AcDbMlineStyle
  2
Standard
 70
     0
  3

 62
   256
 51
90.0
 52
90.0
 71
     2
 49
0.5
 62
   256
  6
BYLAYER
 49
-0.5
 62
   256
  6
BYLAYER
  0
ACAD_PROXY_OBJECT
  5
2F
102
{ACAD_REACTORS
330
2A
102
}
330
2A
100
AcDbProxyObject
 90
      499
 91
      501
 93
      436
310
42CC9915DA5C99599C985B595049028333333333333E3BF0000000000000FB0107901411070040501600405405064090741402480A0340
1001
ACAD
1000
AcDbSavedByObjectVersion
1070
     0
  0
ACAD_PROXY_OBJECT
  5
30
102
{ACAD_REACTORS
330
2A
102
}
330
2A
100
AcDbProxyObject
 90
      499
 91
      501
 93
      436
310
42CCD915DA5C99599C985B595059028333333333333E3BF0000000000000FB0107901411070040501600405405064090741402480A0340
1001
ACAD
1000
AcDbSavedByObjectVersion
1070
     0
  0
ACAD_PROXY_OBJECT
  5
31
102
{ACAD_REACTORS
330
2A
102
}
330
2A
100
AcDbProxyObject
 90
      499
 91
      501
 93
      500
310
424CD108121A5919195B90640502408333333333333E3BF0000000000000FB01079024090700405020000000000001110200405405064090740C02480A0340
1001
ACAD
1000
AcDbSavedByObjectVersion
1070
     0
  0
ACAD_PROXY_OBJECT
  5
32
102
{ACAD_REACTORS
330
2A
102
}
330
2A
100
AcDbProxyObject
 90
      499
 91
      501
 93
      388
310
4150985CDA58D07406404333333333333E3BF0000000000000FB0107A41107004050150841D405064090741402480A0350
1001
ACAD
1000
AcDbSavedByObjectVersion
1070
     0
  0
ACAD_PROXY_OBJECT
  5
36
102
{ACAD_REACTORS
330
2A
102
}
330
2A
100
AcDbProxyObject
 90
      499
 91
      501
 93
      428
310
42109C9A59DA1D195B90C409028333333333333E3BF0000000000000FB010790141107004050150841D405064090741402480A029950
1001
ACAD
1000
AcDbSavedByObjectVersion
1070
     0
  0
ACAD_PROXY_OBJECT
  5
3A
102
{ACAD_REACTORS
330
2A
102
}
330
2A
100
AcDbProxyObject
 90
      499
 91
      501
 93
      452
310
42D0DBDB1BDC90DA185B99D95104090240C333333333333E3BF0000000000000FB0108901411070040501508421405064090741402480A0350
1001
ACAD
1000
AcDbSavedByObjectVersion
1070
     0
  0
ACAD_PROXY_OBJECT
  5
34
102
{ACAD_REACTORS
330
2A
102
}
330
2A
100
AcDbProxyObject
 90
      499
 91
      501
 93
      500
310
4290DBDB98D95C1D1D585B10940D028333333333333E3BF0000000000000FB0107902409070040501000000000000111010841D405064090740C02480A0340
1001
ACAD
1000
AcDbSavedByObjectVersion
1070
     0
  0
ACAD_PROXY_OBJECT
  5
35
102
{ACAD_REACTORS
330
2A
102
}
330
2A
100
AcDbProxyObject
 90
      499
 91
      501
 93
      412
310
40D11A5B50B409028333333333333E3BF0000000000000FB010790141107004050150841D405064090741402480A02677FFFFFD0
1001
ACAD
1000
AcDbSavedByObjectVersion
1070
     0
  0
ACAD_PROXY_OBJECT
  5
39
102
{ACAD_REACTORS
330
2A
102
}
330
2A
100
AcDbProxyObject
 90
      499
 91
      501
 93
      444
310
42D19858D95C185D1D195C9B90F409028333333333333E3BF0000000000000FB010790141107004050150841D405064090741402480A0350
1001
ACAD
1000
AcDbSavedByObjectVersion
1070
     0
  0
ACAD_PROXY_OBJECT
  5
2B
102
{ACAD_REACTORS
330
2A
102
}
330
2A
100
AcDbProxyObject
 90
      499
 91
      501
 93
      388
310
41119B185D240901404333333333333E3BF0000000000000F9010740A41107004050150841D405064090741402480A1B50
1001
ACAD
1000
AcDbSavedByObjectVersion
1070
     0
  0
ACAD_PROXY_OBJECT
  5
2C
102
{ACAD_REACTORS
330
2A
102
}
330
2A
100
AcDbProxyObject
 90
      499
 91
      501
 93
      476
310
43519B185D15DA5D1A115919D95CD0140901404333333333333E3BF0000000000000F9010740901411070040501600405405064090741402480A1B50
1001
ACAD
1000
AcDbSavedByObjectVersion
1070
     0
  0
ACAD_PROXY_OBJECT
  5
2D
102
{ACAD_REACTORS
330
2A
102
}
330
2A
100
AcDbProxyObject
 90
      499
 91
      501
 93
      412
310
41D1DBDD5C985D5910240902404333333333333E3BF0000000000000F9010740A411070040501641D405064090741402480A1B50
1001
ACAD
1000
AcDbSavedByObjectVersion
1070
     0
  0
ACAD_PROXY_OBJECT
  5
2E
102
{ACAD_REACTORS
330
2A
102
}
330
2A
100
AcDbProxyObject
 90
      499
 91
      501
 93
      500
310
4411DBDD5C985D5915DA5D1A115919D95CD0340902404333333333333E3BF0000000000000F9010740901411070040501600405405064090741402480A1B50
1001
ACAD
1000
AcDbSavedByObjectVersion
1070
     0
  0
ACAD_PROXY_OBJECT
  5
38
102
{ACAD_REACTORS
330
2A
102
}
330
2A
100
AcDbProxyObject
 90
      499
 91
      501
 93
      444
310
42D31A5B995C185D1D195C9B90E409028333333333333E3BF0000000000000FB010790141107004050750841D405064090741402483A0350
1001
ACAD
1000
AcDbSavedByObjectVersion
1070
     0
  0
ACAD_PROXY_OBJECT
  5
33
102
{ACAD_REACTORS
330
2A
102
}
330
2A
100
AcDbProxyObject
 90
      499
 91
      501
 93
      420
310
425499585B1A5CDD1A58D08409028333333333333E3BF0000000000000FB01079019070040501508421405064090741402480A1B40
1001
ACAD
1000
AcDbSavedByObjectVersion
1070
     0
  0
ACAD_PROXY_OBJECT
  5
37
102
{ACAD_REACTORS
330
2A
102
}
330
2A
100
AcDbProxyObject
 90
      499
 91
      501
 93
      412
310
41D51A1A58DAD95B90D409028333333333333E3BF0000000000000FB010790141107004050150C41D405064090741402480A0350
1001
ACAD
1000
AcDbSavedByObjectVersion
1070
     0
  0
XRECORD
  5
A5
102
{ACAD_REACTORS
330
9C
102
}
330
9C
100
AcDbXrecord
 90
        0
  0
XRECORD
  5
BB
102
{ACAD_REACTORS
330
9C
102
}
330
9C
100
AcDbXrecord
1000
DSTYLE
1002
{
1070
   340
340
11
1002
}
  0
XRECORD
  5
A6
102
{ACAD_REACTORS
330
9C
102
}
330
9C
100
AcDbXrecord
  1
{83065FD0-45B4-2FD0-E1DB-7481E74C1E1C}
  0
XRECORD
  5
9F
102
{ACAD_REACTORS
330
9C
102
}
330
9C
100
AcDbXrecord
  1

  0
XRECORD
  5
A4
102
{ACAD_REACTORS
330
9C
102
}
330
9C
100
AcDbXrecord
 90
        4
  0
XRECORD
  5
A1
102
{ACAD_REACTORS
330
9C
102
}
330
9C
100
AcDbXrecord
340
1A
  0
XRECORD
  5
A3
102
{ACAD_REACTORS
330
9C
102
}
330
9C
100
AcDbXrecord
 90
    10269
  0
XRECORD
  5
A2
102
{ACAD_REACTORS
330
9C
102
}
330
9C
100
AcDbXrecord
340
19
  0
XRECORD
  5
A8
102
{ACAD_REACTORS
330
9C
102
}
330
9C
100
AcDbXrecord
 40
0.0
  0
XRECORD
  5
AB
102
{ACAD_REACTORS
330
9C
102
}
330
9C
100
AcDbXrecord
340
0
  0
XRECORD
  5
B1
102
{ACAD_REACTORS
330
9C
102
}
330
9C
100
AcDbXrecord
 10
0.0
 20
0.0
 30
0.0
  0
XRECORD
  5
AD
102
{ACAD_REACTORS
330
9C
102
}
330
9C
100
AcDbXrecord
 10
0.0
 20
0.0
 30
0.0
  0
XRECORD
  5
B0
102
{ACAD_REACTORS
330
9C
102
}
330
9C
100
AcDbXrecord
 10
0.0
 20
0.0
 30
0.0
  0
XRECORD
  5
AE
102
{ACAD_REACTORS
330
9C
102
}
330
9C
100
AcDbXrecord
 10
0.0
 20
0.0
 30
0.0
  0
XRECORD
  5
AF
102
{ACAD_REACTORS
330
9C
102
}
330
9C
100
AcDbXrecord
 10
0.0
 20
0.0
 30
0.0
  0
XRECORD
  5
AC
102
{ACAD_REACTORS
330
9C
102
}
330
9C
100
AcDbXrecord
 10
0.0
 20
0.0
 30
0.0
  0
XRECORD
  5
A9
102
{ACAD_REACTORS
330
9C
102
}
330
9C
100
AcDbXrecord
340
0
  0
XRECORD
  5
AA
102
{ACAD_REACTORS
330
9C
102
}
330
9C
100
AcDbXrecord
 70
     0
  0
XRECORD
  5
A0
102
{ACAD_REACTORS
330
9C
102
}
330
9C
100
AcDbXrecord
  1

  0
XRECORD
  5
9D
102
{ACAD_REACTORS
330
9C
102
}
330
9C
100
AcDbXrecord
 90
        1
  0
XRECORD
  5
9E
102
{ACAD_REACTORS
330
9C
102
}
330
9C
100
AcDbXrecord
 90
       70
  0
XRECORD
  5
B4
102
{ACAD_REACTORS
330
9C
102
}
330
9C
100
AcDbXrecord
340
0
  0
XRECORD
  5
BA
102
{ACAD_REACTORS
330
9C
102
}
330
9C
100
AcDbXrecord
 10
0.0
 20
0.0
 30
0.0
  0
XRECORD
  5
B6
102
{ACAD_REACTORS
330
9C
102
}
330
9C
100
AcDbXrecord
 10
0.0
 20
0.0
 30
0.0
  0
XRECORD
  5
B9
102
{ACAD_REACTORS
330
9C
102
}
330
9C
100
AcDbXrecord
 10
0.0
 20
0.0
 30
0.0
  0
XRECORD
  5
B7
102
{ACAD_REACTORS
330
9C
102
}
330
9C
100
AcDbXrecord
 10
0.0
 20
0.0
 30
0.0
  0
XRECORD
  5
B8
102
{ACAD_REACTORS
330
9C
102
}
330
9C
100
AcDbXrecord
 10
0.0
 20
0.0
 30
0.0
  0
XRECORD
  5
B5
102
{ACAD_REACTORS
330
9C
102
}
330
9C
100
AcDbXrecord
 10
0.0
 20
0.0
 30
0.0
  0
XRECORD
  5
B2
102
{ACAD_REACTORS
330
9C
102
}
330
9C
100
AcDbXrecord
340
0
  0
XRECORD
  5
B3
102
{ACAD_REACTORS
330
9C
102
}
330
9C
100
AcDbXrecord
 70
     0
  0
XRECORD
  5
A7
102
{ACAD_REACTORS
330
9C
102
}
330
9C
100
AcDbXrecord
  1
{FAEB1C32-E019-11D5-929B-00C0DF256EC4}
  0
DICTIONARYVAR
  5
BF
102
{ACAD_REACTORS
330
BC
102
}
330
BC
100
DictionaryVariables
280
     0
  1
2
  0
DICTIONARYVAR
  5
C0
102
{ACAD_REACTORS
330
BC
102
}
330
BC
100
DictionaryVariables
280
     0
  1
1
  0
DICTIONARY
  5
C3
330
3D
100
AcDbDictionary
280
     1
  3
ACAD_XREC_ROUNDTRIP
360
C4
  0
DICTIONARY
  5
C1
330
3C
100
AcDbDictionary
280
     1
  3
ACAD_XREC_ROUNDTRIP
360
C2
  0
DICTIONARY
  5
C5
330
3E
100
AcDbDictionary
280
     1
  3
ACAD_XREC_ROUNDTRIP
360
C6
  0
XRECORD
  5
C4
102
{ACAD_REACTORS
330
C3
102
}
330
C3
100
AcDbXrecord
102
MATERIAL
148
0.0
149
0.0
149
0.0
 93
        0
 94
      127
282
     0
 72
     1
 77
     1
171
     1
175
     1
179
     1
273
     0
  0
XRECORD
  5
C2
102
{ACAD_REACTORS
330
C1
102
}
330
C1
100
AcDbXrecord
102
MATERIAL
148
0.0
149
0.0
149
0.0
 93
        0
 94
      127
282
     0
 72
     1
 77
     1
171
     1
175
     1
179
     1
273
     0
  0
XRECORD
  5
C6
102
{ACAD_REACTORS
330
C5
102
}
330
C5
100
AcDbXrecord
102
MATERIAL
148
0.0
149
0.0
149
0.0
 93
        0
 94
      127
282
     0
 72
     1
 77
     1
171
     1
175
     1
179
     1
273
     0
  0
ENDSEC
  0
EOF
