  0
SECTION
  2
HEADER
  9
$ACADVER
  1
AC1014
  9
$ACADMAINTVER
 70
     9
  9
$DWGCODEPAGE
  3
UNDEFINED
  9
$INSBASE
 10
0.0
 20
0.0
 30
0.0
  9
$EXTMIN
 10
1.000000000000000E+20
 20
1.000000000000000E+20
 30
1.000000000000000E+20
  9
$EXTMAX
 10
-1.000000000000000E+20
 20
-1.000000000000000E+20
 30
-1.000000000000000E+20
  9
$LIMMIN
 10
0.0
 20
0.0
  9
$LIMMAX
 10
12.0
 20
9.0
  9
$ORTHOMODE
 70
     0
  9
$REGENMODE
 70
     1
  9
$FILLMODE
 70
     1
  9
$QTEXTMODE
 70
     0
  9
$MIRRTEXT
 70
     1
  9
$DRAGMODE
 70
     2
  9
$LTSCALE
 40
1.0
  9
$OSMODE
 70
    37
  9
$ATTMODE
 70
     1
  9
$TEXTSIZE
 40
0.2
  9
$TRACEWID
 40
0.05
  9
$TEXTSTYLE
  7
STANDARD
  9
$CLAYER
  8
0
  9
$CELTYPE
  6
BYLAYER
  9
$CECOLOR
 62
   256
  9
$CELTSCALE
 40
1.0
  9
$DELOBJ
 70
     1
  9
$DISPSILH
 70
     0
  9
$DIMSCALE
 40
1.0
  9
$DIMASZ
 40
0.18
  9
$DIMEXO
 40
0.0625
  9
$DIMDLI
 40
0.38
  9
$DIMRND
 40
0.0
  9
$DIMDLE
 40
0.0
  9
$DIMEXE
 40
0.18
  9
$DIMTP
 40
0.0
  9
$DIMTM
 40
0.0
  9
$DIMTXT
 40
0.18
  9
$DIMCEN
 40
0.09
  9
$DIMTSZ
 40
0.0
  9
$DIMTOL
 70
     0
  9
$DIMLIM
 70
     0
  9
$DIMTIH
 70
     1
  9
$DIMTOH
 70
     1
  9
$DIMSE1
 70
     0
  9
$DIMSE2
 70
     0
  9
$DIMTAD
 70
     0
  9
$DIMZIN
 70
     0
  9
$DIMBLK
  1

  9
$DIMASO
 70
     1
  9
$DIMSHO
 70
     1
  9
$DIMPOST
  1

  9
$DIMAPOST
  1

  9
$DIMALT
 70
     0
  9
$DIMALTD
 70
     2
  9
$DIMALTF
 40
25.4
  9
$DIMLFAC
 40
1.0
  9
$DIMTOFL
 70
     0
  9
$DIMTVP
 40
0.0
  9
$DIMTIX
 70
     0
  9
$DIMSOXD
 70
     0
  9
$DIMSAH
 70
     0
  9
$DIMBLK1
  1

  9
$DIMBLK2
  1

  9
$DIMSTYLE
  2
STANDARD
  9
$DIMCLRD
 70
     0
  9
$DIMCLRE
 70
     0
  9
$DIMCLRT
 70
     0
  9
$DIMTFAC
 40
1.0
  9
$DIMGAP
 40
0.09
  9
$DIMJUST
 70
     0
  9
$DIMSD1
 70
     0
  9
$DIMSD2
 70
     0
  9
$DIMTOLJ
 70
     1
  9
$DIMTZIN
 70
     0
  9
$DIMALTZ
 70
     0
  9
$DIMALTTZ
 70
     0
  9
$DIMFIT
 70
     3
  9
$DIMUPT
 70
     0
  9
$DIMUNIT
 70
     2
  9
$DIMDEC
 70
     4
  9
$DIMTDEC
 70
     4
  9
$DIMALTU
 70
     2
  9
$DIMALTTD
 70
     2
  9
$DIMTXSTY
  7
STANDARD
  9
$DIMAUNIT
 70
     0
  9
$LUNITS
 70
     2
  9
$LUPREC
 70
     4
  9
$SKETCHINC
 40
0.1
  9
$FILLETRAD
 40
0.5
  9
$AUNITS
 70
     0
  9
$AUPREC
 70
     0
  9
$MENU
  1
.
  9
$ELEVATION
 40
0.0
  9
$PELEVATION
 40
0.0
  9
$THICKNESS
 40
0.0
  9
$LIMCHECK
 70
     0
  9
$CHAMFERA
 40
0.5
  9
$CHAMFERB
 40
0.5
  9
$CHAMFERC
 40
1.0
  9
$CHAMFERD
 40
0.0
  9
$SKPOLY
 70
     0
  9
$TDCREATE
 40
2458968.596423599
  9
$TDUPDATE
 40
2458968.596423599
  9
$TDINDWG
 40
0.0000000116
  9
$TDUSRTIMER
 40
0.0000000116
  9
$USRTIMER
 70
     1
  9
$ANGBASE
 50
0.0
  9
$ANGDIR
 70
     0
  9
$PDMODE
 70
     0
  9
$PDSIZE
 40
0.0
  9
$PLINEWID
 40
0.0
  9
$COORDS
 70
     1
  9
$SPLFRAME
 70
     0
  9
$SPLINETYPE
 70
     6
  9
$SPLINESEGS
 70
     8
  9
$ATTDIA
 70
     0
  9
$ATTREQ
 70
     1
  9
$HANDLING
 70
     1
  9
$HANDSEED
  5
F3
  9
$SURFTAB1
 70
     6
  9
$SURFTAB2
 70
     6
  9
$SURFTYPE
 70
     6
  9
$SURFU
 70
     6
  9
$SURFV
 70
     6
  9
$UCSNAME
  2

  9
$UCSORG
 10
0.0
 20
0.0
 30
0.0
  9
$UCSXDIR
 10
1.0
 20
0.0
 30
0.0
  9
$UCSYDIR
 10
0.0
 20
1.0
 30
0.0
  9
$PUCSNAME
  2

  9
$PUCSORG
 10
0.0
 20
0.0
 30
0.0
  9
$PUCSXDIR
 10
1.0
 20
0.0
 30
0.0
  9
$PUCSYDIR
 10
0.0
 20
1.0
 30
0.0
  9
$USERI1
 70
     0
  9
$USERI2
 70
     0
  9
$USERI3
 70
     0
  9
$USERI4
 70
     0
  9
$USERI5
 70
     0
  9
$USERR1
 40
0.0
  9
$USERR2
 40
0.0
  9
$USERR3
 40
0.0
  9
$USERR4
 40
0.0
  9
$USERR5
 40
0.0
  9
$WORLDVIEW
 70
     1
  9
$SHADEDGE
 70
     3
  9
$SHADEDIF
 70
    70
  9
$TILEMODE
 70
     1
  9
$MAXACTVP
 70
    64
  9
$PINSBASE
 10
0.0
 20
0.0
 30
0.0
  9
$PLIMCHECK
 70
     0
  9
$PEXTMIN
 10
1.000000000000000E+20
 20
1.000000000000000E+20
 30
1.000000000000000E+20
  9
$PEXTMAX
 10
-1.000000000000000E+20
 20
-1.000000000000000E+20
 30
-1.000000000000000E+20
  9
$PLIMMIN
 10
0.0
 20
0.0
  9
$PLIMMAX
 10
12.0
 20
9.0
  9
$UNITMODE
 70
     0
  9
$VISRETAIN
 70
     1
  9
$PLINEGEN
 70
     0
  9
$PSLTSCALE
 70
     1
  9
$TREEDEPTH
 70
  3020
  9
$PICKSTYLE
 70
     1
  9
$CMLSTYLE
  2
STANDARD
  9
$CMLJUST
 70
     0
  9
$CMLSCALE
 40
1.0
  9
$PROXYGRAPHICS
 70
     1
  9
$MEASUREMENT
 70
     0
  0
ENDSEC
  0
SECTION
  2
CLASSES
  0
CLASS
  1
ACDBDICTIONARYWDFLT
  2
AcDbDictionaryWithDefault
  3
ObjectDBX Classes
 90
        0
280
     0
281
     0
  0
CLASS
  1
VISUALSTYLE
  2
AcDbVisualStyle
  3
ObjectDBX Classes
 90
     4095
280
     0
281
     0
  0
CLASS
  1
MATERIAL
  2
AcDbMaterial
  3
ObjectDBX Classes
 90
     1153
280
     0
281
     0
  0
CLASS
  1
SUN
  2
AcDbSun
  3
SCENEOE
 90
     1024
280
     0
281
     0
  0
CLASS
  1
DICTIONARYVAR
  2
AcDbDictionaryVar
  3
ObjectDBX Classes
 90
        0
280
     0
281
     0
  0
CLASS
  1
XRECORD
  2
AcDbXrecord
  3
AutoCAD 2000
 90
        0
280
     0
281
     0
  0
CLASS
  1
LWPOLYLINE
  2
AcDbPolyline
  3
AutoCAD 2000
 90
        0
280
     0
281
     1
  0
CLASS
  1
HATCH
  2
AcDbHatch
  3
AutoCAD 2000
 90
        0
280
     0
281
     1
  0
CLASS
  1
ACDBPLACEHOLDER
  2
AcDbPlaceHolder
  3
ObjectDBX Classes
 90
        0
280
     0
281
     0
  0
CLASS
  1
LAYOUT
  2
AcDbLayout
  3
ObjectDBX Classes
 90
        0
280
     0
281
     0
  0
ENDSEC
  0
SECTION
  2
TABLES
  0
TABLE
  2
VPORT
  5
8
330
0
100
AcDbSymbolTable
 70
     1
  0
VPORT
  5
29
330
8
100
AcDbSymbolTableRecord
100
AcDbViewportTableRecord
  2
*ACTIVE
 70
     0
 10
0.0
 20
0.0
 11
1.0
 21
1.0
 12
0.0
 22
0.0
 13
0.0
 23
0.0
 14
0.5
 24
0.5
 15
0.5
 25
0.5
 16
0.0
 26
0.0
 36
1.0
 17
104.9999989878935
 27
148.4996183011652
 37
0.0
 40
297.0000052006764
 41
0.7070706878738762
 42
50.0
 43
0.0
 44
0.0
 50
0.0
 51
0.0
 71
     0
 72
   100
 73
     1
 74
     3
 75
     0
 76
     0
 77
     0
 78
     0
  0
ENDTAB
  0
TABLE
  2
LTYPE
  5
5
330
0
100
AcDbSymbolTable
 70
     1
  0
LTYPE
  5
14
330
5
100
AcDbSymbolTableRecord
100
AcDbLinetypeTableRecord
  2
BYBLOCK
 70
     0
  3

 72
    65
 73
     0
 40
0.0
  0
LTYPE
  5
15
330
5
100
AcDbSymbolTableRecord
100
AcDbLinetypeTableRecord
  2
BYLAYER
 70
     0
  3

 72
    65
 73
     0
 40
0.0
  0
LTYPE
  5
16
330
5
100
AcDbSymbolTableRecord
100
AcDbLinetypeTableRecord
  2
CONTINUOUS
 70
     0
  3
Solid line
 72
    65
 73
     0
 40
0.0
  0
ENDTAB
  0
TABLE
  2
LAYER
  5
2
330
0
100
AcDbSymbolTable
 70
    12
  0
LAYER
  5
10
330
2
100
AcDbSymbolTableRecord
100
AcDbLayerTableRecord
  2
0
 70
     0
 62
     7
  6
CONTINUOUS
  0
LAYER
  5
40
330
2
100
AcDbSymbolTableRecord
100
AcDbLayerTableRecord
  2
OUTLINE
 70
     0
 62
     7
  6
CONTINUOUS
  0
LAYER
  5
41
330
2
100
AcDbSymbolTableRecord
100
AcDbLayerTableRecord
  2
OUTLINE_U_306E_U_30B3_U_30
 70
     0
 62
     7
  6
CONTINUOUS
  0
LAYER
  5
42
330
2
100
AcDbSymbolTableRecord
100
AcDbLayerTableRecord
  2
L2-SILK
 70
     0
 62
     7
  6
CONTINUOUS
  0
LAYER
  5
43
330
2
100
AcDbSymbolTableRecord
100
AcDbLayerTableRecord
  2
L2-PATTERN
 70
     0
 62
     7
  6
CONTINUOUS
  0
LAYER
  5
44
330
2
100
AcDbSymbolTableRecord
100
AcDbLayerTableRecord
  2
L2-RESIST
 70
     0
 62
     7
  6
CONTINUOUS
  0
LAYER
  5
45
330
2
100
AcDbSymbolTableRecord
100
AcDbLayerTableRecord
  2
L1-PATTERN
 70
     0
 62
     7
  6
CONTINUOUS
  0
LAYER
  5
46
330
2
100
AcDbSymbolTableRecord
100
AcDbLayerTableRecord
  2
L1-RESIST
 70
     0
 62
     7
  6
CONTINUOUS
  0
LAYER
  5
47
330
2
100
AcDbSymbolTableRecord
100
AcDbLayerTableRecord
  2
L1-SILK
 70
     0
 62
     7
  6
CONTINUOUS
  0
LAYER
  5
48
330
2
100
AcDbSymbolTableRecord
100
AcDbLayerTableRecord
  2
DRILL
 70
     0
 62
     7
  6
CONTINUOUS
  0
LAYER
  5
49
330
2
100
AcDbSymbolTableRecord
100
AcDbLayerTableRecord
  2
_U_30EC_U_30A4_U_30E4_U_30
 70
     0
 62
     7
  6
CONTINUOUS
  0
LAYER
  5
4A
330
2
100
AcDbSymbolTableRecord
100
AcDbLayerTableRecord
  2
_U_30EC_U_30A4_U_30E4_U_31
 70
     0
 62
     7
  6
CONTINUOUS
  0
ENDTAB
  0
TABLE
  2
STYLE
  5
3
330
0
100
AcDbSymbolTable
 70
     1
  0
STYLE
  5
11
330
3
100
AcDbSymbolTableRecord
100
AcDbTextStyleTableRecord
  2
STANDARD
 70
     0
 40
0.0
 41
1.0
 50
0.0
 71
     0
 42
0.2
  3
txt
  4

  0
ENDTAB
  0
TABLE
  2
VIEW
  5
6
330
0
100
AcDbSymbolTable
 70
     0
  0
ENDTAB
  0
TABLE
  2
UCS
  5
7
330
0
100
AcDbSymbolTable
 70
     0
  0
ENDTAB
  0
TABLE
  2
APPID
  5
9
330
0
100
AcDbSymbolTable
 70
     1
  0
APPID
  5
12
330
9
100
AcDbSymbolTableRecord
100
AcDbRegAppTableRecord
  2
ACAD
 70
     0
  0
ENDTAB
  0
TABLE
  2
DIMSTYLE
  5
A
330
0
100
AcDbSymbolTable
 70
     1
  0
DIMSTYLE
105
27
330
A
100
AcDbSymbolTableRecord
100
AcDbDimStyleTableRecord
  2
STANDARD
 70
     0
  3

  4

  5

  6

  7

 40
1.0
 41
0.18
 42
0.0625
 43
0.38
 44
0.18
 45
0.0
 46
0.0
 47
0.0
 48
0.0
140
0.18
141
0.09
142
0.0
143
25.4
144
1.0
145
0.0
146
1.0
147
0.09
 71
     0
 72
     0
 73
     1
 74
     1
 75
     0
 76
     0
 77
     0
 78
     0
170
     0
171
     2
172
     0
173
     0
174
     0
175
     0
176
     0
177
     0
178
     0
270
     2
271
     4
272
     4
273
     2
274
     2
340
11
275
     0
280
     0
281
     0
282
     0
283
     1
284
     0
285
     0
286
     0
287
     3
288
     0
  0
ENDTAB
  0
TABLE
  2
BLOCK_RECORD
  5
1
330
0
100
AcDbSymbolTable
 70
     1
  0
BLOCK_RECORD
  5
1F
330
1
100
AcDbSymbolTableRecord
100
AcDbBlockTableRecord
  2
*MODEL_SPACE
  0
BLOCK_RECORD
  5
1B
330
1
100
AcDbSymbolTableRecord
100
AcDbBlockTableRecord
  2
*PAPER_SPACE
  0
ENDTAB
  0
ENDSEC
  0
SECTION
  2
BLOCKS
  0
BLOCK
  5
20
330
1F
100
AcDbEntity
  8
0
100
AcDbBlockBegin
  2
*MODEL_SPACE
 70
     0
 10
0.0
 20
0.0
 30
0.0
  3
*MODEL_SPACE
  1

  0
ENDBLK
  5
21
330
1F
100
AcDbEntity
  8
0
100
AcDbBlockEnd
  0
BLOCK
  5
1C
330
1B
100
AcDbEntity
 67
     1
  8
0
100
AcDbBlockBegin
  2
*PAPER_SPACE
 70
     0
 10
0.0
 20
0.0
 30
0.0
  3
*PAPER_SPACE
  1

  0
ENDBLK
  5
1D
330
1B
100
AcDbEntity
 67
     1
  8
0
100
AcDbBlockEnd
  0
ENDSEC
  0
SECTION
  2
ENTITIES
  0
POLYLINE
  5
4B
330
1F
100
AcDbEntity
  8
_U_30EC_U_30A4_U_30E4_U_31
100
AcDb2dPolyline
 66
     1
 10
0.0
 20
0.0
 30
0.0
  0
VERTEX
  5
4C
330
4B
100
AcDbEntity
  8
_U_30EC_U_30A4_U_30E4_U_31
100
AcDbVertex
100
AcDb2dVertex
 10
26.32301160156304
 20
73.62368415297321
 30
0.0
  0
VERTEX
  5
4D
330
4B
100
AcDbEntity
  8
_U_30EC_U_30A4_U_30E4_U_31
100
AcDbVertex
100
AcDb2dVertex
 10
26.33459594154528
 20
73.62135581969928
 30
0.0
  0
VERTEX
  5
4E
330
4B
100
AcDbEntity
  8
_U_30EC_U_30A4_U_30E4_U_31
100
AcDbVertex
100
AcDb2dVertex
 10
26.34618028152752
 20
73.61902748642599
 30
0.0
  0
VERTEX
  5
4F
330
4B
100
AcDbEntity
  8
_U_30EC_U_30A4_U_30E4_U_31
100
AcDbVertex
100
AcDb2dVertex
 10
26.35776462150976
 20
73.61669915315206
 30
0.0
  0
VERTEX
  5
50
330
4B
100
AcDbEntity
  8
_U_30EC_U_30A4_U_30E4_U_31
100
AcDbVertex
100
AcDb2dVertex
 10
26.36934896149199
 20
73.61437081987812
 30
0.0
  0
VERTEX
  5
51
330
4B
100
AcDbEntity
  8
_U_30EC_U_30A4_U_30E4_U_31
100
AcDbVertex
100
AcDb2dVertex
 10
26.38093330147423
 20
73.61204248660484
 30
0.0
  0
VERTEX
  5
52
330
4B
100
AcDbEntity
  8
_U_30EC_U_30A4_U_30E4_U_31
100
AcDbVertex
100
AcDb2dVertex
 10
26.39251764145646
 20
73.6097141533309
 30
0.0
  0
VERTEX
  5
53
330
4B
100
AcDbEntity
  8
_U_30EC_U_30A4_U_30E4_U_31
100
AcDbVertex
100
AcDb2dVertex
 10
26.4041019814387
 20
73.60738582005696
 30
0.0
  0
VERTEX
  5
54
330
4B
100
AcDbEntity
  8
_U_30EC_U_30A4_U_30E4_U_31
100
AcDbVertex
100
AcDb2dVertex
 10
26.41568632142094
 20
73.60505748678368
 30
0.0
  0
VERTEX
  5
55
330
4B
100
AcDbEntity
  8
_U_30EC_U_30A4_U_30E4_U_31
100
AcDbVertex
100
AcDb2dVertex
 10
26.83821314712157
 20
73.53914045477205
 30
0.0
  0
VERTEX
  5
56
330
4B
100
AcDbEntity
  8
_U_30EC_U_30A4_U_30E4_U_31
100
AcDbVertex
100
AcDb2dVertex
 10
27.231083075792
 20
73.51356756382944
 30
0.0
  0
VERTEX
  5
57
330
4B
100
AcDbEntity
  8
_U_30EC_U_30A4_U_30E4_U_31
100
AcDbVertex
100
AcDb2dVertex
 10
27.59493400129679
 20
73.52463397797352
 30
0.0
  0
VERTEX
  5
58
330
4B
100
AcDbEntity
  8
_U_30EC_U_30A4_U_30E4_U_31
100
AcDbVertex
100
AcDb2dVertex
 10
27.9304038174995
 20
73.56863486122195
 30
0.0
  0
VERTEX
  5
59
330
4B
100
AcDbEntity
  8
_U_30EC_U_30A4_U_30E4_U_31
100
AcDbVertex
100
AcDb2dVertex
 10
28.23813041826436
 20
73.64186537759112
 30
0.0
  0
VERTEX
  5
5A
330
4B
100
AcDbEntity
  8
_U_30EC_U_30A4_U_30E4_U_31
100
AcDbVertex
100
AcDb2dVertex
 10
28.51875169745465
 20
73.74062069109932
 30
0.0
  0
VERTEX
  5
5B
330
4B
100
AcDbEntity
  8
_U_30EC_U_30A4_U_30E4_U_31
100
AcDbVertex
100
AcDb2dVertex
 10
28.77290554893522
 20
73.86119596576359
 30
0.0
  0
VERTEX
  5
5C
330
4B
100
AcDbEntity
  8
_U_30EC_U_30A4_U_30E4_U_31
100
AcDbVertex
100
AcDb2dVertex
 10
29.00122986656934
 20
73.99988636560093
 30
0.0
  0
VERTEX
  5
5D
330
4B
100
AcDbEntity
  8
_U_30EC_U_30A4_U_30E4_U_31
100
AcDbVertex
100
AcDb2dVertex
 10
29.00183427282054
 20
74.00031467032635
 30
0.0
  0
VERTEX
  5
5E
330
4B
100
AcDbEntity
  8
_U_30EC_U_30A4_U_30E4_U_31
100
AcDbVertex
100
AcDb2dVertex
 10
29.00243867907174
 20
74.0007429750524
 30
0.0
  0
VERTEX
  5
5F
330
4B
100
AcDbEntity
  8
_U_30EC_U_30A4_U_30E4_U_31
100
AcDbVertex
100
AcDb2dVertex
 10
29.00304308532294
 20
74.00117127977782
 30
0.0
  0
VERTEX
  5
60
330
4B
100
AcDbEntity
  8
_U_30EC_U_30A4_U_30E4_U_31
100
AcDbVertex
100
AcDb2dVertex
 10
29.00364749157414
 20
74.00159958450388
 30
0.0
  0
VERTEX
  5
61
330
4B
100
AcDbEntity
  8
_U_30EC_U_30A4_U_30E4_U_31
100
AcDbVertex
100
AcDb2dVertex
 10
29.00425189782534
 20
74.0020278892293
 30
0.0
  0
VERTEX
  5
62
330
4B
100
AcDbEntity
  8
_U_30EC_U_30A4_U_30E4_U_31
100
AcDbVertex
100
AcDb2dVertex
 10
29.00485630407654
 20
74.00245619395535
 30
0.0
  0
VERTEX
  5
63
330
4B
100
AcDbEntity
  8
_U_30EC_U_30A4_U_30E4_U_31
100
AcDbVertex
100
AcDb2dVertex
 10
29.00546071032774
 20
74.00288449868077
 30
0.0
  0
VERTEX
  5
64
330
4B
100
AcDbEntity
  8
_U_30EC_U_30A4_U_30E4_U_31
100
AcDbVertex
100
AcDb2dVertex
 10
29.00606511657894
 20
74.00331280340683
 30
0.0
  0
VERTEX
  5
65
330
4B
100
AcDbEntity
  8
_U_30EC_U_30A4_U_30E4_U_31
100
AcDbVertex
100
AcDb2dVertex
 10
29.31367206826847
 20
74.24717285950408
 30
0.0
  0
VERTEX
  5
66
330
4B
100
AcDbEntity
  8
_U_30EC_U_30A4_U_30E4_U_31
100
AcDbVertex
100
AcDb2dVertex
 10
29.56400228412571
 20
74.50699701944518
 30
0.0
  0
VERTEX
  5
67
330
4B
100
AcDbEntity
  8
_U_30EC_U_30A4_U_30E4_U_31
100
AcDbVertex
100
AcDb2dVertex
 10
29.76217418556752
 20
74.76812963539038
 30
0.0
  0
VERTEX
  5
68
330
4B
100
AcDbEntity
  8
_U_30EC_U_30A4_U_30E4_U_31
100
AcDbVertex
100
AcDb2dVertex
 10
29.91330619401139
 20
75.01591505950121
 30
0.0
  0
VERTEX
  5
69
330
4B
100
AcDbEntity
  8
_U_30EC_U_30A4_U_30E4_U_31
100
AcDbVertex
100
AcDb2dVertex
 10
30.02251673087484
 20
75.23569764393982
 30
0.0
  0
VERTEX
  5
6A
330
4B
100
AcDbEntity
  8
_U_30EC_U_30A4_U_30E4_U_31
100
AcDbVertex
100
AcDb2dVertex
 10
30.09492421757536
 20
75.41282174086645
 30
0.0
  0
VERTEX
  5
6B
330
4B
100
AcDbEntity
  8
_U_30EC_U_30A4_U_30E4_U_31
100
AcDbVertex
100
AcDb2dVertex
 10
30.1356470755298
 20
75.5326317024426
 30
0.0
  0
VERTEX
  5
6C
330
4B
100
AcDbEntity
  8
_U_30EC_U_30A4_U_30E4_U_31
100
AcDbVertex
100
AcDb2dVertex
 10
30.14980372615566
 20
75.58047188083046
 30
0.0
  0
VERTEX
  5
6D
330
4B
100
AcDbEntity
  8
_U_30EC_U_30A4_U_30E4_U_31
100
AcDbVertex
100
AcDb2dVertex
 10
30.39031286389994
 20
76.55547499796371
 30
0.0
  0
VERTEX
  5
6E
330
4B
100
AcDbEntity
  8
_U_30EC_U_30A4_U_30E4_U_31
100
AcDbVertex
100
AcDb2dVertex
 10
30.42586666182113
 20
77.55534343389733
 30
0.0
  0
VERTEX
  5
6F
330
4B
100
AcDbEntity
  8
_U_30EC_U_30A4_U_30E4_U_31
100
AcDbVertex
100
AcDb2dVertex
 10
30.29025654483819
 20
78.56121636724387
 30
0.0
  0
VERTEX
  5
70
330
4B
100
AcDbEntity
  8
_U_30EC_U_30A4_U_30E4_U_31
100
AcDbVertex
100
AcDb2dVertex
 10
30.01727393787012
 20
79.55423297661464
 30
0.0
  0
VERTEX
  5
71
330
4B
100
AcDbEntity
  8
_U_30EC_U_30A4_U_30E4_U_31
100
AcDbVertex
100
AcDb2dVertex
 10
29.64071026583652
 20
80.51553244062156
 30
0.0
  0
VERTEX
  5
72
330
4B
100
AcDbEntity
  8
_U_30EC_U_30A4_U_30E4_U_31
100
AcDbVertex
100
AcDb2dVertex
 10
29.19435695365606
 20
81.42625393787654
 30
0.0
  0
VERTEX
  5
73
330
4B
100
AcDbEntity
  8
_U_30EC_U_30A4_U_30E4_U_31
100
AcDbVertex
100
AcDb2dVertex
 10
28.71200542624836
 20
82.26753664699089
 30
0.0
  0
VERTEX
  5
74
330
4B
100
AcDbEntity
  8
_U_30EC_U_30A4_U_30E4_U_31
100
AcDbVertex
100
AcDb2dVertex
 10
28.2274471085324
 20
83.02051974657651
 30
0.0
  0
VERTEX
  5
75
330
4B
100
AcDbEntity
  8
_U_30EC_U_30A4_U_30E4_U_31
100
AcDbVertex
100
AcDb2dVertex
 10
27.95776547305663
 20
83.4070448430511
 30
0.0
  0
VERTEX
  5
76
330
4B
100
AcDbEntity
  8
_U_30EC_U_30A4_U_30E4_U_31
100
AcDbVertex
100
AcDb2dVertex
 10
27.70372290464968
 20
83.75437026604774
 30
0.0
  0
VERTEX
  5
77
330
4B
100
AcDbEntity
  8
_U_30EC_U_30A4_U_30E4_U_31
100
AcDbVertex
100
AcDb2dVertex
 10
27.47152918142249
 20
84.05875712243112
 30
0.0
  0
VERTEX
  5
78
330
4B
100
AcDbEntity
  8
_U_30EC_U_30A4_U_30E4_U_31
100
AcDbVertex
100
AcDb2dVertex
 10
27.26739408148596
 20
84.31646651906779
 30
0.0
  0
VERTEX
  5
79
330
4B
100
AcDbEntity
  8
_U_30EC_U_30A4_U_30E4_U_31
100
AcDbVertex
100
AcDb2dVertex
 10
27.09752738295101
 20
84.52375956282498
 30
0.0
  0
VERTEX
  5
7A
330
4B
100
AcDbEntity
  8
_U_30EC_U_30A4_U_30E4_U_31
100
AcDbVertex
100
AcDb2dVertex
 10
26.96813886392825
 20
84.67689736056735
 30
0.0
  0
VERTEX
  5
7B
330
4B
100
AcDbEntity
  8
_U_30EC_U_30A4_U_30E4_U_31
100
AcDbVertex
100
AcDb2dVertex
 10
26.8854383025289
 20
84.77214101916213
 30
0.0
  0
VERTEX
  5
7C
330
4B
100
AcDbEntity
  8
_U_30EC_U_30A4_U_30E4_U_31
100
AcDbVertex
100
AcDb2dVertex
 10
26.85563547686357
 20
84.80575164547525
 30
0.0
  0
VERTEX
  5
7D
330
4B
100
AcDbEntity
  8
_U_30EC_U_30A4_U_30E4_U_31
100
AcDbVertex
100
AcDb2dVertex
 10
25.6601487600864
 20
86.01265813595111
 30
0.0
  0
VERTEX
  5
7E
330
4B
100
AcDbEntity
  8
_U_30EC_U_30A4_U_30E4_U_31
100
AcDbVertex
100
AcDb2dVertex
 10
24.44986780074496
 20
86.98571099958112
 30
0.0
  0
VERTEX
  5
7F
330
4B
100
AcDbEntity
  8
_U_30EC_U_30A4_U_30E4_U_31
100
AcDbVertex
100
AcDb2dVertex
 10
23.23770723149641
 20
87.74621084780013
 30
0.0
  0
VERTEX
  5
80
330
4B
100
AcDbEntity
  8
_U_30EC_U_30A4_U_30E4_U_31
100
AcDbVertex
100
AcDb2dVertex
 10
22.0365816849976
 20
88.31545829204501
 30
0.0
  0
VERTEX
  5
81
330
4B
100
AcDbEntity
  8
_U_30EC_U_30A4_U_30E4_U_31
100
AcDbVertex
100
AcDb2dVertex
 10
20.85940579390569
 20
88.71475394375062
 30
0.0
  0
VERTEX
  5
82
330
4B
100
AcDbEntity
  8
_U_30EC_U_30A4_U_30E4_U_31
100
AcDbVertex
100
AcDb2dVertex
 10
19.71909419087817
 20
88.96539841435253
 30
0.0
  0
VERTEX
  5
83
330
4B
100
AcDbEntity
  8
_U_30EC_U_30A4_U_30E4_U_31
100
AcDbVertex
100
AcDb2dVertex
 10
18.62856150857125
 20
89.08869231528628
 30
0.0
  0
VERTEX
  5
84
330
4B
100
AcDbEntity
  8
_U_30EC_U_30A4_U_30E4_U_31
100
AcDbVertex
100
AcDb2dVertex
 10
17.60072237964274
 20
89.10593625798806
 30
0.0
  0
VERTEX
  5
85
330
4B
100
AcDbEntity
  8
_U_30EC_U_30A4_U_30E4_U_31
100
AcDbVertex
100
AcDb2dVertex
 10
16.6742942657995
 20
89.04314842972863
 30
0.0
  0
VERTEX
  5
86
330
4B
100
AcDbEntity
  8
_U_30EC_U_30A4_U_30E4_U_31
100
AcDbVertex
100
AcDb2dVertex
 10
15.82966498124991
 20
88.92168924880035
 30
0.0
  0
VERTEX
  5
87
330
4B
100
AcDbEntity
  8
_U_30EC_U_30A4_U_30E4_U_31
100
AcDbVertex
100
AcDb2dVertex
 10
15.07790031021609
 20
88.76130986053101
 30
0.0
  0
VERTEX
  5
88
330
4B
100
AcDbEntity
  8
_U_30EC_U_30A4_U_30E4_U_31
100
AcDbVertex
100
AcDb2dVertex
 10
14.43006603692181
 20
88.58176141025105
 30
0.0
  0
VERTEX
  5
89
330
4B
100
AcDbEntity
  8
_U_30EC_U_30A4_U_30E4_U_31
100
AcDbVertex
100
AcDb2dVertex
 10
13.89722794558952
 20
88.40279504328956
 30
0.0
  0
VERTEX
  5
8A
330
4B
100
AcDbEntity
  8
_U_30EC_U_30A4_U_30E4_U_31
100
AcDbVertex
100
AcDb2dVertex
 10
13.49045182044201
 20
88.24416190497567
 30
0.0
  0
VERTEX
  5
8B
330
4B
100
AcDbEntity
  8
_U_30EC_U_30A4_U_30E4_U_31
100
AcDbVertex
100
AcDb2dVertex
 10
13.2208034457024
 20
88.12561314063916
 30
0.0
  0
VERTEX
  5
8C
330
4B
100
AcDbEntity
  8
_U_30EC_U_30A4_U_30E4_U_31
100
AcDbVertex
100
AcDb2dVertex
 10
13.09934860559346
 20
88.06689989560911
 30
0.0
  0
VERTEX
  5
8D
330
4B
100
AcDbEntity
  8
_U_30EC_U_30A4_U_30E4_U_31
100
AcDbVertex
100
AcDb2dVertex
 10
13.06985059636344
 20
88.05239032512434
 30
0.0
  0
VERTEX
  5
8E
330
4B
100
AcDbEntity
  8
_U_30EC_U_30A4_U_30E4_U_31
100
AcDbVertex
100
AcDb2dVertex
 10
13.04128358971387
 20
88.0377852565945
 30
0.0
  0
VERTEX
  5
8F
330
4B
100
AcDbEntity
  8
_U_30EC_U_30A4_U_30E4_U_31
100
AcDbVertex
100
AcDb2dVertex
 10
13.01360624449986
 20
88.02305203051601
 30
0.0
  0
VERTEX
  5
90
330
4B
100
AcDbEntity
  8
_U_30EC_U_30A4_U_30E4_U_31
100
AcDbVertex
100
AcDb2dVertex
 10
12.98677721957651
 20
88.00815798738456
 30
0.0
  0
VERTEX
  5
91
330
4B
100
AcDbEntity
  8
_U_30EC_U_30A4_U_30E4_U_31
100
AcDbVertex
100
AcDb2dVertex
 10
12.96075517379955
 20
87.99307046769528
 30
0.0
  0
VERTEX
  5
92
330
4B
100
AcDbEntity
  8
_U_30EC_U_30A4_U_30E4_U_31
100
AcDbVertex
100
AcDb2dVertex
 10
12.93549876602346
 20
87.97775681194453
 30
0.0
  0
VERTEX
  5
93
330
4B
100
AcDbEntity
  8
_U_30EC_U_30A4_U_30E4_U_31
100
AcDbVertex
100
AcDb2dVertex
 10
12.91096665510428
 20
87.96218436062739
 30
0.0
  0
VERTEX
  5
94
330
4B
100
AcDbEntity
  8
_U_30EC_U_30A4_U_30E4_U_31
100
AcDbVertex
100
AcDb2dVertex
 10
12.88711749989682
 20
87.94632045423963
 30
0.0
  0
VERTEX
  5
95
330
4B
100
AcDbEntity
  8
_U_30EC_U_30A4_U_30E4_U_31
100
AcDbVertex
100
AcDb2dVertex
 10
12.8172040430216
 20
87.89549131002923
 30
0.0
  0
VERTEX
  5
96
330
4B
100
AcDbEntity
  8
_U_30EC_U_30A4_U_30E4_U_31
100
AcDbVertex
100
AcDb2dVertex
 10
12.75440415692857
 20
87.8413519803561
 30
0.0
  0
VERTEX
  5
97
330
4B
100
AcDbEntity
  8
_U_30EC_U_30A4_U_30E4_U_31
100
AcDbVertex
100
AcDb2dVertex
 10
12.69902169903158
 20
87.78414431091741
 30
0.0
  0
VERTEX
  5
98
330
4B
100
AcDbEntity
  8
_U_30EC_U_30A4_U_30E4_U_31
100
AcDbVertex
100
AcDb2dVertex
 10
12.65136052674481
 20
87.72411014741029
 30
0.0
  0
VERTEX
  5
99
330
4B
100
AcDbEntity
  8
_U_30EC_U_30A4_U_30E4_U_31
100
AcDbVertex
100
AcDb2dVertex
 10
12.61172449748275
 20
87.66149133553125
 30
0.0
  0
VERTEX
  5
9A
330
4B
100
AcDbEntity
  8
_U_30EC_U_30A4_U_30E4_U_31
100
AcDbVertex
100
AcDb2dVertex
 10
12.58041746865892
 20
87.59652972097808
 30
0.0
  0
VERTEX
  5
9B
330
4B
100
AcDbEntity
  8
_U_30EC_U_30A4_U_30E4_U_31
100
AcDbVertex
100
AcDb2dVertex
 10
12.55774329768784
 20
87.52946714944663
 30
0.0
  0
VERTEX
  5
9C
330
4B
100
AcDbEntity
  8
_U_30EC_U_30A4_U_30E4_U_31
100
AcDbVertex
100
AcDb2dVertex
 10
12.54400584198366
 20
87.46054546663406
 30
0.0
  0
VERTEX
  5
9D
330
4B
100
AcDbEntity
  8
_U_30EC_U_30A4_U_30E4_U_31
100
AcDbVertex
100
AcDb2dVertex
 10
12.53876474945251
 20
87.39164404098254
 30
0.0
  0
VERTEX
  5
9E
330
4B
100
AcDbEntity
  8
_U_30EC_U_30A4_U_30E4_U_31
100
AcDbVertex
100
AcDb2dVertex
 10
12.54163230905802
 20
87.3245248320832
 30
0.0
  0
VERTEX
  5
9F
330
4B
100
AcDbEntity
  8
_U_30EC_U_30A4_U_30E4_U_31
100
AcDbVertex
100
AcDb2dVertex
 10
12.55180071483164
 20
87.25929325985399
 30
0.0
  0
VERTEX
  5
A0
330
4B
100
AcDbEntity
  8
_U_30EC_U_30A4_U_30E4_U_31
100
AcDbVertex
100
AcDb2dVertex
 10
12.56846216080417
 20
87.19605474421479
 30
0.0
  0
VERTEX
  5
A1
330
4B
100
AcDbEntity
  8
_U_30EC_U_30A4_U_30E4_U_31
100
AcDbVertex
100
AcDb2dVertex
 10
12.59080884100642
 20
87.1349147050842
 30
0.0
  0
VERTEX
  5
A2
330
4B
100
AcDbEntity
  8
_U_30EC_U_30A4_U_30E4_U_31
100
AcDbVertex
100
AcDb2dVertex
 10
12.61803294947015
 20
87.07597856238144
 30
0.0
  0
VERTEX
  5
A3
330
4B
100
AcDbEntity
  8
_U_30EC_U_30A4_U_30E4_U_31
100
AcDbVertex
100
AcDb2dVertex
 10
12.64932668022553
 20
87.0193517360264
 30
0.0
  0
VERTEX
  5
A4
330
4B
100
AcDbEntity
  8
_U_30EC_U_30A4_U_30E4_U_31
100
AcDbVertex
100
AcDb2dVertex
 10
12.683882227304
 20
86.96513964593765
 30
0.0
  0
VERTEX
  5
A5
330
4B
100
AcDbEntity
  8
_U_30EC_U_30A4_U_30E4_U_31
100
AcDbVertex
100
AcDb2dVertex
 10
12.82902823054546
 20
86.78835960541737
 30
0.0
  0
VERTEX
  5
A6
330
4B
100
AcDbEntity
  8
_U_30EC_U_30A4_U_30E4_U_31
100
AcDbVertex
100
AcDb2dVertex
 10
12.99872095191085
 20
86.62742934639361
 30
0.0
  0
VERTEX
  5
A7
330
4B
100
AcDbEntity
  8
_U_30EC_U_30A4_U_30E4_U_31
100
AcDbVertex
100
AcDb2dVertex
 10
13.17958901153255
 20
86.48456930175269
 30
0.0
  0
VERTEX
  5
A8
330
4B
100
AcDbEntity
  8
_U_30EC_U_30A4_U_30E4_U_31
100
AcDbVertex
100
AcDb2dVertex
 10
13.35826102954361
 20
86.36199990438091
 30
0.0
  0
VERTEX
  5
A9
330
4B
100
AcDbEntity
  8
_U_30EC_U_30A4_U_30E4_U_31
100
AcDbVertex
100
AcDb2dVertex
 10
13.52136562607707
 20
86.26194158716396
 30
0.0
  0
VERTEX
  5
AA
330
4B
100
AcDbEntity
  8
_U_30EC_U_30A4_U_30E4_U_31
100
AcDbVertex
100
AcDb2dVertex
 10
13.65553142126532
 20
86.1866147829875
 30
0.0
  0
VERTEX
  5
AB
330
4B
100
AcDbEntity
  8
_U_30EC_U_30A4_U_30E4_U_31
100
AcDbVertex
100
AcDb2dVertex
 10
13.74738703524142
 20
86.13823992473785
 30
0.0
  0
VERTEX
  5
AC
330
4B
100
AcDbEntity
  8
_U_30EC_U_30A4_U_30E4_U_31
100
AcDbVertex
100
AcDb2dVertex
 10
13.78356108813774
 20
86.11903744530194
 30
0.0
  0
VERTEX
  5
AD
330
4B
100
AcDbEntity
  8
_U_30EC_U_30A4_U_30E4_U_31
100
AcDbVertex
100
AcDb2dVertex
 10
15.74043267780014
 20
85.07077608207113
 30
0.0
  0
VERTEX
  5
AE
330
4B
100
AcDbEntity
  8
_U_30EC_U_30A4_U_30E4_U_31
100
AcDbVertex
100
AcDb2dVertex
 10
17.50760144618125
 20
83.93532211038793
 30
0.0
  0
VERTEX
  5
AF
330
4B
100
AcDbEntity
  8
_U_30EC_U_30A4_U_30E4_U_31
100
AcDbVertex
100
AcDb2dVertex
 10
19.09154355210797
 20
82.74078172094191
 30
0.0
  0
VERTEX
  5
B0
330
4B
100
AcDbEntity
  8
_U_30EC_U_30A4_U_30E4_U_31
100
AcDbVertex
100
AcDb2dVertex
 10
20.49873515440847
 20
81.51526110442073
 30
0.0
  0
VERTEX
  5
B1
330
4B
100
AcDbEntity
  8
_U_30EC_U_30A4_U_30E4_U_31
100
AcDbVertex
100
AcDb2dVertex
 10
21.73565241190994
 20
80.28686645151527
 30
0.0
  0
VERTEX
  5
B2
330
4B
100
AcDbEntity
  8
_U_30EC_U_30A4_U_30E4_U_31
100
AcDbVertex
100
AcDb2dVertex
 10
22.80877148343961
 20
79.08370395291382
 30
0.0
  0
VERTEX
  5
B3
330
4B
100
AcDbEntity
  8
_U_30EC_U_30A4_U_30E4_U_31
100
AcDbVertex
100
AcDb2dVertex
 10
23.72456852782562
 20
77.93387979930532
 30
0.0
  0
VERTEX
  5
B4
330
4B
100
AcDbEntity
  8
_U_30EC_U_30A4_U_30E4_U_31
100
AcDbVertex
100
AcDb2dVertex
 10
24.48951970389487
 20
76.86550018137999
 30
0.0
  0
VERTEX
  5
B5
330
4B
100
AcDbEntity
  8
_U_30EC_U_30A4_U_30E4_U_31
100
AcDbVertex
100
AcDb2dVertex
 10
24.92862267500563
 20
76.1972747416947
 30
0.0
  0
VERTEX
  5
B6
330
4B
100
AcDbEntity
  8
_U_30EC_U_30A4_U_30E4_U_31
100
AcDbVertex
100
AcDb2dVertex
 10
25.30180760417859
 20
75.59001348713936
 30
0.0
  0
VERTEX
  5
B7
330
4B
100
AcDbEntity
  8
_U_30EC_U_30A4_U_30E4_U_31
100
AcDbVertex
100
AcDb2dVertex
 10
25.61139910398415
 20
75.05235594272122
 30
0.0
  0
VERTEX
  5
B8
330
4B
100
AcDbEntity
  8
_U_30EC_U_30A4_U_30E4_U_31
100
AcDbVertex
100
AcDb2dVertex
 10
25.85972178699366
 20
74.59294163344754
 30
0.0
  0
VERTEX
  5
B9
330
4B
100
AcDbEntity
  8
_U_30EC_U_30A4_U_30E4_U_31
100
AcDbVertex
100
AcDb2dVertex
 10
26.04910026577784
 20
74.22041008432429
 30
0.0
  0
VERTEX
  5
BA
330
4B
100
AcDbEntity
  8
_U_30EC_U_30A4_U_30E4_U_31
100
AcDbVertex
100
AcDb2dVertex
 10
26.18185915290708
 20
73.94340082035744
 30
0.0
  0
VERTEX
  5
BB
330
4B
100
AcDbEntity
  8
_U_30EC_U_30A4_U_30E4_U_31
100
AcDbVertex
100
AcDb2dVertex
 10
26.26032306095304
 20
73.77055336655552
 30
0.0
  0
VERTEX
  5
BC
330
4B
100
AcDbEntity
  8
_U_30EC_U_30A4_U_30E4_U_31
100
AcDbVertex
100
AcDb2dVertex
 10
26.28681660248645
 20
73.7105072479245
 30
0.0
  0
VERTEX
  5
BD
330
4B
100
AcDbEntity
  8
_U_30EC_U_30A4_U_30E4_U_31
100
AcDbVertex
100
AcDb2dVertex
 10
26.29134097737103
 20
73.69965436105575
 30
0.0
  0
VERTEX
  5
BE
330
4B
100
AcDbEntity
  8
_U_30EC_U_30A4_U_30E4_U_31
100
AcDbVertex
100
AcDb2dVertex
 10
26.2958653522556
 20
73.68880147418635
 30
0.0
  0
VERTEX
  5
BF
330
4B
100
AcDbEntity
  8
_U_30EC_U_30A4_U_30E4_U_31
100
AcDbVertex
100
AcDb2dVertex
 10
26.30038972714017
 20
73.6779485873176
 30
0.0
  0
VERTEX
  5
C0
330
4B
100
AcDbEntity
  8
_U_30EC_U_30A4_U_30E4_U_31
100
AcDbVertex
100
AcDb2dVertex
 10
26.30491410202475
 20
73.66709570044885
 30
0.0
  0
VERTEX
  5
C1
330
4B
100
AcDbEntity
  8
_U_30EC_U_30A4_U_30E4_U_31
100
AcDbVertex
100
AcDb2dVertex
 10
26.30943847690932
 20
73.6562428135801
 30
0.0
  0
VERTEX
  5
C2
330
4B
100
AcDbEntity
  8
_U_30EC_U_30A4_U_30E4_U_31
100
AcDbVertex
100
AcDb2dVertex
 10
26.3139628517939
 20
73.64538992671072
 30
0.0
  0
VERTEX
  5
C3
330
4B
100
AcDbEntity
  8
_U_30EC_U_30A4_U_30E4_U_31
100
AcDbVertex
100
AcDb2dVertex
 10
26.31848722667847
 20
73.63453703984196
 30
0.0
  0
VERTEX
  5
C4
330
4B
100
AcDbEntity
  8
_U_30EC_U_30A4_U_30E4_U_31
100
AcDbVertex
100
AcDb2dVertex
 10
26.32301160156304
 20
73.62368415297321
 30
0.0
  0
VERTEX
  5
C5
330
4B
100
AcDbEntity
  8
_U_30EC_U_30A4_U_30E4_U_31
100
AcDbVertex
100
AcDb2dVertex
 10
26.32301160156304
 20
73.62368415297321
 30
0.0
  0
SEQEND
  5
C7
330
4B
100
AcDbEntity
  8
_U_30EC_U_30A4_U_30E4_U_31
  0
HATCH
  5
C6
330
1F
100
AcDbEntity
  8
_U_30EC_U_30A4_U_30E4_U_31
 62
   152
100
AcDbHatch
 10
0.0
 20
0.0
 30
0.0
210
0.0
220
0.0
230
1.0
  2
SOLID
 70
     1
 71
     0
 91
        1
 92
        1
 93
      120
 72
     1
 10
26.32301160156304
 20
73.62368415297321
 11
26.33459594154528
 21
73.62135581969928
 72
     1
 10
26.33459594154528
 20
73.62135581969928
 11
26.34618028152752
 21
73.61902748642599
 72
     1
 10
26.34618028152752
 20
73.61902748642599
 11
26.35776462150976
 21
73.61669915315206
 72
     1
 10
26.35776462150976
 20
73.61669915315206
 11
26.36934896149199
 21
73.61437081987812
 72
     1
 10
26.36934896149199
 20
73.61437081987812
 11
26.38093330147423
 21
73.61204248660484
 72
     1
 10
26.38093330147423
 20
73.61204248660484
 11
26.39251764145646
 21
73.6097141533309
 72
     1
 10
26.39251764145646
 20
73.6097141533309
 11
26.4041019814387
 21
73.60738582005696
 72
     1
 10
26.4041019814387
 20
73.60738582005696
 11
26.41568632142094
 21
73.60505748678368
 72
     1
 10
26.41568632142094
 20
73.60505748678368
 11
26.83821314712157
 21
73.53914045477205
 72
     1
 10
26.83821314712157
 20
73.53914045477205
 11
27.231083075792
 21
73.51356756382944
 72
     1
 10
27.231083075792
 20
73.51356756382944
 11
27.59493400129679
 21
73.52463397797352
 72
     1
 10
27.59493400129679
 20
73.52463397797352
 11
27.9304038174995
 21
73.56863486122195
 72
     1
 10
27.9304038174995
 20
73.56863486122195
 11
28.23813041826436
 21
73.64186537759112
 72
     1
 10
28.23813041826436
 20
73.64186537759112
 11
28.51875169745465
 21
73.74062069109932
 72
     1
 10
28.51875169745465
 20
73.74062069109932
 11
28.77290554893522
 21
73.86119596576359
 72
     1
 10
28.77290554893522
 20
73.86119596576359
 11
29.00122986656934
 21
73.99988636560093
 72
     1
 10
29.00122986656934
 20
73.99988636560093
 11
29.00183427282054
 21
74.00031467032635
 72
     1
 10
29.00183427282054
 20
74.00031467032635
 11
29.00243867907174
 21
74.0007429750524
 72
     1
 10
29.00243867907174
 20
74.0007429750524
 11
29.00304308532294
 21
74.00117127977782
 72
     1
 10
29.00304308532294
 20
74.00117127977782
 11
29.00364749157414
 21
74.00159958450388
 72
     1
 10
29.00364749157414
 20
74.00159958450388
 11
29.00425189782534
 21
74.0020278892293
 72
     1
 10
29.00425189782534
 20
74.0020278892293
 11
29.00485630407654
 21
74.00245619395535
 72
     1
 10
29.00485630407654
 20
74.00245619395535
 11
29.00546071032774
 21
74.00288449868077
 72
     1
 10
29.00546071032774
 20
74.00288449868077
 11
29.00606511657894
 21
74.00331280340683
 72
     1
 10
29.00606511657894
 20
74.00331280340683
 11
29.31367206826847
 21
74.24717285950408
 72
     1
 10
29.31367206826847
 20
74.24717285950408
 11
29.56400228412571
 21
74.50699701944518
 72
     1
 10
29.56400228412571
 20
74.50699701944518
 11
29.76217418556752
 21
74.76812963539038
 72
     1
 10
29.76217418556752
 20
74.76812963539038
 11
29.91330619401139
 21
75.01591505950121
 72
     1
 10
29.91330619401139
 20
75.01591505950121
 11
30.02251673087484
 21
75.23569764393982
 72
     1
 10
30.02251673087484
 20
75.23569764393982
 11
30.09492421757536
 21
75.41282174086645
 72
     1
 10
30.09492421757536
 20
75.41282174086645
 11
30.1356470755298
 21
75.5326317024426
 72
     1
 10
30.1356470755298
 20
75.5326317024426
 11
30.14980372615566
 21
75.58047188083046
 72
     1
 10
30.14980372615566
 20
75.58047188083046
 11
30.39031286389994
 21
76.55547499796371
 72
     1
 10
30.39031286389994
 20
76.55547499796371
 11
30.42586666182113
 21
77.55534343389733
 72
     1
 10
30.42586666182113
 20
77.55534343389733
 11
30.29025654483819
 21
78.56121636724387
 72
     1
 10
30.29025654483819
 20
78.56121636724387
 11
30.01727393787012
 21
79.55423297661464
 72
     1
 10
30.01727393787012
 20
79.55423297661464
 11
29.64071026583652
 21
80.51553244062156
 72
     1
 10
29.64071026583652
 20
80.51553244062156
 11
29.19435695365606
 21
81.42625393787654
 72
     1
 10
29.19435695365606
 20
81.42625393787654
 11
28.71200542624836
 21
82.26753664699089
 72
     1
 10
28.71200542624836
 20
82.26753664699089
 11
28.2274471085324
 21
83.02051974657651
 72
     1
 10
28.2274471085324
 20
83.02051974657651
 11
27.95776547305663
 21
83.4070448430511
 72
     1
 10
27.95776547305663
 20
83.4070448430511
 11
27.70372290464968
 21
83.75437026604774
 72
     1
 10
27.70372290464968
 20
83.75437026604774
 11
27.47152918142249
 21
84.05875712243112
 72
     1
 10
27.47152918142249
 20
84.05875712243112
 11
27.26739408148596
 21
84.31646651906779
 72
     1
 10
27.26739408148596
 20
84.31646651906779
 11
27.09752738295101
 21
84.52375956282498
 72
     1
 10
27.09752738295101
 20
84.52375956282498
 11
26.96813886392825
 21
84.67689736056735
 72
     1
 10
26.96813886392825
 20
84.67689736056735
 11
26.8854383025289
 21
84.77214101916213
 72
     1
 10
26.8854383025289
 20
84.77214101916213
 11
26.85563547686357
 21
84.80575164547525
 72
     1
 10
26.85563547686357
 20
84.80575164547525
 11
25.6601487600864
 21
86.01265813595111
 72
     1
 10
25.6601487600864
 20
86.01265813595111
 11
24.44986780074496
 21
86.98571099958112
 72
     1
 10
24.44986780074496
 20
86.98571099958112
 11
23.23770723149641
 21
87.74621084780013
 72
     1
 10
23.23770723149641
 20
87.74621084780013
 11
22.0365816849976
 21
88.31545829204501
 72
     1
 10
22.0365816849976
 20
88.31545829204501
 11
20.85940579390569
 21
88.71475394375062
 72
     1
 10
20.85940579390569
 20
88.71475394375062
 11
19.71909419087817
 21
88.96539841435253
 72
     1
 10
19.71909419087817
 20
88.96539841435253
 11
18.62856150857125
 21
89.08869231528628
 72
     1
 10
18.62856150857125
 20
89.08869231528628
 11
17.60072237964274
 21
89.10593625798806
 72
     1
 10
17.60072237964274
 20
89.10593625798806
 11
16.6742942657995
 21
89.04314842972863
 72
     1
 10
16.6742942657995
 20
89.04314842972863
 11
15.82966498124991
 21
88.92168924880035
 72
     1
 10
15.82966498124991
 20
88.92168924880035
 11
15.07790031021609
 21
88.76130986053101
 72
     1
 10
15.07790031021609
 20
88.76130986053101
 11
14.43006603692181
 21
88.58176141025105
 72
     1
 10
14.43006603692181
 20
88.58176141025105
 11
13.89722794558952
 21
88.40279504328956
 72
     1
 10
13.89722794558952
 20
88.40279504328956
 11
13.49045182044201
 21
88.24416190497567
 72
     1
 10
13.49045182044201
 20
88.24416190497567
 11
13.2208034457024
 21
88.12561314063916
 72
     1
 10
13.2208034457024
 20
88.12561314063916
 11
13.09934860559346
 21
88.06689989560911
 72
     1
 10
13.09934860559346
 20
88.06689989560911
 11
13.06985059636344
 21
88.05239032512434
 72
     1
 10
13.06985059636344
 20
88.05239032512434
 11
13.04128358971387
 21
88.0377852565945
 72
     1
 10
13.04128358971387
 20
88.0377852565945
 11
13.01360624449986
 21
88.02305203051601
 72
     1
 10
13.01360624449986
 20
88.02305203051601
 11
12.98677721957651
 21
88.00815798738456
 72
     1
 10
12.98677721957651
 20
88.00815798738456
 11
12.96075517379955
 21
87.99307046769528
 72
     1
 10
12.96075517379955
 20
87.99307046769528
 11
12.93549876602346
 21
87.97775681194453
 72
     1
 10
12.93549876602346
 20
87.97775681194453
 11
12.91096665510428
 21
87.96218436062739
 72
     1
 10
12.91096665510428
 20
87.96218436062739
 11
12.88711749989682
 21
87.94632045423963
 72
     1
 10
12.88711749989682
 20
87.94632045423963
 11
12.8172040430216
 21
87.89549131002923
 72
     1
 10
12.8172040430216
 20
87.89549131002923
 11
12.75440415692857
 21
87.8413519803561
 72
     1
 10
12.75440415692857
 20
87.8413519803561
 11
12.69902169903158
 21
87.78414431091741
 72
     1
 10
12.69902169903158
 20
87.78414431091741
 11
12.65136052674481
 21
87.72411014741029
 72
     1
 10
12.65136052674481
 20
87.72411014741029
 11
12.61172449748275
 21
87.66149133553125
 72
     1
 10
12.61172449748275
 20
87.66149133553125
 11
12.58041746865892
 21
87.59652972097808
 72
     1
 10
12.58041746865892
 20
87.59652972097808
 11
12.55774329768784
 21
87.52946714944663
 72
     1
 10
12.55774329768784
 20
87.52946714944663
 11
12.54400584198366
 21
87.46054546663406
 72
     1
 10
12.54400584198366
 20
87.46054546663406
 11
12.53876474945251
 21
87.39164404098254
 72
     1
 10
12.53876474945251
 20
87.39164404098254
 11
12.54163230905802
 21
87.3245248320832
 72
     1
 10
12.54163230905802
 20
87.3245248320832
 11
12.55180071483164
 21
87.25929325985399
 72
     1
 10
12.55180071483164
 20
87.25929325985399
 11
12.56846216080417
 21
87.19605474421479
 72
     1
 10
12.56846216080417
 20
87.19605474421479
 11
12.59080884100642
 21
87.1349147050842
 72
     1
 10
12.59080884100642
 20
87.1349147050842
 11
12.61803294947015
 21
87.07597856238144
 72
     1
 10
12.61803294947015
 20
87.07597856238144
 11
12.64932668022553
 21
87.0193517360264
 72
     1
 10
12.64932668022553
 20
87.0193517360264
 11
12.683882227304
 21
86.96513964593765
 72
     1
 10
12.683882227304
 20
86.96513964593765
 11
12.82902823054546
 21
86.78835960541737
 72
     1
 10
12.82902823054546
 20
86.78835960541737
 11
12.99872095191085
 21
86.62742934639361
 72
     1
 10
12.99872095191085
 20
86.62742934639361
 11
13.17958901153255
 21
86.48456930175269
 72
     1
 10
13.17958901153255
 20
86.48456930175269
 11
13.35826102954361
 21
86.36199990438091
 72
     1
 10
13.35826102954361
 20
86.36199990438091
 11
13.52136562607707
 21
86.26194158716396
 72
     1
 10
13.52136562607707
 20
86.26194158716396
 11
13.65553142126532
 21
86.1866147829875
 72
     1
 10
13.65553142126532
 20
86.1866147829875
 11
13.74738703524142
 21
86.13823992473785
 72
     1
 10
13.74738703524142
 20
86.13823992473785
 11
13.78356108813774
 21
86.11903744530194
 72
     1
 10
13.78356108813774
 20
86.11903744530194
 11
15.74043267780014
 21
85.07077608207113
 72
     1
 10
15.74043267780014
 20
85.07077608207113
 11
17.50760144618125
 21
83.93532211038793
 72
     1
 10
17.50760144618125
 20
83.93532211038793
 11
19.09154355210797
 21
82.74078172094191
 72
     1
 10
19.09154355210797
 20
82.74078172094191
 11
20.49873515440847
 21
81.51526110442073
 72
     1
 10
20.49873515440847
 20
81.51526110442073
 11
21.73565241190994
 21
80.28686645151527
 72
     1
 10
21.73565241190994
 20
80.28686645151527
 11
22.80877148343961
 21
79.08370395291382
 72
     1
 10
22.80877148343961
 20
79.08370395291382
 11
23.72456852782562
 21
77.93387979930532
 72
     1
 10
23.72456852782562
 20
77.93387979930532
 11
24.48951970389487
 21
76.86550018137999
 72
     1
 10
24.48951970389487
 20
76.86550018137999
 11
24.92862267500563
 21
76.1972747416947
 72
     1
 10
24.92862267500563
 20
76.1972747416947
 11
25.30180760417859
 21
75.59001348713936
 72
     1
 10
25.30180760417859
 20
75.59001348713936
 11
25.61139910398415
 21
75.05235594272122
 72
     1
 10
25.61139910398415
 20
75.05235594272122
 11
25.85972178699366
 21
74.59294163344754
 72
     1
 10
25.85972178699366
 20
74.59294163344754
 11
26.04910026577784
 21
74.22041008432429
 72
     1
 10
26.04910026577784
 20
74.22041008432429
 11
26.18185915290708
 21
73.94340082035744
 72
     1
 10
26.18185915290708
 20
73.94340082035744
 11
26.26032306095304
 21
73.77055336655552
 72
     1
 10
26.26032306095304
 20
73.77055336655552
 11
26.28681660248645
 21
73.7105072479245
 72
     1
 10
26.28681660248645
 20
73.7105072479245
 11
26.29134097737103
 21
73.69965436105575
 72
     1
 10
26.29134097737103
 20
73.69965436105575
 11
26.2958653522556
 21
73.68880147418635
 72
     1
 10
26.2958653522556
 20
73.68880147418635
 11
26.30038972714017
 21
73.6779485873176
 72
     1
 10
26.30038972714017
 20
73.6779485873176
 11
26.30491410202475
 21
73.66709570044885
 72
     1
 10
26.30491410202475
 20
73.66709570044885
 11
26.30943847690932
 21
73.6562428135801
 72
     1
 10
26.30943847690932
 20
73.6562428135801
 11
26.3139628517939
 21
73.64538992671072
 72
     1
 10
26.3139628517939
 20
73.64538992671072
 11
26.31848722667847
 21
73.63453703984196
 72
     1
 10
26.31848722667847
 20
73.63453703984196
 11
26.32301160156304
 21
73.62368415297321
 97
        0
 75
     2
 76
     1
 98
        0
  0
ENDSEC
  0
SECTION
  2
OBJECTS
  0
DICTIONARY
  5
C
330
0
100
AcDbDictionary
  3
ACAD_GROUP
350
D
  3
ACAD_LAYOUT
350
1A
  3
ACAD_MATERIAL
350
3B
  3
ACAD_MLEADERSTYLE
350
EA
  3
ACAD_MLINESTYLE
350
17
  3
ACAD_PLOTSETTINGS
350
19
  3
ACAD_VISUALSTYLE
350
2A
  3
ACDBHEADERROUNDTRIPXREC
350
C8
  3
ACDBVARIABLEDICTIONARY
350
E8
  0
DICTIONARY
  5
D
102
{ACAD_REACTORS
330
C
102
}
330
C
100
AcDbDictionary
  0
DICTIONARY
  5
1A
102
{ACAD_REACTORS
330
C
102
}
330
C
100
AcDbDictionary
  0
DICTIONARY
  5
3B
102
{ACAD_REACTORS
330
C
102
}
330
C
100
AcDbDictionary
  3
BYBLOCK
350
3D
  3
BYLAYER
350
3C
  3
GLOBAL
350
3E
  0
DICTIONARY
  5
EA
102
{ACAD_REACTORS
330
C
102
}
330
C
100
AcDbDictionary
  0
DICTIONARY
  5
17
102
{ACAD_REACTORS
330
C
102
}
330
C
100
AcDbDictionary
  3
STANDARD
350
18
  0
DICTIONARY
  5
19
102
{ACAD_REACTORS
330
C
102
}
330
C
100
AcDbDictionary
  0
DICTIONARY
  5
2A
102
{ACAD_REACTORS
330
C
102
}
330
C
100
AcDbDictionary
  3
2DWIREFRAME
350
2F
  3
3DWIREFRAME
350
30
  3
3D_HIDDEN
350
31
  3
BASIC
350
32
  3
BRIGHTEN
350
36
  3
COLORCHANGE
350
3A
  3
CONCEPTUAL
350
34
  3
DIM
350
35
  3
FACEPATTERN
350
39
  3
FLAT
350
2B
  3
FLATWITHEDGES
350
2C
  3
GOURAUD
350
2D
  3
GOURAUDWITHEDGES
350
2E
  3
LINEPATTERN
350
38
  3
REALISTIC
350
33
  3
THICKEN
350
37
  0
DICTIONARY
  5
C8
102
{ACAD_REACTORS
330
C
102
}
330
C
100
AcDbDictionary
  3
CEPSNTYPE
350
D1
  3
DIMSTYLEDATA
350
E7
  3
FINGERPRINTGUID
350
D2
  3
HYPERLINKBASE
350
CB
  3
INSUNITS
350
D0
  3
LAYOUTDICT
350
CD
  3
LWETCUNION
350
CF
  3
PLOTSETDICT
350
CE
  3
PSVPSCALE
350
D4
  3
PUCSBASE
350
D7
  3
PUCSORGBACK
350
DD
  3
PUCSORGBOTTOM
350
D9
  3
PUCSORGFRONT
350
DC
  3
PUCSORGLEFT
350
DA
  3
PUCSORGRIGHT
350
DB
  3
PUCSORGTOP
350
D8
  3
PUCSORTHOREF
350
D5
  3
PUCSORTHOVIEW
350
D6
  3
STYLESHEET
350
CC
  3
TSTACKALIGN
350
C9
  3
TSTACKSIZE
350
CA
  3
UCSBASE
350
E0
  3
UCSORGBACK
350
E6
  3
UCSORGBOTTOM
350
E2
  3
UCSORGFRONT
350
E5
  3
UCSORGLEFT
350
E3
  3
UCSORGRIGHT
350
E4
  3
UCSORGTOP
350
E1
  3
UCSORTHOREF
350
DE
  3
UCSORTHOVIEW
350
DF
  3
VERSIONGUID
350
D3
  0
DICTIONARY
  5
E8
102
{ACAD_REACTORS
330
C
102
}
330
C
100
AcDbDictionary
  3
DIMASSOC
350
EB
  3
HIDETEXT
350
EC
  0
MATERIAL
  5
3D
102
{ACAD_REACTORS
330
3B
102
}
102
{ACAD_XDICTIONARY
360
EF
102
}
330
3B
100
AcDbMaterial
  1
ByBlock
  0
MATERIAL
  5
3C
102
{ACAD_REACTORS
330
3B
102
}
102
{ACAD_XDICTIONARY
360
ED
102
}
330
3B
100
AcDbMaterial
  1
ByLayer
  0
MATERIAL
  5
3E
102
{ACAD_REACTORS
330
3B
102
}
102
{ACAD_XDICTIONARY
360
F1
102
}
330
3B
100
AcDbMaterial
  1
Global
  0
MLINESTYLE
  5
18
102
{ACAD_REACTORS
330
17
102
}
330
17
100
AcDbMlineStyle
  2
Standard
 70
     0
  3

 62
   256
 51
90.0
 52
90.0
 71
     2
 49
0.5
 62
   256
  6
BYLAYER
 49
-0.5
 62
   256
  6
BYLAYER
  0
ACAD_PROXY_OBJECT
  5
2F
102
{ACAD_REACTORS
330
2A
102
}
330
2A
100
AcDbProxyObject
 90
      499
 91
      501
 93
      436
310
42CC9915DA5C99599C985B595049028333333333333E3BF0000000000000FB0107901411070040501600405405064090741402480A0340
1001
ACAD
1000
AcDbSavedByObjectVersion
1070
     0
  0
ACAD_PROXY_OBJECT
  5
30
102
{ACAD_REACTORS
330
2A
102
}
330
2A
100
AcDbProxyObject
 90
      499
 91
      501
 93
      436
310
42CCD915DA5C99599C985B595059028333333333333E3BF0000000000000FB0107901411070040501600405405064090741402480A0340
1001
ACAD
1000
AcDbSavedByObjectVersion
1070
     0
  0
ACAD_PROXY_OBJECT
  5
31
102
{ACAD_REACTORS
330
2A
102
}
330
2A
100
AcDbProxyObject
 90
      499
 91
      501
 93
      500
310
424CD108121A5919195B90640502408333333333333E3BF0000000000000FB01079024090700405020000000000001110200405405064090740C02480A0340
1001
ACAD
1000
AcDbSavedByObjectVersion
1070
     0
  0
ACAD_PROXY_OBJECT
  5
32
102
{ACAD_REACTORS
330
2A
102
}
330
2A
100
AcDbProxyObject
 90
      499
 91
      501
 93
      388
310
4150985CDA58D07406404333333333333E3BF0000000000000FB0107A41107004050150841D405064090741402480A0350
1001
ACAD
1000
AcDbSavedByObjectVersion
1070
     0
  0
ACAD_PROXY_OBJECT
  5
36
102
{ACAD_REACTORS
330
2A
102
}
330
2A
100
AcDbProxyObject
 90
      499
 91
      501
 93
      428
310
42109C9A59DA1D195B90C409028333333333333E3BF0000000000000FB010790141107004050150841D405064090741402480A029950
1001
ACAD
1000
AcDbSavedByObjectVersion
1070
     0
  0
ACAD_PROXY_OBJECT
  5
3A
102
{ACAD_REACTORS
330
2A
102
}
330
2A
100
AcDbProxyObject
 90
      499
 91
      501
 93
      452
310
42D0DBDB1BDC90DA185B99D95104090240C333333333333E3BF0000000000000FB0108901411070040501508421405064090741402480A0350
1001
ACAD
1000
AcDbSavedByObjectVersion
1070
     0
  0
ACAD_PROXY_OBJECT
  5
34
102
{ACAD_REACTORS
330
2A
102
}
330
2A
100
AcDbProxyObject
 90
      499
 91
      501
 93
      500
310
4290DBDB98D95C1D1D585B10940D028333333333333E3BF0000000000000FB0107902409070040501000000000000111010841D405064090740C02480A0340
1001
ACAD
1000
AcDbSavedByObjectVersion
1070
     0
  0
ACAD_PROXY_OBJECT
  5
35
102
{ACAD_REACTORS
330
2A
102
}
330
2A
100
AcDbProxyObject
 90
      499
 91
      501
 93
      412
310
40D11A5B50B409028333333333333E3BF0000000000000FB010790141107004050150841D405064090741402480A02677FFFFFD0
1001
ACAD
1000
AcDbSavedByObjectVersion
1070
     0
  0
ACAD_PROXY_OBJECT
  5
39
102
{ACAD_REACTORS
330
2A
102
}
330
2A
100
AcDbProxyObject
 90
      499
 91
      501
 93
      444
310
42D19858D95C185D1D195C9B90F409028333333333333E3BF0000000000000FB010790141107004050150841D405064090741402480A0350
1001
ACAD
1000
AcDbSavedByObjectVersion
1070
     0
  0
ACAD_PROXY_OBJECT
  5
2B
102
{ACAD_REACTORS
330
2A
102
}
330
2A
100
AcDbProxyObject
 90
      499
 91
      501
 93
      388
310
41119B185D240901404333333333333E3BF0000000000000F9010740A41107004050150841D405064090741402480A1B50
1001
ACAD
1000
AcDbSavedByObjectVersion
1070
     0
  0
ACAD_PROXY_OBJECT
  5
2C
102
{ACAD_REACTORS
330
2A
102
}
330
2A
100
AcDbProxyObject
 90
      499
 91
      501
 93
      476
310
43519B185D15DA5D1A115919D95CD0140901404333333333333E3BF0000000000000F9010740901411070040501600405405064090741402480A1B50
1001
ACAD
1000
AcDbSavedByObjectVersion
1070
     0
  0
ACAD_PROXY_OBJECT
  5
2D
102
{ACAD_REACTORS
330
2A
102
}
330
2A
100
AcDbProxyObject
 90
      499
 91
      501
 93
      412
310
41D1DBDD5C985D5910240902404333333333333E3BF0000000000000F9010740A411070040501641D405064090741402480A1B50
1001
ACAD
1000
AcDbSavedByObjectVersion
1070
     0
  0
ACAD_PROXY_OBJECT
  5
2E
102
{ACAD_REACTORS
330
2A
102
}
330
2A
100
AcDbProxyObject
 90
      499
 91
      501
 93
      500
310
4411DBDD5C985D5915DA5D1A115919D95CD0340902404333333333333E3BF0000000000000F9010740901411070040501600405405064090741402480A1B50
1001
ACAD
1000
AcDbSavedByObjectVersion
1070
     0
  0
ACAD_PROXY_OBJECT
  5
38
102
{ACAD_REACTORS
330
2A
102
}
330
2A
100
AcDbProxyObject
 90
      499
 91
      501
 93
      444
310
42D31A5B995C185D1D195C9B90E409028333333333333E3BF0000000000000FB010790141107004050750841D405064090741402483A0350
1001
ACAD
1000
AcDbSavedByObjectVersion
1070
     0
  0
ACAD_PROXY_OBJECT
  5
33
102
{ACAD_REACTORS
330
2A
102
}
330
2A
100
AcDbProxyObject
 90
      499
 91
      501
 93
      420
310
425499585B1A5CDD1A58D08409028333333333333E3BF0000000000000FB01079019070040501508421405064090741402480A1B40
1001
ACAD
1000
AcDbSavedByObjectVersion
1070
     0
  0
ACAD_PROXY_OBJECT
  5
37
102
{ACAD_REACTORS
330
2A
102
}
330
2A
100
AcDbProxyObject
 90
      499
 91
      501
 93
      412
310
41D51A1A58DAD95B90D409028333333333333E3BF0000000000000FB010790141107004050150C41D405064090741402480A0350
1001
ACAD
1000
AcDbSavedByObjectVersion
1070
     0
  0
XRECORD
  5
D1
102
{ACAD_REACTORS
330
C8
102
}
330
C8
100
AcDbXrecord
 90
        0
  0
XRECORD
  5
E7
102
{ACAD_REACTORS
330
C8
102
}
330
C8
100
AcDbXrecord
1000
DSTYLE
1002
{
1070
   340
340
11
1002
}
  0
XRECORD
  5
D2
102
{ACAD_REACTORS
330
C8
102
}
330
C8
100
AcDbXrecord
  1
{7470EF0C-9420-44EA-62CB-0328250B26A1}
  0
XRECORD
  5
CB
102
{ACAD_REACTORS
330
C8
102
}
330
C8
100
AcDbXrecord
  1

  0
XRECORD
  5
D0
102
{ACAD_REACTORS
330
C8
102
}
330
C8
100
AcDbXrecord
 90
        4
  0
XRECORD
  5
CD
102
{ACAD_REACTORS
330
C8
102
}
330
C8
100
AcDbXrecord
340
1A
  0
XRECORD
  5
CF
102
{ACAD_REACTORS
330
C8
102
}
330
C8
100
AcDbXrecord
 90
    10269
  0
XRECORD
  5
CE
102
{ACAD_REACTORS
330
C8
102
}
330
C8
100
AcDbXrecord
340
19
  0
XRECORD
  5
D4
102
{ACAD_REACTORS
330
C8
102
}
330
C8
100
AcDbXrecord
 40
0.0
  0
XRECORD
  5
D7
102
{ACAD_REACTORS
330
C8
102
}
330
C8
100
AcDbXrecord
340
0
  0
XRECORD
  5
DD
102
{ACAD_REACTORS
330
C8
102
}
330
C8
100
AcDbXrecord
 10
0.0
 20
0.0
 30
0.0
  0
XRECORD
  5
D9
102
{ACAD_REACTORS
330
C8
102
}
330
C8
100
AcDbXrecord
 10
0.0
 20
0.0
 30
0.0
  0
XRECORD
  5
DC
102
{ACAD_REACTORS
330
C8
102
}
330
C8
100
AcDbXrecord
 10
0.0
 20
0.0
 30
0.0
  0
XRECORD
  5
DA
102
{ACAD_REACTORS
330
C8
102
}
330
C8
100
AcDbXrecord
 10
0.0
 20
0.0
 30
0.0
  0
XRECORD
  5
DB
102
{ACAD_REACTORS
330
C8
102
}
330
C8
100
AcDbXrecord
 10
0.0
 20
0.0
 30
0.0
  0
XRECORD
  5
D8
102
{ACAD_REACTORS
330
C8
102
}
330
C8
100
AcDbXrecord
 10
0.0
 20
0.0
 30
0.0
  0
XRECORD
  5
D5
102
{ACAD_REACTORS
330
C8
102
}
330
C8
100
AcDbXrecord
340
0
  0
XRECORD
  5
D6
102
{ACAD_REACTORS
330
C8
102
}
330
C8
100
AcDbXrecord
 70
     0
  0
XRECORD
  5
CC
102
{ACAD_REACTORS
330
C8
102
}
330
C8
100
AcDbXrecord
  1

  0
XRECORD
  5
C9
102
{ACAD_REACTORS
330
C8
102
}
330
C8
100
AcDbXrecord
 90
        1
  0
XRECORD
  5
CA
102
{ACAD_REACTORS
330
C8
102
}
330
C8
100
AcDbXrecord
 90
       70
  0
XRECORD
  5
E0
102
{ACAD_REACTORS
330
C8
102
}
330
C8
100
AcDbXrecord
340
0
  0
XRECORD
  5
E6
102
{ACAD_REACTORS
330
C8
102
}
330
C8
100
AcDbXrecord
 10
0.0
 20
0.0
 30
0.0
  0
XRECORD
  5
E2
102
{ACAD_REACTORS
330
C8
102
}
330
C8
100
AcDbXrecord
 10
0.0
 20
0.0
 30
0.0
  0
XRECORD
  5
E5
102
{ACAD_REACTORS
330
C8
102
}
330
C8
100
AcDbXrecord
 10
0.0
 20
0.0
 30
0.0
  0
XRECORD
  5
E3
102
{ACAD_REACTORS
330
C8
102
}
330
C8
100
AcDbXrecord
 10
0.0
 20
0.0
 30
0.0
  0
XRECORD
  5
E4
102
{ACAD_REACTORS
330
C8
102
}
330
C8
100
AcDbXrecord
 10
0.0
 20
0.0
 30
0.0
  0
XRECORD
  5
E1
102
{ACAD_REACTORS
330
C8
102
}
330
C8
100
AcDbXrecord
 10
0.0
 20
0.0
 30
0.0
  0
XRECORD
  5
DE
102
{ACAD_REACTORS
330
C8
102
}
330
C8
100
AcDbXrecord
340
0
  0
XRECORD
  5
DF
102
{ACAD_REACTORS
330
C8
102
}
330
C8
100
AcDbXrecord
 70
     0
  0
XRECORD
  5
D3
102
{ACAD_REACTORS
330
C8
102
}
330
C8
100
AcDbXrecord
  1
{FAEB1C32-E019-11D5-929B-00C0DF256EC4}
  0
DICTIONARYVAR
  5
EB
102
{ACAD_REACTORS
330
E8
102
}
330
E8
100
DictionaryVariables
280
     0
  1
2
  0
DICTIONARYVAR
  5
EC
102
{ACAD_REACTORS
330
E8
102
}
330
E8
100
DictionaryVariables
280
     0
  1
1
  0
DICTIONARY
  5
EF
330
3D
100
AcDbDictionary
280
     1
  3
ACAD_XREC_ROUNDTRIP
360
F0
  0
DICTIONARY
  5
ED
330
3C
100
AcDbDictionary
280
     1
  3
ACAD_XREC_ROUNDTRIP
360
EE
  0
DICTIONARY
  5
F1
330
3E
100
AcDbDictionary
280
     1
  3
ACAD_XREC_ROUNDTRIP
360
F2
  0
XRECORD
  5
F0
102
{ACAD_REACTORS
330
EF
102
}
330
EF
100
AcDbXrecord
102
MATERIAL
148
0.0
149
0.0
149
0.0
 93
        0
 94
      127
282
     0
 72
     1
 77
     1
171
     1
175
     1
179
     1
273
     0
  0
XRECORD
  5
EE
102
{ACAD_REACTORS
330
ED
102
}
330
ED
100
AcDbXrecord
102
MATERIAL
148
0.0
149
0.0
149
0.0
 93
        0
 94
      127
282
     0
 72
     1
 77
     1
171
     1
175
     1
179
     1
273
     0
  0
XRECORD
  5
F2
102
{ACAD_REACTORS
330
F1
102
}
330
F1
100
AcDbXrecord
102
MATERIAL
148
0.0
149
0.0
149
0.0
 93
        0
 94
      127
282
     0
 72
     1
 77
     1
171
     1
175
     1
179
     1
273
     0
  0
ENDSEC
  0
EOF
