  0
SECTION
  2
HEADER
  9
$ACADVER
  1
AC1014
  9
$ACADMAINTVER
 70
     9
  9
$DWGCODEPAGE
  3
UNDEFINED
  9
$INSBASE
 10
0.0
 20
0.0
 30
0.0
  9
$EXTMIN
 10
1.000000000000000E+20
 20
1.000000000000000E+20
 30
1.000000000000000E+20
  9
$EXTMAX
 10
-1.000000000000000E+20
 20
-1.000000000000000E+20
 30
-1.000000000000000E+20
  9
$LIMMIN
 10
0.0
 20
0.0
  9
$LIMMAX
 10
12.0
 20
9.0
  9
$ORTHOMODE
 70
     0
  9
$REGENMODE
 70
     1
  9
$FILLMODE
 70
     1
  9
$QTEXTMODE
 70
     0
  9
$MIRRTEXT
 70
     1
  9
$DRAGMODE
 70
     2
  9
$LTSCALE
 40
1.0
  9
$OSMODE
 70
    37
  9
$ATTMODE
 70
     1
  9
$TEXTSIZE
 40
0.2
  9
$TRACEWID
 40
0.05
  9
$TEXTSTYLE
  7
STANDARD
  9
$CLAYER
  8
0
  9
$CELTYPE
  6
BYLAYER
  9
$CECOLOR
 62
   256
  9
$CELTSCALE
 40
1.0
  9
$DELOBJ
 70
     1
  9
$DISPSILH
 70
     0
  9
$DIMSCALE
 40
1.0
  9
$DIMASZ
 40
0.18
  9
$DIMEXO
 40
0.0625
  9
$DIMDLI
 40
0.38
  9
$DIMRND
 40
0.0
  9
$DIMDLE
 40
0.0
  9
$DIMEXE
 40
0.18
  9
$DIMTP
 40
0.0
  9
$DIMTM
 40
0.0
  9
$DIMTXT
 40
0.18
  9
$DIMCEN
 40
0.09
  9
$DIMTSZ
 40
0.0
  9
$DIMTOL
 70
     0
  9
$DIMLIM
 70
     0
  9
$DIMTIH
 70
     1
  9
$DIMTOH
 70
     1
  9
$DIMSE1
 70
     0
  9
$DIMSE2
 70
     0
  9
$DIMTAD
 70
     0
  9
$DIMZIN
 70
     0
  9
$DIMBLK
  1

  9
$DIMASO
 70
     1
  9
$DIMSHO
 70
     1
  9
$DIMPOST
  1

  9
$DIMAPOST
  1

  9
$DIMALT
 70
     0
  9
$DIMALTD
 70
     2
  9
$DIMALTF
 40
25.4
  9
$DIMLFAC
 40
1.0
  9
$DIMTOFL
 70
     0
  9
$DIMTVP
 40
0.0
  9
$DIMTIX
 70
     0
  9
$DIMSOXD
 70
     0
  9
$DIMSAH
 70
     0
  9
$DIMBLK1
  1

  9
$DIMBLK2
  1

  9
$DIMSTYLE
  2
STANDARD
  9
$DIMCLRD
 70
     0
  9
$DIMCLRE
 70
     0
  9
$DIMCLRT
 70
     0
  9
$DIMTFAC
 40
1.0
  9
$DIMGAP
 40
0.09
  9
$DIMJUST
 70
     0
  9
$DIMSD1
 70
     0
  9
$DIMSD2
 70
     0
  9
$DIMTOLJ
 70
     1
  9
$DIMTZIN
 70
     0
  9
$DIMALTZ
 70
     0
  9
$DIMALTTZ
 70
     0
  9
$DIMFIT
 70
     3
  9
$DIMUPT
 70
     0
  9
$DIMUNIT
 70
     2
  9
$DIMDEC
 70
     4
  9
$DIMTDEC
 70
     4
  9
$DIMALTU
 70
     2
  9
$DIMALTTD
 70
     2
  9
$DIMTXSTY
  7
STANDARD
  9
$DIMAUNIT
 70
     0
  9
$LUNITS
 70
     2
  9
$LUPREC
 70
     4
  9
$SKETCHINC
 40
0.1
  9
$FILLETRAD
 40
0.5
  9
$AUNITS
 70
     0
  9
$AUPREC
 70
     0
  9
$MENU
  1
.
  9
$ELEVATION
 40
0.0
  9
$PELEVATION
 40
0.0
  9
$THICKNESS
 40
0.0
  9
$LIMCHECK
 70
     0
  9
$CHAMFERA
 40
0.5
  9
$CHAMFERB
 40
0.5
  9
$CHAMFERC
 40
1.0
  9
$CHAMFERD
 40
0.0
  9
$SKPOLY
 70
     0
  9
$TDCREATE
 40
2458968.636319445
  9
$TDUPDATE
 40
2458968.636319445
  9
$TDINDWG
 40
0.0000000116
  9
$TDUSRTIMER
 40
0.0000000116
  9
$USRTIMER
 70
     1
  9
$ANGBASE
 50
0.0
  9
$ANGDIR
 70
     0
  9
$PDMODE
 70
     0
  9
$PDSIZE
 40
0.0
  9
$PLINEWID
 40
0.0
  9
$COORDS
 70
     1
  9
$SPLFRAME
 70
     0
  9
$SPLINETYPE
 70
     6
  9
$SPLINESEGS
 70
     8
  9
$ATTDIA
 70
     0
  9
$ATTREQ
 70
     1
  9
$HANDLING
 70
     1
  9
$HANDSEED
  5
EB
  9
$SURFTAB1
 70
     6
  9
$SURFTAB2
 70
     6
  9
$SURFTYPE
 70
     6
  9
$SURFU
 70
     6
  9
$SURFV
 70
     6
  9
$UCSNAME
  2

  9
$UCSORG
 10
0.0
 20
0.0
 30
0.0
  9
$UCSXDIR
 10
1.0
 20
0.0
 30
0.0
  9
$UCSYDIR
 10
0.0
 20
1.0
 30
0.0
  9
$PUCSNAME
  2

  9
$PUCSORG
 10
0.0
 20
0.0
 30
0.0
  9
$PUCSXDIR
 10
1.0
 20
0.0
 30
0.0
  9
$PUCSYDIR
 10
0.0
 20
1.0
 30
0.0
  9
$USERI1
 70
     0
  9
$USERI2
 70
     0
  9
$USERI3
 70
     0
  9
$USERI4
 70
     0
  9
$USERI5
 70
     0
  9
$USERR1
 40
0.0
  9
$USERR2
 40
0.0
  9
$USERR3
 40
0.0
  9
$USERR4
 40
0.0
  9
$USERR5
 40
0.0
  9
$WORLDVIEW
 70
     1
  9
$SHADEDGE
 70
     3
  9
$SHADEDIF
 70
    70
  9
$TILEMODE
 70
     1
  9
$MAXACTVP
 70
    64
  9
$PINSBASE
 10
0.0
 20
0.0
 30
0.0
  9
$PLIMCHECK
 70
     0
  9
$PEXTMIN
 10
1.000000000000000E+20
 20
1.000000000000000E+20
 30
1.000000000000000E+20
  9
$PEXTMAX
 10
-1.000000000000000E+20
 20
-1.000000000000000E+20
 30
-1.000000000000000E+20
  9
$PLIMMIN
 10
0.0
 20
0.0
  9
$PLIMMAX
 10
12.0
 20
9.0
  9
$UNITMODE
 70
     0
  9
$VISRETAIN
 70
     1
  9
$PLINEGEN
 70
     0
  9
$PSLTSCALE
 70
     1
  9
$TREEDEPTH
 70
  3020
  9
$PICKSTYLE
 70
     1
  9
$CMLSTYLE
  2
STANDARD
  9
$CMLJUST
 70
     0
  9
$CMLSCALE
 40
1.0
  9
$PROXYGRAPHICS
 70
     1
  9
$MEASUREMENT
 70
     0
  0
ENDSEC
  0
SECTION
  2
CLASSES
  0
CLASS
  1
ACDBDICTIONARYWDFLT
  2
AcDbDictionaryWithDefault
  3
ObjectDBX Classes
 90
        0
280
     0
281
     0
  0
CLASS
  1
VISUALSTYLE
  2
AcDbVisualStyle
  3
ObjectDBX Classes
 90
     4095
280
     0
281
     0
  0
CLASS
  1
MATERIAL
  2
AcDbMaterial
  3
ObjectDBX Classes
 90
     1153
280
     0
281
     0
  0
CLASS
  1
SUN
  2
AcDbSun
  3
SCENEOE
 90
     1024
280
     0
281
     0
  0
CLASS
  1
DICTIONARYVAR
  2
AcDbDictionaryVar
  3
ObjectDBX Classes
 90
        0
280
     0
281
     0
  0
CLASS
  1
XRECORD
  2
AcDbXrecord
  3
AutoCAD 2000
 90
        0
280
     0
281
     0
  0
CLASS
  1
LWPOLYLINE
  2
AcDbPolyline
  3
AutoCAD 2000
 90
        0
280
     0
281
     1
  0
CLASS
  1
HATCH
  2
AcDbHatch
  3
AutoCAD 2000
 90
        0
280
     0
281
     1
  0
CLASS
  1
ACDBPLACEHOLDER
  2
AcDbPlaceHolder
  3
ObjectDBX Classes
 90
        0
280
     0
281
     0
  0
CLASS
  1
LAYOUT
  2
AcDbLayout
  3
ObjectDBX Classes
 90
        0
280
     0
281
     0
  0
ENDSEC
  0
SECTION
  2
TABLES
  0
TABLE
  2
VPORT
  5
8
330
0
100
AcDbSymbolTable
 70
     1
  0
VPORT
  5
29
330
8
100
AcDbSymbolTableRecord
100
AcDbViewportTableRecord
  2
*ACTIVE
 70
     0
 10
0.0
 20
0.0
 11
1.0
 21
1.0
 12
0.0
 22
0.0
 13
0.0
 23
0.0
 14
0.5
 24
0.5
 15
0.5
 25
0.5
 16
0.0
 26
0.0
 36
1.0
 17
104.9999989878935
 27
148.4996183011652
 37
0.0
 40
297.0000052006764
 41
0.7070706878738762
 42
50.0
 43
0.0
 44
0.0
 50
0.0
 51
0.0
 71
     0
 72
   100
 73
     1
 74
     3
 75
     0
 76
     0
 77
     0
 78
     0
  0
ENDTAB
  0
TABLE
  2
LTYPE
  5
5
330
0
100
AcDbSymbolTable
 70
     1
  0
LTYPE
  5
14
330
5
100
AcDbSymbolTableRecord
100
AcDbLinetypeTableRecord
  2
BYBLOCK
 70
     0
  3

 72
    65
 73
     0
 40
0.0
  0
LTYPE
  5
15
330
5
100
AcDbSymbolTableRecord
100
AcDbLinetypeTableRecord
  2
BYLAYER
 70
     0
  3

 72
    65
 73
     0
 40
0.0
  0
LTYPE
  5
16
330
5
100
AcDbSymbolTableRecord
100
AcDbLinetypeTableRecord
  2
CONTINUOUS
 70
     0
  3
Solid line
 72
    65
 73
     0
 40
0.0
  0
ENDTAB
  0
TABLE
  2
LAYER
  5
2
330
0
100
AcDbSymbolTable
 70
    12
  0
LAYER
  5
10
330
2
100
AcDbSymbolTableRecord
100
AcDbLayerTableRecord
  2
0
 70
     0
 62
     7
  6
CONTINUOUS
  0
LAYER
  5
40
330
2
100
AcDbSymbolTableRecord
100
AcDbLayerTableRecord
  2
OUTLINE
 70
     5
 62
     7
  6
CONTINUOUS
  0
LAYER
  5
41
330
2
100
AcDbSymbolTableRecord
100
AcDbLayerTableRecord
  2
OUTLINE_U_306E_U_30B3_U_30
 70
     4
 62
     7
  6
CONTINUOUS
  0
LAYER
  5
42
330
2
100
AcDbSymbolTableRecord
100
AcDbLayerTableRecord
  2
L2-SILK
 70
     5
 62
     7
  6
CONTINUOUS
  0
LAYER
  5
43
330
2
100
AcDbSymbolTableRecord
100
AcDbLayerTableRecord
  2
L2-PATTERN
 70
     5
 62
     7
  6
CONTINUOUS
  0
LAYER
  5
44
330
2
100
AcDbSymbolTableRecord
100
AcDbLayerTableRecord
  2
L2-RESIST
 70
     5
 62
     7
  6
CONTINUOUS
  0
LAYER
  5
45
330
2
100
AcDbSymbolTableRecord
100
AcDbLayerTableRecord
  2
L1-PATTERN
 70
     5
 62
     7
  6
CONTINUOUS
  0
LAYER
  5
46
330
2
100
AcDbSymbolTableRecord
100
AcDbLayerTableRecord
  2
L1-RESIST
 70
     5
 62
     7
  6
CONTINUOUS
  0
LAYER
  5
47
330
2
100
AcDbSymbolTableRecord
100
AcDbLayerTableRecord
  2
L1-SILK
 70
     5
 62
     7
  6
CONTINUOUS
  0
LAYER
  5
48
330
2
100
AcDbSymbolTableRecord
100
AcDbLayerTableRecord
  2
DRILL
 70
     5
 62
     7
  6
CONTINUOUS
  0
LAYER
  5
49
330
2
100
AcDbSymbolTableRecord
100
AcDbLayerTableRecord
  2
HANE
 70
     0
 62
     7
  6
CONTINUOUS
  0
LAYER
  5
4A
330
2
100
AcDbSymbolTableRecord
100
AcDbLayerTableRecord
  2
L2-RESIST_U_306E_U_30B3_U_
 70
     0
 62
     7
  6
CONTINUOUS
  0
ENDTAB
  0
TABLE
  2
STYLE
  5
3
330
0
100
AcDbSymbolTable
 70
     1
  0
STYLE
  5
11
330
3
100
AcDbSymbolTableRecord
100
AcDbTextStyleTableRecord
  2
STANDARD
 70
     0
 40
0.0
 41
1.0
 50
0.0
 71
     0
 42
0.2
  3
txt
  4

  0
ENDTAB
  0
TABLE
  2
VIEW
  5
6
330
0
100
AcDbSymbolTable
 70
     0
  0
ENDTAB
  0
TABLE
  2
UCS
  5
7
330
0
100
AcDbSymbolTable
 70
     0
  0
ENDTAB
  0
TABLE
  2
APPID
  5
9
330
0
100
AcDbSymbolTable
 70
     1
  0
APPID
  5
12
330
9
100
AcDbSymbolTableRecord
100
AcDbRegAppTableRecord
  2
ACAD
 70
     0
  0
ENDTAB
  0
TABLE
  2
DIMSTYLE
  5
A
330
0
100
AcDbSymbolTable
 70
     1
  0
DIMSTYLE
105
27
330
A
100
AcDbSymbolTableRecord
100
AcDbDimStyleTableRecord
  2
STANDARD
 70
     0
  3

  4

  5

  6

  7

 40
1.0
 41
0.18
 42
0.0625
 43
0.38
 44
0.18
 45
0.0
 46
0.0
 47
0.0
 48
0.0
140
0.18
141
0.09
142
0.0
143
25.4
144
1.0
145
0.0
146
1.0
147
0.09
 71
     0
 72
     0
 73
     1
 74
     1
 75
     0
 76
     0
 77
     0
 78
     0
170
     0
171
     2
172
     0
173
     0
174
     0
175
     0
176
     0
177
     0
178
     0
270
     2
271
     4
272
     4
273
     2
274
     2
340
11
275
     0
280
     0
281
     0
282
     0
283
     1
284
     0
285
     0
286
     0
287
     3
288
     0
  0
ENDTAB
  0
TABLE
  2
BLOCK_RECORD
  5
1
330
0
100
AcDbSymbolTable
 70
     1
  0
BLOCK_RECORD
  5
1F
330
1
100
AcDbSymbolTableRecord
100
AcDbBlockTableRecord
  2
*MODEL_SPACE
  0
BLOCK_RECORD
  5
1B
330
1
100
AcDbSymbolTableRecord
100
AcDbBlockTableRecord
  2
*PAPER_SPACE
  0
ENDTAB
  0
ENDSEC
  0
SECTION
  2
BLOCKS
  0
BLOCK
  5
20
330
1F
100
AcDbEntity
  8
0
100
AcDbBlockBegin
  2
*MODEL_SPACE
 70
     0
 10
0.0
 20
0.0
 30
0.0
  3
*MODEL_SPACE
  1

  0
ENDBLK
  5
21
330
1F
100
AcDbEntity
  8
0
100
AcDbBlockEnd
  0
BLOCK
  5
1C
330
1B
100
AcDbEntity
 67
     1
  8
0
100
AcDbBlockBegin
  2
*PAPER_SPACE
 70
     0
 10
0.0
 20
0.0
 30
0.0
  3
*PAPER_SPACE
  1

  0
ENDBLK
  5
1D
330
1B
100
AcDbEntity
 67
     1
  8
0
100
AcDbBlockEnd
  0
ENDSEC
  0
SECTION
  2
ENTITIES
  0
POLYLINE
  5
4B
330
1F
100
AcDbEntity
  8
L2-RESIST_U_306E_U_30B3_U_
100
AcDb2dPolyline
 66
     1
 10
0.0
 20
0.0
 30
0.0
  0
VERTEX
  5
4C
330
4B
100
AcDbEntity
  8
L2-RESIST_U_306E_U_30B3_U_
100
AcDbVertex
100
AcDb2dVertex
 10
19.20459122761352
 20
34.69271709063066
 30
0.0
  0
VERTEX
  5
4D
330
4B
100
AcDbEntity
  8
L2-RESIST_U_306E_U_30B3_U_
100
AcDbVertex
100
AcDb2dVertex
 10
19.32464322487627
 20
34.69605256309299
 30
0.0
  0
VERTEX
  5
4E
330
4B
100
AcDbEntity
  8
L2-RESIST_U_306E_U_30B3_U_
100
AcDbVertex
100
AcDb2dVertex
 10
19.44739107819005
 20
34.70615847483607
 30
0.0
  0
VERTEX
  5
4F
330
4B
100
AcDbEntity
  8
L2-RESIST_U_306E_U_30B3_U_
100
AcDbVertex
100
AcDb2dVertex
 10
19.57287819575678
 20
34.72318406739178
 30
0.0
  0
VERTEX
  5
50
330
4B
100
AcDbEntity
  8
L2-RESIST_U_306E_U_30B3_U_
100
AcDbVertex
100
AcDb2dVertex
 10
19.70114798577864
 20
34.74727858229391
 30
0.0
  0
VERTEX
  5
51
330
4B
100
AcDbEntity
  8
L2-RESIST_U_306E_U_30B3_U_
100
AcDbVertex
100
AcDb2dVertex
 10
19.83224385645752
 20
34.77859126107436
 30
0.0
  0
VERTEX
  5
52
330
4B
100
AcDbEntity
  8
L2-RESIST_U_306E_U_30B3_U_
100
AcDbVertex
100
AcDb2dVertex
 10
19.96620921599565
 20
34.81727134526563
 30
0.0
  0
VERTEX
  5
53
330
4B
100
AcDbEntity
  8
L2-RESIST_U_306E_U_30B3_U_
100
AcDbVertex
100
AcDb2dVertex
 10
20.10308747259457
 20
34.86346807640026
 30
0.0
  0
VERTEX
  5
54
330
4B
100
AcDbEntity
  8
L2-RESIST_U_306E_U_30B3_U_
100
AcDbVertex
100
AcDb2dVertex
 10
20.24292203445683
 20
34.9173306960114
 30
0.0
  0
VERTEX
  5
55
330
4B
100
AcDbEntity
  8
L2-RESIST_U_306E_U_30B3_U_
100
AcDbVertex
100
AcDb2dVertex
 10
21.06283489548355
 20
35.38487658143587
 30
0.0
  0
VERTEX
  5
56
330
4B
100
AcDbEntity
  8
L2-RESIST_U_306E_U_30B3_U_
100
AcDbVertex
100
AcDb2dVertex
 10
21.81095307084192
 20
36.04090253366622
 30
0.0
  0
VERTEX
  5
57
330
4B
100
AcDbEntity
  8
L2-RESIST_U_306E_U_30B3_U_
100
AcDbVertex
100
AcDb2dVertex
 10
22.47572088374323
 20
36.87745534326991
 30
0.0
  0
VERTEX
  5
58
330
4B
100
AcDbEntity
  8
L2-RESIST_U_306E_U_30B3_U_
100
AcDbVertex
100
AcDb2dVertex
 10
23.04558265739944
 20
37.88658180081504
 30
0.0
  0
VERTEX
  5
59
330
4B
100
AcDbEntity
  8
L2-RESIST_U_306E_U_30B3_U_
100
AcDbVertex
100
AcDb2dVertex
 10
23.50898271502157
 20
39.06032869686846
 30
0.0
  0
VERTEX
  5
5A
330
4B
100
AcDbEntity
  8
L2-RESIST_U_306E_U_30B3_U_
100
AcDbVertex
100
AcDb2dVertex
 10
23.85436537982123
 20
40.39074282199826
 30
0.0
  0
VERTEX
  5
5B
330
4B
100
AcDbEntity
  8
L2-RESIST_U_306E_U_30B3_U_
100
AcDbVertex
100
AcDb2dVertex
 10
24.07017497501008
 20
41.86987096677127
 30
0.0
  0
VERTEX
  5
5C
330
4B
100
AcDbEntity
  8
L2-RESIST_U_306E_U_30B3_U_
100
AcDbVertex
100
AcDb2dVertex
 10
24.14485582379909
 20
43.48975992175495
 30
0.0
  0
VERTEX
  5
5D
330
4B
100
AcDbEntity
  8
L2-RESIST_U_306E_U_30B3_U_
100
AcDbVertex
100
AcDb2dVertex
 10
24.1345608452206
 20
44.11500628926726
 30
0.0
  0
VERTEX
  5
5E
330
4B
100
AcDbEntity
  8
L2-RESIST_U_306E_U_30B3_U_
100
AcDbVertex
100
AcDb2dVertex
 10
24.10328812954695
 20
44.75773913419769
 30
0.0
  0
VERTEX
  5
5F
330
4B
100
AcDbEntity
  8
L2-RESIST_U_306E_U_30B3_U_
100
AcDbVertex
100
AcDb2dVertex
 10
24.05045600687139
 20
45.41756902296346
 30
0.0
  0
VERTEX
  5
60
330
4B
100
AcDbEntity
  8
L2-RESIST_U_306E_U_30B3_U_
100
AcDbVertex
100
AcDb2dVertex
 10
23.97548280728683
 20
46.09410652197985
 30
0.0
  0
VERTEX
  5
61
330
4B
100
AcDbEntity
  8
L2-RESIST_U_306E_U_30B3_U_
100
AcDbVertex
100
AcDb2dVertex
 10
23.87778686088585
 20
46.78696219766277
 30
0.0
  0
VERTEX
  5
62
330
4B
100
AcDbEntity
  8
L2-RESIST_U_306E_U_30B3_U_
100
AcDbVertex
100
AcDb2dVertex
 10
23.75678649776203
 20
47.49574661642944
 30
0.0
  0
VERTEX
  5
63
330
4B
100
AcDbEntity
  8
L2-RESIST_U_306E_U_30B3_U_
100
AcDbVertex
100
AcDb2dVertex
 10
23.61190004800794
 20
48.22007034469515
 30
0.0
  0
VERTEX
  5
64
330
4B
100
AcDbEntity
  8
L2-RESIST_U_306E_U_30B3_U_
100
AcDbVertex
100
AcDb2dVertex
 10
23.44254584171651
 20
48.95954394887644
 30
0.0
  0
VERTEX
  5
65
330
4B
100
AcDbEntity
  8
L2-RESIST_U_306E_U_30B3_U_
100
AcDbVertex
100
AcDb2dVertex
 10
23.43859463136125
 20
48.97071123315304
 30
0.0
  0
VERTEX
  5
66
330
4B
100
AcDbEntity
  8
L2-RESIST_U_306E_U_30B3_U_
100
AcDbVertex
100
AcDb2dVertex
 10
23.43281996363298
 20
48.98071894357579
 30
0.0
  0
VERTEX
  5
67
330
4B
100
AcDbEntity
  8
L2-RESIST_U_306E_U_30B3_U_
100
AcDbVertex
100
AcDb2dVertex
 10
23.42545259432446
 20
48.98940961564198
 30
0.0
  0
VERTEX
  5
68
330
4B
100
AcDbEntity
  8
L2-RESIST_U_306E_U_30B3_U_
100
AcDbVertex
100
AcDb2dVertex
 10
23.41672327922875
 20
48.99662578484759
 30
0.0
  0
VERTEX
  5
69
330
4B
100
AcDbEntity
  8
L2-RESIST_U_306E_U_30B3_U_
100
AcDbVertex
100
AcDb2dVertex
 10
23.40686277413826
 20
49.00220998668863
 30
0.0
  0
VERTEX
  5
6A
330
4B
100
AcDbEntity
  8
L2-RESIST_U_306E_U_30B3_U_
100
AcDbVertex
100
AcDb2dVertex
 10
23.3961018348464
 20
49.00600475666172
 30
0.0
  0
VERTEX
  5
6B
330
4B
100
AcDbEntity
  8
L2-RESIST_U_306E_U_30B3_U_
100
AcDbVertex
100
AcDb2dVertex
 10
23.38467121714557
 20
49.00785263026349
 30
0.0
  0
VERTEX
  5
6C
330
4B
100
AcDbEntity
  8
L2-RESIST_U_306E_U_30B3_U_
100
AcDbVertex
100
AcDb2dVertex
 10
23.37280167682917
 20
49.00759614298931
 30
0.0
  0
VERTEX
  5
6D
330
4B
100
AcDbEntity
  8
L2-RESIST_U_306E_U_30B3_U_
100
AcDbVertex
100
AcDb2dVertex
 10
23.36142213253883
 20
49.00518054537103
 30
0.0
  0
VERTEX
  5
6E
330
4B
100
AcDbEntity
  8
L2-RESIST_U_306E_U_30B3_U_
100
AcDbVertex
100
AcDb2dVertex
 10
23.35093363412054
 20
49.0007742750246
 30
0.0
  0
VERTEX
  5
6F
330
4B
100
AcDbEntity
  8
L2-RESIST_U_306E_U_30B3_U_
100
AcDbVertex
100
AcDb2dVertex
 10
23.34152919665329
 20
48.99458564606239
 30
0.0
  0
VERTEX
  5
70
330
4B
100
AcDbEntity
  8
L2-RESIST_U_306E_U_30B3_U_
100
AcDbVertex
100
AcDb2dVertex
 10
23.33340183521516
 20
48.98682297259737
 30
0.0
  0
VERTEX
  5
71
330
4B
100
AcDbEntity
  8
L2-RESIST_U_306E_U_30B3_U_
100
AcDbVertex
100
AcDb2dVertex
 10
23.32674456488548
 20
48.97769456873993
 30
0.0
  0
VERTEX
  5
72
330
4B
100
AcDbEntity
  8
L2-RESIST_U_306E_U_30B3_U_
100
AcDbVertex
100
AcDb2dVertex
 10
23.32175040074294
 20
48.96740874860242
 30
0.0
  0
VERTEX
  5
73
330
4B
100
AcDbEntity
  8
L2-RESIST_U_306E_U_30B3_U_
100
AcDbVertex
100
AcDb2dVertex
 10
23.31861235786624
 20
48.95617382629654
 30
0.0
  0
VERTEX
  5
74
330
4B
100
AcDbEntity
  8
L2-RESIST_U_306E_U_30B3_U_
100
AcDbVertex
100
AcDb2dVertex
 10
23.31752345133441
 20
48.94419811593397
 30
0.0
  0
VERTEX
  5
75
330
4B
100
AcDbEntity
  8
L2-RESIST_U_306E_U_30B3_U_
100
AcDbVertex
100
AcDb2dVertex
 10
23.32009185092667
 20
48.91586895867052
 30
0.0
  0
VERTEX
  5
76
330
4B
100
AcDbEntity
  8
L2-RESIST_U_306E_U_30B3_U_
100
AcDbVertex
100
AcDb2dVertex
 10
23.3264530553763
 20
48.84626480246008
 30
0.0
  0
VERTEX
  5
77
330
4B
100
AcDbEntity
  8
L2-RESIST_U_306E_U_30B3_U_
100
AcDbVertex
100
AcDb2dVertex
 10
23.33534282844268
 20
48.73714843371593
 30
0.0
  0
VERTEX
  5
78
330
4B
100
AcDbEntity
  8
L2-RESIST_U_306E_U_30B3_U_
100
AcDbVertex
100
AcDb2dVertex
 10
23.34549693388486
 20
48.590282638852
 30
0.0
  0
VERTEX
  5
79
330
4B
100
AcDbEntity
  8
L2-RESIST_U_306E_U_30B3_U_
100
AcDbVertex
100
AcDb2dVertex
 10
23.35565113546158
 20
48.40743020428092
 30
0.0
  0
VERTEX
  5
7A
330
4B
100
AcDbEntity
  8
L2-RESIST_U_306E_U_30B3_U_
100
AcDbVertex
100
AcDb2dVertex
 10
23.3645411969319
 20
48.19035391641598
 30
0.0
  0
VERTEX
  5
7B
330
4B
100
AcDbEntity
  8
L2-RESIST_U_306E_U_30B3_U_
100
AcDbVertex
100
AcDb2dVertex
 10
23.37090288205486
 20
47.9408165616711
 30
0.0
  0
VERTEX
  5
7C
330
4B
100
AcDbEntity
  8
L2-RESIST_U_306E_U_30B3_U_
100
AcDbVertex
100
AcDb2dVertex
 10
23.37347195458985
 20
47.66058092645955
 30
0.0
  0
VERTEX
  5
7D
330
4B
100
AcDbEntity
  8
L2-RESIST_U_306E_U_30B3_U_
100
AcDbVertex
100
AcDb2dVertex
 10
23.35241842539603
 20
46.81621112649522
 30
0.0
  0
VERTEX
  5
7E
330
4B
100
AcDbEntity
  8
L2-RESIST_U_306E_U_30B3_U_
100
AcDbVertex
100
AcDb2dVertex
 10
23.2739676776146
 20
45.82814901574331
 30
0.0
  0
VERTEX
  5
7F
330
4B
100
AcDbEntity
  8
L2-RESIST_U_306E_U_30B3_U_
100
AcDbVertex
100
AcDb2dVertex
 10
23.11597822092483
 20
44.73558558604304
 30
0.0
  0
VERTEX
  5
80
330
4B
100
AcDbEntity
  8
L2-RESIST_U_306E_U_30B3_U_
100
AcDbVertex
100
AcDb2dVertex
 10
22.85630856500601
 20
43.57771182923301
 30
0.0
  0
VERTEX
  5
81
330
4B
100
AcDbEntity
  8
L2-RESIST_U_306E_U_30B3_U_
100
AcDbVertex
100
AcDb2dVertex
 10
22.47281721953804
 20
42.39371873715244
 30
0.0
  0
VERTEX
  5
82
330
4B
100
AcDbEntity
  8
L2-RESIST_U_306E_U_30B3_U_
100
AcDbVertex
100
AcDb2dVertex
 10
21.94336269419989
 20
41.22279730163864
 30
0.0
  0
VERTEX
  5
83
330
4B
100
AcDbEntity
  8
L2-RESIST_U_306E_U_30B3_U_
100
AcDbVertex
100
AcDb2dVertex
 10
21.24580349867149
 20
40.10413851453146
 30
0.0
  0
VERTEX
  5
84
330
4B
100
AcDbEntity
  8
L2-RESIST_U_306E_U_30B3_U_
100
AcDbVertex
100
AcDb2dVertex
 10
20.35799814263211
 20
39.07693336766887
 30
0.0
  0
VERTEX
  5
85
330
4B
100
AcDbEntity
  8
L2-RESIST_U_306E_U_30B3_U_
100
AcDbVertex
100
AcDb2dVertex
 10
19.97329426138755
 20
38.71863834751305
 30
0.0
  0
VERTEX
  5
86
330
4B
100
AcDbEntity
  8
L2-RESIST_U_306E_U_30B3_U_
100
AcDbVertex
100
AcDb2dVertex
 10
19.61341656440574
 20
38.41834908759567
 30
0.0
  0
VERTEX
  5
87
330
4B
100
AcDbEntity
  8
L2-RESIST_U_306E_U_30B3_U_
100
AcDbVertex
100
AcDb2dVertex
 10
19.27774162722297
 20
38.17293275596607
 30
0.0
  0
VERTEX
  5
88
330
4B
100
AcDbEntity
  8
L2-RESIST_U_306E_U_30B3_U_
100
AcDbVertex
100
AcDb2dVertex
 10
18.96564602537619
 20
37.97925652067294
 30
0.0
  0
VERTEX
  5
89
330
4B
100
AcDbEntity
  8
L2-RESIST_U_306E_U_30B3_U_
100
AcDbVertex
100
AcDb2dVertex
 10
18.676506334402
 20
37.83418754976497
 30
0.0
  0
VERTEX
  5
8A
330
4B
100
AcDbEntity
  8
L2-RESIST_U_306E_U_30B3_U_
100
AcDbVertex
100
AcDb2dVertex
 10
18.40969912983735
 20
37.73459301129023
 30
0.0
  0
VERTEX
  5
8B
330
4B
100
AcDbEntity
  8
L2-RESIST_U_306E_U_30B3_U_
100
AcDbVertex
100
AcDb2dVertex
 10
18.16460098721886
 20
37.67734007329739
 30
0.0
  0
VERTEX
  5
8C
330
4B
100
AcDbEntity
  8
L2-RESIST_U_306E_U_30B3_U_
100
AcDbVertex
100
AcDb2dVertex
 10
17.94058848208314
 20
37.65929590383581
 30
0.0
  0
VERTEX
  5
8D
330
4B
100
AcDbEntity
  8
L2-RESIST_U_306E_U_30B3_U_
100
AcDbVertex
100
AcDb2dVertex
 10
17.40352518795053
 20
37.7853553206501
 30
0.0
  0
VERTEX
  5
8E
330
4B
100
AcDbEntity
  8
L2-RESIST_U_306E_U_30B3_U_
100
AcDbVertex
100
AcDb2dVertex
 10
16.9863913145865
 20
38.14177958510322
 30
0.0
  0
VERTEX
  5
8F
330
4B
100
AcDbEntity
  8
L2-RESIST_U_306E_U_30B3_U_
100
AcDbVertex
100
AcDb2dVertex
 10
16.67282279665327
 20
38.6626002190595
 30
0.0
  0
VERTEX
  5
90
330
4B
100
AcDbEntity
  8
L2-RESIST_U_306E_U_30B3_U_
100
AcDbVertex
100
AcDb2dVertex
 10
16.44645556881276
 20
39.28184874438517
 30
0.0
  0
VERTEX
  5
91
330
4B
100
AcDbEntity
  8
L2-RESIST_U_306E_U_30B3_U_
100
AcDbVertex
100
AcDb2dVertex
 10
16.29092556572781
 20
39.93355668294519
 30
0.0
  0
VERTEX
  5
92
330
4B
100
AcDbEntity
  8
L2-RESIST_U_306E_U_30B3_U_
100
AcDbVertex
100
AcDb2dVertex
 10
16.18986872206034
 20
40.5517555566058
 30
0.0
  0
VERTEX
  5
93
330
4B
100
AcDbEntity
  8
L2-RESIST_U_306E_U_30B3_U_
100
AcDbVertex
100
AcDb2dVertex
 10
16.12692097247257
 20
41.07047688723068
 30
0.0
  0
VERTEX
  5
94
330
4B
100
AcDbEntity
  8
L2-RESIST_U_306E_U_30B3_U_
100
AcDbVertex
100
AcDb2dVertex
 10
16.08571825162705
 20
41.42375219668542
 30
0.0
  0
VERTEX
  5
95
330
4B
100
AcDbEntity
  8
L2-RESIST_U_306E_U_30B3_U_
100
AcDbVertex
100
AcDb2dVertex
 10
16.08269249324056
 20
41.43577861130892
 30
0.0
  0
VERTEX
  5
96
330
4B
100
AcDbEntity
  8
L2-RESIST_U_306E_U_30B3_U_
100
AcDbVertex
100
AcDb2dVertex
 10
16.07751947579447
 20
41.44666731762874
 30
0.0
  0
VERTEX
  5
97
330
4B
100
AcDbEntity
  8
L2-RESIST_U_306E_U_30B3_U_
100
AcDbVertex
100
AcDb2dVertex
 10
16.07045964850071
 20
41.45621657085719
 30
0.0
  0
VERTEX
  5
98
330
4B
100
AcDbEntity
  8
L2-RESIST_U_306E_U_30B3_U_
100
AcDbVertex
100
AcDb2dVertex
 10
16.06177346057126
 20
41.46422462620844
 30
0.0
  0
VERTEX
  5
99
330
4B
100
AcDbEntity
  8
L2-RESIST_U_306E_U_30B3_U_
100
AcDbVertex
100
AcDb2dVertex
 10
16.05172136121841
 20
41.47048973889607
 30
0.0
  0
VERTEX
  5
9A
330
4B
100
AcDbEntity
  8
L2-RESIST_U_306E_U_30B3_U_
100
AcDbVertex
100
AcDb2dVertex
 10
16.04056379965411
 20
41.47481016413298
 30
0.0
  0
VERTEX
  5
9B
330
4B
100
AcDbEntity
  8
L2-RESIST_U_306E_U_30B3_U_
100
AcDbVertex
100
AcDb2dVertex
 10
16.02856122509034
 20
41.47698415713275
 30
0.0
  0
VERTEX
  5
9C
330
4B
100
AcDbEntity
  8
L2-RESIST_U_306E_U_30B3_U_
100
AcDbVertex
100
AcDb2dVertex
 10
16.0159740867397
 20
41.47680997310958
 30
0.0
  0
VERTEX
  5
9D
330
4B
100
AcDbEntity
  8
L2-RESIST_U_306E_U_30B3_U_
100
AcDbVertex
100
AcDb2dVertex
 10
16.00402553127185
 20
41.47431510392494
 30
0.0
  0
VERTEX
  5
9E
330
4B
100
AcDbEntity
  8
L2-RESIST_U_306E_U_30B3_U_
100
AcDbVertex
100
AcDb2dVertex
 10
15.99302038072799
 20
41.46960393596731
 30
0.0
  0
VERTEX
  5
9F
330
4B
100
AcDbEntity
  8
L2-RESIST_U_306E_U_30B3_U_
100
AcDbVertex
100
AcDb2dVertex
 10
15.98319097234184
 20
41.46294725373748
 30
0.0
  0
VERTEX
  5
A0
330
4B
100
AcDbEntity
  8
L2-RESIST_U_306E_U_30B3_U_
100
AcDbVertex
100
AcDb2dVertex
 10
15.97476964334647
 20
41.45461584173168
 30
0.0
  0
VERTEX
  5
A1
330
4B
100
AcDbEntity
  8
L2-RESIST_U_306E_U_30B3_U_
100
AcDbVertex
100
AcDb2dVertex
 10
15.96798873097591
 20
41.4448804844494
 30
0.0
  0
VERTEX
  5
A2
330
4B
100
AcDbEntity
  8
L2-RESIST_U_306E_U_30B3_U_
100
AcDbVertex
100
AcDb2dVertex
 10
15.96308057246421
 20
41.43401196638883
 30
0.0
  0
VERTEX
  5
A3
330
4B
100
AcDbEntity
  8
L2-RESIST_U_306E_U_30B3_U_
100
AcDbVertex
100
AcDb2dVertex
 10
15.96027750504443
 20
41.42228107204816
 30
0.0
  0
VERTEX
  5
A4
330
4B
100
AcDbEntity
  8
L2-RESIST_U_306E_U_30B3_U_
100
AcDbVertex
100
AcDb2dVertex
 10
15.95981186595029
 20
41.40995858592621
 30
0.0
  0
VERTEX
  5
A5
330
4B
100
AcDbEntity
  8
L2-RESIST_U_306E_U_30B3_U_
100
AcDbVertex
100
AcDb2dVertex
 10
16.01005408864579
 20
40.76700437346982
 30
0.0
  0
VERTEX
  5
A6
330
4B
100
AcDbEntity
  8
L2-RESIST_U_306E_U_30B3_U_
100
AcDbVertex
100
AcDb2dVertex
 10
16.09684531953973
 20
39.97514746097623
 30
0.0
  0
VERTEX
  5
A7
330
4B
100
AcDbEntity
  8
L2-RESIST_U_306E_U_30B3_U_
100
AcDbVertex
100
AcDb2dVertex
 10
16.23163918844465
 20
39.08766616541235
 30
0.0
  0
VERTEX
  5
A8
330
4B
100
AcDbEntity
  8
L2-RESIST_U_306E_U_30B3_U_
100
AcDbVertex
100
AcDb2dVertex
 10
16.42588932517245
 20
38.15783880374444
 30
0.0
  0
VERTEX
  5
A9
330
4B
100
AcDbEntity
  8
L2-RESIST_U_306E_U_30B3_U_
100
AcDbVertex
100
AcDb2dVertex
 10
16.69104935953565
 20
37.23894369293875
 30
0.0
  0
VERTEX
  5
AA
330
4B
100
AcDbEntity
  8
L2-RESIST_U_306E_U_30B3_U_
100
AcDbVertex
100
AcDb2dVertex
 10
17.03857292134618
 20
36.3842591499622
 30
0.0
  0
VERTEX
  5
AB
330
4B
100
AcDbEntity
  8
L2-RESIST_U_306E_U_30B3_U_
100
AcDbVertex
100
AcDb2dVertex
 10
17.47991364041591
 20
35.64706349177975
 30
0.0
  0
VERTEX
  5
AC
330
4B
100
AcDbEntity
  8
L2-RESIST_U_306E_U_30B3_U_
100
AcDbVertex
100
AcDb2dVertex
 10
18.02652514655738
 20
35.0806350353596
 30
0.0
  0
VERTEX
  5
AD
330
4B
100
AcDbEntity
  8
L2-RESIST_U_306E_U_30B3_U_
100
AcDbVertex
100
AcDb2dVertex
 10
18.05061986816489
 20
35.06495803448723
 30
0.0
  0
VERTEX
  5
AE
330
4B
100
AcDbEntity
  8
L2-RESIST_U_306E_U_30B3_U_
100
AcDbVertex
100
AcDb2dVertex
 10
18.07471458977241
 20
35.04928103361423
 30
0.0
  0
VERTEX
  5
AF
330
4B
100
AcDbEntity
  8
L2-RESIST_U_306E_U_30B3_U_
100
AcDbVertex
100
AcDb2dVertex
 10
18.09880931137992
 20
35.03360403274122
 30
0.0
  0
VERTEX
  5
B0
330
4B
100
AcDbEntity
  8
L2-RESIST_U_306E_U_30B3_U_
100
AcDbVertex
100
AcDb2dVertex
 10
18.12290403298744
 20
35.01792703186886
 30
0.0
  0
VERTEX
  5
B1
330
4B
100
AcDbEntity
  8
L2-RESIST_U_306E_U_30B3_U_
100
AcDbVertex
100
AcDb2dVertex
 10
18.14699875459495
 20
35.00225003099649
 30
0.0
  0
VERTEX
  5
B2
330
4B
100
AcDbEntity
  8
L2-RESIST_U_306E_U_30B3_U_
100
AcDbVertex
100
AcDb2dVertex
 10
18.17109347620247
 20
34.98657303012349
 30
0.0
  0
VERTEX
  5
B3
330
4B
100
AcDbEntity
  8
L2-RESIST_U_306E_U_30B3_U_
100
AcDbVertex
100
AcDb2dVertex
 10
18.19518819780998
 20
34.97089602925048
 30
0.0
  0
VERTEX
  5
B4
330
4B
100
AcDbEntity
  8
L2-RESIST_U_306E_U_30B3_U_
100
AcDbVertex
100
AcDb2dVertex
 10
18.2192829194175
 20
34.95521902837812
 30
0.0
  0
VERTEX
  5
B5
330
4B
100
AcDbEntity
  8
L2-RESIST_U_306E_U_30B3_U_
100
AcDbVertex
100
AcDb2dVertex
 10
18.32945438307795
 20
34.89636570576938
 30
0.0
  0
VERTEX
  5
B6
330
4B
100
AcDbEntity
  8
L2-RESIST_U_306E_U_30B3_U_
100
AcDbVertex
100
AcDb2dVertex
 10
18.44333042672228
 20
34.84429853207579
 30
0.0
  0
VERTEX
  5
B7
330
4B
100
AcDbEntity
  8
L2-RESIST_U_306E_U_30B3_U_
100
AcDbVertex
100
AcDb2dVertex
 10
18.5609147710534
 20
34.79934451575331
 30
0.0
  0
VERTEX
  5
B8
330
4B
100
AcDbEntity
  8
L2-RESIST_U_306E_U_30B3_U_
100
AcDbVertex
100
AcDb2dVertex
 10
18.68221113677388
 20
34.76183066525599
 30
0.0
  0
VERTEX
  5
B9
330
4B
100
AcDbEntity
  8
L2-RESIST_U_306E_U_30B3_U_
100
AcDbVertex
100
AcDb2dVertex
 10
18.80722324458695
 20
34.73208398904044
 30
0.0
  0
VERTEX
  5
BA
330
4B
100
AcDbEntity
  8
L2-RESIST_U_306E_U_30B3_U_
100
AcDbVertex
100
AcDb2dVertex
 10
18.93595481519613
 20
34.71043149556071
 30
0.0
  0
VERTEX
  5
BB
330
4B
100
AcDbEntity
  8
L2-RESIST_U_306E_U_30B3_U_
100
AcDbVertex
100
AcDb2dVertex
 10
19.06840956930403
 20
34.69720019327212
 30
0.0
  0
VERTEX
  5
BC
330
4B
100
AcDbEntity
  8
L2-RESIST_U_306E_U_30B3_U_
100
AcDbVertex
100
AcDb2dVertex
 10
19.20459122761352
 20
34.69271709063066
 30
0.0
  0
VERTEX
  5
BD
330
4B
100
AcDbEntity
  8
L2-RESIST_U_306E_U_30B3_U_
100
AcDbVertex
100
AcDb2dVertex
 10
19.20459122761352
 20
34.69271709063066
 30
0.0
  0
SEQEND
  5
BE
330
4B
100
AcDbEntity
  8
L2-RESIST_U_306E_U_30B3_U_
  0
HATCH
  5
BF
330
1F
100
AcDbEntity
  8
L2-RESIST_U_306E_U_30B3_U_
 62
    21
100
AcDbHatch
 10
0.0
 20
0.0
 30
0.0
210
0.0
220
0.0
230
1.0
  2
SOLID
 70
     1
 71
     0
 91
        1
 92
        1
 93
      112
 72
     1
 10
19.20459122761352
 20
34.69271709063066
 11
19.32464322487627
 21
34.69605256309299
 72
     1
 10
19.32464322487627
 20
34.69605256309299
 11
19.44739107819005
 21
34.70615847483607
 72
     1
 10
19.44739107819005
 20
34.70615847483607
 11
19.57287819575678
 21
34.72318406739178
 72
     1
 10
19.57287819575678
 20
34.72318406739178
 11
19.70114798577864
 21
34.74727858229391
 72
     1
 10
19.70114798577864
 20
34.74727858229391
 11
19.83224385645752
 21
34.77859126107436
 72
     1
 10
19.83224385645752
 20
34.77859126107436
 11
19.96620921599565
 21
34.81727134526563
 72
     1
 10
19.96620921599565
 20
34.81727134526563
 11
20.10308747259457
 21
34.86346807640026
 72
     1
 10
20.10308747259457
 20
34.86346807640026
 11
20.24292203445683
 21
34.9173306960114
 72
     1
 10
20.24292203445683
 20
34.9173306960114
 11
21.06283489548355
 21
35.38487658143587
 72
     1
 10
21.06283489548355
 20
35.38487658143587
 11
21.81095307084192
 21
36.04090253366622
 72
     1
 10
21.81095307084192
 20
36.04090253366622
 11
22.47572088374323
 21
36.87745534326991
 72
     1
 10
22.47572088374323
 20
36.87745534326991
 11
23.04558265739944
 21
37.88658180081504
 72
     1
 10
23.04558265739944
 20
37.88658180081504
 11
23.50898271502157
 21
39.06032869686846
 72
     1
 10
23.50898271502157
 20
39.06032869686846
 11
23.85436537982123
 21
40.39074282199826
 72
     1
 10
23.85436537982123
 20
40.39074282199826
 11
24.07017497501008
 21
41.86987096677127
 72
     1
 10
24.07017497501008
 20
41.86987096677127
 11
24.14485582379909
 21
43.48975992175495
 72
     1
 10
24.14485582379909
 20
43.48975992175495
 11
24.1345608452206
 21
44.11500628926726
 72
     1
 10
24.1345608452206
 20
44.11500628926726
 11
24.10328812954695
 21
44.75773913419769
 72
     1
 10
24.10328812954695
 20
44.75773913419769
 11
24.05045600687139
 21
45.41756902296346
 72
     1
 10
24.05045600687139
 20
45.41756902296346
 11
23.97548280728683
 21
46.09410652197985
 72
     1
 10
23.97548280728683
 20
46.09410652197985
 11
23.87778686088585
 21
46.78696219766277
 72
     1
 10
23.87778686088585
 20
46.78696219766277
 11
23.75678649776203
 21
47.49574661642944
 72
     1
 10
23.75678649776203
 20
47.49574661642944
 11
23.61190004800794
 21
48.22007034469515
 72
     1
 10
23.61190004800794
 20
48.22007034469515
 11
23.44254584171651
 21
48.95954394887644
 72
     1
 10
23.44254584171651
 20
48.95954394887644
 11
23.43859463136125
 21
48.97071123315304
 72
     1
 10
23.43859463136125
 20
48.97071123315304
 11
23.43281996363298
 21
48.98071894357579
 72
     1
 10
23.43281996363298
 20
48.98071894357579
 11
23.42545259432446
 21
48.98940961564198
 72
     1
 10
23.42545259432446
 20
48.98940961564198
 11
23.41672327922875
 21
48.99662578484759
 72
     1
 10
23.41672327922875
 20
48.99662578484759
 11
23.40686277413826
 21
49.00220998668863
 72
     1
 10
23.40686277413826
 20
49.00220998668863
 11
23.3961018348464
 21
49.00600475666172
 72
     1
 10
23.3961018348464
 20
49.00600475666172
 11
23.38467121714557
 21
49.00785263026349
 72
     1
 10
23.38467121714557
 20
49.00785263026349
 11
23.37280167682917
 21
49.00759614298931
 72
     1
 10
23.37280167682917
 20
49.00759614298931
 11
23.36142213253883
 21
49.00518054537103
 72
     1
 10
23.36142213253883
 20
49.00518054537103
 11
23.35093363412054
 21
49.0007742750246
 72
     1
 10
23.35093363412054
 20
49.0007742750246
 11
23.34152919665329
 21
48.99458564606239
 72
     1
 10
23.34152919665329
 20
48.99458564606239
 11
23.33340183521516
 21
48.98682297259737
 72
     1
 10
23.33340183521516
 20
48.98682297259737
 11
23.32674456488548
 21
48.97769456873993
 72
     1
 10
23.32674456488548
 20
48.97769456873993
 11
23.32175040074294
 21
48.96740874860242
 72
     1
 10
23.32175040074294
 20
48.96740874860242
 11
23.31861235786624
 21
48.95617382629654
 72
     1
 10
23.31861235786624
 20
48.95617382629654
 11
23.31752345133441
 21
48.94419811593397
 72
     1
 10
23.31752345133441
 20
48.94419811593397
 11
23.32009185092667
 21
48.91586895867052
 72
     1
 10
23.32009185092667
 20
48.91586895867052
 11
23.3264530553763
 21
48.84626480246008
 72
     1
 10
23.3264530553763
 20
48.84626480246008
 11
23.33534282844268
 21
48.73714843371593
 72
     1
 10
23.33534282844268
 20
48.73714843371593
 11
23.34549693388486
 21
48.590282638852
 72
     1
 10
23.34549693388486
 20
48.590282638852
 11
23.35565113546158
 21
48.40743020428092
 72
     1
 10
23.35565113546158
 20
48.40743020428092
 11
23.3645411969319
 21
48.19035391641598
 72
     1
 10
23.3645411969319
 20
48.19035391641598
 11
23.37090288205486
 21
47.9408165616711
 72
     1
 10
23.37090288205486
 20
47.9408165616711
 11
23.37347195458985
 21
47.66058092645955
 72
     1
 10
23.37347195458985
 20
47.66058092645955
 11
23.35241842539603
 21
46.81621112649522
 72
     1
 10
23.35241842539603
 20
46.81621112649522
 11
23.2739676776146
 21
45.82814901574331
 72
     1
 10
23.2739676776146
 20
45.82814901574331
 11
23.11597822092483
 21
44.73558558604304
 72
     1
 10
23.11597822092483
 20
44.73558558604304
 11
22.85630856500601
 21
43.57771182923301
 72
     1
 10
22.85630856500601
 20
43.57771182923301
 11
22.47281721953804
 21
42.39371873715244
 72
     1
 10
22.47281721953804
 20
42.39371873715244
 11
21.94336269419989
 21
41.22279730163864
 72
     1
 10
21.94336269419989
 20
41.22279730163864
 11
21.24580349867149
 21
40.10413851453146
 72
     1
 10
21.24580349867149
 20
40.10413851453146
 11
20.35799814263211
 21
39.07693336766887
 72
     1
 10
20.35799814263211
 20
39.07693336766887
 11
19.97329426138755
 21
38.71863834751305
 72
     1
 10
19.97329426138755
 20
38.71863834751305
 11
19.61341656440574
 21
38.41834908759567
 72
     1
 10
19.61341656440574
 20
38.41834908759567
 11
19.27774162722297
 21
38.17293275596607
 72
     1
 10
19.27774162722297
 20
38.17293275596607
 11
18.96564602537619
 21
37.97925652067294
 72
     1
 10
18.96564602537619
 20
37.97925652067294
 11
18.676506334402
 21
37.83418754976497
 72
     1
 10
18.676506334402
 20
37.83418754976497
 11
18.40969912983735
 21
37.73459301129023
 72
     1
 10
18.40969912983735
 20
37.73459301129023
 11
18.16460098721886
 21
37.67734007329739
 72
     1
 10
18.16460098721886
 20
37.67734007329739
 11
17.94058848208314
 21
37.65929590383581
 72
     1
 10
17.94058848208314
 20
37.65929590383581
 11
17.40352518795053
 21
37.7853553206501
 72
     1
 10
17.40352518795053
 20
37.7853553206501
 11
16.9863913145865
 21
38.14177958510322
 72
     1
 10
16.9863913145865
 20
38.14177958510322
 11
16.67282279665327
 21
38.6626002190595
 72
     1
 10
16.67282279665327
 20
38.6626002190595
 11
16.44645556881276
 21
39.28184874438517
 72
     1
 10
16.44645556881276
 20
39.28184874438517
 11
16.29092556572781
 21
39.93355668294519
 72
     1
 10
16.29092556572781
 20
39.93355668294519
 11
16.18986872206034
 21
40.5517555566058
 72
     1
 10
16.18986872206034
 20
40.5517555566058
 11
16.12692097247257
 21
41.07047688723068
 72
     1
 10
16.12692097247257
 20
41.07047688723068
 11
16.08571825162705
 21
41.42375219668542
 72
     1
 10
16.08571825162705
 20
41.42375219668542
 11
16.08269249324056
 21
41.43577861130892
 72
     1
 10
16.08269249324056
 20
41.43577861130892
 11
16.07751947579447
 21
41.44666731762874
 72
     1
 10
16.07751947579447
 20
41.44666731762874
 11
16.07045964850071
 21
41.45621657085719
 72
     1
 10
16.07045964850071
 20
41.45621657085719
 11
16.06177346057126
 21
41.46422462620844
 72
     1
 10
16.06177346057126
 20
41.46422462620844
 11
16.05172136121841
 21
41.47048973889607
 72
     1
 10
16.05172136121841
 20
41.47048973889607
 11
16.04056379965411
 21
41.47481016413298
 72
     1
 10
16.04056379965411
 20
41.47481016413298
 11
16.02856122509034
 21
41.47698415713275
 72
     1
 10
16.02856122509034
 20
41.47698415713275
 11
16.0159740867397
 21
41.47680997310958
 72
     1
 10
16.0159740867397
 20
41.47680997310958
 11
16.00402553127185
 21
41.47431510392494
 72
     1
 10
16.00402553127185
 20
41.47431510392494
 11
15.99302038072799
 21
41.46960393596731
 72
     1
 10
15.99302038072799
 20
41.46960393596731
 11
15.98319097234184
 21
41.46294725373748
 72
     1
 10
15.98319097234184
 20
41.46294725373748
 11
15.97476964334647
 21
41.45461584173168
 72
     1
 10
15.97476964334647
 20
41.45461584173168
 11
15.96798873097591
 21
41.4448804844494
 72
     1
 10
15.96798873097591
 20
41.4448804844494
 11
15.96308057246421
 21
41.43401196638883
 72
     1
 10
15.96308057246421
 20
41.43401196638883
 11
15.96027750504443
 21
41.42228107204816
 72
     1
 10
15.96027750504443
 20
41.42228107204816
 11
15.95981186595029
 21
41.40995858592621
 72
     1
 10
15.95981186595029
 20
41.40995858592621
 11
16.01005408864579
 21
40.76700437346982
 72
     1
 10
16.01005408864579
 20
40.76700437346982
 11
16.09684531953973
 21
39.97514746097623
 72
     1
 10
16.09684531953973
 20
39.97514746097623
 11
16.23163918844465
 21
39.08766616541235
 72
     1
 10
16.23163918844465
 20
39.08766616541235
 11
16.42588932517245
 21
38.15783880374444
 72
     1
 10
16.42588932517245
 20
38.15783880374444
 11
16.69104935953565
 21
37.23894369293875
 72
     1
 10
16.69104935953565
 20
37.23894369293875
 11
17.03857292134618
 21
36.3842591499622
 72
     1
 10
17.03857292134618
 20
36.3842591499622
 11
17.47991364041591
 21
35.64706349177975
 72
     1
 10
17.47991364041591
 20
35.64706349177975
 11
18.02652514655738
 21
35.0806350353596
 72
     1
 10
18.02652514655738
 20
35.0806350353596
 11
18.05061986816489
 21
35.06495803448723
 72
     1
 10
18.05061986816489
 20
35.06495803448723
 11
18.07471458977241
 21
35.04928103361423
 72
     1
 10
18.07471458977241
 20
35.04928103361423
 11
18.09880931137992
 21
35.03360403274122
 72
     1
 10
18.09880931137992
 20
35.03360403274122
 11
18.12290403298744
 21
35.01792703186886
 72
     1
 10
18.12290403298744
 20
35.01792703186886
 11
18.14699875459495
 21
35.00225003099649
 72
     1
 10
18.14699875459495
 20
35.00225003099649
 11
18.17109347620247
 21
34.98657303012349
 72
     1
 10
18.17109347620247
 20
34.98657303012349
 11
18.19518819780998
 21
34.97089602925048
 72
     1
 10
18.19518819780998
 20
34.97089602925048
 11
18.2192829194175
 21
34.95521902837812
 72
     1
 10
18.2192829194175
 20
34.95521902837812
 11
18.32945438307795
 21
34.89636570576938
 72
     1
 10
18.32945438307795
 20
34.89636570576938
 11
18.44333042672228
 21
34.84429853207579
 72
     1
 10
18.44333042672228
 20
34.84429853207579
 11
18.5609147710534
 21
34.79934451575331
 72
     1
 10
18.5609147710534
 20
34.79934451575331
 11
18.68221113677388
 21
34.76183066525599
 72
     1
 10
18.68221113677388
 20
34.76183066525599
 11
18.80722324458695
 21
34.73208398904044
 72
     1
 10
18.80722324458695
 20
34.73208398904044
 11
18.93595481519613
 21
34.71043149556071
 72
     1
 10
18.93595481519613
 20
34.71043149556071
 11
19.06840956930403
 21
34.69720019327212
 72
     1
 10
19.06840956930403
 20
34.69720019327212
 11
19.20459122761352
 21
34.69271709063066
 97
        0
 75
     2
 76
     1
 98
        0
  0
ENDSEC
  0
SECTION
  2
OBJECTS
  0
DICTIONARY
  5
C
330
0
100
AcDbDictionary
  3
ACAD_GROUP
350
D
  3
ACAD_LAYOUT
350
1A
  3
ACAD_MATERIAL
350
3B
  3
ACAD_MLEADERSTYLE
350
E2
  3
ACAD_MLINESTYLE
350
17
  3
ACAD_PLOTSETTINGS
350
19
  3
ACAD_VISUALSTYLE
350
2A
  3
ACDBHEADERROUNDTRIPXREC
350
C0
  3
ACDBVARIABLEDICTIONARY
350
E0
  0
DICTIONARY
  5
D
102
{ACAD_REACTORS
330
C
102
}
330
C
100
AcDbDictionary
  0
DICTIONARY
  5
1A
102
{ACAD_REACTORS
330
C
102
}
330
C
100
AcDbDictionary
  0
DICTIONARY
  5
3B
102
{ACAD_REACTORS
330
C
102
}
330
C
100
AcDbDictionary
  3
BYBLOCK
350
3D
  3
BYLAYER
350
3C
  3
GLOBAL
350
3E
  0
DICTIONARY
  5
E2
102
{ACAD_REACTORS
330
C
102
}
330
C
100
AcDbDictionary
  0
DICTIONARY
  5
17
102
{ACAD_REACTORS
330
C
102
}
330
C
100
AcDbDictionary
  3
STANDARD
350
18
  0
DICTIONARY
  5
19
102
{ACAD_REACTORS
330
C
102
}
330
C
100
AcDbDictionary
  0
DICTIONARY
  5
2A
102
{ACAD_REACTORS
330
C
102
}
330
C
100
AcDbDictionary
  3
2DWIREFRAME
350
2F
  3
3DWIREFRAME
350
30
  3
3D_HIDDEN
350
31
  3
BASIC
350
32
  3
BRIGHTEN
350
36
  3
COLORCHANGE
350
3A
  3
CONCEPTUAL
350
34
  3
DIM
350
35
  3
FACEPATTERN
350
39
  3
FLAT
350
2B
  3
FLATWITHEDGES
350
2C
  3
GOURAUD
350
2D
  3
GOURAUDWITHEDGES
350
2E
  3
LINEPATTERN
350
38
  3
REALISTIC
350
33
  3
THICKEN
350
37
  0
DICTIONARY
  5
C0
102
{ACAD_REACTORS
330
C
102
}
330
C
100
AcDbDictionary
  3
CEPSNTYPE
350
C9
  3
DIMSTYLEDATA
350
DF
  3
FINGERPRINTGUID
350
CA
  3
HYPERLINKBASE
350
C3
  3
INSUNITS
350
C8
  3
LAYOUTDICT
350
C5
  3
LWETCUNION
350
C7
  3
PLOTSETDICT
350
C6
  3
PSVPSCALE
350
CC
  3
PUCSBASE
350
CF
  3
PUCSORGBACK
350
D5
  3
PUCSORGBOTTOM
350
D1
  3
PUCSORGFRONT
350
D4
  3
PUCSORGLEFT
350
D2
  3
PUCSORGRIGHT
350
D3
  3
PUCSORGTOP
350
D0
  3
PUCSORTHOREF
350
CD
  3
PUCSORTHOVIEW
350
CE
  3
STYLESHEET
350
C4
  3
TSTACKALIGN
350
C1
  3
TSTACKSIZE
350
C2
  3
UCSBASE
350
D8
  3
UCSORGBACK
350
DE
  3
UCSORGBOTTOM
350
DA
  3
UCSORGFRONT
350
DD
  3
UCSORGLEFT
350
DB
  3
UCSORGRIGHT
350
DC
  3
UCSORGTOP
350
D9
  3
UCSORTHOREF
350
D6
  3
UCSORTHOVIEW
350
D7
  3
VERSIONGUID
350
CB
  0
DICTIONARY
  5
E0
102
{ACAD_REACTORS
330
C
102
}
330
C
100
AcDbDictionary
  3
DIMASSOC
350
E3
  3
HIDETEXT
350
E4
  0
MATERIAL
  5
3D
102
{ACAD_REACTORS
330
3B
102
}
102
{ACAD_XDICTIONARY
360
E7
102
}
330
3B
100
AcDbMaterial
  1
ByBlock
  0
MATERIAL
  5
3C
102
{ACAD_REACTORS
330
3B
102
}
102
{ACAD_XDICTIONARY
360
E5
102
}
330
3B
100
AcDbMaterial
  1
ByLayer
  0
MATERIAL
  5
3E
102
{ACAD_REACTORS
330
3B
102
}
102
{ACAD_XDICTIONARY
360
E9
102
}
330
3B
100
AcDbMaterial
  1
Global
  0
MLINESTYLE
  5
18
102
{ACAD_REACTORS
330
17
102
}
330
17
100
AcDbMlineStyle
  2
Standard
 70
     0
  3

 62
   256
 51
90.0
 52
90.0
 71
     2
 49
0.5
 62
   256
  6
BYLAYER
 49
-0.5
 62
   256
  6
BYLAYER
  0
ACAD_PROXY_OBJECT
  5
2F
102
{ACAD_REACTORS
330
2A
102
}
330
2A
100
AcDbProxyObject
 90
      499
 91
      501
 93
      436
310
42CC9915DA5C99599C985B595049028333333333333E3BF0000000000000FB0107901411070040501600405405064090741402480A0340
1001
ACAD
1000
AcDbSavedByObjectVersion
1070
     0
  0
ACAD_PROXY_OBJECT
  5
30
102
{ACAD_REACTORS
330
2A
102
}
330
2A
100
AcDbProxyObject
 90
      499
 91
      501
 93
      436
310
42CCD915DA5C99599C985B595059028333333333333E3BF0000000000000FB0107901411070040501600405405064090741402480A0340
1001
ACAD
1000
AcDbSavedByObjectVersion
1070
     0
  0
ACAD_PROXY_OBJECT
  5
31
102
{ACAD_REACTORS
330
2A
102
}
330
2A
100
AcDbProxyObject
 90
      499
 91
      501
 93
      500
310
424CD108121A5919195B90640502408333333333333E3BF0000000000000FB01079024090700405020000000000001110200405405064090740C02480A0340
1001
ACAD
1000
AcDbSavedByObjectVersion
1070
     0
  0
ACAD_PROXY_OBJECT
  5
32
102
{ACAD_REACTORS
330
2A
102
}
330
2A
100
AcDbProxyObject
 90
      499
 91
      501
 93
      388
310
4150985CDA58D07406404333333333333E3BF0000000000000FB0107A41107004050150841D405064090741402480A0350
1001
ACAD
1000
AcDbSavedByObjectVersion
1070
     0
  0
ACAD_PROXY_OBJECT
  5
36
102
{ACAD_REACTORS
330
2A
102
}
330
2A
100
AcDbProxyObject
 90
      499
 91
      501
 93
      428
310
42109C9A59DA1D195B90C409028333333333333E3BF0000000000000FB010790141107004050150841D405064090741402480A029950
1001
ACAD
1000
AcDbSavedByObjectVersion
1070
     0
  0
ACAD_PROXY_OBJECT
  5
3A
102
{ACAD_REACTORS
330
2A
102
}
330
2A
100
AcDbProxyObject
 90
      499
 91
      501
 93
      452
310
42D0DBDB1BDC90DA185B99D95104090240C333333333333E3BF0000000000000FB0108901411070040501508421405064090741402480A0350
1001
ACAD
1000
AcDbSavedByObjectVersion
1070
     0
  0
ACAD_PROXY_OBJECT
  5
34
102
{ACAD_REACTORS
330
2A
102
}
330
2A
100
AcDbProxyObject
 90
      499
 91
      501
 93
      500
310
4290DBDB98D95C1D1D585B10940D028333333333333E3BF0000000000000FB0107902409070040501000000000000111010841D405064090740C02480A0340
1001
ACAD
1000
AcDbSavedByObjectVersion
1070
     0
  0
ACAD_PROXY_OBJECT
  5
35
102
{ACAD_REACTORS
330
2A
102
}
330
2A
100
AcDbProxyObject
 90
      499
 91
      501
 93
      412
310
40D11A5B50B409028333333333333E3BF0000000000000FB010790141107004050150841D405064090741402480A02677FFFFFD0
1001
ACAD
1000
AcDbSavedByObjectVersion
1070
     0
  0
ACAD_PROXY_OBJECT
  5
39
102
{ACAD_REACTORS
330
2A
102
}
330
2A
100
AcDbProxyObject
 90
      499
 91
      501
 93
      444
310
42D19858D95C185D1D195C9B90F409028333333333333E3BF0000000000000FB010790141107004050150841D405064090741402480A0350
1001
ACAD
1000
AcDbSavedByObjectVersion
1070
     0
  0
ACAD_PROXY_OBJECT
  5
2B
102
{ACAD_REACTORS
330
2A
102
}
330
2A
100
AcDbProxyObject
 90
      499
 91
      501
 93
      388
310
41119B185D240901404333333333333E3BF0000000000000F9010740A41107004050150841D405064090741402480A1B50
1001
ACAD
1000
AcDbSavedByObjectVersion
1070
     0
  0
ACAD_PROXY_OBJECT
  5
2C
102
{ACAD_REACTORS
330
2A
102
}
330
2A
100
AcDbProxyObject
 90
      499
 91
      501
 93
      476
310
43519B185D15DA5D1A115919D95CD0140901404333333333333E3BF0000000000000F9010740901411070040501600405405064090741402480A1B50
1001
ACAD
1000
AcDbSavedByObjectVersion
1070
     0
  0
ACAD_PROXY_OBJECT
  5
2D
102
{ACAD_REACTORS
330
2A
102
}
330
2A
100
AcDbProxyObject
 90
      499
 91
      501
 93
      412
310
41D1DBDD5C985D5910240902404333333333333E3BF0000000000000F9010740A411070040501641D405064090741402480A1B50
1001
ACAD
1000
AcDbSavedByObjectVersion
1070
     0
  0
ACAD_PROXY_OBJECT
  5
2E
102
{ACAD_REACTORS
330
2A
102
}
330
2A
100
AcDbProxyObject
 90
      499
 91
      501
 93
      500
310
4411DBDD5C985D5915DA5D1A115919D95CD0340902404333333333333E3BF0000000000000F9010740901411070040501600405405064090741402480A1B50
1001
ACAD
1000
AcDbSavedByObjectVersion
1070
     0
  0
ACAD_PROXY_OBJECT
  5
38
102
{ACAD_REACTORS
330
2A
102
}
330
2A
100
AcDbProxyObject
 90
      499
 91
      501
 93
      444
310
42D31A5B995C185D1D195C9B90E409028333333333333E3BF0000000000000FB010790141107004050750841D405064090741402483A0350
1001
ACAD
1000
AcDbSavedByObjectVersion
1070
     0
  0
ACAD_PROXY_OBJECT
  5
33
102
{ACAD_REACTORS
330
2A
102
}
330
2A
100
AcDbProxyObject
 90
      499
 91
      501
 93
      420
310
425499585B1A5CDD1A58D08409028333333333333E3BF0000000000000FB01079019070040501508421405064090741402480A1B40
1001
ACAD
1000
AcDbSavedByObjectVersion
1070
     0
  0
ACAD_PROXY_OBJECT
  5
37
102
{ACAD_REACTORS
330
2A
102
}
330
2A
100
AcDbProxyObject
 90
      499
 91
      501
 93
      412
310
41D51A1A58DAD95B90D409028333333333333E3BF0000000000000FB010790141107004050150C41D405064090741402480A0350
1001
ACAD
1000
AcDbSavedByObjectVersion
1070
     0
  0
XRECORD
  5
C9
102
{ACAD_REACTORS
330
C0
102
}
330
C0
100
AcDbXrecord
 90
        0
  0
XRECORD
  5
DF
102
{ACAD_REACTORS
330
C0
102
}
330
C0
100
AcDbXrecord
1000
DSTYLE
1002
{
1070
   340
340
11
1002
}
  0
XRECORD
  5
CA
102
{ACAD_REACTORS
330
C0
102
}
330
C0
100
AcDbXrecord
  1
{7A15E212-38B0-238D-03EA-F4B9C2947543}
  0
XRECORD
  5
C3
102
{ACAD_REACTORS
330
C0
102
}
330
C0
100
AcDbXrecord
  1

  0
XRECORD
  5
C8
102
{ACAD_REACTORS
330
C0
102
}
330
C0
100
AcDbXrecord
 90
        4
  0
XRECORD
  5
C5
102
{ACAD_REACTORS
330
C0
102
}
330
C0
100
AcDbXrecord
340
1A
  0
XRECORD
  5
C7
102
{ACAD_REACTORS
330
C0
102
}
330
C0
100
AcDbXrecord
 90
    10269
  0
XRECORD
  5
C6
102
{ACAD_REACTORS
330
C0
102
}
330
C0
100
AcDbXrecord
340
19
  0
XRECORD
  5
CC
102
{ACAD_REACTORS
330
C0
102
}
330
C0
100
AcDbXrecord
 40
0.0
  0
XRECORD
  5
CF
102
{ACAD_REACTORS
330
C0
102
}
330
C0
100
AcDbXrecord
340
0
  0
XRECORD
  5
D5
102
{ACAD_REACTORS
330
C0
102
}
330
C0
100
AcDbXrecord
 10
0.0
 20
0.0
 30
0.0
  0
XRECORD
  5
D1
102
{ACAD_REACTORS
330
C0
102
}
330
C0
100
AcDbXrecord
 10
0.0
 20
0.0
 30
0.0
  0
XRECORD
  5
D4
102
{ACAD_REACTORS
330
C0
102
}
330
C0
100
AcDbXrecord
 10
0.0
 20
0.0
 30
0.0
  0
XRECORD
  5
D2
102
{ACAD_REACTORS
330
C0
102
}
330
C0
100
AcDbXrecord
 10
0.0
 20
0.0
 30
0.0
  0
XRECORD
  5
D3
102
{ACAD_REACTORS
330
C0
102
}
330
C0
100
AcDbXrecord
 10
0.0
 20
0.0
 30
0.0
  0
XRECORD
  5
D0
102
{ACAD_REACTORS
330
C0
102
}
330
C0
100
AcDbXrecord
 10
0.0
 20
0.0
 30
0.0
  0
XRECORD
  5
CD
102
{ACAD_REACTORS
330
C0
102
}
330
C0
100
AcDbXrecord
340
0
  0
XRECORD
  5
CE
102
{ACAD_REACTORS
330
C0
102
}
330
C0
100
AcDbXrecord
 70
     0
  0
XRECORD
  5
C4
102
{ACAD_REACTORS
330
C0
102
}
330
C0
100
AcDbXrecord
  1

  0
XRECORD
  5
C1
102
{ACAD_REACTORS
330
C0
102
}
330
C0
100
AcDbXrecord
 90
        1
  0
XRECORD
  5
C2
102
{ACAD_REACTORS
330
C0
102
}
330
C0
100
AcDbXrecord
 90
       70
  0
XRECORD
  5
D8
102
{ACAD_REACTORS
330
C0
102
}
330
C0
100
AcDbXrecord
340
0
  0
XRECORD
  5
DE
102
{ACAD_REACTORS
330
C0
102
}
330
C0
100
AcDbXrecord
 10
0.0
 20
0.0
 30
0.0
  0
XRECORD
  5
DA
102
{ACAD_REACTORS
330
C0
102
}
330
C0
100
AcDbXrecord
 10
0.0
 20
0.0
 30
0.0
  0
XRECORD
  5
DD
102
{ACAD_REACTORS
330
C0
102
}
330
C0
100
AcDbXrecord
 10
0.0
 20
0.0
 30
0.0
  0
XRECORD
  5
DB
102
{ACAD_REACTORS
330
C0
102
}
330
C0
100
AcDbXrecord
 10
0.0
 20
0.0
 30
0.0
  0
XRECORD
  5
DC
102
{ACAD_REACTORS
330
C0
102
}
330
C0
100
AcDbXrecord
 10
0.0
 20
0.0
 30
0.0
  0
XRECORD
  5
D9
102
{ACAD_REACTORS
330
C0
102
}
330
C0
100
AcDbXrecord
 10
0.0
 20
0.0
 30
0.0
  0
XRECORD
  5
D6
102
{ACAD_REACTORS
330
C0
102
}
330
C0
100
AcDbXrecord
340
0
  0
XRECORD
  5
D7
102
{ACAD_REACTORS
330
C0
102
}
330
C0
100
AcDbXrecord
 70
     0
  0
XRECORD
  5
CB
102
{ACAD_REACTORS
330
C0
102
}
330
C0
100
AcDbXrecord
  1
{FAEB1C32-E019-11D5-929B-00C0DF256EC4}
  0
DICTIONARYVAR
  5
E3
102
{ACAD_REACTORS
330
E0
102
}
330
E0
100
DictionaryVariables
280
     0
  1
2
  0
DICTIONARYVAR
  5
E4
102
{ACAD_REACTORS
330
E0
102
}
330
E0
100
DictionaryVariables
280
     0
  1
1
  0
DICTIONARY
  5
E7
330
3D
100
AcDbDictionary
280
     1
  3
ACAD_XREC_ROUNDTRIP
360
E8
  0
DICTIONARY
  5
E5
330
3C
100
AcDbDictionary
280
     1
  3
ACAD_XREC_ROUNDTRIP
360
E6
  0
DICTIONARY
  5
E9
330
3E
100
AcDbDictionary
280
     1
  3
ACAD_XREC_ROUNDTRIP
360
EA
  0
XRECORD
  5
E8
102
{ACAD_REACTORS
330
E7
102
}
330
E7
100
AcDbXrecord
102
MATERIAL
148
0.0
149
0.0
149
0.0
 93
        0
 94
      127
282
     0
 72
     1
 77
     1
171
     1
175
     1
179
     1
273
     0
  0
XRECORD
  5
E6
102
{ACAD_REACTORS
330
E5
102
}
330
E5
100
AcDbXrecord
102
MATERIAL
148
0.0
149
0.0
149
0.0
 93
        0
 94
      127
282
     0
 72
     1
 77
     1
171
     1
175
     1
179
     1
273
     0
  0
XRECORD
  5
EA
102
{ACAD_REACTORS
330
E9
102
}
330
E9
100
AcDbXrecord
102
MATERIAL
148
0.0
149
0.0
149
0.0
 93
        0
 94
      127
282
     0
 72
     1
 77
     1
171
     1
175
     1
179
     1
273
     0
  0
ENDSEC
  0
EOF
