  0
SECTION
  2
HEADER
  9
$ACADVER
  1
AC1014
  9
$ACADMAINTVER
 70
     9
  9
$DWGCODEPAGE
  3
UNDEFINED
  9
$INSBASE
 10
0.0
 20
0.0
 30
0.0
  9
$EXTMIN
 10
1.000000000000000E+20
 20
1.000000000000000E+20
 30
1.000000000000000E+20
  9
$EXTMAX
 10
-1.000000000000000E+20
 20
-1.000000000000000E+20
 30
-1.000000000000000E+20
  9
$LIMMIN
 10
0.0
 20
0.0
  9
$LIMMAX
 10
12.0
 20
9.0
  9
$ORTHOMODE
 70
     0
  9
$REGENMODE
 70
     1
  9
$FILLMODE
 70
     1
  9
$QTEXTMODE
 70
     0
  9
$MIRRTEXT
 70
     1
  9
$DRAGMODE
 70
     2
  9
$LTSCALE
 40
1.0
  9
$OSMODE
 70
    37
  9
$ATTMODE
 70
     1
  9
$TEXTSIZE
 40
0.2
  9
$TRACEWID
 40
0.05
  9
$TEXTSTYLE
  7
STANDARD
  9
$CLAYER
  8
0
  9
$CELTYPE
  6
BYLAYER
  9
$CECOLOR
 62
   256
  9
$CELTSCALE
 40
1.0
  9
$DELOBJ
 70
     1
  9
$DISPSILH
 70
     0
  9
$DIMSCALE
 40
1.0
  9
$DIMASZ
 40
0.18
  9
$DIMEXO
 40
0.0625
  9
$DIMDLI
 40
0.38
  9
$DIMRND
 40
0.0
  9
$DIMDLE
 40
0.0
  9
$DIMEXE
 40
0.18
  9
$DIMTP
 40
0.0
  9
$DIMTM
 40
0.0
  9
$DIMTXT
 40
0.18
  9
$DIMCEN
 40
0.09
  9
$DIMTSZ
 40
0.0
  9
$DIMTOL
 70
     0
  9
$DIMLIM
 70
     0
  9
$DIMTIH
 70
     1
  9
$DIMTOH
 70
     1
  9
$DIMSE1
 70
     0
  9
$DIMSE2
 70
     0
  9
$DIMTAD
 70
     0
  9
$DIMZIN
 70
     0
  9
$DIMBLK
  1

  9
$DIMASO
 70
     1
  9
$DIMSHO
 70
     1
  9
$DIMPOST
  1

  9
$DIMAPOST
  1

  9
$DIMALT
 70
     0
  9
$DIMALTD
 70
     2
  9
$DIMALTF
 40
25.4
  9
$DIMLFAC
 40
1.0
  9
$DIMTOFL
 70
     0
  9
$DIMTVP
 40
0.0
  9
$DIMTIX
 70
     0
  9
$DIMSOXD
 70
     0
  9
$DIMSAH
 70
     0
  9
$DIMBLK1
  1

  9
$DIMBLK2
  1

  9
$DIMSTYLE
  2
STANDARD
  9
$DIMCLRD
 70
     0
  9
$DIMCLRE
 70
     0
  9
$DIMCLRT
 70
     0
  9
$DIMTFAC
 40
1.0
  9
$DIMGAP
 40
0.09
  9
$DIMJUST
 70
     0
  9
$DIMSD1
 70
     0
  9
$DIMSD2
 70
     0
  9
$DIMTOLJ
 70
     1
  9
$DIMTZIN
 70
     0
  9
$DIMALTZ
 70
     0
  9
$DIMALTTZ
 70
     0
  9
$DIMFIT
 70
     3
  9
$DIMUPT
 70
     0
  9
$DIMUNIT
 70
     2
  9
$DIMDEC
 70
     4
  9
$DIMTDEC
 70
     4
  9
$DIMALTU
 70
     2
  9
$DIMALTTD
 70
     2
  9
$DIMTXSTY
  7
STANDARD
  9
$DIMAUNIT
 70
     0
  9
$LUNITS
 70
     2
  9
$LUPREC
 70
     4
  9
$SKETCHINC
 40
0.1
  9
$FILLETRAD
 40
0.5
  9
$AUNITS
 70
     0
  9
$AUPREC
 70
     0
  9
$MENU
  1
.
  9
$ELEVATION
 40
0.0
  9
$PELEVATION
 40
0.0
  9
$THICKNESS
 40
0.0
  9
$LIMCHECK
 70
     0
  9
$CHAMFERA
 40
0.5
  9
$CHAMFERB
 40
0.5
  9
$CHAMFERC
 40
1.0
  9
$CHAMFERD
 40
0.0
  9
$SKPOLY
 70
     0
  9
$TDCREATE
 40
2458968.624131944
  9
$TDUPDATE
 40
2458968.624131944
  9
$TDINDWG
 40
0.0000000116
  9
$TDUSRTIMER
 40
0.0000000116
  9
$USRTIMER
 70
     1
  9
$ANGBASE
 50
0.0
  9
$ANGDIR
 70
     0
  9
$PDMODE
 70
     0
  9
$PDSIZE
 40
0.0
  9
$PLINEWID
 40
0.0
  9
$COORDS
 70
     1
  9
$SPLFRAME
 70
     0
  9
$SPLINETYPE
 70
     6
  9
$SPLINESEGS
 70
     8
  9
$ATTDIA
 70
     0
  9
$ATTREQ
 70
     1
  9
$HANDLING
 70
     1
  9
$HANDSEED
  5
FD
  9
$SURFTAB1
 70
     6
  9
$SURFTAB2
 70
     6
  9
$SURFTYPE
 70
     6
  9
$SURFU
 70
     6
  9
$SURFV
 70
     6
  9
$UCSNAME
  2

  9
$UCSORG
 10
0.0
 20
0.0
 30
0.0
  9
$UCSXDIR
 10
1.0
 20
0.0
 30
0.0
  9
$UCSYDIR
 10
0.0
 20
1.0
 30
0.0
  9
$PUCSNAME
  2

  9
$PUCSORG
 10
0.0
 20
0.0
 30
0.0
  9
$PUCSXDIR
 10
1.0
 20
0.0
 30
0.0
  9
$PUCSYDIR
 10
0.0
 20
1.0
 30
0.0
  9
$USERI1
 70
     0
  9
$USERI2
 70
     0
  9
$USERI3
 70
     0
  9
$USERI4
 70
     0
  9
$USERI5
 70
     0
  9
$USERR1
 40
0.0
  9
$USERR2
 40
0.0
  9
$USERR3
 40
0.0
  9
$USERR4
 40
0.0
  9
$USERR5
 40
0.0
  9
$WORLDVIEW
 70
     1
  9
$SHADEDGE
 70
     3
  9
$SHADEDIF
 70
    70
  9
$TILEMODE
 70
     1
  9
$MAXACTVP
 70
    64
  9
$PINSBASE
 10
0.0
 20
0.0
 30
0.0
  9
$PLIMCHECK
 70
     0
  9
$PEXTMIN
 10
1.000000000000000E+20
 20
1.000000000000000E+20
 30
1.000000000000000E+20
  9
$PEXTMAX
 10
-1.000000000000000E+20
 20
-1.000000000000000E+20
 30
-1.000000000000000E+20
  9
$PLIMMIN
 10
0.0
 20
0.0
  9
$PLIMMAX
 10
12.0
 20
9.0
  9
$UNITMODE
 70
     0
  9
$VISRETAIN
 70
     1
  9
$PLINEGEN
 70
     0
  9
$PSLTSCALE
 70
     1
  9
$TREEDEPTH
 70
  3020
  9
$PICKSTYLE
 70
     1
  9
$CMLSTYLE
  2
STANDARD
  9
$CMLJUST
 70
     0
  9
$CMLSCALE
 40
1.0
  9
$PROXYGRAPHICS
 70
     1
  9
$MEASUREMENT
 70
     0
  0
ENDSEC
  0
SECTION
  2
CLASSES
  0
CLASS
  1
ACDBDICTIONARYWDFLT
  2
AcDbDictionaryWithDefault
  3
ObjectDBX Classes
 90
        0
280
     0
281
     0
  0
CLASS
  1
VISUALSTYLE
  2
AcDbVisualStyle
  3
ObjectDBX Classes
 90
     4095
280
     0
281
     0
  0
CLASS
  1
MATERIAL
  2
AcDbMaterial
  3
ObjectDBX Classes
 90
     1153
280
     0
281
     0
  0
CLASS
  1
SUN
  2
AcDbSun
  3
SCENEOE
 90
     1024
280
     0
281
     0
  0
CLASS
  1
DICTIONARYVAR
  2
AcDbDictionaryVar
  3
ObjectDBX Classes
 90
        0
280
     0
281
     0
  0
CLASS
  1
XRECORD
  2
AcDbXrecord
  3
AutoCAD 2000
 90
        0
280
     0
281
     0
  0
CLASS
  1
LWPOLYLINE
  2
AcDbPolyline
  3
AutoCAD 2000
 90
        0
280
     0
281
     1
  0
CLASS
  1
HATCH
  2
AcDbHatch
  3
AutoCAD 2000
 90
        0
280
     0
281
     1
  0
CLASS
  1
ACDBPLACEHOLDER
  2
AcDbPlaceHolder
  3
ObjectDBX Classes
 90
        0
280
     0
281
     0
  0
CLASS
  1
LAYOUT
  2
AcDbLayout
  3
ObjectDBX Classes
 90
        0
280
     0
281
     0
  0
ENDSEC
  0
SECTION
  2
TABLES
  0
TABLE
  2
VPORT
  5
8
330
0
100
AcDbSymbolTable
 70
     1
  0
VPORT
  5
29
330
8
100
AcDbSymbolTableRecord
100
AcDbViewportTableRecord
  2
*ACTIVE
 70
     0
 10
0.0
 20
0.0
 11
1.0
 21
1.0
 12
0.0
 22
0.0
 13
0.0
 23
0.0
 14
0.5
 24
0.5
 15
0.5
 25
0.5
 16
0.0
 26
0.0
 36
1.0
 17
104.9999989878935
 27
148.4996183011652
 37
0.0
 40
297.0000052006764
 41
0.7070706878738762
 42
50.0
 43
0.0
 44
0.0
 50
0.0
 51
0.0
 71
     0
 72
   100
 73
     1
 74
     3
 75
     0
 76
     0
 77
     0
 78
     0
  0
ENDTAB
  0
TABLE
  2
LTYPE
  5
5
330
0
100
AcDbSymbolTable
 70
     1
  0
LTYPE
  5
14
330
5
100
AcDbSymbolTableRecord
100
AcDbLinetypeTableRecord
  2
BYBLOCK
 70
     0
  3

 72
    65
 73
     0
 40
0.0
  0
LTYPE
  5
15
330
5
100
AcDbSymbolTableRecord
100
AcDbLinetypeTableRecord
  2
BYLAYER
 70
     0
  3

 72
    65
 73
     0
 40
0.0
  0
LTYPE
  5
16
330
5
100
AcDbSymbolTableRecord
100
AcDbLinetypeTableRecord
  2
CONTINUOUS
 70
     0
  3
Solid line
 72
    65
 73
     0
 40
0.0
  0
ENDTAB
  0
TABLE
  2
LAYER
  5
2
330
0
100
AcDbSymbolTable
 70
    14
  0
LAYER
  5
10
330
2
100
AcDbSymbolTableRecord
100
AcDbLayerTableRecord
  2
0
 70
     0
 62
     7
  6
CONTINUOUS
  0
LAYER
  5
40
330
2
100
AcDbSymbolTableRecord
100
AcDbLayerTableRecord
  2
OUTLINE
 70
     5
 62
     7
  6
CONTINUOUS
  0
LAYER
  5
41
330
2
100
AcDbSymbolTableRecord
100
AcDbLayerTableRecord
  2
OUTLINE_U_306E_U_30B3_U_30
 70
     4
 62
     7
  6
CONTINUOUS
  0
LAYER
  5
42
330
2
100
AcDbSymbolTableRecord
100
AcDbLayerTableRecord
  2
L2-SILK
 70
     5
 62
     7
  6
CONTINUOUS
  0
LAYER
  5
43
330
2
100
AcDbSymbolTableRecord
100
AcDbLayerTableRecord
  2
L2-PATTERN
 70
     5
 62
     7
  6
CONTINUOUS
  0
LAYER
  5
44
330
2
100
AcDbSymbolTableRecord
100
AcDbLayerTableRecord
  2
L2-RESIST
 70
     5
 62
     7
  6
CONTINUOUS
  0
LAYER
  5
45
330
2
100
AcDbSymbolTableRecord
100
AcDbLayerTableRecord
  2
L1-PATTERN
 70
     5
 62
     7
  6
CONTINUOUS
  0
LAYER
  5
46
330
2
100
AcDbSymbolTableRecord
100
AcDbLayerTableRecord
  2
L1-RESIST
 70
     5
 62
     7
  6
CONTINUOUS
  0
LAYER
  5
47
330
2
100
AcDbSymbolTableRecord
100
AcDbLayerTableRecord
  2
L1-SILK
 70
     5
 62
     7
  6
CONTINUOUS
  0
LAYER
  5
48
330
2
100
AcDbSymbolTableRecord
100
AcDbLayerTableRecord
  2
DRILL
 70
     5
 62
     7
  6
CONTINUOUS
  0
LAYER
  5
49
330
2
100
AcDbSymbolTableRecord
100
AcDbLayerTableRecord
  2
HANE
 70
     0
 62
     7
  6
CONTINUOUS
  0
LAYER
  5
CF
330
2
100
AcDbSymbolTableRecord
100
AcDbLayerTableRecord
  2
H1
 70
     4
 62
     7
  6
CONTINUOUS
  0
LAYER
  5
D0
330
2
100
AcDbSymbolTableRecord
100
AcDbLayerTableRecord
  2
L2-RESIST_U_306E_U_30B3_U_
 70
     0
 62
     7
  6
CONTINUOUS
  0
LAYER
  5
D1
330
2
100
AcDbSymbolTableRecord
100
AcDbLayerTableRecord
  2
H2
 70
     0
 62
     7
  6
CONTINUOUS
  0
ENDTAB
  0
TABLE
  2
STYLE
  5
3
330
0
100
AcDbSymbolTable
 70
     1
  0
STYLE
  5
11
330
3
100
AcDbSymbolTableRecord
100
AcDbTextStyleTableRecord
  2
STANDARD
 70
     0
 40
0.0
 41
1.0
 50
0.0
 71
     0
 42
0.2
  3
txt
  4

  0
ENDTAB
  0
TABLE
  2
VIEW
  5
6
330
0
100
AcDbSymbolTable
 70
     0
  0
ENDTAB
  0
TABLE
  2
UCS
  5
7
330
0
100
AcDbSymbolTable
 70
     0
  0
ENDTAB
  0
TABLE
  2
APPID
  5
9
330
0
100
AcDbSymbolTable
 70
     1
  0
APPID
  5
12
330
9
100
AcDbSymbolTableRecord
100
AcDbRegAppTableRecord
  2
ACAD
 70
     0
  0
ENDTAB
  0
TABLE
  2
DIMSTYLE
  5
A
330
0
100
AcDbSymbolTable
 70
     1
  0
DIMSTYLE
105
27
330
A
100
AcDbSymbolTableRecord
100
AcDbDimStyleTableRecord
  2
STANDARD
 70
     0
  3

  4

  5

  6

  7

 40
1.0
 41
0.18
 42
0.0625
 43
0.38
 44
0.18
 45
0.0
 46
0.0
 47
0.0
 48
0.0
140
0.18
141
0.09
142
0.0
143
25.4
144
1.0
145
0.0
146
1.0
147
0.09
 71
     0
 72
     0
 73
     1
 74
     1
 75
     0
 76
     0
 77
     0
 78
     0
170
     0
171
     2
172
     0
173
     0
174
     0
175
     0
176
     0
177
     0
178
     0
270
     2
271
     4
272
     4
273
     2
274
     2
340
11
275
     0
280
     0
281
     0
282
     0
283
     1
284
     0
285
     0
286
     0
287
     3
288
     0
  0
ENDTAB
  0
TABLE
  2
BLOCK_RECORD
  5
1
330
0
100
AcDbSymbolTable
 70
     1
  0
BLOCK_RECORD
  5
1F
330
1
100
AcDbSymbolTableRecord
100
AcDbBlockTableRecord
  2
*MODEL_SPACE
  0
BLOCK_RECORD
  5
1B
330
1
100
AcDbSymbolTableRecord
100
AcDbBlockTableRecord
  2
*PAPER_SPACE
  0
ENDTAB
  0
ENDSEC
  0
SECTION
  2
BLOCKS
  0
BLOCK
  5
20
330
1F
100
AcDbEntity
  8
0
100
AcDbBlockBegin
  2
*MODEL_SPACE
 70
     0
 10
0.0
 20
0.0
 30
0.0
  3
*MODEL_SPACE
  1

  0
ENDBLK
  5
21
330
1F
100
AcDbEntity
  8
0
100
AcDbBlockEnd
  0
BLOCK
  5
1C
330
1B
100
AcDbEntity
 67
     1
  8
0
100
AcDbBlockBegin
  2
*PAPER_SPACE
 70
     0
 10
0.0
 20
0.0
 30
0.0
  3
*PAPER_SPACE
  1

  0
ENDBLK
  5
1D
330
1B
100
AcDbEntity
 67
     1
  8
0
100
AcDbBlockEnd
  0
ENDSEC
  0
SECTION
  2
ENTITIES
  0
POLYLINE
  5
4A
330
1F
100
AcDbEntity
  8
HANE
100
AcDb2dPolyline
 66
     1
 10
0.0
 20
0.0
 30
0.0
  0
VERTEX
  5
4B
330
4A
100
AcDbEntity
  8
HANE
100
AcDbVertex
100
AcDb2dVertex
 10
11.22867393109612
 20
46.45496290166252
 30
0.0
  0
VERTEX
  5
4C
330
4A
100
AcDbEntity
  8
HANE
100
AcDbVertex
100
AcDb2dVertex
 10
11.22987778523208
 20
46.45582279747359
 30
0.0
  0
VERTEX
  5
4D
330
4A
100
AcDbEntity
  8
HANE
100
AcDbVertex
100
AcDb2dVertex
 10
11.23108163936803
 20
46.45668269328531
 30
0.0
  0
VERTEX
  5
4E
330
4A
100
AcDbEntity
  8
HANE
100
AcDbVertex
100
AcDb2dVertex
 10
11.23228549350399
 20
46.45754258909702
 30
0.0
  0
VERTEX
  5
4F
330
4A
100
AcDbEntity
  8
HANE
100
AcDbVertex
100
AcDb2dVertex
 10
11.23348934763994
 20
46.4584024849081
 30
0.0
  0
VERTEX
  5
50
330
4A
100
AcDbEntity
  8
HANE
100
AcDbVertex
100
AcDb2dVertex
 10
11.23469320177589
 20
46.45926238071917
 30
0.0
  0
VERTEX
  5
51
330
4A
100
AcDbEntity
  8
HANE
100
AcDbVertex
100
AcDb2dVertex
 10
11.23589705591185
 20
46.46012227653025
 30
0.0
  0
VERTEX
  5
52
330
4A
100
AcDbEntity
  8
HANE
100
AcDbVertex
100
AcDb2dVertex
 10
11.2371009100478
 20
46.46098217234132
 30
0.0
  0
VERTEX
  5
53
330
4A
100
AcDbEntity
  8
HANE
100
AcDbVertex
100
AcDb2dVertex
 10
11.23830476418375
 20
46.46184206815304
 30
0.0
  0
VERTEX
  5
54
330
4A
100
AcDbEntity
  8
HANE
100
AcDbVertex
100
AcDb2dVertex
 10
12.20928106211179
 20
47.28725171669181
 30
0.0
  0
VERTEX
  5
55
330
4A
100
AcDbEntity
  8
HANE
100
AcDbVertex
100
AcDb2dVertex
 10
12.99831415504614
 20
48.25157463968054
 30
0.0
  0
VERTEX
  5
56
330
4A
100
AcDbEntity
  8
HANE
100
AcDbVertex
100
AcDb2dVertex
 10
13.62170651001865
 20
49.27829705977587
 30
0.0
  0
VERTEX
  5
57
330
4A
100
AcDbEntity
  8
HANE
100
AcDbVertex
100
AcDb2dVertex
 10
14.09576059406176
 20
50.29090519963249
 30
0.0
  0
VERTEX
  5
58
330
4A
100
AcDbEntity
  8
HANE
100
AcDbVertex
100
AcDb2dVertex
 10
14.436778874207
 20
51.21288528190512
 30
0.0
  0
VERTEX
  5
59
330
4A
100
AcDbEntity
  8
HANE
100
AcDbVertex
100
AcDb2dVertex
 10
14.66106381748682
 20
51.96772352924908
 30
0.0
  0
VERTEX
  5
5A
330
4A
100
AcDbEntity
  8
HANE
100
AcDbVertex
100
AcDb2dVertex
 10
14.78491789093305
 20
52.4789061643191
 30
0.0
  0
VERTEX
  5
5B
330
4A
100
AcDbEntity
  8
HANE
100
AcDbVertex
100
AcDb2dVertex
 10
14.82464356157752
 20
52.66991940977179
 30
0.0
  0
VERTEX
  5
5C
330
4A
100
AcDbEntity
  8
HANE
100
AcDbVertex
100
AcDb2dVertex
 10
14.82843592259188
 20
52.69153586755365
 30
0.0
  0
VERTEX
  5
5D
330
4A
100
AcDbEntity
  8
HANE
100
AcDbVertex
100
AcDb2dVertex
 10
14.83222828360624
 20
52.7131523253355
 30
0.0
  0
VERTEX
  5
5E
330
4A
100
AcDbEntity
  8
HANE
100
AcDbVertex
100
AcDb2dVertex
 10
14.8360206446206
 20
52.73476878311735
 30
0.0
  0
VERTEX
  5
5F
330
4A
100
AcDbEntity
  8
HANE
100
AcDbVertex
100
AcDb2dVertex
 10
14.83981300563496
 20
52.7563852408992
 30
0.0
  0
VERTEX
  5
60
330
4A
100
AcDbEntity
  8
HANE
100
AcDbVertex
100
AcDb2dVertex
 10
14.84360536664932
 20
52.77800169868105
 30
0.0
  0
VERTEX
  5
61
330
4A
100
AcDbEntity
  8
HANE
100
AcDbVertex
100
AcDb2dVertex
 10
14.84739772766368
 20
52.79961815646291
 30
0.0
  0
VERTEX
  5
62
330
4A
100
AcDbEntity
  8
HANE
100
AcDbVertex
100
AcDb2dVertex
 10
14.85119008867804
 20
52.82123461424475
 30
0.0
  0
VERTEX
  5
63
330
4A
100
AcDbEntity
  8
HANE
100
AcDbVertex
100
AcDb2dVertex
 10
14.8549824496924
 20
52.8428510720266
 30
0.0
  0
VERTEX
  5
64
330
4A
100
AcDbEntity
  8
HANE
100
AcDbVertex
100
AcDb2dVertex
 10
14.83362175579291
 20
52.84672721776137
 30
0.0
  0
VERTEX
  5
65
330
4A
100
AcDbEntity
  8
HANE
100
AcDbVertex
100
AcDb2dVertex
 10
14.81226106189342
 20
52.85060336349549
 30
0.0
  0
VERTEX
  5
66
330
4A
100
AcDbEntity
  8
HANE
100
AcDbVertex
100
AcDb2dVertex
 10
14.79090036799393
 20
52.85447950923026
 30
0.0
  0
VERTEX
  5
67
330
4A
100
AcDbEntity
  8
HANE
100
AcDbVertex
100
AcDb2dVertex
 10
14.76953967409445
 20
52.85835565496502
 30
0.0
  0
VERTEX
  5
68
330
4A
100
AcDbEntity
  8
HANE
100
AcDbVertex
100
AcDb2dVertex
 10
14.74817898019496
 20
52.86223180069915
 30
0.0
  0
VERTEX
  5
69
330
4A
100
AcDbEntity
  8
HANE
100
AcDbVertex
100
AcDb2dVertex
 10
14.72681828629547
 20
52.86610794643391
 30
0.0
  0
VERTEX
  5
6A
330
4A
100
AcDbEntity
  8
HANE
100
AcDbVertex
100
AcDb2dVertex
 10
14.70545759239598
 20
52.86998409216868
 30
0.0
  0
VERTEX
  5
6B
330
4A
100
AcDbEntity
  8
HANE
100
AcDbVertex
100
AcDb2dVertex
 10
14.6840968984965
 20
52.8738602379028
 30
0.0
  0
VERTEX
  5
6C
330
4A
100
AcDbEntity
  8
HANE
100
AcDbVertex
100
AcDb2dVertex
 10
14.41577502673247
 20
52.95507491682065
 30
0.0
  0
VERTEX
  5
6D
330
4A
100
AcDbEntity
  8
HANE
100
AcDbVertex
100
AcDb2dVertex
 10
14.11873141529442
 20
53.10937908606056
 30
0.0
  0
VERTEX
  5
6E
330
4A
100
AcDbEntity
  8
HANE
100
AcDbVertex
100
AcDb2dVertex
 10
13.79638127681337
 20
53.33531919097322
 30
0.0
  0
VERTEX
  5
6F
330
4A
100
AcDbEntity
  8
HANE
100
AcDbVertex
100
AcDb2dVertex
 10
13.45213982392033
 20
53.63144167690798
 30
0.0
  0
VERTEX
  5
70
330
4A
100
AcDbEntity
  8
HANE
100
AcDbVertex
100
AcDb2dVertex
 10
13.08942226924632
 20
53.99629298921425
 30
0.0
  0
VERTEX
  5
71
330
4A
100
AcDbEntity
  8
HANE
100
AcDbVertex
100
AcDb2dVertex
 10
12.71164382542236
 20
54.42841957324205
 30
0.0
  0
VERTEX
  5
72
330
4A
100
AcDbEntity
  8
HANE
100
AcDbVertex
100
AcDb2dVertex
 10
12.32221970507978
 20
54.92636787434012
 30
0.0
  0
VERTEX
  5
73
330
4A
100
AcDbEntity
  8
HANE
100
AcDbVertex
100
AcDb2dVertex
 10
11.92456512084929
 20
55.48868433785911
 30
0.0
  0
VERTEX
  5
74
330
4A
100
AcDbEntity
  8
HANE
100
AcDbVertex
100
AcDb2dVertex
 10
11.28421149696937
 20
56.49410697334105
 30
0.0
  0
VERTEX
  5
75
330
4A
100
AcDbEntity
  8
HANE
100
AcDbVertex
100
AcDb2dVertex
 10
10.6334619600385
 20
57.64453739483768
 30
0.0
  0
VERTEX
  5
76
330
4A
100
AcDbEntity
  8
HANE
100
AcDbVertex
100
AcDb2dVertex
 10
9.979845952093834
 20
58.93331430369008
 30
0.0
  0
VERTEX
  5
77
330
4A
100
AcDbEntity
  8
HANE
100
AcDbVertex
100
AcDb2dVertex
 10
9.330892915173207
 20
60.35377640123995
 30
0.0
  0
VERTEX
  5
78
330
4A
100
AcDbEntity
  8
HANE
100
AcDbVertex
100
AcDb2dVertex
 10
8.69413229131411
 20
61.89926238883028
 30
0.0
  0
VERTEX
  5
79
330
4A
100
AcDbEntity
  8
HANE
100
AcDbVertex
100
AcDb2dVertex
 10
8.077093522554362
 20
63.56311096780087
 30
0.0
  0
VERTEX
  5
7A
330
4A
100
AcDbEntity
  8
HANE
100
AcDbVertex
100
AcDb2dVertex
 10
7.487306050931783
 20
65.33866083949533
 30
0.0
  0
VERTEX
  5
7B
330
4A
100
AcDbEntity
  8
HANE
100
AcDbVertex
100
AcDb2dVertex
 10
6.93229931848355
 20
67.2192507052541
 30
0.0
  0
VERTEX
  5
7C
330
4A
100
AcDbEntity
  8
HANE
100
AcDbVertex
100
AcDb2dVertex
 10
6.686130233509491
 20
68.15314902942809
 30
0.0
  0
VERTEX
  5
7D
330
4A
100
AcDbEntity
  8
HANE
100
AcDbVertex
100
AcDb2dVertex
 10
6.459932642166452
 20
69.11470505243574
 30
0.0
  0
VERTEX
  5
7E
330
4A
100
AcDbEntity
  8
HANE
100
AcDbVertex
100
AcDb2dVertex
 10
6.258623246803507
 20
70.09778958664636
 30
0.0
  0
VERTEX
  5
7F
330
4A
100
AcDbEntity
  8
HANE
100
AcDbVertex
100
AcDb2dVertex
 10
6.087118749768125
 20
71.0962734444299
 30
0.0
  0
VERTEX
  5
80
330
4A
100
AcDbEntity
  8
HANE
100
AcDbVertex
100
AcDb2dVertex
 10
5.950335853409702
 20
72.10402743815568
 30
0.0
  0
VERTEX
  5
81
330
4A
100
AcDbEntity
  8
HANE
100
AcDbVertex
100
AcDb2dVertex
 10
5.85319126007635
 20
73.11492238019366
 30
0.0
  0
VERTEX
  5
82
330
4A
100
AcDbEntity
  8
HANE
100
AcDbVertex
100
AcDb2dVertex
 10
5.800601672116822
 20
74.12282908291252
 30
0.0
  0
VERTEX
  5
83
330
4A
100
AcDbEntity
  8
HANE
100
AcDbVertex
100
AcDb2dVertex
 10
5.79748379187955
 20
75.12161835868282
 30
0.0
  0
VERTEX
  5
84
330
4A
100
AcDbEntity
  8
HANE
100
AcDbVertex
100
AcDb2dVertex
 10
5.794984650775739
 20
75.1596310134191
 30
0.0
  0
VERTEX
  5
85
330
4A
100
AcDbEntity
  8
HANE
100
AcDbVertex
100
AcDb2dVertex
 10
5.795058995934507
 20
75.24658616673372
 30
0.0
  0
VERTEX
  5
86
330
4A
100
AcDbEntity
  8
HANE
100
AcDbVertex
100
AcDb2dVertex
 10
5.794340417936322
 20
75.3705088896418
 30
0.0
  0
VERTEX
  5
87
330
4A
100
AcDbEntity
  8
HANE
100
AcDbVertex
100
AcDb2dVertex
 10
5.789462507361968
 20
75.51942425315713
 30
0.0
  0
VERTEX
  5
88
330
4A
100
AcDbEntity
  8
HANE
100
AcDbVertex
100
AcDb2dVertex
 10
5.777058854792232
 20
75.68135732829485
 30
0.0
  0
VERTEX
  5
89
330
4A
100
AcDbEntity
  8
HANE
100
AcDbVertex
100
AcDb2dVertex
 10
5.75376305080758
 20
75.84433318607003
 30
0.0
  0
VERTEX
  5
8A
330
4A
100
AcDbEntity
  8
HANE
100
AcDbVertex
100
AcDb2dVertex
 10
5.716208685988796
 20
75.9963768974978
 30
0.0
  0
VERTEX
  5
8B
330
4A
100
AcDbEntity
  8
HANE
100
AcDbVertex
100
AcDb2dVertex
 10
5.661029350916349
 20
76.12551353359196
 30
0.0
  0
VERTEX
  5
8C
330
4A
100
AcDbEntity
  8
HANE
100
AcDbVertex
100
AcDb2dVertex
 10
5.650955754167929
 20
76.1395901732698
 30
0.0
  0
VERTEX
  5
8D
330
4A
100
AcDbEntity
  8
HANE
100
AcDbVertex
100
AcDb2dVertex
 10
5.639211148348058
 20
76.15416689393986
 30
0.0
  0
VERTEX
  5
8E
330
4A
100
AcDbEntity
  8
HANE
100
AcDbVertex
100
AcDb2dVertex
 10
5.625609498304369
 20
76.1688404595094
 30
0.0
  0
VERTEX
  5
8F
330
4A
100
AcDbEntity
  8
HANE
100
AcDbVertex
100
AcDb2dVertex
 10
5.609964768885781
 20
76.18320763388499
 30
0.0
  0
VERTEX
  5
90
330
4A
100
AcDbEntity
  8
HANE
100
AcDbVertex
100
AcDb2dVertex
 10
5.592090924940569
 20
76.19686518097512
 30
0.0
  0
VERTEX
  5
91
330
4A
100
AcDbEntity
  8
HANE
100
AcDbVertex
100
AcDb2dVertex
 10
5.571801931317649
 20
76.20940986468705
 30
0.0
  0
VERTEX
  5
92
330
4A
100
AcDbEntity
  8
HANE
100
AcDbVertex
100
AcDb2dVertex
 10
5.548911752865298
 20
76.22043844892733
 30
0.0
  0
VERTEX
  5
93
330
4A
100
AcDbEntity
  8
HANE
100
AcDbVertex
100
AcDb2dVertex
 10
5.523234354431792
 20
76.22954769760449
 30
0.0
  0
VERTEX
  5
94
330
4A
100
AcDbEntity
  8
HANE
100
AcDbVertex
100
AcDb2dVertex
 10
5.495862313571846
 20
76.23569658165715
 30
0.0
  0
VERTEX
  5
95
330
4A
100
AcDbEntity
  8
HANE
100
AcDbVertex
100
AcDb2dVertex
 10
5.468345992116793
 20
76.23791356273652
 30
0.0
  0
VERTEX
  5
96
330
4A
100
AcDbEntity
  8
HANE
100
AcDbVertex
100
AcDb2dVertex
 10
5.441186031329511
 20
76.23665882108996
 30
0.0
  0
VERTEX
  5
97
330
4A
100
AcDbEntity
  8
HANE
100
AcDbVertex
100
AcDb2dVertex
 10
5.414883072473841
 20
76.23239253696548
 30
0.0
  0
VERTEX
  5
98
330
4A
100
AcDbEntity
  8
HANE
100
AcDbVertex
100
AcDb2dVertex
 10
5.389937756812661
 20
76.2255748906104
 30
0.0
  0
VERTEX
  5
99
330
4A
100
AcDbEntity
  8
HANE
100
AcDbVertex
100
AcDb2dVertex
 10
5.366850725608851
 20
76.21666606227213
 30
0.0
  0
VERTEX
  5
9A
330
4A
100
AcDbEntity
  8
HANE
100
AcDbVertex
100
AcDb2dVertex
 10
5.346122620126569
 20
76.20612623219797
 30
0.0
  0
VERTEX
  5
9B
330
4A
100
AcDbEntity
  8
HANE
100
AcDbVertex
100
AcDb2dVertex
 10
5.328254081628375
 20
76.19441558063659
 30
0.0
  0
VERTEX
  5
9C
330
4A
100
AcDbEntity
  8
HANE
100
AcDbVertex
100
AcDb2dVertex
 10
5.278251484705248
 20
76.1497511734149
 30
0.0
  0
VERTEX
  5
9D
330
4A
100
AcDbEntity
  8
HANE
100
AcDbVertex
100
AcDb2dVertex
 10
5.234581110927774
 20
76.09949037515699
 30
0.0
  0
VERTEX
  5
9E
330
4A
100
AcDbEntity
  8
HANE
100
AcDbVertex
100
AcDb2dVertex
 10
5.195498777398133
 20
76.0421076443148
 30
0.0
  0
VERTEX
  5
9F
330
4A
100
AcDbEntity
  8
HANE
100
AcDbVertex
100
AcDb2dVertex
 10
5.159260301217544
 20
75.97607743933827
 30
0.0
  0
VERTEX
  5
A0
330
4A
100
AcDbEntity
  8
HANE
100
AcDbVertex
100
AcDb2dVertex
 10
5.124121499488187
 20
75.89987421867934
 30
0.0
  0
VERTEX
  5
A1
330
4A
100
AcDbEntity
  8
HANE
100
AcDbVertex
100
AcDb2dVertex
 10
5.0883381893116
 20
75.81197244079057
 30
0.0
  0
VERTEX
  5
A2
330
4A
100
AcDbEntity
  8
HANE
100
AcDbVertex
100
AcDb2dVertex
 10
5.050166187789643
 20
75.71084656412255
 30
0.0
  0
VERTEX
  5
A3
330
4A
100
AcDbEntity
  8
HANE
100
AcDbVertex
100
AcDb2dVertex
 10
5.007861312024498
 20
75.59497104712658
 30
0.0
  0
VERTEX
  5
A4
330
4A
100
AcDbEntity
  8
HANE
100
AcDbVertex
100
AcDb2dVertex
 10
4.964917508866634
 20
75.46426006250607
 30
0.0
  0
VERTEX
  5
A5
330
4A
100
AcDbEntity
  8
HANE
100
AcDbVertex
100
AcDb2dVertex
 10
4.919719786495398
 20
75.31759346305776
 30
0.0
  0
VERTEX
  5
A6
330
4A
100
AcDbEntity
  8
HANE
100
AcDbVertex
100
AcDb2dVertex
 10
4.872147428768238
 20
75.15419610231736
 30
0.0
  0
VERTEX
  5
A7
330
4A
100
AcDbEntity
  8
HANE
100
AcDbVertex
100
AcDb2dVertex
 10
4.822079719541959
 20
74.97329283382057
 30
0.0
  0
VERTEX
  5
A8
330
4A
100
AcDbEntity
  8
HANE
100
AcDbVertex
100
AcDb2dVertex
 10
4.769395942674329
 20
74.77410851110247
 30
0.0
  0
VERTEX
  5
A9
330
4A
100
AcDbEntity
  8
HANE
100
AcDbVertex
100
AcDb2dVertex
 10
4.713975382022153
 20
74.55586798769878
 30
0.0
  0
VERTEX
  5
AA
330
4A
100
AcDbEntity
  8
HANE
100
AcDbVertex
100
AcDb2dVertex
 10
4.655697321442878
 20
74.31779611714454
 30
0.0
  0
VERTEX
  5
AB
330
4A
100
AcDbEntity
  8
HANE
100
AcDbVertex
100
AcDb2dVertex
 10
4.59444104479395
 20
74.05911775297548
 30
0.0
  0
VERTEX
  5
AC
330
4A
100
AcDbEntity
  8
HANE
100
AcDbVertex
100
AcDb2dVertex
 10
4.231238034669323
 20
71.9948512601593
 30
0.0
  0
VERTEX
  5
AD
330
4A
100
AcDbEntity
  8
HANE
100
AcDbVertex
100
AcDb2dVertex
 10
4.035019940862717
 20
69.82471315174449
 30
0.0
  0
VERTEX
  5
AE
330
4A
100
AcDbEntity
  8
HANE
100
AcDbVertex
100
AcDb2dVertex
 10
3.969234631191932
 20
67.66600866598039
 30
0.0
  0
VERTEX
  5
AF
330
4A
100
AcDbEntity
  8
HANE
100
AcDbVertex
100
AcDb2dVertex
 10
3.997329973476374
 20
65.63604304111756
 30
0.0
  0
VERTEX
  5
B0
330
4A
100
AcDbEntity
  8
HANE
100
AcDbVertex
100
AcDb2dVertex
 10
4.082753835533524
 20
63.85212151540468
 30
0.0
  0
VERTEX
  5
B1
330
4A
100
AcDbEntity
  8
HANE
100
AcDbVertex
100
AcDb2dVertex
 10
4.188954085182144
 20
62.4315493270904
 30
0.0
  0
VERTEX
  5
B2
330
4A
100
AcDbEntity
  8
HANE
100
AcDbVertex
100
AcDb2dVertex
 10
4.279378590240356
 20
61.49163171442532
 30
0.0
  0
VERTEX
  5
B3
330
4A
100
AcDbEntity
  8
HANE
100
AcDbVertex
100
AcDb2dVertex
 10
4.317475218526604
 20
61.1496739156581
 30
0.0
  0
VERTEX
  5
B4
330
4A
100
AcDbEntity
  8
HANE
100
AcDbVertex
100
AcDb2dVertex
 10
4.36782587664779
 20
60.71420979211034
 30
0.0
  0
VERTEX
  5
B5
330
4A
100
AcDbEntity
  8
HANE
100
AcDbVertex
100
AcDb2dVertex
 10
4.517633167887182
 20
59.54039488987399
 30
0.0
  0
VERTEX
  5
B6
330
4A
100
AcDbEntity
  8
HANE
100
AcDbVertex
100
AcDb2dVertex
 10
4.773524959808653
 20
57.81546697435353
 30
0.0
  0
VERTEX
  5
B7
330
4A
100
AcDbEntity
  8
HANE
100
AcDbVertex
100
AcDb2dVertex
 10
5.142129119977038
 20
55.72666381095473
 30
0.0
  0
VERTEX
  5
B8
330
4A
100
AcDbEntity
  8
HANE
100
AcDbVertex
100
AcDb2dVertex
 10
5.630073515956207
 20
53.46122316508337
 30
0.0
  0
VERTEX
  5
B9
330
4A
100
AcDbEntity
  8
HANE
100
AcDbVertex
100
AcDb2dVertex
 10
6.243986015310674
 20
51.20638280214457
 30
0.0
  0
VERTEX
  5
BA
330
4A
100
AcDbEntity
  8
HANE
100
AcDbVertex
100
AcDb2dVertex
 10
6.990494485604632
 20
49.14938048754409
 30
0.0
  0
VERTEX
  5
BB
330
4A
100
AcDbEntity
  8
HANE
100
AcDbVertex
100
AcDb2dVertex
 10
7.876226794401954
 20
47.47745398668707
 30
0.0
  0
VERTEX
  5
BC
330
4A
100
AcDbEntity
  8
HANE
100
AcDbVertex
100
AcDb2dVertex
 10
8.044067780308763
 20
47.24263111670164
 30
0.0
  0
VERTEX
  5
BD
330
4A
100
AcDbEntity
  8
HANE
100
AcDbVertex
100
AcDb2dVertex
 10
8.21707684263233
 20
47.02472380292487
 30
0.0
  0
VERTEX
  5
BE
330
4A
100
AcDbEntity
  8
HANE
100
AcDbVertex
100
AcDb2dVertex
 10
8.39557687562176
 20
46.82495119571733
 30
0.0
  0
VERTEX
  5
BF
330
4A
100
AcDbEntity
  8
HANE
100
AcDbVertex
100
AcDb2dVertex
 10
8.57989077352551
 20
46.64453244543699
 30
0.0
  0
VERTEX
  5
C0
330
4A
100
AcDbEntity
  8
HANE
100
AcDbVertex
100
AcDb2dVertex
 10
8.770341430592685
 20
46.48468670244441
 30
0.0
  0
VERTEX
  5
C1
330
4A
100
AcDbEntity
  8
HANE
100
AcDbVertex
100
AcDb2dVertex
 10
8.967251741072067
 20
46.34663311709949
 30
0.0
  0
VERTEX
  5
C2
330
4A
100
AcDbEntity
  8
HANE
100
AcDbVertex
100
AcDb2dVertex
 10
9.170944599212437
 20
46.23159083976088
 30
0.0
  0
VERTEX
  5
C3
330
4A
100
AcDbEntity
  8
HANE
100
AcDbVertex
100
AcDb2dVertex
 10
9.381742899262578
 20
46.14077902078849
 30
0.0
  0
VERTEX
  5
C4
330
4A
100
AcDbEntity
  8
HANE
100
AcDbVertex
100
AcDb2dVertex
 10
9.598619984207872
 20
46.07611106616653
 30
0.0
  0
VERTEX
  5
C5
330
4A
100
AcDbEntity
  8
HANE
100
AcDbVertex
100
AcDb2dVertex
 10
9.820899770635577
 20
46.0400747481841
 30
0.0
  0
VERTEX
  5
C6
330
4A
100
AcDbEntity
  8
HANE
100
AcDbVertex
100
AcDb2dVertex
 10
10.04787937838042
 20
46.03320295419694
 30
0.0
  0
VERTEX
  5
C7
330
4A
100
AcDbEntity
  8
HANE
100
AcDbVertex
100
AcDb2dVertex
 10
10.27885592727775
 20
46.05602857156208
 30
0.0
  0
VERTEX
  5
C8
330
4A
100
AcDbEntity
  8
HANE
100
AcDbVertex
100
AcDb2dVertex
 10
10.51312653716295
 20
46.10908448763463
 30
0.0
  0
VERTEX
  5
C9
330
4A
100
AcDbEntity
  8
HANE
100
AcDbVertex
100
AcDb2dVertex
 10
10.74998832787105
 20
46.19290358977162
 30
0.0
  0
VERTEX
  5
CA
330
4A
100
AcDbEntity
  8
HANE
100
AcDbVertex
100
AcDb2dVertex
 10
10.98873841923709
 20
46.30801876532878
 30
0.0
  0
VERTEX
  5
CB
330
4A
100
AcDbEntity
  8
HANE
100
AcDbVertex
100
AcDb2dVertex
 10
11.22867393109612
 20
46.45496290166252
 30
0.0
  0
VERTEX
  5
CC
330
4A
100
AcDbEntity
  8
HANE
100
AcDbVertex
100
AcDb2dVertex
 10
11.22867393109612
 20
46.45496290166252
 30
0.0
  0
SEQEND
  5
CD
330
4A
100
AcDbEntity
  8
HANE
  0
HATCH
  5
CE
330
1F
100
AcDbEntity
  8
HANE
 62
   152
100
AcDbHatch
 10
0.0
 20
0.0
 30
0.0
210
0.0
220
0.0
230
1.0
  2
SOLID
 70
     1
 71
     0
 91
        1
 92
        1
 93
      128
 72
     1
 10
11.22867393109612
 20
46.45496290166252
 11
11.22987778523208
 21
46.45582279747359
 72
     1
 10
11.22987778523208
 20
46.45582279747359
 11
11.23108163936803
 21
46.45668269328531
 72
     1
 10
11.23108163936803
 20
46.45668269328531
 11
11.23228549350399
 21
46.45754258909702
 72
     1
 10
11.23228549350399
 20
46.45754258909702
 11
11.23348934763994
 21
46.4584024849081
 72
     1
 10
11.23348934763994
 20
46.4584024849081
 11
11.23469320177589
 21
46.45926238071917
 72
     1
 10
11.23469320177589
 20
46.45926238071917
 11
11.23589705591185
 21
46.46012227653025
 72
     1
 10
11.23589705591185
 20
46.46012227653025
 11
11.2371009100478
 21
46.46098217234132
 72
     1
 10
11.2371009100478
 20
46.46098217234132
 11
11.23830476418375
 21
46.46184206815304
 72
     1
 10
11.23830476418375
 20
46.46184206815304
 11
12.20928106211179
 21
47.28725171669181
 72
     1
 10
12.20928106211179
 20
47.28725171669181
 11
12.99831415504614
 21
48.25157463968054
 72
     1
 10
12.99831415504614
 20
48.25157463968054
 11
13.62170651001865
 21
49.27829705977587
 72
     1
 10
13.62170651001865
 20
49.27829705977587
 11
14.09576059406176
 21
50.29090519963249
 72
     1
 10
14.09576059406176
 20
50.29090519963249
 11
14.436778874207
 21
51.21288528190512
 72
     1
 10
14.436778874207
 20
51.21288528190512
 11
14.66106381748682
 21
51.96772352924908
 72
     1
 10
14.66106381748682
 20
51.96772352924908
 11
14.78491789093305
 21
52.4789061643191
 72
     1
 10
14.78491789093305
 20
52.4789061643191
 11
14.82464356157752
 21
52.66991940977179
 72
     1
 10
14.82464356157752
 20
52.66991940977179
 11
14.82843592259188
 21
52.69153586755365
 72
     1
 10
14.82843592259188
 20
52.69153586755365
 11
14.83222828360624
 21
52.7131523253355
 72
     1
 10
14.83222828360624
 20
52.7131523253355
 11
14.8360206446206
 21
52.73476878311735
 72
     1
 10
14.8360206446206
 20
52.73476878311735
 11
14.83981300563496
 21
52.7563852408992
 72
     1
 10
14.83981300563496
 20
52.7563852408992
 11
14.84360536664932
 21
52.77800169868105
 72
     1
 10
14.84360536664932
 20
52.77800169868105
 11
14.84739772766368
 21
52.79961815646291
 72
     1
 10
14.84739772766368
 20
52.79961815646291
 11
14.85119008867804
 21
52.82123461424475
 72
     1
 10
14.85119008867804
 20
52.82123461424475
 11
14.8549824496924
 21
52.8428510720266
 72
     1
 10
14.8549824496924
 20
52.8428510720266
 11
14.83362175579291
 21
52.84672721776137
 72
     1
 10
14.83362175579291
 20
52.84672721776137
 11
14.81226106189342
 21
52.85060336349549
 72
     1
 10
14.81226106189342
 20
52.85060336349549
 11
14.79090036799393
 21
52.85447950923026
 72
     1
 10
14.79090036799393
 20
52.85447950923026
 11
14.76953967409445
 21
52.85835565496502
 72
     1
 10
14.76953967409445
 20
52.85835565496502
 11
14.74817898019496
 21
52.86223180069915
 72
     1
 10
14.74817898019496
 20
52.86223180069915
 11
14.72681828629547
 21
52.86610794643391
 72
     1
 10
14.72681828629547
 20
52.86610794643391
 11
14.70545759239598
 21
52.86998409216868
 72
     1
 10
14.70545759239598
 20
52.86998409216868
 11
14.6840968984965
 21
52.8738602379028
 72
     1
 10
14.6840968984965
 20
52.8738602379028
 11
14.41577502673247
 21
52.95507491682065
 72
     1
 10
14.41577502673247
 20
52.95507491682065
 11
14.11873141529442
 21
53.10937908606056
 72
     1
 10
14.11873141529442
 20
53.10937908606056
 11
13.79638127681337
 21
53.33531919097322
 72
     1
 10
13.79638127681337
 20
53.33531919097322
 11
13.45213982392033
 21
53.63144167690798
 72
     1
 10
13.45213982392033
 20
53.63144167690798
 11
13.08942226924632
 21
53.99629298921425
 72
     1
 10
13.08942226924632
 20
53.99629298921425
 11
12.71164382542236
 21
54.42841957324205
 72
     1
 10
12.71164382542236
 20
54.42841957324205
 11
12.32221970507978
 21
54.92636787434012
 72
     1
 10
12.32221970507978
 20
54.92636787434012
 11
11.92456512084929
 21
55.48868433785911
 72
     1
 10
11.92456512084929
 20
55.48868433785911
 11
11.28421149696937
 21
56.49410697334105
 72
     1
 10
11.28421149696937
 20
56.49410697334105
 11
10.6334619600385
 21
57.64453739483768
 72
     1
 10
10.6334619600385
 20
57.64453739483768
 11
9.979845952093834
 21
58.93331430369008
 72
     1
 10
9.979845952093834
 20
58.93331430369008
 11
9.330892915173207
 21
60.35377640123995
 72
     1
 10
9.330892915173207
 20
60.35377640123995
 11
8.69413229131411
 21
61.89926238883028
 72
     1
 10
8.69413229131411
 20
61.89926238883028
 11
8.077093522554362
 21
63.56311096780087
 72
     1
 10
8.077093522554362
 20
63.56311096780087
 11
7.487306050931783
 21
65.33866083949533
 72
     1
 10
7.487306050931783
 20
65.33866083949533
 11
6.93229931848355
 21
67.2192507052541
 72
     1
 10
6.93229931848355
 20
67.2192507052541
 11
6.686130233509491
 21
68.15314902942809
 72
     1
 10
6.686130233509491
 20
68.15314902942809
 11
6.459932642166452
 21
69.11470505243574
 72
     1
 10
6.459932642166452
 20
69.11470505243574
 11
6.258623246803507
 21
70.09778958664636
 72
     1
 10
6.258623246803507
 20
70.09778958664636
 11
6.087118749768125
 21
71.0962734444299
 72
     1
 10
6.087118749768125
 20
71.0962734444299
 11
5.950335853409702
 21
72.10402743815568
 72
     1
 10
5.950335853409702
 20
72.10402743815568
 11
5.85319126007635
 21
73.11492238019366
 72
     1
 10
5.85319126007635
 20
73.11492238019366
 11
5.800601672116822
 21
74.12282908291252
 72
     1
 10
5.800601672116822
 20
74.12282908291252
 11
5.79748379187955
 21
75.12161835868282
 72
     1
 10
5.79748379187955
 20
75.12161835868282
 11
5.794984650775739
 21
75.1596310134191
 72
     1
 10
5.794984650775739
 20
75.1596310134191
 11
5.795058995934507
 21
75.24658616673372
 72
     1
 10
5.795058995934507
 20
75.24658616673372
 11
5.794340417936322
 21
75.3705088896418
 72
     1
 10
5.794340417936322
 20
75.3705088896418
 11
5.789462507361968
 21
75.51942425315713
 72
     1
 10
5.789462507361968
 20
75.51942425315713
 11
5.777058854792232
 21
75.68135732829485
 72
     1
 10
5.777058854792232
 20
75.68135732829485
 11
5.75376305080758
 21
75.84433318607003
 72
     1
 10
5.75376305080758
 20
75.84433318607003
 11
5.716208685988796
 21
75.9963768974978
 72
     1
 10
5.716208685988796
 20
75.9963768974978
 11
5.661029350916349
 21
76.12551353359196
 72
     1
 10
5.661029350916349
 20
76.12551353359196
 11
5.650955754167929
 21
76.1395901732698
 72
     1
 10
5.650955754167929
 20
76.1395901732698
 11
5.639211148348058
 21
76.15416689393986
 72
     1
 10
5.639211148348058
 20
76.15416689393986
 11
5.625609498304369
 21
76.1688404595094
 72
     1
 10
5.625609498304369
 20
76.1688404595094
 11
5.609964768885781
 21
76.18320763388499
 72
     1
 10
5.609964768885781
 20
76.18320763388499
 11
5.592090924940569
 21
76.19686518097512
 72
     1
 10
5.592090924940569
 20
76.19686518097512
 11
5.571801931317649
 21
76.20940986468705
 72
     1
 10
5.571801931317649
 20
76.20940986468705
 11
5.548911752865298
 21
76.22043844892733
 72
     1
 10
5.548911752865298
 20
76.22043844892733
 11
5.523234354431792
 21
76.22954769760449
 72
     1
 10
5.523234354431792
 20
76.22954769760449
 11
5.495862313571846
 21
76.23569658165715
 72
     1
 10
5.495862313571846
 20
76.23569658165715
 11
5.468345992116793
 21
76.23791356273652
 72
     1
 10
5.468345992116793
 20
76.23791356273652
 11
5.441186031329511
 21
76.23665882108996
 72
     1
 10
5.441186031329511
 20
76.23665882108996
 11
5.414883072473841
 21
76.23239253696548
 72
     1
 10
5.414883072473841
 20
76.23239253696548
 11
5.389937756812661
 21
76.2255748906104
 72
     1
 10
5.389937756812661
 20
76.2255748906104
 11
5.366850725608851
 21
76.21666606227213
 72
     1
 10
5.366850725608851
 20
76.21666606227213
 11
5.346122620126569
 21
76.20612623219797
 72
     1
 10
5.346122620126569
 20
76.20612623219797
 11
5.328254081628375
 21
76.19441558063659
 72
     1
 10
5.328254081628375
 20
76.19441558063659
 11
5.278251484705248
 21
76.1497511734149
 72
     1
 10
5.278251484705248
 20
76.1497511734149
 11
5.234581110927774
 21
76.09949037515699
 72
     1
 10
5.234581110927774
 20
76.09949037515699
 11
5.195498777398133
 21
76.0421076443148
 72
     1
 10
5.195498777398133
 20
76.0421076443148
 11
5.159260301217544
 21
75.97607743933827
 72
     1
 10
5.159260301217544
 20
75.97607743933827
 11
5.124121499488187
 21
75.89987421867934
 72
     1
 10
5.124121499488187
 20
75.89987421867934
 11
5.0883381893116
 21
75.81197244079057
 72
     1
 10
5.0883381893116
 20
75.81197244079057
 11
5.050166187789643
 21
75.71084656412255
 72
     1
 10
5.050166187789643
 20
75.71084656412255
 11
5.007861312024498
 21
75.59497104712658
 72
     1
 10
5.007861312024498
 20
75.59497104712658
 11
4.964917508866634
 21
75.46426006250607
 72
     1
 10
4.964917508866634
 20
75.46426006250607
 11
4.919719786495398
 21
75.31759346305776
 72
     1
 10
4.919719786495398
 20
75.31759346305776
 11
4.872147428768238
 21
75.15419610231736
 72
     1
 10
4.872147428768238
 20
75.15419610231736
 11
4.822079719541959
 21
74.97329283382057
 72
     1
 10
4.822079719541959
 20
74.97329283382057
 11
4.769395942674329
 21
74.77410851110247
 72
     1
 10
4.769395942674329
 20
74.77410851110247
 11
4.713975382022153
 21
74.55586798769878
 72
     1
 10
4.713975382022153
 20
74.55586798769878
 11
4.655697321442878
 21
74.31779611714454
 72
     1
 10
4.655697321442878
 20
74.31779611714454
 11
4.59444104479395
 21
74.05911775297548
 72
     1
 10
4.59444104479395
 20
74.05911775297548
 11
4.231238034669323
 21
71.9948512601593
 72
     1
 10
4.231238034669323
 20
71.9948512601593
 11
4.035019940862717
 21
69.82471315174449
 72
     1
 10
4.035019940862717
 20
69.82471315174449
 11
3.969234631191932
 21
67.66600866598039
 72
     1
 10
3.969234631191932
 20
67.66600866598039
 11
3.997329973476374
 21
65.63604304111756
 72
     1
 10
3.997329973476374
 20
65.63604304111756
 11
4.082753835533524
 21
63.85212151540468
 72
     1
 10
4.082753835533524
 20
63.85212151540468
 11
4.188954085182144
 21
62.4315493270904
 72
     1
 10
4.188954085182144
 20
62.4315493270904
 11
4.279378590240356
 21
61.49163171442532
 72
     1
 10
4.279378590240356
 20
61.49163171442532
 11
4.317475218526604
 21
61.1496739156581
 72
     1
 10
4.317475218526604
 20
61.1496739156581
 11
4.36782587664779
 21
60.71420979211034
 72
     1
 10
4.36782587664779
 20
60.71420979211034
 11
4.517633167887182
 21
59.54039488987399
 72
     1
 10
4.517633167887182
 20
59.54039488987399
 11
4.773524959808653
 21
57.81546697435353
 72
     1
 10
4.773524959808653
 20
57.81546697435353
 11
5.142129119977038
 21
55.72666381095473
 72
     1
 10
5.142129119977038
 20
55.72666381095473
 11
5.630073515956207
 21
53.46122316508337
 72
     1
 10
5.630073515956207
 20
53.46122316508337
 11
6.243986015310674
 21
51.20638280214457
 72
     1
 10
6.243986015310674
 20
51.20638280214457
 11
6.990494485604632
 21
49.14938048754409
 72
     1
 10
6.990494485604632
 20
49.14938048754409
 11
7.876226794401954
 21
47.47745398668707
 72
     1
 10
7.876226794401954
 20
47.47745398668707
 11
8.044067780308763
 21
47.24263111670164
 72
     1
 10
8.044067780308763
 20
47.24263111670164
 11
8.21707684263233
 21
47.02472380292487
 72
     1
 10
8.21707684263233
 20
47.02472380292487
 11
8.39557687562176
 21
46.82495119571733
 72
     1
 10
8.39557687562176
 20
46.82495119571733
 11
8.57989077352551
 21
46.64453244543699
 72
     1
 10
8.57989077352551
 20
46.64453244543699
 11
8.770341430592685
 21
46.48468670244441
 72
     1
 10
8.770341430592685
 20
46.48468670244441
 11
8.967251741072067
 21
46.34663311709949
 72
     1
 10
8.967251741072067
 20
46.34663311709949
 11
9.170944599212437
 21
46.23159083976088
 72
     1
 10
9.170944599212437
 20
46.23159083976088
 11
9.381742899262578
 21
46.14077902078849
 72
     1
 10
9.381742899262578
 20
46.14077902078849
 11
9.598619984207872
 21
46.07611106616653
 72
     1
 10
9.598619984207872
 20
46.07611106616653
 11
9.820899770635577
 21
46.0400747481841
 72
     1
 10
9.820899770635577
 20
46.0400747481841
 11
10.04787937838042
 21
46.03320295419694
 72
     1
 10
10.04787937838042
 20
46.03320295419694
 11
10.27885592727775
 21
46.05602857156208
 72
     1
 10
10.27885592727775
 20
46.05602857156208
 11
10.51312653716295
 21
46.10908448763463
 72
     1
 10
10.51312653716295
 20
46.10908448763463
 11
10.74998832787105
 21
46.19290358977162
 72
     1
 10
10.74998832787105
 20
46.19290358977162
 11
10.98873841923709
 21
46.30801876532878
 72
     1
 10
10.98873841923709
 20
46.30801876532878
 11
11.22867393109612
 21
46.45496290166252
 97
        0
 75
     2
 76
     1
 98
        0
  0
ENDSEC
  0
SECTION
  2
OBJECTS
  0
DICTIONARY
  5
C
330
0
100
AcDbDictionary
  3
ACAD_GROUP
350
D
  3
ACAD_LAYOUT
350
1A
  3
ACAD_MATERIAL
350
3B
  3
ACAD_MLEADERSTYLE
350
F4
  3
ACAD_MLINESTYLE
350
17
  3
ACAD_PLOTSETTINGS
350
19
  3
ACAD_VISUALSTYLE
350
2A
  3
ACDBHEADERROUNDTRIPXREC
350
D2
  3
ACDBVARIABLEDICTIONARY
350
F2
  0
DICTIONARY
  5
D
102
{ACAD_REACTORS
330
C
102
}
330
C
100
AcDbDictionary
  0
DICTIONARY
  5
1A
102
{ACAD_REACTORS
330
C
102
}
330
C
100
AcDbDictionary
  0
DICTIONARY
  5
3B
102
{ACAD_REACTORS
330
C
102
}
330
C
100
AcDbDictionary
  3
BYBLOCK
350
3D
  3
BYLAYER
350
3C
  3
GLOBAL
350
3E
  0
DICTIONARY
  5
F4
102
{ACAD_REACTORS
330
C
102
}
330
C
100
AcDbDictionary
  0
DICTIONARY
  5
17
102
{ACAD_REACTORS
330
C
102
}
330
C
100
AcDbDictionary
  3
STANDARD
350
18
  0
DICTIONARY
  5
19
102
{ACAD_REACTORS
330
C
102
}
330
C
100
AcDbDictionary
  0
DICTIONARY
  5
2A
102
{ACAD_REACTORS
330
C
102
}
330
C
100
AcDbDictionary
  3
2DWIREFRAME
350
2F
  3
3DWIREFRAME
350
30
  3
3D_HIDDEN
350
31
  3
BASIC
350
32
  3
BRIGHTEN
350
36
  3
COLORCHANGE
350
3A
  3
CONCEPTUAL
350
34
  3
DIM
350
35
  3
FACEPATTERN
350
39
  3
FLAT
350
2B
  3
FLATWITHEDGES
350
2C
  3
GOURAUD
350
2D
  3
GOURAUDWITHEDGES
350
2E
  3
LINEPATTERN
350
38
  3
REALISTIC
350
33
  3
THICKEN
350
37
  0
DICTIONARY
  5
D2
102
{ACAD_REACTORS
330
C
102
}
330
C
100
AcDbDictionary
  3
CEPSNTYPE
350
DB
  3
DIMSTYLEDATA
350
F1
  3
FINGERPRINTGUID
350
DC
  3
HYPERLINKBASE
350
D5
  3
INSUNITS
350
DA
  3
LAYOUTDICT
350
D7
  3
LWETCUNION
350
D9
  3
PLOTSETDICT
350
D8
  3
PSVPSCALE
350
DE
  3
PUCSBASE
350
E1
  3
PUCSORGBACK
350
E7
  3
PUCSORGBOTTOM
350
E3
  3
PUCSORGFRONT
350
E6
  3
PUCSORGLEFT
350
E4
  3
PUCSORGRIGHT
350
E5
  3
PUCSORGTOP
350
E2
  3
PUCSORTHOREF
350
DF
  3
PUCSORTHOVIEW
350
E0
  3
STYLESHEET
350
D6
  3
TSTACKALIGN
350
D3
  3
TSTACKSIZE
350
D4
  3
UCSBASE
350
EA
  3
UCSORGBACK
350
F0
  3
UCSORGBOTTOM
350
EC
  3
UCSORGFRONT
350
EF
  3
UCSORGLEFT
350
ED
  3
UCSORGRIGHT
350
EE
  3
UCSORGTOP
350
EB
  3
UCSORTHOREF
350
E8
  3
UCSORTHOVIEW
350
E9
  3
VERSIONGUID
350
DD
  0
DICTIONARY
  5
F2
102
{ACAD_REACTORS
330
C
102
}
330
C
100
AcDbDictionary
  3
DIMASSOC
350
F5
  3
HIDETEXT
350
F6
  0
MATERIAL
  5
3D
102
{ACAD_REACTORS
330
3B
102
}
102
{ACAD_XDICTIONARY
360
F9
102
}
330
3B
100
AcDbMaterial
  1
ByBlock
  0
MATERIAL
  5
3C
102
{ACAD_REACTORS
330
3B
102
}
102
{ACAD_XDICTIONARY
360
F7
102
}
330
3B
100
AcDbMaterial
  1
ByLayer
  0
MATERIAL
  5
3E
102
{ACAD_REACTORS
330
3B
102
}
102
{ACAD_XDICTIONARY
360
FB
102
}
330
3B
100
AcDbMaterial
  1
Global
  0
MLINESTYLE
  5
18
102
{ACAD_REACTORS
330
17
102
}
330
17
100
AcDbMlineStyle
  2
Standard
 70
     0
  3

 62
   256
 51
90.0
 52
90.0
 71
     2
 49
0.5
 62
   256
  6
BYLAYER
 49
-0.5
 62
   256
  6
BYLAYER
  0
ACAD_PROXY_OBJECT
  5
2F
102
{ACAD_REACTORS
330
2A
102
}
330
2A
100
AcDbProxyObject
 90
      499
 91
      501
 93
      436
310
42CC9915DA5C99599C985B595049028333333333333E3BF0000000000000FB0107901411070040501600405405064090741402480A0340
1001
ACAD
1000
AcDbSavedByObjectVersion
1070
     0
  0
ACAD_PROXY_OBJECT
  5
30
102
{ACAD_REACTORS
330
2A
102
}
330
2A
100
AcDbProxyObject
 90
      499
 91
      501
 93
      436
310
42CCD915DA5C99599C985B595059028333333333333E3BF0000000000000FB0107901411070040501600405405064090741402480A0340
1001
ACAD
1000
AcDbSavedByObjectVersion
1070
     0
  0
ACAD_PROXY_OBJECT
  5
31
102
{ACAD_REACTORS
330
2A
102
}
330
2A
100
AcDbProxyObject
 90
      499
 91
      501
 93
      500
310
424CD108121A5919195B90640502408333333333333E3BF0000000000000FB01079024090700405020000000000001110200405405064090740C02480A0340
1001
ACAD
1000
AcDbSavedByObjectVersion
1070
     0
  0
ACAD_PROXY_OBJECT
  5
32
102
{ACAD_REACTORS
330
2A
102
}
330
2A
100
AcDbProxyObject
 90
      499
 91
      501
 93
      388
310
4150985CDA58D07406404333333333333E3BF0000000000000FB0107A41107004050150841D405064090741402480A0350
1001
ACAD
1000
AcDbSavedByObjectVersion
1070
     0
  0
ACAD_PROXY_OBJECT
  5
36
102
{ACAD_REACTORS
330
2A
102
}
330
2A
100
AcDbProxyObject
 90
      499
 91
      501
 93
      428
310
42109C9A59DA1D195B90C409028333333333333E3BF0000000000000FB010790141107004050150841D405064090741402480A029950
1001
ACAD
1000
AcDbSavedByObjectVersion
1070
     0
  0
ACAD_PROXY_OBJECT
  5
3A
102
{ACAD_REACTORS
330
2A
102
}
330
2A
100
AcDbProxyObject
 90
      499
 91
      501
 93
      452
310
42D0DBDB1BDC90DA185B99D95104090240C333333333333E3BF0000000000000FB0108901411070040501508421405064090741402480A0350
1001
ACAD
1000
AcDbSavedByObjectVersion
1070
     0
  0
ACAD_PROXY_OBJECT
  5
34
102
{ACAD_REACTORS
330
2A
102
}
330
2A
100
AcDbProxyObject
 90
      499
 91
      501
 93
      500
310
4290DBDB98D95C1D1D585B10940D028333333333333E3BF0000000000000FB0107902409070040501000000000000111010841D405064090740C02480A0340
1001
ACAD
1000
AcDbSavedByObjectVersion
1070
     0
  0
ACAD_PROXY_OBJECT
  5
35
102
{ACAD_REACTORS
330
2A
102
}
330
2A
100
AcDbProxyObject
 90
      499
 91
      501
 93
      412
310
40D11A5B50B409028333333333333E3BF0000000000000FB010790141107004050150841D405064090741402480A02677FFFFFD0
1001
ACAD
1000
AcDbSavedByObjectVersion
1070
     0
  0
ACAD_PROXY_OBJECT
  5
39
102
{ACAD_REACTORS
330
2A
102
}
330
2A
100
AcDbProxyObject
 90
      499
 91
      501
 93
      444
310
42D19858D95C185D1D195C9B90F409028333333333333E3BF0000000000000FB010790141107004050150841D405064090741402480A0350
1001
ACAD
1000
AcDbSavedByObjectVersion
1070
     0
  0
ACAD_PROXY_OBJECT
  5
2B
102
{ACAD_REACTORS
330
2A
102
}
330
2A
100
AcDbProxyObject
 90
      499
 91
      501
 93
      388
310
41119B185D240901404333333333333E3BF0000000000000F9010740A41107004050150841D405064090741402480A1B50
1001
ACAD
1000
AcDbSavedByObjectVersion
1070
     0
  0
ACAD_PROXY_OBJECT
  5
2C
102
{ACAD_REACTORS
330
2A
102
}
330
2A
100
AcDbProxyObject
 90
      499
 91
      501
 93
      476
310
43519B185D15DA5D1A115919D95CD0140901404333333333333E3BF0000000000000F9010740901411070040501600405405064090741402480A1B50
1001
ACAD
1000
AcDbSavedByObjectVersion
1070
     0
  0
ACAD_PROXY_OBJECT
  5
2D
102
{ACAD_REACTORS
330
2A
102
}
330
2A
100
AcDbProxyObject
 90
      499
 91
      501
 93
      412
310
41D1DBDD5C985D5910240902404333333333333E3BF0000000000000F9010740A411070040501641D405064090741402480A1B50
1001
ACAD
1000
AcDbSavedByObjectVersion
1070
     0
  0
ACAD_PROXY_OBJECT
  5
2E
102
{ACAD_REACTORS
330
2A
102
}
330
2A
100
AcDbProxyObject
 90
      499
 91
      501
 93
      500
310
4411DBDD5C985D5915DA5D1A115919D95CD0340902404333333333333E3BF0000000000000F9010740901411070040501600405405064090741402480A1B50
1001
ACAD
1000
AcDbSavedByObjectVersion
1070
     0
  0
ACAD_PROXY_OBJECT
  5
38
102
{ACAD_REACTORS
330
2A
102
}
330
2A
100
AcDbProxyObject
 90
      499
 91
      501
 93
      444
310
42D31A5B995C185D1D195C9B90E409028333333333333E3BF0000000000000FB010790141107004050750841D405064090741402483A0350
1001
ACAD
1000
AcDbSavedByObjectVersion
1070
     0
  0
ACAD_PROXY_OBJECT
  5
33
102
{ACAD_REACTORS
330
2A
102
}
330
2A
100
AcDbProxyObject
 90
      499
 91
      501
 93
      420
310
425499585B1A5CDD1A58D08409028333333333333E3BF0000000000000FB01079019070040501508421405064090741402480A1B40
1001
ACAD
1000
AcDbSavedByObjectVersion
1070
     0
  0
ACAD_PROXY_OBJECT
  5
37
102
{ACAD_REACTORS
330
2A
102
}
330
2A
100
AcDbProxyObject
 90
      499
 91
      501
 93
      412
310
41D51A1A58DAD95B90D409028333333333333E3BF0000000000000FB010790141107004050150C41D405064090741402480A0350
1001
ACAD
1000
AcDbSavedByObjectVersion
1070
     0
  0
XRECORD
  5
DB
102
{ACAD_REACTORS
330
D2
102
}
330
D2
100
AcDbXrecord
 90
        0
  0
XRECORD
  5
F1
102
{ACAD_REACTORS
330
D2
102
}
330
D2
100
AcDbXrecord
1000
DSTYLE
1002
{
1070
   340
340
11
1002
}
  0
XRECORD
  5
DC
102
{ACAD_REACTORS
330
D2
102
}
330
D2
100
AcDbXrecord
  1
{E9D623FD-1907-B207-24B7-ED7DEFD19ECD}
  0
XRECORD
  5
D5
102
{ACAD_REACTORS
330
D2
102
}
330
D2
100
AcDbXrecord
  1

  0
XRECORD
  5
DA
102
{ACAD_REACTORS
330
D2
102
}
330
D2
100
AcDbXrecord
 90
        4
  0
XRECORD
  5
D7
102
{ACAD_REACTORS
330
D2
102
}
330
D2
100
AcDbXrecord
340
1A
  0
XRECORD
  5
D9
102
{ACAD_REACTORS
330
D2
102
}
330
D2
100
AcDbXrecord
 90
    10269
  0
XRECORD
  5
D8
102
{ACAD_REACTORS
330
D2
102
}
330
D2
100
AcDbXrecord
340
19
  0
XRECORD
  5
DE
102
{ACAD_REACTORS
330
D2
102
}
330
D2
100
AcDbXrecord
 40
0.0
  0
XRECORD
  5
E1
102
{ACAD_REACTORS
330
D2
102
}
330
D2
100
AcDbXrecord
340
0
  0
XRECORD
  5
E7
102
{ACAD_REACTORS
330
D2
102
}
330
D2
100
AcDbXrecord
 10
0.0
 20
0.0
 30
0.0
  0
XRECORD
  5
E3
102
{ACAD_REACTORS
330
D2
102
}
330
D2
100
AcDbXrecord
 10
0.0
 20
0.0
 30
0.0
  0
XRECORD
  5
E6
102
{ACAD_REACTORS
330
D2
102
}
330
D2
100
AcDbXrecord
 10
0.0
 20
0.0
 30
0.0
  0
XRECORD
  5
E4
102
{ACAD_REACTORS
330
D2
102
}
330
D2
100
AcDbXrecord
 10
0.0
 20
0.0
 30
0.0
  0
XRECORD
  5
E5
102
{ACAD_REACTORS
330
D2
102
}
330
D2
100
AcDbXrecord
 10
0.0
 20
0.0
 30
0.0
  0
XRECORD
  5
E2
102
{ACAD_REACTORS
330
D2
102
}
330
D2
100
AcDbXrecord
 10
0.0
 20
0.0
 30
0.0
  0
XRECORD
  5
DF
102
{ACAD_REACTORS
330
D2
102
}
330
D2
100
AcDbXrecord
340
0
  0
XRECORD
  5
E0
102
{ACAD_REACTORS
330
D2
102
}
330
D2
100
AcDbXrecord
 70
     0
  0
XRECORD
  5
D6
102
{ACAD_REACTORS
330
D2
102
}
330
D2
100
AcDbXrecord
  1

  0
XRECORD
  5
D3
102
{ACAD_REACTORS
330
D2
102
}
330
D2
100
AcDbXrecord
 90
        1
  0
XRECORD
  5
D4
102
{ACAD_REACTORS
330
D2
102
}
330
D2
100
AcDbXrecord
 90
       70
  0
XRECORD
  5
EA
102
{ACAD_REACTORS
330
D2
102
}
330
D2
100
AcDbXrecord
340
0
  0
XRECORD
  5
F0
102
{ACAD_REACTORS
330
D2
102
}
330
D2
100
AcDbXrecord
 10
0.0
 20
0.0
 30
0.0
  0
XRECORD
  5
EC
102
{ACAD_REACTORS
330
D2
102
}
330
D2
100
AcDbXrecord
 10
0.0
 20
0.0
 30
0.0
  0
XRECORD
  5
EF
102
{ACAD_REACTORS
330
D2
102
}
330
D2
100
AcDbXrecord
 10
0.0
 20
0.0
 30
0.0
  0
XRECORD
  5
ED
102
{ACAD_REACTORS
330
D2
102
}
330
D2
100
AcDbXrecord
 10
0.0
 20
0.0
 30
0.0
  0
XRECORD
  5
EE
102
{ACAD_REACTORS
330
D2
102
}
330
D2
100
AcDbXrecord
 10
0.0
 20
0.0
 30
0.0
  0
XRECORD
  5
EB
102
{ACAD_REACTORS
330
D2
102
}
330
D2
100
AcDbXrecord
 10
0.0
 20
0.0
 30
0.0
  0
XRECORD
  5
E8
102
{ACAD_REACTORS
330
D2
102
}
330
D2
100
AcDbXrecord
340
0
  0
XRECORD
  5
E9
102
{ACAD_REACTORS
330
D2
102
}
330
D2
100
AcDbXrecord
 70
     0
  0
XRECORD
  5
DD
102
{ACAD_REACTORS
330
D2
102
}
330
D2
100
AcDbXrecord
  1
{FAEB1C32-E019-11D5-929B-00C0DF256EC4}
  0
DICTIONARYVAR
  5
F5
102
{ACAD_REACTORS
330
F2
102
}
330
F2
100
DictionaryVariables
280
     0
  1
2
  0
DICTIONARYVAR
  5
F6
102
{ACAD_REACTORS
330
F2
102
}
330
F2
100
DictionaryVariables
280
     0
  1
1
  0
DICTIONARY
  5
F9
330
3D
100
AcDbDictionary
280
     1
  3
ACAD_XREC_ROUNDTRIP
360
FA
  0
DICTIONARY
  5
F7
330
3C
100
AcDbDictionary
280
     1
  3
ACAD_XREC_ROUNDTRIP
360
F8
  0
DICTIONARY
  5
FB
330
3E
100
AcDbDictionary
280
     1
  3
ACAD_XREC_ROUNDTRIP
360
FC
  0
XRECORD
  5
FA
102
{ACAD_REACTORS
330
F9
102
}
330
F9
100
AcDbXrecord
102
MATERIAL
148
0.0
149
0.0
149
0.0
 93
        0
 94
      127
282
     0
 72
     1
 77
     1
171
     1
175
     1
179
     1
273
     0
  0
XRECORD
  5
F8
102
{ACAD_REACTORS
330
F7
102
}
330
F7
100
AcDbXrecord
102
MATERIAL
148
0.0
149
0.0
149
0.0
 93
        0
 94
      127
282
     0
 72
     1
 77
     1
171
     1
175
     1
179
     1
273
     0
  0
XRECORD
  5
FC
102
{ACAD_REACTORS
330
FB
102
}
330
FB
100
AcDbXrecord
102
MATERIAL
148
0.0
149
0.0
149
0.0
 93
        0
 94
      127
282
     0
 72
     1
 77
     1
171
     1
175
     1
179
     1
273
     0
  0
ENDSEC
  0
EOF
