  0
SECTION
  2
HEADER
  9
$ACADVER
  1
AC1014
  9
$ACADMAINTVER
 70
     9
  9
$DWGCODEPAGE
  3
UNDEFINED
  9
$INSBASE
 10
0.0
 20
0.0
 30
0.0
  9
$EXTMIN
 10
1.000000000000000E+20
 20
1.000000000000000E+20
 30
1.000000000000000E+20
  9
$EXTMAX
 10
-1.000000000000000E+20
 20
-1.000000000000000E+20
 30
-1.000000000000000E+20
  9
$LIMMIN
 10
0.0
 20
0.0
  9
$LIMMAX
 10
12.0
 20
9.0
  9
$ORTHOMODE
 70
     0
  9
$REGENMODE
 70
     1
  9
$FILLMODE
 70
     1
  9
$QTEXTMODE
 70
     0
  9
$MIRRTEXT
 70
     1
  9
$DRAGMODE
 70
     2
  9
$LTSCALE
 40
1.0
  9
$OSMODE
 70
    37
  9
$ATTMODE
 70
     1
  9
$TEXTSIZE
 40
0.2
  9
$TRACEWID
 40
0.05
  9
$TEXTSTYLE
  7
STANDARD
  9
$CLAYER
  8
0
  9
$CELTYPE
  6
BYLAYER
  9
$CECOLOR
 62
   256
  9
$CELTSCALE
 40
1.0
  9
$DELOBJ
 70
     1
  9
$DISPSILH
 70
     0
  9
$DIMSCALE
 40
1.0
  9
$DIMASZ
 40
0.18
  9
$DIMEXO
 40
0.0625
  9
$DIMDLI
 40
0.38
  9
$DIMRND
 40
0.0
  9
$DIMDLE
 40
0.0
  9
$DIMEXE
 40
0.18
  9
$DIMTP
 40
0.0
  9
$DIMTM
 40
0.0
  9
$DIMTXT
 40
0.18
  9
$DIMCEN
 40
0.09
  9
$DIMTSZ
 40
0.0
  9
$DIMTOL
 70
     0
  9
$DIMLIM
 70
     0
  9
$DIMTIH
 70
     1
  9
$DIMTOH
 70
     1
  9
$DIMSE1
 70
     0
  9
$DIMSE2
 70
     0
  9
$DIMTAD
 70
     0
  9
$DIMZIN
 70
     0
  9
$DIMBLK
  1

  9
$DIMASO
 70
     1
  9
$DIMSHO
 70
     1
  9
$DIMPOST
  1

  9
$DIMAPOST
  1

  9
$DIMALT
 70
     0
  9
$DIMALTD
 70
     2
  9
$DIMALTF
 40
25.4
  9
$DIMLFAC
 40
1.0
  9
$DIMTOFL
 70
     0
  9
$DIMTVP
 40
0.0
  9
$DIMTIX
 70
     0
  9
$DIMSOXD
 70
     0
  9
$DIMSAH
 70
     0
  9
$DIMBLK1
  1

  9
$DIMBLK2
  1

  9
$DIMSTYLE
  2
STANDARD
  9
$DIMCLRD
 70
     0
  9
$DIMCLRE
 70
     0
  9
$DIMCLRT
 70
     0
  9
$DIMTFAC
 40
1.0
  9
$DIMGAP
 40
0.09
  9
$DIMJUST
 70
     0
  9
$DIMSD1
 70
     0
  9
$DIMSD2
 70
     0
  9
$DIMTOLJ
 70
     1
  9
$DIMTZIN
 70
     0
  9
$DIMALTZ
 70
     0
  9
$DIMALTTZ
 70
     0
  9
$DIMFIT
 70
     3
  9
$DIMUPT
 70
     0
  9
$DIMUNIT
 70
     2
  9
$DIMDEC
 70
     4
  9
$DIMTDEC
 70
     4
  9
$DIMALTU
 70
     2
  9
$DIMALTTD
 70
     2
  9
$DIMTXSTY
  7
STANDARD
  9
$DIMAUNIT
 70
     0
  9
$LUNITS
 70
     2
  9
$LUPREC
 70
     4
  9
$SKETCHINC
 40
0.1
  9
$FILLETRAD
 40
0.5
  9
$AUNITS
 70
     0
  9
$AUPREC
 70
     0
  9
$MENU
  1
.
  9
$ELEVATION
 40
0.0
  9
$PELEVATION
 40
0.0
  9
$THICKNESS
 40
0.0
  9
$LIMCHECK
 70
     0
  9
$CHAMFERA
 40
0.5
  9
$CHAMFERB
 40
0.5
  9
$CHAMFERC
 40
1.0
  9
$CHAMFERD
 40
0.0
  9
$SKPOLY
 70
     0
  9
$TDCREATE
 40
2458968.624293982
  9
$TDUPDATE
 40
2458968.624293982
  9
$TDINDWG
 40
0.0000000116
  9
$TDUSRTIMER
 40
0.0000000116
  9
$USRTIMER
 70
     1
  9
$ANGBASE
 50
0.0
  9
$ANGDIR
 70
     0
  9
$PDMODE
 70
     0
  9
$PDSIZE
 40
0.0
  9
$PLINEWID
 40
0.0
  9
$COORDS
 70
     1
  9
$SPLFRAME
 70
     0
  9
$SPLINETYPE
 70
     6
  9
$SPLINESEGS
 70
     8
  9
$ATTDIA
 70
     0
  9
$ATTREQ
 70
     1
  9
$HANDLING
 70
     1
  9
$HANDSEED
  5
DD
  9
$SURFTAB1
 70
     6
  9
$SURFTAB2
 70
     6
  9
$SURFTYPE
 70
     6
  9
$SURFU
 70
     6
  9
$SURFV
 70
     6
  9
$UCSNAME
  2

  9
$UCSORG
 10
0.0
 20
0.0
 30
0.0
  9
$UCSXDIR
 10
1.0
 20
0.0
 30
0.0
  9
$UCSYDIR
 10
0.0
 20
1.0
 30
0.0
  9
$PUCSNAME
  2

  9
$PUCSORG
 10
0.0
 20
0.0
 30
0.0
  9
$PUCSXDIR
 10
1.0
 20
0.0
 30
0.0
  9
$PUCSYDIR
 10
0.0
 20
1.0
 30
0.0
  9
$USERI1
 70
     0
  9
$USERI2
 70
     0
  9
$USERI3
 70
     0
  9
$USERI4
 70
     0
  9
$USERI5
 70
     0
  9
$USERR1
 40
0.0
  9
$USERR2
 40
0.0
  9
$USERR3
 40
0.0
  9
$USERR4
 40
0.0
  9
$USERR5
 40
0.0
  9
$WORLDVIEW
 70
     1
  9
$SHADEDGE
 70
     3
  9
$SHADEDIF
 70
    70
  9
$TILEMODE
 70
     1
  9
$MAXACTVP
 70
    64
  9
$PINSBASE
 10
0.0
 20
0.0
 30
0.0
  9
$PLIMCHECK
 70
     0
  9
$PEXTMIN
 10
1.000000000000000E+20
 20
1.000000000000000E+20
 30
1.000000000000000E+20
  9
$PEXTMAX
 10
-1.000000000000000E+20
 20
-1.000000000000000E+20
 30
-1.000000000000000E+20
  9
$PLIMMIN
 10
0.0
 20
0.0
  9
$PLIMMAX
 10
12.0
 20
9.0
  9
$UNITMODE
 70
     0
  9
$VISRETAIN
 70
     1
  9
$PLINEGEN
 70
     0
  9
$PSLTSCALE
 70
     1
  9
$TREEDEPTH
 70
  3020
  9
$PICKSTYLE
 70
     1
  9
$CMLSTYLE
  2
STANDARD
  9
$CMLJUST
 70
     0
  9
$CMLSCALE
 40
1.0
  9
$PROXYGRAPHICS
 70
     1
  9
$MEASUREMENT
 70
     0
  0
ENDSEC
  0
SECTION
  2
CLASSES
  0
CLASS
  1
ACDBDICTIONARYWDFLT
  2
AcDbDictionaryWithDefault
  3
ObjectDBX Classes
 90
        0
280
     0
281
     0
  0
CLASS
  1
VISUALSTYLE
  2
AcDbVisualStyle
  3
ObjectDBX Classes
 90
     4095
280
     0
281
     0
  0
CLASS
  1
MATERIAL
  2
AcDbMaterial
  3
ObjectDBX Classes
 90
     1153
280
     0
281
     0
  0
CLASS
  1
SUN
  2
AcDbSun
  3
SCENEOE
 90
     1024
280
     0
281
     0
  0
CLASS
  1
DICTIONARYVAR
  2
AcDbDictionaryVar
  3
ObjectDBX Classes
 90
        0
280
     0
281
     0
  0
CLASS
  1
XRECORD
  2
AcDbXrecord
  3
AutoCAD 2000
 90
        0
280
     0
281
     0
  0
CLASS
  1
LWPOLYLINE
  2
AcDbPolyline
  3
AutoCAD 2000
 90
        0
280
     0
281
     1
  0
CLASS
  1
HATCH
  2
AcDbHatch
  3
AutoCAD 2000
 90
        0
280
     0
281
     1
  0
CLASS
  1
ACDBPLACEHOLDER
  2
AcDbPlaceHolder
  3
ObjectDBX Classes
 90
        0
280
     0
281
     0
  0
CLASS
  1
LAYOUT
  2
AcDbLayout
  3
ObjectDBX Classes
 90
        0
280
     0
281
     0
  0
ENDSEC
  0
SECTION
  2
TABLES
  0
TABLE
  2
VPORT
  5
8
330
0
100
AcDbSymbolTable
 70
     1
  0
VPORT
  5
29
330
8
100
AcDbSymbolTableRecord
100
AcDbViewportTableRecord
  2
*ACTIVE
 70
     0
 10
0.0
 20
0.0
 11
1.0
 21
1.0
 12
0.0
 22
0.0
 13
0.0
 23
0.0
 14
0.5
 24
0.5
 15
0.5
 25
0.5
 16
0.0
 26
0.0
 36
1.0
 17
104.9999989878935
 27
148.4996183011652
 37
0.0
 40
297.0000052006764
 41
0.7070706878738762
 42
50.0
 43
0.0
 44
0.0
 50
0.0
 51
0.0
 71
     0
 72
   100
 73
     1
 74
     3
 75
     0
 76
     0
 77
     0
 78
     0
  0
ENDTAB
  0
TABLE
  2
LTYPE
  5
5
330
0
100
AcDbSymbolTable
 70
     1
  0
LTYPE
  5
14
330
5
100
AcDbSymbolTableRecord
100
AcDbLinetypeTableRecord
  2
BYBLOCK
 70
     0
  3

 72
    65
 73
     0
 40
0.0
  0
LTYPE
  5
15
330
5
100
AcDbSymbolTableRecord
100
AcDbLinetypeTableRecord
  2
BYLAYER
 70
     0
  3

 72
    65
 73
     0
 40
0.0
  0
LTYPE
  5
16
330
5
100
AcDbSymbolTableRecord
100
AcDbLinetypeTableRecord
  2
CONTINUOUS
 70
     0
  3
Solid line
 72
    65
 73
     0
 40
0.0
  0
ENDTAB
  0
TABLE
  2
LAYER
  5
2
330
0
100
AcDbSymbolTable
 70
    14
  0
LAYER
  5
10
330
2
100
AcDbSymbolTableRecord
100
AcDbLayerTableRecord
  2
0
 70
     0
 62
     7
  6
CONTINUOUS
  0
LAYER
  5
40
330
2
100
AcDbSymbolTableRecord
100
AcDbLayerTableRecord
  2
OUTLINE
 70
     5
 62
     7
  6
CONTINUOUS
  0
LAYER
  5
41
330
2
100
AcDbSymbolTableRecord
100
AcDbLayerTableRecord
  2
OUTLINE_U_306E_U_30B3_U_30
 70
     4
 62
     7
  6
CONTINUOUS
  0
LAYER
  5
42
330
2
100
AcDbSymbolTableRecord
100
AcDbLayerTableRecord
  2
L2-SILK
 70
     5
 62
     7
  6
CONTINUOUS
  0
LAYER
  5
43
330
2
100
AcDbSymbolTableRecord
100
AcDbLayerTableRecord
  2
L2-PATTERN
 70
     5
 62
     7
  6
CONTINUOUS
  0
LAYER
  5
44
330
2
100
AcDbSymbolTableRecord
100
AcDbLayerTableRecord
  2
L2-RESIST
 70
     5
 62
     7
  6
CONTINUOUS
  0
LAYER
  5
45
330
2
100
AcDbSymbolTableRecord
100
AcDbLayerTableRecord
  2
L1-PATTERN
 70
     5
 62
     7
  6
CONTINUOUS
  0
LAYER
  5
46
330
2
100
AcDbSymbolTableRecord
100
AcDbLayerTableRecord
  2
L1-RESIST
 70
     5
 62
     7
  6
CONTINUOUS
  0
LAYER
  5
47
330
2
100
AcDbSymbolTableRecord
100
AcDbLayerTableRecord
  2
L1-SILK
 70
     5
 62
     7
  6
CONTINUOUS
  0
LAYER
  5
48
330
2
100
AcDbSymbolTableRecord
100
AcDbLayerTableRecord
  2
DRILL
 70
     5
 62
     7
  6
CONTINUOUS
  0
LAYER
  5
49
330
2
100
AcDbSymbolTableRecord
100
AcDbLayerTableRecord
  2
HANE
 70
     0
 62
     7
  6
CONTINUOUS
  0
LAYER
  5
4A
330
2
100
AcDbSymbolTableRecord
100
AcDbLayerTableRecord
  2
H1
 70
     4
 62
     7
  6
CONTINUOUS
  0
LAYER
  5
4B
330
2
100
AcDbSymbolTableRecord
100
AcDbLayerTableRecord
  2
L2-RESIST_U_306E_U_30B3_U_
 70
     0
 62
     7
  6
CONTINUOUS
  0
LAYER
  5
B1
330
2
100
AcDbSymbolTableRecord
100
AcDbLayerTableRecord
  2
H2
 70
     0
 62
     7
  6
CONTINUOUS
  0
ENDTAB
  0
TABLE
  2
STYLE
  5
3
330
0
100
AcDbSymbolTable
 70
     1
  0
STYLE
  5
11
330
3
100
AcDbSymbolTableRecord
100
AcDbTextStyleTableRecord
  2
STANDARD
 70
     0
 40
0.0
 41
1.0
 50
0.0
 71
     0
 42
0.2
  3
txt
  4

  0
ENDTAB
  0
TABLE
  2
VIEW
  5
6
330
0
100
AcDbSymbolTable
 70
     0
  0
ENDTAB
  0
TABLE
  2
UCS
  5
7
330
0
100
AcDbSymbolTable
 70
     0
  0
ENDTAB
  0
TABLE
  2
APPID
  5
9
330
0
100
AcDbSymbolTable
 70
     1
  0
APPID
  5
12
330
9
100
AcDbSymbolTableRecord
100
AcDbRegAppTableRecord
  2
ACAD
 70
     0
  0
ENDTAB
  0
TABLE
  2
DIMSTYLE
  5
A
330
0
100
AcDbSymbolTable
 70
     1
  0
DIMSTYLE
105
27
330
A
100
AcDbSymbolTableRecord
100
AcDbDimStyleTableRecord
  2
STANDARD
 70
     0
  3

  4

  5

  6

  7

 40
1.0
 41
0.18
 42
0.0625
 43
0.38
 44
0.18
 45
0.0
 46
0.0
 47
0.0
 48
0.0
140
0.18
141
0.09
142
0.0
143
25.4
144
1.0
145
0.0
146
1.0
147
0.09
 71
     0
 72
     0
 73
     1
 74
     1
 75
     0
 76
     0
 77
     0
 78
     0
170
     0
171
     2
172
     0
173
     0
174
     0
175
     0
176
     0
177
     0
178
     0
270
     2
271
     4
272
     4
273
     2
274
     2
340
11
275
     0
280
     0
281
     0
282
     0
283
     1
284
     0
285
     0
286
     0
287
     3
288
     0
  0
ENDTAB
  0
TABLE
  2
BLOCK_RECORD
  5
1
330
0
100
AcDbSymbolTable
 70
     1
  0
BLOCK_RECORD
  5
1F
330
1
100
AcDbSymbolTableRecord
100
AcDbBlockTableRecord
  2
*MODEL_SPACE
  0
BLOCK_RECORD
  5
1B
330
1
100
AcDbSymbolTableRecord
100
AcDbBlockTableRecord
  2
*PAPER_SPACE
  0
ENDTAB
  0
ENDSEC
  0
SECTION
  2
BLOCKS
  0
BLOCK
  5
20
330
1F
100
AcDbEntity
  8
0
100
AcDbBlockBegin
  2
*MODEL_SPACE
 70
     0
 10
0.0
 20
0.0
 30
0.0
  3
*MODEL_SPACE
  1

  0
ENDBLK
  5
21
330
1F
100
AcDbEntity
  8
0
100
AcDbBlockEnd
  0
BLOCK
  5
1C
330
1B
100
AcDbEntity
 67
     1
  8
0
100
AcDbBlockBegin
  2
*PAPER_SPACE
 70
     0
 10
0.0
 20
0.0
 30
0.0
  3
*PAPER_SPACE
  1

  0
ENDBLK
  5
1D
330
1B
100
AcDbEntity
 67
     1
  8
0
100
AcDbBlockEnd
  0
ENDSEC
  0
SECTION
  2
ENTITIES
  0
POLYLINE
  5
4C
330
1F
100
AcDbEntity
  8
L2-RESIST_U_306E_U_30B3_U_
100
AcDb2dPolyline
 66
     1
 10
0.0
 20
0.0
 30
0.0
  0
VERTEX
  5
4D
330
4C
100
AcDbEntity
  8
L2-RESIST_U_306E_U_30B3_U_
100
AcDbVertex
100
AcDb2dVertex
 10
14.71422411995011
 20
52.68971024260022
 30
0.0
  0
VERTEX
  5
4E
330
4C
100
AcDbEntity
  8
L2-RESIST_U_306E_U_30B3_U_
100
AcDbVertex
100
AcDb2dVertex
 10
14.71512218741849
 20
52.70236050282712
 30
0.0
  0
VERTEX
  5
4F
330
4C
100
AcDbEntity
  8
L2-RESIST_U_306E_U_30B3_U_
100
AcDbVertex
100
AcDb2dVertex
 10
14.71355714948093
 20
52.71465279510983
 30
0.0
  0
VERTEX
  5
50
330
4C
100
AcDbEntity
  8
L2-RESIST_U_306E_U_30B3_U_
100
AcDbVertex
100
AcDb2dVertex
 10
14.7097282704555
 20
52.72627876087829
 30
0.0
  0
VERTEX
  5
51
330
4C
100
AcDbEntity
  8
L2-RESIST_U_306E_U_30B3_U_
100
AcDbVertex
100
AcDb2dVertex
 10
14.70383481465961
 20
52.73693004156247
 30
0.0
  0
VERTEX
  5
52
330
4C
100
AcDbEntity
  8
L2-RESIST_U_306E_U_30B3_U_
100
AcDbVertex
100
AcDb2dVertex
 10
14.6960760464113
 20
52.74629827859164
 30
0.0
  0
VERTEX
  5
53
330
4C
100
AcDbEntity
  8
L2-RESIST_U_306E_U_30B3_U_
100
AcDbVertex
100
AcDb2dVertex
 10
14.68665123002863
 20
52.75407511339641
 30
0.0
  0
VERTEX
  5
54
330
4C
100
AcDbEntity
  8
L2-RESIST_U_306E_U_30B3_U_
100
AcDbVertex
100
AcDb2dVertex
 10
14.67575962982902
 20
52.75995218740609
 30
0.0
  0
VERTEX
  5
55
330
4C
100
AcDbEntity
  8
L2-RESIST_U_306E_U_30B3_U_
100
AcDbVertex
100
AcDb2dVertex
 10
14.66360051013051
 20
52.76362114204996
 30
0.0
  0
VERTEX
  5
56
330
4C
100
AcDbEntity
  8
L2-RESIST_U_306E_U_30B3_U_
100
AcDbVertex
100
AcDb2dVertex
 10
14.33657544957182
 20
52.86774749986829
 30
0.0
  0
VERTEX
  5
57
330
4C
100
AcDbEntity
  8
L2-RESIST_U_306E_U_30B3_U_
100
AcDbVertex
100
AcDb2dVertex
 10
13.98071700758716
 20
53.0638487209451
 30
0.0
  0
VERTEX
  5
58
330
4C
100
AcDbEntity
  8
L2-RESIST_U_306E_U_30B3_U_
100
AcDbVertex
100
AcDb2dVertex
 10
13.59940813005358
 20
53.34958857081818
 30
0.0
  0
VERTEX
  5
59
330
4C
100
AcDbEntity
  8
L2-RESIST_U_306E_U_30B3_U_
100
AcDbVertex
100
AcDb2dVertex
 10
13.19603176284909
 20
53.72263081502658
 30
0.0
  0
VERTEX
  5
5A
330
4C
100
AcDbEntity
  8
L2-RESIST_U_306E_U_30B3_U_
100
AcDbVertex
100
AcDb2dVertex
 10
12.7739708518504
 20
54.18063921910935
 30
0.0
  0
VERTEX
  5
5B
330
4C
100
AcDbEntity
  8
L2-RESIST_U_306E_U_30B3_U_
100
AcDbVertex
100
AcDb2dVertex
 10
12.33660834293457
 20
54.72127754860427
 30
0.0
  0
VERTEX
  5
5C
330
4C
100
AcDbEntity
  8
L2-RESIST_U_306E_U_30B3_U_
100
AcDbVertex
100
AcDb2dVertex
 10
11.88732718197928
 20
55.34220956905168
 30
0.0
  0
VERTEX
  5
5D
330
4C
100
AcDbEntity
  8
L2-RESIST_U_306E_U_30B3_U_
100
AcDbVertex
100
AcDb2dVertex
 10
11.42951031486125
 20
56.0410990459887
 30
0.0
  0
VERTEX
  5
5E
330
4C
100
AcDbEntity
  8
L2-RESIST_U_306E_U_30B3_U_
100
AcDbVertex
100
AcDb2dVertex
 10
11.42372234788638
 20
56.04925744530244
 30
0.0
  0
VERTEX
  5
5F
330
4C
100
AcDbEntity
  8
L2-RESIST_U_306E_U_30B3_U_
100
AcDbVertex
100
AcDb2dVertex
 10
11.41682189070567
 20
56.05624754386523
 30
0.0
  0
VERTEX
  5
60
330
4C
100
AcDbEntity
  8
L2-RESIST_U_306E_U_30B3_U_
100
AcDbVertex
100
AcDb2dVertex
 10
11.40898629683021
 20
56.06199575443932
 30
0.0
  0
VERTEX
  5
61
330
4C
100
AcDbEntity
  8
L2-RESIST_U_306E_U_30B3_U_
100
AcDbVertex
100
AcDb2dVertex
 10
11.40039291977076
 20
56.0664284897863
 30
0.0
  0
VERTEX
  5
62
330
4C
100
AcDbEntity
  8
L2-RESIST_U_306E_U_30B3_U_
100
AcDbVertex
100
AcDb2dVertex
 10
11.39121911303875
 20
56.06947216266902
 30
0.0
  0
VERTEX
  5
63
330
4C
100
AcDbEntity
  8
L2-RESIST_U_306E_U_30B3_U_
100
AcDbVertex
100
AcDb2dVertex
 10
11.38164223014493
 20
56.0710531858491
 30
0.0
  0
VERTEX
  5
64
330
4C
100
AcDbEntity
  8
L2-RESIST_U_306E_U_30B3_U_
100
AcDbVertex
100
AcDb2dVertex
 10
11.37183962460072
 20
56.07109797208941
 30
0.0
  0
VERTEX
  5
65
330
4C
100
AcDbEntity
  8
L2-RESIST_U_306E_U_30B3_U_
100
AcDbVertex
100
AcDb2dVertex
 10
11.3619886499172
 20
56.0695329341509
 30
0.0
  0
VERTEX
  5
66
330
4C
100
AcDbEntity
  8
L2-RESIST_U_306E_U_30B3_U_
100
AcDbVertex
100
AcDb2dVertex
 10
11.35232536681117
 20
56.06657766241638
 30
0.0
  0
VERTEX
  5
67
330
4C
100
AcDbEntity
  8
L2-RESIST_U_306E_U_30B3_U_
100
AcDbVertex
100
AcDb2dVertex
 10
11.34343939963003
 20
56.06220232235895
 30
0.0
  0
VERTEX
  5
68
330
4C
100
AcDbEntity
  8
L2-RESIST_U_306E_U_30B3_U_
100
AcDbVertex
100
AcDb2dVertex
 10
11.33544313484601
 20
56.05655450186489
 30
0.0
  0
VERTEX
  5
69
330
4C
100
AcDbEntity
  8
L2-RESIST_U_306E_U_30B3_U_
100
AcDbVertex
100
AcDb2dVertex
 10
11.32844895893073
 20
56.04978178882178
 30
0.0
  0
VERTEX
  5
6A
330
4C
100
AcDbEntity
  8
L2-RESIST_U_306E_U_30B3_U_
100
AcDbVertex
100
AcDb2dVertex
 10
11.32256925835609
 20
56.04203177111589
 30
0.0
  0
VERTEX
  5
6B
330
4C
100
AcDbEntity
  8
L2-RESIST_U_306E_U_30B3_U_
100
AcDbVertex
100
AcDb2dVertex
 10
11.31791641959401
 20
56.03345203663418
 30
0.0
  0
VERTEX
  5
6C
330
4C
100
AcDbEntity
  8
L2-RESIST_U_306E_U_30B3_U_
100
AcDbVertex
100
AcDb2dVertex
 10
11.31460282911673
 20
56.02419017326355
 30
0.0
  0
VERTEX
  5
6D
330
4C
100
AcDbEntity
  8
L2-RESIST_U_306E_U_30B3_U_
100
AcDbVertex
100
AcDb2dVertex
 10
11.31274087339584
 20
56.01439376889095
 30
0.0
  0
VERTEX
  5
6E
330
4C
100
AcDbEntity
  8
L2-RESIST_U_306E_U_30B3_U_
100
AcDbVertex
100
AcDb2dVertex
 10
11.07518755860138
 20
54.06893427262557
 30
0.0
  0
VERTEX
  5
6F
330
4C
100
AcDbEntity
  8
L2-RESIST_U_306E_U_30B3_U_
100
AcDbVertex
100
AcDb2dVertex
 10
10.80976411105428
 20
52.46216582566178
 30
0.0
  0
VERTEX
  5
70
330
4C
100
AcDbEntity
  8
L2-RESIST_U_306E_U_30B3_U_
100
AcDbVertex
100
AcDb2dVertex
 10
10.52204373048232
 20
51.17012834072145
 30
0.0
  0
VERTEX
  5
71
330
4C
100
AcDbEntity
  8
L2-RESIST_U_306E_U_30B3_U_
100
AcDbVertex
100
AcDb2dVertex
 10
10.217599616613
 20
50.16886173052386
 30
0.0
  0
VERTEX
  5
72
330
4C
100
AcDbEntity
  8
L2-RESIST_U_306E_U_30B3_U_
100
AcDbVertex
100
AcDb2dVertex
 10
9.902004969174104
 20
49.43440590779023
 30
0.0
  0
VERTEX
  5
73
330
4C
100
AcDbEntity
  8
L2-RESIST_U_306E_U_30B3_U_
100
AcDbVertex
100
AcDb2dVertex
 10
9.580832987893114
 20
48.94280078524049
 30
0.0
  0
VERTEX
  5
74
330
4C
100
AcDbEntity
  8
L2-RESIST_U_306E_U_30B3_U_
100
AcDbVertex
100
AcDb2dVertex
 10
9.259656872497503
 20
48.67008627559652
 30
0.0
  0
VERTEX
  5
75
330
4C
100
AcDbEntity
  8
L2-RESIST_U_306E_U_30B3_U_
100
AcDbVertex
100
AcDb2dVertex
 10
8.944049822715074
 20
48.59230229157825
 30
0.0
  0
VERTEX
  5
76
330
4C
100
AcDbEntity
  8
L2-RESIST_U_306E_U_30B3_U_
100
AcDbVertex
100
AcDb2dVertex
 10
8.369562801781061
 20
48.83125420351956
 30
0.0
  0
VERTEX
  5
77
330
4C
100
AcDbEntity
  8
L2-RESIST_U_306E_U_30B3_U_
100
AcDbVertex
100
AcDb2dVertex
 10
7.793604036093009
 20
49.487176029897
 30
0.0
  0
VERTEX
  5
78
330
4C
100
AcDbEntity
  8
L2-RESIST_U_306E_U_30B3_U_
100
AcDbVertex
100
AcDb2dVertex
 10
7.24023076462066
 20
50.42175628273633
 30
0.0
  0
VERTEX
  5
79
330
4C
100
AcDbEntity
  8
L2-RESIST_U_306E_U_30B3_U_
100
AcDbVertex
100
AcDb2dVertex
 10
6.733500226333115
 20
51.49668347406394
 30
0.0
  0
VERTEX
  5
7A
330
4C
100
AcDbEntity
  8
L2-RESIST_U_306E_U_30B3_U_
100
AcDbVertex
100
AcDb2dVertex
 10
6.297469660200116
 20
52.5736461159056
 30
0.0
  0
VERTEX
  5
7B
330
4C
100
AcDbEntity
  8
L2-RESIST_U_306E_U_30B3_U_
100
AcDbVertex
100
AcDb2dVertex
 10
5.956196305191408
 20
53.51433272028773
 30
0.0
  0
VERTEX
  5
7C
330
4C
100
AcDbEntity
  8
L2-RESIST_U_306E_U_30B3_U_
100
AcDbVertex
100
AcDb2dVertex
 10
5.73373740027673
 20
54.18043179923542
 30
0.0
  0
VERTEX
  5
7D
330
4C
100
AcDbEntity
  8
L2-RESIST_U_306E_U_30B3_U_
100
AcDbVertex
100
AcDb2dVertex
 10
5.654150184425184
 20
54.43363186477574
 30
0.0
  0
VERTEX
  5
7E
330
4C
100
AcDbEntity
  8
L2-RESIST_U_306E_U_30B3_U_
100
AcDbVertex
100
AcDb2dVertex
 10
5.654106087204087
 20
54.43360981616551
 30
0.0
  0
VERTEX
  5
7F
330
4C
100
AcDbEntity
  8
L2-RESIST_U_306E_U_30B3_U_
100
AcDbVertex
100
AcDb2dVertex
 10
5.654061989982989
 20
54.43358776755464
 30
0.0
  0
VERTEX
  5
80
330
4C
100
AcDbEntity
  8
L2-RESIST_U_306E_U_30B3_U_
100
AcDbVertex
100
AcDb2dVertex
 10
5.654017892761892
 20
54.43356571894378
 30
0.0
  0
VERTEX
  5
81
330
4C
100
AcDbEntity
  8
L2-RESIST_U_306E_U_30B3_U_
100
AcDbVertex
100
AcDb2dVertex
 10
5.653973795540796
 20
54.43354367033355
 30
0.0
  0
VERTEX
  5
82
330
4C
100
AcDbEntity
  8
L2-RESIST_U_306E_U_30B3_U_
100
AcDbVertex
100
AcDb2dVertex
 10
5.653929698319698
 20
54.43352162172332
 30
0.0
  0
VERTEX
  5
83
330
4C
100
AcDbEntity
  8
L2-RESIST_U_306E_U_30B3_U_
100
AcDbVertex
100
AcDb2dVertex
 10
5.653885601098601
 20
54.43349957311245
 30
0.0
  0
VERTEX
  5
84
330
4C
100
AcDbEntity
  8
L2-RESIST_U_306E_U_30B3_U_
100
AcDbVertex
100
AcDb2dVertex
 10
5.653841503877504
 20
54.43347752450158
 30
0.0
  0
VERTEX
  5
85
330
4C
100
AcDbEntity
  8
L2-RESIST_U_306E_U_30B3_U_
100
AcDbVertex
100
AcDb2dVertex
 10
5.653797406656406
 20
54.43345547589135
 30
0.0
  0
VERTEX
  5
86
330
4C
100
AcDbEntity
  8
L2-RESIST_U_306E_U_30B3_U_
100
AcDbVertex
100
AcDb2dVertex
 10
5.65118994861631
 20
54.43763254253789
 30
0.0
  0
VERTEX
  5
87
330
4C
100
AcDbEntity
  8
L2-RESIST_U_306E_U_30B3_U_
100
AcDbVertex
100
AcDb2dVertex
 10
5.645015670554946
 20
54.44480500952988
 30
0.0
  0
VERTEX
  5
88
330
4C
100
AcDbEntity
  8
L2-RESIST_U_306E_U_30B3_U_
100
AcDbVertex
100
AcDb2dVertex
 10
5.636000466604456
 20
54.45372133977079
 30
0.0
  0
VERTEX
  5
89
330
4C
100
AcDbEntity
  8
L2-RESIST_U_306E_U_30B3_U_
100
AcDbVertex
100
AcDb2dVertex
 10
5.62487023089698
 20
54.46312999616408
 30
0.0
  0
VERTEX
  5
8A
330
4C
100
AcDbEntity
  8
L2-RESIST_U_306E_U_30B3_U_
100
AcDbVertex
100
AcDb2dVertex
 10
5.612350857564979
 20
54.47177944161518
 30
0.0
  0
VERTEX
  5
8B
330
4C
100
AcDbEntity
  8
L2-RESIST_U_306E_U_30B3_U_
100
AcDbVertex
100
AcDb2dVertex
 10
5.599168240740595
 20
54.47841813902753
 30
0.0
  0
VERTEX
  5
8C
330
4C
100
AcDbEntity
  8
L2-RESIST_U_306E_U_30B3_U_
100
AcDbVertex
100
AcDb2dVertex
 10
5.586048274555966
 20
54.48179455130592
 30
0.0
  0
VERTEX
  5
8D
330
4C
100
AcDbEntity
  8
L2-RESIST_U_306E_U_30B3_U_
100
AcDbVertex
100
AcDb2dVertex
 10
5.573716853143876
 20
54.4806571413538
 30
0.0
  0
VERTEX
  5
8E
330
4C
100
AcDbEntity
  8
L2-RESIST_U_306E_U_30B3_U_
100
AcDbVertex
100
AcDb2dVertex
 10
5.562400610485745
 20
54.47609255398182
 30
0.0
  0
VERTEX
  5
8F
330
4C
100
AcDbEntity
  8
L2-RESIST_U_306E_U_30B3_U_
100
AcDbVertex
100
AcDb2dVertex
 10
5.552448212193388
 20
54.46968521270502
 30
0.0
  0
VERTEX
  5
90
330
4C
100
AcDbEntity
  8
L2-RESIST_U_306E_U_30B3_U_
100
AcDbVertex
100
AcDb2dVertex
 10
5.544016341206413
 20
54.46168881155483
 30
0.0
  0
VERTEX
  5
91
330
4C
100
AcDbEntity
  8
L2-RESIST_U_306E_U_30B3_U_
100
AcDbVertex
100
AcDb2dVertex
 10
5.537261680462814
 20
54.45235704456202
 30
0.0
  0
VERTEX
  5
92
330
4C
100
AcDbEntity
  8
L2-RESIST_U_306E_U_30B3_U_
100
AcDbVertex
100
AcDb2dVertex
 10
5.532340912901876
 20
54.44194360575865
 30
0.0
  0
VERTEX
  5
93
330
4C
100
AcDbEntity
  8
L2-RESIST_U_306E_U_30B3_U_
100
AcDbVertex
100
AcDb2dVertex
 10
5.529410721461599
 20
54.43070218917551
 30
0.0
  0
VERTEX
  5
94
330
4C
100
AcDbEntity
  8
L2-RESIST_U_306E_U_30B3_U_
100
AcDbVertex
100
AcDb2dVertex
 10
5.528627789081585
 20
54.41888648884399
 30
0.0
  0
VERTEX
  5
95
330
4C
100
AcDbEntity
  8
L2-RESIST_U_306E_U_30B3_U_
100
AcDbVertex
100
AcDb2dVertex
 10
5.530148798699834
 20
54.40675019879552
 30
0.0
  0
VERTEX
  5
96
330
4C
100
AcDbEntity
  8
L2-RESIST_U_306E_U_30B3_U_
100
AcDbVertex
100
AcDb2dVertex
 10
5.884207798456234
 20
52.91398181891045
 30
0.0
  0
VERTEX
  5
97
330
4C
100
AcDbEntity
  8
L2-RESIST_U_306E_U_30B3_U_
100
AcDbVertex
100
AcDb2dVertex
 10
6.289359078810054
 20
51.44626782640722
 30
0.0
  0
VERTEX
  5
98
330
4C
100
AcDbEntity
  8
L2-RESIST_U_306E_U_30B3_U_
100
AcDbVertex
100
AcDb2dVertex
 10
6.749116223656037
 20
50.05679443086583
 30
0.0
  0
VERTEX
  5
99
330
4C
100
AcDbEntity
  8
L2-RESIST_U_306E_U_30B3_U_
100
AcDbVertex
100
AcDb2dVertex
 10
7.266992816889251
 20
48.79874784186758
 30
0.0
  0
VERTEX
  5
9A
330
4C
100
AcDbEntity
  8
L2-RESIST_U_306E_U_30B3_U_
100
AcDbVertex
100
AcDb2dVertex
 10
7.846502442404123
 20
47.72531426899248
 30
0.0
  0
VERTEX
  5
9B
330
4C
100
AcDbEntity
  8
L2-RESIST_U_306E_U_30B3_U_
100
AcDbVertex
100
AcDb2dVertex
 10
8.49115868409572
 20
46.8896799218218
 30
0.0
  0
VERTEX
  5
9C
330
4C
100
AcDbEntity
  8
L2-RESIST_U_306E_U_30B3_U_
100
AcDbVertex
100
AcDb2dVertex
 10
9.204475125858464
 20
46.34503100993557
 30
0.0
  0
VERTEX
  5
9D
330
4C
100
AcDbEntity
  8
L2-RESIST_U_306E_U_30B3_U_
100
AcDbVertex
100
AcDb2dVertex
 10
9.989965351587102
 20
46.14455374291441
 30
0.0
  0
VERTEX
  5
9E
330
4C
100
AcDbEntity
  8
L2-RESIST_U_306E_U_30B3_U_
100
AcDbVertex
100
AcDb2dVertex
 10
10.13221485642169
 20
46.15074051413223
 30
0.0
  0
VERTEX
  5
9F
330
4C
100
AcDbEntity
  8
L2-RESIST_U_306E_U_30B3_U_
100
AcDbVertex
100
AcDb2dVertex
 10
10.27624120365868
 20
46.16943504870304
 30
0.0
  0
VERTEX
  5
A0
330
4C
100
AcDbEntity
  8
L2-RESIST_U_306E_U_30B3_U_
100
AcDbVertex
100
AcDb2dVertex
 10
10.42198238158104
 20
46.20083867800188
 30
0.0
  0
VERTEX
  5
A1
330
4C
100
AcDbEntity
  8
L2-RESIST_U_306E_U_30B3_U_
100
AcDbVertex
100
AcDb2dVertex
 10
10.56937637847176
 20
46.24515273340315
 30
0.0
  0
VERTEX
  5
A2
330
4C
100
AcDbEntity
  8
L2-RESIST_U_306E_U_30B3_U_
100
AcDbVertex
100
AcDb2dVertex
 10
10.71836118261348
 20
46.30257854628316
 30
0.0
  0
VERTEX
  5
A3
330
4C
100
AcDbEntity
  8
L2-RESIST_U_306E_U_30B3_U_
100
AcDbVertex
100
AcDb2dVertex
 10
10.86887478228917
 20
46.3733174480157
 30
0.0
  0
VERTEX
  5
A4
330
4C
100
AcDbEntity
  8
L2-RESIST_U_306E_U_30B3_U_
100
AcDbVertex
100
AcDb2dVertex
 10
11.02085516578181
 20
46.45757076997643
 30
0.0
  0
VERTEX
  5
A5
330
4C
100
AcDbEntity
  8
L2-RESIST_U_306E_U_30B3_U_
100
AcDbVertex
100
AcDb2dVertex
 10
11.17424032137373
 20
46.55553984354039
 30
0.0
  0
VERTEX
  5
A6
330
4C
100
AcDbEntity
  8
L2-RESIST_U_306E_U_30B3_U_
100
AcDbVertex
100
AcDb2dVertex
 10
12.12842549993855
 20
47.36540391250544
 30
0.0
  0
VERTEX
  5
A7
330
4C
100
AcDbEntity
  8
L2-RESIST_U_306E_U_30B3_U_
100
AcDbVertex
100
AcDb2dVertex
 10
12.90563502546614
 20
48.31629668230022
 30
0.0
  0
VERTEX
  5
A8
330
4C
100
AcDbEntity
  8
L2-RESIST_U_306E_U_30B3_U_
100
AcDbVertex
100
AcDb2dVertex
 10
13.52125855251192
 20
49.33154769264046
 30
0.0
  0
VERTEX
  5
A9
330
4C
100
AcDbEntity
  8
L2-RESIST_U_306E_U_30B3_U_
100
AcDbVertex
100
AcDb2dVertex
 10
13.99068573563133
 20
50.33448648324254
 30
0.0
  0
VERTEX
  5
AA
330
4C
100
AcDbEntity
  8
L2-RESIST_U_306E_U_30B3_U_
100
AcDbVertex
100
AcDb2dVertex
 10
14.32930622937949
 20
51.24844259382286
 30
0.0
  0
VERTEX
  5
AB
330
4C
100
AcDbEntity
  8
L2-RESIST_U_306E_U_30B3_U_
100
AcDbVertex
100
AcDb2dVertex
 10
14.55250968831182
 20
51.99674556409843
 30
0.0
  0
VERTEX
  5
AC
330
4C
100
AcDbEntity
  8
L2-RESIST_U_306E_U_30B3_U_
100
AcDbVertex
100
AcDb2dVertex
 10
14.67568576698376
 20
52.50272493378564
 30
0.0
  0
VERTEX
  5
AD
330
4C
100
AcDbEntity
  8
L2-RESIST_U_306E_U_30B3_U_
100
AcDbVertex
100
AcDb2dVertex
 10
14.71422411995011
 20
52.68971024260022
 30
0.0
  0
VERTEX
  5
AE
330
4C
100
AcDbEntity
  8
L2-RESIST_U_306E_U_30B3_U_
100
AcDbVertex
100
AcDb2dVertex
 10
14.71422411995011
 20
52.68971024260022
 30
0.0
  0
SEQEND
  5
AF
330
4C
100
AcDbEntity
  8
L2-RESIST_U_306E_U_30B3_U_
  0
HATCH
  5
B0
330
1F
100
AcDbEntity
  8
L2-RESIST_U_306E_U_30B3_U_
 62
    21
100
AcDbHatch
 10
0.0
 20
0.0
 30
0.0
210
0.0
220
0.0
230
1.0
  2
SOLID
 70
     1
 71
     0
 91
        1
 92
        1
 93
       96
 72
     1
 10
14.71422411995011
 20
52.68971024260022
 11
14.71512218741849
 21
52.70236050282712
 72
     1
 10
14.71512218741849
 20
52.70236050282712
 11
14.71355714948093
 21
52.71465279510983
 72
     1
 10
14.71355714948093
 20
52.71465279510983
 11
14.7097282704555
 21
52.72627876087829
 72
     1
 10
14.7097282704555
 20
52.72627876087829
 11
14.70383481465961
 21
52.73693004156247
 72
     1
 10
14.70383481465961
 20
52.73693004156247
 11
14.6960760464113
 21
52.74629827859164
 72
     1
 10
14.6960760464113
 20
52.74629827859164
 11
14.68665123002863
 21
52.75407511339641
 72
     1
 10
14.68665123002863
 20
52.75407511339641
 11
14.67575962982902
 21
52.75995218740609
 72
     1
 10
14.67575962982902
 20
52.75995218740609
 11
14.66360051013051
 21
52.76362114204996
 72
     1
 10
14.66360051013051
 20
52.76362114204996
 11
14.33657544957182
 21
52.86774749986829
 72
     1
 10
14.33657544957182
 20
52.86774749986829
 11
13.98071700758716
 21
53.0638487209451
 72
     1
 10
13.98071700758716
 20
53.0638487209451
 11
13.59940813005358
 21
53.34958857081818
 72
     1
 10
13.59940813005358
 20
53.34958857081818
 11
13.19603176284909
 21
53.72263081502658
 72
     1
 10
13.19603176284909
 20
53.72263081502658
 11
12.7739708518504
 21
54.18063921910935
 72
     1
 10
12.7739708518504
 20
54.18063921910935
 11
12.33660834293457
 21
54.72127754860427
 72
     1
 10
12.33660834293457
 20
54.72127754860427
 11
11.88732718197928
 21
55.34220956905168
 72
     1
 10
11.88732718197928
 20
55.34220956905168
 11
11.42951031486125
 21
56.0410990459887
 72
     1
 10
11.42951031486125
 20
56.0410990459887
 11
11.42372234788638
 21
56.04925744530244
 72
     1
 10
11.42372234788638
 20
56.04925744530244
 11
11.41682189070567
 21
56.05624754386523
 72
     1
 10
11.41682189070567
 20
56.05624754386523
 11
11.40898629683021
 21
56.06199575443932
 72
     1
 10
11.40898629683021
 20
56.06199575443932
 11
11.40039291977076
 21
56.0664284897863
 72
     1
 10
11.40039291977076
 20
56.0664284897863
 11
11.39121911303875
 21
56.06947216266902
 72
     1
 10
11.39121911303875
 20
56.06947216266902
 11
11.38164223014493
 21
56.0710531858491
 72
     1
 10
11.38164223014493
 20
56.0710531858491
 11
11.37183962460072
 21
56.07109797208941
 72
     1
 10
11.37183962460072
 20
56.07109797208941
 11
11.3619886499172
 21
56.0695329341509
 72
     1
 10
11.3619886499172
 20
56.0695329341509
 11
11.35232536681117
 21
56.06657766241638
 72
     1
 10
11.35232536681117
 20
56.06657766241638
 11
11.34343939963003
 21
56.06220232235895
 72
     1
 10
11.34343939963003
 20
56.06220232235895
 11
11.33544313484601
 21
56.05655450186489
 72
     1
 10
11.33544313484601
 20
56.05655450186489
 11
11.32844895893073
 21
56.04978178882178
 72
     1
 10
11.32844895893073
 20
56.04978178882178
 11
11.32256925835609
 21
56.04203177111589
 72
     1
 10
11.32256925835609
 20
56.04203177111589
 11
11.31791641959401
 21
56.03345203663418
 72
     1
 10
11.31791641959401
 20
56.03345203663418
 11
11.31460282911673
 21
56.02419017326355
 72
     1
 10
11.31460282911673
 20
56.02419017326355
 11
11.31274087339584
 21
56.01439376889095
 72
     1
 10
11.31274087339584
 20
56.01439376889095
 11
11.07518755860138
 21
54.06893427262557
 72
     1
 10
11.07518755860138
 20
54.06893427262557
 11
10.80976411105428
 21
52.46216582566178
 72
     1
 10
10.80976411105428
 20
52.46216582566178
 11
10.52204373048232
 21
51.17012834072145
 72
     1
 10
10.52204373048232
 20
51.17012834072145
 11
10.217599616613
 21
50.16886173052386
 72
     1
 10
10.217599616613
 20
50.16886173052386
 11
9.902004969174104
 21
49.43440590779023
 72
     1
 10
9.902004969174104
 20
49.43440590779023
 11
9.580832987893114
 21
48.94280078524049
 72
     1
 10
9.580832987893114
 20
48.94280078524049
 11
9.259656872497503
 21
48.67008627559652
 72
     1
 10
9.259656872497503
 20
48.67008627559652
 11
8.944049822715074
 21
48.59230229157825
 72
     1
 10
8.944049822715074
 20
48.59230229157825
 11
8.369562801781061
 21
48.83125420351956
 72
     1
 10
8.369562801781061
 20
48.83125420351956
 11
7.793604036093009
 21
49.487176029897
 72
     1
 10
7.793604036093009
 20
49.487176029897
 11
7.24023076462066
 21
50.42175628273633
 72
     1
 10
7.24023076462066
 20
50.42175628273633
 11
6.733500226333115
 21
51.49668347406394
 72
     1
 10
6.733500226333115
 20
51.49668347406394
 11
6.297469660200116
 21
52.5736461159056
 72
     1
 10
6.297469660200116
 20
52.5736461159056
 11
5.956196305191408
 21
53.51433272028773
 72
     1
 10
5.956196305191408
 20
53.51433272028773
 11
5.73373740027673
 21
54.18043179923542
 72
     1
 10
5.73373740027673
 20
54.18043179923542
 11
5.654150184425184
 21
54.43363186477574
 72
     1
 10
5.654150184425184
 20
54.43363186477574
 11
5.654106087204087
 21
54.43360981616551
 72
     1
 10
5.654106087204087
 20
54.43360981616551
 11
5.654061989982989
 21
54.43358776755464
 72
     1
 10
5.654061989982989
 20
54.43358776755464
 11
5.654017892761892
 21
54.43356571894378
 72
     1
 10
5.654017892761892
 20
54.43356571894378
 11
5.653973795540796
 21
54.43354367033355
 72
     1
 10
5.653973795540796
 20
54.43354367033355
 11
5.653929698319698
 21
54.43352162172332
 72
     1
 10
5.653929698319698
 20
54.43352162172332
 11
5.653885601098601
 21
54.43349957311245
 72
     1
 10
5.653885601098601
 20
54.43349957311245
 11
5.653841503877504
 21
54.43347752450158
 72
     1
 10
5.653841503877504
 20
54.43347752450158
 11
5.653797406656406
 21
54.43345547589135
 72
     1
 10
5.653797406656406
 20
54.43345547589135
 11
5.65118994861631
 21
54.43763254253789
 72
     1
 10
5.65118994861631
 20
54.43763254253789
 11
5.645015670554946
 21
54.44480500952988
 72
     1
 10
5.645015670554946
 20
54.44480500952988
 11
5.636000466604456
 21
54.45372133977079
 72
     1
 10
5.636000466604456
 20
54.45372133977079
 11
5.62487023089698
 21
54.46312999616408
 72
     1
 10
5.62487023089698
 20
54.46312999616408
 11
5.612350857564979
 21
54.47177944161518
 72
     1
 10
5.612350857564979
 20
54.47177944161518
 11
5.599168240740595
 21
54.47841813902753
 72
     1
 10
5.599168240740595
 20
54.47841813902753
 11
5.586048274555966
 21
54.48179455130592
 72
     1
 10
5.586048274555966
 20
54.48179455130592
 11
5.573716853143876
 21
54.4806571413538
 72
     1
 10
5.573716853143876
 20
54.4806571413538
 11
5.562400610485745
 21
54.47609255398182
 72
     1
 10
5.562400610485745
 20
54.47609255398182
 11
5.552448212193388
 21
54.46968521270502
 72
     1
 10
5.552448212193388
 20
54.46968521270502
 11
5.544016341206413
 21
54.46168881155483
 72
     1
 10
5.544016341206413
 20
54.46168881155483
 11
5.537261680462814
 21
54.45235704456202
 72
     1
 10
5.537261680462814
 20
54.45235704456202
 11
5.532340912901876
 21
54.44194360575865
 72
     1
 10
5.532340912901876
 20
54.44194360575865
 11
5.529410721461599
 21
54.43070218917551
 72
     1
 10
5.529410721461599
 20
54.43070218917551
 11
5.528627789081585
 21
54.41888648884399
 72
     1
 10
5.528627789081585
 20
54.41888648884399
 11
5.530148798699834
 21
54.40675019879552
 72
     1
 10
5.530148798699834
 20
54.40675019879552
 11
5.884207798456234
 21
52.91398181891045
 72
     1
 10
5.884207798456234
 20
52.91398181891045
 11
6.289359078810054
 21
51.44626782640722
 72
     1
 10
6.289359078810054
 20
51.44626782640722
 11
6.749116223656037
 21
50.05679443086583
 72
     1
 10
6.749116223656037
 20
50.05679443086583
 11
7.266992816889251
 21
48.79874784186758
 72
     1
 10
7.266992816889251
 20
48.79874784186758
 11
7.846502442404123
 21
47.72531426899248
 72
     1
 10
7.846502442404123
 20
47.72531426899248
 11
8.49115868409572
 21
46.8896799218218
 72
     1
 10
8.49115868409572
 20
46.8896799218218
 11
9.204475125858464
 21
46.34503100993557
 72
     1
 10
9.204475125858464
 20
46.34503100993557
 11
9.989965351587102
 21
46.14455374291441
 72
     1
 10
9.989965351587102
 20
46.14455374291441
 11
10.13221485642169
 21
46.15074051413223
 72
     1
 10
10.13221485642169
 20
46.15074051413223
 11
10.27624120365868
 21
46.16943504870304
 72
     1
 10
10.27624120365868
 20
46.16943504870304
 11
10.42198238158104
 21
46.20083867800188
 72
     1
 10
10.42198238158104
 20
46.20083867800188
 11
10.56937637847176
 21
46.24515273340315
 72
     1
 10
10.56937637847176
 20
46.24515273340315
 11
10.71836118261348
 21
46.30257854628316
 72
     1
 10
10.71836118261348
 20
46.30257854628316
 11
10.86887478228917
 21
46.3733174480157
 72
     1
 10
10.86887478228917
 20
46.3733174480157
 11
11.02085516578181
 21
46.45757076997643
 72
     1
 10
11.02085516578181
 20
46.45757076997643
 11
11.17424032137373
 21
46.55553984354039
 72
     1
 10
11.17424032137373
 20
46.55553984354039
 11
12.12842549993855
 21
47.36540391250544
 72
     1
 10
12.12842549993855
 20
47.36540391250544
 11
12.90563502546614
 21
48.31629668230022
 72
     1
 10
12.90563502546614
 20
48.31629668230022
 11
13.52125855251192
 21
49.33154769264046
 72
     1
 10
13.52125855251192
 20
49.33154769264046
 11
13.99068573563133
 21
50.33448648324254
 72
     1
 10
13.99068573563133
 20
50.33448648324254
 11
14.32930622937949
 21
51.24844259382286
 72
     1
 10
14.32930622937949
 20
51.24844259382286
 11
14.55250968831182
 21
51.99674556409843
 72
     1
 10
14.55250968831182
 20
51.99674556409843
 11
14.67568576698376
 21
52.50272493378564
 72
     1
 10
14.67568576698376
 20
52.50272493378564
 11
14.71422411995011
 21
52.68971024260022
 97
        0
 75
     2
 76
     1
 98
        0
  0
ENDSEC
  0
SECTION
  2
OBJECTS
  0
DICTIONARY
  5
C
330
0
100
AcDbDictionary
  3
ACAD_GROUP
350
D
  3
ACAD_LAYOUT
350
1A
  3
ACAD_MATERIAL
350
3B
  3
ACAD_MLEADERSTYLE
350
D4
  3
ACAD_MLINESTYLE
350
17
  3
ACAD_PLOTSETTINGS
350
19
  3
ACAD_VISUALSTYLE
350
2A
  3
ACDBHEADERROUNDTRIPXREC
350
B2
  3
ACDBVARIABLEDICTIONARY
350
D2
  0
DICTIONARY
  5
D
102
{ACAD_REACTORS
330
C
102
}
330
C
100
AcDbDictionary
  0
DICTIONARY
  5
1A
102
{ACAD_REACTORS
330
C
102
}
330
C
100
AcDbDictionary
  0
DICTIONARY
  5
3B
102
{ACAD_REACTORS
330
C
102
}
330
C
100
AcDbDictionary
  3
BYBLOCK
350
3D
  3
BYLAYER
350
3C
  3
GLOBAL
350
3E
  0
DICTIONARY
  5
D4
102
{ACAD_REACTORS
330
C
102
}
330
C
100
AcDbDictionary
  0
DICTIONARY
  5
17
102
{ACAD_REACTORS
330
C
102
}
330
C
100
AcDbDictionary
  3
STANDARD
350
18
  0
DICTIONARY
  5
19
102
{ACAD_REACTORS
330
C
102
}
330
C
100
AcDbDictionary
  0
DICTIONARY
  5
2A
102
{ACAD_REACTORS
330
C
102
}
330
C
100
AcDbDictionary
  3
2DWIREFRAME
350
2F
  3
3DWIREFRAME
350
30
  3
3D_HIDDEN
350
31
  3
BASIC
350
32
  3
BRIGHTEN
350
36
  3
COLORCHANGE
350
3A
  3
CONCEPTUAL
350
34
  3
DIM
350
35
  3
FACEPATTERN
350
39
  3
FLAT
350
2B
  3
FLATWITHEDGES
350
2C
  3
GOURAUD
350
2D
  3
GOURAUDWITHEDGES
350
2E
  3
LINEPATTERN
350
38
  3
REALISTIC
350
33
  3
THICKEN
350
37
  0
DICTIONARY
  5
B2
102
{ACAD_REACTORS
330
C
102
}
330
C
100
AcDbDictionary
  3
CEPSNTYPE
350
BB
  3
DIMSTYLEDATA
350
D1
  3
FINGERPRINTGUID
350
BC
  3
HYPERLINKBASE
350
B5
  3
INSUNITS
350
BA
  3
LAYOUTDICT
350
B7
  3
LWETCUNION
350
B9
  3
PLOTSETDICT
350
B8
  3
PSVPSCALE
350
BE
  3
PUCSBASE
350
C1
  3
PUCSORGBACK
350
C7
  3
PUCSORGBOTTOM
350
C3
  3
PUCSORGFRONT
350
C6
  3
PUCSORGLEFT
350
C4
  3
PUCSORGRIGHT
350
C5
  3
PUCSORGTOP
350
C2
  3
PUCSORTHOREF
350
BF
  3
PUCSORTHOVIEW
350
C0
  3
STYLESHEET
350
B6
  3
TSTACKALIGN
350
B3
  3
TSTACKSIZE
350
B4
  3
UCSBASE
350
CA
  3
UCSORGBACK
350
D0
  3
UCSORGBOTTOM
350
CC
  3
UCSORGFRONT
350
CF
  3
UCSORGLEFT
350
CD
  3
UCSORGRIGHT
350
CE
  3
UCSORGTOP
350
CB
  3
UCSORTHOREF
350
C8
  3
UCSORTHOVIEW
350
C9
  3
VERSIONGUID
350
BD
  0
DICTIONARY
  5
D2
102
{ACAD_REACTORS
330
C
102
}
330
C
100
AcDbDictionary
  3
DIMASSOC
350
D5
  3
HIDETEXT
350
D6
  0
MATERIAL
  5
3D
102
{ACAD_REACTORS
330
3B
102
}
102
{ACAD_XDICTIONARY
360
D9
102
}
330
3B
100
AcDbMaterial
  1
ByBlock
  0
MATERIAL
  5
3C
102
{ACAD_REACTORS
330
3B
102
}
102
{ACAD_XDICTIONARY
360
D7
102
}
330
3B
100
AcDbMaterial
  1
ByLayer
  0
MATERIAL
  5
3E
102
{ACAD_REACTORS
330
3B
102
}
102
{ACAD_XDICTIONARY
360
DB
102
}
330
3B
100
AcDbMaterial
  1
Global
  0
MLINESTYLE
  5
18
102
{ACAD_REACTORS
330
17
102
}
330
17
100
AcDbMlineStyle
  2
Standard
 70
     0
  3

 62
   256
 51
90.0
 52
90.0
 71
     2
 49
0.5
 62
   256
  6
BYLAYER
 49
-0.5
 62
   256
  6
BYLAYER
  0
ACAD_PROXY_OBJECT
  5
2F
102
{ACAD_REACTORS
330
2A
102
}
330
2A
100
AcDbProxyObject
 90
      499
 91
      501
 93
      436
310
42CC9915DA5C99599C985B595049028333333333333E3BF0000000000000FB0107901411070040501600405405064090741402480A0340
1001
ACAD
1000
AcDbSavedByObjectVersion
1070
     0
  0
ACAD_PROXY_OBJECT
  5
30
102
{ACAD_REACTORS
330
2A
102
}
330
2A
100
AcDbProxyObject
 90
      499
 91
      501
 93
      436
310
42CCD915DA5C99599C985B595059028333333333333E3BF0000000000000FB0107901411070040501600405405064090741402480A0340
1001
ACAD
1000
AcDbSavedByObjectVersion
1070
     0
  0
ACAD_PROXY_OBJECT
  5
31
102
{ACAD_REACTORS
330
2A
102
}
330
2A
100
AcDbProxyObject
 90
      499
 91
      501
 93
      500
310
424CD108121A5919195B90640502408333333333333E3BF0000000000000FB01079024090700405020000000000001110200405405064090740C02480A0340
1001
ACAD
1000
AcDbSavedByObjectVersion
1070
     0
  0
ACAD_PROXY_OBJECT
  5
32
102
{ACAD_REACTORS
330
2A
102
}
330
2A
100
AcDbProxyObject
 90
      499
 91
      501
 93
      388
310
4150985CDA58D07406404333333333333E3BF0000000000000FB0107A41107004050150841D405064090741402480A0350
1001
ACAD
1000
AcDbSavedByObjectVersion
1070
     0
  0
ACAD_PROXY_OBJECT
  5
36
102
{ACAD_REACTORS
330
2A
102
}
330
2A
100
AcDbProxyObject
 90
      499
 91
      501
 93
      428
310
42109C9A59DA1D195B90C409028333333333333E3BF0000000000000FB010790141107004050150841D405064090741402480A029950
1001
ACAD
1000
AcDbSavedByObjectVersion
1070
     0
  0
ACAD_PROXY_OBJECT
  5
3A
102
{ACAD_REACTORS
330
2A
102
}
330
2A
100
AcDbProxyObject
 90
      499
 91
      501
 93
      452
310
42D0DBDB1BDC90DA185B99D95104090240C333333333333E3BF0000000000000FB0108901411070040501508421405064090741402480A0350
1001
ACAD
1000
AcDbSavedByObjectVersion
1070
     0
  0
ACAD_PROXY_OBJECT
  5
34
102
{ACAD_REACTORS
330
2A
102
}
330
2A
100
AcDbProxyObject
 90
      499
 91
      501
 93
      500
310
4290DBDB98D95C1D1D585B10940D028333333333333E3BF0000000000000FB0107902409070040501000000000000111010841D405064090740C02480A0340
1001
ACAD
1000
AcDbSavedByObjectVersion
1070
     0
  0
ACAD_PROXY_OBJECT
  5
35
102
{ACAD_REACTORS
330
2A
102
}
330
2A
100
AcDbProxyObject
 90
      499
 91
      501
 93
      412
310
40D11A5B50B409028333333333333E3BF0000000000000FB010790141107004050150841D405064090741402480A02677FFFFFD0
1001
ACAD
1000
AcDbSavedByObjectVersion
1070
     0
  0
ACAD_PROXY_OBJECT
  5
39
102
{ACAD_REACTORS
330
2A
102
}
330
2A
100
AcDbProxyObject
 90
      499
 91
      501
 93
      444
310
42D19858D95C185D1D195C9B90F409028333333333333E3BF0000000000000FB010790141107004050150841D405064090741402480A0350
1001
ACAD
1000
AcDbSavedByObjectVersion
1070
     0
  0
ACAD_PROXY_OBJECT
  5
2B
102
{ACAD_REACTORS
330
2A
102
}
330
2A
100
AcDbProxyObject
 90
      499
 91
      501
 93
      388
310
41119B185D240901404333333333333E3BF0000000000000F9010740A41107004050150841D405064090741402480A1B50
1001
ACAD
1000
AcDbSavedByObjectVersion
1070
     0
  0
ACAD_PROXY_OBJECT
  5
2C
102
{ACAD_REACTORS
330
2A
102
}
330
2A
100
AcDbProxyObject
 90
      499
 91
      501
 93
      476
310
43519B185D15DA5D1A115919D95CD0140901404333333333333E3BF0000000000000F9010740901411070040501600405405064090741402480A1B50
1001
ACAD
1000
AcDbSavedByObjectVersion
1070
     0
  0
ACAD_PROXY_OBJECT
  5
2D
102
{ACAD_REACTORS
330
2A
102
}
330
2A
100
AcDbProxyObject
 90
      499
 91
      501
 93
      412
310
41D1DBDD5C985D5910240902404333333333333E3BF0000000000000F9010740A411070040501641D405064090741402480A1B50
1001
ACAD
1000
AcDbSavedByObjectVersion
1070
     0
  0
ACAD_PROXY_OBJECT
  5
2E
102
{ACAD_REACTORS
330
2A
102
}
330
2A
100
AcDbProxyObject
 90
      499
 91
      501
 93
      500
310
4411DBDD5C985D5915DA5D1A115919D95CD0340902404333333333333E3BF0000000000000F9010740901411070040501600405405064090741402480A1B50
1001
ACAD
1000
AcDbSavedByObjectVersion
1070
     0
  0
ACAD_PROXY_OBJECT
  5
38
102
{ACAD_REACTORS
330
2A
102
}
330
2A
100
AcDbProxyObject
 90
      499
 91
      501
 93
      444
310
42D31A5B995C185D1D195C9B90E409028333333333333E3BF0000000000000FB010790141107004050750841D405064090741402483A0350
1001
ACAD
1000
AcDbSavedByObjectVersion
1070
     0
  0
ACAD_PROXY_OBJECT
  5
33
102
{ACAD_REACTORS
330
2A
102
}
330
2A
100
AcDbProxyObject
 90
      499
 91
      501
 93
      420
310
425499585B1A5CDD1A58D08409028333333333333E3BF0000000000000FB01079019070040501508421405064090741402480A1B40
1001
ACAD
1000
AcDbSavedByObjectVersion
1070
     0
  0
ACAD_PROXY_OBJECT
  5
37
102
{ACAD_REACTORS
330
2A
102
}
330
2A
100
AcDbProxyObject
 90
      499
 91
      501
 93
      412
310
41D51A1A58DAD95B90D409028333333333333E3BF0000000000000FB010790141107004050150C41D405064090741402480A0350
1001
ACAD
1000
AcDbSavedByObjectVersion
1070
     0
  0
XRECORD
  5
BB
102
{ACAD_REACTORS
330
B2
102
}
330
B2
100
AcDbXrecord
 90
        0
  0
XRECORD
  5
D1
102
{ACAD_REACTORS
330
B2
102
}
330
B2
100
AcDbXrecord
1000
DSTYLE
1002
{
1070
   340
340
11
1002
}
  0
XRECORD
  5
BC
102
{ACAD_REACTORS
330
B2
102
}
330
B2
100
AcDbXrecord
  1
{13CA0D0A-BFE3-7F8B-FCFC-559D916F3318}
  0
XRECORD
  5
B5
102
{ACAD_REACTORS
330
B2
102
}
330
B2
100
AcDbXrecord
  1

  0
XRECORD
  5
BA
102
{ACAD_REACTORS
330
B2
102
}
330
B2
100
AcDbXrecord
 90
        4
  0
XRECORD
  5
B7
102
{ACAD_REACTORS
330
B2
102
}
330
B2
100
AcDbXrecord
340
1A
  0
XRECORD
  5
B9
102
{ACAD_REACTORS
330
B2
102
}
330
B2
100
AcDbXrecord
 90
    10269
  0
XRECORD
  5
B8
102
{ACAD_REACTORS
330
B2
102
}
330
B2
100
AcDbXrecord
340
19
  0
XRECORD
  5
BE
102
{ACAD_REACTORS
330
B2
102
}
330
B2
100
AcDbXrecord
 40
0.0
  0
XRECORD
  5
C1
102
{ACAD_REACTORS
330
B2
102
}
330
B2
100
AcDbXrecord
340
0
  0
XRECORD
  5
C7
102
{ACAD_REACTORS
330
B2
102
}
330
B2
100
AcDbXrecord
 10
0.0
 20
0.0
 30
0.0
  0
XRECORD
  5
C3
102
{ACAD_REACTORS
330
B2
102
}
330
B2
100
AcDbXrecord
 10
0.0
 20
0.0
 30
0.0
  0
XRECORD
  5
C6
102
{ACAD_REACTORS
330
B2
102
}
330
B2
100
AcDbXrecord
 10
0.0
 20
0.0
 30
0.0
  0
XRECORD
  5
C4
102
{ACAD_REACTORS
330
B2
102
}
330
B2
100
AcDbXrecord
 10
0.0
 20
0.0
 30
0.0
  0
XRECORD
  5
C5
102
{ACAD_REACTORS
330
B2
102
}
330
B2
100
AcDbXrecord
 10
0.0
 20
0.0
 30
0.0
  0
XRECORD
  5
C2
102
{ACAD_REACTORS
330
B2
102
}
330
B2
100
AcDbXrecord
 10
0.0
 20
0.0
 30
0.0
  0
XRECORD
  5
BF
102
{ACAD_REACTORS
330
B2
102
}
330
B2
100
AcDbXrecord
340
0
  0
XRECORD
  5
C0
102
{ACAD_REACTORS
330
B2
102
}
330
B2
100
AcDbXrecord
 70
     0
  0
XRECORD
  5
B6
102
{ACAD_REACTORS
330
B2
102
}
330
B2
100
AcDbXrecord
  1

  0
XRECORD
  5
B3
102
{ACAD_REACTORS
330
B2
102
}
330
B2
100
AcDbXrecord
 90
        1
  0
XRECORD
  5
B4
102
{ACAD_REACTORS
330
B2
102
}
330
B2
100
AcDbXrecord
 90
       70
  0
XRECORD
  5
CA
102
{ACAD_REACTORS
330
B2
102
}
330
B2
100
AcDbXrecord
340
0
  0
XRECORD
  5
D0
102
{ACAD_REACTORS
330
B2
102
}
330
B2
100
AcDbXrecord
 10
0.0
 20
0.0
 30
0.0
  0
XRECORD
  5
CC
102
{ACAD_REACTORS
330
B2
102
}
330
B2
100
AcDbXrecord
 10
0.0
 20
0.0
 30
0.0
  0
XRECORD
  5
CF
102
{ACAD_REACTORS
330
B2
102
}
330
B2
100
AcDbXrecord
 10
0.0
 20
0.0
 30
0.0
  0
XRECORD
  5
CD
102
{ACAD_REACTORS
330
B2
102
}
330
B2
100
AcDbXrecord
 10
0.0
 20
0.0
 30
0.0
  0
XRECORD
  5
CE
102
{ACAD_REACTORS
330
B2
102
}
330
B2
100
AcDbXrecord
 10
0.0
 20
0.0
 30
0.0
  0
XRECORD
  5
CB
102
{ACAD_REACTORS
330
B2
102
}
330
B2
100
AcDbXrecord
 10
0.0
 20
0.0
 30
0.0
  0
XRECORD
  5
C8
102
{ACAD_REACTORS
330
B2
102
}
330
B2
100
AcDbXrecord
340
0
  0
XRECORD
  5
C9
102
{ACAD_REACTORS
330
B2
102
}
330
B2
100
AcDbXrecord
 70
     0
  0
XRECORD
  5
BD
102
{ACAD_REACTORS
330
B2
102
}
330
B2
100
AcDbXrecord
  1
{FAEB1C32-E019-11D5-929B-00C0DF256EC4}
  0
DICTIONARYVAR
  5
D5
102
{ACAD_REACTORS
330
D2
102
}
330
D2
100
DictionaryVariables
280
     0
  1
2
  0
DICTIONARYVAR
  5
D6
102
{ACAD_REACTORS
330
D2
102
}
330
D2
100
DictionaryVariables
280
     0
  1
1
  0
DICTIONARY
  5
D9
330
3D
100
AcDbDictionary
280
     1
  3
ACAD_XREC_ROUNDTRIP
360
DA
  0
DICTIONARY
  5
D7
330
3C
100
AcDbDictionary
280
     1
  3
ACAD_XREC_ROUNDTRIP
360
D8
  0
DICTIONARY
  5
DB
330
3E
100
AcDbDictionary
280
     1
  3
ACAD_XREC_ROUNDTRIP
360
DC
  0
XRECORD
  5
DA
102
{ACAD_REACTORS
330
D9
102
}
330
D9
100
AcDbXrecord
102
MATERIAL
148
0.0
149
0.0
149
0.0
 93
        0
 94
      127
282
     0
 72
     1
 77
     1
171
     1
175
     1
179
     1
273
     0
  0
XRECORD
  5
D8
102
{ACAD_REACTORS
330
D7
102
}
330
D7
100
AcDbXrecord
102
MATERIAL
148
0.0
149
0.0
149
0.0
 93
        0
 94
      127
282
     0
 72
     1
 77
     1
171
     1
175
     1
179
     1
273
     0
  0
XRECORD
  5
DC
102
{ACAD_REACTORS
330
DB
102
}
330
DB
100
AcDbXrecord
102
MATERIAL
148
0.0
149
0.0
149
0.0
 93
        0
 94
      127
282
     0
 72
     1
 77
     1
171
     1
175
     1
179
     1
273
     0
  0
ENDSEC
  0
EOF
