  0
SECTION
  2
HEADER
  9
$ACADVER
  1
AC1014
  9
$ACADMAINTVER
 70
     9
  9
$DWGCODEPAGE
  3
UNDEFINED
  9
$INSBASE
 10
0.0
 20
0.0
 30
0.0
  9
$EXTMIN
 10
1.000000000000000E+20
 20
1.000000000000000E+20
 30
1.000000000000000E+20
  9
$EXTMAX
 10
-1.000000000000000E+20
 20
-1.000000000000000E+20
 30
-1.000000000000000E+20
  9
$LIMMIN
 10
0.0
 20
0.0
  9
$LIMMAX
 10
12.0
 20
9.0
  9
$ORTHOMODE
 70
     0
  9
$REGENMODE
 70
     1
  9
$FILLMODE
 70
     1
  9
$QTEXTMODE
 70
     0
  9
$MIRRTEXT
 70
     1
  9
$DRAGMODE
 70
     2
  9
$LTSCALE
 40
1.0
  9
$OSMODE
 70
    37
  9
$ATTMODE
 70
     1
  9
$TEXTSIZE
 40
0.2
  9
$TRACEWID
 40
0.05
  9
$TEXTSTYLE
  7
STANDARD
  9
$CLAYER
  8
0
  9
$CELTYPE
  6
BYLAYER
  9
$CECOLOR
 62
   256
  9
$CELTSCALE
 40
1.0
  9
$DELOBJ
 70
     1
  9
$DISPSILH
 70
     0
  9
$DIMSCALE
 40
1.0
  9
$DIMASZ
 40
0.18
  9
$DIMEXO
 40
0.0625
  9
$DIMDLI
 40
0.38
  9
$DIMRND
 40
0.0
  9
$DIMDLE
 40
0.0
  9
$DIMEXE
 40
0.18
  9
$DIMTP
 40
0.0
  9
$DIMTM
 40
0.0
  9
$DIMTXT
 40
0.18
  9
$DIMCEN
 40
0.09
  9
$DIMTSZ
 40
0.0
  9
$DIMTOL
 70
     0
  9
$DIMLIM
 70
     0
  9
$DIMTIH
 70
     1
  9
$DIMTOH
 70
     1
  9
$DIMSE1
 70
     0
  9
$DIMSE2
 70
     0
  9
$DIMTAD
 70
     0
  9
$DIMZIN
 70
     0
  9
$DIMBLK
  1

  9
$DIMASO
 70
     1
  9
$DIMSHO
 70
     1
  9
$DIMPOST
  1

  9
$DIMAPOST
  1

  9
$DIMALT
 70
     0
  9
$DIMALTD
 70
     2
  9
$DIMALTF
 40
25.4
  9
$DIMLFAC
 40
1.0
  9
$DIMTOFL
 70
     0
  9
$DIMTVP
 40
0.0
  9
$DIMTIX
 70
     0
  9
$DIMSOXD
 70
     0
  9
$DIMSAH
 70
     0
  9
$DIMBLK1
  1

  9
$DIMBLK2
  1

  9
$DIMSTYLE
  2
STANDARD
  9
$DIMCLRD
 70
     0
  9
$DIMCLRE
 70
     0
  9
$DIMCLRT
 70
     0
  9
$DIMTFAC
 40
1.0
  9
$DIMGAP
 40
0.09
  9
$DIMJUST
 70
     0
  9
$DIMSD1
 70
     0
  9
$DIMSD2
 70
     0
  9
$DIMTOLJ
 70
     1
  9
$DIMTZIN
 70
     0
  9
$DIMALTZ
 70
     0
  9
$DIMALTTZ
 70
     0
  9
$DIMFIT
 70
     3
  9
$DIMUPT
 70
     0
  9
$DIMUNIT
 70
     2
  9
$DIMDEC
 70
     4
  9
$DIMTDEC
 70
     4
  9
$DIMALTU
 70
     2
  9
$DIMALTTD
 70
     2
  9
$DIMTXSTY
  7
STANDARD
  9
$DIMAUNIT
 70
     0
  9
$LUNITS
 70
     2
  9
$LUPREC
 70
     4
  9
$SKETCHINC
 40
0.1
  9
$FILLETRAD
 40
0.5
  9
$AUNITS
 70
     0
  9
$AUPREC
 70
     0
  9
$MENU
  1
.
  9
$ELEVATION
 40
0.0
  9
$PELEVATION
 40
0.0
  9
$THICKNESS
 40
0.0
  9
$LIMCHECK
 70
     0
  9
$CHAMFERA
 40
0.5
  9
$CHAMFERB
 40
0.5
  9
$CHAMFERC
 40
1.0
  9
$CHAMFERD
 40
0.0
  9
$SKPOLY
 70
     0
  9
$TDCREATE
 40
2458968.636574074
  9
$TDUPDATE
 40
2458968.636574074
  9
$TDINDWG
 40
0.0000000116
  9
$TDUSRTIMER
 40
0.0000000116
  9
$USRTIMER
 70
     1
  9
$ANGBASE
 50
0.0
  9
$ANGDIR
 70
     0
  9
$PDMODE
 70
     0
  9
$PDSIZE
 40
0.0
  9
$PLINEWID
 40
0.0
  9
$COORDS
 70
     1
  9
$SPLFRAME
 70
     0
  9
$SPLINETYPE
 70
     6
  9
$SPLINESEGS
 70
     8
  9
$ATTDIA
 70
     0
  9
$ATTREQ
 70
     1
  9
$HANDLING
 70
     1
  9
$HANDSEED
  5
153
  9
$SURFTAB1
 70
     6
  9
$SURFTAB2
 70
     6
  9
$SURFTYPE
 70
     6
  9
$SURFU
 70
     6
  9
$SURFV
 70
     6
  9
$UCSNAME
  2

  9
$UCSORG
 10
0.0
 20
0.0
 30
0.0
  9
$UCSXDIR
 10
1.0
 20
0.0
 30
0.0
  9
$UCSYDIR
 10
0.0
 20
1.0
 30
0.0
  9
$PUCSNAME
  2

  9
$PUCSORG
 10
0.0
 20
0.0
 30
0.0
  9
$PUCSXDIR
 10
1.0
 20
0.0
 30
0.0
  9
$PUCSYDIR
 10
0.0
 20
1.0
 30
0.0
  9
$USERI1
 70
     0
  9
$USERI2
 70
     0
  9
$USERI3
 70
     0
  9
$USERI4
 70
     0
  9
$USERI5
 70
     0
  9
$USERR1
 40
0.0
  9
$USERR2
 40
0.0
  9
$USERR3
 40
0.0
  9
$USERR4
 40
0.0
  9
$USERR5
 40
0.0
  9
$WORLDVIEW
 70
     1
  9
$SHADEDGE
 70
     3
  9
$SHADEDIF
 70
    70
  9
$TILEMODE
 70
     1
  9
$MAXACTVP
 70
    64
  9
$PINSBASE
 10
0.0
 20
0.0
 30
0.0
  9
$PLIMCHECK
 70
     0
  9
$PEXTMIN
 10
1.000000000000000E+20
 20
1.000000000000000E+20
 30
1.000000000000000E+20
  9
$PEXTMAX
 10
-1.000000000000000E+20
 20
-1.000000000000000E+20
 30
-1.000000000000000E+20
  9
$PLIMMIN
 10
0.0
 20
0.0
  9
$PLIMMAX
 10
12.0
 20
9.0
  9
$UNITMODE
 70
     0
  9
$VISRETAIN
 70
     1
  9
$PLINEGEN
 70
     0
  9
$PSLTSCALE
 70
     1
  9
$TREEDEPTH
 70
  3020
  9
$PICKSTYLE
 70
     1
  9
$CMLSTYLE
  2
STANDARD
  9
$CMLJUST
 70
     0
  9
$CMLSCALE
 40
1.0
  9
$PROXYGRAPHICS
 70
     1
  9
$MEASUREMENT
 70
     0
  0
ENDSEC
  0
SECTION
  2
CLASSES
  0
CLASS
  1
ACDBDICTIONARYWDFLT
  2
AcDbDictionaryWithDefault
  3
ObjectDBX Classes
 90
        0
280
     0
281
     0
  0
CLASS
  1
VISUALSTYLE
  2
AcDbVisualStyle
  3
ObjectDBX Classes
 90
     4095
280
     0
281
     0
  0
CLASS
  1
MATERIAL
  2
AcDbMaterial
  3
ObjectDBX Classes
 90
     1153
280
     0
281
     0
  0
CLASS
  1
SUN
  2
AcDbSun
  3
SCENEOE
 90
     1024
280
     0
281
     0
  0
CLASS
  1
DICTIONARYVAR
  2
AcDbDictionaryVar
  3
ObjectDBX Classes
 90
        0
280
     0
281
     0
  0
CLASS
  1
XRECORD
  2
AcDbXrecord
  3
AutoCAD 2000
 90
        0
280
     0
281
     0
  0
CLASS
  1
LWPOLYLINE
  2
AcDbPolyline
  3
AutoCAD 2000
 90
        0
280
     0
281
     1
  0
CLASS
  1
HATCH
  2
AcDbHatch
  3
AutoCAD 2000
 90
        0
280
     0
281
     1
  0
CLASS
  1
ACDBPLACEHOLDER
  2
AcDbPlaceHolder
  3
ObjectDBX Classes
 90
        0
280
     0
281
     0
  0
CLASS
  1
LAYOUT
  2
AcDbLayout
  3
ObjectDBX Classes
 90
        0
280
     0
281
     0
  0
ENDSEC
  0
SECTION
  2
TABLES
  0
TABLE
  2
VPORT
  5
8
330
0
100
AcDbSymbolTable
 70
     1
  0
VPORT
  5
29
330
8
100
AcDbSymbolTableRecord
100
AcDbViewportTableRecord
  2
*ACTIVE
 70
     0
 10
0.0
 20
0.0
 11
1.0
 21
1.0
 12
0.0
 22
0.0
 13
0.0
 23
0.0
 14
0.5
 24
0.5
 15
0.5
 25
0.5
 16
0.0
 26
0.0
 36
1.0
 17
104.9999989878935
 27
148.4996183011652
 37
0.0
 40
297.0000052006764
 41
0.7070706878738762
 42
50.0
 43
0.0
 44
0.0
 50
0.0
 51
0.0
 71
     0
 72
   100
 73
     1
 74
     3
 75
     0
 76
     0
 77
     0
 78
     0
  0
ENDTAB
  0
TABLE
  2
LTYPE
  5
5
330
0
100
AcDbSymbolTable
 70
     1
  0
LTYPE
  5
14
330
5
100
AcDbSymbolTableRecord
100
AcDbLinetypeTableRecord
  2
BYBLOCK
 70
     0
  3

 72
    65
 73
     0
 40
0.0
  0
LTYPE
  5
15
330
5
100
AcDbSymbolTableRecord
100
AcDbLinetypeTableRecord
  2
BYLAYER
 70
     0
  3

 72
    65
 73
     0
 40
0.0
  0
LTYPE
  5
16
330
5
100
AcDbSymbolTableRecord
100
AcDbLinetypeTableRecord
  2
CONTINUOUS
 70
     0
  3
Solid line
 72
    65
 73
     0
 40
0.0
  0
ENDTAB
  0
TABLE
  2
LAYER
  5
2
330
0
100
AcDbSymbolTable
 70
    12
  0
LAYER
  5
10
330
2
100
AcDbSymbolTableRecord
100
AcDbLayerTableRecord
  2
0
 70
     0
 62
     7
  6
CONTINUOUS
  0
LAYER
  5
40
330
2
100
AcDbSymbolTableRecord
100
AcDbLayerTableRecord
  2
OUTLINE
 70
     5
 62
     7
  6
CONTINUOUS
  0
LAYER
  5
41
330
2
100
AcDbSymbolTableRecord
100
AcDbLayerTableRecord
  2
OUTLINE_U_306E_U_30B3_U_30
 70
     4
 62
     7
  6
CONTINUOUS
  0
LAYER
  5
42
330
2
100
AcDbSymbolTableRecord
100
AcDbLayerTableRecord
  2
L2-SILK
 70
     5
 62
     7
  6
CONTINUOUS
  0
LAYER
  5
43
330
2
100
AcDbSymbolTableRecord
100
AcDbLayerTableRecord
  2
L2-PATTERN
 70
     5
 62
     7
  6
CONTINUOUS
  0
LAYER
  5
44
330
2
100
AcDbSymbolTableRecord
100
AcDbLayerTableRecord
  2
L2-RESIST
 70
     5
 62
     7
  6
CONTINUOUS
  0
LAYER
  5
45
330
2
100
AcDbSymbolTableRecord
100
AcDbLayerTableRecord
  2
L1-PATTERN
 70
     5
 62
     7
  6
CONTINUOUS
  0
LAYER
  5
46
330
2
100
AcDbSymbolTableRecord
100
AcDbLayerTableRecord
  2
L1-RESIST
 70
     5
 62
     7
  6
CONTINUOUS
  0
LAYER
  5
47
330
2
100
AcDbSymbolTableRecord
100
AcDbLayerTableRecord
  2
L1-SILK
 70
     5
 62
     7
  6
CONTINUOUS
  0
LAYER
  5
48
330
2
100
AcDbSymbolTableRecord
100
AcDbLayerTableRecord
  2
DRILL
 70
     5
 62
     7
  6
CONTINUOUS
  0
LAYER
  5
49
330
2
100
AcDbSymbolTableRecord
100
AcDbLayerTableRecord
  2
HANE
 70
     0
 62
     7
  6
CONTINUOUS
  0
LAYER
  5
4A
330
2
100
AcDbSymbolTableRecord
100
AcDbLayerTableRecord
  2
L2-RESIST_U_306E_U_30B3_U_
 70
     0
 62
     7
  6
CONTINUOUS
  0
ENDTAB
  0
TABLE
  2
STYLE
  5
3
330
0
100
AcDbSymbolTable
 70
     1
  0
STYLE
  5
11
330
3
100
AcDbSymbolTableRecord
100
AcDbTextStyleTableRecord
  2
STANDARD
 70
     0
 40
0.0
 41
1.0
 50
0.0
 71
     0
 42
0.2
  3
txt
  4

  0
ENDTAB
  0
TABLE
  2
VIEW
  5
6
330
0
100
AcDbSymbolTable
 70
     0
  0
ENDTAB
  0
TABLE
  2
UCS
  5
7
330
0
100
AcDbSymbolTable
 70
     0
  0
ENDTAB
  0
TABLE
  2
APPID
  5
9
330
0
100
AcDbSymbolTable
 70
     1
  0
APPID
  5
12
330
9
100
AcDbSymbolTableRecord
100
AcDbRegAppTableRecord
  2
ACAD
 70
     0
  0
ENDTAB
  0
TABLE
  2
DIMSTYLE
  5
A
330
0
100
AcDbSymbolTable
 70
     1
  0
DIMSTYLE
105
27
330
A
100
AcDbSymbolTableRecord
100
AcDbDimStyleTableRecord
  2
STANDARD
 70
     0
  3

  4

  5

  6

  7

 40
1.0
 41
0.18
 42
0.0625
 43
0.38
 44
0.18
 45
0.0
 46
0.0
 47
0.0
 48
0.0
140
0.18
141
0.09
142
0.0
143
25.4
144
1.0
145
0.0
146
1.0
147
0.09
 71
     0
 72
     0
 73
     1
 74
     1
 75
     0
 76
     0
 77
     0
 78
     0
170
     0
171
     2
172
     0
173
     0
174
     0
175
     0
176
     0
177
     0
178
     0
270
     2
271
     4
272
     4
273
     2
274
     2
340
11
275
     0
280
     0
281
     0
282
     0
283
     1
284
     0
285
     0
286
     0
287
     3
288
     0
  0
ENDTAB
  0
TABLE
  2
BLOCK_RECORD
  5
1
330
0
100
AcDbSymbolTable
 70
     1
  0
BLOCK_RECORD
  5
1F
330
1
100
AcDbSymbolTableRecord
100
AcDbBlockTableRecord
  2
*MODEL_SPACE
  0
BLOCK_RECORD
  5
1B
330
1
100
AcDbSymbolTableRecord
100
AcDbBlockTableRecord
  2
*PAPER_SPACE
  0
ENDTAB
  0
ENDSEC
  0
SECTION
  2
BLOCKS
  0
BLOCK
  5
20
330
1F
100
AcDbEntity
  8
0
100
AcDbBlockBegin
  2
*MODEL_SPACE
 70
     0
 10
0.0
 20
0.0
 30
0.0
  3
*MODEL_SPACE
  1

  0
ENDBLK
  5
21
330
1F
100
AcDbEntity
  8
0
100
AcDbBlockEnd
  0
BLOCK
  5
1C
330
1B
100
AcDbEntity
 67
     1
  8
0
100
AcDbBlockBegin
  2
*PAPER_SPACE
 70
     0
 10
0.0
 20
0.0
 30
0.0
  3
*PAPER_SPACE
  1

  0
ENDBLK
  5
1D
330
1B
100
AcDbEntity
 67
     1
  8
0
100
AcDbBlockEnd
  0
ENDSEC
  0
SECTION
  2
ENTITIES
  0
POLYLINE
  5
4B
330
1F
100
AcDbEntity
  8
L2-RESIST_U_306E_U_30B3_U_
100
AcDb2dPolyline
 66
     1
 10
0.0
 20
0.0
 30
0.0
  0
VERTEX
  5
4C
330
4B
100
AcDbEntity
  8
L2-RESIST_U_306E_U_30B3_U_
100
AcDbVertex
100
AcDb2dVertex
 10
11.72146919630165
 20
29.4403147246306
 30
0.0
  0
VERTEX
  5
4D
330
4B
100
AcDbEntity
  8
L2-RESIST_U_306E_U_30B3_U_
100
AcDbVertex
100
AcDb2dVertex
 10
11.91517223443704
 20
28.85169984978227
 30
0.0
  0
VERTEX
  5
4E
330
4B
100
AcDbEntity
  8
L2-RESIST_U_306E_U_30B3_U_
100
AcDbVertex
100
AcDb2dVertex
 10
12.14353858223527
 20
28.3014119368462
 30
0.0
  0
VERTEX
  5
4F
330
4B
100
AcDbEntity
  8
L2-RESIST_U_306E_U_30B3_U_
100
AcDbVertex
100
AcDb2dVertex
 10
12.40513907632074
 20
27.80164703694431
 30
0.0
  0
VERTEX
  5
50
330
4B
100
AcDbEntity
  8
L2-RESIST_U_306E_U_30B3_U_
100
AcDbVertex
100
AcDb2dVertex
 10
12.69854455331882
 20
27.3646012011979
 30
0.0
  0
VERTEX
  5
51
330
4B
100
AcDbEntity
  8
L2-RESIST_U_306E_U_30B3_U_
100
AcDbVertex
100
AcDb2dVertex
 10
13.02232584985458
 20
27.00247048072699
 30
0.0
  0
VERTEX
  5
52
330
4B
100
AcDbEntity
  8
L2-RESIST_U_306E_U_30B3_U_
100
AcDbVertex
100
AcDb2dVertex
 10
13.37505380255273
 20
26.72745092665415
 30
0.0
  0
VERTEX
  5
53
330
4B
100
AcDbEntity
  8
L2-RESIST_U_306E_U_30B3_U_
100
AcDbVertex
100
AcDb2dVertex
 10
13.75529924803834
 20
26.55173859009939
 30
0.0
  0
VERTEX
  5
54
330
4B
100
AcDbEntity
  8
L2-RESIST_U_306E_U_30B3_U_
100
AcDbVertex
100
AcDb2dVertex
 10
14.16163302293677
 20
26.48752952218465
 30
0.0
  0
VERTEX
  5
55
330
4B
100
AcDbEntity
  8
L2-RESIST_U_306E_U_30B3_U_
100
AcDbVertex
100
AcDb2dVertex
 10
14.27612436421973
 20
26.49238503963917
 30
0.0
  0
VERTEX
  5
56
330
4B
100
AcDbEntity
  8
L2-RESIST_U_306E_U_30B3_U_
100
AcDbVertex
100
AcDb2dVertex
 10
14.3918828331933
 20
26.50705907897832
 30
0.0
  0
VERTEX
  5
57
330
4B
100
AcDbEntity
  8
L2-RESIST_U_306E_U_30B3_U_
100
AcDbVertex
100
AcDb2dVertex
 10
14.50880633883288
 20
26.53171287066707
 30
0.0
  0
VERTEX
  5
58
330
4B
100
AcDbEntity
  8
L2-RESIST_U_306E_U_30B3_U_
100
AcDbVertex
100
AcDb2dVertex
 10
14.62679279011384
 20
26.56650764516975
 30
0.0
  0
VERTEX
  5
59
330
4B
100
AcDbEntity
  8
L2-RESIST_U_306E_U_30B3_U_
100
AcDbVertex
100
AcDb2dVertex
 10
14.74574009601221
 20
26.61160463295136
 30
0.0
  0
VERTEX
  5
5A
330
4B
100
AcDbEntity
  8
L2-RESIST_U_306E_U_30B3_U_
100
AcDbVertex
100
AcDb2dVertex
 10
14.86554616550305
 20
26.66716506447685
 30
0.0
  0
VERTEX
  5
5B
330
4B
100
AcDbEntity
  8
L2-RESIST_U_306E_U_30B3_U_
100
AcDbVertex
100
AcDb2dVertex
 10
14.98610890756176
 20
26.73335017020993
 30
0.0
  0
VERTEX
  5
5C
330
4B
100
AcDbEntity
  8
L2-RESIST_U_306E_U_30B3_U_
100
AcDbVertex
100
AcDb2dVertex
 10
15.10732623116468
 20
26.81032118061622
 30
0.0
  0
VERTEX
  5
5D
330
4B
100
AcDbEntity
  8
L2-RESIST_U_306E_U_30B3_U_
100
AcDbVertex
100
AcDb2dVertex
 10
15.21204777224054
 20
26.87601949436985
 30
0.0
  0
VERTEX
  5
5E
330
4B
100
AcDbEntity
  8
L2-RESIST_U_306E_U_30B3_U_
100
AcDbVertex
100
AcDb2dVertex
 10
15.49025055060694
 20
27.09374780098961
 30
0.0
  0
VERTEX
  5
5F
330
4B
100
AcDbEntity
  8
L2-RESIST_U_306E_U_30B3_U_
100
AcDbVertex
100
AcDb2dVertex
 10
15.90041191225707
 20
27.49913927339402
 30
0.0
  0
VERTEX
  5
60
330
4B
100
AcDbEntity
  8
L2-RESIST_U_306E_U_30B3_U_
100
AcDbVertex
100
AcDb2dVertex
 10
16.40100920318314
 20
28.12782708450352
 30
0.0
  0
VERTEX
  5
61
330
4B
100
AcDbEntity
  8
L2-RESIST_U_306E_U_30B3_U_
100
AcDbVertex
100
AcDb2dVertex
 10
16.95051976937801
 20
29.01544440723599
 30
0.0
  0
VERTEX
  5
62
330
4B
100
AcDbEntity
  8
L2-RESIST_U_306E_U_30B3_U_
100
AcDbVertex
100
AcDb2dVertex
 10
17.50742095683422
 20
30.19762441451121
 30
0.0
  0
VERTEX
  5
63
330
4B
100
AcDbEntity
  8
L2-RESIST_U_306E_U_30B3_U_
100
AcDbVertex
100
AcDb2dVertex
 10
18.03019011154432
 20
31.71000027924772
 30
0.0
  0
VERTEX
  5
64
330
4B
100
AcDbEntity
  8
L2-RESIST_U_306E_U_30B3_U_
100
AcDbVertex
100
AcDb2dVertex
 10
18.47730457950148
 20
33.58820517436466
 30
0.0
  0
VERTEX
  5
65
330
4B
100
AcDbEntity
  8
L2-RESIST_U_306E_U_30B3_U_
100
AcDbVertex
100
AcDb2dVertex
 10
18.4782259383445
 20
33.59581594131464
 30
0.0
  0
VERTEX
  5
66
330
4B
100
AcDbEntity
  8
L2-RESIST_U_306E_U_30B3_U_
100
AcDbVertex
100
AcDb2dVertex
 10
18.47827553203198
 20
33.60336469654727
 30
0.0
  0
VERTEX
  5
67
330
4B
100
AcDbEntity
  8
L2-RESIST_U_306E_U_30B3_U_
100
AcDbVertex
100
AcDb2dVertex
 10
18.4774716184728
 20
33.61078612105403
 30
0.0
  0
VERTEX
  5
68
330
4B
100
AcDbEntity
  8
L2-RESIST_U_306E_U_30B3_U_
100
AcDbVertex
100
AcDb2dVertex
 10
18.47583245557582
 20
33.61801489582637
 30
0.0
  0
VERTEX
  5
69
330
4B
100
AcDbEntity
  8
L2-RESIST_U_306E_U_30B3_U_
100
AcDbVertex
100
AcDb2dVertex
 10
18.47337630125089
 20
33.62498570185514
 30
0.0
  0
VERTEX
  5
6A
330
4B
100
AcDbEntity
  8
L2-RESIST_U_306E_U_30B3_U_
100
AcDbVertex
100
AcDb2dVertex
 10
18.47012141340687
 20
33.6316332201318
 30
0.0
  0
VERTEX
  5
6B
330
4B
100
AcDbEntity
  8
L2-RESIST_U_306E_U_30B3_U_
100
AcDbVertex
100
AcDb2dVertex
 10
18.46608604995327
 20
33.63789213164718
 30
0.0
  0
VERTEX
  5
6C
330
4B
100
AcDbEntity
  8
L2-RESIST_U_306E_U_30B3_U_
100
AcDbVertex
100
AcDb2dVertex
 10
18.46128846879898
 20
33.64369711739339
 30
0.0
  0
VERTEX
  5
6D
330
4B
100
AcDbEntity
  8
L2-RESIST_U_306E_U_30B3_U_
100
AcDbVertex
100
AcDb2dVertex
 10
18.45599839077467
 20
33.64880550484985
 30
0.0
  0
VERTEX
  5
6E
330
4B
100
AcDbEntity
  8
L2-RESIST_U_306E_U_30B3_U_
100
AcDbVertex
100
AcDb2dVertex
 10
18.4501357604751
 20
33.65325078034426
 30
0.0
  0
VERTEX
  5
6F
330
4B
100
AcDbEntity
  8
L2-RESIST_U_306E_U_30B3_U_
100
AcDbVertex
100
AcDb2dVertex
 10
18.44378948394209
 20
33.65698498814807
 30
0.0
  0
VERTEX
  5
70
330
4B
100
AcDbEntity
  8
L2-RESIST_U_306E_U_30B3_U_
100
AcDbVertex
100
AcDb2dVertex
 10
18.43704846721748
 20
33.65996017253403
 30
0.0
  0
VERTEX
  5
71
330
4B
100
AcDbEntity
  8
L2-RESIST_U_306E_U_30B3_U_
100
AcDbVertex
100
AcDb2dVertex
 10
18.43000161634212
 20
33.6621283777736
 30
0.0
  0
VERTEX
  5
72
330
4B
100
AcDbEntity
  8
L2-RESIST_U_306E_U_30B3_U_
100
AcDbVertex
100
AcDb2dVertex
 10
18.42273783735786
 20
33.6634416481395
 30
0.0
  0
VERTEX
  5
73
330
4B
100
AcDbEntity
  8
L2-RESIST_U_306E_U_30B3_U_
100
AcDbVertex
100
AcDb2dVertex
 10
18.41534603630589
 20
33.6638520279032
 30
0.0
  0
VERTEX
  5
74
330
4B
100
AcDbEntity
  8
L2-RESIST_U_306E_U_30B3_U_
100
AcDbVertex
100
AcDb2dVertex
 10
18.40791511922834
 20
33.66331156133742
 30
0.0
  0
VERTEX
  5
75
330
4B
100
AcDbEntity
  8
L2-RESIST_U_306E_U_30B3_U_
100
AcDbVertex
100
AcDb2dVertex
 10
18.40672082856547
 20
33.66317816724352
 30
0.0
  0
VERTEX
  5
76
330
4B
100
AcDbEntity
  8
L2-RESIST_U_306E_U_30B3_U_
100
AcDbVertex
100
AcDb2dVertex
 10
18.40314349883616
 20
33.66282649190536
 30
0.0
  0
VERTEX
  5
77
330
4B
100
AcDbEntity
  8
L2-RESIST_U_306E_U_30B3_U_
100
AcDbVertex
100
AcDb2dVertex
 10
18.39719144342986
 20
33.66232929573724
 30
0.0
  0
VERTEX
  5
78
330
4B
100
AcDbEntity
  8
L2-RESIST_U_306E_U_30B3_U_
100
AcDbVertex
100
AcDb2dVertex
 10
18.38887297573569
 20
33.66175933915481
 30
0.0
  0
VERTEX
  5
79
330
4B
100
AcDbEntity
  8
L2-RESIST_U_306E_U_30B3_U_
100
AcDbVertex
100
AcDb2dVertex
 10
18.37819640914376
 20
33.66118938257236
 30
0.0
  0
VERTEX
  5
7A
330
4B
100
AcDbEntity
  8
L2-RESIST_U_306E_U_30B3_U_
100
AcDbVertex
100
AcDb2dVertex
 10
18.36517005704286
 20
33.66069218640425
 30
0.0
  0
VERTEX
  5
7B
330
4B
100
AcDbEntity
  8
L2-RESIST_U_306E_U_30B3_U_
100
AcDbVertex
100
AcDb2dVertex
 10
18.34980223282276
 20
33.66034051106608
 30
0.0
  0
VERTEX
  5
7C
330
4B
100
AcDbEntity
  8
L2-RESIST_U_306E_U_30B3_U_
100
AcDbVertex
100
AcDb2dVertex
 10
18.33210124987259
 20
33.66020711697218
 30
0.0
  0
VERTEX
  5
7D
330
4B
100
AcDbEntity
  8
L2-RESIST_U_306E_U_30B3_U_
100
AcDbVertex
100
AcDb2dVertex
 10
18.1662507781381
 20
33.67243686112656
 30
0.0
  0
VERTEX
  5
7E
330
4B
100
AcDbEntity
  8
L2-RESIST_U_306E_U_30B3_U_
100
AcDbVertex
100
AcDb2dVertex
 10
17.92393078589339
 20
33.72364262316643
 30
0.0
  0
VERTEX
  5
7F
330
4B
100
AcDbEntity
  8
L2-RESIST_U_306E_U_30B3_U_
100
AcDbVertex
100
AcDb2dVertex
 10
17.62195060441546
 20
33.83988544734949
 30
0.0
  0
VERTEX
  5
80
330
4B
100
AcDbEntity
  8
L2-RESIST_U_306E_U_30B3_U_
100
AcDbVertex
100
AcDb2dVertex
 10
17.2771195649807
 20
34.04722637793215
 30
0.0
  0
VERTEX
  5
81
330
4B
100
AcDbEntity
  8
L2-RESIST_U_306E_U_30B3_U_
100
AcDbVertex
100
AcDb2dVertex
 10
16.90624699886613
 20
34.37172645917147
 30
0.0
  0
VERTEX
  5
82
330
4B
100
AcDbEntity
  8
L2-RESIST_U_306E_U_30B3_U_
100
AcDbVertex
100
AcDb2dVertex
 10
16.52614223734877
 20
34.83944673532513
 30
0.0
  0
VERTEX
  5
83
330
4B
100
AcDbEntity
  8
L2-RESIST_U_306E_U_30B3_U_
100
AcDbVertex
100
AcDb2dVertex
 10
16.153614611705
 20
35.47644825064891
 30
0.0
  0
VERTEX
  5
84
330
4B
100
AcDbEntity
  8
L2-RESIST_U_306E_U_30B3_U_
100
AcDbVertex
100
AcDb2dVertex
 10
15.80547345321214
 20
36.30879204940115
 30
0.0
  0
VERTEX
  5
85
330
4B
100
AcDbEntity
  8
L2-RESIST_U_306E_U_30B3_U_
100
AcDbVertex
100
AcDb2dVertex
 10
15.80327748631131
 20
36.32771491599235
 30
0.0
  0
VERTEX
  5
86
330
4B
100
AcDbEntity
  8
L2-RESIST_U_306E_U_30B3_U_
100
AcDbVertex
100
AcDb2dVertex
 10
15.80108580619364
 20
36.3459602825881
 30
0.0
  0
VERTEX
  5
87
330
4B
100
AcDbEntity
  8
L2-RESIST_U_306E_U_30B3_U_
100
AcDbVertex
100
AcDb2dVertex
 10
15.79890252516369
 20
36.36353228326259
 30
0.0
  0
VERTEX
  5
88
330
4B
100
AcDbEntity
  8
L2-RESIST_U_306E_U_30B3_U_
100
AcDbVertex
100
AcDb2dVertex
 10
15.79673175552632
 20
36.38043505209193
 30
0.0
  0
VERTEX
  5
89
330
4B
100
AcDbEntity
  8
L2-RESIST_U_306E_U_30B3_U_
100
AcDbVertex
100
AcDb2dVertex
 10
15.79457760958576
 20
36.39667272315096
 30
0.0
  0
VERTEX
  5
8A
330
4B
100
AcDbEntity
  8
L2-RESIST_U_306E_U_30B3_U_
100
AcDbVertex
100
AcDb2dVertex
 10
15.79244419964722
 20
36.41224943051579
 30
0.0
  0
VERTEX
  5
8B
330
4B
100
AcDbEntity
  8
L2-RESIST_U_306E_U_30B3_U_
100
AcDbVertex
100
AcDb2dVertex
 10
15.79033563801491
 20
36.42716930826062
 30
0.0
  0
VERTEX
  5
8C
330
4B
100
AcDbEntity
  8
L2-RESIST_U_306E_U_30B3_U_
100
AcDbVertex
100
AcDb2dVertex
 10
15.78825603699372
 20
36.44143649046156
 30
0.0
  0
VERTEX
  5
8D
330
4B
100
AcDbEntity
  8
L2-RESIST_U_306E_U_30B3_U_
100
AcDbVertex
100
AcDb2dVertex
 10
15.78582856127595
 20
36.45665395914869
 30
0.0
  0
VERTEX
  5
8E
330
4B
100
AcDbEntity
  8
L2-RESIST_U_306E_U_30B3_U_
100
AcDbVertex
100
AcDb2dVertex
 10
15.78346734039492
 20
36.47103509647698
 30
0.0
  0
VERTEX
  5
8F
330
4B
100
AcDbEntity
  8
L2-RESIST_U_306E_U_30B3_U_
100
AcDbVertex
100
AcDb2dVertex
 10
15.78117230894738
 20
36.48458362314965
 30
0.0
  0
VERTEX
  5
90
330
4B
100
AcDbEntity
  8
L2-RESIST_U_306E_U_30B3_U_
100
AcDbVertex
100
AcDb2dVertex
 10
15.77894340153072
 20
36.49730325986992
 30
0.0
  0
VERTEX
  5
91
330
4B
100
AcDbEntity
  8
L2-RESIST_U_306E_U_30B3_U_
100
AcDbVertex
100
AcDb2dVertex
 10
15.77678055274138
 20
36.50919772733973
 30
0.0
  0
VERTEX
  5
92
330
4B
100
AcDbEntity
  8
L2-RESIST_U_306E_U_30B3_U_
100
AcDbVertex
100
AcDb2dVertex
 10
15.77468369717674
 20
36.52027074626294
 30
0.0
  0
VERTEX
  5
93
330
4B
100
AcDbEntity
  8
L2-RESIST_U_306E_U_30B3_U_
100
AcDbVertex
100
AcDb2dVertex
 10
15.77265276943356
 20
36.53052603734277
 30
0.0
  0
VERTEX
  5
94
330
4B
100
AcDbEntity
  8
L2-RESIST_U_306E_U_30B3_U_
100
AcDbVertex
100
AcDb2dVertex
 10
15.77068770410859
 20
36.53996732128115
 30
0.0
  0
VERTEX
  5
95
330
4B
100
AcDbEntity
  8
L2-RESIST_U_306E_U_30B3_U_
100
AcDbVertex
100
AcDb2dVertex
 10
15.76958830526517
 20
36.54428244107169
 30
0.0
  0
VERTEX
  5
96
330
4B
100
AcDbEntity
  8
L2-RESIST_U_306E_U_30B3_U_
100
AcDbVertex
100
AcDb2dVertex
 10
15.76848063819251
 20
36.54845989484949
 30
0.0
  0
VERTEX
  5
97
330
4B
100
AcDbEntity
  8
L2-RESIST_U_306E_U_30B3_U_
100
AcDbVertex
100
AcDb2dVertex
 10
15.76735643466235
 20
36.55252407389086
 30
0.0
  0
VERTEX
  5
98
330
4B
100
AcDbEntity
  8
L2-RESIST_U_306E_U_30B3_U_
100
AcDbVertex
100
AcDb2dVertex
 10
15.76620742644511
 20
36.55649936947082
 30
0.0
  0
VERTEX
  5
99
330
4B
100
AcDbEntity
  8
L2-RESIST_U_306E_U_30B3_U_
100
AcDbVertex
100
AcDb2dVertex
 10
15.76502534531221
 20
36.56041017286505
 30
0.0
  0
VERTEX
  5
9A
330
4B
100
AcDbEntity
  8
L2-RESIST_U_306E_U_30B3_U_
100
AcDbVertex
100
AcDb2dVertex
 10
15.76380192303442
 20
36.56428087534857
 30
0.0
  0
VERTEX
  5
9B
330
4B
100
AcDbEntity
  8
L2-RESIST_U_306E_U_30B3_U_
100
AcDbVertex
100
AcDb2dVertex
 10
15.76252889138281
 20
36.56813586819705
 30
0.0
  0
VERTEX
  5
9C
330
4B
100
AcDbEntity
  8
L2-RESIST_U_306E_U_30B3_U_
100
AcDbVertex
100
AcDb2dVertex
 10
15.76119798212847
 20
36.57199954268616
 30
0.0
  0
VERTEX
  5
9D
330
4B
100
AcDbEntity
  8
L2-RESIST_U_306E_U_30B3_U_
100
AcDbVertex
100
AcDb2dVertex
 10
15.75830024348708
 20
36.57523786345914
 30
0.0
  0
VERTEX
  5
9E
330
4B
100
AcDbEntity
  8
L2-RESIST_U_306E_U_30B3_U_
100
AcDbVertex
100
AcDb2dVertex
 10
15.75687424959973
 20
36.57984829682648
 30
0.0
  0
VERTEX
  5
9F
330
4B
100
AcDbEntity
  8
L2-RESIST_U_306E_U_30B3_U_
100
AcDbVertex
100
AcDb2dVertex
 10
15.75543833383787
 20
36.58555592417668
 30
0.0
  0
VERTEX
  5
A0
330
4B
100
AcDbEntity
  8
L2-RESIST_U_306E_U_30B3_U_
100
AcDbVertex
100
AcDb2dVertex
 10
15.75251082957232
 20
36.59208582689627
 30
0.0
  0
VERTEX
  5
A1
330
4B
100
AcDbEntity
  8
L2-RESIST_U_306E_U_30B3_U_
100
AcDbVertex
100
AcDb2dVertex
 10
15.74661007017421
 20
36.59916308637244
 30
0.0
  0
VERTEX
  5
A2
330
4B
100
AcDbEntity
  8
L2-RESIST_U_306E_U_30B3_U_
100
AcDbVertex
100
AcDb2dVertex
 10
15.73625438901467
 20
36.60651278399368
 30
0.0
  0
VERTEX
  5
A3
330
4B
100
AcDbEntity
  8
L2-RESIST_U_306E_U_30B3_U_
100
AcDbVertex
100
AcDb2dVertex
 10
15.71996211946517
 20
36.61386000114589
 30
0.0
  0
VERTEX
  5
A4
330
4B
100
AcDbEntity
  8
L2-RESIST_U_306E_U_30B3_U_
100
AcDbVertex
100
AcDb2dVertex
 10
15.6962515948965
 20
36.62092981921627
 30
0.0
  0
VERTEX
  5
A5
330
4B
100
AcDbEntity
  8
L2-RESIST_U_306E_U_30B3_U_
100
AcDbVertex
100
AcDb2dVertex
 10
15.67657718819138
 20
36.61652788302195
 30
0.0
  0
VERTEX
  5
A6
330
4B
100
AcDbEntity
  8
L2-RESIST_U_306E_U_30B3_U_
100
AcDbVertex
100
AcDb2dVertex
 10
15.6618510336395
 20
36.61045948528156
 30
0.0
  0
VERTEX
  5
A7
330
4B
100
AcDbEntity
  8
L2-RESIST_U_306E_U_30B3_U_
100
AcDbVertex
100
AcDb2dVertex
 10
15.65129019523781
 20
36.6033501175161
 30
0.0
  0
VERTEX
  5
A8
330
4B
100
AcDbEntity
  8
L2-RESIST_U_306E_U_30B3_U_
100
AcDbVertex
100
AcDb2dVertex
 10
15.6441117369836
 20
36.59582527124531
 30
0.0
  0
VERTEX
  5
A9
330
4B
100
AcDbEntity
  8
L2-RESIST_U_306E_U_30B3_U_
100
AcDbVertex
100
AcDb2dVertex
 10
15.63953272287413
 20
36.58851043799019
 30
0.0
  0
VERTEX
  5
AA
330
4B
100
AcDbEntity
  8
L2-RESIST_U_306E_U_30B3_U_
100
AcDbVertex
100
AcDb2dVertex
 10
15.63677021690605
 20
36.58203110927112
 30
0.0
  0
VERTEX
  5
AB
330
4B
100
AcDbEntity
  8
L2-RESIST_U_306E_U_30B3_U_
100
AcDbVertex
100
AcDb2dVertex
 10
15.63504128307726
 20
36.57701277660782
 30
0.0
  0
VERTEX
  5
AC
330
4B
100
AcDbEntity
  8
L2-RESIST_U_306E_U_30B3_U_
100
AcDbVertex
100
AcDb2dVertex
 10
15.63356298538471
 20
36.57408093152196
 30
0.0
  0
VERTEX
  5
AD
330
4B
100
AcDbEntity
  8
L2-RESIST_U_306E_U_30B3_U_
100
AcDbVertex
100
AcDb2dVertex
 10
15.63114659547249
 20
36.56472301889194
 30
0.0
  0
VERTEX
  5
AE
330
4B
100
AcDbEntity
  8
L2-RESIST_U_306E_U_30B3_U_
100
AcDbVertex
100
AcDb2dVertex
 10
15.62937926153319
 20
36.55605012903061
 30
0.0
  0
VERTEX
  5
AF
330
4B
100
AcDbEntity
  8
L2-RESIST_U_306E_U_30B3_U_
100
AcDbVertex
100
AcDb2dVertex
 10
15.62814936247598
 20
36.54771540973363
 30
0.0
  0
VERTEX
  5
B0
330
4B
100
AcDbEntity
  8
L2-RESIST_U_306E_U_30B3_U_
100
AcDbVertex
100
AcDb2dVertex
 10
15.62734527721
 20
36.53937200879602
 30
0.0
  0
VERTEX
  5
B1
330
4B
100
AcDbEntity
  8
L2-RESIST_U_306E_U_30B3_U_
100
AcDbVertex
100
AcDb2dVertex
 10
15.62685538464443
 20
36.53067307401408
 30
0.0
  0
VERTEX
  5
B2
330
4B
100
AcDbEntity
  8
L2-RESIST_U_306E_U_30B3_U_
100
AcDbVertex
100
AcDb2dVertex
 10
15.62656806368808
 20
36.52127175318153
 30
0.0
  0
VERTEX
  5
B3
330
4B
100
AcDbEntity
  8
L2-RESIST_U_306E_U_30B3_U_
100
AcDbVertex
100
AcDb2dVertex
 10
15.62637169325046
 20
36.51082119409532
 30
0.0
  0
VERTEX
  5
B4
330
4B
100
AcDbEntity
  8
L2-RESIST_U_306E_U_30B3_U_
100
AcDbVertex
100
AcDb2dVertex
 10
15.62615465224038
 20
36.49897454454919
 30
0.0
  0
VERTEX
  5
B5
330
4B
100
AcDbEntity
  8
L2-RESIST_U_306E_U_30B3_U_
100
AcDbVertex
100
AcDb2dVertex
 10
15.62618662272575
 20
36.49313931086595
 30
0.0
  0
VERTEX
  5
B6
330
4B
100
AcDbEntity
  8
L2-RESIST_U_306E_U_30B3_U_
100
AcDbVertex
100
AcDb2dVertex
 10
15.62627812445945
 20
36.48699939294478
 30
0.0
  0
VERTEX
  5
B7
330
4B
100
AcDbEntity
  8
L2-RESIST_U_306E_U_30B3_U_
100
AcDbVertex
100
AcDb2dVertex
 10
15.62642254285846
 20
36.48053784091773
 30
0.0
  0
VERTEX
  5
B8
330
4B
100
AcDbEntity
  8
L2-RESIST_U_306E_U_30B3_U_
100
AcDbVertex
100
AcDb2dVertex
 10
15.62661326333979
 20
36.47373770491494
 30
0.0
  0
VERTEX
  5
B9
330
4B
100
AcDbEntity
  8
L2-RESIST_U_306E_U_30B3_U_
100
AcDbVertex
100
AcDb2dVertex
 10
15.6268436713201
 20
36.46658203506781
 30
0.0
  0
VERTEX
  5
BA
330
4B
100
AcDbEntity
  8
L2-RESIST_U_306E_U_30B3_U_
100
AcDbVertex
100
AcDb2dVertex
 10
15.62710715221608
 20
36.45905388150519
 30
0.0
  0
VERTEX
  5
BB
330
4B
100
AcDbEntity
  8
L2-RESIST_U_306E_U_30B3_U_
100
AcDbVertex
100
AcDb2dVertex
 10
15.62739709144471
 20
36.45113629435914
 30
0.0
  0
VERTEX
  5
BC
330
4B
100
AcDbEntity
  8
L2-RESIST_U_306E_U_30B3_U_
100
AcDbVertex
100
AcDb2dVertex
 10
15.627706874423
 20
36.44281232375978
 30
0.0
  0
VERTEX
  5
BD
330
4B
100
AcDbEntity
  8
L2-RESIST_U_306E_U_30B3_U_
100
AcDbVertex
100
AcDb2dVertex
 10
15.63298152218332
 20
36.4002189557059
 30
0.0
  0
VERTEX
  5
BE
330
4B
100
AcDbEntity
  8
L2-RESIST_U_306E_U_30B3_U_
100
AcDbVertex
100
AcDb2dVertex
 10
15.64687869251015
 20
36.28273610388509
 30
0.0
  0
VERTEX
  5
BF
330
4B
100
AcDbEntity
  8
L2-RESIST_U_306E_U_30B3_U_
100
AcDbVertex
100
AcDb2dVertex
 10
15.66650822597213
 20
36.10580964681027
 30
0.0
  0
VERTEX
  5
C0
330
4B
100
AcDbEntity
  8
L2-RESIST_U_306E_U_30B3_U_
100
AcDbVertex
100
AcDb2dVertex
 10
15.68897996313757
 20
35.88488546299369
 30
0.0
  0
VERTEX
  5
C1
330
4B
100
AcDbEntity
  8
L2-RESIST_U_306E_U_30B3_U_
100
AcDbVertex
100
AcDb2dVertex
 10
15.71140374457511
 20
35.63540943094694
 30
0.0
  0
VERTEX
  5
C2
330
4B
100
AcDbEntity
  8
L2-RESIST_U_306E_U_30B3_U_
100
AcDbVertex
100
AcDb2dVertex
 10
15.73088941085305
 20
35.37282742918229
 30
0.0
  0
VERTEX
  5
C3
330
4B
100
AcDbEntity
  8
L2-RESIST_U_306E_U_30B3_U_
100
AcDbVertex
100
AcDb2dVertex
 10
15.74454680254037
 20
35.112585336212
 30
0.0
  0
VERTEX
  5
C4
330
4B
100
AcDbEntity
  8
L2-RESIST_U_306E_U_30B3_U_
100
AcDbVertex
100
AcDb2dVertex
 10
15.74948576020505
 20
34.87012903054895
 30
0.0
  0
VERTEX
  5
C5
330
4B
100
AcDbEntity
  8
L2-RESIST_U_306E_U_30B3_U_
100
AcDbVertex
100
AcDb2dVertex
 10
15.73827879597264
 20
34.26769160613972
 30
0.0
  0
VERTEX
  5
C6
330
4B
100
AcDbEntity
  8
L2-RESIST_U_306E_U_30B3_U_
100
AcDbVertex
100
AcDb2dVertex
 10
15.6990677536787
 20
33.62089720044054
 30
0.0
  0
VERTEX
  5
C7
330
4B
100
AcDbEntity
  8
L2-RESIST_U_306E_U_30B3_U_
100
AcDbVertex
100
AcDb2dVertex
 10
15.6252136588833
 20
32.9489185961646
 30
0.0
  0
VERTEX
  5
C8
330
4B
100
AcDbEntity
  8
L2-RESIST_U_306E_U_30B3_U_
100
AcDbVertex
100
AcDb2dVertex
 10
15.5100775371462
 20
32.27092857602706
 30
0.0
  0
VERTEX
  5
C9
330
4B
100
AcDbEntity
  8
L2-RESIST_U_306E_U_30B3_U_
100
AcDbVertex
100
AcDb2dVertex
 10
15.34702041402745
 20
31.60609992274112
 30
0.0
  0
VERTEX
  5
CA
330
4B
100
AcDbEntity
  8
L2-RESIST_U_306E_U_30B3_U_
100
AcDbVertex
100
AcDb2dVertex
 10
15.12940331508713
 20
30.97360541902065
 30
0.0
  0
VERTEX
  5
CB
330
4B
100
AcDbEntity
  8
L2-RESIST_U_306E_U_30B3_U_
100
AcDbVertex
100
AcDb2dVertex
 10
14.85058726588531
 20
30.39261784758013
 30
0.0
  0
VERTEX
  5
CC
330
4B
100
AcDbEntity
  8
L2-RESIST_U_306E_U_30B3_U_
100
AcDbVertex
100
AcDb2dVertex
 10
14.50393329198174
 20
29.88230999113279
 30
0.0
  0
VERTEX
  5
CD
330
4B
100
AcDbEntity
  8
L2-RESIST_U_306E_U_30B3_U_
100
AcDbVertex
100
AcDb2dVertex
 10
14.2585829732154
 20
29.597164750469
 30
0.0
  0
VERTEX
  5
CE
330
4B
100
AcDbEntity
  8
L2-RESIST_U_306E_U_30B3_U_
100
AcDbVertex
100
AcDb2dVertex
 10
14.02607786688203
 20
29.35790859392098
 30
0.0
  0
VERTEX
  5
CF
330
4B
100
AcDbEntity
  8
L2-RESIST_U_306E_U_30B3_U_
100
AcDbVertex
100
AcDb2dVertex
 10
13.80632489220273
 20
29.16214745579422
 30
0.0
  0
VERTEX
  5
D0
330
4B
100
AcDbEntity
  8
L2-RESIST_U_306E_U_30B3_U_
100
AcDbVertex
100
AcDb2dVertex
 10
13.59923096839799
 20
29.0074872703955
 30
0.0
  0
VERTEX
  5
D1
330
4B
100
AcDbEntity
  8
L2-RESIST_U_306E_U_30B3_U_
100
AcDbVertex
100
AcDb2dVertex
 10
13.40470301468924
 20
28.89153397202967
 30
0.0
  0
VERTEX
  5
D2
330
4B
100
AcDbEntity
  8
L2-RESIST_U_306E_U_30B3_U_
100
AcDbVertex
100
AcDb2dVertex
 10
13.22264795029727
 20
28.81189349500352
 30
0.0
  0
VERTEX
  5
D3
330
4B
100
AcDbEntity
  8
L2-RESIST_U_306E_U_30B3_U_
100
AcDbVertex
100
AcDb2dVertex
 10
13.05297269444287
 20
28.76617177362191
 30
0.0
  0
VERTEX
  5
D4
330
4B
100
AcDbEntity
  8
L2-RESIST_U_306E_U_30B3_U_
100
AcDbVertex
100
AcDb2dVertex
 10
12.89558416634748
 20
28.75197474219162
 30
0.0
  0
VERTEX
  5
D5
330
4B
100
AcDbEntity
  8
L2-RESIST_U_306E_U_30B3_U_
100
AcDbVertex
100
AcDb2dVertex
 10
12.69688525757105
 20
28.77210588154318
 30
0.0
  0
VERTEX
  5
D6
330
4B
100
AcDbEntity
  8
L2-RESIST_U_306E_U_30B3_U_
100
AcDbVertex
100
AcDb2dVertex
 10
12.51665343816767
 20
28.837882192257
 30
0.0
  0
VERTEX
  5
D7
330
4B
100
AcDbEntity
  8
L2-RESIST_U_306E_U_30B3_U_
100
AcDbVertex
100
AcDb2dVertex
 10
12.35333014697854
 20
28.94614645110548
 30
0.0
  0
VERTEX
  5
D8
330
4B
100
AcDbEntity
  8
L2-RESIST_U_306E_U_30B3_U_
100
AcDbVertex
100
AcDb2dVertex
 10
12.20535682284553
 20
29.09374143486163
 30
0.0
  0
VERTEX
  5
D9
330
4B
100
AcDbEntity
  8
L2-RESIST_U_306E_U_30B3_U_
100
AcDbVertex
100
AcDb2dVertex
 10
12.07117490461084
 20
29.27750992029913
 30
0.0
  0
VERTEX
  5
DA
330
4B
100
AcDbEntity
  8
L2-RESIST_U_306E_U_30B3_U_
100
AcDbVertex
100
AcDb2dVertex
 10
11.94922583111601
 20
29.494294684191
 30
0.0
  0
VERTEX
  5
DB
330
4B
100
AcDbEntity
  8
L2-RESIST_U_306E_U_30B3_U_
100
AcDbVertex
100
AcDb2dVertex
 10
11.83795104120322
 20
29.7409385033109
 30
0.0
  0
VERTEX
  5
DC
330
4B
100
AcDbEntity
  8
L2-RESIST_U_306E_U_30B3_U_
100
AcDbVertex
100
AcDb2dVertex
 10
11.73579197371402
 20
30.01428415443187
 30
0.0
  0
VERTEX
  5
DD
330
4B
100
AcDbEntity
  8
L2-RESIST_U_306E_U_30B3_U_
100
AcDbVertex
100
AcDb2dVertex
 10
11.73164738957671
 20
30.03096062102022
 30
0.0
  0
VERTEX
  5
DE
330
4B
100
AcDbEntity
  8
L2-RESIST_U_306E_U_30B3_U_
100
AcDbVertex
100
AcDb2dVertex
 10
11.72323311258908
 20
30.06298953513341
 30
0.0
  0
VERTEX
  5
DF
330
4B
100
AcDbEntity
  8
L2-RESIST_U_306E_U_30B3_U_
100
AcDbVertex
100
AcDb2dVertex
 10
11.71193491850765
 20
30.10543641773162
 30
0.0
  0
VERTEX
  5
E0
330
4B
100
AcDbEntity
  8
L2-RESIST_U_306E_U_30B3_U_
100
AcDbVertex
100
AcDb2dVertex
 10
11.69913858308765
 20
30.15336678977246
 30
0.0
  0
VERTEX
  5
E1
330
4B
100
AcDbEntity
  8
L2-RESIST_U_306E_U_30B3_U_
100
AcDbVertex
100
AcDb2dVertex
 10
11.68622988208464
 20
30.20184617221613
 30
0.0
  0
VERTEX
  5
E2
330
4B
100
AcDbEntity
  8
L2-RESIST_U_306E_U_30B3_U_
100
AcDbVertex
100
AcDb2dVertex
 10
11.67459459125482
 20
30.24594008602151
 30
0.0
  0
VERTEX
  5
E3
330
4B
100
AcDbEntity
  8
L2-RESIST_U_306E_U_30B3_U_
100
AcDbVertex
100
AcDb2dVertex
 10
11.66561848635375
 20
30.28071405214881
 30
0.0
  0
VERTEX
  5
E4
330
4B
100
AcDbEntity
  8
L2-RESIST_U_306E_U_30B3_U_
100
AcDbVertex
100
AcDb2dVertex
 10
11.6606873431373
 20
30.30123359155562
 30
0.0
  0
VERTEX
  5
E5
330
4B
100
AcDbEntity
  8
L2-RESIST_U_306E_U_30B3_U_
100
AcDbVertex
100
AcDb2dVertex
 10
11.59378990094661
 20
30.62325754492934
 30
0.0
  0
VERTEX
  5
E6
330
4B
100
AcDbEntity
  8
L2-RESIST_U_306E_U_30B3_U_
100
AcDbVertex
100
AcDb2dVertex
 10
11.52909360538369
 20
30.94567589282326
 30
0.0
  0
VERTEX
  5
E7
330
4B
100
AcDbEntity
  8
L2-RESIST_U_306E_U_30B3_U_
100
AcDbVertex
100
AcDb2dVertex
 10
11.46671584471614
 20
31.26924021725073
 30
0.0
  0
VERTEX
  5
E8
330
4B
100
AcDbEntity
  8
L2-RESIST_U_306E_U_30B3_U_
100
AcDbVertex
100
AcDb2dVertex
 10
11.40677400721315
 20
31.59470210022316
 30
0.0
  0
VERTEX
  5
E9
330
4B
100
AcDbEntity
  8
L2-RESIST_U_306E_U_30B3_U_
100
AcDbVertex
100
AcDb2dVertex
 10
11.34938548114265
 20
31.92281312375324
 30
0.0
  0
VERTEX
  5
EA
330
4B
100
AcDbEntity
  8
L2-RESIST_U_306E_U_30B3_U_
100
AcDbVertex
100
AcDb2dVertex
 10
11.29466765477286
 20
32.25432486985304
 30
0.0
  0
VERTEX
  5
EB
330
4B
100
AcDbEntity
  8
L2-RESIST_U_306E_U_30B3_U_
100
AcDbVertex
100
AcDb2dVertex
 10
11.24273791637265
 20
32.58998892053459
 30
0.0
  0
VERTEX
  5
EC
330
4B
100
AcDbEntity
  8
L2-RESIST_U_306E_U_30B3_U_
100
AcDbVertex
100
AcDb2dVertex
 10
11.19371365421026
 20
32.93055685780933
 30
0.0
  0
VERTEX
  5
ED
330
4B
100
AcDbEntity
  8
L2-RESIST_U_306E_U_30B3_U_
100
AcDbVertex
100
AcDb2dVertex
 10
11.19070478019543
 20
32.94271648765055
 30
0.0
  0
VERTEX
  5
EE
330
4B
100
AcDbEntity
  8
L2-RESIST_U_306E_U_30B3_U_
100
AcDbVertex
100
AcDb2dVertex
 10
11.18559703668395
 20
32.95373746916703
 30
0.0
  0
VERTEX
  5
EF
330
4B
100
AcDbEntity
  8
L2-RESIST_U_306E_U_30B3_U_
100
AcDbVertex
100
AcDb2dVertex
 10
11.17863311662042
 20
32.96341776568526
 30
0.0
  0
VERTEX
  5
F0
330
4B
100
AcDbEntity
  8
L2-RESIST_U_306E_U_30B3_U_
100
AcDbVertex
100
AcDb2dVertex
 10
11.17005571294779
 20
32.97155534053301
 30
0.0
  0
VERTEX
  5
F1
330
4B
100
AcDbEntity
  8
L2-RESIST_U_306E_U_30B3_U_
100
AcDbVertex
100
AcDb2dVertex
 10
11.16010751861065
 20
32.97794815703675
 30
0.0
  0
VERTEX
  5
F2
330
4B
100
AcDbEntity
  8
L2-RESIST_U_306E_U_30B3_U_
100
AcDbVertex
100
AcDb2dVertex
 10
11.14903122655262
 20
32.98239417852555
 30
0.0
  0
VERTEX
  5
F3
330
4B
100
AcDbEntity
  8
L2-RESIST_U_306E_U_30B3_U_
100
AcDbVertex
100
AcDb2dVertex
 10
11.13706952971763
 20
32.98469136832459
 30
0.0
  0
VERTEX
  5
F4
330
4B
100
AcDbEntity
  8
L2-RESIST_U_306E_U_30B3_U_
100
AcDbVertex
100
AcDb2dVertex
 10
11.1244651210493
 20
32.98463768976295
 30
0.0
  0
VERTEX
  5
F5
330
4B
100
AcDbEntity
  8
L2-RESIST_U_306E_U_30B3_U_
100
AcDbVertex
100
AcDb2dVertex
 10
11.11228709816669
 20
32.982304051042
 30
0.0
  0
VERTEX
  5
F6
330
4B
100
AcDbEntity
  8
L2-RESIST_U_306E_U_30B3_U_
100
AcDbVertex
100
AcDb2dVertex
 10
11.10109479114343
 20
32.97779545469425
 30
0.0
  0
VERTEX
  5
F7
330
4B
100
AcDbEntity
  8
L2-RESIST_U_306E_U_30B3_U_
100
AcDbVertex
100
AcDb2dVertex
 10
11.09111638267525
 20
32.97135788053148
 30
0.0
  0
VERTEX
  5
F8
330
4B
100
AcDbEntity
  8
L2-RESIST_U_306E_U_30B3_U_
100
AcDbVertex
100
AcDb2dVertex
 10
11.08258005545725
 20
32.9632373083648
 30
0.0
  0
VERTEX
  5
F9
330
4B
100
AcDbEntity
  8
L2-RESIST_U_306E_U_30B3_U_
100
AcDbVertex
100
AcDb2dVertex
 10
11.07571399218422
 20
32.95367971800533
 30
0.0
  0
VERTEX
  5
FA
330
4B
100
AcDbEntity
  8
L2-RESIST_U_306E_U_30B3_U_
100
AcDbVertex
100
AcDb2dVertex
 10
11.07074637555158
 20
32.94293108926483
 30
0.0
  0
VERTEX
  5
FB
330
4B
100
AcDbEntity
  8
L2-RESIST_U_306E_U_30B3_U_
100
AcDbVertex
100
AcDb2dVertex
 10
11.06790538825442
 20
32.93123740195444
 30
0.0
  0
VERTEX
  5
FC
330
4B
100
AcDbEntity
  8
L2-RESIST_U_306E_U_30B3_U_
100
AcDbVertex
100
AcDb2dVertex
 10
11.06741921298785
 20
32.91884463588591
 30
0.0
  0
VERTEX
  5
FD
330
4B
100
AcDbEntity
  8
L2-RESIST_U_306E_U_30B3_U_
100
AcDbVertex
100
AcDb2dVertex
 10
11.06755942837078
 20
32.91874844882229
 30
0.0
  0
VERTEX
  5
FE
330
4B
100
AcDbEntity
  8
L2-RESIST_U_306E_U_30B3_U_
100
AcDbVertex
100
AcDb2dVertex
 10
11.0677141131539
 20
32.91846539978448
 30
0.0
  0
VERTEX
  5
FF
330
4B
100
AcDbEntity
  8
L2-RESIST_U_306E_U_30B3_U_
100
AcDbVertex
100
AcDb2dVertex
 10
11.06788120028088
 20
32.91800375700105
 30
0.0
  0
VERTEX
  5
100
330
4B
100
AcDbEntity
  8
L2-RESIST_U_306E_U_30B3_U_
100
AcDbVertex
100
AcDb2dVertex
 10
11.06805862269376
 20
32.91737178870127
 30
0.0
  0
VERTEX
  5
101
330
4B
100
AcDbEntity
  8
L2-RESIST_U_306E_U_30B3_U_
100
AcDbVertex
100
AcDb2dVertex
 10
11.06824431333588
 20
32.91657776311371
 30
0.0
  0
VERTEX
  5
102
330
4B
100
AcDbEntity
  8
L2-RESIST_U_306E_U_30B3_U_
100
AcDbVertex
100
AcDb2dVertex
 10
11.06843620514929
 20
32.91562994846825
 30
0.0
  0
VERTEX
  5
103
330
4B
100
AcDbEntity
  8
L2-RESIST_U_306E_U_30B3_U_
100
AcDbVertex
100
AcDb2dVertex
 10
11.06863223107763
 20
32.91453661299221
 30
0.0
  0
VERTEX
  5
104
330
4B
100
AcDbEntity
  8
L2-RESIST_U_306E_U_30B3_U_
100
AcDbVertex
100
AcDb2dVertex
 10
11.06883032406296
 20
32.9133060249161
 30
0.0
  0
VERTEX
  5
105
330
4B
100
AcDbEntity
  8
L2-RESIST_U_306E_U_30B3_U_
100
AcDbVertex
100
AcDb2dVertex
 10
11.06865393517857
 20
32.91326633741744
 30
0.0
  0
VERTEX
  5
106
330
4B
100
AcDbEntity
  8
L2-RESIST_U_306E_U_30B3_U_
100
AcDbVertex
100
AcDb2dVertex
 10
11.06847754629418
 20
32.91322664991813
 30
0.0
  0
VERTEX
  5
107
330
4B
100
AcDbEntity
  8
L2-RESIST_U_306E_U_30B3_U_
100
AcDbVertex
100
AcDb2dVertex
 10
11.0683011574098
 20
32.91318696241882
 30
0.0
  0
VERTEX
  5
108
330
4B
100
AcDbEntity
  8
L2-RESIST_U_306E_U_30B3_U_
100
AcDbVertex
100
AcDb2dVertex
 10
11.06812476852541
 20
32.91314727492016
 30
0.0
  0
VERTEX
  5
109
330
4B
100
AcDbEntity
  8
L2-RESIST_U_306E_U_30B3_U_
100
AcDbVertex
100
AcDb2dVertex
 10
11.06794837964102
 20
32.91310758742149
 30
0.0
  0
VERTEX
  5
10A
330
4B
100
AcDbEntity
  8
L2-RESIST_U_306E_U_30B3_U_
100
AcDbVertex
100
AcDb2dVertex
 10
11.06777199075663
 20
32.91306789992218
 30
0.0
  0
VERTEX
  5
10B
330
4B
100
AcDbEntity
  8
L2-RESIST_U_306E_U_30B3_U_
100
AcDbVertex
100
AcDb2dVertex
 10
11.06759560187224
 20
32.91302821242287
 30
0.0
  0
VERTEX
  5
10C
330
4B
100
AcDbEntity
  8
L2-RESIST_U_306E_U_30B3_U_
100
AcDbVertex
100
AcDb2dVertex
 10
11.06741921298785
 20
32.9129885249242
 30
0.0
  0
VERTEX
  5
10D
330
4B
100
AcDbEntity
  8
L2-RESIST_U_306E_U_30B3_U_
100
AcDbVertex
100
AcDb2dVertex
 10
11.06793887117759
 20
32.90962900569581
 30
0.0
  0
VERTEX
  5
10E
330
4B
100
AcDbEntity
  8
L2-RESIST_U_306E_U_30B3_U_
100
AcDbVertex
100
AcDb2dVertex
 10
11.0684411660867
 20
32.90627362058139
 30
0.0
  0
VERTEX
  5
10F
330
4B
100
AcDbEntity
  8
L2-RESIST_U_306E_U_30B3_U_
100
AcDbVertex
100
AcDb2dVertex
 10
11.06892857818389
 20
32.9029265036962
 30
0.0
  0
VERTEX
  5
110
330
4B
100
AcDbEntity
  8
L2-RESIST_U_306E_U_30B3_U_
100
AcDbVertex
100
AcDb2dVertex
 10
11.06940358793723
 20
32.89959178915487
 30
0.0
  0
VERTEX
  5
111
330
4B
100
AcDbEntity
  8
L2-RESIST_U_306E_U_30B3_U_
100
AcDbVertex
100
AcDb2dVertex
 10
11.06986867581606
 20
32.89627361107137
 30
0.0
  0
VERTEX
  5
112
330
4B
100
AcDbEntity
  8
L2-RESIST_U_306E_U_30B3_U_
100
AcDbVertex
100
AcDb2dVertex
 10
11.07032632228877
 20
32.89297610355968
 30
0.0
  0
VERTEX
  5
113
330
4B
100
AcDbEntity
  8
L2-RESIST_U_306E_U_30B3_U_
100
AcDbVertex
100
AcDb2dVertex
 10
11.07077900782406
 20
32.88970340073506
 30
0.0
  0
VERTEX
  5
114
330
4B
100
AcDbEntity
  8
L2-RESIST_U_306E_U_30B3_U_
100
AcDbVertex
100
AcDb2dVertex
 10
11.07122921289065
 20
32.88645963671213
 30
0.0
  0
VERTEX
  5
115
330
4B
100
AcDbEntity
  8
L2-RESIST_U_306E_U_30B3_U_
100
AcDbVertex
100
AcDb2dVertex
 10
11.08091634148711
 20
32.78270234647889
 30
0.0
  0
VERTEX
  5
116
330
4B
100
AcDbEntity
  8
L2-RESIST_U_306E_U_30B3_U_
100
AcDbVertex
100
AcDb2dVertex
 10
11.09899086375378
 20
32.61674925880259
 30
0.0
  0
VERTEX
  5
117
330
4B
100
AcDbEntity
  8
L2-RESIST_U_306E_U_30B3_U_
100
AcDbVertex
100
AcDb2dVertex
 10
11.12544279648513
 20
32.39691337236545
 30
0.0
  0
VERTEX
  5
118
330
4B
100
AcDbEntity
  8
L2-RESIST_U_306E_U_30B3_U_
100
AcDbVertex
100
AcDb2dVertex
 10
11.16026215647627
 20
32.13150768585035
 30
0.0
  0
VERTEX
  5
119
330
4B
100
AcDbEntity
  8
L2-RESIST_U_306E_U_30B3_U_
100
AcDbVertex
100
AcDb2dVertex
 10
11.20343896052198
 20
31.82884519793951
 30
0.0
  0
VERTEX
  5
11A
330
4B
100
AcDbEntity
  8
L2-RESIST_U_306E_U_30B3_U_
100
AcDbVertex
100
AcDb2dVertex
 10
11.25496322541737
 20
31.49723890731644
 30
0.0
  0
VERTEX
  5
11B
330
4B
100
AcDbEntity
  8
L2-RESIST_U_306E_U_30B3_U_
100
AcDbVertex
100
AcDb2dVertex
 10
11.31482496795723
 20
31.14500181266338
 30
0.0
  0
VERTEX
  5
11C
330
4B
100
AcDbEntity
  8
L2-RESIST_U_306E_U_30B3_U_
100
AcDbVertex
100
AcDb2dVertex
 10
11.38301420493635
 20
30.7804469126632
 30
0.0
  0
VERTEX
  5
11D
330
4B
100
AcDbEntity
  8
L2-RESIST_U_306E_U_30B3_U_
100
AcDbVertex
100
AcDb2dVertex
 10
11.41099781913145
 20
30.62028229164094
 30
0.0
  0
VERTEX
  5
11E
330
4B
100
AcDbEntity
  8
L2-RESIST_U_306E_U_30B3_U_
100
AcDbVertex
100
AcDb2dVertex
 10
11.45098400788968
 20
30.43637669140633
 30
0.0
  0
VERTEX
  5
11F
330
4B
100
AcDbEntity
  8
L2-RESIST_U_306E_U_30B3_U_
100
AcDbVertex
100
AcDb2dVertex
 10
11.49901766389098
 20
30.23955032978241
 30
0.0
  0
VERTEX
  5
120
330
4B
100
AcDbEntity
  8
L2-RESIST_U_306E_U_30B3_U_
100
AcDbVertex
100
AcDb2dVertex
 10
11.55114367981368
 20
30.04062342459291
 30
0.0
  0
VERTEX
  5
121
330
4B
100
AcDbEntity
  8
L2-RESIST_U_306E_U_30B3_U_
100
AcDbVertex
100
AcDb2dVertex
 10
11.60340694833709
 20
29.85041619366024
 30
0.0
  0
VERTEX
  5
122
330
4B
100
AcDbEntity
  8
L2-RESIST_U_306E_U_30B3_U_
100
AcDbVertex
100
AcDb2dVertex
 10
11.65185236214018
 20
29.67974885480681
 30
0.0
  0
VERTEX
  5
123
330
4B
100
AcDbEntity
  8
L2-RESIST_U_306E_U_30B3_U_
100
AcDbVertex
100
AcDb2dVertex
 10
11.69252481390193
 20
29.5394416258557
 30
0.0
  0
VERTEX
  5
124
330
4B
100
AcDbEntity
  8
L2-RESIST_U_306E_U_30B3_U_
100
AcDbVertex
100
AcDb2dVertex
 10
11.72146919630165
 20
29.4403147246306
 30
0.0
  0
VERTEX
  5
125
330
4B
100
AcDbEntity
  8
L2-RESIST_U_306E_U_30B3_U_
100
AcDbVertex
100
AcDb2dVertex
 10
11.72146919630165
 20
29.4403147246306
 30
0.0
  0
SEQEND
  5
126
330
4B
100
AcDbEntity
  8
L2-RESIST_U_306E_U_30B3_U_
  0
HATCH
  5
127
330
1F
100
AcDbEntity
  8
L2-RESIST_U_306E_U_30B3_U_
 62
    21
100
AcDbHatch
 10
0.0
 20
0.0
 30
0.0
210
0.0
220
0.0
230
1.0
  2
SOLID
 70
     1
 71
     0
 91
        1
 92
        1
 93
      216
 72
     1
 10
11.72146919630165
 20
29.4403147246306
 11
11.91517223443704
 21
28.85169984978227
 72
     1
 10
11.91517223443704
 20
28.85169984978227
 11
12.14353858223527
 21
28.3014119368462
 72
     1
 10
12.14353858223527
 20
28.3014119368462
 11
12.40513907632074
 21
27.80164703694431
 72
     1
 10
12.40513907632074
 20
27.80164703694431
 11
12.69854455331882
 21
27.3646012011979
 72
     1
 10
12.69854455331882
 20
27.3646012011979
 11
13.02232584985458
 21
27.00247048072699
 72
     1
 10
13.02232584985458
 20
27.00247048072699
 11
13.37505380255273
 21
26.72745092665415
 72
     1
 10
13.37505380255273
 20
26.72745092665415
 11
13.75529924803834
 21
26.55173859009939
 72
     1
 10
13.75529924803834
 20
26.55173859009939
 11
14.16163302293677
 21
26.48752952218465
 72
     1
 10
14.16163302293677
 20
26.48752952218465
 11
14.27612436421973
 21
26.49238503963917
 72
     1
 10
14.27612436421973
 20
26.49238503963917
 11
14.3918828331933
 21
26.50705907897832
 72
     1
 10
14.3918828331933
 20
26.50705907897832
 11
14.50880633883288
 21
26.53171287066707
 72
     1
 10
14.50880633883288
 20
26.53171287066707
 11
14.62679279011384
 21
26.56650764516975
 72
     1
 10
14.62679279011384
 20
26.56650764516975
 11
14.74574009601221
 21
26.61160463295136
 72
     1
 10
14.74574009601221
 20
26.61160463295136
 11
14.86554616550305
 21
26.66716506447685
 72
     1
 10
14.86554616550305
 20
26.66716506447685
 11
14.98610890756176
 21
26.73335017020993
 72
     1
 10
14.98610890756176
 20
26.73335017020993
 11
15.10732623116468
 21
26.81032118061622
 72
     1
 10
15.10732623116468
 20
26.81032118061622
 11
15.21204777224054
 21
26.87601949436985
 72
     1
 10
15.21204777224054
 20
26.87601949436985
 11
15.49025055060694
 21
27.09374780098961
 72
     1
 10
15.49025055060694
 20
27.09374780098961
 11
15.90041191225707
 21
27.49913927339402
 72
     1
 10
15.90041191225707
 20
27.49913927339402
 11
16.40100920318314
 21
28.12782708450352
 72
     1
 10
16.40100920318314
 20
28.12782708450352
 11
16.95051976937801
 21
29.01544440723599
 72
     1
 10
16.95051976937801
 20
29.01544440723599
 11
17.50742095683422
 21
30.19762441451121
 72
     1
 10
17.50742095683422
 20
30.19762441451121
 11
18.03019011154432
 21
31.71000027924772
 72
     1
 10
18.03019011154432
 20
31.71000027924772
 11
18.47730457950148
 21
33.58820517436466
 72
     1
 10
18.47730457950148
 20
33.58820517436466
 11
18.4782259383445
 21
33.59581594131464
 72
     1
 10
18.4782259383445
 20
33.59581594131464
 11
18.47827553203198
 21
33.60336469654727
 72
     1
 10
18.47827553203198
 20
33.60336469654727
 11
18.4774716184728
 21
33.61078612105403
 72
     1
 10
18.4774716184728
 20
33.61078612105403
 11
18.47583245557582
 21
33.61801489582637
 72
     1
 10
18.47583245557582
 20
33.61801489582637
 11
18.47337630125089
 21
33.62498570185514
 72
     1
 10
18.47337630125089
 20
33.62498570185514
 11
18.47012141340687
 21
33.6316332201318
 72
     1
 10
18.47012141340687
 20
33.6316332201318
 11
18.46608604995327
 21
33.63789213164718
 72
     1
 10
18.46608604995327
 20
33.63789213164718
 11
18.46128846879898
 21
33.64369711739339
 72
     1
 10
18.46128846879898
 20
33.64369711739339
 11
18.45599839077467
 21
33.64880550484985
 72
     1
 10
18.45599839077467
 20
33.64880550484985
 11
18.4501357604751
 21
33.65325078034426
 72
     1
 10
18.4501357604751
 20
33.65325078034426
 11
18.44378948394209
 21
33.65698498814807
 72
     1
 10
18.44378948394209
 20
33.65698498814807
 11
18.43704846721748
 21
33.65996017253403
 72
     1
 10
18.43704846721748
 20
33.65996017253403
 11
18.43000161634212
 21
33.6621283777736
 72
     1
 10
18.43000161634212
 20
33.6621283777736
 11
18.42273783735786
 21
33.6634416481395
 72
     1
 10
18.42273783735786
 20
33.6634416481395
 11
18.41534603630589
 21
33.6638520279032
 72
     1
 10
18.41534603630589
 20
33.6638520279032
 11
18.40791511922834
 21
33.66331156133742
 72
     1
 10
18.40791511922834
 20
33.66331156133742
 11
18.40672082856547
 21
33.66317816724352
 72
     1
 10
18.40672082856547
 20
33.66317816724352
 11
18.40314349883616
 21
33.66282649190536
 72
     1
 10
18.40314349883616
 20
33.66282649190536
 11
18.39719144342986
 21
33.66232929573724
 72
     1
 10
18.39719144342986
 20
33.66232929573724
 11
18.38887297573569
 21
33.66175933915481
 72
     1
 10
18.38887297573569
 20
33.66175933915481
 11
18.37819640914376
 21
33.66118938257236
 72
     1
 10
18.37819640914376
 20
33.66118938257236
 11
18.36517005704286
 21
33.66069218640425
 72
     1
 10
18.36517005704286
 20
33.66069218640425
 11
18.34980223282276
 21
33.66034051106608
 72
     1
 10
18.34980223282276
 20
33.66034051106608
 11
18.33210124987259
 21
33.66020711697218
 72
     1
 10
18.33210124987259
 20
33.66020711697218
 11
18.1662507781381
 21
33.67243686112656
 72
     1
 10
18.1662507781381
 20
33.67243686112656
 11
17.92393078589339
 21
33.72364262316643
 72
     1
 10
17.92393078589339
 20
33.72364262316643
 11
17.62195060441546
 21
33.83988544734949
 72
     1
 10
17.62195060441546
 20
33.83988544734949
 11
17.2771195649807
 21
34.04722637793215
 72
     1
 10
17.2771195649807
 20
34.04722637793215
 11
16.90624699886613
 21
34.37172645917147
 72
     1
 10
16.90624699886613
 20
34.37172645917147
 11
16.52614223734877
 21
34.83944673532513
 72
     1
 10
16.52614223734877
 20
34.83944673532513
 11
16.153614611705
 21
35.47644825064891
 72
     1
 10
16.153614611705
 20
35.47644825064891
 11
15.80547345321214
 21
36.30879204940115
 72
     1
 10
15.80547345321214
 20
36.30879204940115
 11
15.80327748631131
 21
36.32771491599235
 72
     1
 10
15.80327748631131
 20
36.32771491599235
 11
15.80108580619364
 21
36.3459602825881
 72
     1
 10
15.80108580619364
 20
36.3459602825881
 11
15.79890252516369
 21
36.36353228326259
 72
     1
 10
15.79890252516369
 20
36.36353228326259
 11
15.79673175552632
 21
36.38043505209193
 72
     1
 10
15.79673175552632
 20
36.38043505209193
 11
15.79457760958576
 21
36.39667272315096
 72
     1
 10
15.79457760958576
 20
36.39667272315096
 11
15.79244419964722
 21
36.41224943051579
 72
     1
 10
15.79244419964722
 20
36.41224943051579
 11
15.79033563801491
 21
36.42716930826062
 72
     1
 10
15.79033563801491
 20
36.42716930826062
 11
15.78825603699372
 21
36.44143649046156
 72
     1
 10
15.78825603699372
 20
36.44143649046156
 11
15.78582856127595
 21
36.45665395914869
 72
     1
 10
15.78582856127595
 20
36.45665395914869
 11
15.78346734039492
 21
36.47103509647698
 72
     1
 10
15.78346734039492
 20
36.47103509647698
 11
15.78117230894738
 21
36.48458362314965
 72
     1
 10
15.78117230894738
 20
36.48458362314965
 11
15.77894340153072
 21
36.49730325986992
 72
     1
 10
15.77894340153072
 20
36.49730325986992
 11
15.77678055274138
 21
36.50919772733973
 72
     1
 10
15.77678055274138
 20
36.50919772733973
 11
15.77468369717674
 21
36.52027074626294
 72
     1
 10
15.77468369717674
 20
36.52027074626294
 11
15.77265276943356
 21
36.53052603734277
 72
     1
 10
15.77265276943356
 20
36.53052603734277
 11
15.77068770410859
 21
36.53996732128115
 72
     1
 10
15.77068770410859
 20
36.53996732128115
 11
15.76958830526517
 21
36.54428244107169
 72
     1
 10
15.76958830526517
 20
36.54428244107169
 11
15.76848063819251
 21
36.54845989484949
 72
     1
 10
15.76848063819251
 20
36.54845989484949
 11
15.76735643466235
 21
36.55252407389086
 72
     1
 10
15.76735643466235
 20
36.55252407389086
 11
15.76620742644511
 21
36.55649936947082
 72
     1
 10
15.76620742644511
 20
36.55649936947082
 11
15.76502534531221
 21
36.56041017286505
 72
     1
 10
15.76502534531221
 20
36.56041017286505
 11
15.76380192303442
 21
36.56428087534857
 72
     1
 10
15.76380192303442
 20
36.56428087534857
 11
15.76252889138281
 21
36.56813586819705
 72
     1
 10
15.76252889138281
 20
36.56813586819705
 11
15.76119798212847
 21
36.57199954268616
 72
     1
 10
15.76119798212847
 20
36.57199954268616
 11
15.75830024348708
 21
36.57523786345914
 72
     1
 10
15.75830024348708
 20
36.57523786345914
 11
15.75687424959973
 21
36.57984829682648
 72
     1
 10
15.75687424959973
 20
36.57984829682648
 11
15.75543833383787
 21
36.58555592417668
 72
     1
 10
15.75543833383787
 20
36.58555592417668
 11
15.75251082957232
 21
36.59208582689627
 72
     1
 10
15.75251082957232
 20
36.59208582689627
 11
15.74661007017421
 21
36.59916308637244
 72
     1
 10
15.74661007017421
 20
36.59916308637244
 11
15.73625438901467
 21
36.60651278399368
 72
     1
 10
15.73625438901467
 20
36.60651278399368
 11
15.71996211946517
 21
36.61386000114589
 72
     1
 10
15.71996211946517
 20
36.61386000114589
 11
15.6962515948965
 21
36.62092981921627
 72
     1
 10
15.6962515948965
 20
36.62092981921627
 11
15.67657718819138
 21
36.61652788302195
 72
     1
 10
15.67657718819138
 20
36.61652788302195
 11
15.6618510336395
 21
36.61045948528156
 72
     1
 10
15.6618510336395
 20
36.61045948528156
 11
15.65129019523781
 21
36.6033501175161
 72
     1
 10
15.65129019523781
 20
36.6033501175161
 11
15.6441117369836
 21
36.59582527124531
 72
     1
 10
15.6441117369836
 20
36.59582527124531
 11
15.63953272287413
 21
36.58851043799019
 72
     1
 10
15.63953272287413
 20
36.58851043799019
 11
15.63677021690605
 21
36.58203110927112
 72
     1
 10
15.63677021690605
 20
36.58203110927112
 11
15.63504128307726
 21
36.57701277660782
 72
     1
 10
15.63504128307726
 20
36.57701277660782
 11
15.63356298538471
 21
36.57408093152196
 72
     1
 10
15.63356298538471
 20
36.57408093152196
 11
15.63114659547249
 21
36.56472301889194
 72
     1
 10
15.63114659547249
 20
36.56472301889194
 11
15.62937926153319
 21
36.55605012903061
 72
     1
 10
15.62937926153319
 20
36.55605012903061
 11
15.62814936247598
 21
36.54771540973363
 72
     1
 10
15.62814936247598
 20
36.54771540973363
 11
15.62734527721
 21
36.53937200879602
 72
     1
 10
15.62734527721
 20
36.53937200879602
 11
15.62685538464443
 21
36.53067307401408
 72
     1
 10
15.62685538464443
 20
36.53067307401408
 11
15.62656806368808
 21
36.52127175318153
 72
     1
 10
15.62656806368808
 20
36.52127175318153
 11
15.62637169325046
 21
36.51082119409532
 72
     1
 10
15.62637169325046
 20
36.51082119409532
 11
15.62615465224038
 21
36.49897454454919
 72
     1
 10
15.62615465224038
 20
36.49897454454919
 11
15.62618662272575
 21
36.49313931086595
 72
     1
 10
15.62618662272575
 20
36.49313931086595
 11
15.62627812445945
 21
36.48699939294478
 72
     1
 10
15.62627812445945
 20
36.48699939294478
 11
15.62642254285846
 21
36.48053784091773
 72
     1
 10
15.62642254285846
 20
36.48053784091773
 11
15.62661326333979
 21
36.47373770491494
 72
     1
 10
15.62661326333979
 20
36.47373770491494
 11
15.6268436713201
 21
36.46658203506781
 72
     1
 10
15.6268436713201
 20
36.46658203506781
 11
15.62710715221608
 21
36.45905388150519
 72
     1
 10
15.62710715221608
 20
36.45905388150519
 11
15.62739709144471
 21
36.45113629435914
 72
     1
 10
15.62739709144471
 20
36.45113629435914
 11
15.627706874423
 21
36.44281232375978
 72
     1
 10
15.627706874423
 20
36.44281232375978
 11
15.63298152218332
 21
36.4002189557059
 72
     1
 10
15.63298152218332
 20
36.4002189557059
 11
15.64687869251015
 21
36.28273610388509
 72
     1
 10
15.64687869251015
 20
36.28273610388509
 11
15.66650822597213
 21
36.10580964681027
 72
     1
 10
15.66650822597213
 20
36.10580964681027
 11
15.68897996313757
 21
35.88488546299369
 72
     1
 10
15.68897996313757
 20
35.88488546299369
 11
15.71140374457511
 21
35.63540943094694
 72
     1
 10
15.71140374457511
 20
35.63540943094694
 11
15.73088941085305
 21
35.37282742918229
 72
     1
 10
15.73088941085305
 20
35.37282742918229
 11
15.74454680254037
 21
35.112585336212
 72
     1
 10
15.74454680254037
 20
35.112585336212
 11
15.74948576020505
 21
34.87012903054895
 72
     1
 10
15.74948576020505
 20
34.87012903054895
 11
15.73827879597264
 21
34.26769160613972
 72
     1
 10
15.73827879597264
 20
34.26769160613972
 11
15.6990677536787
 21
33.62089720044054
 72
     1
 10
15.6990677536787
 20
33.62089720044054
 11
15.6252136588833
 21
32.9489185961646
 72
     1
 10
15.6252136588833
 20
32.9489185961646
 11
15.5100775371462
 21
32.27092857602706
 72
     1
 10
15.5100775371462
 20
32.27092857602706
 11
15.34702041402745
 21
31.60609992274112
 72
     1
 10
15.34702041402745
 20
31.60609992274112
 11
15.12940331508713
 21
30.97360541902065
 72
     1
 10
15.12940331508713
 20
30.97360541902065
 11
14.85058726588531
 21
30.39261784758013
 72
     1
 10
14.85058726588531
 20
30.39261784758013
 11
14.50393329198174
 21
29.88230999113279
 72
     1
 10
14.50393329198174
 20
29.88230999113279
 11
14.2585829732154
 21
29.597164750469
 72
     1
 10
14.2585829732154
 20
29.597164750469
 11
14.02607786688203
 21
29.35790859392098
 72
     1
 10
14.02607786688203
 20
29.35790859392098
 11
13.80632489220273
 21
29.16214745579422
 72
     1
 10
13.80632489220273
 20
29.16214745579422
 11
13.59923096839799
 21
29.0074872703955
 72
     1
 10
13.59923096839799
 20
29.0074872703955
 11
13.40470301468924
 21
28.89153397202967
 72
     1
 10
13.40470301468924
 20
28.89153397202967
 11
13.22264795029727
 21
28.81189349500352
 72
     1
 10
13.22264795029727
 20
28.81189349500352
 11
13.05297269444287
 21
28.76617177362191
 72
     1
 10
13.05297269444287
 20
28.76617177362191
 11
12.89558416634748
 21
28.75197474219162
 72
     1
 10
12.89558416634748
 20
28.75197474219162
 11
12.69688525757105
 21
28.77210588154318
 72
     1
 10
12.69688525757105
 20
28.77210588154318
 11
12.51665343816767
 21
28.837882192257
 72
     1
 10
12.51665343816767
 20
28.837882192257
 11
12.35333014697854
 21
28.94614645110548
 72
     1
 10
12.35333014697854
 20
28.94614645110548
 11
12.20535682284553
 21
29.09374143486163
 72
     1
 10
12.20535682284553
 20
29.09374143486163
 11
12.07117490461084
 21
29.27750992029913
 72
     1
 10
12.07117490461084
 20
29.27750992029913
 11
11.94922583111601
 21
29.494294684191
 72
     1
 10
11.94922583111601
 20
29.494294684191
 11
11.83795104120322
 21
29.7409385033109
 72
     1
 10
11.83795104120322
 20
29.7409385033109
 11
11.73579197371402
 21
30.01428415443187
 72
     1
 10
11.73579197371402
 20
30.01428415443187
 11
11.73164738957671
 21
30.03096062102022
 72
     1
 10
11.73164738957671
 20
30.03096062102022
 11
11.72323311258908
 21
30.06298953513341
 72
     1
 10
11.72323311258908
 20
30.06298953513341
 11
11.71193491850765
 21
30.10543641773162
 72
     1
 10
11.71193491850765
 20
30.10543641773162
 11
11.69913858308765
 21
30.15336678977246
 72
     1
 10
11.69913858308765
 20
30.15336678977246
 11
11.68622988208464
 21
30.20184617221613
 72
     1
 10
11.68622988208464
 20
30.20184617221613
 11
11.67459459125482
 21
30.24594008602151
 72
     1
 10
11.67459459125482
 20
30.24594008602151
 11
11.66561848635375
 21
30.28071405214881
 72
     1
 10
11.66561848635375
 20
30.28071405214881
 11
11.6606873431373
 21
30.30123359155562
 72
     1
 10
11.6606873431373
 20
30.30123359155562
 11
11.59378990094661
 21
30.62325754492934
 72
     1
 10
11.59378990094661
 20
30.62325754492934
 11
11.52909360538369
 21
30.94567589282326
 72
     1
 10
11.52909360538369
 20
30.94567589282326
 11
11.46671584471614
 21
31.26924021725073
 72
     1
 10
11.46671584471614
 20
31.26924021725073
 11
11.40677400721315
 21
31.59470210022316
 72
     1
 10
11.40677400721315
 20
31.59470210022316
 11
11.34938548114265
 21
31.92281312375324
 72
     1
 10
11.34938548114265
 20
31.92281312375324
 11
11.29466765477286
 21
32.25432486985304
 72
     1
 10
11.29466765477286
 20
32.25432486985304
 11
11.24273791637265
 21
32.58998892053459
 72
     1
 10
11.24273791637265
 20
32.58998892053459
 11
11.19371365421026
 21
32.93055685780933
 72
     1
 10
11.19371365421026
 20
32.93055685780933
 11
11.19070478019543
 21
32.94271648765055
 72
     1
 10
11.19070478019543
 20
32.94271648765055
 11
11.18559703668395
 21
32.95373746916703
 72
     1
 10
11.18559703668395
 20
32.95373746916703
 11
11.17863311662042
 21
32.96341776568526
 72
     1
 10
11.17863311662042
 20
32.96341776568526
 11
11.17005571294779
 21
32.97155534053301
 72
     1
 10
11.17005571294779
 20
32.97155534053301
 11
11.16010751861065
 21
32.97794815703675
 72
     1
 10
11.16010751861065
 20
32.97794815703675
 11
11.14903122655262
 21
32.98239417852555
 72
     1
 10
11.14903122655262
 20
32.98239417852555
 11
11.13706952971763
 21
32.98469136832459
 72
     1
 10
11.13706952971763
 20
32.98469136832459
 11
11.1244651210493
 21
32.98463768976295
 72
     1
 10
11.1244651210493
 20
32.98463768976295
 11
11.11228709816669
 21
32.982304051042
 72
     1
 10
11.11228709816669
 20
32.982304051042
 11
11.10109479114343
 21
32.97779545469425
 72
     1
 10
11.10109479114343
 20
32.97779545469425
 11
11.09111638267525
 21
32.97135788053148
 72
     1
 10
11.09111638267525
 20
32.97135788053148
 11
11.08258005545725
 21
32.9632373083648
 72
     1
 10
11.08258005545725
 20
32.9632373083648
 11
11.07571399218422
 21
32.95367971800533
 72
     1
 10
11.07571399218422
 20
32.95367971800533
 11
11.07074637555158
 21
32.94293108926483
 72
     1
 10
11.07074637555158
 20
32.94293108926483
 11
11.06790538825442
 21
32.93123740195444
 72
     1
 10
11.06790538825442
 20
32.93123740195444
 11
11.06741921298785
 21
32.91884463588591
 72
     1
 10
11.06741921298785
 20
32.91884463588591
 11
11.06755942837078
 21
32.91874844882229
 72
     1
 10
11.06755942837078
 20
32.91874844882229
 11
11.0677141131539
 21
32.91846539978448
 72
     1
 10
11.0677141131539
 20
32.91846539978448
 11
11.06788120028088
 21
32.91800375700105
 72
     1
 10
11.06788120028088
 20
32.91800375700105
 11
11.06805862269376
 21
32.91737178870127
 72
     1
 10
11.06805862269376
 20
32.91737178870127
 11
11.06824431333588
 21
32.91657776311371
 72
     1
 10
11.06824431333588
 20
32.91657776311371
 11
11.06843620514929
 21
32.91562994846825
 72
     1
 10
11.06843620514929
 20
32.91562994846825
 11
11.06863223107763
 21
32.91453661299221
 72
     1
 10
11.06863223107763
 20
32.91453661299221
 11
11.06883032406296
 21
32.9133060249161
 72
     1
 10
11.06883032406296
 20
32.9133060249161
 11
11.06865393517857
 21
32.91326633741744
 72
     1
 10
11.06865393517857
 20
32.91326633741744
 11
11.06847754629418
 21
32.91322664991813
 72
     1
 10
11.06847754629418
 20
32.91322664991813
 11
11.0683011574098
 21
32.91318696241882
 72
     1
 10
11.0683011574098
 20
32.91318696241882
 11
11.06812476852541
 21
32.91314727492016
 72
     1
 10
11.06812476852541
 20
32.91314727492016
 11
11.06794837964102
 21
32.91310758742149
 72
     1
 10
11.06794837964102
 20
32.91310758742149
 11
11.06777199075663
 21
32.91306789992218
 72
     1
 10
11.06777199075663
 20
32.91306789992218
 11
11.06759560187224
 21
32.91302821242287
 72
     1
 10
11.06759560187224
 20
32.91302821242287
 11
11.06741921298785
 21
32.9129885249242
 72
     1
 10
11.06741921298785
 20
32.9129885249242
 11
11.06793887117759
 21
32.90962900569581
 72
     1
 10
11.06793887117759
 20
32.90962900569581
 11
11.0684411660867
 21
32.90627362058139
 72
     1
 10
11.0684411660867
 20
32.90627362058139
 11
11.06892857818389
 21
32.9029265036962
 72
     1
 10
11.06892857818389
 20
32.9029265036962
 11
11.06940358793723
 21
32.89959178915487
 72
     1
 10
11.06940358793723
 20
32.89959178915487
 11
11.06986867581606
 21
32.89627361107137
 72
     1
 10
11.06986867581606
 20
32.89627361107137
 11
11.07032632228877
 21
32.89297610355968
 72
     1
 10
11.07032632228877
 20
32.89297610355968
 11
11.07077900782406
 21
32.88970340073506
 72
     1
 10
11.07077900782406
 20
32.88970340073506
 11
11.07122921289065
 21
32.88645963671213
 72
     1
 10
11.07122921289065
 20
32.88645963671213
 11
11.08091634148711
 21
32.78270234647889
 72
     1
 10
11.08091634148711
 20
32.78270234647889
 11
11.09899086375378
 21
32.61674925880259
 72
     1
 10
11.09899086375378
 20
32.61674925880259
 11
11.12544279648513
 21
32.39691337236545
 72
     1
 10
11.12544279648513
 20
32.39691337236545
 11
11.16026215647627
 21
32.13150768585035
 72
     1
 10
11.16026215647627
 20
32.13150768585035
 11
11.20343896052198
 21
31.82884519793951
 72
     1
 10
11.20343896052198
 20
31.82884519793951
 11
11.25496322541737
 21
31.49723890731644
 72
     1
 10
11.25496322541737
 20
31.49723890731644
 11
11.31482496795723
 21
31.14500181266338
 72
     1
 10
11.31482496795723
 20
31.14500181266338
 11
11.38301420493635
 21
30.7804469126632
 72
     1
 10
11.38301420493635
 20
30.7804469126632
 11
11.41099781913145
 21
30.62028229164094
 72
     1
 10
11.41099781913145
 20
30.62028229164094
 11
11.45098400788968
 21
30.43637669140633
 72
     1
 10
11.45098400788968
 20
30.43637669140633
 11
11.49901766389098
 21
30.23955032978241
 72
     1
 10
11.49901766389098
 20
30.23955032978241
 11
11.55114367981368
 21
30.04062342459291
 72
     1
 10
11.55114367981368
 20
30.04062342459291
 11
11.60340694833709
 21
29.85041619366024
 72
     1
 10
11.60340694833709
 20
29.85041619366024
 11
11.65185236214018
 21
29.67974885480681
 72
     1
 10
11.65185236214018
 20
29.67974885480681
 11
11.69252481390193
 21
29.5394416258557
 72
     1
 10
11.69252481390193
 20
29.5394416258557
 11
11.72146919630165
 21
29.4403147246306
 97
        0
 75
     2
 76
     1
 98
        0
  0
ENDSEC
  0
SECTION
  2
OBJECTS
  0
DICTIONARY
  5
C
330
0
100
AcDbDictionary
  3
ACAD_GROUP
350
D
  3
ACAD_LAYOUT
350
1A
  3
ACAD_MATERIAL
350
3B
  3
ACAD_MLEADERSTYLE
350
14A
  3
ACAD_MLINESTYLE
350
17
  3
ACAD_PLOTSETTINGS
350
19
  3
ACAD_VISUALSTYLE
350
2A
  3
ACDBHEADERROUNDTRIPXREC
350
128
  3
ACDBVARIABLEDICTIONARY
350
148
  0
DICTIONARY
  5
D
102
{ACAD_REACTORS
330
C
102
}
330
C
100
AcDbDictionary
  0
DICTIONARY
  5
1A
102
{ACAD_REACTORS
330
C
102
}
330
C
100
AcDbDictionary
  0
DICTIONARY
  5
3B
102
{ACAD_REACTORS
330
C
102
}
330
C
100
AcDbDictionary
  3
BYBLOCK
350
3D
  3
BYLAYER
350
3C
  3
GLOBAL
350
3E
  0
DICTIONARY
  5
14A
102
{ACAD_REACTORS
330
C
102
}
330
C
100
AcDbDictionary
  0
DICTIONARY
  5
17
102
{ACAD_REACTORS
330
C
102
}
330
C
100
AcDbDictionary
  3
STANDARD
350
18
  0
DICTIONARY
  5
19
102
{ACAD_REACTORS
330
C
102
}
330
C
100
AcDbDictionary
  0
DICTIONARY
  5
2A
102
{ACAD_REACTORS
330
C
102
}
330
C
100
AcDbDictionary
  3
2DWIREFRAME
350
2F
  3
3DWIREFRAME
350
30
  3
3D_HIDDEN
350
31
  3
BASIC
350
32
  3
BRIGHTEN
350
36
  3
COLORCHANGE
350
3A
  3
CONCEPTUAL
350
34
  3
DIM
350
35
  3
FACEPATTERN
350
39
  3
FLAT
350
2B
  3
FLATWITHEDGES
350
2C
  3
GOURAUD
350
2D
  3
GOURAUDWITHEDGES
350
2E
  3
LINEPATTERN
350
38
  3
REALISTIC
350
33
  3
THICKEN
350
37
  0
DICTIONARY
  5
128
102
{ACAD_REACTORS
330
C
102
}
330
C
100
AcDbDictionary
  3
CEPSNTYPE
350
131
  3
DIMSTYLEDATA
350
147
  3
FINGERPRINTGUID
350
132
  3
HYPERLINKBASE
350
12B
  3
INSUNITS
350
130
  3
LAYOUTDICT
350
12D
  3
LWETCUNION
350
12F
  3
PLOTSETDICT
350
12E
  3
PSVPSCALE
350
134
  3
PUCSBASE
350
137
  3
PUCSORGBACK
350
13D
  3
PUCSORGBOTTOM
350
139
  3
PUCSORGFRONT
350
13C
  3
PUCSORGLEFT
350
13A
  3
PUCSORGRIGHT
350
13B
  3
PUCSORGTOP
350
138
  3
PUCSORTHOREF
350
135
  3
PUCSORTHOVIEW
350
136
  3
STYLESHEET
350
12C
  3
TSTACKALIGN
350
129
  3
TSTACKSIZE
350
12A
  3
UCSBASE
350
140
  3
UCSORGBACK
350
146
  3
UCSORGBOTTOM
350
142
  3
UCSORGFRONT
350
145
  3
UCSORGLEFT
350
143
  3
UCSORGRIGHT
350
144
  3
UCSORGTOP
350
141
  3
UCSORTHOREF
350
13E
  3
UCSORTHOVIEW
350
13F
  3
VERSIONGUID
350
133
  0
DICTIONARY
  5
148
102
{ACAD_REACTORS
330
C
102
}
330
C
100
AcDbDictionary
  3
DIMASSOC
350
14B
  3
HIDETEXT
350
14C
  0
MATERIAL
  5
3D
102
{ACAD_REACTORS
330
3B
102
}
102
{ACAD_XDICTIONARY
360
14F
102
}
330
3B
100
AcDbMaterial
  1
ByBlock
  0
MATERIAL
  5
3C
102
{ACAD_REACTORS
330
3B
102
}
102
{ACAD_XDICTIONARY
360
14D
102
}
330
3B
100
AcDbMaterial
  1
ByLayer
  0
MATERIAL
  5
3E
102
{ACAD_REACTORS
330
3B
102
}
102
{ACAD_XDICTIONARY
360
151
102
}
330
3B
100
AcDbMaterial
  1
Global
  0
MLINESTYLE
  5
18
102
{ACAD_REACTORS
330
17
102
}
330
17
100
AcDbMlineStyle
  2
Standard
 70
     0
  3

 62
   256
 51
90.0
 52
90.0
 71
     2
 49
0.5
 62
   256
  6
BYLAYER
 49
-0.5
 62
   256
  6
BYLAYER
  0
ACAD_PROXY_OBJECT
  5
2F
102
{ACAD_REACTORS
330
2A
102
}
330
2A
100
AcDbProxyObject
 90
      499
 91
      501
 93
      436
310
42CC9915DA5C99599C985B595049028333333333333E3BF0000000000000FB0107901411070040501600405405064090741402480A0340
1001
ACAD
1000
AcDbSavedByObjectVersion
1070
     0
  0
ACAD_PROXY_OBJECT
  5
30
102
{ACAD_REACTORS
330
2A
102
}
330
2A
100
AcDbProxyObject
 90
      499
 91
      501
 93
      436
310
42CCD915DA5C99599C985B595059028333333333333E3BF0000000000000FB0107901411070040501600405405064090741402480A0340
1001
ACAD
1000
AcDbSavedByObjectVersion
1070
     0
  0
ACAD_PROXY_OBJECT
  5
31
102
{ACAD_REACTORS
330
2A
102
}
330
2A
100
AcDbProxyObject
 90
      499
 91
      501
 93
      500
310
424CD108121A5919195B90640502408333333333333E3BF0000000000000FB01079024090700405020000000000001110200405405064090740C02480A0340
1001
ACAD
1000
AcDbSavedByObjectVersion
1070
     0
  0
ACAD_PROXY_OBJECT
  5
32
102
{ACAD_REACTORS
330
2A
102
}
330
2A
100
AcDbProxyObject
 90
      499
 91
      501
 93
      388
310
4150985CDA58D07406404333333333333E3BF0000000000000FB0107A41107004050150841D405064090741402480A0350
1001
ACAD
1000
AcDbSavedByObjectVersion
1070
     0
  0
ACAD_PROXY_OBJECT
  5
36
102
{ACAD_REACTORS
330
2A
102
}
330
2A
100
AcDbProxyObject
 90
      499
 91
      501
 93
      428
310
42109C9A59DA1D195B90C409028333333333333E3BF0000000000000FB010790141107004050150841D405064090741402480A029950
1001
ACAD
1000
AcDbSavedByObjectVersion
1070
     0
  0
ACAD_PROXY_OBJECT
  5
3A
102
{ACAD_REACTORS
330
2A
102
}
330
2A
100
AcDbProxyObject
 90
      499
 91
      501
 93
      452
310
42D0DBDB1BDC90DA185B99D95104090240C333333333333E3BF0000000000000FB0108901411070040501508421405064090741402480A0350
1001
ACAD
1000
AcDbSavedByObjectVersion
1070
     0
  0
ACAD_PROXY_OBJECT
  5
34
102
{ACAD_REACTORS
330
2A
102
}
330
2A
100
AcDbProxyObject
 90
      499
 91
      501
 93
      500
310
4290DBDB98D95C1D1D585B10940D028333333333333E3BF0000000000000FB0107902409070040501000000000000111010841D405064090740C02480A0340
1001
ACAD
1000
AcDbSavedByObjectVersion
1070
     0
  0
ACAD_PROXY_OBJECT
  5
35
102
{ACAD_REACTORS
330
2A
102
}
330
2A
100
AcDbProxyObject
 90
      499
 91
      501
 93
      412
310
40D11A5B50B409028333333333333E3BF0000000000000FB010790141107004050150841D405064090741402480A02677FFFFFD0
1001
ACAD
1000
AcDbSavedByObjectVersion
1070
     0
  0
ACAD_PROXY_OBJECT
  5
39
102
{ACAD_REACTORS
330
2A
102
}
330
2A
100
AcDbProxyObject
 90
      499
 91
      501
 93
      444
310
42D19858D95C185D1D195C9B90F409028333333333333E3BF0000000000000FB010790141107004050150841D405064090741402480A0350
1001
ACAD
1000
AcDbSavedByObjectVersion
1070
     0
  0
ACAD_PROXY_OBJECT
  5
2B
102
{ACAD_REACTORS
330
2A
102
}
330
2A
100
AcDbProxyObject
 90
      499
 91
      501
 93
      388
310
41119B185D240901404333333333333E3BF0000000000000F9010740A41107004050150841D405064090741402480A1B50
1001
ACAD
1000
AcDbSavedByObjectVersion
1070
     0
  0
ACAD_PROXY_OBJECT
  5
2C
102
{ACAD_REACTORS
330
2A
102
}
330
2A
100
AcDbProxyObject
 90
      499
 91
      501
 93
      476
310
43519B185D15DA5D1A115919D95CD0140901404333333333333E3BF0000000000000F9010740901411070040501600405405064090741402480A1B50
1001
ACAD
1000
AcDbSavedByObjectVersion
1070
     0
  0
ACAD_PROXY_OBJECT
  5
2D
102
{ACAD_REACTORS
330
2A
102
}
330
2A
100
AcDbProxyObject
 90
      499
 91
      501
 93
      412
310
41D1DBDD5C985D5910240902404333333333333E3BF0000000000000F9010740A411070040501641D405064090741402480A1B50
1001
ACAD
1000
AcDbSavedByObjectVersion
1070
     0
  0
ACAD_PROXY_OBJECT
  5
2E
102
{ACAD_REACTORS
330
2A
102
}
330
2A
100
AcDbProxyObject
 90
      499
 91
      501
 93
      500
310
4411DBDD5C985D5915DA5D1A115919D95CD0340902404333333333333E3BF0000000000000F9010740901411070040501600405405064090741402480A1B50
1001
ACAD
1000
AcDbSavedByObjectVersion
1070
     0
  0
ACAD_PROXY_OBJECT
  5
38
102
{ACAD_REACTORS
330
2A
102
}
330
2A
100
AcDbProxyObject
 90
      499
 91
      501
 93
      444
310
42D31A5B995C185D1D195C9B90E409028333333333333E3BF0000000000000FB010790141107004050750841D405064090741402483A0350
1001
ACAD
1000
AcDbSavedByObjectVersion
1070
     0
  0
ACAD_PROXY_OBJECT
  5
33
102
{ACAD_REACTORS
330
2A
102
}
330
2A
100
AcDbProxyObject
 90
      499
 91
      501
 93
      420
310
425499585B1A5CDD1A58D08409028333333333333E3BF0000000000000FB01079019070040501508421405064090741402480A1B40
1001
ACAD
1000
AcDbSavedByObjectVersion
1070
     0
  0
ACAD_PROXY_OBJECT
  5
37
102
{ACAD_REACTORS
330
2A
102
}
330
2A
100
AcDbProxyObject
 90
      499
 91
      501
 93
      412
310
41D51A1A58DAD95B90D409028333333333333E3BF0000000000000FB010790141107004050150C41D405064090741402480A0350
1001
ACAD
1000
AcDbSavedByObjectVersion
1070
     0
  0
XRECORD
  5
131
102
{ACAD_REACTORS
330
128
102
}
330
128
100
AcDbXrecord
 90
        0
  0
XRECORD
  5
147
102
{ACAD_REACTORS
330
128
102
}
330
128
100
AcDbXrecord
1000
DSTYLE
1002
{
1070
   340
340
11
1002
}
  0
XRECORD
  5
132
102
{ACAD_REACTORS
330
128
102
}
330
128
100
AcDbXrecord
  1
{AEB559D4-579D-6DE6-B5D3-EFF371F666C6}
  0
XRECORD
  5
12B
102
{ACAD_REACTORS
330
128
102
}
330
128
100
AcDbXrecord
  1

  0
XRECORD
  5
130
102
{ACAD_REACTORS
330
128
102
}
330
128
100
AcDbXrecord
 90
        4
  0
XRECORD
  5
12D
102
{ACAD_REACTORS
330
128
102
}
330
128
100
AcDbXrecord
340
1A
  0
XRECORD
  5
12F
102
{ACAD_REACTORS
330
128
102
}
330
128
100
AcDbXrecord
 90
    10269
  0
XRECORD
  5
12E
102
{ACAD_REACTORS
330
128
102
}
330
128
100
AcDbXrecord
340
19
  0
XRECORD
  5
134
102
{ACAD_REACTORS
330
128
102
}
330
128
100
AcDbXrecord
 40
0.0
  0
XRECORD
  5
137
102
{ACAD_REACTORS
330
128
102
}
330
128
100
AcDbXrecord
340
0
  0
XRECORD
  5
13D
102
{ACAD_REACTORS
330
128
102
}
330
128
100
AcDbXrecord
 10
0.0
 20
0.0
 30
0.0
  0
XRECORD
  5
139
102
{ACAD_REACTORS
330
128
102
}
330
128
100
AcDbXrecord
 10
0.0
 20
0.0
 30
0.0
  0
XRECORD
  5
13C
102
{ACAD_REACTORS
330
128
102
}
330
128
100
AcDbXrecord
 10
0.0
 20
0.0
 30
0.0
  0
XRECORD
  5
13A
102
{ACAD_REACTORS
330
128
102
}
330
128
100
AcDbXrecord
 10
0.0
 20
0.0
 30
0.0
  0
XRECORD
  5
13B
102
{ACAD_REACTORS
330
128
102
}
330
128
100
AcDbXrecord
 10
0.0
 20
0.0
 30
0.0
  0
XRECORD
  5
138
102
{ACAD_REACTORS
330
128
102
}
330
128
100
AcDbXrecord
 10
0.0
 20
0.0
 30
0.0
  0
XRECORD
  5
135
102
{ACAD_REACTORS
330
128
102
}
330
128
100
AcDbXrecord
340
0
  0
XRECORD
  5
136
102
{ACAD_REACTORS
330
128
102
}
330
128
100
AcDbXrecord
 70
     0
  0
XRECORD
  5
12C
102
{ACAD_REACTORS
330
128
102
}
330
128
100
AcDbXrecord
  1

  0
XRECORD
  5
129
102
{ACAD_REACTORS
330
128
102
}
330
128
100
AcDbXrecord
 90
        1
  0
XRECORD
  5
12A
102
{ACAD_REACTORS
330
128
102
}
330
128
100
AcDbXrecord
 90
       70
  0
XRECORD
  5
140
102
{ACAD_REACTORS
330
128
102
}
330
128
100
AcDbXrecord
340
0
  0
XRECORD
  5
146
102
{ACAD_REACTORS
330
128
102
}
330
128
100
AcDbXrecord
 10
0.0
 20
0.0
 30
0.0
  0
XRECORD
  5
142
102
{ACAD_REACTORS
330
128
102
}
330
128
100
AcDbXrecord
 10
0.0
 20
0.0
 30
0.0
  0
XRECORD
  5
145
102
{ACAD_REACTORS
330
128
102
}
330
128
100
AcDbXrecord
 10
0.0
 20
0.0
 30
0.0
  0
XRECORD
  5
143
102
{ACAD_REACTORS
330
128
102
}
330
128
100
AcDbXrecord
 10
0.0
 20
0.0
 30
0.0
  0
XRECORD
  5
144
102
{ACAD_REACTORS
330
128
102
}
330
128
100
AcDbXrecord
 10
0.0
 20
0.0
 30
0.0
  0
XRECORD
  5
141
102
{ACAD_REACTORS
330
128
102
}
330
128
100
AcDbXrecord
 10
0.0
 20
0.0
 30
0.0
  0
XRECORD
  5
13E
102
{ACAD_REACTORS
330
128
102
}
330
128
100
AcDbXrecord
340
0
  0
XRECORD
  5
13F
102
{ACAD_REACTORS
330
128
102
}
330
128
100
AcDbXrecord
 70
     0
  0
XRECORD
  5
133
102
{ACAD_REACTORS
330
128
102
}
330
128
100
AcDbXrecord
  1
{FAEB1C32-E019-11D5-929B-00C0DF256EC4}
  0
DICTIONARYVAR
  5
14B
102
{ACAD_REACTORS
330
148
102
}
330
148
100
DictionaryVariables
280
     0
  1
2
  0
DICTIONARYVAR
  5
14C
102
{ACAD_REACTORS
330
148
102
}
330
148
100
DictionaryVariables
280
     0
  1
1
  0
DICTIONARY
  5
14F
330
3D
100
AcDbDictionary
280
     1
  3
ACAD_XREC_ROUNDTRIP
360
150
  0
DICTIONARY
  5
14D
330
3C
100
AcDbDictionary
280
     1
  3
ACAD_XREC_ROUNDTRIP
360
14E
  0
DICTIONARY
  5
151
330
3E
100
AcDbDictionary
280
     1
  3
ACAD_XREC_ROUNDTRIP
360
152
  0
XRECORD
  5
150
102
{ACAD_REACTORS
330
14F
102
}
330
14F
100
AcDbXrecord
102
MATERIAL
148
0.0
149
0.0
149
0.0
 93
        0
 94
      127
282
     0
 72
     1
 77
     1
171
     1
175
     1
179
     1
273
     0
  0
XRECORD
  5
14E
102
{ACAD_REACTORS
330
14D
102
}
330
14D
100
AcDbXrecord
102
MATERIAL
148
0.0
149
0.0
149
0.0
 93
        0
 94
      127
282
     0
 72
     1
 77
     1
171
     1
175
     1
179
     1
273
     0
  0
XRECORD
  5
152
102
{ACAD_REACTORS
330
151
102
}
330
151
100
AcDbXrecord
102
MATERIAL
148
0.0
149
0.0
149
0.0
 93
        0
 94
      127
282
     0
 72
     1
 77
     1
171
     1
175
     1
179
     1
273
     0
  0
ENDSEC
  0
EOF
