  0
SECTION
  2
HEADER
  9
$ACADVER
  1
AC1014
  9
$ACADMAINTVER
 70
     9
  9
$DWGCODEPAGE
  3
UNDEFINED
  9
$INSBASE
 10
0.0
 20
0.0
 30
0.0
  9
$EXTMIN
 10
1.000000000000000E+20
 20
1.000000000000000E+20
 30
1.000000000000000E+20
  9
$EXTMAX
 10
-1.000000000000000E+20
 20
-1.000000000000000E+20
 30
-1.000000000000000E+20
  9
$LIMMIN
 10
0.0
 20
0.0
  9
$LIMMAX
 10
12.0
 20
9.0
  9
$ORTHOMODE
 70
     0
  9
$REGENMODE
 70
     1
  9
$FILLMODE
 70
     1
  9
$QTEXTMODE
 70
     0
  9
$MIRRTEXT
 70
     1
  9
$DRAGMODE
 70
     2
  9
$LTSCALE
 40
1.0
  9
$OSMODE
 70
    37
  9
$ATTMODE
 70
     1
  9
$TEXTSIZE
 40
0.2
  9
$TRACEWID
 40
0.05
  9
$TEXTSTYLE
  7
STANDARD
  9
$CLAYER
  8
0
  9
$CELTYPE
  6
BYLAYER
  9
$CECOLOR
 62
   256
  9
$CELTSCALE
 40
1.0
  9
$DELOBJ
 70
     1
  9
$DISPSILH
 70
     0
  9
$DIMSCALE
 40
1.0
  9
$DIMASZ
 40
0.18
  9
$DIMEXO
 40
0.0625
  9
$DIMDLI
 40
0.38
  9
$DIMRND
 40
0.0
  9
$DIMDLE
 40
0.0
  9
$DIMEXE
 40
0.18
  9
$DIMTP
 40
0.0
  9
$DIMTM
 40
0.0
  9
$DIMTXT
 40
0.18
  9
$DIMCEN
 40
0.09
  9
$DIMTSZ
 40
0.0
  9
$DIMTOL
 70
     0
  9
$DIMLIM
 70
     0
  9
$DIMTIH
 70
     1
  9
$DIMTOH
 70
     1
  9
$DIMSE1
 70
     0
  9
$DIMSE2
 70
     0
  9
$DIMTAD
 70
     0
  9
$DIMZIN
 70
     0
  9
$DIMBLK
  1

  9
$DIMASO
 70
     1
  9
$DIMSHO
 70
     1
  9
$DIMPOST
  1

  9
$DIMAPOST
  1

  9
$DIMALT
 70
     0
  9
$DIMALTD
 70
     2
  9
$DIMALTF
 40
25.4
  9
$DIMLFAC
 40
1.0
  9
$DIMTOFL
 70
     0
  9
$DIMTVP
 40
0.0
  9
$DIMTIX
 70
     0
  9
$DIMSOXD
 70
     0
  9
$DIMSAH
 70
     0
  9
$DIMBLK1
  1

  9
$DIMBLK2
  1

  9
$DIMSTYLE
  2
STANDARD
  9
$DIMCLRD
 70
     0
  9
$DIMCLRE
 70
     0
  9
$DIMCLRT
 70
     0
  9
$DIMTFAC
 40
1.0
  9
$DIMGAP
 40
0.09
  9
$DIMJUST
 70
     0
  9
$DIMSD1
 70
     0
  9
$DIMSD2
 70
     0
  9
$DIMTOLJ
 70
     1
  9
$DIMTZIN
 70
     0
  9
$DIMALTZ
 70
     0
  9
$DIMALTTZ
 70
     0
  9
$DIMFIT
 70
     3
  9
$DIMUPT
 70
     0
  9
$DIMUNIT
 70
     2
  9
$DIMDEC
 70
     4
  9
$DIMTDEC
 70
     4
  9
$DIMALTU
 70
     2
  9
$DIMALTTD
 70
     2
  9
$DIMTXSTY
  7
STANDARD
  9
$DIMAUNIT
 70
     0
  9
$LUNITS
 70
     2
  9
$LUPREC
 70
     4
  9
$SKETCHINC
 40
0.1
  9
$FILLETRAD
 40
0.5
  9
$AUNITS
 70
     0
  9
$AUPREC
 70
     0
  9
$MENU
  1
.
  9
$ELEVATION
 40
0.0
  9
$PELEVATION
 40
0.0
  9
$THICKNESS
 40
0.0
  9
$LIMCHECK
 70
     0
  9
$CHAMFERA
 40
0.5
  9
$CHAMFERB
 40
0.5
  9
$CHAMFERC
 40
1.0
  9
$CHAMFERD
 40
0.0
  9
$SKPOLY
 70
     0
  9
$TDCREATE
 40
2458968.623993044
  9
$TDUPDATE
 40
2458968.623993044
  9
$TDINDWG
 40
0.0000000116
  9
$TDUSRTIMER
 40
0.0000000116
  9
$USRTIMER
 70
     1
  9
$ANGBASE
 50
0.0
  9
$ANGDIR
 70
     0
  9
$PDMODE
 70
     0
  9
$PDSIZE
 40
0.0
  9
$PLINEWID
 40
0.0
  9
$COORDS
 70
     1
  9
$SPLFRAME
 70
     0
  9
$SPLINETYPE
 70
     6
  9
$SPLINESEGS
 70
     8
  9
$ATTDIA
 70
     0
  9
$ATTREQ
 70
     1
  9
$HANDLING
 70
     1
  9
$HANDSEED
  5
10D
  9
$SURFTAB1
 70
     6
  9
$SURFTAB2
 70
     6
  9
$SURFTYPE
 70
     6
  9
$SURFU
 70
     6
  9
$SURFV
 70
     6
  9
$UCSNAME
  2

  9
$UCSORG
 10
0.0
 20
0.0
 30
0.0
  9
$UCSXDIR
 10
1.0
 20
0.0
 30
0.0
  9
$UCSYDIR
 10
0.0
 20
1.0
 30
0.0
  9
$PUCSNAME
  2

  9
$PUCSORG
 10
0.0
 20
0.0
 30
0.0
  9
$PUCSXDIR
 10
1.0
 20
0.0
 30
0.0
  9
$PUCSYDIR
 10
0.0
 20
1.0
 30
0.0
  9
$USERI1
 70
     0
  9
$USERI2
 70
     0
  9
$USERI3
 70
     0
  9
$USERI4
 70
     0
  9
$USERI5
 70
     0
  9
$USERR1
 40
0.0
  9
$USERR2
 40
0.0
  9
$USERR3
 40
0.0
  9
$USERR4
 40
0.0
  9
$USERR5
 40
0.0
  9
$WORLDVIEW
 70
     1
  9
$SHADEDGE
 70
     3
  9
$SHADEDIF
 70
    70
  9
$TILEMODE
 70
     1
  9
$MAXACTVP
 70
    64
  9
$PINSBASE
 10
0.0
 20
0.0
 30
0.0
  9
$PLIMCHECK
 70
     0
  9
$PEXTMIN
 10
1.000000000000000E+20
 20
1.000000000000000E+20
 30
1.000000000000000E+20
  9
$PEXTMAX
 10
-1.000000000000000E+20
 20
-1.000000000000000E+20
 30
-1.000000000000000E+20
  9
$PLIMMIN
 10
0.0
 20
0.0
  9
$PLIMMAX
 10
12.0
 20
9.0
  9
$UNITMODE
 70
     0
  9
$VISRETAIN
 70
     1
  9
$PLINEGEN
 70
     0
  9
$PSLTSCALE
 70
     1
  9
$TREEDEPTH
 70
  3020
  9
$PICKSTYLE
 70
     1
  9
$CMLSTYLE
  2
STANDARD
  9
$CMLJUST
 70
     0
  9
$CMLSCALE
 40
1.0
  9
$PROXYGRAPHICS
 70
     1
  9
$MEASUREMENT
 70
     0
  0
ENDSEC
  0
SECTION
  2
CLASSES
  0
CLASS
  1
ACDBDICTIONARYWDFLT
  2
AcDbDictionaryWithDefault
  3
ObjectDBX Classes
 90
        0
280
     0
281
     0
  0
CLASS
  1
VISUALSTYLE
  2
AcDbVisualStyle
  3
ObjectDBX Classes
 90
     4095
280
     0
281
     0
  0
CLASS
  1
MATERIAL
  2
AcDbMaterial
  3
ObjectDBX Classes
 90
     1153
280
     0
281
     0
  0
CLASS
  1
SUN
  2
AcDbSun
  3
SCENEOE
 90
     1024
280
     0
281
     0
  0
CLASS
  1
DICTIONARYVAR
  2
AcDbDictionaryVar
  3
ObjectDBX Classes
 90
        0
280
     0
281
     0
  0
CLASS
  1
XRECORD
  2
AcDbXrecord
  3
AutoCAD 2000
 90
        0
280
     0
281
     0
  0
CLASS
  1
LWPOLYLINE
  2
AcDbPolyline
  3
AutoCAD 2000
 90
        0
280
     0
281
     1
  0
CLASS
  1
HATCH
  2
AcDbHatch
  3
AutoCAD 2000
 90
        0
280
     0
281
     1
  0
CLASS
  1
ACDBPLACEHOLDER
  2
AcDbPlaceHolder
  3
ObjectDBX Classes
 90
        0
280
     0
281
     0
  0
CLASS
  1
LAYOUT
  2
AcDbLayout
  3
ObjectDBX Classes
 90
        0
280
     0
281
     0
  0
ENDSEC
  0
SECTION
  2
TABLES
  0
TABLE
  2
VPORT
  5
8
330
0
100
AcDbSymbolTable
 70
     1
  0
VPORT
  5
29
330
8
100
AcDbSymbolTableRecord
100
AcDbViewportTableRecord
  2
*ACTIVE
 70
     0
 10
0.0
 20
0.0
 11
1.0
 21
1.0
 12
0.0
 22
0.0
 13
0.0
 23
0.0
 14
0.5
 24
0.5
 15
0.5
 25
0.5
 16
0.0
 26
0.0
 36
1.0
 17
104.9999989878935
 27
148.4996183011652
 37
0.0
 40
297.0000052006764
 41
0.7070706878738762
 42
50.0
 43
0.0
 44
0.0
 50
0.0
 51
0.0
 71
     0
 72
   100
 73
     1
 74
     3
 75
     0
 76
     0
 77
     0
 78
     0
  0
ENDTAB
  0
TABLE
  2
LTYPE
  5
5
330
0
100
AcDbSymbolTable
 70
     1
  0
LTYPE
  5
14
330
5
100
AcDbSymbolTableRecord
100
AcDbLinetypeTableRecord
  2
BYBLOCK
 70
     0
  3

 72
    65
 73
     0
 40
0.0
  0
LTYPE
  5
15
330
5
100
AcDbSymbolTableRecord
100
AcDbLinetypeTableRecord
  2
BYLAYER
 70
     0
  3

 72
    65
 73
     0
 40
0.0
  0
LTYPE
  5
16
330
5
100
AcDbSymbolTableRecord
100
AcDbLinetypeTableRecord
  2
CONTINUOUS
 70
     0
  3
Solid line
 72
    65
 73
     0
 40
0.0
  0
ENDTAB
  0
TABLE
  2
LAYER
  5
2
330
0
100
AcDbSymbolTable
 70
    14
  0
LAYER
  5
10
330
2
100
AcDbSymbolTableRecord
100
AcDbLayerTableRecord
  2
0
 70
     0
 62
     7
  6
CONTINUOUS
  0
LAYER
  5
40
330
2
100
AcDbSymbolTableRecord
100
AcDbLayerTableRecord
  2
OUTLINE
 70
     5
 62
     7
  6
CONTINUOUS
  0
LAYER
  5
41
330
2
100
AcDbSymbolTableRecord
100
AcDbLayerTableRecord
  2
OUTLINE_U_306E_U_30B3_U_30
 70
     4
 62
     7
  6
CONTINUOUS
  0
LAYER
  5
42
330
2
100
AcDbSymbolTableRecord
100
AcDbLayerTableRecord
  2
L2-SILK
 70
     5
 62
     7
  6
CONTINUOUS
  0
LAYER
  5
43
330
2
100
AcDbSymbolTableRecord
100
AcDbLayerTableRecord
  2
L2-PATTERN
 70
     5
 62
     7
  6
CONTINUOUS
  0
LAYER
  5
44
330
2
100
AcDbSymbolTableRecord
100
AcDbLayerTableRecord
  2
L2-RESIST
 70
     5
 62
     7
  6
CONTINUOUS
  0
LAYER
  5
45
330
2
100
AcDbSymbolTableRecord
100
AcDbLayerTableRecord
  2
L1-PATTERN
 70
     5
 62
     7
  6
CONTINUOUS
  0
LAYER
  5
46
330
2
100
AcDbSymbolTableRecord
100
AcDbLayerTableRecord
  2
L1-RESIST
 70
     5
 62
     7
  6
CONTINUOUS
  0
LAYER
  5
47
330
2
100
AcDbSymbolTableRecord
100
AcDbLayerTableRecord
  2
L1-SILK
 70
     5
 62
     7
  6
CONTINUOUS
  0
LAYER
  5
48
330
2
100
AcDbSymbolTableRecord
100
AcDbLayerTableRecord
  2
DRILL
 70
     5
 62
     7
  6
CONTINUOUS
  0
LAYER
  5
49
330
2
100
AcDbSymbolTableRecord
100
AcDbLayerTableRecord
  2
HANE
 70
     0
 62
     7
  6
CONTINUOUS
  0
LAYER
  5
4A
330
2
100
AcDbSymbolTableRecord
100
AcDbLayerTableRecord
  2
H1
 70
     4
 62
     7
  6
CONTINUOUS
  0
LAYER
  5
4B
330
2
100
AcDbSymbolTableRecord
100
AcDbLayerTableRecord
  2
L2-RESIST_U_306E_U_30B3_U_
 70
     0
 62
     7
  6
CONTINUOUS
  0
LAYER
  5
E1
330
2
100
AcDbSymbolTableRecord
100
AcDbLayerTableRecord
  2
H2
 70
     0
 62
     7
  6
CONTINUOUS
  0
ENDTAB
  0
TABLE
  2
STYLE
  5
3
330
0
100
AcDbSymbolTable
 70
     1
  0
STYLE
  5
11
330
3
100
AcDbSymbolTableRecord
100
AcDbTextStyleTableRecord
  2
STANDARD
 70
     0
 40
0.0
 41
1.0
 50
0.0
 71
     0
 42
0.2
  3
txt
  4

  0
ENDTAB
  0
TABLE
  2
VIEW
  5
6
330
0
100
AcDbSymbolTable
 70
     0
  0
ENDTAB
  0
TABLE
  2
UCS
  5
7
330
0
100
AcDbSymbolTable
 70
     0
  0
ENDTAB
  0
TABLE
  2
APPID
  5
9
330
0
100
AcDbSymbolTable
 70
     1
  0
APPID
  5
12
330
9
100
AcDbSymbolTableRecord
100
AcDbRegAppTableRecord
  2
ACAD
 70
     0
  0
ENDTAB
  0
TABLE
  2
DIMSTYLE
  5
A
330
0
100
AcDbSymbolTable
 70
     1
  0
DIMSTYLE
105
27
330
A
100
AcDbSymbolTableRecord
100
AcDbDimStyleTableRecord
  2
STANDARD
 70
     0
  3

  4

  5

  6

  7

 40
1.0
 41
0.18
 42
0.0625
 43
0.38
 44
0.18
 45
0.0
 46
0.0
 47
0.0
 48
0.0
140
0.18
141
0.09
142
0.0
143
25.4
144
1.0
145
0.0
146
1.0
147
0.09
 71
     0
 72
     0
 73
     1
 74
     1
 75
     0
 76
     0
 77
     0
 78
     0
170
     0
171
     2
172
     0
173
     0
174
     0
175
     0
176
     0
177
     0
178
     0
270
     2
271
     4
272
     4
273
     2
274
     2
340
11
275
     0
280
     0
281
     0
282
     0
283
     1
284
     0
285
     0
286
     0
287
     3
288
     0
  0
ENDTAB
  0
TABLE
  2
BLOCK_RECORD
  5
1
330
0
100
AcDbSymbolTable
 70
     1
  0
BLOCK_RECORD
  5
1F
330
1
100
AcDbSymbolTableRecord
100
AcDbBlockTableRecord
  2
*MODEL_SPACE
  0
BLOCK_RECORD
  5
1B
330
1
100
AcDbSymbolTableRecord
100
AcDbBlockTableRecord
  2
*PAPER_SPACE
  0
ENDTAB
  0
ENDSEC
  0
SECTION
  2
BLOCKS
  0
BLOCK
  5
20
330
1F
100
AcDbEntity
  8
0
100
AcDbBlockBegin
  2
*MODEL_SPACE
 70
     0
 10
0.0
 20
0.0
 30
0.0
  3
*MODEL_SPACE
  1

  0
ENDBLK
  5
21
330
1F
100
AcDbEntity
  8
0
100
AcDbBlockEnd
  0
BLOCK
  5
1C
330
1B
100
AcDbEntity
 67
     1
  8
0
100
AcDbBlockBegin
  2
*PAPER_SPACE
 70
     0
 10
0.0
 20
0.0
 30
0.0
  3
*PAPER_SPACE
  1

  0
ENDBLK
  5
1D
330
1B
100
AcDbEntity
 67
     1
  8
0
100
AcDbBlockEnd
  0
ENDSEC
  0
SECTION
  2
ENTITIES
  0
POLYLINE
  5
4C
330
1F
100
AcDbEntity
  8
L2-RESIST_U_306E_U_30B3_U_
100
AcDb2dPolyline
 66
     1
 10
0.0
 20
0.0
 30
0.0
  0
VERTEX
  5
4D
330
4C
100
AcDbEntity
  8
L2-RESIST_U_306E_U_30B3_U_
100
AcDbVertex
100
AcDb2dVertex
 10
11.41952670400484
 20
58.55552669615742
 30
0.0
  0
VERTEX
  5
4E
330
4C
100
AcDbEntity
  8
L2-RESIST_U_306E_U_30B3_U_
100
AcDbVertex
100
AcDb2dVertex
 10
11.41002712905201
 20
58.54794144657316
 30
0.0
  0
VERTEX
  5
4F
330
4C
100
AcDbEntity
  8
L2-RESIST_U_306E_U_30B3_U_
100
AcDbVertex
100
AcDb2dVertex
 10
11.40226098829937
 20
58.53895920288647
 30
0.0
  0
VERTEX
  5
50
330
4C
100
AcDbEntity
  8
L2-RESIST_U_306E_U_30B3_U_
100
AcDbVertex
100
AcDb2dVertex
 10
11.39633122119811
 20
58.52887591960955
 30
0.0
  0
VERTEX
  5
51
330
4C
100
AcDbEntity
  8
L2-RESIST_U_306E_U_30B3_U_
100
AcDbVertex
100
AcDb2dVertex
 10
11.39234076719841
 20
58.517987551254
 30
0.0
  0
VERTEX
  5
52
330
4C
100
AcDbEntity
  8
L2-RESIST_U_306E_U_30B3_U_
100
AcDbVertex
100
AcDb2dVertex
 10
11.3903925657505
 20
58.50659005233331
 30
0.0
  0
VERTEX
  5
53
330
4C
100
AcDbEntity
  8
L2-RESIST_U_306E_U_30B3_U_
100
AcDbVertex
100
AcDb2dVertex
 10
11.39058955630555
 20
58.49497937735842
 30
0.0
  0
VERTEX
  5
54
330
4C
100
AcDbEntity
  8
L2-RESIST_U_306E_U_30B3_U_
100
AcDbVertex
100
AcDb2dVertex
 10
11.39303467831344
 20
58.48345148084156
 30
0.0
  0
VERTEX
  5
55
330
4C
100
AcDbEntity
  8
L2-RESIST_U_306E_U_30B3_U_
100
AcDbVertex
100
AcDb2dVertex
 10
11.39783087122501
 20
58.47230231729559
 30
0.0
  0
VERTEX
  5
56
330
4C
100
AcDbEntity
  8
L2-RESIST_U_306E_U_30B3_U_
100
AcDbVertex
100
AcDb2dVertex
 10
11.39854105522224
 20
58.47094853260823
 30
0.0
  0
VERTEX
  5
57
330
4C
100
AcDbEntity
  8
L2-RESIST_U_306E_U_30B3_U_
100
AcDbVertex
100
AcDb2dVertex
 10
11.39925123921914
 20
58.46959474792086
 30
0.0
  0
VERTEX
  5
58
330
4C
100
AcDbEntity
  8
L2-RESIST_U_306E_U_30B3_U_
100
AcDbVertex
100
AcDb2dVertex
 10
11.39996142321604
 20
58.4682409632335
 30
0.0
  0
VERTEX
  5
59
330
4C
100
AcDbEntity
  8
L2-RESIST_U_306E_U_30B3_U_
100
AcDbVertex
100
AcDb2dVertex
 10
11.40067160721326
 20
58.46688717854549
 30
0.0
  0
VERTEX
  5
5A
330
4C
100
AcDbEntity
  8
L2-RESIST_U_306E_U_30B3_U_
100
AcDbVertex
100
AcDb2dVertex
 10
11.40138179121048
 20
58.46553339385748
 30
0.0
  0
VERTEX
  5
5B
330
4C
100
AcDbEntity
  8
L2-RESIST_U_306E_U_30B3_U_
100
AcDbVertex
100
AcDb2dVertex
 10
11.40209197520738
 20
58.46417960917012
 30
0.0
  0
VERTEX
  5
5C
330
4C
100
AcDbEntity
  8
L2-RESIST_U_306E_U_30B3_U_
100
AcDbVertex
100
AcDb2dVertex
 10
11.40280215920428
 20
58.46282582448276
 30
0.0
  0
VERTEX
  5
5D
330
4C
100
AcDbEntity
  8
L2-RESIST_U_306E_U_30B3_U_
100
AcDbVertex
100
AcDb2dVertex
 10
11.4035123432015
 20
58.4614720397954
 30
0.0
  0
VERTEX
  5
5E
330
4C
100
AcDbEntity
  8
L2-RESIST_U_306E_U_30B3_U_
100
AcDbVertex
100
AcDb2dVertex
 10
11.74311900854269
 20
57.83705897195792
 30
0.0
  0
VERTEX
  5
5F
330
4C
100
AcDbEntity
  8
L2-RESIST_U_306E_U_30B3_U_
100
AcDbVertex
100
AcDb2dVertex
 10
12.10814659288926
 20
57.18431068348897
 30
0.0
  0
VERTEX
  5
60
330
4C
100
AcDbEntity
  8
L2-RESIST_U_306E_U_30B3_U_
100
AcDbVertex
100
AcDb2dVertex
 10
12.49711417260774
 20
56.52516609310035
 30
0.0
  0
VERTEX
  5
61
330
4C
100
AcDbEntity
  8
L2-RESIST_U_306E_U_30B3_U_
100
AcDbVertex
100
AcDb2dVertex
 10
12.908540824065
 20
55.88156411950258
 30
0.0
  0
VERTEX
  5
62
330
4C
100
AcDbEntity
  8
L2-RESIST_U_306E_U_30B3_U_
100
AcDbVertex
100
AcDb2dVertex
 10
13.34094562362757
 20
55.27544368140683
 30
0.0
  0
VERTEX
  5
63
330
4C
100
AcDbEntity
  8
L2-RESIST_U_306E_U_30B3_U_
100
AcDbVertex
100
AcDb2dVertex
 10
13.79284764766199
 20
54.72874369752491
 30
0.0
  0
VERTEX
  5
64
330
4C
100
AcDbEntity
  8
L2-RESIST_U_306E_U_30B3_U_
100
AcDbVertex
100
AcDb2dVertex
 10
14.2627659725348
 20
54.2634030865667
 30
0.0
  0
VERTEX
  5
65
330
4C
100
AcDbEntity
  8
L2-RESIST_U_306E_U_30B3_U_
100
AcDbVertex
100
AcDb2dVertex
 10
14.74921967461285
 20
53.90136076724399
 30
0.0
  0
VERTEX
  5
66
330
4C
100
AcDbEntity
  8
L2-RESIST_U_306E_U_30B3_U_
100
AcDbVertex
100
AcDb2dVertex
 10
14.80904121043803
 20
53.86872937484704
 30
0.0
  0
VERTEX
  5
67
330
4C
100
AcDbEntity
  8
L2-RESIST_U_306E_U_30B3_U_
100
AcDbVertex
100
AcDb2dVertex
 10
14.8681438453887
 20
53.83871405009209
 30
0.0
  0
VERTEX
  5
68
330
4C
100
AcDbEntity
  8
L2-RESIST_U_306E_U_30B3_U_
100
AcDbVertex
100
AcDb2dVertex
 10
14.92656274107174
 20
53.81141401172611
 30
0.0
  0
VERTEX
  5
69
330
4C
100
AcDbEntity
  8
L2-RESIST_U_306E_U_30B3_U_
100
AcDbVertex
100
AcDb2dVertex
 10
14.9843330590931
 20
53.78692847849674
 30
0.0
  0
VERTEX
  5
6A
330
4C
100
AcDbEntity
  8
L2-RESIST_U_306E_U_30B3_U_
100
AcDbVertex
100
AcDb2dVertex
 10
15.04148996105966
 20
53.76535666915161
 30
0.0
  0
VERTEX
  5
6B
330
4C
100
AcDbEntity
  8
L2-RESIST_U_306E_U_30B3_U_
100
AcDbVertex
100
AcDb2dVertex
 10
15.09806860857799
 20
53.7467978024377
 30
0.0
  0
VERTEX
  5
6C
330
4C
100
AcDbEntity
  8
L2-RESIST_U_306E_U_30B3_U_
100
AcDbVertex
100
AcDb2dVertex
 10
15.15410416325402
 20
53.73135109710266
 30
0.0
  0
VERTEX
  5
6D
330
4C
100
AcDbEntity
  8
L2-RESIST_U_306E_U_30B3_U_
100
AcDbVertex
100
AcDb2dVertex
 10
15.20963178669465
 20
53.7191157718941
 30
0.0
  0
VERTEX
  5
6E
330
4C
100
AcDbEntity
  8
L2-RESIST_U_306E_U_30B3_U_
100
AcDbVertex
100
AcDb2dVertex
 10
15.25400228353513
 20
53.71125734298249
 30
0.0
  0
VERTEX
  5
6F
330
4C
100
AcDbEntity
  8
L2-RESIST_U_306E_U_30B3_U_
100
AcDbVertex
100
AcDb2dVertex
 10
15.29809139861371
 20
53.70447441767071
 30
0.0
  0
VERTEX
  5
70
330
4C
100
AcDbEntity
  8
L2-RESIST_U_306E_U_30B3_U_
100
AcDbVertex
100
AcDb2dVertex
 10
15.3419119260514
 20
53.69875845425727
 30
0.0
  0
VERTEX
  5
71
330
4C
100
AcDbEntity
  8
L2-RESIST_U_306E_U_30B3_U_
100
AcDbVertex
100
AcDb2dVertex
 10
15.38547665997018
 20
53.69410091103879
 30
0.0
  0
VERTEX
  5
72
330
4C
100
AcDbEntity
  8
L2-RESIST_U_306E_U_30B3_U_
100
AcDbVertex
100
AcDb2dVertex
 10
15.42879839449106
 20
53.69049324631378
 30
0.0
  0
VERTEX
  5
73
330
4C
100
AcDbEntity
  8
L2-RESIST_U_306E_U_30B3_U_
100
AcDbVertex
100
AcDb2dVertex
 10
15.47188992373569
 20
53.68792691837949
 30
0.0
  0
VERTEX
  5
74
330
4C
100
AcDbEntity
  8
L2-RESIST_U_306E_U_30B3_U_
100
AcDbVertex
100
AcDb2dVertex
 10
15.51476404182572
 20
53.6863933855338
 30
0.0
  0
VERTEX
  5
75
330
4C
100
AcDbEntity
  8
L2-RESIST_U_306E_U_30B3_U_
100
AcDbVertex
100
AcDb2dVertex
 10
15.55743354288249
 20
53.6858841060746
 30
0.0
  0
VERTEX
  5
76
330
4C
100
AcDbEntity
  8
L2-RESIST_U_306E_U_30B3_U_
100
AcDbVertex
100
AcDb2dVertex
 10
16.06340643578996
 20
53.75705212888987
 30
0.0
  0
VERTEX
  5
77
330
4C
100
AcDbEntity
  8
L2-RESIST_U_306E_U_30B3_U_
100
AcDbVertex
100
AcDb2dVertex
 10
16.51806504615251
 20
53.93978543206251
 30
0.0
  0
VERTEX
  5
78
330
4C
100
AcDbEntity
  8
L2-RESIST_U_306E_U_30B3_U_
100
AcDbVertex
100
AcDb2dVertex
 10
16.91651954336546
 20
54.19681786745371
 30
0.0
  0
VERTEX
  5
79
330
4C
100
AcDbEntity
  8
L2-RESIST_U_306E_U_30B3_U_
100
AcDbVertex
100
AcDb2dVertex
 10
17.25388009682475
 20
54.49088328692657
 30
0.0
  0
VERTEX
  5
7A
330
4C
100
AcDbEntity
  8
L2-RESIST_U_306E_U_30B3_U_
100
AcDbVertex
100
AcDb2dVertex
 10
17.52525687592568
 20
54.78471554234227
 30
0.0
  0
VERTEX
  5
7B
330
4C
100
AcDbEntity
  8
L2-RESIST_U_306E_U_30B3_U_
100
AcDbVertex
100
AcDb2dVertex
 10
17.72576005006387
 20
55.04104848556393
 30
0.0
  0
VERTEX
  5
7C
330
4C
100
AcDbEntity
  8
L2-RESIST_U_306E_U_30B3_U_
100
AcDbVertex
100
AcDb2dVertex
 10
17.85049978863495
 20
55.22261596845338
 30
0.0
  0
VERTEX
  5
7D
330
4C
100
AcDbEntity
  8
L2-RESIST_U_306E_U_30B3_U_
100
AcDbVertex
100
AcDb2dVertex
 10
17.89458626103453
 20
55.29215184287307
 30
0.0
  0
VERTEX
  5
7E
330
4C
100
AcDbEntity
  8
L2-RESIST_U_306E_U_30B3_U_
100
AcDbVertex
100
AcDb2dVertex
 10
18.49598119957604
 20
56.38163845787379
 30
0.0
  0
VERTEX
  5
7F
330
4C
100
AcDbEntity
  8
L2-RESIST_U_306E_U_30B3_U_
100
AcDbVertex
100
AcDb2dVertex
 10
18.95342503176424
 20
57.49307722075105
 30
0.0
  0
VERTEX
  5
80
330
4C
100
AcDbEntity
  8
L2-RESIST_U_306E_U_30B3_U_
100
AcDbVertex
100
AcDb2dVertex
 10
19.28658498040457
 20
58.58316080188185
 30
0.0
  0
VERTEX
  5
81
330
4C
100
AcDbEntity
  8
L2-RESIST_U_306E_U_30B3_U_
100
AcDbVertex
100
AcDb2dVertex
 10
19.51512826830217
 20
59.6085818716413
 30
0.0
  0
VERTEX
  5
82
330
4C
100
AcDbEntity
  8
L2-RESIST_U_306E_U_30B3_U_
100
AcDbVertex
100
AcDb2dVertex
 10
19.6587221182628
 20
60.52603310040512
 30
0.0
  0
VERTEX
  5
83
330
4C
100
AcDbEntity
  8
L2-RESIST_U_306E_U_30B3_U_
100
AcDbVertex
100
AcDb2dVertex
 10
19.73703375309224
 20
61.29220715854907
 30
0.0
  0
VERTEX
  5
84
330
4C
100
AcDbEntity
  8
L2-RESIST_U_306E_U_30B3_U_
100
AcDbVertex
100
AcDb2dVertex
 10
19.76973039559593
 20
61.86379671644886
 30
0.0
  0
VERTEX
  5
85
330
4C
100
AcDbEntity
  8
L2-RESIST_U_306E_U_30B3_U_
100
AcDbVertex
100
AcDb2dVertex
 10
19.776479268579
 20
62.1974944444796
 30
0.0
  0
VERTEX
  5
86
330
4C
100
AcDbEntity
  8
L2-RESIST_U_306E_U_30B3_U_
100
AcDbVertex
100
AcDb2dVertex
 10
19.77644137252951
 20
62.21331060184549
 30
0.0
  0
VERTEX
  5
87
330
4C
100
AcDbEntity
  8
L2-RESIST_U_306E_U_30B3_U_
100
AcDbVertex
100
AcDb2dVertex
 10
19.77634146476299
 20
62.22713328921061
 30
0.0
  0
VERTEX
  5
88
330
4C
100
AcDbEntity
  8
L2-RESIST_U_306E_U_30B3_U_
100
AcDbVertex
100
AcDb2dVertex
 10
19.77620021585157
 20
62.23892695318963
 30
0.0
  0
VERTEX
  5
89
330
4C
100
AcDbEntity
  8
L2-RESIST_U_306E_U_30B3_U_
100
AcDbVertex
100
AcDb2dVertex
 10
19.77603829636803
 20
62.24865604039786
 30
0.0
  0
VERTEX
  5
8A
330
4C
100
AcDbEntity
  8
L2-RESIST_U_306E_U_30B3_U_
100
AcDbVertex
100
AcDb2dVertex
 10
19.77587637688448
 20
62.25628499745127
 30
0.0
  0
VERTEX
  5
8B
330
4C
100
AcDbEntity
  8
L2-RESIST_U_306E_U_30B3_U_
100
AcDbVertex
100
AcDb2dVertex
 10
19.77573512797306
 20
62.26177827096515
 30
0.0
  0
VERTEX
  5
8C
330
4C
100
AcDbEntity
  8
L2-RESIST_U_306E_U_30B3_U_
100
AcDbVertex
100
AcDb2dVertex
 10
19.77563522020655
 20
62.26510030755545
 30
0.0
  0
VERTEX
  5
8D
330
4C
100
AcDbEntity
  8
L2-RESIST_U_306E_U_30B3_U_
100
AcDbVertex
100
AcDb2dVertex
 10
19.77559732415705
 20
62.26621555383749
 30
0.0
  0
VERTEX
  5
8E
330
4C
100
AcDbEntity
  8
L2-RESIST_U_306E_U_30B3_U_
100
AcDbVertex
100
AcDb2dVertex
 10
19.77477063906523
 20
62.2763066860607
 30
0.0
  0
VERTEX
  5
8F
330
4C
100
AcDbEntity
  8
L2-RESIST_U_306E_U_30B3_U_
100
AcDbVertex
100
AcDb2dVertex
 10
19.77237712458635
 20
62.28592429475528
 30
0.0
  0
VERTEX
  5
90
330
4C
100
AcDbEntity
  8
L2-RESIST_U_306E_U_30B3_U_
100
AcDbVertex
100
AcDb2dVertex
 10
19.76854659191501
 20
62.2949218846745
 30
0.0
  0
VERTEX
  5
91
330
4C
100
AcDbEntity
  8
L2-RESIST_U_306E_U_30B3_U_
100
AcDbVertex
100
AcDb2dVertex
 10
19.76340885224579
 20
62.303152960571
 30
0.0
  0
VERTEX
  5
92
330
4C
100
AcDbEntity
  8
L2-RESIST_U_306E_U_30B3_U_
100
AcDbVertex
100
AcDb2dVertex
 10
19.75709371677327
 20
62.31047102719807
 30
0.0
  0
VERTEX
  5
93
330
4C
100
AcDbEntity
  8
L2-RESIST_U_306E_U_30B3_U_
100
AcDbVertex
100
AcDb2dVertex
 10
19.74973099669204
 20
62.31672958930896
 30
0.0
  0
VERTEX
  5
94
330
4C
100
AcDbEntity
  8
L2-RESIST_U_306E_U_30B3_U_
100
AcDbVertex
100
AcDb2dVertex
 10
19.74145050319668
 20
62.32178215165632
 30
0.0
  0
VERTEX
  5
95
330
4C
100
AcDbEntity
  8
L2-RESIST_U_306E_U_30B3_U_
100
AcDbVertex
100
AcDb2dVertex
 10
19.73238204748179
 20
62.32548221899342
 30
0.0
  0
VERTEX
  5
96
330
4C
100
AcDbEntity
  8
L2-RESIST_U_306E_U_30B3_U_
100
AcDbVertex
100
AcDb2dVertex
 10
19.71738535210281
 20
62.33087200184146
 30
0.0
  0
VERTEX
  5
97
330
4C
100
AcDbEntity
  8
L2-RESIST_U_306E_U_30B3_U_
100
AcDbVertex
100
AcDb2dVertex
 10
19.67403288029741
 20
62.34864428437425
 30
0.0
  0
VERTEX
  5
98
330
4C
100
AcDbEntity
  8
L2-RESIST_U_306E_U_30B3_U_
100
AcDbVertex
100
AcDb2dVertex
 10
19.60303700890563
 20
62.38195753005294
 30
0.0
  0
VERTEX
  5
99
330
4C
100
AcDbEntity
  8
L2-RESIST_U_306E_U_30B3_U_
100
AcDbVertex
100
AcDb2dVertex
 10
19.50511011476818
 20
62.43397020233677
 30
0.0
  0
VERTEX
  5
9A
330
4C
100
AcDbEntity
  8
L2-RESIST_U_306E_U_30B3_U_
100
AcDbVertex
100
AcDb2dVertex
 10
19.38096457472447
 20
62.5078407646882
 30
0.0
  0
VERTEX
  5
9B
330
4C
100
AcDbEntity
  8
L2-RESIST_U_306E_U_30B3_U_
100
AcDbVertex
100
AcDb2dVertex
 10
19.23131276561487
 20
62.60672768056841
 30
0.0
  0
VERTEX
  5
9C
330
4C
100
AcDbEntity
  8
L2-RESIST_U_306E_U_30B3_U_
100
AcDbVertex
100
AcDb2dVertex
 10
19.05686706427945
 20
62.7337894134379
 30
0.0
  0
VERTEX
  5
9D
330
4C
100
AcDbEntity
  8
L2-RESIST_U_306E_U_30B3_U_
100
AcDbVertex
100
AcDb2dVertex
 10
18.85833984755824
 20
62.8921844267585
 30
0.0
  0
VERTEX
  5
9E
330
4C
100
AcDbEntity
  8
L2-RESIST_U_306E_U_30B3_U_
100
AcDbVertex
100
AcDb2dVertex
 10
18.63713922928652
 20
63.08466204446123
 30
0.0
  0
VERTEX
  5
9F
330
4C
100
AcDbEntity
  8
L2-RESIST_U_306E_U_30B3_U_
100
AcDbVertex
100
AcDb2dVertex
 10
18.39451314932208
 20
63.31438555314044
 30
0.0
  0
VERTEX
  5
A0
330
4C
100
AcDbEntity
  8
L2-RESIST_U_306E_U_30B3_U_
100
AcDbVertex
100
AcDb2dVertex
 10
18.13152903602266
 20
63.58438029777184
 30
0.0
  0
VERTEX
  5
A1
330
4C
100
AcDbEntity
  8
L2-RESIST_U_306E_U_30B3_U_
100
AcDbVertex
100
AcDb2dVertex
 10
17.8492543177466
 20
63.89767162332925
 30
0.0
  0
VERTEX
  5
A2
330
4C
100
AcDbEntity
  8
L2-RESIST_U_306E_U_30B3_U_
100
AcDbVertex
100
AcDb2dVertex
 10
17.54875642285229
 20
64.25728487478838
 30
0.0
  0
VERTEX
  5
A3
330
4C
100
AcDbEntity
  8
L2-RESIST_U_306E_U_30B3_U_
100
AcDbVertex
100
AcDb2dVertex
 10
17.23110277969744
 20
64.66624539712367
 30
0.0
  0
VERTEX
  5
A4
330
4C
100
AcDbEntity
  8
L2-RESIST_U_306E_U_30B3_U_
100
AcDbVertex
100
AcDb2dVertex
 10
16.89736081664073
 20
65.12757853531022
 30
0.0
  0
VERTEX
  5
A5
330
4C
100
AcDbEntity
  8
L2-RESIST_U_306E_U_30B3_U_
100
AcDbVertex
100
AcDb2dVertex
 10
16.54859796204022
 20
65.64430963432308
 30
0.0
  0
VERTEX
  5
A6
330
4C
100
AcDbEntity
  8
L2-RESIST_U_306E_U_30B3_U_
100
AcDbVertex
100
AcDb2dVertex
 10
16.54169226831461
 20
65.65308828641157
 30
0.0
  0
VERTEX
  5
A7
330
4C
100
AcDbEntity
  8
L2-RESIST_U_306E_U_30B3_U_
100
AcDbVertex
100
AcDb2dVertex
 10
16.53365506745629
 20
65.66038384276189
 30
0.0
  0
VERTEX
  5
A8
330
4C
100
AcDbEntity
  8
L2-RESIST_U_306E_U_30B3_U_
100
AcDbVertex
100
AcDb2dVertex
 10
16.52469430542332
 20
65.66613614606486
 30
0.0
  0
VERTEX
  5
A9
330
4C
100
AcDbEntity
  8
L2-RESIST_U_306E_U_30B3_U_
100
AcDbVertex
100
AcDb2dVertex
 10
16.5150179281747
 20
65.67028503901197
 30
0.0
  0
VERTEX
  5
AA
330
4C
100
AcDbEntity
  8
L2-RESIST_U_306E_U_30B3_U_
100
AcDbVertex
100
AcDb2dVertex
 10
16.50483388166816
 20
65.67277036429215
 30
0.0
  0
VERTEX
  5
AB
330
4C
100
AcDbEntity
  8
L2-RESIST_U_306E_U_30B3_U_
100
AcDbVertex
100
AcDb2dVertex
 10
16.49435011186174
 20
65.67353196459752
 30
0.0
  0
VERTEX
  5
AC
330
4C
100
AcDbEntity
  8
L2-RESIST_U_306E_U_30B3_U_
100
AcDbVertex
100
AcDb2dVertex
 10
16.48377456471414
 20
65.67250968261828
 30
0.0
  0
VERTEX
  5
AD
330
4C
100
AcDbEntity
  8
L2-RESIST_U_306E_U_30B3_U_
100
AcDbVertex
100
AcDb2dVertex
 10
16.47331518618307
 20
65.66964336104594
 30
0.0
  0
VERTEX
  5
AE
330
4C
100
AcDbEntity
  8
L2-RESIST_U_306E_U_30B3_U_
100
AcDbVertex
100
AcDb2dVertex
 10
16.46333481371637
 20
65.66479097741852
 30
0.0
  0
VERTEX
  5
AF
330
4C
100
AcDbEntity
  8
L2-RESIST_U_306E_U_30B3_U_
100
AcDbVertex
100
AcDb2dVertex
 10
16.45452480905824
 20
65.65850854151539
 30
0.0
  0
VERTEX
  5
B0
330
4C
100
AcDbEntity
  8
L2-RESIST_U_306E_U_30B3_U_
100
AcDbVertex
100
AcDb2dVertex
 10
16.44699059212792
 20
65.65097955782844
 30
0.0
  0
VERTEX
  5
B1
330
4C
100
AcDbEntity
  8
L2-RESIST_U_306E_U_30B3_U_
100
AcDbVertex
100
AcDb2dVertex
 10
16.44083758284497
 20
65.64238753085019
 30
0.0
  0
VERTEX
  5
B2
330
4C
100
AcDbEntity
  8
L2-RESIST_U_306E_U_30B3_U_
100
AcDbVertex
100
AcDb2dVertex
 10
16.43617120112798
 20
65.63291596507317
 30
0.0
  0
VERTEX
  5
B3
330
4C
100
AcDbEntity
  8
L2-RESIST_U_306E_U_30B3_U_
100
AcDbVertex
100
AcDb2dVertex
 10
16.4330968668965
 20
65.62274836498926
 30
0.0
  0
VERTEX
  5
B4
330
4C
100
AcDbEntity
  8
L2-RESIST_U_306E_U_30B3_U_
100
AcDbVertex
100
AcDb2dVertex
 10
16.43172000006977
 20
65.61206823509102
 30
0.0
  0
VERTEX
  5
B5
330
4C
100
AcDbEntity
  8
L2-RESIST_U_306E_U_30B3_U_
100
AcDbVertex
100
AcDb2dVertex
 10
16.43214602056671
 20
65.60105907987158
 30
0.0
  0
VERTEX
  5
B6
330
4C
100
AcDbEntity
  8
L2-RESIST_U_306E_U_30B3_U_
100
AcDbVertex
100
AcDb2dVertex
 10
16.48673865589255
 20
65.19006843171958
 30
0.0
  0
VERTEX
  5
B7
330
4C
100
AcDbEntity
  8
L2-RESIST_U_306E_U_30B3_U_
100
AcDbVertex
100
AcDb2dVertex
 10
16.53303825757591
 20
64.79253101890123
 30
0.0
  0
VERTEX
  5
B8
330
4C
100
AcDbEntity
  8
L2-RESIST_U_306E_U_30B3_U_
100
AcDbVertex
100
AcDb2dVertex
 10
16.57135736467129
 20
64.40818804585078
 30
0.0
  0
VERTEX
  5
B9
330
4C
100
AcDbEntity
  8
L2-RESIST_U_306E_U_30B3_U_
100
AcDbVertex
100
AcDb2dVertex
 10
16.60200851623316
 20
64.03678071700122
 30
0.0
  0
VERTEX
  5
BA
330
4C
100
AcDbEntity
  8
L2-RESIST_U_306E_U_30B3_U_
100
AcDbVertex
100
AcDb2dVertex
 10
16.62530425131602
 20
63.67805023678747
 30
0.0
  0
VERTEX
  5
BB
330
4C
100
AcDbEntity
  8
L2-RESIST_U_306E_U_30B3_U_
100
AcDbVertex
100
AcDb2dVertex
 10
16.64155710897435
 20
63.33173780964187
 30
0.0
  0
VERTEX
  5
BC
330
4C
100
AcDbEntity
  8
L2-RESIST_U_306E_U_30B3_U_
100
AcDbVertex
100
AcDb2dVertex
 10
16.65107962826264
 20
62.99758463999867
 30
0.0
  0
VERTEX
  5
BD
330
4C
100
AcDbEntity
  8
L2-RESIST_U_306E_U_30B3_U_
100
AcDbVertex
100
AcDb2dVertex
 10
16.65418434823538
 20
62.67533193229151
 30
0.0
  0
VERTEX
  5
BE
330
4C
100
AcDbEntity
  8
L2-RESIST_U_306E_U_30B3_U_
100
AcDbVertex
100
AcDb2dVertex
 10
16.62371606233731
 20
61.71133567324787
 30
0.0
  0
VERTEX
  5
BF
330
4C
100
AcDbEntity
  8
L2-RESIST_U_306E_U_30B3_U_
100
AcDbVertex
100
AcDb2dVertex
 10
16.53979946400072
 20
60.86058686574206
 30
0.0
  0
VERTEX
  5
C0
330
4C
100
AcDbEntity
  8
L2-RESIST_U_306E_U_30B3_U_
100
AcDbVertex
100
AcDb2dVertex
 10
16.4126747547875
 20
60.11400616755766
 30
0.0
  0
VERTEX
  5
C1
330
4C
100
AcDbEntity
  8
L2-RESIST_U_306E_U_30B3_U_
100
AcDbVertex
100
AcDb2dVertex
 10
16.25258213625888
 20
59.4625142364789
 30
0.0
  0
VERTEX
  5
C2
330
4C
100
AcDbEntity
  8
L2-RESIST_U_306E_U_30B3_U_
100
AcDbVertex
100
AcDb2dVertex
 10
16.06976180997676
 20
58.89703173028936
 30
0.0
  0
VERTEX
  5
C3
330
4C
100
AcDbEntity
  8
L2-RESIST_U_306E_U_30B3_U_
100
AcDbVertex
100
AcDb2dVertex
 10
15.87445397750304
 20
58.40847930677259
 30
0.0
  0
VERTEX
  5
C4
330
4C
100
AcDbEntity
  8
L2-RESIST_U_306E_U_30B3_U_
100
AcDbVertex
100
AcDb2dVertex
 10
15.67689884039894
 20
57.98777762371284
 30
0.0
  0
VERTEX
  5
C5
330
4C
100
AcDbEntity
  8
L2-RESIST_U_306E_U_30B3_U_
100
AcDbVertex
100
AcDb2dVertex
 10
15.48733660022637
 20
57.62584733889238
 30
0.0
  0
VERTEX
  5
C6
330
4C
100
AcDbEntity
  8
L2-RESIST_U_306E_U_30B3_U_
100
AcDbVertex
100
AcDb2dVertex
 10
15.33774766415561
 20
57.37962016960957
 30
0.0
  0
VERTEX
  5
C7
330
4C
100
AcDbEntity
  8
L2-RESIST_U_306E_U_30B3_U_
100
AcDbVertex
100
AcDb2dVertex
 10
15.18266118265214
 20
57.17489702921564
 30
0.0
  0
VERTEX
  5
C8
330
4C
100
AcDbEntity
  8
L2-RESIST_U_306E_U_30B3_U_
100
AcDbVertex
100
AcDb2dVertex
 10
15.02270140700212
 20
57.0089833018947
 30
0.0
  0
VERTEX
  5
C9
330
4C
100
AcDbEntity
  8
L2-RESIST_U_306E_U_30B3_U_
100
AcDbVertex
100
AcDb2dVertex
 10
14.85849258849174
 20
56.87918437182894
 30
0.0
  0
VERTEX
  5
CA
330
4C
100
AcDbEntity
  8
L2-RESIST_U_306E_U_30B3_U_
100
AcDbVertex
100
AcDb2dVertex
 10
14.69065897840716
 20
56.78280562320247
 30
0.0
  0
VERTEX
  5
CB
330
4C
100
AcDbEntity
  8
L2-RESIST_U_306E_U_30B3_U_
100
AcDbVertex
100
AcDb2dVertex
 10
14.51982482803457
 20
56.71715244019811
 30
0.0
  0
VERTEX
  5
CC
330
4C
100
AcDbEntity
  8
L2-RESIST_U_306E_U_30B3_U_
100
AcDbVertex
100
AcDb2dVertex
 10
14.34661438866014
 20
56.67953020699998
 30
0.0
  0
VERTEX
  5
CD
330
4C
100
AcDbEntity
  8
L2-RESIST_U_306E_U_30B3_U_
100
AcDbVertex
100
AcDb2dVertex
 10
14.17165191157006
 20
56.6672443077909
 30
0.0
  0
VERTEX
  5
CE
330
4C
100
AcDbEntity
  8
L2-RESIST_U_306E_U_30B3_U_
100
AcDbVertex
100
AcDb2dVertex
 10
13.69728208115638
 20
56.7436820174294
 30
0.0
  0
VERTEX
  5
CF
330
4C
100
AcDbEntity
  8
L2-RESIST_U_306E_U_30B3_U_
100
AcDbVertex
100
AcDb2dVertex
 10
13.22740989488503
 20
56.95175406615769
 30
0.0
  0
VERTEX
  5
D0
330
4C
100
AcDbEntity
  8
L2-RESIST_U_306E_U_30B3_U_
100
AcDbVertex
100
AcDb2dVertex
 10
12.77993117037192
 20
57.24816883398653
 30
0.0
  0
VERTEX
  5
D1
330
4C
100
AcDbEntity
  8
L2-RESIST_U_306E_U_30B3_U_
100
AcDbVertex
100
AcDb2dVertex
 10
12.3727417252323
 20
57.58963470092607
 30
0.0
  0
VERTEX
  5
D2
330
4C
100
AcDbEntity
  8
L2-RESIST_U_306E_U_30B3_U_
100
AcDbVertex
100
AcDb2dVertex
 10
12.02373737708175
 20
57.9328600469877
 30
0.0
  0
VERTEX
  5
D3
330
4C
100
AcDbEntity
  8
L2-RESIST_U_306E_U_30B3_U_
100
AcDbVertex
100
AcDb2dVertex
 10
11.75081394353553
 20
58.23455325218092
 30
0.0
  0
VERTEX
  5
D4
330
4C
100
AcDbEntity
  8
L2-RESIST_U_306E_U_30B3_U_
100
AcDbVertex
100
AcDb2dVertex
 10
11.57186724220922
 20
58.45142269651777
 30
0.0
  0
VERTEX
  5
D5
330
4C
100
AcDbEntity
  8
L2-RESIST_U_306E_U_30B3_U_
100
AcDbVertex
100
AcDb2dVertex
 10
11.5047930907184
 20
58.54017676000841
 30
0.0
  0
VERTEX
  5
D6
330
4C
100
AcDbEntity
  8
L2-RESIST_U_306E_U_30B3_U_
100
AcDbVertex
100
AcDb2dVertex
 10
11.49644707442566
 20
58.54929497091553
 30
0.0
  0
VERTEX
  5
D7
330
4C
100
AcDbEntity
  8
L2-RESIST_U_306E_U_30B3_U_
100
AcDbVertex
100
AcDb2dVertex
 10
11.48684687039873
 20
58.55645531329036
 30
0.0
  0
VERTEX
  5
D8
330
4C
100
AcDbEntity
  8
L2-RESIST_U_306E_U_30B3_U_
100
AcDbVertex
100
AcDb2dVertex
 10
11.47628924649823
 20
58.56160822584257
 30
0.0
  0
VERTEX
  5
D9
330
4C
100
AcDbEntity
  8
L2-RESIST_U_306E_U_30B3_U_
100
AcDbVertex
100
AcDb2dVertex
 10
11.46507097058413
 20
58.56470414728438
 30
0.0
  0
VERTEX
  5
DA
330
4C
100
AcDbEntity
  8
L2-RESIST_U_306E_U_30B3_U_
100
AcDbVertex
100
AcDb2dVertex
 10
11.45348881051738
 20
58.56569351632609
 30
0.0
  0
VERTEX
  5
DB
330
4C
100
AcDbEntity
  8
L2-RESIST_U_306E_U_30B3_U_
100
AcDbVertex
100
AcDb2dVertex
 10
11.44183953415828
 20
58.56452677167863
 30
0.0
  0
VERTEX
  5
DC
330
4C
100
AcDbEntity
  8
L2-RESIST_U_306E_U_30B3_U_
100
AcDbVertex
100
AcDb2dVertex
 10
11.43041990936712
 20
58.56115435205167
 30
0.0
  0
VERTEX
  5
DD
330
4C
100
AcDbEntity
  8
L2-RESIST_U_306E_U_30B3_U_
100
AcDbVertex
100
AcDb2dVertex
 10
11.41952670400484
 20
58.55552669615742
 30
0.0
  0
VERTEX
  5
DE
330
4C
100
AcDbEntity
  8
L2-RESIST_U_306E_U_30B3_U_
100
AcDbVertex
100
AcDb2dVertex
 10
11.41952670400484
 20
58.55552669615742
 30
0.0
  0
SEQEND
  5
DF
330
4C
100
AcDbEntity
  8
L2-RESIST_U_306E_U_30B3_U_
  0
HATCH
  5
E0
330
1F
100
AcDbEntity
  8
L2-RESIST_U_306E_U_30B3_U_
 62
    21
100
AcDbHatch
 10
0.0
 20
0.0
 30
0.0
210
0.0
220
0.0
230
1.0
  2
SOLID
 70
     1
 71
     0
 91
        1
 92
        1
 93
      144
 72
     1
 10
11.41952670400484
 20
58.55552669615742
 11
11.41002712905201
 21
58.54794144657316
 72
     1
 10
11.41002712905201
 20
58.54794144657316
 11
11.40226098829937
 21
58.53895920288647
 72
     1
 10
11.40226098829937
 20
58.53895920288647
 11
11.39633122119811
 21
58.52887591960955
 72
     1
 10
11.39633122119811
 20
58.52887591960955
 11
11.39234076719841
 21
58.517987551254
 72
     1
 10
11.39234076719841
 20
58.517987551254
 11
11.3903925657505
 21
58.50659005233331
 72
     1
 10
11.3903925657505
 20
58.50659005233331
 11
11.39058955630555
 21
58.49497937735842
 72
     1
 10
11.39058955630555
 20
58.49497937735842
 11
11.39303467831344
 21
58.48345148084156
 72
     1
 10
11.39303467831344
 20
58.48345148084156
 11
11.39783087122501
 21
58.47230231729559
 72
     1
 10
11.39783087122501
 20
58.47230231729559
 11
11.39854105522224
 21
58.47094853260823
 72
     1
 10
11.39854105522224
 20
58.47094853260823
 11
11.39925123921914
 21
58.46959474792086
 72
     1
 10
11.39925123921914
 20
58.46959474792086
 11
11.39996142321604
 21
58.4682409632335
 72
     1
 10
11.39996142321604
 20
58.4682409632335
 11
11.40067160721326
 21
58.46688717854549
 72
     1
 10
11.40067160721326
 20
58.46688717854549
 11
11.40138179121048
 21
58.46553339385748
 72
     1
 10
11.40138179121048
 20
58.46553339385748
 11
11.40209197520738
 21
58.46417960917012
 72
     1
 10
11.40209197520738
 20
58.46417960917012
 11
11.40280215920428
 21
58.46282582448276
 72
     1
 10
11.40280215920428
 20
58.46282582448276
 11
11.4035123432015
 21
58.4614720397954
 72
     1
 10
11.4035123432015
 20
58.4614720397954
 11
11.74311900854269
 21
57.83705897195792
 72
     1
 10
11.74311900854269
 20
57.83705897195792
 11
12.10814659288926
 21
57.18431068348897
 72
     1
 10
12.10814659288926
 20
57.18431068348897
 11
12.49711417260774
 21
56.52516609310035
 72
     1
 10
12.49711417260774
 20
56.52516609310035
 11
12.908540824065
 21
55.88156411950258
 72
     1
 10
12.908540824065
 20
55.88156411950258
 11
13.34094562362757
 21
55.27544368140683
 72
     1
 10
13.34094562362757
 20
55.27544368140683
 11
13.79284764766199
 21
54.72874369752491
 72
     1
 10
13.79284764766199
 20
54.72874369752491
 11
14.2627659725348
 21
54.2634030865667
 72
     1
 10
14.2627659725348
 20
54.2634030865667
 11
14.74921967461285
 21
53.90136076724399
 72
     1
 10
14.74921967461285
 20
53.90136076724399
 11
14.80904121043803
 21
53.86872937484704
 72
     1
 10
14.80904121043803
 20
53.86872937484704
 11
14.8681438453887
 21
53.83871405009209
 72
     1
 10
14.8681438453887
 20
53.83871405009209
 11
14.92656274107174
 21
53.81141401172611
 72
     1
 10
14.92656274107174
 20
53.81141401172611
 11
14.9843330590931
 21
53.78692847849674
 72
     1
 10
14.9843330590931
 20
53.78692847849674
 11
15.04148996105966
 21
53.76535666915161
 72
     1
 10
15.04148996105966
 20
53.76535666915161
 11
15.09806860857799
 21
53.7467978024377
 72
     1
 10
15.09806860857799
 20
53.7467978024377
 11
15.15410416325402
 21
53.73135109710266
 72
     1
 10
15.15410416325402
 20
53.73135109710266
 11
15.20963178669465
 21
53.7191157718941
 72
     1
 10
15.20963178669465
 20
53.7191157718941
 11
15.25400228353513
 21
53.71125734298249
 72
     1
 10
15.25400228353513
 20
53.71125734298249
 11
15.29809139861371
 21
53.70447441767071
 72
     1
 10
15.29809139861371
 20
53.70447441767071
 11
15.3419119260514
 21
53.69875845425727
 72
     1
 10
15.3419119260514
 20
53.69875845425727
 11
15.38547665997018
 21
53.69410091103879
 72
     1
 10
15.38547665997018
 20
53.69410091103879
 11
15.42879839449106
 21
53.69049324631378
 72
     1
 10
15.42879839449106
 20
53.69049324631378
 11
15.47188992373569
 21
53.68792691837949
 72
     1
 10
15.47188992373569
 20
53.68792691837949
 11
15.51476404182572
 21
53.6863933855338
 72
     1
 10
15.51476404182572
 20
53.6863933855338
 11
15.55743354288249
 21
53.6858841060746
 72
     1
 10
15.55743354288249
 20
53.6858841060746
 11
16.06340643578996
 21
53.75705212888987
 72
     1
 10
16.06340643578996
 20
53.75705212888987
 11
16.51806504615251
 21
53.93978543206251
 72
     1
 10
16.51806504615251
 20
53.93978543206251
 11
16.91651954336546
 21
54.19681786745371
 72
     1
 10
16.91651954336546
 20
54.19681786745371
 11
17.25388009682475
 21
54.49088328692657
 72
     1
 10
17.25388009682475
 20
54.49088328692657
 11
17.52525687592568
 21
54.78471554234227
 72
     1
 10
17.52525687592568
 20
54.78471554234227
 11
17.72576005006387
 21
55.04104848556393
 72
     1
 10
17.72576005006387
 20
55.04104848556393
 11
17.85049978863495
 21
55.22261596845338
 72
     1
 10
17.85049978863495
 20
55.22261596845338
 11
17.89458626103453
 21
55.29215184287307
 72
     1
 10
17.89458626103453
 20
55.29215184287307
 11
18.49598119957604
 21
56.38163845787379
 72
     1
 10
18.49598119957604
 20
56.38163845787379
 11
18.95342503176424
 21
57.49307722075105
 72
     1
 10
18.95342503176424
 20
57.49307722075105
 11
19.28658498040457
 21
58.58316080188185
 72
     1
 10
19.28658498040457
 20
58.58316080188185
 11
19.51512826830217
 21
59.6085818716413
 72
     1
 10
19.51512826830217
 20
59.6085818716413
 11
19.6587221182628
 21
60.52603310040512
 72
     1
 10
19.6587221182628
 20
60.52603310040512
 11
19.73703375309224
 21
61.29220715854907
 72
     1
 10
19.73703375309224
 20
61.29220715854907
 11
19.76973039559593
 21
61.86379671644886
 72
     1
 10
19.76973039559593
 20
61.86379671644886
 11
19.776479268579
 21
62.1974944444796
 72
     1
 10
19.776479268579
 20
62.1974944444796
 11
19.77644137252951
 21
62.21331060184549
 72
     1
 10
19.77644137252951
 20
62.21331060184549
 11
19.77634146476299
 21
62.22713328921061
 72
     1
 10
19.77634146476299
 20
62.22713328921061
 11
19.77620021585157
 21
62.23892695318963
 72
     1
 10
19.77620021585157
 20
62.23892695318963
 11
19.77603829636803
 21
62.24865604039786
 72
     1
 10
19.77603829636803
 20
62.24865604039786
 11
19.77587637688448
 21
62.25628499745127
 72
     1
 10
19.77587637688448
 20
62.25628499745127
 11
19.77573512797306
 21
62.26177827096515
 72
     1
 10
19.77573512797306
 20
62.26177827096515
 11
19.77563522020655
 21
62.26510030755545
 72
     1
 10
19.77563522020655
 20
62.26510030755545
 11
19.77559732415705
 21
62.26621555383749
 72
     1
 10
19.77559732415705
 20
62.26621555383749
 11
19.77477063906523
 21
62.2763066860607
 72
     1
 10
19.77477063906523
 20
62.2763066860607
 11
19.77237712458635
 21
62.28592429475528
 72
     1
 10
19.77237712458635
 20
62.28592429475528
 11
19.76854659191501
 21
62.2949218846745
 72
     1
 10
19.76854659191501
 20
62.2949218846745
 11
19.76340885224579
 21
62.303152960571
 72
     1
 10
19.76340885224579
 20
62.303152960571
 11
19.75709371677327
 21
62.31047102719807
 72
     1
 10
19.75709371677327
 20
62.31047102719807
 11
19.74973099669204
 21
62.31672958930896
 72
     1
 10
19.74973099669204
 20
62.31672958930896
 11
19.74145050319668
 21
62.32178215165632
 72
     1
 10
19.74145050319668
 20
62.32178215165632
 11
19.73238204748179
 21
62.32548221899342
 72
     1
 10
19.73238204748179
 20
62.32548221899342
 11
19.71738535210281
 21
62.33087200184146
 72
     1
 10
19.71738535210281
 20
62.33087200184146
 11
19.67403288029741
 21
62.34864428437425
 72
     1
 10
19.67403288029741
 20
62.34864428437425
 11
19.60303700890563
 21
62.38195753005294
 72
     1
 10
19.60303700890563
 20
62.38195753005294
 11
19.50511011476818
 21
62.43397020233677
 72
     1
 10
19.50511011476818
 20
62.43397020233677
 11
19.38096457472447
 21
62.5078407646882
 72
     1
 10
19.38096457472447
 20
62.5078407646882
 11
19.23131276561487
 21
62.60672768056841
 72
     1
 10
19.23131276561487
 20
62.60672768056841
 11
19.05686706427945
 21
62.7337894134379
 72
     1
 10
19.05686706427945
 20
62.7337894134379
 11
18.85833984755824
 21
62.8921844267585
 72
     1
 10
18.85833984755824
 20
62.8921844267585
 11
18.63713922928652
 21
63.08466204446123
 72
     1
 10
18.63713922928652
 20
63.08466204446123
 11
18.39451314932208
 21
63.31438555314044
 72
     1
 10
18.39451314932208
 20
63.31438555314044
 11
18.13152903602266
 21
63.58438029777184
 72
     1
 10
18.13152903602266
 20
63.58438029777184
 11
17.8492543177466
 21
63.89767162332925
 72
     1
 10
17.8492543177466
 20
63.89767162332925
 11
17.54875642285229
 21
64.25728487478838
 72
     1
 10
17.54875642285229
 20
64.25728487478838
 11
17.23110277969744
 21
64.66624539712367
 72
     1
 10
17.23110277969744
 20
64.66624539712367
 11
16.89736081664073
 21
65.12757853531022
 72
     1
 10
16.89736081664073
 20
65.12757853531022
 11
16.54859796204022
 21
65.64430963432308
 72
     1
 10
16.54859796204022
 20
65.64430963432308
 11
16.54169226831461
 21
65.65308828641157
 72
     1
 10
16.54169226831461
 20
65.65308828641157
 11
16.53365506745629
 21
65.66038384276189
 72
     1
 10
16.53365506745629
 20
65.66038384276189
 11
16.52469430542332
 21
65.66613614606486
 72
     1
 10
16.52469430542332
 20
65.66613614606486
 11
16.5150179281747
 21
65.67028503901197
 72
     1
 10
16.5150179281747
 20
65.67028503901197
 11
16.50483388166816
 21
65.67277036429215
 72
     1
 10
16.50483388166816
 20
65.67277036429215
 11
16.49435011186174
 21
65.67353196459752
 72
     1
 10
16.49435011186174
 20
65.67353196459752
 11
16.48377456471414
 21
65.67250968261828
 72
     1
 10
16.48377456471414
 20
65.67250968261828
 11
16.47331518618307
 21
65.66964336104594
 72
     1
 10
16.47331518618307
 20
65.66964336104594
 11
16.46333481371637
 21
65.66479097741852
 72
     1
 10
16.46333481371637
 20
65.66479097741852
 11
16.45452480905824
 21
65.65850854151539
 72
     1
 10
16.45452480905824
 20
65.65850854151539
 11
16.44699059212792
 21
65.65097955782844
 72
     1
 10
16.44699059212792
 20
65.65097955782844
 11
16.44083758284497
 21
65.64238753085019
 72
     1
 10
16.44083758284497
 20
65.64238753085019
 11
16.43617120112798
 21
65.63291596507317
 72
     1
 10
16.43617120112798
 20
65.63291596507317
 11
16.4330968668965
 21
65.62274836498926
 72
     1
 10
16.4330968668965
 20
65.62274836498926
 11
16.43172000006977
 21
65.61206823509102
 72
     1
 10
16.43172000006977
 20
65.61206823509102
 11
16.43214602056671
 21
65.60105907987158
 72
     1
 10
16.43214602056671
 20
65.60105907987158
 11
16.48673865589255
 21
65.19006843171958
 72
     1
 10
16.48673865589255
 20
65.19006843171958
 11
16.53303825757591
 21
64.79253101890123
 72
     1
 10
16.53303825757591
 20
64.79253101890123
 11
16.57135736467129
 21
64.40818804585078
 72
     1
 10
16.57135736467129
 20
64.40818804585078
 11
16.60200851623316
 21
64.03678071700122
 72
     1
 10
16.60200851623316
 20
64.03678071700122
 11
16.62530425131602
 21
63.67805023678747
 72
     1
 10
16.62530425131602
 20
63.67805023678747
 11
16.64155710897435
 21
63.33173780964187
 72
     1
 10
16.64155710897435
 20
63.33173780964187
 11
16.65107962826264
 21
62.99758463999867
 72
     1
 10
16.65107962826264
 20
62.99758463999867
 11
16.65418434823538
 21
62.67533193229151
 72
     1
 10
16.65418434823538
 20
62.67533193229151
 11
16.62371606233731
 21
61.71133567324787
 72
     1
 10
16.62371606233731
 20
61.71133567324787
 11
16.53979946400072
 21
60.86058686574206
 72
     1
 10
16.53979946400072
 20
60.86058686574206
 11
16.4126747547875
 21
60.11400616755766
 72
     1
 10
16.4126747547875
 20
60.11400616755766
 11
16.25258213625888
 21
59.4625142364789
 72
     1
 10
16.25258213625888
 20
59.4625142364789
 11
16.06976180997676
 21
58.89703173028936
 72
     1
 10
16.06976180997676
 20
58.89703173028936
 11
15.87445397750304
 21
58.40847930677259
 72
     1
 10
15.87445397750304
 20
58.40847930677259
 11
15.67689884039894
 21
57.98777762371284
 72
     1
 10
15.67689884039894
 20
57.98777762371284
 11
15.48733660022637
 21
57.62584733889238
 72
     1
 10
15.48733660022637
 20
57.62584733889238
 11
15.33774766415561
 21
57.37962016960957
 72
     1
 10
15.33774766415561
 20
57.37962016960957
 11
15.18266118265214
 21
57.17489702921564
 72
     1
 10
15.18266118265214
 20
57.17489702921564
 11
15.02270140700212
 21
57.0089833018947
 72
     1
 10
15.02270140700212
 20
57.0089833018947
 11
14.85849258849174
 21
56.87918437182894
 72
     1
 10
14.85849258849174
 20
56.87918437182894
 11
14.69065897840716
 21
56.78280562320247
 72
     1
 10
14.69065897840716
 20
56.78280562320247
 11
14.51982482803457
 21
56.71715244019811
 72
     1
 10
14.51982482803457
 20
56.71715244019811
 11
14.34661438866014
 21
56.67953020699998
 72
     1
 10
14.34661438866014
 20
56.67953020699998
 11
14.17165191157006
 21
56.6672443077909
 72
     1
 10
14.17165191157006
 20
56.6672443077909
 11
13.69728208115638
 21
56.7436820174294
 72
     1
 10
13.69728208115638
 20
56.7436820174294
 11
13.22740989488503
 21
56.95175406615769
 72
     1
 10
13.22740989488503
 20
56.95175406615769
 11
12.77993117037192
 21
57.24816883398653
 72
     1
 10
12.77993117037192
 20
57.24816883398653
 11
12.3727417252323
 21
57.58963470092607
 72
     1
 10
12.3727417252323
 20
57.58963470092607
 11
12.02373737708175
 21
57.9328600469877
 72
     1
 10
12.02373737708175
 20
57.9328600469877
 11
11.75081394353553
 21
58.23455325218092
 72
     1
 10
11.75081394353553
 20
58.23455325218092
 11
11.57186724220922
 21
58.45142269651777
 72
     1
 10
11.57186724220922
 20
58.45142269651777
 11
11.5047930907184
 21
58.54017676000841
 72
     1
 10
11.5047930907184
 20
58.54017676000841
 11
11.49644707442566
 21
58.54929497091553
 72
     1
 10
11.49644707442566
 20
58.54929497091553
 11
11.48684687039873
 21
58.55645531329036
 72
     1
 10
11.48684687039873
 20
58.55645531329036
 11
11.47628924649823
 21
58.56160822584257
 72
     1
 10
11.47628924649823
 20
58.56160822584257
 11
11.46507097058413
 21
58.56470414728438
 72
     1
 10
11.46507097058413
 20
58.56470414728438
 11
11.45348881051738
 21
58.56569351632609
 72
     1
 10
11.45348881051738
 20
58.56569351632609
 11
11.44183953415828
 21
58.56452677167863
 72
     1
 10
11.44183953415828
 20
58.56452677167863
 11
11.43041990936712
 21
58.56115435205167
 72
     1
 10
11.43041990936712
 20
58.56115435205167
 11
11.41952670400484
 21
58.55552669615742
 97
        0
 75
     2
 76
     1
 98
        0
  0
ENDSEC
  0
SECTION
  2
OBJECTS
  0
DICTIONARY
  5
C
330
0
100
AcDbDictionary
  3
ACAD_GROUP
350
D
  3
ACAD_LAYOUT
350
1A
  3
ACAD_MATERIAL
350
3B
  3
ACAD_MLEADERSTYLE
350
104
  3
ACAD_MLINESTYLE
350
17
  3
ACAD_PLOTSETTINGS
350
19
  3
ACAD_VISUALSTYLE
350
2A
  3
ACDBHEADERROUNDTRIPXREC
350
E2
  3
ACDBVARIABLEDICTIONARY
350
102
  0
DICTIONARY
  5
D
102
{ACAD_REACTORS
330
C
102
}
330
C
100
AcDbDictionary
  0
DICTIONARY
  5
1A
102
{ACAD_REACTORS
330
C
102
}
330
C
100
AcDbDictionary
  0
DICTIONARY
  5
3B
102
{ACAD_REACTORS
330
C
102
}
330
C
100
AcDbDictionary
  3
BYBLOCK
350
3D
  3
BYLAYER
350
3C
  3
GLOBAL
350
3E
  0
DICTIONARY
  5
104
102
{ACAD_REACTORS
330
C
102
}
330
C
100
AcDbDictionary
  0
DICTIONARY
  5
17
102
{ACAD_REACTORS
330
C
102
}
330
C
100
AcDbDictionary
  3
STANDARD
350
18
  0
DICTIONARY
  5
19
102
{ACAD_REACTORS
330
C
102
}
330
C
100
AcDbDictionary
  0
DICTIONARY
  5
2A
102
{ACAD_REACTORS
330
C
102
}
330
C
100
AcDbDictionary
  3
2DWIREFRAME
350
2F
  3
3DWIREFRAME
350
30
  3
3D_HIDDEN
350
31
  3
BASIC
350
32
  3
BRIGHTEN
350
36
  3
COLORCHANGE
350
3A
  3
CONCEPTUAL
350
34
  3
DIM
350
35
  3
FACEPATTERN
350
39
  3
FLAT
350
2B
  3
FLATWITHEDGES
350
2C
  3
GOURAUD
350
2D
  3
GOURAUDWITHEDGES
350
2E
  3
LINEPATTERN
350
38
  3
REALISTIC
350
33
  3
THICKEN
350
37
  0
DICTIONARY
  5
E2
102
{ACAD_REACTORS
330
C
102
}
330
C
100
AcDbDictionary
  3
CEPSNTYPE
350
EB
  3
DIMSTYLEDATA
350
101
  3
FINGERPRINTGUID
350
EC
  3
HYPERLINKBASE
350
E5
  3
INSUNITS
350
EA
  3
LAYOUTDICT
350
E7
  3
LWETCUNION
350
E9
  3
PLOTSETDICT
350
E8
  3
PSVPSCALE
350
EE
  3
PUCSBASE
350
F1
  3
PUCSORGBACK
350
F7
  3
PUCSORGBOTTOM
350
F3
  3
PUCSORGFRONT
350
F6
  3
PUCSORGLEFT
350
F4
  3
PUCSORGRIGHT
350
F5
  3
PUCSORGTOP
350
F2
  3
PUCSORTHOREF
350
EF
  3
PUCSORTHOVIEW
350
F0
  3
STYLESHEET
350
E6
  3
TSTACKALIGN
350
E3
  3
TSTACKSIZE
350
E4
  3
UCSBASE
350
FA
  3
UCSORGBACK
350
100
  3
UCSORGBOTTOM
350
FC
  3
UCSORGFRONT
350
FF
  3
UCSORGLEFT
350
FD
  3
UCSORGRIGHT
350
FE
  3
UCSORGTOP
350
FB
  3
UCSORTHOREF
350
F8
  3
UCSORTHOVIEW
350
F9
  3
VERSIONGUID
350
ED
  0
DICTIONARY
  5
102
102
{ACAD_REACTORS
330
C
102
}
330
C
100
AcDbDictionary
  3
DIMASSOC
350
105
  3
HIDETEXT
350
106
  0
MATERIAL
  5
3D
102
{ACAD_REACTORS
330
3B
102
}
102
{ACAD_XDICTIONARY
360
109
102
}
330
3B
100
AcDbMaterial
  1
ByBlock
  0
MATERIAL
  5
3C
102
{ACAD_REACTORS
330
3B
102
}
102
{ACAD_XDICTIONARY
360
107
102
}
330
3B
100
AcDbMaterial
  1
ByLayer
  0
MATERIAL
  5
3E
102
{ACAD_REACTORS
330
3B
102
}
102
{ACAD_XDICTIONARY
360
10B
102
}
330
3B
100
AcDbMaterial
  1
Global
  0
MLINESTYLE
  5
18
102
{ACAD_REACTORS
330
17
102
}
330
17
100
AcDbMlineStyle
  2
Standard
 70
     0
  3

 62
   256
 51
90.0
 52
90.0
 71
     2
 49
0.5
 62
   256
  6
BYLAYER
 49
-0.5
 62
   256
  6
BYLAYER
  0
ACAD_PROXY_OBJECT
  5
2F
102
{ACAD_REACTORS
330
2A
102
}
330
2A
100
AcDbProxyObject
 90
      499
 91
      501
 93
      436
310
42CC9915DA5C99599C985B595049028333333333333E3BF0000000000000FB0107901411070040501600405405064090741402480A0340
1001
ACAD
1000
AcDbSavedByObjectVersion
1070
     0
  0
ACAD_PROXY_OBJECT
  5
30
102
{ACAD_REACTORS
330
2A
102
}
330
2A
100
AcDbProxyObject
 90
      499
 91
      501
 93
      436
310
42CCD915DA5C99599C985B595059028333333333333E3BF0000000000000FB0107901411070040501600405405064090741402480A0340
1001
ACAD
1000
AcDbSavedByObjectVersion
1070
     0
  0
ACAD_PROXY_OBJECT
  5
31
102
{ACAD_REACTORS
330
2A
102
}
330
2A
100
AcDbProxyObject
 90
      499
 91
      501
 93
      500
310
424CD108121A5919195B90640502408333333333333E3BF0000000000000FB01079024090700405020000000000001110200405405064090740C02480A0340
1001
ACAD
1000
AcDbSavedByObjectVersion
1070
     0
  0
ACAD_PROXY_OBJECT
  5
32
102
{ACAD_REACTORS
330
2A
102
}
330
2A
100
AcDbProxyObject
 90
      499
 91
      501
 93
      388
310
4150985CDA58D07406404333333333333E3BF0000000000000FB0107A41107004050150841D405064090741402480A0350
1001
ACAD
1000
AcDbSavedByObjectVersion
1070
     0
  0
ACAD_PROXY_OBJECT
  5
36
102
{ACAD_REACTORS
330
2A
102
}
330
2A
100
AcDbProxyObject
 90
      499
 91
      501
 93
      428
310
42109C9A59DA1D195B90C409028333333333333E3BF0000000000000FB010790141107004050150841D405064090741402480A029950
1001
ACAD
1000
AcDbSavedByObjectVersion
1070
     0
  0
ACAD_PROXY_OBJECT
  5
3A
102
{ACAD_REACTORS
330
2A
102
}
330
2A
100
AcDbProxyObject
 90
      499
 91
      501
 93
      452
310
42D0DBDB1BDC90DA185B99D95104090240C333333333333E3BF0000000000000FB0108901411070040501508421405064090741402480A0350
1001
ACAD
1000
AcDbSavedByObjectVersion
1070
     0
  0
ACAD_PROXY_OBJECT
  5
34
102
{ACAD_REACTORS
330
2A
102
}
330
2A
100
AcDbProxyObject
 90
      499
 91
      501
 93
      500
310
4290DBDB98D95C1D1D585B10940D028333333333333E3BF0000000000000FB0107902409070040501000000000000111010841D405064090740C02480A0340
1001
ACAD
1000
AcDbSavedByObjectVersion
1070
     0
  0
ACAD_PROXY_OBJECT
  5
35
102
{ACAD_REACTORS
330
2A
102
}
330
2A
100
AcDbProxyObject
 90
      499
 91
      501
 93
      412
310
40D11A5B50B409028333333333333E3BF0000000000000FB010790141107004050150841D405064090741402480A02677FFFFFD0
1001
ACAD
1000
AcDbSavedByObjectVersion
1070
     0
  0
ACAD_PROXY_OBJECT
  5
39
102
{ACAD_REACTORS
330
2A
102
}
330
2A
100
AcDbProxyObject
 90
      499
 91
      501
 93
      444
310
42D19858D95C185D1D195C9B90F409028333333333333E3BF0000000000000FB010790141107004050150841D405064090741402480A0350
1001
ACAD
1000
AcDbSavedByObjectVersion
1070
     0
  0
ACAD_PROXY_OBJECT
  5
2B
102
{ACAD_REACTORS
330
2A
102
}
330
2A
100
AcDbProxyObject
 90
      499
 91
      501
 93
      388
310
41119B185D240901404333333333333E3BF0000000000000F9010740A41107004050150841D405064090741402480A1B50
1001
ACAD
1000
AcDbSavedByObjectVersion
1070
     0
  0
ACAD_PROXY_OBJECT
  5
2C
102
{ACAD_REACTORS
330
2A
102
}
330
2A
100
AcDbProxyObject
 90
      499
 91
      501
 93
      476
310
43519B185D15DA5D1A115919D95CD0140901404333333333333E3BF0000000000000F9010740901411070040501600405405064090741402480A1B50
1001
ACAD
1000
AcDbSavedByObjectVersion
1070
     0
  0
ACAD_PROXY_OBJECT
  5
2D
102
{ACAD_REACTORS
330
2A
102
}
330
2A
100
AcDbProxyObject
 90
      499
 91
      501
 93
      412
310
41D1DBDD5C985D5910240902404333333333333E3BF0000000000000F9010740A411070040501641D405064090741402480A1B50
1001
ACAD
1000
AcDbSavedByObjectVersion
1070
     0
  0
ACAD_PROXY_OBJECT
  5
2E
102
{ACAD_REACTORS
330
2A
102
}
330
2A
100
AcDbProxyObject
 90
      499
 91
      501
 93
      500
310
4411DBDD5C985D5915DA5D1A115919D95CD0340902404333333333333E3BF0000000000000F9010740901411070040501600405405064090741402480A1B50
1001
ACAD
1000
AcDbSavedByObjectVersion
1070
     0
  0
ACAD_PROXY_OBJECT
  5
38
102
{ACAD_REACTORS
330
2A
102
}
330
2A
100
AcDbProxyObject
 90
      499
 91
      501
 93
      444
310
42D31A5B995C185D1D195C9B90E409028333333333333E3BF0000000000000FB010790141107004050750841D405064090741402483A0350
1001
ACAD
1000
AcDbSavedByObjectVersion
1070
     0
  0
ACAD_PROXY_OBJECT
  5
33
102
{ACAD_REACTORS
330
2A
102
}
330
2A
100
AcDbProxyObject
 90
      499
 91
      501
 93
      420
310
425499585B1A5CDD1A58D08409028333333333333E3BF0000000000000FB01079019070040501508421405064090741402480A1B40
1001
ACAD
1000
AcDbSavedByObjectVersion
1070
     0
  0
ACAD_PROXY_OBJECT
  5
37
102
{ACAD_REACTORS
330
2A
102
}
330
2A
100
AcDbProxyObject
 90
      499
 91
      501
 93
      412
310
41D51A1A58DAD95B90D409028333333333333E3BF0000000000000FB010790141107004050150C41D405064090741402480A0350
1001
ACAD
1000
AcDbSavedByObjectVersion
1070
     0
  0
XRECORD
  5
EB
102
{ACAD_REACTORS
330
E2
102
}
330
E2
100
AcDbXrecord
 90
        0
  0
XRECORD
  5
101
102
{ACAD_REACTORS
330
E2
102
}
330
E2
100
AcDbXrecord
1000
DSTYLE
1002
{
1070
   340
340
11
1002
}
  0
XRECORD
  5
EC
102
{ACAD_REACTORS
330
E2
102
}
330
E2
100
AcDbXrecord
  1
{37B982A8-05FA-FFE7-9FFD-F0FC4FCF15F0}
  0
XRECORD
  5
E5
102
{ACAD_REACTORS
330
E2
102
}
330
E2
100
AcDbXrecord
  1

  0
XRECORD
  5
EA
102
{ACAD_REACTORS
330
E2
102
}
330
E2
100
AcDbXrecord
 90
        4
  0
XRECORD
  5
E7
102
{ACAD_REACTORS
330
E2
102
}
330
E2
100
AcDbXrecord
340
1A
  0
XRECORD
  5
E9
102
{ACAD_REACTORS
330
E2
102
}
330
E2
100
AcDbXrecord
 90
    10269
  0
XRECORD
  5
E8
102
{ACAD_REACTORS
330
E2
102
}
330
E2
100
AcDbXrecord
340
19
  0
XRECORD
  5
EE
102
{ACAD_REACTORS
330
E2
102
}
330
E2
100
AcDbXrecord
 40
0.0
  0
XRECORD
  5
F1
102
{ACAD_REACTORS
330
E2
102
}
330
E2
100
AcDbXrecord
340
0
  0
XRECORD
  5
F7
102
{ACAD_REACTORS
330
E2
102
}
330
E2
100
AcDbXrecord
 10
0.0
 20
0.0
 30
0.0
  0
XRECORD
  5
F3
102
{ACAD_REACTORS
330
E2
102
}
330
E2
100
AcDbXrecord
 10
0.0
 20
0.0
 30
0.0
  0
XRECORD
  5
F6
102
{ACAD_REACTORS
330
E2
102
}
330
E2
100
AcDbXrecord
 10
0.0
 20
0.0
 30
0.0
  0
XRECORD
  5
F4
102
{ACAD_REACTORS
330
E2
102
}
330
E2
100
AcDbXrecord
 10
0.0
 20
0.0
 30
0.0
  0
XRECORD
  5
F5
102
{ACAD_REACTORS
330
E2
102
}
330
E2
100
AcDbXrecord
 10
0.0
 20
0.0
 30
0.0
  0
XRECORD
  5
F2
102
{ACAD_REACTORS
330
E2
102
}
330
E2
100
AcDbXrecord
 10
0.0
 20
0.0
 30
0.0
  0
XRECORD
  5
EF
102
{ACAD_REACTORS
330
E2
102
}
330
E2
100
AcDbXrecord
340
0
  0
XRECORD
  5
F0
102
{ACAD_REACTORS
330
E2
102
}
330
E2
100
AcDbXrecord
 70
     0
  0
XRECORD
  5
E6
102
{ACAD_REACTORS
330
E2
102
}
330
E2
100
AcDbXrecord
  1

  0
XRECORD
  5
E3
102
{ACAD_REACTORS
330
E2
102
}
330
E2
100
AcDbXrecord
 90
        1
  0
XRECORD
  5
E4
102
{ACAD_REACTORS
330
E2
102
}
330
E2
100
AcDbXrecord
 90
       70
  0
XRECORD
  5
FA
102
{ACAD_REACTORS
330
E2
102
}
330
E2
100
AcDbXrecord
340
0
  0
XRECORD
  5
100
102
{ACAD_REACTORS
330
E2
102
}
330
E2
100
AcDbXrecord
 10
0.0
 20
0.0
 30
0.0
  0
XRECORD
  5
FC
102
{ACAD_REACTORS
330
E2
102
}
330
E2
100
AcDbXrecord
 10
0.0
 20
0.0
 30
0.0
  0
XRECORD
  5
FF
102
{ACAD_REACTORS
330
E2
102
}
330
E2
100
AcDbXrecord
 10
0.0
 20
0.0
 30
0.0
  0
XRECORD
  5
FD
102
{ACAD_REACTORS
330
E2
102
}
330
E2
100
AcDbXrecord
 10
0.0
 20
0.0
 30
0.0
  0
XRECORD
  5
FE
102
{ACAD_REACTORS
330
E2
102
}
330
E2
100
AcDbXrecord
 10
0.0
 20
0.0
 30
0.0
  0
XRECORD
  5
FB
102
{ACAD_REACTORS
330
E2
102
}
330
E2
100
AcDbXrecord
 10
0.0
 20
0.0
 30
0.0
  0
XRECORD
  5
F8
102
{ACAD_REACTORS
330
E2
102
}
330
E2
100
AcDbXrecord
340
0
  0
XRECORD
  5
F9
102
{ACAD_REACTORS
330
E2
102
}
330
E2
100
AcDbXrecord
 70
     0
  0
XRECORD
  5
ED
102
{ACAD_REACTORS
330
E2
102
}
330
E2
100
AcDbXrecord
  1
{FAEB1C32-E019-11D5-929B-00C0DF256EC4}
  0
DICTIONARYVAR
  5
105
102
{ACAD_REACTORS
330
102
102
}
330
102
100
DictionaryVariables
280
     0
  1
2
  0
DICTIONARYVAR
  5
106
102
{ACAD_REACTORS
330
102
102
}
330
102
100
DictionaryVariables
280
     0
  1
1
  0
DICTIONARY
  5
109
330
3D
100
AcDbDictionary
280
     1
  3
ACAD_XREC_ROUNDTRIP
360
10A
  0
DICTIONARY
  5
107
330
3C
100
AcDbDictionary
280
     1
  3
ACAD_XREC_ROUNDTRIP
360
108
  0
DICTIONARY
  5
10B
330
3E
100
AcDbDictionary
280
     1
  3
ACAD_XREC_ROUNDTRIP
360
10C
  0
XRECORD
  5
10A
102
{ACAD_REACTORS
330
109
102
}
330
109
100
AcDbXrecord
102
MATERIAL
148
0.0
149
0.0
149
0.0
 93
        0
 94
      127
282
     0
 72
     1
 77
     1
171
     1
175
     1
179
     1
273
     0
  0
XRECORD
  5
108
102
{ACAD_REACTORS
330
107
102
}
330
107
100
AcDbXrecord
102
MATERIAL
148
0.0
149
0.0
149
0.0
 93
        0
 94
      127
282
     0
 72
     1
 77
     1
171
     1
175
     1
179
     1
273
     0
  0
XRECORD
  5
10C
102
{ACAD_REACTORS
330
10B
102
}
330
10B
100
AcDbXrecord
102
MATERIAL
148
0.0
149
0.0
149
0.0
 93
        0
 94
      127
282
     0
 72
     1
 77
     1
171
     1
175
     1
179
     1
273
     0
  0
ENDSEC
  0
EOF
