  0
SECTION
  2
HEADER
  9
$ACADVER
  1
AC1014
  9
$ACADMAINTVER
 70
     9
  9
$DWGCODEPAGE
  3
UNDEFINED
  9
$INSBASE
 10
0.0
 20
0.0
 30
0.0
  9
$EXTMIN
 10
1.000000000000000E+20
 20
1.000000000000000E+20
 30
1.000000000000000E+20
  9
$EXTMAX
 10
-1.000000000000000E+20
 20
-1.000000000000000E+20
 30
-1.000000000000000E+20
  9
$LIMMIN
 10
0.0
 20
0.0
  9
$LIMMAX
 10
12.0
 20
9.0
  9
$ORTHOMODE
 70
     0
  9
$REGENMODE
 70
     1
  9
$FILLMODE
 70
     1
  9
$QTEXTMODE
 70
     0
  9
$MIRRTEXT
 70
     1
  9
$DRAGMODE
 70
     2
  9
$LTSCALE
 40
1.0
  9
$OSMODE
 70
    37
  9
$ATTMODE
 70
     1
  9
$TEXTSIZE
 40
0.2
  9
$TRACEWID
 40
0.05
  9
$TEXTSTYLE
  7
STANDARD
  9
$CLAYER
  8
0
  9
$CELTYPE
  6
BYLAYER
  9
$CECOLOR
 62
   256
  9
$CELTSCALE
 40
1.0
  9
$DELOBJ
 70
     1
  9
$DISPSILH
 70
     0
  9
$DIMSCALE
 40
1.0
  9
$DIMASZ
 40
0.18
  9
$DIMEXO
 40
0.0625
  9
$DIMDLI
 40
0.38
  9
$DIMRND
 40
0.0
  9
$DIMDLE
 40
0.0
  9
$DIMEXE
 40
0.18
  9
$DIMTP
 40
0.0
  9
$DIMTM
 40
0.0
  9
$DIMTXT
 40
0.18
  9
$DIMCEN
 40
0.09
  9
$DIMTSZ
 40
0.0
  9
$DIMTOL
 70
     0
  9
$DIMLIM
 70
     0
  9
$DIMTIH
 70
     1
  9
$DIMTOH
 70
     1
  9
$DIMSE1
 70
     0
  9
$DIMSE2
 70
     0
  9
$DIMTAD
 70
     0
  9
$DIMZIN
 70
     0
  9
$DIMBLK
  1

  9
$DIMASO
 70
     1
  9
$DIMSHO
 70
     1
  9
$DIMPOST
  1

  9
$DIMAPOST
  1

  9
$DIMALT
 70
     0
  9
$DIMALTD
 70
     2
  9
$DIMALTF
 40
25.4
  9
$DIMLFAC
 40
1.0
  9
$DIMTOFL
 70
     0
  9
$DIMTVP
 40
0.0
  9
$DIMTIX
 70
     0
  9
$DIMSOXD
 70
     0
  9
$DIMSAH
 70
     0
  9
$DIMBLK1
  1

  9
$DIMBLK2
  1

  9
$DIMSTYLE
  2
STANDARD
  9
$DIMCLRD
 70
     0
  9
$DIMCLRE
 70
     0
  9
$DIMCLRT
 70
     0
  9
$DIMTFAC
 40
1.0
  9
$DIMGAP
 40
0.09
  9
$DIMJUST
 70
     0
  9
$DIMSD1
 70
     0
  9
$DIMSD2
 70
     0
  9
$DIMTOLJ
 70
     1
  9
$DIMTZIN
 70
     0
  9
$DIMALTZ
 70
     0
  9
$DIMALTTZ
 70
     0
  9
$DIMFIT
 70
     3
  9
$DIMUPT
 70
     0
  9
$DIMUNIT
 70
     2
  9
$DIMDEC
 70
     4
  9
$DIMTDEC
 70
     4
  9
$DIMALTU
 70
     2
  9
$DIMALTTD
 70
     2
  9
$DIMTXSTY
  7
STANDARD
  9
$DIMAUNIT
 70
     0
  9
$LUNITS
 70
     2
  9
$LUPREC
 70
     4
  9
$SKETCHINC
 40
0.1
  9
$FILLETRAD
 40
0.5
  9
$AUNITS
 70
     0
  9
$AUPREC
 70
     0
  9
$MENU
  1
.
  9
$ELEVATION
 40
0.0
  9
$PELEVATION
 40
0.0
  9
$THICKNESS
 40
0.0
  9
$LIMCHECK
 70
     0
  9
$CHAMFERA
 40
0.5
  9
$CHAMFERB
 40
0.5
  9
$CHAMFERC
 40
1.0
  9
$CHAMFERD
 40
0.0
  9
$SKPOLY
 70
     0
  9
$TDCREATE
 40
2458968.635868056
  9
$TDUPDATE
 40
2458968.635868056
  9
$TDINDWG
 40
0.0000000116
  9
$TDUSRTIMER
 40
0.0000000116
  9
$USRTIMER
 70
     1
  9
$ANGBASE
 50
0.0
  9
$ANGDIR
 70
     0
  9
$PDMODE
 70
     0
  9
$PDSIZE
 40
0.0
  9
$PLINEWID
 40
0.0
  9
$COORDS
 70
     1
  9
$SPLFRAME
 70
     0
  9
$SPLINETYPE
 70
     6
  9
$SPLINESEGS
 70
     8
  9
$ATTDIA
 70
     0
  9
$ATTREQ
 70
     1
  9
$HANDLING
 70
     1
  9
$HANDSEED
  5
F3
  9
$SURFTAB1
 70
     6
  9
$SURFTAB2
 70
     6
  9
$SURFTYPE
 70
     6
  9
$SURFU
 70
     6
  9
$SURFV
 70
     6
  9
$UCSNAME
  2

  9
$UCSORG
 10
0.0
 20
0.0
 30
0.0
  9
$UCSXDIR
 10
1.0
 20
0.0
 30
0.0
  9
$UCSYDIR
 10
0.0
 20
1.0
 30
0.0
  9
$PUCSNAME
  2

  9
$PUCSORG
 10
0.0
 20
0.0
 30
0.0
  9
$PUCSXDIR
 10
1.0
 20
0.0
 30
0.0
  9
$PUCSYDIR
 10
0.0
 20
1.0
 30
0.0
  9
$USERI1
 70
     0
  9
$USERI2
 70
     0
  9
$USERI3
 70
     0
  9
$USERI4
 70
     0
  9
$USERI5
 70
     0
  9
$USERR1
 40
0.0
  9
$USERR2
 40
0.0
  9
$USERR3
 40
0.0
  9
$USERR4
 40
0.0
  9
$USERR5
 40
0.0
  9
$WORLDVIEW
 70
     1
  9
$SHADEDGE
 70
     3
  9
$SHADEDIF
 70
    70
  9
$TILEMODE
 70
     1
  9
$MAXACTVP
 70
    64
  9
$PINSBASE
 10
0.0
 20
0.0
 30
0.0
  9
$PLIMCHECK
 70
     0
  9
$PEXTMIN
 10
1.000000000000000E+20
 20
1.000000000000000E+20
 30
1.000000000000000E+20
  9
$PEXTMAX
 10
-1.000000000000000E+20
 20
-1.000000000000000E+20
 30
-1.000000000000000E+20
  9
$PLIMMIN
 10
0.0
 20
0.0
  9
$PLIMMAX
 10
12.0
 20
9.0
  9
$UNITMODE
 70
     0
  9
$VISRETAIN
 70
     1
  9
$PLINEGEN
 70
     0
  9
$PSLTSCALE
 70
     1
  9
$TREEDEPTH
 70
  3020
  9
$PICKSTYLE
 70
     1
  9
$CMLSTYLE
  2
STANDARD
  9
$CMLJUST
 70
     0
  9
$CMLSCALE
 40
1.0
  9
$PROXYGRAPHICS
 70
     1
  9
$MEASUREMENT
 70
     0
  0
ENDSEC
  0
SECTION
  2
CLASSES
  0
CLASS
  1
ACDBDICTIONARYWDFLT
  2
AcDbDictionaryWithDefault
  3
ObjectDBX Classes
 90
        0
280
     0
281
     0
  0
CLASS
  1
VISUALSTYLE
  2
AcDbVisualStyle
  3
ObjectDBX Classes
 90
     4095
280
     0
281
     0
  0
CLASS
  1
MATERIAL
  2
AcDbMaterial
  3
ObjectDBX Classes
 90
     1153
280
     0
281
     0
  0
CLASS
  1
SUN
  2
AcDbSun
  3
SCENEOE
 90
     1024
280
     0
281
     0
  0
CLASS
  1
DICTIONARYVAR
  2
AcDbDictionaryVar
  3
ObjectDBX Classes
 90
        0
280
     0
281
     0
  0
CLASS
  1
XRECORD
  2
AcDbXrecord
  3
AutoCAD 2000
 90
        0
280
     0
281
     0
  0
CLASS
  1
LWPOLYLINE
  2
AcDbPolyline
  3
AutoCAD 2000
 90
        0
280
     0
281
     1
  0
CLASS
  1
HATCH
  2
AcDbHatch
  3
AutoCAD 2000
 90
        0
280
     0
281
     1
  0
CLASS
  1
ACDBPLACEHOLDER
  2
AcDbPlaceHolder
  3
ObjectDBX Classes
 90
        0
280
     0
281
     0
  0
CLASS
  1
LAYOUT
  2
AcDbLayout
  3
ObjectDBX Classes
 90
        0
280
     0
281
     0
  0
ENDSEC
  0
SECTION
  2
TABLES
  0
TABLE
  2
VPORT
  5
8
330
0
100
AcDbSymbolTable
 70
     1
  0
VPORT
  5
29
330
8
100
AcDbSymbolTableRecord
100
AcDbViewportTableRecord
  2
*ACTIVE
 70
     0
 10
0.0
 20
0.0
 11
1.0
 21
1.0
 12
0.0
 22
0.0
 13
0.0
 23
0.0
 14
0.5
 24
0.5
 15
0.5
 25
0.5
 16
0.0
 26
0.0
 36
1.0
 17
104.9999989878935
 27
148.4996183011652
 37
0.0
 40
297.0000052006764
 41
0.7070706878738762
 42
50.0
 43
0.0
 44
0.0
 50
0.0
 51
0.0
 71
     0
 72
   100
 73
     1
 74
     3
 75
     0
 76
     0
 77
     0
 78
     0
  0
ENDTAB
  0
TABLE
  2
LTYPE
  5
5
330
0
100
AcDbSymbolTable
 70
     1
  0
LTYPE
  5
14
330
5
100
AcDbSymbolTableRecord
100
AcDbLinetypeTableRecord
  2
BYBLOCK
 70
     0
  3

 72
    65
 73
     0
 40
0.0
  0
LTYPE
  5
15
330
5
100
AcDbSymbolTableRecord
100
AcDbLinetypeTableRecord
  2
BYLAYER
 70
     0
  3

 72
    65
 73
     0
 40
0.0
  0
LTYPE
  5
16
330
5
100
AcDbSymbolTableRecord
100
AcDbLinetypeTableRecord
  2
CONTINUOUS
 70
     0
  3
Solid line
 72
    65
 73
     0
 40
0.0
  0
ENDTAB
  0
TABLE
  2
LAYER
  5
2
330
0
100
AcDbSymbolTable
 70
    12
  0
LAYER
  5
10
330
2
100
AcDbSymbolTableRecord
100
AcDbLayerTableRecord
  2
0
 70
     0
 62
     7
  6
CONTINUOUS
  0
LAYER
  5
40
330
2
100
AcDbSymbolTableRecord
100
AcDbLayerTableRecord
  2
OUTLINE
 70
     5
 62
     7
  6
CONTINUOUS
  0
LAYER
  5
41
330
2
100
AcDbSymbolTableRecord
100
AcDbLayerTableRecord
  2
OUTLINE_U_306E_U_30B3_U_30
 70
     4
 62
     7
  6
CONTINUOUS
  0
LAYER
  5
42
330
2
100
AcDbSymbolTableRecord
100
AcDbLayerTableRecord
  2
L2-SILK
 70
     5
 62
     7
  6
CONTINUOUS
  0
LAYER
  5
43
330
2
100
AcDbSymbolTableRecord
100
AcDbLayerTableRecord
  2
L2-PATTERN
 70
     5
 62
     7
  6
CONTINUOUS
  0
LAYER
  5
44
330
2
100
AcDbSymbolTableRecord
100
AcDbLayerTableRecord
  2
L2-RESIST
 70
     5
 62
     7
  6
CONTINUOUS
  0
LAYER
  5
45
330
2
100
AcDbSymbolTableRecord
100
AcDbLayerTableRecord
  2
L1-PATTERN
 70
     5
 62
     7
  6
CONTINUOUS
  0
LAYER
  5
46
330
2
100
AcDbSymbolTableRecord
100
AcDbLayerTableRecord
  2
L1-RESIST
 70
     5
 62
     7
  6
CONTINUOUS
  0
LAYER
  5
47
330
2
100
AcDbSymbolTableRecord
100
AcDbLayerTableRecord
  2
L1-SILK
 70
     5
 62
     7
  6
CONTINUOUS
  0
LAYER
  5
48
330
2
100
AcDbSymbolTableRecord
100
AcDbLayerTableRecord
  2
DRILL
 70
     5
 62
     7
  6
CONTINUOUS
  0
LAYER
  5
49
330
2
100
AcDbSymbolTableRecord
100
AcDbLayerTableRecord
  2
HANE
 70
     0
 62
     7
  6
CONTINUOUS
  0
LAYER
  5
C7
330
2
100
AcDbSymbolTableRecord
100
AcDbLayerTableRecord
  2
L2-RESIST_U_306E_U_30B3_U_
 70
     0
 62
     7
  6
CONTINUOUS
  0
ENDTAB
  0
TABLE
  2
STYLE
  5
3
330
0
100
AcDbSymbolTable
 70
     1
  0
STYLE
  5
11
330
3
100
AcDbSymbolTableRecord
100
AcDbTextStyleTableRecord
  2
STANDARD
 70
     0
 40
0.0
 41
1.0
 50
0.0
 71
     0
 42
0.2
  3
txt
  4

  0
ENDTAB
  0
TABLE
  2
VIEW
  5
6
330
0
100
AcDbSymbolTable
 70
     0
  0
ENDTAB
  0
TABLE
  2
UCS
  5
7
330
0
100
AcDbSymbolTable
 70
     0
  0
ENDTAB
  0
TABLE
  2
APPID
  5
9
330
0
100
AcDbSymbolTable
 70
     1
  0
APPID
  5
12
330
9
100
AcDbSymbolTableRecord
100
AcDbRegAppTableRecord
  2
ACAD
 70
     0
  0
ENDTAB
  0
TABLE
  2
DIMSTYLE
  5
A
330
0
100
AcDbSymbolTable
 70
     1
  0
DIMSTYLE
105
27
330
A
100
AcDbSymbolTableRecord
100
AcDbDimStyleTableRecord
  2
STANDARD
 70
     0
  3

  4

  5

  6

  7

 40
1.0
 41
0.18
 42
0.0625
 43
0.38
 44
0.18
 45
0.0
 46
0.0
 47
0.0
 48
0.0
140
0.18
141
0.09
142
0.0
143
25.4
144
1.0
145
0.0
146
1.0
147
0.09
 71
     0
 72
     0
 73
     1
 74
     1
 75
     0
 76
     0
 77
     0
 78
     0
170
     0
171
     2
172
     0
173
     0
174
     0
175
     0
176
     0
177
     0
178
     0
270
     2
271
     4
272
     4
273
     2
274
     2
340
11
275
     0
280
     0
281
     0
282
     0
283
     1
284
     0
285
     0
286
     0
287
     3
288
     0
  0
ENDTAB
  0
TABLE
  2
BLOCK_RECORD
  5
1
330
0
100
AcDbSymbolTable
 70
     1
  0
BLOCK_RECORD
  5
1F
330
1
100
AcDbSymbolTableRecord
100
AcDbBlockTableRecord
  2
*MODEL_SPACE
  0
BLOCK_RECORD
  5
1B
330
1
100
AcDbSymbolTableRecord
100
AcDbBlockTableRecord
  2
*PAPER_SPACE
  0
ENDTAB
  0
ENDSEC
  0
SECTION
  2
BLOCKS
  0
BLOCK
  5
20
330
1F
100
AcDbEntity
  8
0
100
AcDbBlockBegin
  2
*MODEL_SPACE
 70
     0
 10
0.0
 20
0.0
 30
0.0
  3
*MODEL_SPACE
  1

  0
ENDBLK
  5
21
330
1F
100
AcDbEntity
  8
0
100
AcDbBlockEnd
  0
BLOCK
  5
1C
330
1B
100
AcDbEntity
 67
     1
  8
0
100
AcDbBlockBegin
  2
*PAPER_SPACE
 70
     0
 10
0.0
 20
0.0
 30
0.0
  3
*PAPER_SPACE
  1

  0
ENDBLK
  5
1D
330
1B
100
AcDbEntity
 67
     1
  8
0
100
AcDbBlockEnd
  0
ENDSEC
  0
SECTION
  2
ENTITIES
  0
POLYLINE
  5
4A
330
1F
100
AcDbEntity
  8
HANE
100
AcDb2dPolyline
 66
     1
 10
0.0
 20
0.0
 30
0.0
  0
VERTEX
  5
4B
330
4A
100
AcDbEntity
  8
HANE
100
AcDbVertex
100
AcDb2dVertex
 10
25.95301827766903
 20
66.43650739188956
 30
0.0
  0
VERTEX
  5
4C
330
4A
100
AcDbEntity
  8
HANE
100
AcDbVertex
100
AcDb2dVertex
 10
25.937945847498
 20
66.3971462123382
 30
0.0
  0
VERTEX
  5
4D
330
4A
100
AcDbEntity
  8
HANE
100
AcDbVertex
100
AcDb2dVertex
 10
25.92287341732698
 20
66.35778503278684
 30
0.0
  0
VERTEX
  5
4E
330
4A
100
AcDbEntity
  8
HANE
100
AcDbVertex
100
AcDb2dVertex
 10
25.90780098715595
 20
66.31842385323546
 30
0.0
  0
VERTEX
  5
4F
330
4A
100
AcDbEntity
  8
HANE
100
AcDbVertex
100
AcDb2dVertex
 10
25.89272855698492
 20
66.2790626736841
 30
0.0
  0
VERTEX
  5
50
330
4A
100
AcDbEntity
  8
HANE
100
AcDbVertex
100
AcDb2dVertex
 10
25.8776561268139
 20
66.23970149413273
 30
0.0
  0
VERTEX
  5
51
330
4A
100
AcDbEntity
  8
HANE
100
AcDbVertex
100
AcDb2dVertex
 10
25.86258369664287
 20
66.20034031458135
 30
0.0
  0
VERTEX
  5
52
330
4A
100
AcDbEntity
  8
HANE
100
AcDbVertex
100
AcDb2dVertex
 10
25.84751126647184
 20
66.16097913502999
 30
0.0
  0
VERTEX
  5
53
330
4A
100
AcDbEntity
  8
HANE
100
AcDbVertex
100
AcDb2dVertex
 10
25.83243883630082
 20
66.12161795547863
 30
0.0
  0
VERTEX
  5
54
330
4A
100
AcDbEntity
  8
HANE
100
AcDbVertex
100
AcDb2dVertex
 10
25.82274309761606
 20
66.09782936504861
 30
0.0
  0
VERTEX
  5
55
330
4A
100
AcDbEntity
  8
HANE
100
AcDbVertex
100
AcDb2dVertex
 10
25.794322300815
 20
66.02984667743856
 30
0.0
  0
VERTEX
  5
56
330
4A
100
AcDbEntity
  8
HANE
100
AcDbVertex
100
AcDb2dVertex
 10
25.74698544980915
 20
65.92199045568962
 30
0.0
  0
VERTEX
  5
57
330
4A
100
AcDbEntity
  8
HANE
100
AcDbVertex
100
AcDb2dVertex
 10
25.68054154850937
 20
65.77858126284164
 30
0.0
  0
VERTEX
  5
58
330
4A
100
AcDbEntity
  8
HANE
100
AcDbVertex
100
AcDb2dVertex
 10
25.59479960082717
 20
65.60393966193708
 30
0.0
  0
VERTEX
  5
59
330
4A
100
AcDbEntity
  8
HANE
100
AcDbVertex
100
AcDb2dVertex
 10
25.48956861067309
 20
65.40238621601641
 30
0.0
  0
VERTEX
  5
5A
330
4A
100
AcDbEntity
  8
HANE
100
AcDbVertex
100
AcDb2dVertex
 10
25.36465758195894
 20
65.17824148812016
 30
0.0
  0
VERTEX
  5
5B
330
4A
100
AcDbEntity
  8
HANE
100
AcDbVertex
100
AcDb2dVertex
 10
25.21987551859528
 20
64.93582604128882
 30
0.0
  0
VERTEX
  5
5C
330
4A
100
AcDbEntity
  8
HANE
100
AcDbVertex
100
AcDb2dVertex
 10
25.05548860476715
 20
64.6796506078289
 30
0.0
  0
VERTEX
  5
5D
330
4A
100
AcDbEntity
  8
HANE
100
AcDbVertex
100
AcDb2dVertex
 10
24.87140193008111
 20
64.41489399294643
 30
0.0
  0
VERTEX
  5
5E
330
4A
100
AcDbEntity
  8
HANE
100
AcDbVertex
100
AcDb2dVertex
 10
24.66771629405904
 20
64.14608511905325
 30
0.0
  0
VERTEX
  5
5F
330
4A
100
AcDbEntity
  8
HANE
100
AcDbVertex
100
AcDb2dVertex
 10
24.44453249622315
 20
63.87775290855932
 30
0.0
  0
VERTEX
  5
60
330
4A
100
AcDbEntity
  8
HANE
100
AcDbVertex
100
AcDb2dVertex
 10
24.20195133609563
 20
63.61442628387523
 30
0.0
  0
VERTEX
  5
61
330
4A
100
AcDbEntity
  8
HANE
100
AcDbVertex
100
AcDb2dVertex
 10
23.94007361319899
 20
63.36063416741156
 30
0.0
  0
VERTEX
  5
62
330
4A
100
AcDbEntity
  8
HANE
100
AcDbVertex
100
AcDb2dVertex
 10
23.6590001270548
 20
63.12090548157956
 30
0.0
  0
VERTEX
  5
63
330
4A
100
AcDbEntity
  8
HANE
100
AcDbVertex
100
AcDb2dVertex
 10
23.35883167718557
 20
62.89976914878851
 30
0.0
  0
VERTEX
  5
64
330
4A
100
AcDbEntity
  8
HANE
100
AcDbVertex
100
AcDb2dVertex
 10
23.07843246884425
 20
62.72400131196297
 30
0.0
  0
VERTEX
  5
65
330
4A
100
AcDbEntity
  8
HANE
100
AcDbVertex
100
AcDb2dVertex
 10
22.78374328039905
 20
62.5685941758456
 30
0.0
  0
VERTEX
  5
66
330
4A
100
AcDbEntity
  8
HANE
100
AcDbVertex
100
AcDb2dVertex
 10
22.47442428763938
 20
62.43640704168265
 30
0.0
  0
VERTEX
  5
67
330
4A
100
AcDbEntity
  8
HANE
100
AcDbVertex
100
AcDb2dVertex
 10
22.15013566635531
 20
62.330299210721
 30
0.0
  0
VERTEX
  5
68
330
4A
100
AcDbEntity
  8
HANE
100
AcDbVertex
100
AcDb2dVertex
 10
21.8105375923369
 20
62.25312998420627
 30
0.0
  0
VERTEX
  5
69
330
4A
100
AcDbEntity
  8
HANE
100
AcDbVertex
100
AcDb2dVertex
 10
21.45529024137388
 20
62.20775866338533
 30
0.0
  0
VERTEX
  5
6A
330
4A
100
AcDbEntity
  8
HANE
100
AcDbVertex
100
AcDb2dVertex
 10
21.08405378925632
 20
62.19704454950445
 30
0.0
  0
VERTEX
  5
6B
330
4A
100
AcDbEntity
  8
HANE
100
AcDbVertex
100
AcDb2dVertex
 10
20.69648841177428
 20
62.22384694380986
 30
0.0
  0
VERTEX
  5
6C
330
4A
100
AcDbEntity
  8
HANE
100
AcDbVertex
100
AcDb2dVertex
 10
20.66358747511365
 20
62.22763489510243
 30
0.0
  0
VERTEX
  5
6D
330
4A
100
AcDbEntity
  8
HANE
100
AcDbVertex
100
AcDb2dVertex
 10
20.63068653845302
 20
62.23142284639436
 30
0.0
  0
VERTEX
  5
6E
330
4A
100
AcDbEntity
  8
HANE
100
AcDbVertex
100
AcDb2dVertex
 10
20.5977856017924
 20
62.23521079768629
 30
0.0
  0
VERTEX
  5
6F
330
4A
100
AcDbEntity
  8
HANE
100
AcDbVertex
100
AcDb2dVertex
 10
20.56488466513177
 20
62.23899874897886
 30
0.0
  0
VERTEX
  5
70
330
4A
100
AcDbEntity
  8
HANE
100
AcDbVertex
100
AcDb2dVertex
 10
20.53198372847114
 20
62.24278670027143
 30
0.0
  0
VERTEX
  5
71
330
4A
100
AcDbEntity
  8
HANE
100
AcDbVertex
100
AcDb2dVertex
 10
20.49908279181051
 20
62.24657465156336
 30
0.0
  0
VERTEX
  5
72
330
4A
100
AcDbEntity
  8
HANE
100
AcDbVertex
100
AcDb2dVertex
 10
20.46618185514988
 20
62.25036260285529
 30
0.0
  0
VERTEX
  5
73
330
4A
100
AcDbEntity
  8
HANE
100
AcDbVertex
100
AcDb2dVertex
 10
20.43328091848926
 20
62.25415055414786
 30
0.0
  0
VERTEX
  5
74
330
4A
100
AcDbEntity
  8
HANE
100
AcDbVertex
100
AcDb2dVertex
 10
20.4423252585363
 20
62.22245788134497
 30
0.0
  0
VERTEX
  5
75
330
4A
100
AcDbEntity
  8
HANE
100
AcDbVertex
100
AcDb2dVertex
 10
20.45136959858333
 20
62.19076520854209
 30
0.0
  0
VERTEX
  5
76
330
4A
100
AcDbEntity
  8
HANE
100
AcDbVertex
100
AcDb2dVertex
 10
20.46041393863037
 20
62.15907253573921
 30
0.0
  0
VERTEX
  5
77
330
4A
100
AcDbEntity
  8
HANE
100
AcDbVertex
100
AcDb2dVertex
 10
20.46945827867741
 20
62.12737986293632
 30
0.0
  0
VERTEX
  5
78
330
4A
100
AcDbEntity
  8
HANE
100
AcDbVertex
100
AcDb2dVertex
 10
20.47850261872444
 20
62.09568719013344
 30
0.0
  0
VERTEX
  5
79
330
4A
100
AcDbEntity
  8
HANE
100
AcDbVertex
100
AcDb2dVertex
 10
20.48754695877148
 20
62.06399451733055
 30
0.0
  0
VERTEX
  5
7A
330
4A
100
AcDbEntity
  8
HANE
100
AcDbVertex
100
AcDb2dVertex
 10
20.49659129881852
 20
62.03230184452767
 30
0.0
  0
VERTEX
  5
7B
330
4A
100
AcDbEntity
  8
HANE
100
AcDbVertex
100
AcDb2dVertex
 10
20.50563563886556
 20
62.00060917172478
 30
0.0
  0
VERTEX
  5
7C
330
4A
100
AcDbEntity
  8
HANE
100
AcDbVertex
100
AcDb2dVertex
 10
21.0326460068222
 20
60.14829423742817
 30
0.0
  0
VERTEX
  5
7D
330
4A
100
AcDbEntity
  8
HANE
100
AcDbVertex
100
AcDb2dVertex
 10
21.4421884057706
 20
58.71033580948649
 30
0.0
  0
VERTEX
  5
7E
330
4A
100
AcDbEntity
  8
HANE
100
AcDbVertex
100
AcDb2dVertex
 10
21.76836473262723
 20
57.56791861098519
 30
0.0
  0
VERTEX
  5
7F
330
4A
100
AcDbEntity
  8
HANE
100
AcDbVertex
100
AcDb2dVertex
 10
22.04527688430826
 20
56.60222736500582
 30
0.0
  0
VERTEX
  5
80
330
4A
100
AcDbEntity
  8
HANE
100
AcDbVertex
100
AcDb2dVertex
 10
22.30702675773016
 20
55.69444679463251
 30
0.0
  0
VERTEX
  5
81
330
4A
100
AcDbEntity
  8
HANE
100
AcDbVertex
100
AcDb2dVertex
 10
22.58771624980972
 20
54.72576162294813
 30
0.0
  0
VERTEX
  5
82
330
4A
100
AcDbEntity
  8
HANE
100
AcDbVertex
100
AcDb2dVertex
 10
22.9214472574631
 20
53.57735657303616
 30
0.0
  0
VERTEX
  5
83
330
4A
100
AcDbEntity
  8
HANE
100
AcDbVertex
100
AcDb2dVertex
 10
23.34232167760678
 20
52.13041636798011
 30
0.0
  0
VERTEX
  5
84
330
4A
100
AcDbEntity
  8
HANE
100
AcDbVertex
100
AcDb2dVertex
 10
23.38164551638752
 20
51.96867795847819
 30
0.0
  0
VERTEX
  5
85
330
4A
100
AcDbEntity
  8
HANE
100
AcDbVertex
100
AcDb2dVertex
 10
23.48818760049121
 20
51.53350756376408
 30
0.0
  0
VERTEX
  5
86
330
4A
100
AcDbEntity
  8
HANE
100
AcDbVertex
100
AcDb2dVertex
 10
23.64325596909888
 20
50.90461587190936
 30
0.0
  0
VERTEX
  5
87
330
4A
100
AcDbEntity
  8
HANE
100
AcDbVertex
100
AcDb2dVertex
 10
23.82815866139191
 20
50.16171357098368
 30
0.0
  0
VERTEX
  5
88
330
4A
100
AcDbEntity
  8
HANE
100
AcDbVertex
100
AcDb2dVertex
 10
24.02420371655134
 20
49.38451134905799
 30
0.0
  0
VERTEX
  5
89
330
4A
100
AcDbEntity
  8
HANE
100
AcDbVertex
100
AcDb2dVertex
 10
24.21269917375853
 20
48.65271989420322
 30
0.0
  0
VERTEX
  5
8A
330
4A
100
AcDbEntity
  8
HANE
100
AcDbVertex
100
AcDb2dVertex
 10
24.37495307219453
 20
48.04604989448966
 30
0.0
  0
VERTEX
  5
8B
330
4A
100
AcDbEntity
  8
HANE
100
AcDbVertex
100
AcDb2dVertex
 10
24.49227345104069
 20
47.64421203798827
 30
0.0
  0
VERTEX
  5
8C
330
4A
100
AcDbEntity
  8
HANE
100
AcDbVertex
100
AcDb2dVertex
 10
24.56440363921907
 20
47.43119627736391
 30
0.0
  0
VERTEX
  5
8D
330
4A
100
AcDbEntity
  8
HANE
100
AcDbVertex
100
AcDb2dVertex
 10
24.63818032494877
 20
47.23070357631553
 30
0.0
  0
VERTEX
  5
8E
330
4A
100
AcDbEntity
  8
HANE
100
AcDbVertex
100
AcDb2dVertex
 10
24.71363565644302
 20
47.0424676978716
 30
0.0
  0
VERTEX
  5
8F
330
4A
100
AcDbEntity
  8
HANE
100
AcDbVertex
100
AcDb2dVertex
 10
24.79080178191635
 20
46.86622240505866
 30
0.0
  0
VERTEX
  5
90
330
4A
100
AcDbEntity
  8
HANE
100
AcDbVertex
100
AcDb2dVertex
 10
24.86971084958262
 20
46.70170146090518
 30
0.0
  0
VERTEX
  5
91
330
4A
100
AcDbEntity
  8
HANE
100
AcDbVertex
100
AcDb2dVertex
 10
24.95039500765602
 20
46.548638628439
 30
0.0
  0
VERTEX
  5
92
330
4A
100
AcDbEntity
  8
HANE
100
AcDbVertex
100
AcDb2dVertex
 10
25.03288640435074
 20
46.40676767068664
 30
0.0
  0
VERTEX
  5
93
330
4A
100
AcDbEntity
  8
HANE
100
AcDbVertex
100
AcDb2dVertex
 10
25.11721718788098
 20
46.27582235067658
 30
0.0
  0
VERTEX
  5
94
330
4A
100
AcDbEntity
  8
HANE
100
AcDbVertex
100
AcDb2dVertex
 10
25.2328183285948
 20
46.11732577594419
 30
0.0
  0
VERTEX
  5
95
330
4A
100
AcDbEntity
  8
HANE
100
AcDbVertex
100
AcDb2dVertex
 10
25.35261476868088
 20
45.97718384267024
 30
0.0
  0
VERTEX
  5
96
330
4A
100
AcDbEntity
  8
HANE
100
AcDbVertex
100
AcDb2dVertex
 10
25.47637665137421
 20
45.85533950007608
 30
0.0
  0
VERTEX
  5
97
330
4A
100
AcDbEntity
  8
HANE
100
AcDbVertex
100
AcDb2dVertex
 10
25.60387411990977
 20
45.75173569738048
 30
0.0
  0
VERTEX
  5
98
330
4A
100
AcDbEntity
  8
HANE
100
AcDbVertex
100
AcDb2dVertex
 10
25.73487731752256
 20
45.66631538380479
 30
0.0
  0
VERTEX
  5
99
330
4A
100
AcDbEntity
  8
HANE
100
AcDbVertex
100
AcDb2dVertex
 10
25.86915638744757
 20
45.59902150856845
 30
0.0
  0
VERTEX
  5
9A
330
4A
100
AcDbEntity
  8
HANE
100
AcDbVertex
100
AcDb2dVertex
 10
26.00648147291979
 20
45.5497970208915
 30
0.0
  0
VERTEX
  5
9B
330
4A
100
AcDbEntity
  8
HANE
100
AcDbVertex
100
AcDb2dVertex
 10
26.14662271717421
 20
45.51858486999532
 30
0.0
  0
VERTEX
  5
9C
330
4A
100
AcDbEntity
  8
HANE
100
AcDbVertex
100
AcDb2dVertex
 10
26.28717323876204
 20
45.50584581032339
 30
0.0
  0
VERTEX
  5
9D
330
4A
100
AcDbEntity
  8
HANE
100
AcDbVertex
100
AcDb2dVertex
 10
26.42678118224899
 20
45.50981233816081
 30
0.0
  0
VERTEX
  5
9E
330
4A
100
AcDbEntity
  8
HANE
100
AcDbVertex
100
AcDb2dVertex
 10
26.56521172993266
 20
45.52942657792841
 30
0.0
  0
VERTEX
  5
9F
330
4A
100
AcDbEntity
  8
HANE
100
AcDbVertex
100
AcDb2dVertex
 10
26.7022300641106
 20
45.56363065404761
 30
0.0
  0
VERTEX
  5
A0
330
4A
100
AcDbEntity
  8
HANE
100
AcDbVertex
100
AcDb2dVertex
 10
26.83760136708072
 20
45.61136669093858
 30
0.0
  0
VERTEX
  5
A1
330
4A
100
AcDbEntity
  8
HANE
100
AcDbVertex
100
AcDb2dVertex
 10
26.97109082114028
 20
45.67157681302211
 30
0.0
  0
VERTEX
  5
A2
330
4A
100
AcDbEntity
  8
HANE
100
AcDbVertex
100
AcDb2dVertex
 10
27.10246360858717
 20
45.74320314471965
 30
0.0
  0
VERTEX
  5
A3
330
4A
100
AcDbEntity
  8
HANE
100
AcDbVertex
100
AcDb2dVertex
 10
27.23148491171929
 20
45.82518781045135
 30
0.0
  0
VERTEX
  5
A4
330
4A
100
AcDbEntity
  8
HANE
100
AcDbVertex
100
AcDb2dVertex
 10
27.23195675198503
 20
45.82553129607409
 30
0.0
  0
VERTEX
  5
A5
330
4A
100
AcDbEntity
  8
HANE
100
AcDbVertex
100
AcDb2dVertex
 10
27.23242859225077
 20
45.82587478169746
 30
0.0
  0
VERTEX
  5
A6
330
4A
100
AcDbEntity
  8
HANE
100
AcDbVertex
100
AcDb2dVertex
 10
27.23290043251651
 20
45.82621826732085
 30
0.0
  0
VERTEX
  5
A7
330
4A
100
AcDbEntity
  8
HANE
100
AcDbVertex
100
AcDb2dVertex
 10
27.23337227278225
 20
45.82656175294358
 30
0.0
  0
VERTEX
  5
A8
330
4A
100
AcDbEntity
  8
HANE
100
AcDbVertex
100
AcDb2dVertex
 10
27.23384411304799
 20
45.82690523856696
 30
0.0
  0
VERTEX
  5
A9
330
4A
100
AcDbEntity
  8
HANE
100
AcDbVertex
100
AcDb2dVertex
 10
27.23431595331373
 20
45.82724872419034
 30
0.0
  0
VERTEX
  5
AA
330
4A
100
AcDbEntity
  8
HANE
100
AcDbVertex
100
AcDb2dVertex
 10
27.23478779357947
 20
45.82759220981308
 30
0.0
  0
VERTEX
  5
AB
330
4A
100
AcDbEntity
  8
HANE
100
AcDbVertex
100
AcDb2dVertex
 10
27.23525963384521
 20
45.82793569543645
 30
0.0
  0
VERTEX
  5
AC
330
4A
100
AcDbEntity
  8
HANE
100
AcDbVertex
100
AcDb2dVertex
 10
27.84486437252474
 20
46.36113848456786
 30
0.0
  0
VERTEX
  5
AD
330
4A
100
AcDbEntity
  8
HANE
100
AcDbVertex
100
AcDb2dVertex
 10
28.42157024160062
 20
47.05661105471557
 30
0.0
  0
VERTEX
  5
AE
330
4A
100
AcDbEntity
  8
HANE
100
AcDbVertex
100
AcDb2dVertex
 10
28.95066186058946
 20
47.84259592724118
 30
0.0
  0
VERTEX
  5
AF
330
4A
100
AcDbEntity
  8
HANE
100
AcDbVertex
100
AcDb2dVertex
 10
29.4174238490069
 20
48.64733562350757
 30
0.0
  0
VERTEX
  5
B0
330
4A
100
AcDbEntity
  8
HANE
100
AcDbVertex
100
AcDb2dVertex
 10
29.80714082636888
 20
49.39907266487568
 30
0.0
  0
VERTEX
  5
B1
330
4A
100
AcDbEntity
  8
HANE
100
AcDbVertex
100
AcDb2dVertex
 10
30.10509741219201
 20
50.0260495727084
 30
0.0
  0
VERTEX
  5
B2
330
4A
100
AcDbEntity
  8
HANE
100
AcDbVertex
100
AcDb2dVertex
 10
30.29657822599192
 20
50.45650886836733
 30
0.0
  0
VERTEX
  5
B3
330
4A
100
AcDbEntity
  8
HANE
100
AcDbVertex
100
AcDb2dVertex
 10
30.36686788728456
 20
50.61869307321405
 30
0.0
  0
VERTEX
  5
B4
330
4A
100
AcDbEntity
  8
HANE
100
AcDbVertex
100
AcDb2dVertex
 10
30.88774784578411
 20
52.34846899588079
 30
0.0
  0
VERTEX
  5
B5
330
4A
100
AcDbEntity
  8
HANE
100
AcDbVertex
100
AcDb2dVertex
 10
31.10269837198403
 20
54.07234884447935
 30
0.0
  0
VERTEX
  5
B6
330
4A
100
AcDbEntity
  8
HANE
100
AcDbVertex
100
AcDb2dVertex
 10
31.01484320278457
 20
55.82364779394052
 30
0.0
  0
VERTEX
  5
B7
330
4A
100
AcDbEntity
  8
HANE
100
AcDbVertex
100
AcDb2dVertex
 10
30.62730607508468
 20
57.63568101919641
 30
0.0
  0
VERTEX
  5
B8
330
4A
100
AcDbEntity
  8
HANE
100
AcDbVertex
100
AcDb2dVertex
 10
29.94321072578395
 20
59.54176369517782
 30
0.0
  0
VERTEX
  5
B9
330
4A
100
AcDbEntity
  8
HANE
100
AcDbVertex
100
AcDb2dVertex
 10
28.96568089178198
 20
61.57521099681619
 30
0.0
  0
VERTEX
  5
BA
330
4A
100
AcDbEntity
  8
HANE
100
AcDbVertex
100
AcDb2dVertex
 10
27.69784030997772
 20
63.76933809904234
 30
0.0
  0
VERTEX
  5
BB
330
4A
100
AcDbEntity
  8
HANE
100
AcDbVertex
100
AcDb2dVertex
 10
26.14281271727141
 20
66.157460176789
 30
0.0
  0
VERTEX
  5
BC
330
4A
100
AcDbEntity
  8
HANE
100
AcDbVertex
100
AcDb2dVertex
 10
26.11908841232111
 20
66.19234107867625
 30
0.0
  0
VERTEX
  5
BD
330
4A
100
AcDbEntity
  8
HANE
100
AcDbVertex
100
AcDb2dVertex
 10
26.09536410737082
 20
66.22722198056414
 30
0.0
  0
VERTEX
  5
BE
330
4A
100
AcDbEntity
  8
HANE
100
AcDbVertex
100
AcDb2dVertex
 10
26.07163980242052
 20
66.26210288245203
 30
0.0
  0
VERTEX
  5
BF
330
4A
100
AcDbEntity
  8
HANE
100
AcDbVertex
100
AcDb2dVertex
 10
26.04791549747022
 20
66.29698378433928
 30
0.0
  0
VERTEX
  5
C0
330
4A
100
AcDbEntity
  8
HANE
100
AcDbVertex
100
AcDb2dVertex
 10
26.02419119251992
 20
66.33186468622654
 30
0.0
  0
VERTEX
  5
C1
330
4A
100
AcDbEntity
  8
HANE
100
AcDbVertex
100
AcDb2dVertex
 10
26.00046688756962
 20
66.36674558811443
 30
0.0
  0
VERTEX
  5
C2
330
4A
100
AcDbEntity
  8
HANE
100
AcDbVertex
100
AcDb2dVertex
 10
25.97674258261932
 20
66.40162649000231
 30
0.0
  0
VERTEX
  5
C3
330
4A
100
AcDbEntity
  8
HANE
100
AcDbVertex
100
AcDb2dVertex
 10
25.95301827766903
 20
66.43650739188956
 30
0.0
  0
VERTEX
  5
C4
330
4A
100
AcDbEntity
  8
HANE
100
AcDbVertex
100
AcDb2dVertex
 10
25.95301827766903
 20
66.43650739188956
 30
0.0
  0
SEQEND
  5
C5
330
4A
100
AcDbEntity
  8
HANE
  0
HATCH
  5
C6
330
1F
100
AcDbEntity
  8
HANE
 62
   152
100
AcDbHatch
 10
0.0
 20
0.0
 30
0.0
210
0.0
220
0.0
230
1.0
  2
SOLID
 70
     1
 71
     0
 91
        1
 92
        1
 93
      120
 72
     1
 10
25.95301827766903
 20
66.43650739188956
 11
25.937945847498
 21
66.3971462123382
 72
     1
 10
25.937945847498
 20
66.3971462123382
 11
25.92287341732698
 21
66.35778503278684
 72
     1
 10
25.92287341732698
 20
66.35778503278684
 11
25.90780098715595
 21
66.31842385323546
 72
     1
 10
25.90780098715595
 20
66.31842385323546
 11
25.89272855698492
 21
66.2790626736841
 72
     1
 10
25.89272855698492
 20
66.2790626736841
 11
25.8776561268139
 21
66.23970149413273
 72
     1
 10
25.8776561268139
 20
66.23970149413273
 11
25.86258369664287
 21
66.20034031458135
 72
     1
 10
25.86258369664287
 20
66.20034031458135
 11
25.84751126647184
 21
66.16097913502999
 72
     1
 10
25.84751126647184
 20
66.16097913502999
 11
25.83243883630082
 21
66.12161795547863
 72
     1
 10
25.83243883630082
 20
66.12161795547863
 11
25.82274309761606
 21
66.09782936504861
 72
     1
 10
25.82274309761606
 20
66.09782936504861
 11
25.794322300815
 21
66.02984667743856
 72
     1
 10
25.794322300815
 20
66.02984667743856
 11
25.74698544980915
 21
65.92199045568962
 72
     1
 10
25.74698544980915
 20
65.92199045568962
 11
25.68054154850937
 21
65.77858126284164
 72
     1
 10
25.68054154850937
 20
65.77858126284164
 11
25.59479960082717
 21
65.60393966193708
 72
     1
 10
25.59479960082717
 20
65.60393966193708
 11
25.48956861067309
 21
65.40238621601641
 72
     1
 10
25.48956861067309
 20
65.40238621601641
 11
25.36465758195894
 21
65.17824148812016
 72
     1
 10
25.36465758195894
 20
65.17824148812016
 11
25.21987551859528
 21
64.93582604128882
 72
     1
 10
25.21987551859528
 20
64.93582604128882
 11
25.05548860476715
 21
64.6796506078289
 72
     1
 10
25.05548860476715
 20
64.6796506078289
 11
24.87140193008111
 21
64.41489399294643
 72
     1
 10
24.87140193008111
 20
64.41489399294643
 11
24.66771629405904
 21
64.14608511905325
 72
     1
 10
24.66771629405904
 20
64.14608511905325
 11
24.44453249622315
 21
63.87775290855932
 72
     1
 10
24.44453249622315
 20
63.87775290855932
 11
24.20195133609563
 21
63.61442628387523
 72
     1
 10
24.20195133609563
 20
63.61442628387523
 11
23.94007361319899
 21
63.36063416741156
 72
     1
 10
23.94007361319899
 20
63.36063416741156
 11
23.6590001270548
 21
63.12090548157956
 72
     1
 10
23.6590001270548
 20
63.12090548157956
 11
23.35883167718557
 21
62.89976914878851
 72
     1
 10
23.35883167718557
 20
62.89976914878851
 11
23.07843246884425
 21
62.72400131196297
 72
     1
 10
23.07843246884425
 20
62.72400131196297
 11
22.78374328039905
 21
62.5685941758456
 72
     1
 10
22.78374328039905
 20
62.5685941758456
 11
22.47442428763938
 21
62.43640704168265
 72
     1
 10
22.47442428763938
 20
62.43640704168265
 11
22.15013566635531
 21
62.330299210721
 72
     1
 10
22.15013566635531
 20
62.330299210721
 11
21.8105375923369
 21
62.25312998420627
 72
     1
 10
21.8105375923369
 20
62.25312998420627
 11
21.45529024137388
 21
62.20775866338533
 72
     1
 10
21.45529024137388
 20
62.20775866338533
 11
21.08405378925632
 21
62.19704454950445
 72
     1
 10
21.08405378925632
 20
62.19704454950445
 11
20.69648841177428
 21
62.22384694380986
 72
     1
 10
20.69648841177428
 20
62.22384694380986
 11
20.66358747511365
 21
62.22763489510243
 72
     1
 10
20.66358747511365
 20
62.22763489510243
 11
20.63068653845302
 21
62.23142284639436
 72
     1
 10
20.63068653845302
 20
62.23142284639436
 11
20.5977856017924
 21
62.23521079768629
 72
     1
 10
20.5977856017924
 20
62.23521079768629
 11
20.56488466513177
 21
62.23899874897886
 72
     1
 10
20.56488466513177
 20
62.23899874897886
 11
20.53198372847114
 21
62.24278670027143
 72
     1
 10
20.53198372847114
 20
62.24278670027143
 11
20.49908279181051
 21
62.24657465156336
 72
     1
 10
20.49908279181051
 20
62.24657465156336
 11
20.46618185514988
 21
62.25036260285529
 72
     1
 10
20.46618185514988
 20
62.25036260285529
 11
20.43328091848926
 21
62.25415055414786
 72
     1
 10
20.43328091848926
 20
62.25415055414786
 11
20.4423252585363
 21
62.22245788134497
 72
     1
 10
20.4423252585363
 20
62.22245788134497
 11
20.45136959858333
 21
62.19076520854209
 72
     1
 10
20.45136959858333
 20
62.19076520854209
 11
20.46041393863037
 21
62.15907253573921
 72
     1
 10
20.46041393863037
 20
62.15907253573921
 11
20.46945827867741
 21
62.12737986293632
 72
     1
 10
20.46945827867741
 20
62.12737986293632
 11
20.47850261872444
 21
62.09568719013344
 72
     1
 10
20.47850261872444
 20
62.09568719013344
 11
20.48754695877148
 21
62.06399451733055
 72
     1
 10
20.48754695877148
 20
62.06399451733055
 11
20.49659129881852
 21
62.03230184452767
 72
     1
 10
20.49659129881852
 20
62.03230184452767
 11
20.50563563886556
 21
62.00060917172478
 72
     1
 10
20.50563563886556
 20
62.00060917172478
 11
21.0326460068222
 21
60.14829423742817
 72
     1
 10
21.0326460068222
 20
60.14829423742817
 11
21.4421884057706
 21
58.71033580948649
 72
     1
 10
21.4421884057706
 20
58.71033580948649
 11
21.76836473262723
 21
57.56791861098519
 72
     1
 10
21.76836473262723
 20
57.56791861098519
 11
22.04527688430826
 21
56.60222736500582
 72
     1
 10
22.04527688430826
 20
56.60222736500582
 11
22.30702675773016
 21
55.69444679463251
 72
     1
 10
22.30702675773016
 20
55.69444679463251
 11
22.58771624980972
 21
54.72576162294813
 72
     1
 10
22.58771624980972
 20
54.72576162294813
 11
22.9214472574631
 21
53.57735657303616
 72
     1
 10
22.9214472574631
 20
53.57735657303616
 11
23.34232167760678
 21
52.13041636798011
 72
     1
 10
23.34232167760678
 20
52.13041636798011
 11
23.38164551638752
 21
51.96867795847819
 72
     1
 10
23.38164551638752
 20
51.96867795847819
 11
23.48818760049121
 21
51.53350756376408
 72
     1
 10
23.48818760049121
 20
51.53350756376408
 11
23.64325596909888
 21
50.90461587190936
 72
     1
 10
23.64325596909888
 20
50.90461587190936
 11
23.82815866139191
 21
50.16171357098368
 72
     1
 10
23.82815866139191
 20
50.16171357098368
 11
24.02420371655134
 21
49.38451134905799
 72
     1
 10
24.02420371655134
 20
49.38451134905799
 11
24.21269917375853
 21
48.65271989420322
 72
     1
 10
24.21269917375853
 20
48.65271989420322
 11
24.37495307219453
 21
48.04604989448966
 72
     1
 10
24.37495307219453
 20
48.04604989448966
 11
24.49227345104069
 21
47.64421203798827
 72
     1
 10
24.49227345104069
 20
47.64421203798827
 11
24.56440363921907
 21
47.43119627736391
 72
     1
 10
24.56440363921907
 20
47.43119627736391
 11
24.63818032494877
 21
47.23070357631553
 72
     1
 10
24.63818032494877
 20
47.23070357631553
 11
24.71363565644302
 21
47.0424676978716
 72
     1
 10
24.71363565644302
 20
47.0424676978716
 11
24.79080178191635
 21
46.86622240505866
 72
     1
 10
24.79080178191635
 20
46.86622240505866
 11
24.86971084958262
 21
46.70170146090518
 72
     1
 10
24.86971084958262
 20
46.70170146090518
 11
24.95039500765602
 21
46.548638628439
 72
     1
 10
24.95039500765602
 20
46.548638628439
 11
25.03288640435074
 21
46.40676767068664
 72
     1
 10
25.03288640435074
 20
46.40676767068664
 11
25.11721718788098
 21
46.27582235067658
 72
     1
 10
25.11721718788098
 20
46.27582235067658
 11
25.2328183285948
 21
46.11732577594419
 72
     1
 10
25.2328183285948
 20
46.11732577594419
 11
25.35261476868088
 21
45.97718384267024
 72
     1
 10
25.35261476868088
 20
45.97718384267024
 11
25.47637665137421
 21
45.85533950007608
 72
     1
 10
25.47637665137421
 20
45.85533950007608
 11
25.60387411990977
 21
45.75173569738048
 72
     1
 10
25.60387411990977
 20
45.75173569738048
 11
25.73487731752256
 21
45.66631538380479
 72
     1
 10
25.73487731752256
 20
45.66631538380479
 11
25.86915638744757
 21
45.59902150856845
 72
     1
 10
25.86915638744757
 20
45.59902150856845
 11
26.00648147291979
 21
45.5497970208915
 72
     1
 10
26.00648147291979
 20
45.5497970208915
 11
26.14662271717421
 21
45.51858486999532
 72
     1
 10
26.14662271717421
 20
45.51858486999532
 11
26.28717323876204
 21
45.50584581032339
 72
     1
 10
26.28717323876204
 20
45.50584581032339
 11
26.42678118224899
 21
45.50981233816081
 72
     1
 10
26.42678118224899
 20
45.50981233816081
 11
26.56521172993266
 21
45.52942657792841
 72
     1
 10
26.56521172993266
 20
45.52942657792841
 11
26.7022300641106
 21
45.56363065404761
 72
     1
 10
26.7022300641106
 20
45.56363065404761
 11
26.83760136708072
 21
45.61136669093858
 72
     1
 10
26.83760136708072
 20
45.61136669093858
 11
26.97109082114028
 21
45.67157681302211
 72
     1
 10
26.97109082114028
 20
45.67157681302211
 11
27.10246360858717
 21
45.74320314471965
 72
     1
 10
27.10246360858717
 20
45.74320314471965
 11
27.23148491171929
 21
45.82518781045135
 72
     1
 10
27.23148491171929
 20
45.82518781045135
 11
27.23195675198503
 21
45.82553129607409
 72
     1
 10
27.23195675198503
 20
45.82553129607409
 11
27.23242859225077
 21
45.82587478169746
 72
     1
 10
27.23242859225077
 20
45.82587478169746
 11
27.23290043251651
 21
45.82621826732085
 72
     1
 10
27.23290043251651
 20
45.82621826732085
 11
27.23337227278225
 21
45.82656175294358
 72
     1
 10
27.23337227278225
 20
45.82656175294358
 11
27.23384411304799
 21
45.82690523856696
 72
     1
 10
27.23384411304799
 20
45.82690523856696
 11
27.23431595331373
 21
45.82724872419034
 72
     1
 10
27.23431595331373
 20
45.82724872419034
 11
27.23478779357947
 21
45.82759220981308
 72
     1
 10
27.23478779357947
 20
45.82759220981308
 11
27.23525963384521
 21
45.82793569543645
 72
     1
 10
27.23525963384521
 20
45.82793569543645
 11
27.84486437252474
 21
46.36113848456786
 72
     1
 10
27.84486437252474
 20
46.36113848456786
 11
28.42157024160062
 21
47.05661105471557
 72
     1
 10
28.42157024160062
 20
47.05661105471557
 11
28.95066186058946
 21
47.84259592724118
 72
     1
 10
28.95066186058946
 20
47.84259592724118
 11
29.4174238490069
 21
48.64733562350757
 72
     1
 10
29.4174238490069
 20
48.64733562350757
 11
29.80714082636888
 21
49.39907266487568
 72
     1
 10
29.80714082636888
 20
49.39907266487568
 11
30.10509741219201
 21
50.0260495727084
 72
     1
 10
30.10509741219201
 20
50.0260495727084
 11
30.29657822599192
 21
50.45650886836733
 72
     1
 10
30.29657822599192
 20
50.45650886836733
 11
30.36686788728456
 21
50.61869307321405
 72
     1
 10
30.36686788728456
 20
50.61869307321405
 11
30.88774784578411
 21
52.34846899588079
 72
     1
 10
30.88774784578411
 20
52.34846899588079
 11
31.10269837198403
 21
54.07234884447935
 72
     1
 10
31.10269837198403
 20
54.07234884447935
 11
31.01484320278457
 21
55.82364779394052
 72
     1
 10
31.01484320278457
 20
55.82364779394052
 11
30.62730607508468
 21
57.63568101919641
 72
     1
 10
30.62730607508468
 20
57.63568101919641
 11
29.94321072578395
 21
59.54176369517782
 72
     1
 10
29.94321072578395
 20
59.54176369517782
 11
28.96568089178198
 21
61.57521099681619
 72
     1
 10
28.96568089178198
 20
61.57521099681619
 11
27.69784030997772
 21
63.76933809904234
 72
     1
 10
27.69784030997772
 20
63.76933809904234
 11
26.14281271727141
 21
66.157460176789
 72
     1
 10
26.14281271727141
 20
66.157460176789
 11
26.11908841232111
 21
66.19234107867625
 72
     1
 10
26.11908841232111
 20
66.19234107867625
 11
26.09536410737082
 21
66.22722198056414
 72
     1
 10
26.09536410737082
 20
66.22722198056414
 11
26.07163980242052
 21
66.26210288245203
 72
     1
 10
26.07163980242052
 20
66.26210288245203
 11
26.04791549747022
 21
66.29698378433928
 72
     1
 10
26.04791549747022
 20
66.29698378433928
 11
26.02419119251992
 21
66.33186468622654
 72
     1
 10
26.02419119251992
 20
66.33186468622654
 11
26.00046688756962
 21
66.36674558811443
 72
     1
 10
26.00046688756962
 20
66.36674558811443
 11
25.97674258261932
 21
66.40162649000231
 72
     1
 10
25.97674258261932
 20
66.40162649000231
 11
25.95301827766903
 21
66.43650739188956
 97
        0
 75
     2
 76
     1
 98
        0
  0
ENDSEC
  0
SECTION
  2
OBJECTS
  0
DICTIONARY
  5
C
330
0
100
AcDbDictionary
  3
ACAD_GROUP
350
D
  3
ACAD_LAYOUT
350
1A
  3
ACAD_MATERIAL
350
3B
  3
ACAD_MLEADERSTYLE
350
EA
  3
ACAD_MLINESTYLE
350
17
  3
ACAD_PLOTSETTINGS
350
19
  3
ACAD_VISUALSTYLE
350
2A
  3
ACDBHEADERROUNDTRIPXREC
350
C8
  3
ACDBVARIABLEDICTIONARY
350
E8
  0
DICTIONARY
  5
D
102
{ACAD_REACTORS
330
C
102
}
330
C
100
AcDbDictionary
  0
DICTIONARY
  5
1A
102
{ACAD_REACTORS
330
C
102
}
330
C
100
AcDbDictionary
  0
DICTIONARY
  5
3B
102
{ACAD_REACTORS
330
C
102
}
330
C
100
AcDbDictionary
  3
BYBLOCK
350
3D
  3
BYLAYER
350
3C
  3
GLOBAL
350
3E
  0
DICTIONARY
  5
EA
102
{ACAD_REACTORS
330
C
102
}
330
C
100
AcDbDictionary
  0
DICTIONARY
  5
17
102
{ACAD_REACTORS
330
C
102
}
330
C
100
AcDbDictionary
  3
STANDARD
350
18
  0
DICTIONARY
  5
19
102
{ACAD_REACTORS
330
C
102
}
330
C
100
AcDbDictionary
  0
DICTIONARY
  5
2A
102
{ACAD_REACTORS
330
C
102
}
330
C
100
AcDbDictionary
  3
2DWIREFRAME
350
2F
  3
3DWIREFRAME
350
30
  3
3D_HIDDEN
350
31
  3
BASIC
350
32
  3
BRIGHTEN
350
36
  3
COLORCHANGE
350
3A
  3
CONCEPTUAL
350
34
  3
DIM
350
35
  3
FACEPATTERN
350
39
  3
FLAT
350
2B
  3
FLATWITHEDGES
350
2C
  3
GOURAUD
350
2D
  3
GOURAUDWITHEDGES
350
2E
  3
LINEPATTERN
350
38
  3
REALISTIC
350
33
  3
THICKEN
350
37
  0
DICTIONARY
  5
C8
102
{ACAD_REACTORS
330
C
102
}
330
C
100
AcDbDictionary
  3
CEPSNTYPE
350
D1
  3
DIMSTYLEDATA
350
E7
  3
FINGERPRINTGUID
350
D2
  3
HYPERLINKBASE
350
CB
  3
INSUNITS
350
D0
  3
LAYOUTDICT
350
CD
  3
LWETCUNION
350
CF
  3
PLOTSETDICT
350
CE
  3
PSVPSCALE
350
D4
  3
PUCSBASE
350
D7
  3
PUCSORGBACK
350
DD
  3
PUCSORGBOTTOM
350
D9
  3
PUCSORGFRONT
350
DC
  3
PUCSORGLEFT
350
DA
  3
PUCSORGRIGHT
350
DB
  3
PUCSORGTOP
350
D8
  3
PUCSORTHOREF
350
D5
  3
PUCSORTHOVIEW
350
D6
  3
STYLESHEET
350
CC
  3
TSTACKALIGN
350
C9
  3
TSTACKSIZE
350
CA
  3
UCSBASE
350
E0
  3
UCSORGBACK
350
E6
  3
UCSORGBOTTOM
350
E2
  3
UCSORGFRONT
350
E5
  3
UCSORGLEFT
350
E3
  3
UCSORGRIGHT
350
E4
  3
UCSORGTOP
350
E1
  3
UCSORTHOREF
350
DE
  3
UCSORTHOVIEW
350
DF
  3
VERSIONGUID
350
D3
  0
DICTIONARY
  5
E8
102
{ACAD_REACTORS
330
C
102
}
330
C
100
AcDbDictionary
  3
DIMASSOC
350
EB
  3
HIDETEXT
350
EC
  0
MATERIAL
  5
3D
102
{ACAD_REACTORS
330
3B
102
}
102
{ACAD_XDICTIONARY
360
EF
102
}
330
3B
100
AcDbMaterial
  1
ByBlock
  0
MATERIAL
  5
3C
102
{ACAD_REACTORS
330
3B
102
}
102
{ACAD_XDICTIONARY
360
ED
102
}
330
3B
100
AcDbMaterial
  1
ByLayer
  0
MATERIAL
  5
3E
102
{ACAD_REACTORS
330
3B
102
}
102
{ACAD_XDICTIONARY
360
F1
102
}
330
3B
100
AcDbMaterial
  1
Global
  0
MLINESTYLE
  5
18
102
{ACAD_REACTORS
330
17
102
}
330
17
100
AcDbMlineStyle
  2
Standard
 70
     0
  3

 62
   256
 51
90.0
 52
90.0
 71
     2
 49
0.5
 62
   256
  6
BYLAYER
 49
-0.5
 62
   256
  6
BYLAYER
  0
ACAD_PROXY_OBJECT
  5
2F
102
{ACAD_REACTORS
330
2A
102
}
330
2A
100
AcDbProxyObject
 90
      499
 91
      501
 93
      436
310
42CC9915DA5C99599C985B595049028333333333333E3BF0000000000000FB0107901411070040501600405405064090741402480A0340
1001
ACAD
1000
AcDbSavedByObjectVersion
1070
     0
  0
ACAD_PROXY_OBJECT
  5
30
102
{ACAD_REACTORS
330
2A
102
}
330
2A
100
AcDbProxyObject
 90
      499
 91
      501
 93
      436
310
42CCD915DA5C99599C985B595059028333333333333E3BF0000000000000FB0107901411070040501600405405064090741402480A0340
1001
ACAD
1000
AcDbSavedByObjectVersion
1070
     0
  0
ACAD_PROXY_OBJECT
  5
31
102
{ACAD_REACTORS
330
2A
102
}
330
2A
100
AcDbProxyObject
 90
      499
 91
      501
 93
      500
310
424CD108121A5919195B90640502408333333333333E3BF0000000000000FB01079024090700405020000000000001110200405405064090740C02480A0340
1001
ACAD
1000
AcDbSavedByObjectVersion
1070
     0
  0
ACAD_PROXY_OBJECT
  5
32
102
{ACAD_REACTORS
330
2A
102
}
330
2A
100
AcDbProxyObject
 90
      499
 91
      501
 93
      388
310
4150985CDA58D07406404333333333333E3BF0000000000000FB0107A41107004050150841D405064090741402480A0350
1001
ACAD
1000
AcDbSavedByObjectVersion
1070
     0
  0
ACAD_PROXY_OBJECT
  5
36
102
{ACAD_REACTORS
330
2A
102
}
330
2A
100
AcDbProxyObject
 90
      499
 91
      501
 93
      428
310
42109C9A59DA1D195B90C409028333333333333E3BF0000000000000FB010790141107004050150841D405064090741402480A029950
1001
ACAD
1000
AcDbSavedByObjectVersion
1070
     0
  0
ACAD_PROXY_OBJECT
  5
3A
102
{ACAD_REACTORS
330
2A
102
}
330
2A
100
AcDbProxyObject
 90
      499
 91
      501
 93
      452
310
42D0DBDB1BDC90DA185B99D95104090240C333333333333E3BF0000000000000FB0108901411070040501508421405064090741402480A0350
1001
ACAD
1000
AcDbSavedByObjectVersion
1070
     0
  0
ACAD_PROXY_OBJECT
  5
34
102
{ACAD_REACTORS
330
2A
102
}
330
2A
100
AcDbProxyObject
 90
      499
 91
      501
 93
      500
310
4290DBDB98D95C1D1D585B10940D028333333333333E3BF0000000000000FB0107902409070040501000000000000111010841D405064090740C02480A0340
1001
ACAD
1000
AcDbSavedByObjectVersion
1070
     0
  0
ACAD_PROXY_OBJECT
  5
35
102
{ACAD_REACTORS
330
2A
102
}
330
2A
100
AcDbProxyObject
 90
      499
 91
      501
 93
      412
310
40D11A5B50B409028333333333333E3BF0000000000000FB010790141107004050150841D405064090741402480A02677FFFFFD0
1001
ACAD
1000
AcDbSavedByObjectVersion
1070
     0
  0
ACAD_PROXY_OBJECT
  5
39
102
{ACAD_REACTORS
330
2A
102
}
330
2A
100
AcDbProxyObject
 90
      499
 91
      501
 93
      444
310
42D19858D95C185D1D195C9B90F409028333333333333E3BF0000000000000FB010790141107004050150841D405064090741402480A0350
1001
ACAD
1000
AcDbSavedByObjectVersion
1070
     0
  0
ACAD_PROXY_OBJECT
  5
2B
102
{ACAD_REACTORS
330
2A
102
}
330
2A
100
AcDbProxyObject
 90
      499
 91
      501
 93
      388
310
41119B185D240901404333333333333E3BF0000000000000F9010740A41107004050150841D405064090741402480A1B50
1001
ACAD
1000
AcDbSavedByObjectVersion
1070
     0
  0
ACAD_PROXY_OBJECT
  5
2C
102
{ACAD_REACTORS
330
2A
102
}
330
2A
100
AcDbProxyObject
 90
      499
 91
      501
 93
      476
310
43519B185D15DA5D1A115919D95CD0140901404333333333333E3BF0000000000000F9010740901411070040501600405405064090741402480A1B50
1001
ACAD
1000
AcDbSavedByObjectVersion
1070
     0
  0
ACAD_PROXY_OBJECT
  5
2D
102
{ACAD_REACTORS
330
2A
102
}
330
2A
100
AcDbProxyObject
 90
      499
 91
      501
 93
      412
310
41D1DBDD5C985D5910240902404333333333333E3BF0000000000000F9010740A411070040501641D405064090741402480A1B50
1001
ACAD
1000
AcDbSavedByObjectVersion
1070
     0
  0
ACAD_PROXY_OBJECT
  5
2E
102
{ACAD_REACTORS
330
2A
102
}
330
2A
100
AcDbProxyObject
 90
      499
 91
      501
 93
      500
310
4411DBDD5C985D5915DA5D1A115919D95CD0340902404333333333333E3BF0000000000000F9010740901411070040501600405405064090741402480A1B50
1001
ACAD
1000
AcDbSavedByObjectVersion
1070
     0
  0
ACAD_PROXY_OBJECT
  5
38
102
{ACAD_REACTORS
330
2A
102
}
330
2A
100
AcDbProxyObject
 90
      499
 91
      501
 93
      444
310
42D31A5B995C185D1D195C9B90E409028333333333333E3BF0000000000000FB010790141107004050750841D405064090741402483A0350
1001
ACAD
1000
AcDbSavedByObjectVersion
1070
     0
  0
ACAD_PROXY_OBJECT
  5
33
102
{ACAD_REACTORS
330
2A
102
}
330
2A
100
AcDbProxyObject
 90
      499
 91
      501
 93
      420
310
425499585B1A5CDD1A58D08409028333333333333E3BF0000000000000FB01079019070040501508421405064090741402480A1B40
1001
ACAD
1000
AcDbSavedByObjectVersion
1070
     0
  0
ACAD_PROXY_OBJECT
  5
37
102
{ACAD_REACTORS
330
2A
102
}
330
2A
100
AcDbProxyObject
 90
      499
 91
      501
 93
      412
310
41D51A1A58DAD95B90D409028333333333333E3BF0000000000000FB010790141107004050150C41D405064090741402480A0350
1001
ACAD
1000
AcDbSavedByObjectVersion
1070
     0
  0
XRECORD
  5
D1
102
{ACAD_REACTORS
330
C8
102
}
330
C8
100
AcDbXrecord
 90
        0
  0
XRECORD
  5
E7
102
{ACAD_REACTORS
330
C8
102
}
330
C8
100
AcDbXrecord
1000
DSTYLE
1002
{
1070
   340
340
11
1002
}
  0
XRECORD
  5
D2
102
{ACAD_REACTORS
330
C8
102
}
330
C8
100
AcDbXrecord
  1
{342749D4-9FA9-50F3-3166-6648824F47EA}
  0
XRECORD
  5
CB
102
{ACAD_REACTORS
330
C8
102
}
330
C8
100
AcDbXrecord
  1

  0
XRECORD
  5
D0
102
{ACAD_REACTORS
330
C8
102
}
330
C8
100
AcDbXrecord
 90
        4
  0
XRECORD
  5
CD
102
{ACAD_REACTORS
330
C8
102
}
330
C8
100
AcDbXrecord
340
1A
  0
XRECORD
  5
CF
102
{ACAD_REACTORS
330
C8
102
}
330
C8
100
AcDbXrecord
 90
    10269
  0
XRECORD
  5
CE
102
{ACAD_REACTORS
330
C8
102
}
330
C8
100
AcDbXrecord
340
19
  0
XRECORD
  5
D4
102
{ACAD_REACTORS
330
C8
102
}
330
C8
100
AcDbXrecord
 40
0.0
  0
XRECORD
  5
D7
102
{ACAD_REACTORS
330
C8
102
}
330
C8
100
AcDbXrecord
340
0
  0
XRECORD
  5
DD
102
{ACAD_REACTORS
330
C8
102
}
330
C8
100
AcDbXrecord
 10
0.0
 20
0.0
 30
0.0
  0
XRECORD
  5
D9
102
{ACAD_REACTORS
330
C8
102
}
330
C8
100
AcDbXrecord
 10
0.0
 20
0.0
 30
0.0
  0
XRECORD
  5
DC
102
{ACAD_REACTORS
330
C8
102
}
330
C8
100
AcDbXrecord
 10
0.0
 20
0.0
 30
0.0
  0
XRECORD
  5
DA
102
{ACAD_REACTORS
330
C8
102
}
330
C8
100
AcDbXrecord
 10
0.0
 20
0.0
 30
0.0
  0
XRECORD
  5
DB
102
{ACAD_REACTORS
330
C8
102
}
330
C8
100
AcDbXrecord
 10
0.0
 20
0.0
 30
0.0
  0
XRECORD
  5
D8
102
{ACAD_REACTORS
330
C8
102
}
330
C8
100
AcDbXrecord
 10
0.0
 20
0.0
 30
0.0
  0
XRECORD
  5
D5
102
{ACAD_REACTORS
330
C8
102
}
330
C8
100
AcDbXrecord
340
0
  0
XRECORD
  5
D6
102
{ACAD_REACTORS
330
C8
102
}
330
C8
100
AcDbXrecord
 70
     0
  0
XRECORD
  5
CC
102
{ACAD_REACTORS
330
C8
102
}
330
C8
100
AcDbXrecord
  1

  0
XRECORD
  5
C9
102
{ACAD_REACTORS
330
C8
102
}
330
C8
100
AcDbXrecord
 90
        1
  0
XRECORD
  5
CA
102
{ACAD_REACTORS
330
C8
102
}
330
C8
100
AcDbXrecord
 90
       70
  0
XRECORD
  5
E0
102
{ACAD_REACTORS
330
C8
102
}
330
C8
100
AcDbXrecord
340
0
  0
XRECORD
  5
E6
102
{ACAD_REACTORS
330
C8
102
}
330
C8
100
AcDbXrecord
 10
0.0
 20
0.0
 30
0.0
  0
XRECORD
  5
E2
102
{ACAD_REACTORS
330
C8
102
}
330
C8
100
AcDbXrecord
 10
0.0
 20
0.0
 30
0.0
  0
XRECORD
  5
E5
102
{ACAD_REACTORS
330
C8
102
}
330
C8
100
AcDbXrecord
 10
0.0
 20
0.0
 30
0.0
  0
XRECORD
  5
E3
102
{ACAD_REACTORS
330
C8
102
}
330
C8
100
AcDbXrecord
 10
0.0
 20
0.0
 30
0.0
  0
XRECORD
  5
E4
102
{ACAD_REACTORS
330
C8
102
}
330
C8
100
AcDbXrecord
 10
0.0
 20
0.0
 30
0.0
  0
XRECORD
  5
E1
102
{ACAD_REACTORS
330
C8
102
}
330
C8
100
AcDbXrecord
 10
0.0
 20
0.0
 30
0.0
  0
XRECORD
  5
DE
102
{ACAD_REACTORS
330
C8
102
}
330
C8
100
AcDbXrecord
340
0
  0
XRECORD
  5
DF
102
{ACAD_REACTORS
330
C8
102
}
330
C8
100
AcDbXrecord
 70
     0
  0
XRECORD
  5
D3
102
{ACAD_REACTORS
330
C8
102
}
330
C8
100
AcDbXrecord
  1
{FAEB1C32-E019-11D5-929B-00C0DF256EC4}
  0
DICTIONARYVAR
  5
EB
102
{ACAD_REACTORS
330
E8
102
}
330
E8
100
DictionaryVariables
280
     0
  1
2
  0
DICTIONARYVAR
  5
EC
102
{ACAD_REACTORS
330
E8
102
}
330
E8
100
DictionaryVariables
280
     0
  1
1
  0
DICTIONARY
  5
EF
330
3D
100
AcDbDictionary
280
     1
  3
ACAD_XREC_ROUNDTRIP
360
F0
  0
DICTIONARY
  5
ED
330
3C
100
AcDbDictionary
280
     1
  3
ACAD_XREC_ROUNDTRIP
360
EE
  0
DICTIONARY
  5
F1
330
3E
100
AcDbDictionary
280
     1
  3
ACAD_XREC_ROUNDTRIP
360
F2
  0
XRECORD
  5
F0
102
{ACAD_REACTORS
330
EF
102
}
330
EF
100
AcDbXrecord
102
MATERIAL
148
0.0
149
0.0
149
0.0
 93
        0
 94
      127
282
     0
 72
     1
 77
     1
171
     1
175
     1
179
     1
273
     0
  0
XRECORD
  5
EE
102
{ACAD_REACTORS
330
ED
102
}
330
ED
100
AcDbXrecord
102
MATERIAL
148
0.0
149
0.0
149
0.0
 93
        0
 94
      127
282
     0
 72
     1
 77
     1
171
     1
175
     1
179
     1
273
     0
  0
XRECORD
  5
F2
102
{ACAD_REACTORS
330
F1
102
}
330
F1
100
AcDbXrecord
102
MATERIAL
148
0.0
149
0.0
149
0.0
 93
        0
 94
      127
282
     0
 72
     1
 77
     1
171
     1
175
     1
179
     1
273
     0
  0
ENDSEC
  0
EOF
