  0
SECTION
  2
HEADER
  9
$ACADVER
  1
AC1014
  9
$ACADMAINTVER
 70
     9
  9
$DWGCODEPAGE
  3
UNDEFINED
  9
$INSBASE
 10
0.0
 20
0.0
 30
0.0
  9
$EXTMIN
 10
1.000000000000000E+20
 20
1.000000000000000E+20
 30
1.000000000000000E+20
  9
$EXTMAX
 10
-1.000000000000000E+20
 20
-1.000000000000000E+20
 30
-1.000000000000000E+20
  9
$LIMMIN
 10
0.0
 20
0.0
  9
$LIMMAX
 10
12.0
 20
9.0
  9
$ORTHOMODE
 70
     0
  9
$REGENMODE
 70
     1
  9
$FILLMODE
 70
     1
  9
$QTEXTMODE
 70
     0
  9
$MIRRTEXT
 70
     1
  9
$DRAGMODE
 70
     2
  9
$LTSCALE
 40
1.0
  9
$OSMODE
 70
    37
  9
$ATTMODE
 70
     1
  9
$TEXTSIZE
 40
0.2
  9
$TRACEWID
 40
0.05
  9
$TEXTSTYLE
  7
STANDARD
  9
$CLAYER
  8
0
  9
$CELTYPE
  6
BYLAYER
  9
$CECOLOR
 62
   256
  9
$CELTSCALE
 40
1.0
  9
$DELOBJ
 70
     1
  9
$DISPSILH
 70
     0
  9
$DIMSCALE
 40
1.0
  9
$DIMASZ
 40
0.18
  9
$DIMEXO
 40
0.0625
  9
$DIMDLI
 40
0.38
  9
$DIMRND
 40
0.0
  9
$DIMDLE
 40
0.0
  9
$DIMEXE
 40
0.18
  9
$DIMTP
 40
0.0
  9
$DIMTM
 40
0.0
  9
$DIMTXT
 40
0.18
  9
$DIMCEN
 40
0.09
  9
$DIMTSZ
 40
0.0
  9
$DIMTOL
 70
     0
  9
$DIMLIM
 70
     0
  9
$DIMTIH
 70
     1
  9
$DIMTOH
 70
     1
  9
$DIMSE1
 70
     0
  9
$DIMSE2
 70
     0
  9
$DIMTAD
 70
     0
  9
$DIMZIN
 70
     0
  9
$DIMBLK
  1

  9
$DIMASO
 70
     1
  9
$DIMSHO
 70
     1
  9
$DIMPOST
  1

  9
$DIMAPOST
  1

  9
$DIMALT
 70
     0
  9
$DIMALTD
 70
     2
  9
$DIMALTF
 40
25.4
  9
$DIMLFAC
 40
1.0
  9
$DIMTOFL
 70
     0
  9
$DIMTVP
 40
0.0
  9
$DIMTIX
 70
     0
  9
$DIMSOXD
 70
     0
  9
$DIMSAH
 70
     0
  9
$DIMBLK1
  1

  9
$DIMBLK2
  1

  9
$DIMSTYLE
  2
STANDARD
  9
$DIMCLRD
 70
     0
  9
$DIMCLRE
 70
     0
  9
$DIMCLRT
 70
     0
  9
$DIMTFAC
 40
1.0
  9
$DIMGAP
 40
0.09
  9
$DIMJUST
 70
     0
  9
$DIMSD1
 70
     0
  9
$DIMSD2
 70
     0
  9
$DIMTOLJ
 70
     1
  9
$DIMTZIN
 70
     0
  9
$DIMALTZ
 70
     0
  9
$DIMALTTZ
 70
     0
  9
$DIMFIT
 70
     3
  9
$DIMUPT
 70
     0
  9
$DIMUNIT
 70
     2
  9
$DIMDEC
 70
     4
  9
$DIMTDEC
 70
     4
  9
$DIMALTU
 70
     2
  9
$DIMALTTD
 70
     2
  9
$DIMTXSTY
  7
STANDARD
  9
$DIMAUNIT
 70
     0
  9
$LUNITS
 70
     2
  9
$LUPREC
 70
     4
  9
$SKETCHINC
 40
0.1
  9
$FILLETRAD
 40
0.5
  9
$AUNITS
 70
     0
  9
$AUPREC
 70
     0
  9
$MENU
  1
.
  9
$ELEVATION
 40
0.0
  9
$PELEVATION
 40
0.0
  9
$THICKNESS
 40
0.0
  9
$LIMCHECK
 70
     0
  9
$CHAMFERA
 40
0.5
  9
$CHAMFERB
 40
0.5
  9
$CHAMFERC
 40
1.0
  9
$CHAMFERD
 40
0.0
  9
$SKPOLY
 70
     0
  9
$TDCREATE
 40
2458968.635752303
  9
$TDUPDATE
 40
2458968.635752303
  9
$TDINDWG
 40
0.0000000116
  9
$TDUSRTIMER
 40
0.0000000116
  9
$USRTIMER
 70
     1
  9
$ANGBASE
 50
0.0
  9
$ANGDIR
 70
     0
  9
$PDMODE
 70
     0
  9
$PDSIZE
 40
0.0
  9
$PLINEWID
 40
0.0
  9
$COORDS
 70
     1
  9
$SPLFRAME
 70
     0
  9
$SPLINETYPE
 70
     6
  9
$SPLINESEGS
 70
     8
  9
$ATTDIA
 70
     0
  9
$ATTREQ
 70
     1
  9
$HANDLING
 70
     1
  9
$HANDSEED
  5
183
  9
$SURFTAB1
 70
     6
  9
$SURFTAB2
 70
     6
  9
$SURFTYPE
 70
     6
  9
$SURFU
 70
     6
  9
$SURFV
 70
     6
  9
$UCSNAME
  2

  9
$UCSORG
 10
0.0
 20
0.0
 30
0.0
  9
$UCSXDIR
 10
1.0
 20
0.0
 30
0.0
  9
$UCSYDIR
 10
0.0
 20
1.0
 30
0.0
  9
$PUCSNAME
  2

  9
$PUCSORG
 10
0.0
 20
0.0
 30
0.0
  9
$PUCSXDIR
 10
1.0
 20
0.0
 30
0.0
  9
$PUCSYDIR
 10
0.0
 20
1.0
 30
0.0
  9
$USERI1
 70
     0
  9
$USERI2
 70
     0
  9
$USERI3
 70
     0
  9
$USERI4
 70
     0
  9
$USERI5
 70
     0
  9
$USERR1
 40
0.0
  9
$USERR2
 40
0.0
  9
$USERR3
 40
0.0
  9
$USERR4
 40
0.0
  9
$USERR5
 40
0.0
  9
$WORLDVIEW
 70
     1
  9
$SHADEDGE
 70
     3
  9
$SHADEDIF
 70
    70
  9
$TILEMODE
 70
     1
  9
$MAXACTVP
 70
    64
  9
$PINSBASE
 10
0.0
 20
0.0
 30
0.0
  9
$PLIMCHECK
 70
     0
  9
$PEXTMIN
 10
1.000000000000000E+20
 20
1.000000000000000E+20
 30
1.000000000000000E+20
  9
$PEXTMAX
 10
-1.000000000000000E+20
 20
-1.000000000000000E+20
 30
-1.000000000000000E+20
  9
$PLIMMIN
 10
0.0
 20
0.0
  9
$PLIMMAX
 10
12.0
 20
9.0
  9
$UNITMODE
 70
     0
  9
$VISRETAIN
 70
     1
  9
$PLINEGEN
 70
     0
  9
$PSLTSCALE
 70
     1
  9
$TREEDEPTH
 70
  3020
  9
$PICKSTYLE
 70
     1
  9
$CMLSTYLE
  2
STANDARD
  9
$CMLJUST
 70
     0
  9
$CMLSCALE
 40
1.0
  9
$PROXYGRAPHICS
 70
     1
  9
$MEASUREMENT
 70
     0
  0
ENDSEC
  0
SECTION
  2
CLASSES
  0
CLASS
  1
ACDBDICTIONARYWDFLT
  2
AcDbDictionaryWithDefault
  3
ObjectDBX Classes
 90
        0
280
     0
281
     0
  0
CLASS
  1
VISUALSTYLE
  2
AcDbVisualStyle
  3
ObjectDBX Classes
 90
     4095
280
     0
281
     0
  0
CLASS
  1
MATERIAL
  2
AcDbMaterial
  3
ObjectDBX Classes
 90
     1153
280
     0
281
     0
  0
CLASS
  1
SUN
  2
AcDbSun
  3
SCENEOE
 90
     1024
280
     0
281
     0
  0
CLASS
  1
DICTIONARYVAR
  2
AcDbDictionaryVar
  3
ObjectDBX Classes
 90
        0
280
     0
281
     0
  0
CLASS
  1
XRECORD
  2
AcDbXrecord
  3
AutoCAD 2000
 90
        0
280
     0
281
     0
  0
CLASS
  1
LWPOLYLINE
  2
AcDbPolyline
  3
AutoCAD 2000
 90
        0
280
     0
281
     1
  0
CLASS
  1
HATCH
  2
AcDbHatch
  3
AutoCAD 2000
 90
        0
280
     0
281
     1
  0
CLASS
  1
ACDBPLACEHOLDER
  2
AcDbPlaceHolder
  3
ObjectDBX Classes
 90
        0
280
     0
281
     0
  0
CLASS
  1
LAYOUT
  2
AcDbLayout
  3
ObjectDBX Classes
 90
        0
280
     0
281
     0
  0
ENDSEC
  0
SECTION
  2
TABLES
  0
TABLE
  2
VPORT
  5
8
330
0
100
AcDbSymbolTable
 70
     1
  0
VPORT
  5
29
330
8
100
AcDbSymbolTableRecord
100
AcDbViewportTableRecord
  2
*ACTIVE
 70
     0
 10
0.0
 20
0.0
 11
1.0
 21
1.0
 12
0.0
 22
0.0
 13
0.0
 23
0.0
 14
0.5
 24
0.5
 15
0.5
 25
0.5
 16
0.0
 26
0.0
 36
1.0
 17
104.9999989878935
 27
148.4996183011652
 37
0.0
 40
297.0000052006764
 41
0.7070706878738762
 42
50.0
 43
0.0
 44
0.0
 50
0.0
 51
0.0
 71
     0
 72
   100
 73
     1
 74
     3
 75
     0
 76
     0
 77
     0
 78
     0
  0
ENDTAB
  0
TABLE
  2
LTYPE
  5
5
330
0
100
AcDbSymbolTable
 70
     1
  0
LTYPE
  5
14
330
5
100
AcDbSymbolTableRecord
100
AcDbLinetypeTableRecord
  2
BYBLOCK
 70
     0
  3

 72
    65
 73
     0
 40
0.0
  0
LTYPE
  5
15
330
5
100
AcDbSymbolTableRecord
100
AcDbLinetypeTableRecord
  2
BYLAYER
 70
     0
  3

 72
    65
 73
     0
 40
0.0
  0
LTYPE
  5
16
330
5
100
AcDbSymbolTableRecord
100
AcDbLinetypeTableRecord
  2
CONTINUOUS
 70
     0
  3
Solid line
 72
    65
 73
     0
 40
0.0
  0
ENDTAB
  0
TABLE
  2
LAYER
  5
2
330
0
100
AcDbSymbolTable
 70
    12
  0
LAYER
  5
10
330
2
100
AcDbSymbolTableRecord
100
AcDbLayerTableRecord
  2
0
 70
     0
 62
     7
  6
CONTINUOUS
  0
LAYER
  5
40
330
2
100
AcDbSymbolTableRecord
100
AcDbLayerTableRecord
  2
OUTLINE
 70
     5
 62
     7
  6
CONTINUOUS
  0
LAYER
  5
41
330
2
100
AcDbSymbolTableRecord
100
AcDbLayerTableRecord
  2
OUTLINE_U_306E_U_30B3_U_30
 70
     4
 62
     7
  6
CONTINUOUS
  0
LAYER
  5
42
330
2
100
AcDbSymbolTableRecord
100
AcDbLayerTableRecord
  2
L2-SILK
 70
     5
 62
     7
  6
CONTINUOUS
  0
LAYER
  5
43
330
2
100
AcDbSymbolTableRecord
100
AcDbLayerTableRecord
  2
L2-PATTERN
 70
     5
 62
     7
  6
CONTINUOUS
  0
LAYER
  5
44
330
2
100
AcDbSymbolTableRecord
100
AcDbLayerTableRecord
  2
L2-RESIST
 70
     5
 62
     7
  6
CONTINUOUS
  0
LAYER
  5
45
330
2
100
AcDbSymbolTableRecord
100
AcDbLayerTableRecord
  2
L1-PATTERN
 70
     5
 62
     7
  6
CONTINUOUS
  0
LAYER
  5
46
330
2
100
AcDbSymbolTableRecord
100
AcDbLayerTableRecord
  2
L1-RESIST
 70
     5
 62
     7
  6
CONTINUOUS
  0
LAYER
  5
47
330
2
100
AcDbSymbolTableRecord
100
AcDbLayerTableRecord
  2
L1-SILK
 70
     5
 62
     7
  6
CONTINUOUS
  0
LAYER
  5
48
330
2
100
AcDbSymbolTableRecord
100
AcDbLayerTableRecord
  2
DRILL
 70
     5
 62
     7
  6
CONTINUOUS
  0
LAYER
  5
49
330
2
100
AcDbSymbolTableRecord
100
AcDbLayerTableRecord
  2
HANE
 70
     0
 62
     7
  6
CONTINUOUS
  0
LAYER
  5
4A
330
2
100
AcDbSymbolTableRecord
100
AcDbLayerTableRecord
  2
L2-RESIST_U_306E_U_30B3_U_
 70
     0
 62
     7
  6
CONTINUOUS
  0
ENDTAB
  0
TABLE
  2
STYLE
  5
3
330
0
100
AcDbSymbolTable
 70
     1
  0
STYLE
  5
11
330
3
100
AcDbSymbolTableRecord
100
AcDbTextStyleTableRecord
  2
STANDARD
 70
     0
 40
0.0
 41
1.0
 50
0.0
 71
     0
 42
0.2
  3
txt
  4

  0
ENDTAB
  0
TABLE
  2
VIEW
  5
6
330
0
100
AcDbSymbolTable
 70
     0
  0
ENDTAB
  0
TABLE
  2
UCS
  5
7
330
0
100
AcDbSymbolTable
 70
     0
  0
ENDTAB
  0
TABLE
  2
APPID
  5
9
330
0
100
AcDbSymbolTable
 70
     1
  0
APPID
  5
12
330
9
100
AcDbSymbolTableRecord
100
AcDbRegAppTableRecord
  2
ACAD
 70
     0
  0
ENDTAB
  0
TABLE
  2
DIMSTYLE
  5
A
330
0
100
AcDbSymbolTable
 70
     1
  0
DIMSTYLE
105
27
330
A
100
AcDbSymbolTableRecord
100
AcDbDimStyleTableRecord
  2
STANDARD
 70
     0
  3

  4

  5

  6

  7

 40
1.0
 41
0.18
 42
0.0625
 43
0.38
 44
0.18
 45
0.0
 46
0.0
 47
0.0
 48
0.0
140
0.18
141
0.09
142
0.0
143
25.4
144
1.0
145
0.0
146
1.0
147
0.09
 71
     0
 72
     0
 73
     1
 74
     1
 75
     0
 76
     0
 77
     0
 78
     0
170
     0
171
     2
172
     0
173
     0
174
     0
175
     0
176
     0
177
     0
178
     0
270
     2
271
     4
272
     4
273
     2
274
     2
340
11
275
     0
280
     0
281
     0
282
     0
283
     1
284
     0
285
     0
286
     0
287
     3
288
     0
  0
ENDTAB
  0
TABLE
  2
BLOCK_RECORD
  5
1
330
0
100
AcDbSymbolTable
 70
     1
  0
BLOCK_RECORD
  5
1F
330
1
100
AcDbSymbolTableRecord
100
AcDbBlockTableRecord
  2
*MODEL_SPACE
  0
BLOCK_RECORD
  5
1B
330
1
100
AcDbSymbolTableRecord
100
AcDbBlockTableRecord
  2
*PAPER_SPACE
  0
ENDTAB
  0
ENDSEC
  0
SECTION
  2
BLOCKS
  0
BLOCK
  5
20
330
1F
100
AcDbEntity
  8
0
100
AcDbBlockBegin
  2
*MODEL_SPACE
 70
     0
 10
0.0
 20
0.0
 30
0.0
  3
*MODEL_SPACE
  1

  0
ENDBLK
  5
21
330
1F
100
AcDbEntity
  8
0
100
AcDbBlockEnd
  0
BLOCK
  5
1C
330
1B
100
AcDbEntity
 67
     1
  8
0
100
AcDbBlockBegin
  2
*PAPER_SPACE
 70
     0
 10
0.0
 20
0.0
 30
0.0
  3
*PAPER_SPACE
  1

  0
ENDBLK
  5
1D
330
1B
100
AcDbEntity
 67
     1
  8
0
100
AcDbBlockEnd
  0
ENDSEC
  0
SECTION
  2
ENTITIES
  0
POLYLINE
  5
4B
330
1F
100
AcDbEntity
  8
L2-RESIST_U_306E_U_30B3_U_
100
AcDb2dPolyline
 66
     1
 10
0.0
 20
0.0
 30
0.0
  0
VERTEX
  5
4C
330
4B
100
AcDbEntity
  8
L2-RESIST_U_306E_U_30B3_U_
100
AcDbVertex
100
AcDb2dVertex
 10
35.26698637338324
 20
66.81306238228477
 30
0.0
  0
VERTEX
  5
4D
330
4B
100
AcDbEntity
  8
L2-RESIST_U_306E_U_30B3_U_
100
AcDbVertex
100
AcDb2dVertex
 10
35.26567020913723
 20
66.83773181470676
 30
0.0
  0
VERTEX
  5
4E
330
4B
100
AcDbEntity
  8
L2-RESIST_U_306E_U_30B3_U_
100
AcDbVertex
100
AcDb2dVertex
 10
35.26440117379634
 20
66.86238347043609
 30
0.0
  0
VERTEX
  5
4F
330
4B
100
AcDbEntity
  8
L2-RESIST_U_306E_U_30B3_U_
100
AcDbVertex
100
AcDb2dVertex
 10
35.26315032855918
 20
66.88699957278072
 30
0.0
  0
VERTEX
  5
50
330
4B
100
AcDbEntity
  8
L2-RESIST_U_306E_U_30B3_U_
100
AcDbVertex
100
AcDb2dVertex
 10
35.2618887346244
 20
66.91156234504929
 30
0.0
  0
VERTEX
  5
51
330
4B
100
AcDbEntity
  8
L2-RESIST_U_306E_U_30B3_U_
100
AcDbVertex
100
AcDb2dVertex
 10
35.26058745319064
 20
66.93605401054847
 30
0.0
  0
VERTEX
  5
52
330
4B
100
AcDbEntity
  8
L2-RESIST_U_306E_U_30B3_U_
100
AcDbVertex
100
AcDb2dVertex
 10
35.25921754545652
 20
66.96045679258624
 30
0.0
  0
VERTEX
  5
53
330
4B
100
AcDbEntity
  8
L2-RESIST_U_306E_U_30B3_U_
100
AcDbVertex
100
AcDb2dVertex
 10
35.25775007262068
 20
66.98475291446995
 30
0.0
  0
VERTEX
  5
54
330
4B
100
AcDbEntity
  8
L2-RESIST_U_306E_U_30B3_U_
100
AcDbVertex
100
AcDb2dVertex
 10
35.25615609588176
 20
67.0089245995082
 30
0.0
  0
VERTEX
  5
55
330
4B
100
AcDbEntity
  8
L2-RESIST_U_306E_U_30B3_U_
100
AcDbVertex
100
AcDb2dVertex
 10
35.25281393993399
 20
67.05998973275376
 30
0.0
  0
VERTEX
  5
56
330
4B
100
AcDbEntity
  8
L2-RESIST_U_306E_U_30B3_U_
100
AcDbVertex
100
AcDb2dVertex
 10
35.24927582695999
 20
67.11089280871218
 30
0.0
  0
VERTEX
  5
57
330
4B
100
AcDbEntity
  8
L2-RESIST_U_306E_U_30B3_U_
100
AcDbVertex
100
AcDb2dVertex
 10
35.24555085201179
 20
67.16166690029848
 30
0.0
  0
VERTEX
  5
58
330
4B
100
AcDbEntity
  8
L2-RESIST_U_306E_U_30B3_U_
100
AcDbVertex
100
AcDb2dVertex
 10
35.24164811014078
 20
67.21234508042899
 30
0.0
  0
VERTEX
  5
59
330
4B
100
AcDbEntity
  8
L2-RESIST_U_306E_U_30B3_U_
100
AcDbVertex
100
AcDb2dVertex
 10
35.23757669639932
 20
67.26296042201999
 30
0.0
  0
VERTEX
  5
5A
330
4B
100
AcDbEntity
  8
L2-RESIST_U_306E_U_30B3_U_
100
AcDbVertex
100
AcDb2dVertex
 10
35.23334570583879
 20
67.31354599798651
 30
0.0
  0
VERTEX
  5
5B
330
4B
100
AcDbEntity
  8
L2-RESIST_U_306E_U_30B3_U_
100
AcDbVertex
100
AcDb2dVertex
 10
35.22896423351122
 20
67.36413488124485
 30
0.0
  0
VERTEX
  5
5C
330
4B
100
AcDbEntity
  8
L2-RESIST_U_306E_U_30B3_U_
100
AcDbVertex
100
AcDb2dVertex
 10
35.22444137446865
 20
67.41476014471068
 30
0.0
  0
VERTEX
  5
5D
330
4B
100
AcDbEntity
  8
L2-RESIST_U_306E_U_30B3_U_
100
AcDbVertex
100
AcDb2dVertex
 10
35.22262181288325
 20
67.43297360860147
 30
0.0
  0
VERTEX
  5
5E
330
4B
100
AcDbEntity
  8
L2-RESIST_U_306E_U_30B3_U_
100
AcDbVertex
100
AcDb2dVertex
 10
35.22089154817033
 20
67.45129927443882
 30
0.0
  0
VERTEX
  5
5F
330
4B
100
AcDbEntity
  8
L2-RESIST_U_306E_U_30B3_U_
100
AcDbVertex
100
AcDb2dVertex
 10
35.21920758553971
 20
67.46972117134044
 30
0.0
  0
VERTEX
  5
60
330
4B
100
AcDbEntity
  8
L2-RESIST_U_306E_U_30B3_U_
100
AcDbVertex
100
AcDb2dVertex
 10
35.21752693020061
 20
67.48822332842408
 30
0.0
  0
VERTEX
  5
61
330
4B
100
AcDbEntity
  8
L2-RESIST_U_306E_U_30B3_U_
100
AcDbVertex
100
AcDb2dVertex
 10
35.21580658736251
 20
67.50678977480747
 30
0.0
  0
VERTEX
  5
62
330
4B
100
AcDbEntity
  8
L2-RESIST_U_306E_U_30B3_U_
100
AcDbVertex
100
AcDb2dVertex
 10
35.21400356223494
 20
67.52540453960897
 30
0.0
  0
VERTEX
  5
63
330
4B
100
AcDbEntity
  8
L2-RESIST_U_306E_U_30B3_U_
100
AcDbVertex
100
AcDb2dVertex
 10
35.21207486002708
 20
67.54405165194635
 30
0.0
  0
VERTEX
  5
64
330
4B
100
AcDbEntity
  8
L2-RESIST_U_306E_U_30B3_U_
100
AcDbVertex
100
AcDb2dVertex
 10
35.20997748594877
 20
67.56271514093795
 30
0.0
  0
VERTEX
  5
65
330
4B
100
AcDbEntity
  8
L2-RESIST_U_306E_U_30B3_U_
100
AcDbVertex
100
AcDb2dVertex
 10
35.20303114009714
 20
67.62765415566463
 30
0.0
  0
VERTEX
  5
66
330
4B
100
AcDbEntity
  8
L2-RESIST_U_306E_U_30B3_U_
100
AcDbVertex
100
AcDb2dVertex
 10
35.19576770766533
 20
67.69239018537068
 30
0.0
  0
VERTEX
  5
67
330
4B
100
AcDbEntity
  8
L2-RESIST_U_306E_U_30B3_U_
100
AcDbVertex
100
AcDb2dVertex
 10
35.18819090935624
 20
67.75694514086338
 30
0.0
  0
VERTEX
  5
68
330
4B
100
AcDbEntity
  8
L2-RESIST_U_306E_U_30B3_U_
100
AcDbVertex
100
AcDb2dVertex
 10
35.18030446587245
 20
67.82134093294809
 30
0.0
  0
VERTEX
  5
69
330
4B
100
AcDbEntity
  8
L2-RESIST_U_306E_U_30B3_U_
100
AcDbVertex
100
AcDb2dVertex
 10
35.17211209791718
 20
67.88559947243273
 30
0.0
  0
VERTEX
  5
6A
330
4B
100
AcDbEntity
  8
L2-RESIST_U_306E_U_30B3_U_
100
AcDbVertex
100
AcDb2dVertex
 10
35.16361752619397
 20
67.94974267012395
 30
0.0
  0
VERTEX
  5
6B
330
4B
100
AcDbEntity
  8
L2-RESIST_U_306E_U_30B3_U_
100
AcDbVertex
100
AcDb2dVertex
 10
35.15482447140539
 20
68.01379243682776
 30
0.0
  0
VERTEX
  5
6C
330
4B
100
AcDbEntity
  8
L2-RESIST_U_306E_U_30B3_U_
100
AcDbVertex
100
AcDb2dVertex
 10
35.14573665425435
 20
68.07777068335078
 30
0.0
  0
VERTEX
  5
6D
330
4B
100
AcDbEntity
  8
L2-RESIST_U_306E_U_30B3_U_
100
AcDbVertex
100
AcDb2dVertex
 10
35.14183651617795
 20
68.10414240631135
 30
0.0
  0
VERTEX
  5
6E
330
4B
100
AcDbEntity
  8
L2-RESIST_U_306E_U_30B3_U_
100
AcDbVertex
100
AcDb2dVertex
 10
35.13778140430037
 20
68.13021936691011
 30
0.0
  0
VERTEX
  5
6F
330
4B
100
AcDbEntity
  8
L2-RESIST_U_306E_U_30B3_U_
100
AcDbVertex
100
AcDb2dVertex
 10
35.13361191554003
 20
68.15605737569149
 30
0.0
  0
VERTEX
  5
70
330
4B
100
AcDbEntity
  8
L2-RESIST_U_306E_U_30B3_U_
100
AcDbVertex
100
AcDb2dVertex
 10
35.12936864681628
 20
68.18171224320126
 30
0.0
  0
VERTEX
  5
71
330
4B
100
AcDbEntity
  8
L2-RESIST_U_306E_U_30B3_U_
100
AcDbVertex
100
AcDb2dVertex
 10
35.12509219504751
 20
68.2072397799845
 30
0.0
  0
VERTEX
  5
72
330
4B
100
AcDbEntity
  8
L2-RESIST_U_306E_U_30B3_U_
100
AcDbVertex
100
AcDb2dVertex
 10
35.12082315715245
 20
68.23269579658762
 30
0.0
  0
VERTEX
  5
73
330
4B
100
AcDbEntity
  8
L2-RESIST_U_306E_U_30B3_U_
100
AcDbVertex
100
AcDb2dVertex
 10
35.11660213004981
 20
68.25813610355506
 30
0.0
  0
VERTEX
  5
74
330
4B
100
AcDbEntity
  8
L2-RESIST_U_306E_U_30B3_U_
100
AcDbVertex
100
AcDb2dVertex
 10
35.11246971065862
 20
68.28361651143256
 30
0.0
  0
VERTEX
  5
75
330
4B
100
AcDbEntity
  8
L2-RESIST_U_306E_U_30B3_U_
100
AcDbVertex
100
AcDb2dVertex
 10
35.10591796603418
 20
68.32446569658926
 30
0.0
  0
VERTEX
  5
76
330
4B
100
AcDbEntity
  8
L2-RESIST_U_306E_U_30B3_U_
100
AcDbVertex
100
AcDb2dVertex
 10
35.09928684641177
 20
68.36526031143379
 30
0.0
  0
VERTEX
  5
77
330
4B
100
AcDbEntity
  8
L2-RESIST_U_306E_U_30B3_U_
100
AcDbVertex
100
AcDb2dVertex
 10
35.0925465861669
 20
68.40600531690481
 30
0.0
  0
VERTEX
  5
78
330
4B
100
AcDbEntity
  8
L2-RESIST_U_306E_U_30B3_U_
100
AcDbVertex
100
AcDb2dVertex
 10
35.08566741967574
 20
68.44670567393975
 30
0.0
  0
VERTEX
  5
79
330
4B
100
AcDbEntity
  8
L2-RESIST_U_306E_U_30B3_U_
100
AcDbVertex
100
AcDb2dVertex
 10
35.0786195813138
 20
68.48736634347539
 30
0.0
  0
VERTEX
  5
7A
330
4B
100
AcDbEntity
  8
L2-RESIST_U_306E_U_30B3_U_
100
AcDbVertex
100
AcDb2dVertex
 10
35.07137330545724
 20
68.52799228644913
 30
0.0
  0
VERTEX
  5
7B
330
4B
100
AcDbEntity
  8
L2-RESIST_U_306E_U_30B3_U_
100
AcDbVertex
100
AcDb2dVertex
 10
35.06389882648126
 20
68.56858846379903
 30
0.0
  0
VERTEX
  5
7C
330
4B
100
AcDbEntity
  8
L2-RESIST_U_306E_U_30B3_U_
100
AcDbVertex
100
AcDb2dVertex
 10
35.0561663787617
 20
68.60915983646123
 30
0.0
  0
VERTEX
  5
7D
330
4B
100
AcDbEntity
  8
L2-RESIST_U_306E_U_30B3_U_
100
AcDbVertex
100
AcDb2dVertex
 10
35.05099735762631
 20
68.63772546507238
 30
0.0
  0
VERTEX
  5
7E
330
4B
100
AcDbEntity
  8
L2-RESIST_U_306E_U_30B3_U_
100
AcDbVertex
100
AcDb2dVertex
 10
35.04581676097019
 20
68.66643330722228
 30
0.0
  0
VERTEX
  5
7F
330
4B
100
AcDbEntity
  8
L2-RESIST_U_306E_U_30B3_U_
100
AcDbVertex
100
AcDb2dVertex
 10
35.04059647681508
 20
68.69524698270217
 30
0.0
  0
VERTEX
  5
80
330
4B
100
AcDbEntity
  8
L2-RESIST_U_306E_U_30B3_U_
100
AcDbVertex
100
AcDb2dVertex
 10
35.03530839318272
 20
68.72413011130651
 30
0.0
  0
VERTEX
  5
81
330
4B
100
AcDbEntity
  8
L2-RESIST_U_306E_U_30B3_U_
100
AcDbVertex
100
AcDb2dVertex
 10
35.02992439809424
 20
68.75304631282586
 30
0.0
  0
VERTEX
  5
82
330
4B
100
AcDbEntity
  8
L2-RESIST_U_306E_U_30B3_U_
100
AcDbVertex
100
AcDb2dVertex
 10
35.02441637957171
 20
68.78195920705403
 30
0.0
  0
VERTEX
  5
83
330
4B
100
AcDbEntity
  8
L2-RESIST_U_306E_U_30B3_U_
100
AcDbVertex
100
AcDb2dVertex
 10
35.01875622563623
 20
68.81083241378289
 30
0.0
  0
VERTEX
  5
84
330
4B
100
AcDbEntity
  8
L2-RESIST_U_306E_U_30B3_U_
100
AcDbVertex
100
AcDb2dVertex
 10
35.01291582430956
 20
68.83962955280496
 30
0.0
  0
VERTEX
  5
85
330
4B
100
AcDbEntity
  8
L2-RESIST_U_306E_U_30B3_U_
100
AcDbVertex
100
AcDb2dVertex
 10
35.00523429510012
 20
68.87774539927157
 30
0.0
  0
VERTEX
  5
86
330
4B
100
AcDbEntity
  8
L2-RESIST_U_306E_U_30B3_U_
100
AcDbVertex
100
AcDb2dVertex
 10
34.99744155821125
 20
68.91573804912692
 30
0.0
  0
VERTEX
  5
87
330
4B
100
AcDbEntity
  8
L2-RESIST_U_306E_U_30B3_U_
100
AcDbVertex
100
AcDb2dVertex
 10
34.98955539033527
 20
68.95361329013058
 30
0.0
  0
VERTEX
  5
88
330
4B
100
AcDbEntity
  8
L2-RESIST_U_306E_U_30B3_U_
100
AcDbVertex
100
AcDb2dVertex
 10
34.98159356816421
 20
68.99137691004402
 30
0.0
  0
VERTEX
  5
89
330
4B
100
AcDbEntity
  8
L2-RESIST_U_306E_U_30B3_U_
100
AcDbVertex
100
AcDb2dVertex
 10
34.97357386839043
 20
69.02903469662621
 30
0.0
  0
VERTEX
  5
8A
330
4B
100
AcDbEntity
  8
L2-RESIST_U_306E_U_30B3_U_
100
AcDbVertex
100
AcDb2dVertex
 10
34.96551406770626
 20
69.0665924376386
 30
0.0
  0
VERTEX
  5
8B
330
4B
100
AcDbEntity
  8
L2-RESIST_U_306E_U_30B3_U_
100
AcDbVertex
100
AcDb2dVertex
 10
34.95743194280405
 20
69.10405592084143
 30
0.0
  0
VERTEX
  5
8C
330
4B
100
AcDbEntity
  8
L2-RESIST_U_306E_U_30B3_U_
100
AcDbVertex
100
AcDb2dVertex
 10
34.94934527037583
 20
69.1414309339949
 30
0.0
  0
VERTEX
  5
8D
330
4B
100
AcDbEntity
  8
L2-RESIST_U_306E_U_30B3_U_
100
AcDbVertex
100
AcDb2dVertex
 10
34.94312308815414
 20
69.16908085624986
 30
0.0
  0
VERTEX
  5
8E
330
4B
100
AcDbEntity
  8
L2-RESIST_U_306E_U_30B3_U_
100
AcDbVertex
100
AcDb2dVertex
 10
34.93696005123216
 20
69.1967365662644
 30
0.0
  0
VERTEX
  5
8F
330
4B
100
AcDbEntity
  8
L2-RESIST_U_306E_U_30B3_U_
100
AcDbVertex
100
AcDb2dVertex
 10
34.93083923720315
 20
69.2244038518
 30
0.0
  0
VERTEX
  5
90
330
4B
100
AcDbEntity
  8
L2-RESIST_U_306E_U_30B3_U_
100
AcDbVertex
100
AcDb2dVertex
 10
34.92474372366034
 20
69.25208850061622
 30
0.0
  0
VERTEX
  5
91
330
4B
100
AcDbEntity
  8
L2-RESIST_U_306E_U_30B3_U_
100
AcDbVertex
100
AcDb2dVertex
 10
34.91865658819698
 20
69.2797963004733
 30
0.0
  0
VERTEX
  5
92
330
4B
100
AcDbEntity
  8
L2-RESIST_U_306E_U_30B3_U_
100
AcDbVertex
100
AcDb2dVertex
 10
34.91256090840632
 20
69.3075330391314
 30
0.0
  0
VERTEX
  5
93
330
4B
100
AcDbEntity
  8
L2-RESIST_U_306E_U_30B3_U_
100
AcDbVertex
100
AcDb2dVertex
 10
34.90643976188159
 20
69.3353045043514
 30
0.0
  0
VERTEX
  5
94
330
4B
100
AcDbEntity
  8
L2-RESIST_U_306E_U_30B3_U_
100
AcDbVertex
100
AcDb2dVertex
 10
34.90027622621636
 20
69.36311648389285
 30
0.0
  0
VERTEX
  5
95
330
4B
100
AcDbEntity
  8
L2-RESIST_U_306E_U_30B3_U_
100
AcDbVertex
100
AcDb2dVertex
 10
34.89308981050776
 20
69.39247923867737
 30
0.0
  0
VERTEX
  5
96
330
4B
100
AcDbEntity
  8
L2-RESIST_U_306E_U_30B3_U_
100
AcDbVertex
100
AcDb2dVertex
 10
34.88577129537446
 20
69.42154144333985
 30
0.0
  0
VERTEX
  5
97
330
4B
100
AcDbEntity
  8
L2-RESIST_U_306E_U_30B3_U_
100
AcDbVertex
100
AcDb2dVertex
 10
34.87836695543566
 20
69.45034650608154
 30
0.0
  0
VERTEX
  5
98
330
4B
100
AcDbEntity
  8
L2-RESIST_U_306E_U_30B3_U_
100
AcDbVertex
100
AcDb2dVertex
 10
34.8709230653112
 20
69.478937835105
 30
0.0
  0
VERTEX
  5
99
330
4B
100
AcDbEntity
  8
L2-RESIST_U_306E_U_30B3_U_
100
AcDbVertex
100
AcDb2dVertex
 10
34.86348589962028
 20
69.50735883861208
 30
0.0
  0
VERTEX
  5
9A
330
4B
100
AcDbEntity
  8
L2-RESIST_U_306E_U_30B3_U_
100
AcDbVertex
100
AcDb2dVertex
 10
34.85610173298273
 20
69.53565292480403
 30
0.0
  0
VERTEX
  5
9B
330
4B
100
AcDbEntity
  8
L2-RESIST_U_306E_U_30B3_U_
100
AcDbVertex
100
AcDb2dVertex
 10
34.84881684001776
 20
69.56386350188403
 30
0.0
  0
VERTEX
  5
9C
330
4B
100
AcDbEntity
  8
L2-RESIST_U_306E_U_30B3_U_
100
AcDbVertex
100
AcDb2dVertex
 10
34.84167749534488
 20
69.59203397805332
 30
0.0
  0
VERTEX
  5
9D
330
4B
100
AcDbEntity
  8
L2-RESIST_U_306E_U_30B3_U_
100
AcDbVertex
100
AcDb2dVertex
 10
34.83750073058597
 20
69.60318742361143
 30
0.0
  0
VERTEX
  5
9E
330
4B
100
AcDbEntity
  8
L2-RESIST_U_306E_U_30B3_U_
100
AcDbVertex
100
AcDb2dVertex
 10
34.8315731683456
 20
69.6131561910912
 30
0.0
  0
VERTEX
  5
9F
330
4B
100
AcDbEntity
  8
L2-RESIST_U_306E_U_30B3_U_
100
AcDbVertex
100
AcDb2dVertex
 10
34.82411515692598
 20
69.62179160645312
 30
0.0
  0
VERTEX
  5
A0
330
4B
100
AcDbEntity
  8
L2-RESIST_U_306E_U_30B3_U_
100
AcDbVertex
100
AcDb2dVertex
 10
34.81534704462774
 20
69.62894499566079
 30
0.0
  0
VERTEX
  5
A1
330
4B
100
AcDbEntity
  8
L2-RESIST_U_306E_U_30B3_U_
100
AcDbVertex
100
AcDb2dVertex
 10
34.80548917975341
 20
69.63446768467468
 30
0.0
  0
VERTEX
  5
A2
330
4B
100
AcDbEntity
  8
L2-RESIST_U_306E_U_30B3_U_
100
AcDbVertex
100
AcDb2dVertex
 10
34.79476191060426
 20
69.63821099945521
 30
0.0
  0
VERTEX
  5
A3
330
4B
100
AcDbEntity
  8
L2-RESIST_U_306E_U_30B3_U_
100
AcDbVertex
100
AcDb2dVertex
 10
34.78338558548218
 20
69.64002626596607
 30
0.0
  0
VERTEX
  5
A4
330
4B
100
AcDbEntity
  8
L2-RESIST_U_306E_U_30B3_U_
100
AcDbVertex
100
AcDb2dVertex
 10
34.77158055268876
 20
69.6397648101683
 30
0.0
  0
VERTEX
  5
A5
330
4B
100
AcDbEntity
  8
L2-RESIST_U_306E_U_30B3_U_
100
AcDbVertex
100
AcDb2dVertex
 10
34.76009625827695
 20
69.63710303360428
 30
0.0
  0
VERTEX
  5
A6
330
4B
100
AcDbEntity
  8
L2-RESIST_U_306E_U_30B3_U_
100
AcDbVertex
100
AcDb2dVertex
 10
34.74953635186227
 20
69.63248607767358
 30
0.0
  0
VERTEX
  5
A7
330
4B
100
AcDbEntity
  8
L2-RESIST_U_306E_U_30B3_U_
100
AcDbVertex
100
AcDb2dVertex
 10
34.74010092458556
 20
69.62612462814592
 30
0.0
  0
VERTEX
  5
A8
330
4B
100
AcDbEntity
  8
L2-RESIST_U_306E_U_30B3_U_
100
AcDbVertex
100
AcDb2dVertex
 10
34.73199006758769
 20
69.61822937079107
 30
0.0
  0
VERTEX
  5
A9
330
4B
100
AcDbEntity
  8
L2-RESIST_U_306E_U_30B3_U_
100
AcDbVertex
100
AcDb2dVertex
 10
34.72540387200917
 20
69.60901099137746
 30
0.0
  0
VERTEX
  5
AA
330
4B
100
AcDbEntity
  8
L2-RESIST_U_306E_U_30B3_U_
100
AcDbVertex
100
AcDb2dVertex
 10
34.72054242899085
 20
69.59868017567358
 30
0.0
  0
VERTEX
  5
AB
330
4B
100
AcDbEntity
  8
L2-RESIST_U_306E_U_30B3_U_
100
AcDbVertex
100
AcDb2dVertex
 10
34.71760582967327
 20
69.58744760944978
 30
0.0
  0
VERTEX
  5
AC
330
4B
100
AcDbEntity
  8
L2-RESIST_U_306E_U_30B3_U_
100
AcDbVertex
100
AcDb2dVertex
 10
34.71679416519759
 20
69.5755239784739
 30
0.0
  0
VERTEX
  5
AD
330
4B
100
AcDbEntity
  8
L2-RESIST_U_306E_U_30B3_U_
100
AcDbVertex
100
AcDb2dVertex
 10
34.71734531155951
 20
69.52276571864422
 30
0.0
  0
VERTEX
  5
AE
330
4B
100
AcDbEntity
  8
L2-RESIST_U_306E_U_30B3_U_
100
AcDbVertex
100
AcDb2dVertex
 10
34.71794234659203
 20
69.46954237093509
 30
0.0
  0
VERTEX
  5
AF
330
4B
100
AcDbEntity
  8
L2-RESIST_U_306E_U_30B3_U_
100
AcDbVertex
100
AcDb2dVertex
 10
34.71854847667625
 20
69.41587171203979
 30
0.0
  0
VERTEX
  5
B0
330
4B
100
AcDbEntity
  8
L2-RESIST_U_306E_U_30B3_U_
100
AcDbVertex
100
AcDb2dVertex
 10
34.71912690819363
 20
69.36177151865036
 30
0.0
  0
VERTEX
  5
B1
330
4B
100
AcDbEntity
  8
L2-RESIST_U_306E_U_30B3_U_
100
AcDbVertex
100
AcDb2dVertex
 10
34.71964084752527
 20
69.3072595674588
 30
0.0
  0
VERTEX
  5
B2
330
4B
100
AcDbEntity
  8
L2-RESIST_U_306E_U_30B3_U_
100
AcDbVertex
100
AcDb2dVertex
 10
34.72005350105198
 20
69.2523536351578
 30
0.0
  0
VERTEX
  5
B3
330
4B
100
AcDbEntity
  8
L2-RESIST_U_306E_U_30B3_U_
100
AcDbVertex
100
AcDb2dVertex
 10
34.72032807515518
 20
69.19707149843937
 30
0.0
  0
VERTEX
  5
B4
330
4B
100
AcDbEntity
  8
L2-RESIST_U_306E_U_30B3_U_
100
AcDbVertex
100
AcDb2dVertex
 10
34.720427776216
 20
69.1414309339949
 30
0.0
  0
VERTEX
  5
B5
330
4B
100
AcDbEntity
  8
L2-RESIST_U_306E_U_30B3_U_
100
AcDbVertex
100
AcDb2dVertex
 10
34.69832485349468
 20
68.1208066772638
 30
0.0
  0
VERTEX
  5
B6
330
4B
100
AcDbEntity
  8
L2-RESIST_U_306E_U_30B3_U_
100
AcDbVertex
100
AcDb2dVertex
 10
34.6190261006396
 20
67.03647985054349
 30
0.0
  0
VERTEX
  5
B7
330
4B
100
AcDbEntity
  8
L2-RESIST_U_306E_U_30B3_U_
100
AcDbVertex
100
AcDb2dVertex
 10
34.46614479691375
 20
65.92995944365963
 30
0.0
  0
VERTEX
  5
B8
330
4B
100
AcDbEntity
  8
L2-RESIST_U_306E_U_30B3_U_
100
AcDbVertex
100
AcDb2dVertex
 10
34.22329422158074
 20
64.84275444643977
 30
0.0
  0
VERTEX
  5
B9
330
4B
100
AcDbEntity
  8
L2-RESIST_U_306E_U_30B3_U_
100
AcDbVertex
100
AcDb2dVertex
 10
33.87408765390357
 20
63.81637384871021
 30
0.0
  0
VERTEX
  5
BA
330
4B
100
AcDbEntity
  8
L2-RESIST_U_306E_U_30B3_U_
100
AcDbVertex
100
AcDb2dVertex
 10
33.40213837314587
 20
62.89232664029662
 30
0.0
  0
VERTEX
  5
BB
330
4B
100
AcDbEntity
  8
L2-RESIST_U_306E_U_30B3_U_
100
AcDbVertex
100
AcDb2dVertex
 10
32.7910596585703
 20
62.11212181102658
 30
0.0
  0
VERTEX
  5
BC
330
4B
100
AcDbEntity
  8
L2-RESIST_U_306E_U_30B3_U_
100
AcDbVertex
100
AcDb2dVertex
 10
32.02446478944019
 20
61.51726835072571
 30
0.0
  0
VERTEX
  5
BD
330
4B
100
AcDbEntity
  8
L2-RESIST_U_306E_U_30B3_U_
100
AcDbVertex
100
AcDb2dVertex
 10
32.00872952291461
 20
61.50700182863443
 30
0.0
  0
VERTEX
  5
BE
330
4B
100
AcDbEntity
  8
L2-RESIST_U_306E_U_30B3_U_
100
AcDbVertex
100
AcDb2dVertex
 10
31.96647473883614
 20
61.48208648530247
 30
0.0
  0
VERTEX
  5
BF
330
4B
100
AcDbEntity
  8
L2-RESIST_U_306E_U_30B3_U_
100
AcDbVertex
100
AcDb2dVertex
 10
31.89933258560135
 20
61.44745928023931
 30
0.0
  0
VERTEX
  5
C0
330
4B
100
AcDbEntity
  8
L2-RESIST_U_306E_U_30B3_U_
100
AcDbVertex
100
AcDb2dVertex
 10
31.80893521160547
 20
61.40805717295444
 30
0.0
  0
VERTEX
  5
C1
330
4B
100
AcDbEntity
  8
L2-RESIST_U_306E_U_30B3_U_
100
AcDbVertex
100
AcDb2dVertex
 10
31.69691476524474
 20
61.36881712295734
 30
0.0
  0
VERTEX
  5
C2
330
4B
100
AcDbEntity
  8
L2-RESIST_U_306E_U_30B3_U_
100
AcDbVertex
100
AcDb2dVertex
 10
31.56490339491474
 20
61.33467608975686
 30
0.0
  0
VERTEX
  5
C3
330
4B
100
AcDbEntity
  8
L2-RESIST_U_306E_U_30B3_U_
100
AcDbVertex
100
AcDb2dVertex
 10
31.41453324901136
 20
61.31057103286312
 30
0.0
  0
VERTEX
  5
C4
330
4B
100
AcDbEntity
  8
L2-RESIST_U_306E_U_30B3_U_
100
AcDbVertex
100
AcDb2dVertex
 10
31.2474364759305
 20
61.30143891178561
 30
0.0
  0
VERTEX
  5
C5
330
4B
100
AcDbEntity
  8
L2-RESIST_U_306E_U_30B3_U_
100
AcDbVertex
100
AcDb2dVertex
 10
31.05481023681267
 20
61.31386020324378
 30
0.0
  0
VERTEX
  5
C6
330
4B
100
AcDbEntity
  8
L2-RESIST_U_306E_U_30B3_U_
100
AcDbVertex
100
AcDb2dVertex
 10
30.84719741930121
 20
61.35437486963565
 30
0.0
  0
VERTEX
  5
C7
330
4B
100
AcDbEntity
  8
L2-RESIST_U_306E_U_30B3_U_
100
AcDbVertex
100
AcDb2dVertex
 10
30.62651501227933
 20
61.42940691144964
 30
0.0
  0
VERTEX
  5
C8
330
4B
100
AcDbEntity
  8
L2-RESIST_U_306E_U_30B3_U_
100
AcDbVertex
100
AcDb2dVertex
 10
30.39468000463057
 20
61.54538032917294
 30
0.0
  0
VERTEX
  5
C9
330
4B
100
AcDbEntity
  8
L2-RESIST_U_306E_U_30B3_U_
100
AcDbVertex
100
AcDb2dVertex
 10
30.15360938523815
 20
61.70871912329204
 30
0.0
  0
VERTEX
  5
CA
330
4B
100
AcDbEntity
  8
L2-RESIST_U_306E_U_30B3_U_
100
AcDbVertex
100
AcDb2dVertex
 10
29.90522014298591
 20
61.92584729429348
 30
0.0
  0
VERTEX
  5
CB
330
4B
100
AcDbEntity
  8
L2-RESIST_U_306E_U_30B3_U_
100
AcDbVertex
100
AcDb2dVertex
 10
29.65142926675644
 20
62.20318884266571
 30
0.0
  0
VERTEX
  5
CC
330
4B
100
AcDbEntity
  8
L2-RESIST_U_306E_U_30B3_U_
100
AcDbVertex
100
AcDb2dVertex
 10
29.3941537454339
 20
62.54716776889523
 30
0.0
  0
VERTEX
  5
CD
330
4B
100
AcDbEntity
  8
L2-RESIST_U_306E_U_30B3_U_
100
AcDbVertex
100
AcDb2dVertex
 10
29.38608574542261
 20
62.55651276263035
 30
0.0
  0
VERTEX
  5
CE
330
4B
100
AcDbEntity
  8
L2-RESIST_U_306E_U_30B3_U_
100
AcDbVertex
100
AcDb2dVertex
 10
29.37668573372669
 20
62.56397656724922
 30
0.0
  0
VERTEX
  5
CF
330
4B
100
AcDbEntity
  8
L2-RESIST_U_306E_U_30B3_U_
100
AcDbVertex
100
AcDb2dVertex
 10
29.36625219341119
 20
62.56949991708606
 30
0.0
  0
VERTEX
  5
D0
330
4B
100
AcDbEntity
  8
L2-RESIST_U_306E_U_30B3_U_
100
AcDbVertex
100
AcDb2dVertex
 10
29.35508360754178
 20
62.57302354647382
 30
0.0
  0
VERTEX
  5
D1
330
4B
100
AcDbEntity
  8
L2-RESIST_U_306E_U_30B3_U_
100
AcDbVertex
100
AcDb2dVertex
 10
29.34347845918318
 20
62.5744881897448
 30
0.0
  0
VERTEX
  5
D2
330
4B
100
AcDbEntity
  8
L2-RESIST_U_306E_U_30B3_U_
100
AcDbVertex
100
AcDb2dVertex
 10
29.33173523140141
 20
62.57383458123323
 30
0.0
  0
VERTEX
  5
D3
330
4B
100
AcDbEntity
  8
L2-RESIST_U_306E_U_30B3_U_
100
AcDbVertex
100
AcDb2dVertex
 10
29.32015240726118
 20
62.5710034552714
 30
0.0
  0
VERTEX
  5
D4
330
4B
100
AcDbEntity
  8
L2-RESIST_U_306E_U_30B3_U_
100
AcDbVertex
100
AcDb2dVertex
 10
29.30902846982785
 20
62.56593554619228
 30
0.0
  0
VERTEX
  5
D5
330
4B
100
AcDbEntity
  8
L2-RESIST_U_306E_U_30B3_U_
100
AcDbVertex
100
AcDb2dVertex
 10
29.2992454581082
 20
62.55884402402
 30
0.0
  0
VERTEX
  5
D6
330
4B
100
AcDbEntity
  8
L2-RESIST_U_306E_U_30B3_U_
100
AcDbVertex
100
AcDb2dVertex
 10
29.29114187846769
 20
62.55016748235789
 30
0.0
  0
VERTEX
  5
D7
330
4B
100
AcDbEntity
  8
L2-RESIST_U_306E_U_30B3_U_
100
AcDbVertex
100
AcDb2dVertex
 10
29.28483591499366
 20
62.54022920895677
 30
0.0
  0
VERTEX
  5
D8
330
4B
100
AcDbEntity
  8
L2-RESIST_U_306E_U_30B3_U_
100
AcDbVertex
100
AcDb2dVertex
 10
29.28044575177312
 20
62.52935249156939
 30
0.0
  0
VERTEX
  5
D9
330
4B
100
AcDbEntity
  8
L2-RESIST_U_306E_U_30B3_U_
100
AcDbVertex
100
AcDb2dVertex
 10
29.27808957289406
 20
62.51786061794787
 30
0.0
  0
VERTEX
  5
DA
330
4B
100
AcDbEntity
  8
L2-RESIST_U_306E_U_30B3_U_
100
AcDbVertex
100
AcDb2dVertex
 10
29.27788556244318
 20
62.50607687584496
 30
0.0
  0
VERTEX
  5
DB
330
4B
100
AcDbEntity
  8
L2-RESIST_U_306E_U_30B3_U_
100
AcDbVertex
100
AcDb2dVertex
 10
29.27995190450813
 20
62.49432455301148
 30
0.0
  0
VERTEX
  5
DC
330
4B
100
AcDbEntity
  8
L2-RESIST_U_306E_U_30B3_U_
100
AcDbVertex
100
AcDb2dVertex
 10
29.28440678317594
 20
62.48292693720082
 30
0.0
  0
VERTEX
  5
DD
330
4B
100
AcDbEntity
  8
L2-RESIST_U_306E_U_30B3_U_
100
AcDbVertex
100
AcDb2dVertex
 10
29.34309249866072
 20
62.36760422713277
 30
0.0
  0
VERTEX
  5
DE
330
4B
100
AcDbEntity
  8
L2-RESIST_U_306E_U_30B3_U_
100
AcDbVertex
100
AcDb2dVertex
 10
29.42803622285233
 20
62.20121033900201
 30
0.0
  0
VERTEX
  5
DF
330
4B
100
AcDbEntity
  8
L2-RESIST_U_306E_U_30B3_U_
100
AcDbVertex
100
AcDb2dVertex
 10
29.53008127979384
 20
62.00117511370777
 30
0.0
  0
VERTEX
  5
E0
330
4B
100
AcDbEntity
  8
L2-RESIST_U_306E_U_30B3_U_
100
AcDbVertex
100
AcDb2dVertex
 10
29.64007099352768
 20
61.78492839214794
 30
0.0
  0
VERTEX
  5
E1
330
4B
100
AcDbEntity
  8
L2-RESIST_U_306E_U_30B3_U_
100
AcDbVertex
100
AcDb2dVertex
 10
29.74884868809726
 20
61.5699000152198
 30
0.0
  0
VERTEX
  5
E2
330
4B
100
AcDbEntity
  8
L2-RESIST_U_306E_U_30B3_U_
100
AcDbVertex
100
AcDb2dVertex
 10
29.84725768754533
 20
61.37351982382191
 30
0.0
  0
VERTEX
  5
E3
330
4B
100
AcDbEntity
  8
L2-RESIST_U_306E_U_30B3_U_
100
AcDbVertex
100
AcDb2dVertex
 10
29.92614131591434
 20
61.21321765885154
 30
0.0
  0
VERTEX
  5
E4
330
4B
100
AcDbEntity
  8
L2-RESIST_U_306E_U_30B3_U_
100
AcDbVertex
100
AcDb2dVertex
 10
29.97634289724769
 20
61.10642336120724
 30
0.0
  0
VERTEX
  5
E5
330
4B
100
AcDbEntity
  8
L2-RESIST_U_306E_U_30B3_U_
100
AcDbVertex
100
AcDb2dVertex
 10
30.11213326162182
 20
60.78479352674655
 30
0.0
  0
VERTEX
  5
E6
330
4B
100
AcDbEntity
  8
L2-RESIST_U_306E_U_30B3_U_
100
AcDbVertex
100
AcDb2dVertex
 10
30.23106718762421
 20
60.47596208388735
 30
0.0
  0
VERTEX
  5
E7
330
4B
100
AcDbEntity
  8
L2-RESIST_U_306E_U_30B3_U_
100
AcDbVertex
100
AcDb2dVertex
 10
30.33518610098353
 20
60.18095677348802
 30
0.0
  0
VERTEX
  5
E8
330
4B
100
AcDbEntity
  8
L2-RESIST_U_306E_U_30B3_U_
100
AcDbVertex
100
AcDb2dVertex
 10
30.42653142742909
 20
59.90080533640764
 30
0.0
  0
VERTEX
  5
E9
330
4B
100
AcDbEntity
  8
L2-RESIST_U_306E_U_30B3_U_
100
AcDbVertex
100
AcDb2dVertex
 10
30.50714459269019
 20
59.6365355135059
 30
0.0
  0
VERTEX
  5
EA
330
4B
100
AcDbEntity
  8
L2-RESIST_U_306E_U_30B3_U_
100
AcDbVertex
100
AcDb2dVertex
 10
30.57906702249583
 20
59.38917504564121
 30
0.0
  0
VERTEX
  5
EB
330
4B
100
AcDbEntity
  8
L2-RESIST_U_306E_U_30B3_U_
100
AcDbVertex
100
AcDb2dVertex
 10
30.64434014257532
 20
59.15975167367392
 30
0.0
  0
VERTEX
  5
EC
330
4B
100
AcDbEntity
  8
L2-RESIST_U_306E_U_30B3_U_
100
AcDbVertex
100
AcDb2dVertex
 10
30.70500537865796
 20
58.94929313846244
 30
0.0
  0
VERTEX
  5
ED
330
4B
100
AcDbEntity
  8
L2-RESIST_U_306E_U_30B3_U_
100
AcDbVertex
100
AcDb2dVertex
 10
30.76316272309436
 20
58.76028073551451
 30
0.0
  0
VERTEX
  5
EE
330
4B
100
AcDbEntity
  8
L2-RESIST_U_306E_U_30B3_U_
100
AcDbVertex
100
AcDb2dVertex
 10
30.82099429930994
 20
58.58950060423721
 30
0.0
  0
VERTEX
  5
EF
330
4B
100
AcDbEntity
  8
L2-RESIST_U_306E_U_30B3_U_
100
AcDbVertex
100
AcDb2dVertex
 10
30.88141879212604
 20
58.43892306359044
 30
0.0
  0
VERTEX
  5
F0
330
4B
100
AcDbEntity
  8
L2-RESIST_U_306E_U_30B3_U_
100
AcDbVertex
100
AcDb2dVertex
 10
30.947354886364
 20
58.31051843253415
 30
0.0
  0
VERTEX
  5
F1
330
4B
100
AcDbEntity
  8
L2-RESIST_U_306E_U_30B3_U_
100
AcDbVertex
100
AcDb2dVertex
 10
31.02172126684512
 20
58.2062570300289
 30
0.0
  0
VERTEX
  5
F2
330
4B
100
AcDbEntity
  8
L2-RESIST_U_306E_U_30B3_U_
100
AcDbVertex
100
AcDb2dVertex
 10
31.10743661839108
 20
58.12810917503526
 30
0.0
  0
VERTEX
  5
F3
330
4B
100
AcDbEntity
  8
L2-RESIST_U_306E_U_30B3_U_
100
AcDbVertex
100
AcDb2dVertex
 10
31.20741962582288
 20
58.07804518651252
 30
0.0
  0
VERTEX
  5
F4
330
4B
100
AcDbEntity
  8
L2-RESIST_U_306E_U_30B3_U_
100
AcDbVertex
100
AcDb2dVertex
 10
31.32458897396218
 20
58.05803538342126
 30
0.0
  0
VERTEX
  5
F5
330
4B
100
AcDbEntity
  8
L2-RESIST_U_306E_U_30B3_U_
100
AcDbVertex
100
AcDb2dVertex
 10
31.43395394079006
 20
58.07168829964857
 30
0.0
  0
VERTEX
  5
F6
330
4B
100
AcDbEntity
  8
L2-RESIST_U_306E_U_30B3_U_
100
AcDbVertex
100
AcDb2dVertex
 10
31.55164336053048
 20
58.10924776328792
 30
0.0
  0
VERTEX
  5
F7
330
4B
100
AcDbEntity
  8
L2-RESIST_U_306E_U_30B3_U_
100
AcDbVertex
100
AcDb2dVertex
 10
31.67966806646581
 20
58.17125507373996
 30
0.0
  0
VERTEX
  5
F8
330
4B
100
AcDbEntity
  8
L2-RESIST_U_306E_U_30B3_U_
100
AcDbVertex
100
AcDb2dVertex
 10
31.82003889187775
 20
58.25825153040533
 30
0.0
  0
VERTEX
  5
F9
330
4B
100
AcDbEntity
  8
L2-RESIST_U_306E_U_30B3_U_
100
AcDbVertex
100
AcDb2dVertex
 10
31.97476667004833
 20
58.37077843268532
 30
0.0
  0
VERTEX
  5
FA
330
4B
100
AcDbEntity
  8
L2-RESIST_U_306E_U_30B3_U_
100
AcDbVertex
100
AcDb2dVertex
 10
32.14586223425959
 20
58.50937707998186
 30
0.0
  0
VERTEX
  5
FB
330
4B
100
AcDbEntity
  8
L2-RESIST_U_306E_U_30B3_U_
100
AcDbVertex
100
AcDb2dVertex
 10
32.33533641779388
 20
58.67458877169559
 30
0.0
  0
VERTEX
  5
FC
330
4B
100
AcDbEntity
  8
L2-RESIST_U_306E_U_30B3_U_
100
AcDbVertex
100
AcDb2dVertex
 10
32.5452000539329
 20
58.86695480722717
 30
0.0
  0
VERTEX
  5
FD
330
4B
100
AcDbEntity
  8
L2-RESIST_U_306E_U_30B3_U_
100
AcDbVertex
100
AcDb2dVertex
 10
33.08229952156698
 20
59.44932220827695
 30
0.0
  0
VERTEX
  5
FE
330
4B
100
AcDbEntity
  8
L2-RESIST_U_306E_U_30B3_U_
100
AcDbVertex
100
AcDb2dVertex
 10
33.5441035353932
 20
60.0887581658131
 30
0.0
  0
VERTEX
  5
FF
330
4B
100
AcDbEntity
  8
L2-RESIST_U_306E_U_30B3_U_
100
AcDbVertex
100
AcDb2dVertex
 10
33.93357046773156
 20
60.75194295737882
 30
0.0
  0
VERTEX
  5
100
330
4B
100
AcDbEntity
  8
L2-RESIST_U_306E_U_30B3_U_
100
AcDbVertex
100
AcDb2dVertex
 10
34.25365869090205
 20
61.40555686051727
 30
0.0
  0
VERTEX
  5
101
330
4B
100
AcDbEntity
  8
L2-RESIST_U_306E_U_30B3_U_
100
AcDbVertex
100
AcDb2dVertex
 10
34.50732657722564
 20
62.01628015277097
 30
0.0
  0
VERTEX
  5
102
330
4B
100
AcDbEntity
  8
L2-RESIST_U_306E_U_30B3_U_
100
AcDbVertex
100
AcDb2dVertex
 10
34.69753249902233
 20
62.55079311168248
 30
0.0
  0
VERTEX
  5
103
330
4B
100
AcDbEntity
  8
L2-RESIST_U_306E_U_30B3_U_
100
AcDbVertex
100
AcDb2dVertex
 10
34.82723482861243
 20
62.97577601479432
 30
0.0
  0
VERTEX
  5
104
330
4B
100
AcDbEntity
  8
L2-RESIST_U_306E_U_30B3_U_
100
AcDbVertex
100
AcDb2dVertex
 10
34.89939193831691
 20
63.25790913965032
 30
0.0
  0
VERTEX
  5
105
330
4B
100
AcDbEntity
  8
L2-RESIST_U_306E_U_30B3_U_
100
AcDbVertex
100
AcDb2dVertex
 10
34.93701982147167
 20
63.37788972154708
 30
0.0
  0
VERTEX
  5
106
330
4B
100
AcDbEntity
  8
L2-RESIST_U_306E_U_30B3_U_
100
AcDbVertex
100
AcDb2dVertex
 10
34.96559068662804
 20
63.48357395692251
 30
0.0
  0
VERTEX
  5
107
330
4B
100
AcDbEntity
  8
L2-RESIST_U_306E_U_30B3_U_
100
AcDbVertex
100
AcDb2dVertex
 10
34.9863497290672
 20
63.57453588308585
 30
0.0
  0
VERTEX
  5
108
330
4B
100
AcDbEntity
  8
L2-RESIST_U_306E_U_30B3_U_
100
AcDbVertex
100
AcDb2dVertex
 10
35.00054214406968
 20
63.65034953734633
 30
0.0
  0
VERTEX
  5
109
330
4B
100
AcDbEntity
  8
L2-RESIST_U_306E_U_30B3_U_
100
AcDbVertex
100
AcDb2dVertex
 10
35.00941312691634
 20
63.71058895701253
 30
0.0
  0
VERTEX
  5
10A
330
4B
100
AcDbEntity
  8
L2-RESIST_U_306E_U_30B3_U_
100
AcDbVertex
100
AcDb2dVertex
 10
35.01420787288771
 20
63.75482817939435
 30
0.0
  0
VERTEX
  5
10B
330
4B
100
AcDbEntity
  8
L2-RESIST_U_306E_U_30B3_U_
100
AcDbVertex
100
AcDb2dVertex
 10
35.01617157726464
 20
63.78264124180038
 30
0.0
  0
VERTEX
  5
10C
330
4B
100
AcDbEntity
  8
L2-RESIST_U_306E_U_30B3_U_
100
AcDbVertex
100
AcDb2dVertex
 10
35.01654943532797
 20
63.7936021815392
 30
0.0
  0
VERTEX
  5
10D
330
4B
100
AcDbEntity
  8
L2-RESIST_U_306E_U_30B3_U_
100
AcDbVertex
100
AcDb2dVertex
 10
35.03169758869586
 20
63.8613297942861
 30
0.0
  0
VERTEX
  5
10E
330
4B
100
AcDbEntity
  8
L2-RESIST_U_306E_U_30B3_U_
100
AcDbVertex
100
AcDb2dVertex
 10
35.04640711251758
 20
63.93006158343982
 30
0.0
  0
VERTEX
  5
10F
330
4B
100
AcDbEntity
  8
L2-RESIST_U_306E_U_30B3_U_
100
AcDbVertex
100
AcDb2dVertex
 10
35.06069247619398
 20
63.99965409522741
 30
0.0
  0
VERTEX
  5
110
330
4B
100
AcDbEntity
  8
L2-RESIST_U_306E_U_30B3_U_
100
AcDbVertex
100
AcDb2dVertex
 10
35.07456814912557
 20
64.06996387587719
 30
0.0
  0
VERTEX
  5
111
330
4B
100
AcDbEntity
  8
L2-RESIST_U_306E_U_30B3_U_
100
AcDbVertex
100
AcDb2dVertex
 10
35.08804860071319
 20
64.14084747161687
 30
0.0
  0
VERTEX
  5
112
330
4B
100
AcDbEntity
  8
L2-RESIST_U_306E_U_30B3_U_
100
AcDbVertex
100
AcDb2dVertex
 10
35.10114830035705
 20
64.21216142867348
 30
0.0
  0
VERTEX
  5
113
330
4B
100
AcDbEntity
  8
L2-RESIST_U_306E_U_30B3_U_
100
AcDbVertex
100
AcDb2dVertex
 10
35.11388171745864
 20
64.28376229327408
 30
0.0
  0
VERTEX
  5
114
330
4B
100
AcDbEntity
  8
L2-RESIST_U_306E_U_30B3_U_
100
AcDbVertex
100
AcDb2dVertex
 10
35.12626332141782
 20
64.35550661164763
 30
0.0
  0
VERTEX
  5
115
330
4B
100
AcDbEntity
  8
L2-RESIST_U_306E_U_30B3_U_
100
AcDbVertex
100
AcDb2dVertex
 10
35.12969482866217
 20
64.3774262378254
 30
0.0
  0
VERTEX
  5
116
330
4B
100
AcDbEntity
  8
L2-RESIST_U_306E_U_30B3_U_
100
AcDbVertex
100
AcDb2dVertex
 10
35.13302055806746
 20
64.39925987442092
 30
0.0
  0
VERTEX
  5
117
330
4B
100
AcDbEntity
  8
L2-RESIST_U_306E_U_30B3_U_
100
AcDbVertex
100
AcDb2dVertex
 10
35.13626746397499
 20
64.4210009068531
 30
0.0
  0
VERTEX
  5
118
330
4B
100
AcDbEntity
  8
L2-RESIST_U_306E_U_30B3_U_
100
AcDbVertex
100
AcDb2dVertex
 10
35.13946250072543
 20
64.442642720537
 30
0.0
  0
VERTEX
  5
119
330
4B
100
AcDbEntity
  8
L2-RESIST_U_306E_U_30B3_U_
100
AcDbVertex
100
AcDb2dVertex
 10
35.14263262266009
 20
64.46417870089026
 30
0.0
  0
VERTEX
  5
11A
330
4B
100
AcDbEntity
  8
L2-RESIST_U_306E_U_30B3_U_
100
AcDbVertex
100
AcDb2dVertex
 10
35.14580478411932
 20
64.48560223332926
 30
0.0
  0
VERTEX
  5
11B
330
4B
100
AcDbEntity
  8
L2-RESIST_U_306E_U_30B3_U_
100
AcDbVertex
100
AcDb2dVertex
 10
35.14900593944444
 20
64.5069067032716
 30
0.0
  0
VERTEX
  5
11C
330
4B
100
AcDbEntity
  8
L2-RESIST_U_306E_U_30B3_U_
100
AcDbVertex
100
AcDb2dVertex
 10
35.15226304297674
 20
64.52808549613302
 30
0.0
  0
VERTEX
  5
11D
330
4B
100
AcDbEntity
  8
L2-RESIST_U_306E_U_30B3_U_
100
AcDbVertex
100
AcDb2dVertex
 10
35.16015769037966
 20
64.58009065810927
 30
0.0
  0
VERTEX
  5
11E
330
4B
100
AcDbEntity
  8
L2-RESIST_U_306E_U_30B3_U_
100
AcDbVertex
100
AcDb2dVertex
 10
35.16770261925171
 20
64.63210367490271
 30
0.0
  0
VERTEX
  5
11F
330
4B
100
AcDbEntity
  8
L2-RESIST_U_306E_U_30B3_U_
100
AcDbVertex
100
AcDb2dVertex
 10
35.17493837146798
 20
64.68413240133118
 30
0.0
  0
VERTEX
  5
120
330
4B
100
AcDbEntity
  8
L2-RESIST_U_306E_U_30B3_U_
100
AcDbVertex
100
AcDb2dVertex
 10
35.18190548890446
 20
64.73618469221253
 30
0.0
  0
VERTEX
  5
121
330
4B
100
AcDbEntity
  8
L2-RESIST_U_306E_U_30B3_U_
100
AcDbVertex
100
AcDb2dVertex
 10
35.18864451343623
 20
64.78826840236395
 30
0.0
  0
VERTEX
  5
122
330
4B
100
AcDbEntity
  8
L2-RESIST_U_306E_U_30B3_U_
100
AcDbVertex
100
AcDb2dVertex
 10
35.19519598693962
 20
64.84039138660265
 30
0.0
  0
VERTEX
  5
123
330
4B
100
AcDbEntity
  8
L2-RESIST_U_306E_U_30B3_U_
100
AcDbVertex
100
AcDb2dVertex
 10
35.20160045128968
 20
64.89256149974645
 30
0.0
  0
VERTEX
  5
124
330
4B
100
AcDbEntity
  8
L2-RESIST_U_306E_U_30B3_U_
100
AcDbVertex
100
AcDb2dVertex
 10
35.20789844836179
 20
64.94478659661256
 30
0.0
  0
VERTEX
  5
125
330
4B
100
AcDbEntity
  8
L2-RESIST_U_306E_U_30B3_U_
100
AcDbVertex
100
AcDb2dVertex
 10
35.2103261889142
 20
64.96678001673348
 30
0.0
  0
VERTEX
  5
126
330
4B
100
AcDbEntity
  8
L2-RESIST_U_306E_U_30B3_U_
100
AcDbVertex
100
AcDb2dVertex
 10
35.21279959760162
 20
64.98883916927433
 30
0.0
  0
VERTEX
  5
127
330
4B
100
AcDbEntity
  8
L2-RESIST_U_306E_U_30B3_U_
100
AcDbVertex
100
AcDb2dVertex
 10
35.21528474713166
 20
65.01096364082434
 30
0.0
  0
VERTEX
  5
128
330
4B
100
AcDbEntity
  8
L2-RESIST_U_306E_U_30B3_U_
100
AcDbVertex
100
AcDb2dVertex
 10
35.21774771021227
 20
65.03315301797086
 30
0.0
  0
VERTEX
  5
129
330
4B
100
AcDbEntity
  8
L2-RESIST_U_306E_U_30B3_U_
100
AcDbVertex
100
AcDb2dVertex
 10
35.22015455955077
 20
65.0554068873031
 30
0.0
  0
VERTEX
  5
12A
330
4B
100
AcDbEntity
  8
L2-RESIST_U_306E_U_30B3_U_
100
AcDbVertex
100
AcDb2dVertex
 10
35.22247136785445
 20
65.07772483541032
 30
0.0
  0
VERTEX
  5
12B
330
4B
100
AcDbEntity
  8
L2-RESIST_U_306E_U_30B3_U_
100
AcDbVertex
100
AcDb2dVertex
 10
35.22466420783125
 20
65.1001064488792
 30
0.0
  0
VERTEX
  5
12C
330
4B
100
AcDbEntity
  8
L2-RESIST_U_306E_U_30B3_U_
100
AcDbVertex
100
AcDb2dVertex
 10
35.22669915218883
 20
65.12255131429963
 30
0.0
  0
VERTEX
  5
12D
330
4B
100
AcDbEntity
  8
L2-RESIST_U_306E_U_30B3_U_
100
AcDbVertex
100
AcDb2dVertex
 10
35.23272083443519
 20
65.18436540745563
 30
0.0
  0
VERTEX
  5
12E
330
4B
100
AcDbEntity
  8
L2-RESIST_U_306E_U_30B3_U_
100
AcDbVertex
100
AcDb2dVertex
 10
35.2383931840085
 20
65.24627558788592
 30
0.0
  0
VERTEX
  5
12F
330
4B
100
AcDbEntity
  8
L2-RESIST_U_306E_U_30B3_U_
100
AcDbVertex
100
AcDb2dVertex
 10
35.24370090468481
 20
65.30824975972772
 30
0.0
  0
VERTEX
  5
130
330
4B
100
AcDbEntity
  8
L2-RESIST_U_306E_U_30B3_U_
100
AcDbVertex
100
AcDb2dVertex
 10
35.24862870024047
 20
65.3702558271221
 30
0.0
  0
VERTEX
  5
131
330
4B
100
AcDbEntity
  8
L2-RESIST_U_306E_U_30B3_U_
100
AcDbVertex
100
AcDb2dVertex
 10
35.25316127445217
 20
65.4322616942069
 30
0.0
  0
VERTEX
  5
132
330
4B
100
AcDbEntity
  8
L2-RESIST_U_306E_U_30B3_U_
100
AcDbVertex
100
AcDb2dVertex
 10
35.25728333109594
 20
65.49423526512129
 30
0.0
  0
VERTEX
  5
133
330
4B
100
AcDbEntity
  8
L2-RESIST_U_306E_U_30B3_U_
100
AcDbVertex
100
AcDb2dVertex
 10
35.2609795739488
 20
65.55614444400504
 30
0.0
  0
VERTEX
  5
134
330
4B
100
AcDbEntity
  8
L2-RESIST_U_306E_U_30B3_U_
100
AcDbVertex
100
AcDb2dVertex
 10
35.26423470678677
 20
65.61795713499603
 30
0.0
  0
VERTEX
  5
135
330
4B
100
AcDbEntity
  8
L2-RESIST_U_306E_U_30B3_U_
100
AcDbVertex
100
AcDb2dVertex
 10
35.26462221111712
 20
65.62598386276454
 30
0.0
  0
VERTEX
  5
136
330
4B
100
AcDbEntity
  8
L2-RESIST_U_306E_U_30B3_U_
100
AcDbVertex
100
AcDb2dVertex
 10
35.26520484565091
 20
65.63442028127753
 30
0.0
  0
VERTEX
  5
137
330
4B
100
AcDbEntity
  8
L2-RESIST_U_306E_U_30B3_U_
100
AcDbVertex
100
AcDb2dVertex
 10
35.26590654268166
 20
65.64325605524942
 30
0.0
  0
VERTEX
  5
138
330
4B
100
AcDbEntity
  8
L2-RESIST_U_306E_U_30B3_U_
100
AcDbVertex
100
AcDb2dVertex
 10
35.2666512345029
 20
65.65248084939272
 30
0.0
  0
VERTEX
  5
139
330
4B
100
AcDbEntity
  8
L2-RESIST_U_306E_U_30B3_U_
100
AcDbVertex
100
AcDb2dVertex
 10
35.26736285340848
 20
65.66208432842245
 30
0.0
  0
VERTEX
  5
13A
330
4B
100
AcDbEntity
  8
L2-RESIST_U_306E_U_30B3_U_
100
AcDbVertex
100
AcDb2dVertex
 10
35.2679653316916
 20
65.67205615705242
 30
0.0
  0
VERTEX
  5
13B
330
4B
100
AcDbEntity
  8
L2-RESIST_U_306E_U_30B3_U_
100
AcDbVertex
100
AcDb2dVertex
 10
35.26838260164611
 20
65.6823859999964
 30
0.0
  0
VERTEX
  5
13C
330
4B
100
AcDbEntity
  8
L2-RESIST_U_306E_U_30B3_U_
100
AcDbVertex
100
AcDb2dVertex
 10
35.26853859556586
 20
65.69306352196816
 30
0.0
  0
VERTEX
  5
13D
330
4B
100
AcDbEntity
  8
L2-RESIST_U_306E_U_30B3_U_
100
AcDbVertex
100
AcDb2dVertex
 10
35.27173984711182
 20
65.76240771127982
 30
0.0
  0
VERTEX
  5
13E
330
4B
100
AcDbEntity
  8
L2-RESIST_U_306E_U_30B3_U_
100
AcDbVertex
100
AcDb2dVertex
 10
35.27439084802077
 20
65.83180605749163
 30
0.0
  0
VERTEX
  5
13F
330
4B
100
AcDbEntity
  8
L2-RESIST_U_306E_U_30B3_U_
100
AcDbVertex
100
AcDb2dVertex
 10
35.27653996743199
 20
65.90123003521332
 30
0.0
  0
VERTEX
  5
140
330
4B
100
AcDbEntity
  8
L2-RESIST_U_306E_U_30B3_U_
100
AcDbVertex
100
AcDb2dVertex
 10
35.27823557448514
 20
65.97065111905393
 30
0.0
  0
VERTEX
  5
141
330
4B
100
AcDbEntity
  8
L2-RESIST_U_306E_U_30B3_U_
100
AcDbVertex
100
AcDb2dVertex
 10
35.27952603831949
 20
66.04004078362512
 30
0.0
  0
VERTEX
  5
142
330
4B
100
AcDbEntity
  8
L2-RESIST_U_306E_U_30B3_U_
100
AcDbVertex
100
AcDb2dVertex
 10
35.28045972807435
 20
66.1093705035353
 30
0.0
  0
VERTEX
  5
143
330
4B
100
AcDbEntity
  8
L2-RESIST_U_306E_U_30B3_U_
100
AcDbVertex
100
AcDb2dVertex
 10
35.28108501288902
 20
66.17861175339611
 30
0.0
  0
VERTEX
  5
144
330
4B
100
AcDbEntity
  8
L2-RESIST_U_306E_U_30B3_U_
100
AcDbVertex
100
AcDb2dVertex
 10
35.28145026190312
 20
66.24773600781728
 30
0.0
  0
VERTEX
  5
145
330
4B
100
AcDbEntity
  8
L2-RESIST_U_306E_U_30B3_U_
100
AcDbVertex
100
AcDb2dVertex
 10
35.28116817749201
 20
66.27036573705799
 30
0.0
  0
VERTEX
  5
146
330
4B
100
AcDbEntity
  8
L2-RESIST_U_306E_U_30B3_U_
100
AcDbVertex
100
AcDb2dVertex
 10
35.28083400323837
 20
66.29281769937589
 30
0.0
  0
VERTEX
  5
147
330
4B
100
AcDbEntity
  8
L2-RESIST_U_306E_U_30B3_U_
100
AcDbVertex
100
AcDb2dVertex
 10
35.28046179513166
 20
66.31511917992643
 30
0.0
  0
VERTEX
  5
148
330
4B
100
AcDbEntity
  8
L2-RESIST_U_306E_U_30B3_U_
100
AcDbVertex
100
AcDb2dVertex
 10
35.28006560916067
 20
66.33729746386571
 30
0.0
  0
VERTEX
  5
149
330
4B
100
AcDbEntity
  8
L2-RESIST_U_306E_U_30B3_U_
100
AcDbVertex
100
AcDb2dVertex
 10
35.27965950131518
 20
66.35937983634919
 30
0.0
  0
VERTEX
  5
14A
330
4B
100
AcDbEntity
  8
L2-RESIST_U_306E_U_30B3_U_
100
AcDbVertex
100
AcDb2dVertex
 10
35.27925752758398
 20
66.38139358253231
 30
0.0
  0
VERTEX
  5
14B
330
4B
100
AcDbEntity
  8
L2-RESIST_U_306E_U_30B3_U_
100
AcDbVertex
100
AcDb2dVertex
 10
35.27887374395685
 20
66.40336598757054
 30
0.0
  0
VERTEX
  5
14C
330
4B
100
AcDbEntity
  8
L2-RESIST_U_306E_U_30B3_U_
100
AcDbVertex
100
AcDb2dVertex
 10
35.27852220642227
 20
66.42532433661867
 30
0.0
  0
VERTEX
  5
14D
330
4B
100
AcDbEntity
  8
L2-RESIST_U_306E_U_30B3_U_
100
AcDbVertex
100
AcDb2dVertex
 10
35.2776792604801
 20
66.47385525768988
 30
0.0
  0
VERTEX
  5
14E
330
4B
100
AcDbEntity
  8
L2-RESIST_U_306E_U_30B3_U_
100
AcDbVertex
100
AcDb2dVertex
 10
35.27668004501101
 20
66.52241098344814
 30
0.0
  0
VERTEX
  5
14F
330
4B
100
AcDbEntity
  8
L2-RESIST_U_306E_U_30B3_U_
100
AcDbVertex
100
AcDb2dVertex
 10
35.27551711860824
 20
66.5709700164976
 30
0.0
  0
VERTEX
  5
150
330
4B
100
AcDbEntity
  8
L2-RESIST_U_306E_U_30B3_U_
100
AcDbVertex
100
AcDb2dVertex
 10
35.2741830398663
 20
66.61951085944362
 30
0.0
  0
VERTEX
  5
151
330
4B
100
AcDbEntity
  8
L2-RESIST_U_306E_U_30B3_U_
100
AcDbVertex
100
AcDb2dVertex
 10
35.27267036737876
 20
66.66801201489099
 30
0.0
  0
VERTEX
  5
152
330
4B
100
AcDbEntity
  8
L2-RESIST_U_306E_U_30B3_U_
100
AcDbVertex
100
AcDb2dVertex
 10
35.27097165973981
 20
66.71645198544316
 30
0.0
  0
VERTEX
  5
153
330
4B
100
AcDbEntity
  8
L2-RESIST_U_306E_U_30B3_U_
100
AcDbVertex
100
AcDb2dVertex
 10
35.26907947554335
 20
66.7648092737068
 30
0.0
  0
VERTEX
  5
154
330
4B
100
AcDbEntity
  8
L2-RESIST_U_306E_U_30B3_U_
100
AcDbVertex
100
AcDb2dVertex
 10
35.26698637338324
 20
66.81306238228477
 30
0.0
  0
VERTEX
  5
155
330
4B
100
AcDbEntity
  8
L2-RESIST_U_306E_U_30B3_U_
100
AcDbVertex
100
AcDb2dVertex
 10
35.26698637338324
 20
66.81306238228477
 30
0.0
  0
SEQEND
  5
156
330
4B
100
AcDbEntity
  8
L2-RESIST_U_306E_U_30B3_U_
  0
HATCH
  5
157
330
1F
100
AcDbEntity
  8
L2-RESIST_U_306E_U_30B3_U_
 62
    21
100
AcDbHatch
 10
0.0
 20
0.0
 30
0.0
210
0.0
220
0.0
230
1.0
  2
SOLID
 70
     1
 71
     0
 91
        1
 92
        1
 93
      264
 72
     1
 10
35.26698637338324
 20
66.81306238228477
 11
35.26567020913723
 21
66.83773181470676
 72
     1
 10
35.26567020913723
 20
66.83773181470676
 11
35.26440117379634
 21
66.86238347043609
 72
     1
 10
35.26440117379634
 20
66.86238347043609
 11
35.26315032855918
 21
66.88699957278072
 72
     1
 10
35.26315032855918
 20
66.88699957278072
 11
35.2618887346244
 21
66.91156234504929
 72
     1
 10
35.2618887346244
 20
66.91156234504929
 11
35.26058745319064
 21
66.93605401054847
 72
     1
 10
35.26058745319064
 20
66.93605401054847
 11
35.25921754545652
 21
66.96045679258624
 72
     1
 10
35.25921754545652
 20
66.96045679258624
 11
35.25775007262068
 21
66.98475291446995
 72
     1
 10
35.25775007262068
 20
66.98475291446995
 11
35.25615609588176
 21
67.0089245995082
 72
     1
 10
35.25615609588176
 20
67.0089245995082
 11
35.25281393993399
 21
67.05998973275376
 72
     1
 10
35.25281393993399
 20
67.05998973275376
 11
35.24927582695999
 21
67.11089280871218
 72
     1
 10
35.24927582695999
 20
67.11089280871218
 11
35.24555085201179
 21
67.16166690029848
 72
     1
 10
35.24555085201179
 20
67.16166690029848
 11
35.24164811014078
 21
67.21234508042899
 72
     1
 10
35.24164811014078
 20
67.21234508042899
 11
35.23757669639932
 21
67.26296042201999
 72
     1
 10
35.23757669639932
 20
67.26296042201999
 11
35.23334570583879
 21
67.31354599798651
 72
     1
 10
35.23334570583879
 20
67.31354599798651
 11
35.22896423351122
 21
67.36413488124485
 72
     1
 10
35.22896423351122
 20
67.36413488124485
 11
35.22444137446865
 21
67.41476014471068
 72
     1
 10
35.22444137446865
 20
67.41476014471068
 11
35.22262181288325
 21
67.43297360860147
 72
     1
 10
35.22262181288325
 20
67.43297360860147
 11
35.22089154817033
 21
67.45129927443882
 72
     1
 10
35.22089154817033
 20
67.45129927443882
 11
35.21920758553971
 21
67.46972117134044
 72
     1
 10
35.21920758553971
 20
67.46972117134044
 11
35.21752693020061
 21
67.48822332842408
 72
     1
 10
35.21752693020061
 20
67.48822332842408
 11
35.21580658736251
 21
67.50678977480747
 72
     1
 10
35.21580658736251
 20
67.50678977480747
 11
35.21400356223494
 21
67.52540453960897
 72
     1
 10
35.21400356223494
 20
67.52540453960897
 11
35.21207486002708
 21
67.54405165194635
 72
     1
 10
35.21207486002708
 20
67.54405165194635
 11
35.20997748594877
 21
67.56271514093795
 72
     1
 10
35.20997748594877
 20
67.56271514093795
 11
35.20303114009714
 21
67.62765415566463
 72
     1
 10
35.20303114009714
 20
67.62765415566463
 11
35.19576770766533
 21
67.69239018537068
 72
     1
 10
35.19576770766533
 20
67.69239018537068
 11
35.18819090935624
 21
67.75694514086338
 72
     1
 10
35.18819090935624
 20
67.75694514086338
 11
35.18030446587245
 21
67.82134093294809
 72
     1
 10
35.18030446587245
 20
67.82134093294809
 11
35.17211209791718
 21
67.88559947243273
 72
     1
 10
35.17211209791718
 20
67.88559947243273
 11
35.16361752619397
 21
67.94974267012395
 72
     1
 10
35.16361752619397
 20
67.94974267012395
 11
35.15482447140539
 21
68.01379243682776
 72
     1
 10
35.15482447140539
 20
68.01379243682776
 11
35.14573665425435
 21
68.07777068335078
 72
     1
 10
35.14573665425435
 20
68.07777068335078
 11
35.14183651617795
 21
68.10414240631135
 72
     1
 10
35.14183651617795
 20
68.10414240631135
 11
35.13778140430037
 21
68.13021936691011
 72
     1
 10
35.13778140430037
 20
68.13021936691011
 11
35.13361191554003
 21
68.15605737569149
 72
     1
 10
35.13361191554003
 20
68.15605737569149
 11
35.12936864681628
 21
68.18171224320126
 72
     1
 10
35.12936864681628
 20
68.18171224320126
 11
35.12509219504751
 21
68.2072397799845
 72
     1
 10
35.12509219504751
 20
68.2072397799845
 11
35.12082315715245
 21
68.23269579658762
 72
     1
 10
35.12082315715245
 20
68.23269579658762
 11
35.11660213004981
 21
68.25813610355506
 72
     1
 10
35.11660213004981
 20
68.25813610355506
 11
35.11246971065862
 21
68.28361651143256
 72
     1
 10
35.11246971065862
 20
68.28361651143256
 11
35.10591796603418
 21
68.32446569658926
 72
     1
 10
35.10591796603418
 20
68.32446569658926
 11
35.09928684641177
 21
68.36526031143379
 72
     1
 10
35.09928684641177
 20
68.36526031143379
 11
35.0925465861669
 21
68.40600531690481
 72
     1
 10
35.0925465861669
 20
68.40600531690481
 11
35.08566741967574
 21
68.44670567393975
 72
     1
 10
35.08566741967574
 20
68.44670567393975
 11
35.0786195813138
 21
68.48736634347539
 72
     1
 10
35.0786195813138
 20
68.48736634347539
 11
35.07137330545724
 21
68.52799228644913
 72
     1
 10
35.07137330545724
 20
68.52799228644913
 11
35.06389882648126
 21
68.56858846379903
 72
     1
 10
35.06389882648126
 20
68.56858846379903
 11
35.0561663787617
 21
68.60915983646123
 72
     1
 10
35.0561663787617
 20
68.60915983646123
 11
35.05099735762631
 21
68.63772546507238
 72
     1
 10
35.05099735762631
 20
68.63772546507238
 11
35.04581676097019
 21
68.66643330722228
 72
     1
 10
35.04581676097019
 20
68.66643330722228
 11
35.04059647681508
 21
68.69524698270217
 72
     1
 10
35.04059647681508
 20
68.69524698270217
 11
35.03530839318272
 21
68.72413011130651
 72
     1
 10
35.03530839318272
 20
68.72413011130651
 11
35.02992439809424
 21
68.75304631282586
 72
     1
 10
35.02992439809424
 20
68.75304631282586
 11
35.02441637957171
 21
68.78195920705403
 72
     1
 10
35.02441637957171
 20
68.78195920705403
 11
35.01875622563623
 21
68.81083241378289
 72
     1
 10
35.01875622563623
 20
68.81083241378289
 11
35.01291582430956
 21
68.83962955280496
 72
     1
 10
35.01291582430956
 20
68.83962955280496
 11
35.00523429510012
 21
68.87774539927157
 72
     1
 10
35.00523429510012
 20
68.87774539927157
 11
34.99744155821125
 21
68.91573804912692
 72
     1
 10
34.99744155821125
 20
68.91573804912692
 11
34.98955539033527
 21
68.95361329013058
 72
     1
 10
34.98955539033527
 20
68.95361329013058
 11
34.98159356816421
 21
68.99137691004402
 72
     1
 10
34.98159356816421
 20
68.99137691004402
 11
34.97357386839043
 21
69.02903469662621
 72
     1
 10
34.97357386839043
 20
69.02903469662621
 11
34.96551406770626
 21
69.0665924376386
 72
     1
 10
34.96551406770626
 20
69.0665924376386
 11
34.95743194280405
 21
69.10405592084143
 72
     1
 10
34.95743194280405
 20
69.10405592084143
 11
34.94934527037583
 21
69.1414309339949
 72
     1
 10
34.94934527037583
 20
69.1414309339949
 11
34.94312308815414
 21
69.16908085624986
 72
     1
 10
34.94312308815414
 20
69.16908085624986
 11
34.93696005123216
 21
69.1967365662644
 72
     1
 10
34.93696005123216
 20
69.1967365662644
 11
34.93083923720315
 21
69.2244038518
 72
     1
 10
34.93083923720315
 20
69.2244038518
 11
34.92474372366034
 21
69.25208850061622
 72
     1
 10
34.92474372366034
 20
69.25208850061622
 11
34.91865658819698
 21
69.2797963004733
 72
     1
 10
34.91865658819698
 20
69.2797963004733
 11
34.91256090840632
 21
69.3075330391314
 72
     1
 10
34.91256090840632
 20
69.3075330391314
 11
34.90643976188159
 21
69.3353045043514
 72
     1
 10
34.90643976188159
 20
69.3353045043514
 11
34.90027622621636
 21
69.36311648389285
 72
     1
 10
34.90027622621636
 20
69.36311648389285
 11
34.89308981050776
 21
69.39247923867737
 72
     1
 10
34.89308981050776
 20
69.39247923867737
 11
34.88577129537446
 21
69.42154144333985
 72
     1
 10
34.88577129537446
 20
69.42154144333985
 11
34.87836695543566
 21
69.45034650608154
 72
     1
 10
34.87836695543566
 20
69.45034650608154
 11
34.8709230653112
 21
69.478937835105
 72
     1
 10
34.8709230653112
 20
69.478937835105
 11
34.86348589962028
 21
69.50735883861208
 72
     1
 10
34.86348589962028
 20
69.50735883861208
 11
34.85610173298273
 21
69.53565292480403
 72
     1
 10
34.85610173298273
 20
69.53565292480403
 11
34.84881684001776
 21
69.56386350188403
 72
     1
 10
34.84881684001776
 20
69.56386350188403
 11
34.84167749534488
 21
69.59203397805332
 72
     1
 10
34.84167749534488
 20
69.59203397805332
 11
34.83750073058597
 21
69.60318742361143
 72
     1
 10
34.83750073058597
 20
69.60318742361143
 11
34.8315731683456
 21
69.6131561910912
 72
     1
 10
34.8315731683456
 20
69.6131561910912
 11
34.82411515692598
 21
69.62179160645312
 72
     1
 10
34.82411515692598
 20
69.62179160645312
 11
34.81534704462774
 21
69.62894499566079
 72
     1
 10
34.81534704462774
 20
69.62894499566079
 11
34.80548917975341
 21
69.63446768467468
 72
     1
 10
34.80548917975341
 20
69.63446768467468
 11
34.79476191060426
 21
69.63821099945521
 72
     1
 10
34.79476191060426
 20
69.63821099945521
 11
34.78338558548218
 21
69.64002626596607
 72
     1
 10
34.78338558548218
 20
69.64002626596607
 11
34.77158055268876
 21
69.6397648101683
 72
     1
 10
34.77158055268876
 20
69.6397648101683
 11
34.76009625827695
 21
69.63710303360428
 72
     1
 10
34.76009625827695
 20
69.63710303360428
 11
34.74953635186227
 21
69.63248607767358
 72
     1
 10
34.74953635186227
 20
69.63248607767358
 11
34.74010092458556
 21
69.62612462814592
 72
     1
 10
34.74010092458556
 20
69.62612462814592
 11
34.73199006758769
 21
69.61822937079107
 72
     1
 10
34.73199006758769
 20
69.61822937079107
 11
34.72540387200917
 21
69.60901099137746
 72
     1
 10
34.72540387200917
 20
69.60901099137746
 11
34.72054242899085
 21
69.59868017567358
 72
     1
 10
34.72054242899085
 20
69.59868017567358
 11
34.71760582967327
 21
69.58744760944978
 72
     1
 10
34.71760582967327
 20
69.58744760944978
 11
34.71679416519759
 21
69.5755239784739
 72
     1
 10
34.71679416519759
 20
69.5755239784739
 11
34.71734531155951
 21
69.52276571864422
 72
     1
 10
34.71734531155951
 20
69.52276571864422
 11
34.71794234659203
 21
69.46954237093509
 72
     1
 10
34.71794234659203
 20
69.46954237093509
 11
34.71854847667625
 21
69.41587171203979
 72
     1
 10
34.71854847667625
 20
69.41587171203979
 11
34.71912690819363
 21
69.36177151865036
 72
     1
 10
34.71912690819363
 20
69.36177151865036
 11
34.71964084752527
 21
69.3072595674588
 72
     1
 10
34.71964084752527
 20
69.3072595674588
 11
34.72005350105198
 21
69.2523536351578
 72
     1
 10
34.72005350105198
 20
69.2523536351578
 11
34.72032807515518
 21
69.19707149843937
 72
     1
 10
34.72032807515518
 20
69.19707149843937
 11
34.720427776216
 21
69.1414309339949
 72
     1
 10
34.720427776216
 20
69.1414309339949
 11
34.69832485349468
 21
68.1208066772638
 72
     1
 10
34.69832485349468
 20
68.1208066772638
 11
34.6190261006396
 21
67.03647985054349
 72
     1
 10
34.6190261006396
 20
67.03647985054349
 11
34.46614479691375
 21
65.92995944365963
 72
     1
 10
34.46614479691375
 20
65.92995944365963
 11
34.22329422158074
 21
64.84275444643977
 72
     1
 10
34.22329422158074
 20
64.84275444643977
 11
33.87408765390357
 21
63.81637384871021
 72
     1
 10
33.87408765390357
 20
63.81637384871021
 11
33.40213837314587
 21
62.89232664029662
 72
     1
 10
33.40213837314587
 20
62.89232664029662
 11
32.7910596585703
 21
62.11212181102658
 72
     1
 10
32.7910596585703
 20
62.11212181102658
 11
32.02446478944019
 21
61.51726835072571
 72
     1
 10
32.02446478944019
 20
61.51726835072571
 11
32.00872952291461
 21
61.50700182863443
 72
     1
 10
32.00872952291461
 20
61.50700182863443
 11
31.96647473883614
 21
61.48208648530247
 72
     1
 10
31.96647473883614
 20
61.48208648530247
 11
31.89933258560135
 21
61.44745928023931
 72
     1
 10
31.89933258560135
 20
61.44745928023931
 11
31.80893521160547
 21
61.40805717295444
 72
     1
 10
31.80893521160547
 20
61.40805717295444
 11
31.69691476524474
 21
61.36881712295734
 72
     1
 10
31.69691476524474
 20
61.36881712295734
 11
31.56490339491474
 21
61.33467608975686
 72
     1
 10
31.56490339491474
 20
61.33467608975686
 11
31.41453324901136
 21
61.31057103286312
 72
     1
 10
31.41453324901136
 20
61.31057103286312
 11
31.2474364759305
 21
61.30143891178561
 72
     1
 10
31.2474364759305
 20
61.30143891178561
 11
31.05481023681267
 21
61.31386020324378
 72
     1
 10
31.05481023681267
 20
61.31386020324378
 11
30.84719741930121
 21
61.35437486963565
 72
     1
 10
30.84719741930121
 20
61.35437486963565
 11
30.62651501227933
 21
61.42940691144964
 72
     1
 10
30.62651501227933
 20
61.42940691144964
 11
30.39468000463057
 21
61.54538032917294
 72
     1
 10
30.39468000463057
 20
61.54538032917294
 11
30.15360938523815
 21
61.70871912329204
 72
     1
 10
30.15360938523815
 20
61.70871912329204
 11
29.90522014298591
 21
61.92584729429348
 72
     1
 10
29.90522014298591
 20
61.92584729429348
 11
29.65142926675644
 21
62.20318884266571
 72
     1
 10
29.65142926675644
 20
62.20318884266571
 11
29.3941537454339
 21
62.54716776889523
 72
     1
 10
29.3941537454339
 20
62.54716776889523
 11
29.38608574542261
 21
62.55651276263035
 72
     1
 10
29.38608574542261
 20
62.55651276263035
 11
29.37668573372669
 21
62.56397656724922
 72
     1
 10
29.37668573372669
 20
62.56397656724922
 11
29.36625219341119
 21
62.56949991708606
 72
     1
 10
29.36625219341119
 20
62.56949991708606
 11
29.35508360754178
 21
62.57302354647382
 72
     1
 10
29.35508360754178
 20
62.57302354647382
 11
29.34347845918318
 21
62.5744881897448
 72
     1
 10
29.34347845918318
 20
62.5744881897448
 11
29.33173523140141
 21
62.57383458123323
 72
     1
 10
29.33173523140141
 20
62.57383458123323
 11
29.32015240726118
 21
62.5710034552714
 72
     1
 10
29.32015240726118
 20
62.5710034552714
 11
29.30902846982785
 21
62.56593554619228
 72
     1
 10
29.30902846982785
 20
62.56593554619228
 11
29.2992454581082
 21
62.55884402402
 72
     1
 10
29.2992454581082
 20
62.55884402402
 11
29.29114187846769
 21
62.55016748235789
 72
     1
 10
29.29114187846769
 20
62.55016748235789
 11
29.28483591499366
 21
62.54022920895677
 72
     1
 10
29.28483591499366
 20
62.54022920895677
 11
29.28044575177312
 21
62.52935249156939
 72
     1
 10
29.28044575177312
 20
62.52935249156939
 11
29.27808957289406
 21
62.51786061794787
 72
     1
 10
29.27808957289406
 20
62.51786061794787
 11
29.27788556244318
 21
62.50607687584496
 72
     1
 10
29.27788556244318
 20
62.50607687584496
 11
29.27995190450813
 21
62.49432455301148
 72
     1
 10
29.27995190450813
 20
62.49432455301148
 11
29.28440678317594
 21
62.48292693720082
 72
     1
 10
29.28440678317594
 20
62.48292693720082
 11
29.34309249866072
 21
62.36760422713277
 72
     1
 10
29.34309249866072
 20
62.36760422713277
 11
29.42803622285233
 21
62.20121033900201
 72
     1
 10
29.42803622285233
 20
62.20121033900201
 11
29.53008127979384
 21
62.00117511370777
 72
     1
 10
29.53008127979384
 20
62.00117511370777
 11
29.64007099352768
 21
61.78492839214794
 72
     1
 10
29.64007099352768
 20
61.78492839214794
 11
29.74884868809726
 21
61.5699000152198
 72
     1
 10
29.74884868809726
 20
61.5699000152198
 11
29.84725768754533
 21
61.37351982382191
 72
     1
 10
29.84725768754533
 20
61.37351982382191
 11
29.92614131591434
 21
61.21321765885154
 72
     1
 10
29.92614131591434
 20
61.21321765885154
 11
29.97634289724769
 21
61.10642336120724
 72
     1
 10
29.97634289724769
 20
61.10642336120724
 11
30.11213326162182
 21
60.78479352674655
 72
     1
 10
30.11213326162182
 20
60.78479352674655
 11
30.23106718762421
 21
60.47596208388735
 72
     1
 10
30.23106718762421
 20
60.47596208388735
 11
30.33518610098353
 21
60.18095677348802
 72
     1
 10
30.33518610098353
 20
60.18095677348802
 11
30.42653142742909
 21
59.90080533640764
 72
     1
 10
30.42653142742909
 20
59.90080533640764
 11
30.50714459269019
 21
59.6365355135059
 72
     1
 10
30.50714459269019
 20
59.6365355135059
 11
30.57906702249583
 21
59.38917504564121
 72
     1
 10
30.57906702249583
 20
59.38917504564121
 11
30.64434014257532
 21
59.15975167367392
 72
     1
 10
30.64434014257532
 20
59.15975167367392
 11
30.70500537865796
 21
58.94929313846244
 72
     1
 10
30.70500537865796
 20
58.94929313846244
 11
30.76316272309436
 21
58.76028073551451
 72
     1
 10
30.76316272309436
 20
58.76028073551451
 11
30.82099429930994
 21
58.58950060423721
 72
     1
 10
30.82099429930994
 20
58.58950060423721
 11
30.88141879212604
 21
58.43892306359044
 72
     1
 10
30.88141879212604
 20
58.43892306359044
 11
30.947354886364
 21
58.31051843253415
 72
     1
 10
30.947354886364
 20
58.31051843253415
 11
31.02172126684512
 21
58.2062570300289
 72
     1
 10
31.02172126684512
 20
58.2062570300289
 11
31.10743661839108
 21
58.12810917503526
 72
     1
 10
31.10743661839108
 20
58.12810917503526
 11
31.20741962582288
 21
58.07804518651252
 72
     1
 10
31.20741962582288
 20
58.07804518651252
 11
31.32458897396218
 21
58.05803538342126
 72
     1
 10
31.32458897396218
 20
58.05803538342126
 11
31.43395394079006
 21
58.07168829964857
 72
     1
 10
31.43395394079006
 20
58.07168829964857
 11
31.55164336053048
 21
58.10924776328792
 72
     1
 10
31.55164336053048
 20
58.10924776328792
 11
31.67966806646581
 21
58.17125507373996
 72
     1
 10
31.67966806646581
 20
58.17125507373996
 11
31.82003889187775
 21
58.25825153040533
 72
     1
 10
31.82003889187775
 20
58.25825153040533
 11
31.97476667004833
 21
58.37077843268532
 72
     1
 10
31.97476667004833
 20
58.37077843268532
 11
32.14586223425959
 21
58.50937707998186
 72
     1
 10
32.14586223425959
 20
58.50937707998186
 11
32.33533641779388
 21
58.67458877169559
 72
     1
 10
32.33533641779388
 20
58.67458877169559
 11
32.5452000539329
 21
58.86695480722717
 72
     1
 10
32.5452000539329
 20
58.86695480722717
 11
33.08229952156698
 21
59.44932220827695
 72
     1
 10
33.08229952156698
 20
59.44932220827695
 11
33.5441035353932
 21
60.0887581658131
 72
     1
 10
33.5441035353932
 20
60.0887581658131
 11
33.93357046773156
 21
60.75194295737882
 72
     1
 10
33.93357046773156
 20
60.75194295737882
 11
34.25365869090205
 21
61.40555686051727
 72
     1
 10
34.25365869090205
 20
61.40555686051727
 11
34.50732657722564
 21
62.01628015277097
 72
     1
 10
34.50732657722564
 20
62.01628015277097
 11
34.69753249902233
 21
62.55079311168248
 72
     1
 10
34.69753249902233
 20
62.55079311168248
 11
34.82723482861243
 21
62.97577601479432
 72
     1
 10
34.82723482861243
 20
62.97577601479432
 11
34.89939193831691
 21
63.25790913965032
 72
     1
 10
34.89939193831691
 20
63.25790913965032
 11
34.93701982147167
 21
63.37788972154708
 72
     1
 10
34.93701982147167
 20
63.37788972154708
 11
34.96559068662804
 21
63.48357395692251
 72
     1
 10
34.96559068662804
 20
63.48357395692251
 11
34.9863497290672
 21
63.57453588308585
 72
     1
 10
34.9863497290672
 20
63.57453588308585
 11
35.00054214406968
 21
63.65034953734633
 72
     1
 10
35.00054214406968
 20
63.65034953734633
 11
35.00941312691634
 21
63.71058895701253
 72
     1
 10
35.00941312691634
 20
63.71058895701253
 11
35.01420787288771
 21
63.75482817939435
 72
     1
 10
35.01420787288771
 20
63.75482817939435
 11
35.01617157726464
 21
63.78264124180038
 72
     1
 10
35.01617157726464
 20
63.78264124180038
 11
35.01654943532797
 21
63.7936021815392
 72
     1
 10
35.01654943532797
 20
63.7936021815392
 11
35.03169758869586
 21
63.8613297942861
 72
     1
 10
35.03169758869586
 20
63.8613297942861
 11
35.04640711251758
 21
63.93006158343982
 72
     1
 10
35.04640711251758
 20
63.93006158343982
 11
35.06069247619398
 21
63.99965409522741
 72
     1
 10
35.06069247619398
 20
63.99965409522741
 11
35.07456814912557
 21
64.06996387587719
 72
     1
 10
35.07456814912557
 20
64.06996387587719
 11
35.08804860071319
 21
64.14084747161687
 72
     1
 10
35.08804860071319
 20
64.14084747161687
 11
35.10114830035705
 21
64.21216142867348
 72
     1
 10
35.10114830035705
 20
64.21216142867348
 11
35.11388171745864
 21
64.28376229327408
 72
     1
 10
35.11388171745864
 20
64.28376229327408
 11
35.12626332141782
 21
64.35550661164763
 72
     1
 10
35.12626332141782
 20
64.35550661164763
 11
35.12969482866217
 21
64.3774262378254
 72
     1
 10
35.12969482866217
 20
64.3774262378254
 11
35.13302055806746
 21
64.39925987442092
 72
     1
 10
35.13302055806746
 20
64.39925987442092
 11
35.13626746397499
 21
64.4210009068531
 72
     1
 10
35.13626746397499
 20
64.4210009068531
 11
35.13946250072543
 21
64.442642720537
 72
     1
 10
35.13946250072543
 20
64.442642720537
 11
35.14263262266009
 21
64.46417870089026
 72
     1
 10
35.14263262266009
 20
64.46417870089026
 11
35.14580478411932
 21
64.48560223332926
 72
     1
 10
35.14580478411932
 20
64.48560223332926
 11
35.14900593944444
 21
64.5069067032716
 72
     1
 10
35.14900593944444
 20
64.5069067032716
 11
35.15226304297674
 21
64.52808549613302
 72
     1
 10
35.15226304297674
 20
64.52808549613302
 11
35.16015769037966
 21
64.58009065810927
 72
     1
 10
35.16015769037966
 20
64.58009065810927
 11
35.16770261925171
 21
64.63210367490271
 72
     1
 10
35.16770261925171
 20
64.63210367490271
 11
35.17493837146798
 21
64.68413240133118
 72
     1
 10
35.17493837146798
 20
64.68413240133118
 11
35.18190548890446
 21
64.73618469221253
 72
     1
 10
35.18190548890446
 20
64.73618469221253
 11
35.18864451343623
 21
64.78826840236395
 72
     1
 10
35.18864451343623
 20
64.78826840236395
 11
35.19519598693962
 21
64.84039138660265
 72
     1
 10
35.19519598693962
 20
64.84039138660265
 11
35.20160045128968
 21
64.89256149974645
 72
     1
 10
35.20160045128968
 20
64.89256149974645
 11
35.20789844836179
 21
64.94478659661256
 72
     1
 10
35.20789844836179
 20
64.94478659661256
 11
35.2103261889142
 21
64.96678001673348
 72
     1
 10
35.2103261889142
 20
64.96678001673348
 11
35.21279959760162
 21
64.98883916927433
 72
     1
 10
35.21279959760162
 20
64.98883916927433
 11
35.21528474713166
 21
65.01096364082434
 72
     1
 10
35.21528474713166
 20
65.01096364082434
 11
35.21774771021227
 21
65.03315301797086
 72
     1
 10
35.21774771021227
 20
65.03315301797086
 11
35.22015455955077
 21
65.0554068873031
 72
     1
 10
35.22015455955077
 20
65.0554068873031
 11
35.22247136785445
 21
65.07772483541032
 72
     1
 10
35.22247136785445
 20
65.07772483541032
 11
35.22466420783125
 21
65.1001064488792
 72
     1
 10
35.22466420783125
 20
65.1001064488792
 11
35.22669915218883
 21
65.12255131429963
 72
     1
 10
35.22669915218883
 20
65.12255131429963
 11
35.23272083443519
 21
65.18436540745563
 72
     1
 10
35.23272083443519
 20
65.18436540745563
 11
35.2383931840085
 21
65.24627558788592
 72
     1
 10
35.2383931840085
 20
65.24627558788592
 11
35.24370090468481
 21
65.30824975972772
 72
     1
 10
35.24370090468481
 20
65.30824975972772
 11
35.24862870024047
 21
65.3702558271221
 72
     1
 10
35.24862870024047
 20
65.3702558271221
 11
35.25316127445217
 21
65.4322616942069
 72
     1
 10
35.25316127445217
 20
65.4322616942069
 11
35.25728333109594
 21
65.49423526512129
 72
     1
 10
35.25728333109594
 20
65.49423526512129
 11
35.2609795739488
 21
65.55614444400504
 72
     1
 10
35.2609795739488
 20
65.55614444400504
 11
35.26423470678677
 21
65.61795713499603
 72
     1
 10
35.26423470678677
 20
65.61795713499603
 11
35.26462221111712
 21
65.62598386276454
 72
     1
 10
35.26462221111712
 20
65.62598386276454
 11
35.26520484565091
 21
65.63442028127753
 72
     1
 10
35.26520484565091
 20
65.63442028127753
 11
35.26590654268166
 21
65.64325605524942
 72
     1
 10
35.26590654268166
 20
65.64325605524942
 11
35.2666512345029
 21
65.65248084939272
 72
     1
 10
35.2666512345029
 20
65.65248084939272
 11
35.26736285340848
 21
65.66208432842245
 72
     1
 10
35.26736285340848
 20
65.66208432842245
 11
35.2679653316916
 21
65.67205615705242
 72
     1
 10
35.2679653316916
 20
65.67205615705242
 11
35.26838260164611
 21
65.6823859999964
 72
     1
 10
35.26838260164611
 20
65.6823859999964
 11
35.26853859556586
 21
65.69306352196816
 72
     1
 10
35.26853859556586
 20
65.69306352196816
 11
35.27173984711182
 21
65.76240771127982
 72
     1
 10
35.27173984711182
 20
65.76240771127982
 11
35.27439084802077
 21
65.83180605749163
 72
     1
 10
35.27439084802077
 20
65.83180605749163
 11
35.27653996743199
 21
65.90123003521332
 72
     1
 10
35.27653996743199
 20
65.90123003521332
 11
35.27823557448514
 21
65.97065111905393
 72
     1
 10
35.27823557448514
 20
65.97065111905393
 11
35.27952603831949
 21
66.04004078362512
 72
     1
 10
35.27952603831949
 20
66.04004078362512
 11
35.28045972807435
 21
66.1093705035353
 72
     1
 10
35.28045972807435
 20
66.1093705035353
 11
35.28108501288902
 21
66.17861175339611
 72
     1
 10
35.28108501288902
 20
66.17861175339611
 11
35.28145026190312
 21
66.24773600781728
 72
     1
 10
35.28145026190312
 20
66.24773600781728
 11
35.28116817749201
 21
66.27036573705799
 72
     1
 10
35.28116817749201
 20
66.27036573705799
 11
35.28083400323837
 21
66.29281769937589
 72
     1
 10
35.28083400323837
 20
66.29281769937589
 11
35.28046179513166
 21
66.31511917992643
 72
     1
 10
35.28046179513166
 20
66.31511917992643
 11
35.28006560916067
 21
66.33729746386571
 72
     1
 10
35.28006560916067
 20
66.33729746386571
 11
35.27965950131518
 21
66.35937983634919
 72
     1
 10
35.27965950131518
 20
66.35937983634919
 11
35.27925752758398
 21
66.38139358253231
 72
     1
 10
35.27925752758398
 20
66.38139358253231
 11
35.27887374395685
 21
66.40336598757054
 72
     1
 10
35.27887374395685
 20
66.40336598757054
 11
35.27852220642227
 21
66.42532433661867
 72
     1
 10
35.27852220642227
 20
66.42532433661867
 11
35.2776792604801
 21
66.47385525768988
 72
     1
 10
35.2776792604801
 20
66.47385525768988
 11
35.27668004501101
 21
66.52241098344814
 72
     1
 10
35.27668004501101
 20
66.52241098344814
 11
35.27551711860824
 21
66.5709700164976
 72
     1
 10
35.27551711860824
 20
66.5709700164976
 11
35.2741830398663
 21
66.61951085944362
 72
     1
 10
35.2741830398663
 20
66.61951085944362
 11
35.27267036737876
 21
66.66801201489099
 72
     1
 10
35.27267036737876
 20
66.66801201489099
 11
35.27097165973981
 21
66.71645198544316
 72
     1
 10
35.27097165973981
 20
66.71645198544316
 11
35.26907947554335
 21
66.7648092737068
 72
     1
 10
35.26907947554335
 20
66.7648092737068
 11
35.26698637338324
 21
66.81306238228477
 97
        0
 75
     2
 76
     1
 98
        0
  0
ENDSEC
  0
SECTION
  2
OBJECTS
  0
DICTIONARY
  5
C
330
0
100
AcDbDictionary
  3
ACAD_GROUP
350
D
  3
ACAD_LAYOUT
350
1A
  3
ACAD_MATERIAL
350
3B
  3
ACAD_MLEADERSTYLE
350
17A
  3
ACAD_MLINESTYLE
350
17
  3
ACAD_PLOTSETTINGS
350
19
  3
ACAD_VISUALSTYLE
350
2A
  3
ACDBHEADERROUNDTRIPXREC
350
158
  3
ACDBVARIABLEDICTIONARY
350
178
  0
DICTIONARY
  5
D
102
{ACAD_REACTORS
330
C
102
}
330
C
100
AcDbDictionary
  0
DICTIONARY
  5
1A
102
{ACAD_REACTORS
330
C
102
}
330
C
100
AcDbDictionary
  0
DICTIONARY
  5
3B
102
{ACAD_REACTORS
330
C
102
}
330
C
100
AcDbDictionary
  3
BYBLOCK
350
3D
  3
BYLAYER
350
3C
  3
GLOBAL
350
3E
  0
DICTIONARY
  5
17A
102
{ACAD_REACTORS
330
C
102
}
330
C
100
AcDbDictionary
  0
DICTIONARY
  5
17
102
{ACAD_REACTORS
330
C
102
}
330
C
100
AcDbDictionary
  3
STANDARD
350
18
  0
DICTIONARY
  5
19
102
{ACAD_REACTORS
330
C
102
}
330
C
100
AcDbDictionary
  0
DICTIONARY
  5
2A
102
{ACAD_REACTORS
330
C
102
}
330
C
100
AcDbDictionary
  3
2DWIREFRAME
350
2F
  3
3DWIREFRAME
350
30
  3
3D_HIDDEN
350
31
  3
BASIC
350
32
  3
BRIGHTEN
350
36
  3
COLORCHANGE
350
3A
  3
CONCEPTUAL
350
34
  3
DIM
350
35
  3
FACEPATTERN
350
39
  3
FLAT
350
2B
  3
FLATWITHEDGES
350
2C
  3
GOURAUD
350
2D
  3
GOURAUDWITHEDGES
350
2E
  3
LINEPATTERN
350
38
  3
REALISTIC
350
33
  3
THICKEN
350
37
  0
DICTIONARY
  5
158
102
{ACAD_REACTORS
330
C
102
}
330
C
100
AcDbDictionary
  3
CEPSNTYPE
350
161
  3
DIMSTYLEDATA
350
177
  3
FINGERPRINTGUID
350
162
  3
HYPERLINKBASE
350
15B
  3
INSUNITS
350
160
  3
LAYOUTDICT
350
15D
  3
LWETCUNION
350
15F
  3
PLOTSETDICT
350
15E
  3
PSVPSCALE
350
164
  3
PUCSBASE
350
167
  3
PUCSORGBACK
350
16D
  3
PUCSORGBOTTOM
350
169
  3
PUCSORGFRONT
350
16C
  3
PUCSORGLEFT
350
16A
  3
PUCSORGRIGHT
350
16B
  3
PUCSORGTOP
350
168
  3
PUCSORTHOREF
350
165
  3
PUCSORTHOVIEW
350
166
  3
STYLESHEET
350
15C
  3
TSTACKALIGN
350
159
  3
TSTACKSIZE
350
15A
  3
UCSBASE
350
170
  3
UCSORGBACK
350
176
  3
UCSORGBOTTOM
350
172
  3
UCSORGFRONT
350
175
  3
UCSORGLEFT
350
173
  3
UCSORGRIGHT
350
174
  3
UCSORGTOP
350
171
  3
UCSORTHOREF
350
16E
  3
UCSORTHOVIEW
350
16F
  3
VERSIONGUID
350
163
  0
DICTIONARY
  5
178
102
{ACAD_REACTORS
330
C
102
}
330
C
100
AcDbDictionary
  3
DIMASSOC
350
17B
  3
HIDETEXT
350
17C
  0
MATERIAL
  5
3D
102
{ACAD_REACTORS
330
3B
102
}
102
{ACAD_XDICTIONARY
360
17F
102
}
330
3B
100
AcDbMaterial
  1
ByBlock
  0
MATERIAL
  5
3C
102
{ACAD_REACTORS
330
3B
102
}
102
{ACAD_XDICTIONARY
360
17D
102
}
330
3B
100
AcDbMaterial
  1
ByLayer
  0
MATERIAL
  5
3E
102
{ACAD_REACTORS
330
3B
102
}
102
{ACAD_XDICTIONARY
360
181
102
}
330
3B
100
AcDbMaterial
  1
Global
  0
MLINESTYLE
  5
18
102
{ACAD_REACTORS
330
17
102
}
330
17
100
AcDbMlineStyle
  2
Standard
 70
     0
  3

 62
   256
 51
90.0
 52
90.0
 71
     2
 49
0.5
 62
   256
  6
BYLAYER
 49
-0.5
 62
   256
  6
BYLAYER
  0
ACAD_PROXY_OBJECT
  5
2F
102
{ACAD_REACTORS
330
2A
102
}
330
2A
100
AcDbProxyObject
 90
      499
 91
      501
 93
      436
310
42CC9915DA5C99599C985B595049028333333333333E3BF0000000000000FB0107901411070040501600405405064090741402480A0340
1001
ACAD
1000
AcDbSavedByObjectVersion
1070
     0
  0
ACAD_PROXY_OBJECT
  5
30
102
{ACAD_REACTORS
330
2A
102
}
330
2A
100
AcDbProxyObject
 90
      499
 91
      501
 93
      436
310
42CCD915DA5C99599C985B595059028333333333333E3BF0000000000000FB0107901411070040501600405405064090741402480A0340
1001
ACAD
1000
AcDbSavedByObjectVersion
1070
     0
  0
ACAD_PROXY_OBJECT
  5
31
102
{ACAD_REACTORS
330
2A
102
}
330
2A
100
AcDbProxyObject
 90
      499
 91
      501
 93
      500
310
424CD108121A5919195B90640502408333333333333E3BF0000000000000FB01079024090700405020000000000001110200405405064090740C02480A0340
1001
ACAD
1000
AcDbSavedByObjectVersion
1070
     0
  0
ACAD_PROXY_OBJECT
  5
32
102
{ACAD_REACTORS
330
2A
102
}
330
2A
100
AcDbProxyObject
 90
      499
 91
      501
 93
      388
310
4150985CDA58D07406404333333333333E3BF0000000000000FB0107A41107004050150841D405064090741402480A0350
1001
ACAD
1000
AcDbSavedByObjectVersion
1070
     0
  0
ACAD_PROXY_OBJECT
  5
36
102
{ACAD_REACTORS
330
2A
102
}
330
2A
100
AcDbProxyObject
 90
      499
 91
      501
 93
      428
310
42109C9A59DA1D195B90C409028333333333333E3BF0000000000000FB010790141107004050150841D405064090741402480A029950
1001
ACAD
1000
AcDbSavedByObjectVersion
1070
     0
  0
ACAD_PROXY_OBJECT
  5
3A
102
{ACAD_REACTORS
330
2A
102
}
330
2A
100
AcDbProxyObject
 90
      499
 91
      501
 93
      452
310
42D0DBDB1BDC90DA185B99D95104090240C333333333333E3BF0000000000000FB0108901411070040501508421405064090741402480A0350
1001
ACAD
1000
AcDbSavedByObjectVersion
1070
     0
  0
ACAD_PROXY_OBJECT
  5
34
102
{ACAD_REACTORS
330
2A
102
}
330
2A
100
AcDbProxyObject
 90
      499
 91
      501
 93
      500
310
4290DBDB98D95C1D1D585B10940D028333333333333E3BF0000000000000FB0107902409070040501000000000000111010841D405064090740C02480A0340
1001
ACAD
1000
AcDbSavedByObjectVersion
1070
     0
  0
ACAD_PROXY_OBJECT
  5
35
102
{ACAD_REACTORS
330
2A
102
}
330
2A
100
AcDbProxyObject
 90
      499
 91
      501
 93
      412
310
40D11A5B50B409028333333333333E3BF0000000000000FB010790141107004050150841D405064090741402480A02677FFFFFD0
1001
ACAD
1000
AcDbSavedByObjectVersion
1070
     0
  0
ACAD_PROXY_OBJECT
  5
39
102
{ACAD_REACTORS
330
2A
102
}
330
2A
100
AcDbProxyObject
 90
      499
 91
      501
 93
      444
310
42D19858D95C185D1D195C9B90F409028333333333333E3BF0000000000000FB010790141107004050150841D405064090741402480A0350
1001
ACAD
1000
AcDbSavedByObjectVersion
1070
     0
  0
ACAD_PROXY_OBJECT
  5
2B
102
{ACAD_REACTORS
330
2A
102
}
330
2A
100
AcDbProxyObject
 90
      499
 91
      501
 93
      388
310
41119B185D240901404333333333333E3BF0000000000000F9010740A41107004050150841D405064090741402480A1B50
1001
ACAD
1000
AcDbSavedByObjectVersion
1070
     0
  0
ACAD_PROXY_OBJECT
  5
2C
102
{ACAD_REACTORS
330
2A
102
}
330
2A
100
AcDbProxyObject
 90
      499
 91
      501
 93
      476
310
43519B185D15DA5D1A115919D95CD0140901404333333333333E3BF0000000000000F9010740901411070040501600405405064090741402480A1B50
1001
ACAD
1000
AcDbSavedByObjectVersion
1070
     0
  0
ACAD_PROXY_OBJECT
  5
2D
102
{ACAD_REACTORS
330
2A
102
}
330
2A
100
AcDbProxyObject
 90
      499
 91
      501
 93
      412
310
41D1DBDD5C985D5910240902404333333333333E3BF0000000000000F9010740A411070040501641D405064090741402480A1B50
1001
ACAD
1000
AcDbSavedByObjectVersion
1070
     0
  0
ACAD_PROXY_OBJECT
  5
2E
102
{ACAD_REACTORS
330
2A
102
}
330
2A
100
AcDbProxyObject
 90
      499
 91
      501
 93
      500
310
4411DBDD5C985D5915DA5D1A115919D95CD0340902404333333333333E3BF0000000000000F9010740901411070040501600405405064090741402480A1B50
1001
ACAD
1000
AcDbSavedByObjectVersion
1070
     0
  0
ACAD_PROXY_OBJECT
  5
38
102
{ACAD_REACTORS
330
2A
102
}
330
2A
100
AcDbProxyObject
 90
      499
 91
      501
 93
      444
310
42D31A5B995C185D1D195C9B90E409028333333333333E3BF0000000000000FB010790141107004050750841D405064090741402483A0350
1001
ACAD
1000
AcDbSavedByObjectVersion
1070
     0
  0
ACAD_PROXY_OBJECT
  5
33
102
{ACAD_REACTORS
330
2A
102
}
330
2A
100
AcDbProxyObject
 90
      499
 91
      501
 93
      420
310
425499585B1A5CDD1A58D08409028333333333333E3BF0000000000000FB01079019070040501508421405064090741402480A1B40
1001
ACAD
1000
AcDbSavedByObjectVersion
1070
     0
  0
ACAD_PROXY_OBJECT
  5
37
102
{ACAD_REACTORS
330
2A
102
}
330
2A
100
AcDbProxyObject
 90
      499
 91
      501
 93
      412
310
41D51A1A58DAD95B90D409028333333333333E3BF0000000000000FB010790141107004050150C41D405064090741402480A0350
1001
ACAD
1000
AcDbSavedByObjectVersion
1070
     0
  0
XRECORD
  5
161
102
{ACAD_REACTORS
330
158
102
}
330
158
100
AcDbXrecord
 90
        0
  0
XRECORD
  5
177
102
{ACAD_REACTORS
330
158
102
}
330
158
100
AcDbXrecord
1000
DSTYLE
1002
{
1070
   340
340
11
1002
}
  0
XRECORD
  5
162
102
{ACAD_REACTORS
330
158
102
}
330
158
100
AcDbXrecord
  1
{0D1E85EA-9301-E9C0-54D2-2EAC1970E752}
  0
XRECORD
  5
15B
102
{ACAD_REACTORS
330
158
102
}
330
158
100
AcDbXrecord
  1

  0
XRECORD
  5
160
102
{ACAD_REACTORS
330
158
102
}
330
158
100
AcDbXrecord
 90
        4
  0
XRECORD
  5
15D
102
{ACAD_REACTORS
330
158
102
}
330
158
100
AcDbXrecord
340
1A
  0
XRECORD
  5
15F
102
{ACAD_REACTORS
330
158
102
}
330
158
100
AcDbXrecord
 90
    10269
  0
XRECORD
  5
15E
102
{ACAD_REACTORS
330
158
102
}
330
158
100
AcDbXrecord
340
19
  0
XRECORD
  5
164
102
{ACAD_REACTORS
330
158
102
}
330
158
100
AcDbXrecord
 40
0.0
  0
XRECORD
  5
167
102
{ACAD_REACTORS
330
158
102
}
330
158
100
AcDbXrecord
340
0
  0
XRECORD
  5
16D
102
{ACAD_REACTORS
330
158
102
}
330
158
100
AcDbXrecord
 10
0.0
 20
0.0
 30
0.0
  0
XRECORD
  5
169
102
{ACAD_REACTORS
330
158
102
}
330
158
100
AcDbXrecord
 10
0.0
 20
0.0
 30
0.0
  0
XRECORD
  5
16C
102
{ACAD_REACTORS
330
158
102
}
330
158
100
AcDbXrecord
 10
0.0
 20
0.0
 30
0.0
  0
XRECORD
  5
16A
102
{ACAD_REACTORS
330
158
102
}
330
158
100
AcDbXrecord
 10
0.0
 20
0.0
 30
0.0
  0
XRECORD
  5
16B
102
{ACAD_REACTORS
330
158
102
}
330
158
100
AcDbXrecord
 10
0.0
 20
0.0
 30
0.0
  0
XRECORD
  5
168
102
{ACAD_REACTORS
330
158
102
}
330
158
100
AcDbXrecord
 10
0.0
 20
0.0
 30
0.0
  0
XRECORD
  5
165
102
{ACAD_REACTORS
330
158
102
}
330
158
100
AcDbXrecord
340
0
  0
XRECORD
  5
166
102
{ACAD_REACTORS
330
158
102
}
330
158
100
AcDbXrecord
 70
     0
  0
XRECORD
  5
15C
102
{ACAD_REACTORS
330
158
102
}
330
158
100
AcDbXrecord
  1

  0
XRECORD
  5
159
102
{ACAD_REACTORS
330
158
102
}
330
158
100
AcDbXrecord
 90
        1
  0
XRECORD
  5
15A
102
{ACAD_REACTORS
330
158
102
}
330
158
100
AcDbXrecord
 90
       70
  0
XRECORD
  5
170
102
{ACAD_REACTORS
330
158
102
}
330
158
100
AcDbXrecord
340
0
  0
XRECORD
  5
176
102
{ACAD_REACTORS
330
158
102
}
330
158
100
AcDbXrecord
 10
0.0
 20
0.0
 30
0.0
  0
XRECORD
  5
172
102
{ACAD_REACTORS
330
158
102
}
330
158
100
AcDbXrecord
 10
0.0
 20
0.0
 30
0.0
  0
XRECORD
  5
175
102
{ACAD_REACTORS
330
158
102
}
330
158
100
AcDbXrecord
 10
0.0
 20
0.0
 30
0.0
  0
XRECORD
  5
173
102
{ACAD_REACTORS
330
158
102
}
330
158
100
AcDbXrecord
 10
0.0
 20
0.0
 30
0.0
  0
XRECORD
  5
174
102
{ACAD_REACTORS
330
158
102
}
330
158
100
AcDbXrecord
 10
0.0
 20
0.0
 30
0.0
  0
XRECORD
  5
171
102
{ACAD_REACTORS
330
158
102
}
330
158
100
AcDbXrecord
 10
0.0
 20
0.0
 30
0.0
  0
XRECORD
  5
16E
102
{ACAD_REACTORS
330
158
102
}
330
158
100
AcDbXrecord
340
0
  0
XRECORD
  5
16F
102
{ACAD_REACTORS
330
158
102
}
330
158
100
AcDbXrecord
 70
     0
  0
XRECORD
  5
163
102
{ACAD_REACTORS
330
158
102
}
330
158
100
AcDbXrecord
  1
{FAEB1C32-E019-11D5-929B-00C0DF256EC4}
  0
DICTIONARYVAR
  5
17B
102
{ACAD_REACTORS
330
178
102
}
330
178
100
DictionaryVariables
280
     0
  1
2
  0
DICTIONARYVAR
  5
17C
102
{ACAD_REACTORS
330
178
102
}
330
178
100
DictionaryVariables
280
     0
  1
1
  0
DICTIONARY
  5
17F
330
3D
100
AcDbDictionary
280
     1
  3
ACAD_XREC_ROUNDTRIP
360
180
  0
DICTIONARY
  5
17D
330
3C
100
AcDbDictionary
280
     1
  3
ACAD_XREC_ROUNDTRIP
360
17E
  0
DICTIONARY
  5
181
330
3E
100
AcDbDictionary
280
     1
  3
ACAD_XREC_ROUNDTRIP
360
182
  0
XRECORD
  5
180
102
{ACAD_REACTORS
330
17F
102
}
330
17F
100
AcDbXrecord
102
MATERIAL
148
0.0
149
0.0
149
0.0
 93
        0
 94
      127
282
     0
 72
     1
 77
     1
171
     1
175
     1
179
     1
273
     0
  0
XRECORD
  5
17E
102
{ACAD_REACTORS
330
17D
102
}
330
17D
100
AcDbXrecord
102
MATERIAL
148
0.0
149
0.0
149
0.0
 93
        0
 94
      127
282
     0
 72
     1
 77
     1
171
     1
175
     1
179
     1
273
     0
  0
XRECORD
  5
182
102
{ACAD_REACTORS
330
181
102
}
330
181
100
AcDbXrecord
102
MATERIAL
148
0.0
149
0.0
149
0.0
 93
        0
 94
      127
282
     0
 72
     1
 77
     1
171
     1
175
     1
179
     1
273
     0
  0
ENDSEC
  0
EOF
