  0
SECTION
  2
HEADER
  9
$ACADVER
  1
AC1014
  9
$ACADMAINTVER
 70
     9
  9
$DWGCODEPAGE
  3
UNDEFINED
  9
$INSBASE
 10
0.0
 20
0.0
 30
0.0
  9
$EXTMIN
 10
1.000000000000000E+20
 20
1.000000000000000E+20
 30
1.000000000000000E+20
  9
$EXTMAX
 10
-1.000000000000000E+20
 20
-1.000000000000000E+20
 30
-1.000000000000000E+20
  9
$LIMMIN
 10
0.0
 20
0.0
  9
$LIMMAX
 10
12.0
 20
9.0
  9
$ORTHOMODE
 70
     0
  9
$REGENMODE
 70
     1
  9
$FILLMODE
 70
     1
  9
$QTEXTMODE
 70
     0
  9
$MIRRTEXT
 70
     1
  9
$DRAGMODE
 70
     2
  9
$LTSCALE
 40
1.0
  9
$OSMODE
 70
    37
  9
$ATTMODE
 70
     1
  9
$TEXTSIZE
 40
0.2
  9
$TRACEWID
 40
0.05
  9
$TEXTSTYLE
  7
STANDARD
  9
$CLAYER
  8
0
  9
$CELTYPE
  6
BYLAYER
  9
$CECOLOR
 62
   256
  9
$CELTSCALE
 40
1.0
  9
$DELOBJ
 70
     1
  9
$DISPSILH
 70
     0
  9
$DIMSCALE
 40
1.0
  9
$DIMASZ
 40
0.18
  9
$DIMEXO
 40
0.0625
  9
$DIMDLI
 40
0.38
  9
$DIMRND
 40
0.0
  9
$DIMDLE
 40
0.0
  9
$DIMEXE
 40
0.18
  9
$DIMTP
 40
0.0
  9
$DIMTM
 40
0.0
  9
$DIMTXT
 40
0.18
  9
$DIMCEN
 40
0.09
  9
$DIMTSZ
 40
0.0
  9
$DIMTOL
 70
     0
  9
$DIMLIM
 70
     0
  9
$DIMTIH
 70
     1
  9
$DIMTOH
 70
     1
  9
$DIMSE1
 70
     0
  9
$DIMSE2
 70
     0
  9
$DIMTAD
 70
     0
  9
$DIMZIN
 70
     0
  9
$DIMBLK
  1

  9
$DIMASO
 70
     1
  9
$DIMSHO
 70
     1
  9
$DIMPOST
  1

  9
$DIMAPOST
  1

  9
$DIMALT
 70
     0
  9
$DIMALTD
 70
     2
  9
$DIMALTF
 40
25.4
  9
$DIMLFAC
 40
1.0
  9
$DIMTOFL
 70
     0
  9
$DIMTVP
 40
0.0
  9
$DIMTIX
 70
     0
  9
$DIMSOXD
 70
     0
  9
$DIMSAH
 70
     0
  9
$DIMBLK1
  1

  9
$DIMBLK2
  1

  9
$DIMSTYLE
  2
STANDARD
  9
$DIMCLRD
 70
     0
  9
$DIMCLRE
 70
     0
  9
$DIMCLRT
 70
     0
  9
$DIMTFAC
 40
1.0
  9
$DIMGAP
 40
0.09
  9
$DIMJUST
 70
     0
  9
$DIMSD1
 70
     0
  9
$DIMSD2
 70
     0
  9
$DIMTOLJ
 70
     1
  9
$DIMTZIN
 70
     0
  9
$DIMALTZ
 70
     0
  9
$DIMALTTZ
 70
     0
  9
$DIMFIT
 70
     3
  9
$DIMUPT
 70
     0
  9
$DIMUNIT
 70
     2
  9
$DIMDEC
 70
     4
  9
$DIMTDEC
 70
     4
  9
$DIMALTU
 70
     2
  9
$DIMALTTD
 70
     2
  9
$DIMTXSTY
  7
STANDARD
  9
$DIMAUNIT
 70
     0
  9
$LUNITS
 70
     2
  9
$LUPREC
 70
     4
  9
$SKETCHINC
 40
0.1
  9
$FILLETRAD
 40
0.5
  9
$AUNITS
 70
     0
  9
$AUPREC
 70
     0
  9
$MENU
  1
.
  9
$ELEVATION
 40
0.0
  9
$PELEVATION
 40
0.0
  9
$THICKNESS
 40
0.0
  9
$LIMCHECK
 70
     0
  9
$CHAMFERA
 40
0.5
  9
$CHAMFERB
 40
0.5
  9
$CHAMFERC
 40
1.0
  9
$CHAMFERD
 40
0.0
  9
$SKPOLY
 70
     0
  9
$TDCREATE
 40
2458968.637129618
  9
$TDUPDATE
 40
2458968.637129618
  9
$TDINDWG
 40
0.0000000116
  9
$TDUSRTIMER
 40
0.0000000116
  9
$USRTIMER
 70
     1
  9
$ANGBASE
 50
0.0
  9
$ANGDIR
 70
     0
  9
$PDMODE
 70
     0
  9
$PDSIZE
 40
0.0
  9
$PLINEWID
 40
0.0
  9
$COORDS
 70
     1
  9
$SPLFRAME
 70
     0
  9
$SPLINETYPE
 70
     6
  9
$SPLINESEGS
 70
     8
  9
$ATTDIA
 70
     0
  9
$ATTREQ
 70
     1
  9
$HANDLING
 70
     1
  9
$HANDSEED
  5
10B
  9
$SURFTAB1
 70
     6
  9
$SURFTAB2
 70
     6
  9
$SURFTYPE
 70
     6
  9
$SURFU
 70
     6
  9
$SURFV
 70
     6
  9
$UCSNAME
  2

  9
$UCSORG
 10
0.0
 20
0.0
 30
0.0
  9
$UCSXDIR
 10
1.0
 20
0.0
 30
0.0
  9
$UCSYDIR
 10
0.0
 20
1.0
 30
0.0
  9
$PUCSNAME
  2

  9
$PUCSORG
 10
0.0
 20
0.0
 30
0.0
  9
$PUCSXDIR
 10
1.0
 20
0.0
 30
0.0
  9
$PUCSYDIR
 10
0.0
 20
1.0
 30
0.0
  9
$USERI1
 70
     0
  9
$USERI2
 70
     0
  9
$USERI3
 70
     0
  9
$USERI4
 70
     0
  9
$USERI5
 70
     0
  9
$USERR1
 40
0.0
  9
$USERR2
 40
0.0
  9
$USERR3
 40
0.0
  9
$USERR4
 40
0.0
  9
$USERR5
 40
0.0
  9
$WORLDVIEW
 70
     1
  9
$SHADEDGE
 70
     3
  9
$SHADEDIF
 70
    70
  9
$TILEMODE
 70
     1
  9
$MAXACTVP
 70
    64
  9
$PINSBASE
 10
0.0
 20
0.0
 30
0.0
  9
$PLIMCHECK
 70
     0
  9
$PEXTMIN
 10
1.000000000000000E+20
 20
1.000000000000000E+20
 30
1.000000000000000E+20
  9
$PEXTMAX
 10
-1.000000000000000E+20
 20
-1.000000000000000E+20
 30
-1.000000000000000E+20
  9
$PLIMMIN
 10
0.0
 20
0.0
  9
$PLIMMAX
 10
12.0
 20
9.0
  9
$UNITMODE
 70
     0
  9
$VISRETAIN
 70
     1
  9
$PLINEGEN
 70
     0
  9
$PSLTSCALE
 70
     1
  9
$TREEDEPTH
 70
  3020
  9
$PICKSTYLE
 70
     1
  9
$CMLSTYLE
  2
STANDARD
  9
$CMLJUST
 70
     0
  9
$CMLSCALE
 40
1.0
  9
$PROXYGRAPHICS
 70
     1
  9
$MEASUREMENT
 70
     0
  0
ENDSEC
  0
SECTION
  2
CLASSES
  0
CLASS
  1
ACDBDICTIONARYWDFLT
  2
AcDbDictionaryWithDefault
  3
ObjectDBX Classes
 90
        0
280
     0
281
     0
  0
CLASS
  1
VISUALSTYLE
  2
AcDbVisualStyle
  3
ObjectDBX Classes
 90
     4095
280
     0
281
     0
  0
CLASS
  1
MATERIAL
  2
AcDbMaterial
  3
ObjectDBX Classes
 90
     1153
280
     0
281
     0
  0
CLASS
  1
SUN
  2
AcDbSun
  3
SCENEOE
 90
     1024
280
     0
281
     0
  0
CLASS
  1
DICTIONARYVAR
  2
AcDbDictionaryVar
  3
ObjectDBX Classes
 90
        0
280
     0
281
     0
  0
CLASS
  1
XRECORD
  2
AcDbXrecord
  3
AutoCAD 2000
 90
        0
280
     0
281
     0
  0
CLASS
  1
LWPOLYLINE
  2
AcDbPolyline
  3
AutoCAD 2000
 90
        0
280
     0
281
     1
  0
CLASS
  1
HATCH
  2
AcDbHatch
  3
AutoCAD 2000
 90
        0
280
     0
281
     1
  0
CLASS
  1
ACDBPLACEHOLDER
  2
AcDbPlaceHolder
  3
ObjectDBX Classes
 90
        0
280
     0
281
     0
  0
CLASS
  1
LAYOUT
  2
AcDbLayout
  3
ObjectDBX Classes
 90
        0
280
     0
281
     0
  0
ENDSEC
  0
SECTION
  2
TABLES
  0
TABLE
  2
VPORT
  5
8
330
0
100
AcDbSymbolTable
 70
     1
  0
VPORT
  5
29
330
8
100
AcDbSymbolTableRecord
100
AcDbViewportTableRecord
  2
*ACTIVE
 70
     0
 10
0.0
 20
0.0
 11
1.0
 21
1.0
 12
0.0
 22
0.0
 13
0.0
 23
0.0
 14
0.5
 24
0.5
 15
0.5
 25
0.5
 16
0.0
 26
0.0
 36
1.0
 17
104.9999989878935
 27
148.4996183011652
 37
0.0
 40
297.0000052006764
 41
0.7070706878738762
 42
50.0
 43
0.0
 44
0.0
 50
0.0
 51
0.0
 71
     0
 72
   100
 73
     1
 74
     3
 75
     0
 76
     0
 77
     0
 78
     0
  0
ENDTAB
  0
TABLE
  2
LTYPE
  5
5
330
0
100
AcDbSymbolTable
 70
     1
  0
LTYPE
  5
14
330
5
100
AcDbSymbolTableRecord
100
AcDbLinetypeTableRecord
  2
BYBLOCK
 70
     0
  3

 72
    65
 73
     0
 40
0.0
  0
LTYPE
  5
15
330
5
100
AcDbSymbolTableRecord
100
AcDbLinetypeTableRecord
  2
BYLAYER
 70
     0
  3

 72
    65
 73
     0
 40
0.0
  0
LTYPE
  5
16
330
5
100
AcDbSymbolTableRecord
100
AcDbLinetypeTableRecord
  2
CONTINUOUS
 70
     0
  3
Solid line
 72
    65
 73
     0
 40
0.0
  0
ENDTAB
  0
TABLE
  2
LAYER
  5
2
330
0
100
AcDbSymbolTable
 70
    12
  0
LAYER
  5
10
330
2
100
AcDbSymbolTableRecord
100
AcDbLayerTableRecord
  2
0
 70
     0
 62
     7
  6
CONTINUOUS
  0
LAYER
  5
40
330
2
100
AcDbSymbolTableRecord
100
AcDbLayerTableRecord
  2
OUTLINE
 70
     5
 62
     7
  6
CONTINUOUS
  0
LAYER
  5
41
330
2
100
AcDbSymbolTableRecord
100
AcDbLayerTableRecord
  2
OUTLINE_U_306E_U_30B3_U_30
 70
     4
 62
     7
  6
CONTINUOUS
  0
LAYER
  5
42
330
2
100
AcDbSymbolTableRecord
100
AcDbLayerTableRecord
  2
L2-SILK
 70
     5
 62
     7
  6
CONTINUOUS
  0
LAYER
  5
43
330
2
100
AcDbSymbolTableRecord
100
AcDbLayerTableRecord
  2
L2-PATTERN
 70
     5
 62
     7
  6
CONTINUOUS
  0
LAYER
  5
44
330
2
100
AcDbSymbolTableRecord
100
AcDbLayerTableRecord
  2
L2-RESIST
 70
     5
 62
     7
  6
CONTINUOUS
  0
LAYER
  5
45
330
2
100
AcDbSymbolTableRecord
100
AcDbLayerTableRecord
  2
L1-PATTERN
 70
     5
 62
     7
  6
CONTINUOUS
  0
LAYER
  5
46
330
2
100
AcDbSymbolTableRecord
100
AcDbLayerTableRecord
  2
L1-RESIST
 70
     5
 62
     7
  6
CONTINUOUS
  0
LAYER
  5
47
330
2
100
AcDbSymbolTableRecord
100
AcDbLayerTableRecord
  2
L1-SILK
 70
     5
 62
     7
  6
CONTINUOUS
  0
LAYER
  5
48
330
2
100
AcDbSymbolTableRecord
100
AcDbLayerTableRecord
  2
DRILL
 70
     5
 62
     7
  6
CONTINUOUS
  0
LAYER
  5
49
330
2
100
AcDbSymbolTableRecord
100
AcDbLayerTableRecord
  2
HANE
 70
     0
 62
     7
  6
CONTINUOUS
  0
LAYER
  5
4A
330
2
100
AcDbSymbolTableRecord
100
AcDbLayerTableRecord
  2
L2-RESIST_U_306E_U_30B3_U_
 70
     0
 62
     7
  6
CONTINUOUS
  0
ENDTAB
  0
TABLE
  2
STYLE
  5
3
330
0
100
AcDbSymbolTable
 70
     1
  0
STYLE
  5
11
330
3
100
AcDbSymbolTableRecord
100
AcDbTextStyleTableRecord
  2
STANDARD
 70
     0
 40
0.0
 41
1.0
 50
0.0
 71
     0
 42
0.2
  3
txt
  4

  0
ENDTAB
  0
TABLE
  2
VIEW
  5
6
330
0
100
AcDbSymbolTable
 70
     0
  0
ENDTAB
  0
TABLE
  2
UCS
  5
7
330
0
100
AcDbSymbolTable
 70
     0
  0
ENDTAB
  0
TABLE
  2
APPID
  5
9
330
0
100
AcDbSymbolTable
 70
     1
  0
APPID
  5
12
330
9
100
AcDbSymbolTableRecord
100
AcDbRegAppTableRecord
  2
ACAD
 70
     0
  0
ENDTAB
  0
TABLE
  2
DIMSTYLE
  5
A
330
0
100
AcDbSymbolTable
 70
     1
  0
DIMSTYLE
105
27
330
A
100
AcDbSymbolTableRecord
100
AcDbDimStyleTableRecord
  2
STANDARD
 70
     0
  3

  4

  5

  6

  7

 40
1.0
 41
0.18
 42
0.0625
 43
0.38
 44
0.18
 45
0.0
 46
0.0
 47
0.0
 48
0.0
140
0.18
141
0.09
142
0.0
143
25.4
144
1.0
145
0.0
146
1.0
147
0.09
 71
     0
 72
     0
 73
     1
 74
     1
 75
     0
 76
     0
 77
     0
 78
     0
170
     0
171
     2
172
     0
173
     0
174
     0
175
     0
176
     0
177
     0
178
     0
270
     2
271
     4
272
     4
273
     2
274
     2
340
11
275
     0
280
     0
281
     0
282
     0
283
     1
284
     0
285
     0
286
     0
287
     3
288
     0
  0
ENDTAB
  0
TABLE
  2
BLOCK_RECORD
  5
1
330
0
100
AcDbSymbolTable
 70
     1
  0
BLOCK_RECORD
  5
1F
330
1
100
AcDbSymbolTableRecord
100
AcDbBlockTableRecord
  2
*MODEL_SPACE
  0
BLOCK_RECORD
  5
1B
330
1
100
AcDbSymbolTableRecord
100
AcDbBlockTableRecord
  2
*PAPER_SPACE
  0
ENDTAB
  0
ENDSEC
  0
SECTION
  2
BLOCKS
  0
BLOCK
  5
20
330
1F
100
AcDbEntity
  8
0
100
AcDbBlockBegin
  2
*MODEL_SPACE
 70
     0
 10
0.0
 20
0.0
 30
0.0
  3
*MODEL_SPACE
  1

  0
ENDBLK
  5
21
330
1F
100
AcDbEntity
  8
0
100
AcDbBlockEnd
  0
BLOCK
  5
1C
330
1B
100
AcDbEntity
 67
     1
  8
0
100
AcDbBlockBegin
  2
*PAPER_SPACE
 70
     0
 10
0.0
 20
0.0
 30
0.0
  3
*PAPER_SPACE
  1

  0
ENDBLK
  5
1D
330
1B
100
AcDbEntity
 67
     1
  8
0
100
AcDbBlockEnd
  0
ENDSEC
  0
SECTION
  2
ENTITIES
  0
POLYLINE
  5
4B
330
1F
100
AcDbEntity
  8
L2-RESIST_U_306E_U_30B3_U_
100
AcDb2dPolyline
 66
     1
 10
0.0
 20
0.0
 30
0.0
  0
VERTEX
  5
4C
330
4B
100
AcDbEntity
  8
L2-RESIST_U_306E_U_30B3_U_
100
AcDbVertex
100
AcDb2dVertex
 10
15.57690687571901
 20
15.2530745310217
 30
0.0
  0
VERTEX
  5
4D
330
4B
100
AcDbEntity
  8
L2-RESIST_U_306E_U_30B3_U_
100
AcDbVertex
100
AcDb2dVertex
 10
15.6351318854752
 20
15.26004084410994
 30
0.0
  0
VERTEX
  5
4E
330
4B
100
AcDbEntity
  8
L2-RESIST_U_306E_U_30B3_U_
100
AcDbVertex
100
AcDb2dVertex
 10
15.69284842102812
 20
15.26970567012741
 30
0.0
  0
VERTEX
  5
4F
330
4B
100
AcDbEntity
  8
L2-RESIST_U_306E_U_30B3_U_
100
AcDbVertex
100
AcDb2dVertex
 10
15.75015654982563
 20
15.28228346377012
 30
0.0
  0
VERTEX
  5
50
330
4B
100
AcDbEntity
  8
L2-RESIST_U_306E_U_30B3_U_
100
AcDbVertex
100
AcDb2dVertex
 10
15.80715633931561
 20
15.29798867973343
 30
0.0
  0
VERTEX
  5
51
330
4B
100
AcDbEntity
  8
L2-RESIST_U_306E_U_30B3_U_
100
AcDbVertex
100
AcDb2dVertex
 10
15.86394785694561
 20
15.31703577271269
 30
0.0
  0
VERTEX
  5
52
330
4B
100
AcDbEntity
  8
L2-RESIST_U_306E_U_30B3_U_
100
AcDbVertex
100
AcDb2dVertex
 10
15.92063117016381
 20
15.33963919740327
 30
0.0
  0
VERTEX
  5
53
330
4B
100
AcDbEntity
  8
L2-RESIST_U_306E_U_30B3_U_
100
AcDbVertex
100
AcDb2dVertex
 10
15.97730634641745
 20
15.36601340850053
 30
0.0
  0
VERTEX
  5
54
330
4B
100
AcDbEntity
  8
L2-RESIST_U_306E_U_30B3_U_
100
AcDbVertex
100
AcDb2dVertex
 10
16.03407345315504
 20
15.39637286069983
 30
0.0
  0
VERTEX
  5
55
330
4B
100
AcDbEntity
  8
L2-RESIST_U_306E_U_30B3_U_
100
AcDbVertex
100
AcDb2dVertex
 10
16.14742880898267
 20
15.46437001771072
 30
0.0
  0
VERTEX
  5
56
330
4B
100
AcDbEntity
  8
L2-RESIST_U_306E_U_30B3_U_
100
AcDbVertex
100
AcDb2dVertex
 10
16.25903600093999
 20
15.53797179371916
 30
0.0
  0
VERTEX
  5
57
330
4B
100
AcDbEntity
  8
L2-RESIST_U_306E_U_30B3_U_
100
AcDbVertex
100
AcDb2dVertex
 10
16.36898554425653
 20
15.61693551620522
 30
0.0
  0
VERTEX
  5
58
330
4B
100
AcDbEntity
  8
L2-RESIST_U_306E_U_30B3_U_
100
AcDbVertex
100
AcDb2dVertex
 10
16.47736795416153
 20
15.70101851264957
 30
0.0
  0
VERTEX
  5
59
330
4B
100
AcDbEntity
  8
L2-RESIST_U_306E_U_30B3_U_
100
AcDbVertex
100
AcDb2dVertex
 10
16.58427374588518
 20
15.78997811053166
 30
0.0
  0
VERTEX
  5
5A
330
4B
100
AcDbEntity
  8
L2-RESIST_U_306E_U_30B3_U_
100
AcDbVertex
100
AcDb2dVertex
 10
16.68979343465671
 20
15.88357163733217
 30
0.0
  0
VERTEX
  5
5B
330
4B
100
AcDbEntity
  8
L2-RESIST_U_306E_U_30B3_U_
100
AcDbVertex
100
AcDb2dVertex
 10
16.79401753570567
 20
15.98155642053117
 30
0.0
  0
VERTEX
  5
5C
330
4B
100
AcDbEntity
  8
L2-RESIST_U_306E_U_30B3_U_
100
AcDbVertex
100
AcDb2dVertex
 10
16.89703656426192
 20
16.08368978760872
 30
0.0
  0
VERTEX
  5
5D
330
4B
100
AcDbEntity
  8
L2-RESIST_U_306E_U_30B3_U_
100
AcDbVertex
100
AcDb2dVertex
 10
18.13691372013002
 20
17.89717270900777
 30
0.0
  0
VERTEX
  5
5E
330
4B
100
AcDbEntity
  8
L2-RESIST_U_306E_U_30B3_U_
100
AcDbVertex
100
AcDb2dVertex
 10
19.13632431963293
 20
20.17695149741694
 30
0.0
  0
VERTEX
  5
5F
330
4B
100
AcDbEntity
  8
L2-RESIST_U_306E_U_30B3_U_
100
AcDbVertex
100
AcDb2dVertex
 10
19.92088664336692
 20
22.74917919763599
 30
0.0
  0
VERTEX
  5
60
330
4B
100
AcDbEntity
  8
L2-RESIST_U_306E_U_30B3_U_
100
AcDbVertex
100
AcDb2dVertex
 10
20.51621897192889
 20
25.44000885446469
 30
0.0
  0
VERTEX
  5
61
330
4B
100
AcDbEntity
  8
L2-RESIST_U_306E_U_30B3_U_
100
AcDbVertex
100
AcDb2dVertex
 10
20.94793958591478
 20
28.0755935127028
 30
0.0
  0
VERTEX
  5
62
330
4B
100
AcDbEntity
  8
L2-RESIST_U_306E_U_30B3_U_
100
AcDbVertex
100
AcDb2dVertex
 10
21.24166676592117
 20
30.4820862171501
 30
0.0
  0
VERTEX
  5
63
330
4B
100
AcDbEntity
  8
L2-RESIST_U_306E_U_30B3_U_
100
AcDbVertex
100
AcDb2dVertex
 10
21.42301879254466
 20
32.48564001260635
 30
0.0
  0
VERTEX
  5
64
330
4B
100
AcDbEntity
  8
L2-RESIST_U_306E_U_30B3_U_
100
AcDbVertex
100
AcDb2dVertex
 10
21.51761394638118
 20
33.91240794387198
 30
0.0
  0
VERTEX
  5
65
330
4B
100
AcDbEntity
  8
L2-RESIST_U_306E_U_30B3_U_
100
AcDbVertex
100
AcDb2dVertex
 10
21.51767974770322
 20
33.9127759489626
 30
0.0
  0
VERTEX
  5
66
330
4B
100
AcDbEntity
  8
L2-RESIST_U_306E_U_30B3_U_
100
AcDbVertex
100
AcDb2dVertex
 10
21.51774348196827
 20
33.91310964090273
 30
0.0
  0
VERTEX
  5
67
330
4B
100
AcDbEntity
  8
L2-RESIST_U_306E_U_30B3_U_
100
AcDbVertex
100
AcDb2dVertex
 10
21.51780308211838
 20
33.91340447216634
 30
0.0
  0
VERTEX
  5
68
330
4B
100
AcDbEntity
  8
L2-RESIST_U_306E_U_30B3_U_
100
AcDbVertex
100
AcDb2dVertex
 10
21.51785648109721
 20
33.91365589522871
 30
0.0
  0
VERTEX
  5
69
330
4B
100
AcDbEntity
  8
L2-RESIST_U_306E_U_30B3_U_
100
AcDbVertex
100
AcDb2dVertex
 10
21.5179016118468
 20
33.91385936256253
 30
0.0
  0
VERTEX
  5
6A
330
4B
100
AcDbEntity
  8
L2-RESIST_U_306E_U_30B3_U_
100
AcDbVertex
100
AcDb2dVertex
 10
21.51793640731049
 20
33.91401032664307
 30
0.0
  0
VERTEX
  5
6B
330
4B
100
AcDbEntity
  8
L2-RESIST_U_306E_U_30B3_U_
100
AcDbVertex
100
AcDb2dVertex
 10
21.51795880043032
 20
33.91410423994368
 30
0.0
  0
VERTEX
  5
6C
330
4B
100
AcDbEntity
  8
L2-RESIST_U_306E_U_30B3_U_
100
AcDbVertex
100
AcDb2dVertex
 10
21.51796672414995
 20
33.91413655493835
 30
0.0
  0
VERTEX
  5
6D
330
4B
100
AcDbEntity
  8
L2-RESIST_U_306E_U_30B3_U_
100
AcDbVertex
100
AcDb2dVertex
 10
21.51792262692885
 20
33.91417624243701
 30
0.0
  0
VERTEX
  5
6E
330
4B
100
AcDbEntity
  8
L2-RESIST_U_306E_U_30B3_U_
100
AcDbVertex
100
AcDb2dVertex
 10
21.51787852970776
 20
33.91421592993632
 30
0.0
  0
VERTEX
  5
6F
330
4B
100
AcDbEntity
  8
L2-RESIST_U_306E_U_30B3_U_
100
AcDbVertex
100
AcDb2dVertex
 10
21.51783443248666
 20
33.91425561743563
 30
0.0
  0
VERTEX
  5
70
330
4B
100
AcDbEntity
  8
L2-RESIST_U_306E_U_30B3_U_
100
AcDbVertex
100
AcDb2dVertex
 10
21.51779033526556
 20
33.91429530493429
 30
0.0
  0
VERTEX
  5
71
330
4B
100
AcDbEntity
  8
L2-RESIST_U_306E_U_30B3_U_
100
AcDbVertex
100
AcDb2dVertex
 10
21.51774623804447
 20
33.91433499243296
 30
0.0
  0
VERTEX
  5
72
330
4B
100
AcDbEntity
  8
L2-RESIST_U_306E_U_30B3_U_
100
AcDbVertex
100
AcDb2dVertex
 10
21.51770214082337
 20
33.91437467993227
 30
0.0
  0
VERTEX
  5
73
330
4B
100
AcDbEntity
  8
L2-RESIST_U_306E_U_30B3_U_
100
AcDbVertex
100
AcDb2dVertex
 10
21.51765804360227
 20
33.91441436743158
 30
0.0
  0
VERTEX
  5
74
330
4B
100
AcDbEntity
  8
L2-RESIST_U_306E_U_30B3_U_
100
AcDbVertex
100
AcDb2dVertex
 10
21.51761394638118
 20
33.91445405493025
 30
0.0
  0
VERTEX
  5
75
330
4B
100
AcDbEntity
  8
L2-RESIST_U_306E_U_30B3_U_
100
AcDbVertex
100
AcDb2dVertex
 10
21.51767974770322
 20
33.91523519586076
 30
0.0
  0
VERTEX
  5
76
330
4B
100
AcDbEntity
  8
L2-RESIST_U_306E_U_30B3_U_
100
AcDbVertex
100
AcDb2dVertex
 10
21.51774348196827
 20
33.9160200574945
 30
0.0
  0
VERTEX
  5
77
330
4B
100
AcDbEntity
  8
L2-RESIST_U_306E_U_30B3_U_
100
AcDbVertex
100
AcDb2dVertex
 10
21.51780308211838
 20
33.91681236053404
 30
0.0
  0
VERTEX
  5
78
330
4B
100
AcDbEntity
  8
L2-RESIST_U_306E_U_30B3_U_
100
AcDbVertex
100
AcDb2dVertex
 10
21.51785648109721
 20
33.9176158256826
 30
0.0
  0
VERTEX
  5
79
330
4B
100
AcDbEntity
  8
L2-RESIST_U_306E_U_30B3_U_
100
AcDbVertex
100
AcDb2dVertex
 10
21.5179016118468
 20
33.91843417364339
 30
0.0
  0
VERTEX
  5
7A
330
4B
100
AcDbEntity
  8
L2-RESIST_U_306E_U_30B3_U_
100
AcDbVertex
100
AcDb2dVertex
 10
21.51793640731049
 20
33.91927112511965
 30
0.0
  0
VERTEX
  5
7B
330
4B
100
AcDbEntity
  8
L2-RESIST_U_306E_U_30B3_U_
100
AcDbVertex
100
AcDb2dVertex
 10
21.51795880043032
 20
33.92013040081395
 30
0.0
  0
VERTEX
  5
7C
330
4B
100
AcDbEntity
  8
L2-RESIST_U_306E_U_30B3_U_
100
AcDbVertex
100
AcDb2dVertex
 10
21.51796672414995
 20
33.92101572142951
 30
0.0
  0
VERTEX
  5
7D
330
4B
100
AcDbEntity
  8
L2-RESIST_U_306E_U_30B3_U_
100
AcDbVertex
100
AcDb2dVertex
 10
21.51756874672947
 20
33.9333085797312
 30
0.0
  0
VERTEX
  5
7E
330
4B
100
AcDbEntity
  8
L2-RESIST_U_306E_U_30B3_U_
100
AcDbVertex
100
AcDb2dVertex
 10
21.51484905061838
 20
33.9449643709921
 30
0.0
  0
VERTEX
  5
7F
330
4B
100
AcDbEntity
  8
L2-RESIST_U_306E_U_30B3_U_
100
AcDbVertex
100
AcDb2dVertex
 10
21.51001930247763
 20
33.95573298128583
 30
0.0
  0
VERTEX
  5
80
330
4B
100
AcDbEntity
  8
L2-RESIST_U_306E_U_30B3_U_
100
AcDbVertex
100
AcDb2dVertex
 10
21.5032911689688
 20
33.96536429668665
 30
0.0
  0
VERTEX
  5
81
330
4B
100
AcDbEntity
  8
L2-RESIST_U_306E_U_30B3_U_
100
AcDbVertex
100
AcDb2dVertex
 10
21.49487631675284
 20
33.97360820326946
 30
0.0
  0
VERTEX
  5
82
330
4B
100
AcDbEntity
  8
L2-RESIST_U_306E_U_30B3_U_
100
AcDbVertex
100
AcDb2dVertex
 10
21.48498641249135
 20
33.9802145871066
 30
0.0
  0
VERTEX
  5
83
330
4B
100
AcDbEntity
  8
L2-RESIST_U_306E_U_30B3_U_
100
AcDbVertex
100
AcDb2dVertex
 10
21.47383312284526
 20
33.98493333427361
 30
0.0
  0
VERTEX
  5
84
330
4B
100
AcDbEntity
  8
L2-RESIST_U_306E_U_30B3_U_
100
AcDbVertex
100
AcDb2dVertex
 10
21.46162811447616
 20
33.9875143308441
 30
0.0
  0
VERTEX
  5
85
330
4B
100
AcDbEntity
  8
L2-RESIST_U_306E_U_30B3_U_
100
AcDbVertex
100
AcDb2dVertex
 10
21.44915700693847
 20
33.9874534283568
 30
0.0
  0
VERTEX
  5
86
330
4B
100
AcDbEntity
  8
L2-RESIST_U_306E_U_30B3_U_
100
AcDbVertex
100
AcDb2dVertex
 10
21.4372390439179
 20
33.98508242349437
 30
0.0
  0
VERTEX
  5
87
330
4B
100
AcDbEntity
  8
L2-RESIST_U_306E_U_30B3_U_
100
AcDbVertex
100
AcDb2dVertex
 10
21.42613632827232
 20
33.98061137006849
 30
0.0
  0
VERTEX
  5
88
330
4B
100
AcDbEntity
  8
L2-RESIST_U_306E_U_30B3_U_
100
AcDbVertex
100
AcDb2dVertex
 10
21.41611096285962
 20
33.97425032189022
 30
0.0
  0
VERTEX
  5
89
330
4B
100
AcDbEntity
  8
L2-RESIST_U_306E_U_30B3_U_
100
AcDbVertex
100
AcDb2dVertex
 10
21.40742505053798
 20
33.96620933277061
 30
0.0
  0
VERTEX
  5
8A
330
4B
100
AcDbEntity
  8
L2-RESIST_U_306E_U_30B3_U_
100
AcDbVertex
100
AcDb2dVertex
 10
21.40034069416465
 20
33.95669845651942
 30
0.0
  0
VERTEX
  5
8B
330
4B
100
AcDbEntity
  8
L2-RESIST_U_306E_U_30B3_U_
100
AcDbVertex
100
AcDb2dVertex
 10
21.39511999659814
 20
33.94592774694835
 30
0.0
  0
VERTEX
  5
8C
330
4B
100
AcDbEntity
  8
L2-RESIST_U_306E_U_30B3_U_
100
AcDbVertex
100
AcDb2dVertex
 10
21.39202506069632
 20
33.93410725786845
 30
0.0
  0
VERTEX
  5
8D
330
4B
100
AcDbEntity
  8
L2-RESIST_U_306E_U_30B3_U_
100
AcDbVertex
100
AcDb2dVertex
 10
21.36523689460468
 20
33.76961796194968
 30
0.0
  0
VERTEX
  5
8E
330
4B
100
AcDbEntity
  8
L2-RESIST_U_306E_U_30B3_U_
100
AcDbVertex
100
AcDb2dVertex
 10
21.28594754170108
 20
33.30446968843662
 30
0.0
  0
VERTEX
  5
8F
330
4B
100
AcDbEntity
  8
L2-RESIST_U_306E_U_30B3_U_
100
AcDbVertex
100
AcDb2dVertex
 10
21.15576972004413
 20
32.57764544241379
 30
0.0
  0
VERTEX
  5
90
330
4B
100
AcDbEntity
  8
L2-RESIST_U_306E_U_30B3_U_
100
AcDbVertex
100
AcDb2dVertex
 10
20.97631614769083
 20
31.628128228967
 30
0.0
  0
VERTEX
  5
91
330
4B
100
AcDbEntity
  8
L2-RESIST_U_306E_U_30B3_U_
100
AcDbVertex
100
AcDb2dVertex
 10
20.74919954269947
 20
30.49490105318078
 30
0.0
  0
VERTEX
  5
92
330
4B
100
AcDbEntity
  8
L2-RESIST_U_306E_U_30B3_U_
100
AcDbVertex
100
AcDb2dVertex
 10
20.4760326231277
 20
29.21694692013964
 30
0.0
  0
VERTEX
  5
93
330
4B
100
AcDbEntity
  8
L2-RESIST_U_306E_U_30B3_U_
100
AcDbVertex
100
AcDb2dVertex
 10
20.15842810703347
 20
27.83324883492939
 30
0.0
  0
VERTEX
  5
94
330
4B
100
AcDbEntity
  8
L2-RESIST_U_306E_U_30B3_U_
100
AcDbVertex
100
AcDb2dVertex
 10
19.79799871247443
 20
26.38278980263456
 30
0.0
  0
VERTEX
  5
95
330
4B
100
AcDbEntity
  8
L2-RESIST_U_306E_U_30B3_U_
100
AcDbVertex
100
AcDb2dVertex
 10
19.39691023312356
 20
24.90483719331356
 30
0.0
  0
VERTEX
  5
96
330
4B
100
AcDbEntity
  8
L2-RESIST_U_306E_U_30B3_U_
100
AcDbVertex
100
AcDb2dVertex
 10
18.95512222356118
 20
23.43785114946772
 30
0.0
  0
VERTEX
  5
97
330
4B
100
AcDbEntity
  8
L2-RESIST_U_306E_U_30B3_U_
100
AcDbVertex
100
AcDb2dVertex
 10
18.47498616810238
 20
22.02119133480704
 30
0.0
  0
VERTEX
  5
98
330
4B
100
AcDbEntity
  8
L2-RESIST_U_306E_U_30B3_U_
100
AcDbVertex
100
AcDb2dVertex
 10
17.9588535510616
 20
20.69421741304023
 30
0.0
  0
VERTEX
  5
99
330
4B
100
AcDbEntity
  8
L2-RESIST_U_306E_U_30B3_U_
100
AcDbVertex
100
AcDb2dVertex
 10
17.40907585675427
 20
19.49628904787732
 30
0.0
  0
VERTEX
  5
9A
330
4B
100
AcDbEntity
  8
L2-RESIST_U_306E_U_30B3_U_
100
AcDbVertex
100
AcDb2dVertex
 10
16.82800456949514
 20
18.46676590302702
 30
0.0
  0
VERTEX
  5
9B
330
4B
100
AcDbEntity
  8
L2-RESIST_U_306E_U_30B3_U_
100
AcDbVertex
100
AcDb2dVertex
 10
16.21799117359962
 20
17.64500764219933
 30
0.0
  0
VERTEX
  5
9C
330
4B
100
AcDbEntity
  8
L2-RESIST_U_306E_U_30B3_U_
100
AcDbVertex
100
AcDb2dVertex
 10
15.58138715338249
 20
17.07037392910297
 30
0.0
  0
VERTEX
  5
9D
330
4B
100
AcDbEntity
  8
L2-RESIST_U_306E_U_30B3_U_
100
AcDbVertex
100
AcDb2dVertex
 10
15.57784366605968
 20
17.06787644164508
 30
0.0
  0
VERTEX
  5
9E
330
4B
100
AcDbEntity
  8
L2-RESIST_U_306E_U_30B3_U_
100
AcDbVertex
100
AcDb2dVertex
 10
15.5683255564935
 20
17.06214814372244
 30
0.0
  0
VERTEX
  5
9F
330
4B
100
AcDbEntity
  8
L2-RESIST_U_306E_U_30B3_U_
100
AcDbVertex
100
AcDb2dVertex
 10
15.55275510333156
 20
17.05428746955273
 30
0.0
  0
VERTEX
  5
A0
330
4B
100
AcDbEntity
  8
L2-RESIST_U_306E_U_30B3_U_
100
AcDbVertex
100
AcDb2dVertex
 10
15.53105458522214
 20
17.04539285335173
 30
0.0
  0
VERTEX
  5
A1
330
4B
100
AcDbEntity
  8
L2-RESIST_U_306E_U_30B3_U_
100
AcDbVertex
100
AcDb2dVertex
 10
15.50314628081251
 20
17.03656272933646
 30
0.0
  0
VERTEX
  5
A2
330
4B
100
AcDbEntity
  8
L2-RESIST_U_306E_U_30B3_U_
100
AcDbVertex
100
AcDb2dVertex
 10
15.46895246875094
 20
17.0288955317246
 30
0.0
  0
VERTEX
  5
A3
330
4B
100
AcDbEntity
  8
L2-RESIST_U_306E_U_30B3_U_
100
AcDbVertex
100
AcDb2dVertex
 10
15.42839542768504
 20
17.02348969473127
 30
0.0
  0
VERTEX
  5
A4
330
4B
100
AcDbEntity
  8
L2-RESIST_U_306E_U_30B3_U_
100
AcDbVertex
100
AcDb2dVertex
 10
15.38139743626243
 20
17.02144365257415
 30
0.0
  0
VERTEX
  5
A5
330
4B
100
AcDbEntity
  8
L2-RESIST_U_306E_U_30B3_U_
100
AcDbVertex
100
AcDb2dVertex
 10
15.15126403013272
 20
17.06534174715754
 30
0.0
  0
VERTEX
  5
A6
330
4B
100
AcDbEntity
  8
L2-RESIST_U_306E_U_30B3_U_
100
AcDbVertex
100
AcDb2dVertex
 10
14.83611380000021
 20
17.25819612049267
 30
0.0
  0
VERTEX
  5
A7
330
4B
100
AcDbEntity
  8
L2-RESIST_U_306E_U_30B3_U_
100
AcDbVertex
100
AcDb2dVertex
 10
14.44668924233556
 20
17.67273659494267
 30
0.0
  0
VERTEX
  5
A8
330
4B
100
AcDbEntity
  8
L2-RESIST_U_306E_U_30B3_U_
100
AcDbVertex
100
AcDb2dVertex
 10
13.99373285360915
 20
18.3816929928713
 30
0.0
  0
VERTEX
  5
A9
330
4B
100
AcDbEntity
  8
L2-RESIST_U_306E_U_30B3_U_
100
AcDbVertex
100
AcDb2dVertex
 10
13.48798713029229
 20
19.45779513664168
 30
0.0
  0
VERTEX
  5
AA
330
4B
100
AcDbEntity
  8
L2-RESIST_U_306E_U_30B3_U_
100
AcDbVertex
100
AcDb2dVertex
 10
12.94019456885533
 20
20.97377284861692
 30
0.0
  0
VERTEX
  5
AB
330
4B
100
AcDbEntity
  8
L2-RESIST_U_306E_U_30B3_U_
100
AcDbVertex
100
AcDb2dVertex
 10
12.36109766576895
 20
23.00235595116013
 30
0.0
  0
VERTEX
  5
AC
330
4B
100
AcDbEntity
  8
L2-RESIST_U_306E_U_30B3_U_
100
AcDbVertex
100
AcDb2dVertex
 10
11.76143891750416
 20
25.61627426663445
 30
0.0
  0
VERTEX
  5
AD
330
4B
100
AcDbEntity
  8
L2-RESIST_U_306E_U_30B3_U_
100
AcDbVertex
100
AcDb2dVertex
 10
11.76138041978433
 20
25.61662911146021
 30
0.0
  0
VERTEX
  5
AE
330
4B
100
AcDbEntity
  8
L2-RESIST_U_306E_U_30B3_U_
100
AcDbVertex
100
AcDb2dVertex
 10
11.76133473781944
 20
25.61693682738152
 30
0.0
  0
VERTEX
  5
AF
330
4B
100
AcDbEntity
  8
L2-RESIST_U_306E_U_30B3_U_
100
AcDbVertex
100
AcDb2dVertex
 10
11.76129815090625
 20
25.6172131240321
 30
0.0
  0
VERTEX
  5
B0
330
4B
100
AcDbEntity
  8
L2-RESIST_U_306E_U_30B3_U_
100
AcDbVertex
100
AcDb2dVertex
 10
11.76126693834188
 20
25.61747371104829
 30
0.0
  0
VERTEX
  5
B1
330
4B
100
AcDbEntity
  8
L2-RESIST_U_306E_U_30B3_U_
100
AcDbVertex
100
AcDb2dVertex
 10
11.76123737942342
 20
25.61773429806448
 30
0.0
  0
VERTEX
  5
B2
330
4B
100
AcDbEntity
  8
L2-RESIST_U_306E_U_30B3_U_
100
AcDbVertex
100
AcDb2dVertex
 10
11.76120575344765
 20
25.61801059471507
 30
0.0
  0
VERTEX
  5
B3
330
4B
100
AcDbEntity
  8
L2-RESIST_U_306E_U_30B3_U_
100
AcDbVertex
100
AcDb2dVertex
 10
11.76116833971167
 20
25.61831831063637
 30
0.0
  0
VERTEX
  5
B4
330
4B
100
AcDbEntity
  8
L2-RESIST_U_306E_U_30B3_U_
100
AcDbVertex
100
AcDb2dVertex
 10
11.76112141751226
 20
25.61867315546214
 30
0.0
  0
VERTEX
  5
B5
330
4B
100
AcDbEntity
  8
L2-RESIST_U_306E_U_30B3_U_
100
AcDbVertex
100
AcDb2dVertex
 10
11.76109936890171
 20
25.61867315546214
 30
0.0
  0
VERTEX
  5
B6
330
4B
100
AcDbEntity
  8
L2-RESIST_U_306E_U_30B3_U_
100
AcDbVertex
100
AcDb2dVertex
 10
11.76107732029116
 20
25.61867315546214
 30
0.0
  0
VERTEX
  5
B7
330
4B
100
AcDbEntity
  8
L2-RESIST_U_306E_U_30B3_U_
100
AcDbVertex
100
AcDb2dVertex
 10
11.76105527168061
 20
25.61867315546214
 30
0.0
  0
VERTEX
  5
B8
330
4B
100
AcDbEntity
  8
L2-RESIST_U_306E_U_30B3_U_
100
AcDbVertex
100
AcDb2dVertex
 10
11.76103322307006
 20
25.61867315546214
 30
0.0
  0
VERTEX
  5
B9
330
4B
100
AcDbEntity
  8
L2-RESIST_U_306E_U_30B3_U_
100
AcDbVertex
100
AcDb2dVertex
 10
11.76101117445951
 20
25.61867315546214
 30
0.0
  0
VERTEX
  5
BA
330
4B
100
AcDbEntity
  8
L2-RESIST_U_306E_U_30B3_U_
100
AcDbVertex
100
AcDb2dVertex
 10
11.76098912584897
 20
25.61867315546214
 30
0.0
  0
VERTEX
  5
BB
330
4B
100
AcDbEntity
  8
L2-RESIST_U_306E_U_30B3_U_
100
AcDbVertex
100
AcDb2dVertex
 10
11.76096707723842
 20
25.61867315546214
 30
0.0
  0
VERTEX
  5
BC
330
4B
100
AcDbEntity
  8
L2-RESIST_U_306E_U_30B3_U_
100
AcDbVertex
100
AcDb2dVertex
 10
11.76094502862787
 20
25.61867315546214
 30
0.0
  0
VERTEX
  5
BD
330
4B
100
AcDbEntity
  8
L2-RESIST_U_306E_U_30B3_U_
100
AcDbVertex
100
AcDb2dVertex
 10
11.7608713035862
 20
25.61905831712801
 30
0.0
  0
VERTEX
  5
BE
330
4B
100
AcDbEntity
  8
L2-RESIST_U_306E_U_30B3_U_
100
AcDbVertex
100
AcDb2dVertex
 10
11.76078517620131
 20
25.61944595926163
 30
0.0
  0
VERTEX
  5
BF
330
4B
100
AcDbEntity
  8
L2-RESIST_U_306E_U_30B3_U_
100
AcDbVertex
100
AcDb2dVertex
 10
11.76069078058751
 20
25.61983525504147
 30
0.0
  0
VERTEX
  5
C0
330
4B
100
AcDbEntity
  8
L2-RESIST_U_306E_U_30B3_U_
100
AcDbVertex
100
AcDb2dVertex
 10
11.76059225085909
 20
25.62022537764476
 30
0.0
  0
VERTEX
  5
C1
330
4B
100
AcDbEntity
  8
L2-RESIST_U_306E_U_30B3_U_
100
AcDbVertex
100
AcDb2dVertex
 10
11.76049372113067
 20
25.62061550024804
 30
0.0
  0
VERTEX
  5
C2
330
4B
100
AcDbEntity
  8
L2-RESIST_U_306E_U_30B3_U_
100
AcDbVertex
100
AcDb2dVertex
 10
11.76039932551687
 20
25.62100479602789
 30
0.0
  0
VERTEX
  5
C3
330
4B
100
AcDbEntity
  8
L2-RESIST_U_306E_U_30B3_U_
100
AcDbVertex
100
AcDb2dVertex
 10
11.76031319813199
 20
25.62139243816151
 30
0.0
  0
VERTEX
  5
C4
330
4B
100
AcDbEntity
  8
L2-RESIST_U_306E_U_30B3_U_
100
AcDbVertex
100
AcDb2dVertex
 10
11.76023947309031
 20
25.62177759982738
 30
0.0
  0
VERTEX
  5
C5
330
4B
100
AcDbEntity
  8
L2-RESIST_U_306E_U_30B3_U_
100
AcDbVertex
100
AcDb2dVertex
 10
11.75640246363955
 20
25.63407362761731
 30
0.0
  0
VERTEX
  5
C6
330
4B
100
AcDbEntity
  8
L2-RESIST_U_306E_U_30B3_U_
100
AcDbVertex
100
AcDb2dVertex
 10
11.75049839694994
 20
25.64499092822793
 30
0.0
  0
VERTEX
  5
C7
330
4B
100
AcDbEntity
  8
L2-RESIST_U_306E_U_30B3_U_
100
AcDbVertex
100
AcDb2dVertex
 10
11.74280177822257
 20
25.65434801403516
 30
0.0
  0
VERTEX
  5
C8
330
4B
100
AcDbEntity
  8
L2-RESIST_U_306E_U_30B3_U_
100
AcDbVertex
100
AcDb2dVertex
 10
11.73358711265916
 20
25.66196339741295
 30
0.0
  0
VERTEX
  5
C9
330
4B
100
AcDbEntity
  8
L2-RESIST_U_306E_U_30B3_U_
100
AcDbVertex
100
AcDb2dVertex
 10
11.72312890546081
 20
25.66765559073591
 30
0.0
  0
VERTEX
  5
CA
330
4B
100
AcDbEntity
  8
L2-RESIST_U_306E_U_30B3_U_
100
AcDbVertex
100
AcDb2dVertex
 10
11.71170166182861
 20
25.67124310637803
 30
0.0
  0
VERTEX
  5
CB
330
4B
100
AcDbEntity
  8
L2-RESIST_U_306E_U_30B3_U_
100
AcDbVertex
100
AcDb2dVertex
 10
11.6995798869643
 20
25.67254445671327
 30
0.0
  0
VERTEX
  5
CC
330
4B
100
AcDbEntity
  8
L2-RESIST_U_306E_U_30B3_U_
100
AcDbVertex
100
AcDb2dVertex
 10
11.68703808606895
 20
25.67137815411752
 30
0.0
  0
VERTEX
  5
CD
330
4B
100
AcDbEntity
  8
L2-RESIST_U_306E_U_30B3_U_
100
AcDbVertex
100
AcDb2dVertex
 10
11.67493459522776
 20
25.66800148470199
 30
0.0
  0
VERTEX
  5
CE
330
4B
100
AcDbEntity
  8
L2-RESIST_U_306E_U_30B3_U_
100
AcDbVertex
100
AcDb2dVertex
 10
11.66407158746315
 20
25.66244906916491
 30
0.0
  0
VERTEX
  5
CF
330
4B
100
AcDbEntity
  8
L2-RESIST_U_306E_U_30B3_U_
100
AcDbVertex
100
AcDb2dVertex
 10
11.65464129911866
 20
25.65499917173767
 30
0.0
  0
VERTEX
  5
D0
330
4B
100
AcDbEntity
  8
L2-RESIST_U_306E_U_30B3_U_
100
AcDbVertex
100
AcDb2dVertex
 10
11.64683596653752
 20
25.64593005665423
 30
0.0
  0
VERTEX
  5
D1
330
4B
100
AcDbEntity
  8
L2-RESIST_U_306E_U_30B3_U_
100
AcDbVertex
100
AcDb2dVertex
 10
11.64084782606294
 20
25.63551998814598
 30
0.0
  0
VERTEX
  5
D2
330
4B
100
AcDbEntity
  8
L2-RESIST_U_306E_U_30B3_U_
100
AcDbVertex
100
AcDb2dVertex
 10
11.63686911403847
 20
25.62404723044559
 30
0.0
  0
VERTEX
  5
D3
330
4B
100
AcDbEntity
  8
L2-RESIST_U_306E_U_30B3_U_
100
AcDbVertex
100
AcDb2dVertex
 10
11.63509206680701
 20
25.61179004778445
 30
0.0
  0
VERTEX
  5
D4
330
4B
100
AcDbEntity
  8
L2-RESIST_U_306E_U_30B3_U_
100
AcDbVertex
100
AcDb2dVertex
 10
11.6357089207118
 20
25.59902670439652
 30
0.0
  0
VERTEX
  5
D5
330
4B
100
AcDbEntity
  8
L2-RESIST_U_306E_U_30B3_U_
100
AcDbVertex
100
AcDb2dVertex
 10
12.14205684670461
 20
22.71707509776396
 30
0.0
  0
VERTEX
  5
D6
330
4B
100
AcDbEntity
  8
L2-RESIST_U_306E_U_30B3_U_
100
AcDbVertex
100
AcDb2dVertex
 10
12.6602874579408
 20
20.40851675586645
 30
0.0
  0
VERTEX
  5
D7
330
4B
100
AcDbEntity
  8
L2-RESIST_U_306E_U_30B3_U_
100
AcDbVertex
100
AcDb2dVertex
 10
13.18250252871077
 20
18.61361327275884
 30
0.0
  0
VERTEX
  5
D8
330
4B
100
AcDbEntity
  8
L2-RESIST_U_306E_U_30B3_U_
100
AcDbVertex
100
AcDb2dVertex
 10
13.70080383330461
 20
17.27262624249723
 30
0.0
  0
VERTEX
  5
D9
330
4B
100
AcDbEntity
  8
L2-RESIST_U_306E_U_30B3_U_
100
AcDbVertex
100
AcDb2dVertex
 10
14.20729314601243
 20
16.32581725913775
 30
0.0
  0
VERTEX
  5
DA
330
4B
100
AcDbEntity
  8
L2-RESIST_U_306E_U_30B3_U_
100
AcDbVertex
100
AcDb2dVertex
 10
14.69407224112399
 20
15.71344791673459
 30
0.0
  0
VERTEX
  5
DB
330
4B
100
AcDbEntity
  8
L2-RESIST_U_306E_U_30B3_U_
100
AcDbVertex
100
AcDb2dVertex
 10
15.15324289292938
 20
15.37577980934451
 30
0.0
  0
VERTEX
  5
DC
330
4B
100
AcDbEntity
  8
L2-RESIST_U_306E_U_30B3_U_
100
AcDbVertex
100
AcDb2dVertex
 10
15.57690687571901
 20
15.2530745310217
 30
0.0
  0
VERTEX
  5
DD
330
4B
100
AcDbEntity
  8
L2-RESIST_U_306E_U_30B3_U_
100
AcDbVertex
100
AcDb2dVertex
 10
15.57690687571901
 20
15.2530745310217
 30
0.0
  0
SEQEND
  5
DE
330
4B
100
AcDbEntity
  8
L2-RESIST_U_306E_U_30B3_U_
  0
HATCH
  5
DF
330
1F
100
AcDbEntity
  8
L2-RESIST_U_306E_U_30B3_U_
 62
    21
100
AcDbHatch
 10
0.0
 20
0.0
 30
0.0
210
0.0
220
0.0
230
1.0
  2
SOLID
 70
     1
 71
     0
 91
        1
 92
        1
 93
      144
 72
     1
 10
15.57690687571901
 20
15.2530745310217
 11
15.6351318854752
 21
15.26004084410994
 72
     1
 10
15.6351318854752
 20
15.26004084410994
 11
15.69284842102812
 21
15.26970567012741
 72
     1
 10
15.69284842102812
 20
15.26970567012741
 11
15.75015654982563
 21
15.28228346377012
 72
     1
 10
15.75015654982563
 20
15.28228346377012
 11
15.80715633931561
 21
15.29798867973343
 72
     1
 10
15.80715633931561
 20
15.29798867973343
 11
15.86394785694561
 21
15.31703577271269
 72
     1
 10
15.86394785694561
 20
15.31703577271269
 11
15.92063117016381
 21
15.33963919740327
 72
     1
 10
15.92063117016381
 20
15.33963919740327
 11
15.97730634641745
 21
15.36601340850053
 72
     1
 10
15.97730634641745
 20
15.36601340850053
 11
16.03407345315504
 21
15.39637286069983
 72
     1
 10
16.03407345315504
 20
15.39637286069983
 11
16.14742880898267
 21
15.46437001771072
 72
     1
 10
16.14742880898267
 20
15.46437001771072
 11
16.25903600093999
 21
15.53797179371916
 72
     1
 10
16.25903600093999
 20
15.53797179371916
 11
16.36898554425653
 21
15.61693551620522
 72
     1
 10
16.36898554425653
 20
15.61693551620522
 11
16.47736795416153
 21
15.70101851264957
 72
     1
 10
16.47736795416153
 20
15.70101851264957
 11
16.58427374588518
 21
15.78997811053166
 72
     1
 10
16.58427374588518
 20
15.78997811053166
 11
16.68979343465671
 21
15.88357163733217
 72
     1
 10
16.68979343465671
 20
15.88357163733217
 11
16.79401753570567
 21
15.98155642053117
 72
     1
 10
16.79401753570567
 20
15.98155642053117
 11
16.89703656426192
 21
16.08368978760872
 72
     1
 10
16.89703656426192
 20
16.08368978760872
 11
18.13691372013002
 21
17.89717270900777
 72
     1
 10
18.13691372013002
 20
17.89717270900777
 11
19.13632431963293
 21
20.17695149741694
 72
     1
 10
19.13632431963293
 20
20.17695149741694
 11
19.92088664336692
 21
22.74917919763599
 72
     1
 10
19.92088664336692
 20
22.74917919763599
 11
20.51621897192889
 21
25.44000885446469
 72
     1
 10
20.51621897192889
 20
25.44000885446469
 11
20.94793958591478
 21
28.0755935127028
 72
     1
 10
20.94793958591478
 20
28.0755935127028
 11
21.24166676592117
 21
30.4820862171501
 72
     1
 10
21.24166676592117
 20
30.4820862171501
 11
21.42301879254466
 21
32.48564001260635
 72
     1
 10
21.42301879254466
 20
32.48564001260635
 11
21.51761394638118
 21
33.91240794387198
 72
     1
 10
21.51761394638118
 20
33.91240794387198
 11
21.51767974770322
 21
33.9127759489626
 72
     1
 10
21.51767974770322
 20
33.9127759489626
 11
21.51774348196827
 21
33.91310964090273
 72
     1
 10
21.51774348196827
 20
33.91310964090273
 11
21.51780308211838
 21
33.91340447216634
 72
     1
 10
21.51780308211838
 20
33.91340447216634
 11
21.51785648109721
 21
33.91365589522871
 72
     1
 10
21.51785648109721
 20
33.91365589522871
 11
21.5179016118468
 21
33.91385936256253
 72
     1
 10
21.5179016118468
 20
33.91385936256253
 11
21.51793640731049
 21
33.91401032664307
 72
     1
 10
21.51793640731049
 20
33.91401032664307
 11
21.51795880043032
 21
33.91410423994368
 72
     1
 10
21.51795880043032
 20
33.91410423994368
 11
21.51796672414995
 21
33.91413655493835
 72
     1
 10
21.51796672414995
 20
33.91413655493835
 11
21.51792262692885
 21
33.91417624243701
 72
     1
 10
21.51792262692885
 20
33.91417624243701
 11
21.51787852970776
 21
33.91421592993632
 72
     1
 10
21.51787852970776
 20
33.91421592993632
 11
21.51783443248666
 21
33.91425561743563
 72
     1
 10
21.51783443248666
 20
33.91425561743563
 11
21.51779033526556
 21
33.91429530493429
 72
     1
 10
21.51779033526556
 20
33.91429530493429
 11
21.51774623804447
 21
33.91433499243296
 72
     1
 10
21.51774623804447
 20
33.91433499243296
 11
21.51770214082337
 21
33.91437467993227
 72
     1
 10
21.51770214082337
 20
33.91437467993227
 11
21.51765804360227
 21
33.91441436743158
 72
     1
 10
21.51765804360227
 20
33.91441436743158
 11
21.51761394638118
 21
33.91445405493025
 72
     1
 10
21.51761394638118
 20
33.91445405493025
 11
21.51767974770322
 21
33.91523519586076
 72
     1
 10
21.51767974770322
 20
33.91523519586076
 11
21.51774348196827
 21
33.9160200574945
 72
     1
 10
21.51774348196827
 20
33.9160200574945
 11
21.51780308211838
 21
33.91681236053404
 72
     1
 10
21.51780308211838
 20
33.91681236053404
 11
21.51785648109721
 21
33.9176158256826
 72
     1
 10
21.51785648109721
 20
33.9176158256826
 11
21.5179016118468
 21
33.91843417364339
 72
     1
 10
21.5179016118468
 20
33.91843417364339
 11
21.51793640731049
 21
33.91927112511965
 72
     1
 10
21.51793640731049
 20
33.91927112511965
 11
21.51795880043032
 21
33.92013040081395
 72
     1
 10
21.51795880043032
 20
33.92013040081395
 11
21.51796672414995
 21
33.92101572142951
 72
     1
 10
21.51796672414995
 20
33.92101572142951
 11
21.51756874672947
 21
33.9333085797312
 72
     1
 10
21.51756874672947
 20
33.9333085797312
 11
21.51484905061838
 21
33.9449643709921
 72
     1
 10
21.51484905061838
 20
33.9449643709921
 11
21.51001930247763
 21
33.95573298128583
 72
     1
 10
21.51001930247763
 20
33.95573298128583
 11
21.5032911689688
 21
33.96536429668665
 72
     1
 10
21.5032911689688
 20
33.96536429668665
 11
21.49487631675284
 21
33.97360820326946
 72
     1
 10
21.49487631675284
 20
33.97360820326946
 11
21.48498641249135
 21
33.9802145871066
 72
     1
 10
21.48498641249135
 20
33.9802145871066
 11
21.47383312284526
 21
33.98493333427361
 72
     1
 10
21.47383312284526
 20
33.98493333427361
 11
21.46162811447616
 21
33.9875143308441
 72
     1
 10
21.46162811447616
 20
33.9875143308441
 11
21.44915700693847
 21
33.9874534283568
 72
     1
 10
21.44915700693847
 20
33.9874534283568
 11
21.4372390439179
 21
33.98508242349437
 72
     1
 10
21.4372390439179
 20
33.98508242349437
 11
21.42613632827232
 21
33.98061137006849
 72
     1
 10
21.42613632827232
 20
33.98061137006849
 11
21.41611096285962
 21
33.97425032189022
 72
     1
 10
21.41611096285962
 20
33.97425032189022
 11
21.40742505053798
 21
33.96620933277061
 72
     1
 10
21.40742505053798
 20
33.96620933277061
 11
21.40034069416465
 21
33.95669845651942
 72
     1
 10
21.40034069416465
 20
33.95669845651942
 11
21.39511999659814
 21
33.94592774694835
 72
     1
 10
21.39511999659814
 20
33.94592774694835
 11
21.39202506069632
 21
33.93410725786845
 72
     1
 10
21.39202506069632
 20
33.93410725786845
 11
21.36523689460468
 21
33.76961796194968
 72
     1
 10
21.36523689460468
 20
33.76961796194968
 11
21.28594754170108
 21
33.30446968843662
 72
     1
 10
21.28594754170108
 20
33.30446968843662
 11
21.15576972004413
 21
32.57764544241379
 72
     1
 10
21.15576972004413
 20
32.57764544241379
 11
20.97631614769083
 21
31.628128228967
 72
     1
 10
20.97631614769083
 20
31.628128228967
 11
20.74919954269947
 21
30.49490105318078
 72
     1
 10
20.74919954269947
 20
30.49490105318078
 11
20.4760326231277
 21
29.21694692013964
 72
     1
 10
20.4760326231277
 20
29.21694692013964
 11
20.15842810703347
 21
27.83324883492939
 72
     1
 10
20.15842810703347
 20
27.83324883492939
 11
19.79799871247443
 21
26.38278980263456
 72
     1
 10
19.79799871247443
 20
26.38278980263456
 11
19.39691023312356
 21
24.90483719331356
 72
     1
 10
19.39691023312356
 20
24.90483719331356
 11
18.95512222356118
 21
23.43785114946772
 72
     1
 10
18.95512222356118
 20
23.43785114946772
 11
18.47498616810238
 21
22.02119133480704
 72
     1
 10
18.47498616810238
 20
22.02119133480704
 11
17.9588535510616
 21
20.69421741304023
 72
     1
 10
17.9588535510616
 20
20.69421741304023
 11
17.40907585675427
 21
19.49628904787732
 72
     1
 10
17.40907585675427
 20
19.49628904787732
 11
16.82800456949514
 21
18.46676590302702
 72
     1
 10
16.82800456949514
 20
18.46676590302702
 11
16.21799117359962
 21
17.64500764219933
 72
     1
 10
16.21799117359962
 20
17.64500764219933
 11
15.58138715338249
 21
17.07037392910297
 72
     1
 10
15.58138715338249
 20
17.07037392910297
 11
15.57784366605968
 21
17.06787644164508
 72
     1
 10
15.57784366605968
 20
17.06787644164508
 11
15.5683255564935
 21
17.06214814372244
 72
     1
 10
15.5683255564935
 20
17.06214814372244
 11
15.55275510333156
 21
17.05428746955273
 72
     1
 10
15.55275510333156
 20
17.05428746955273
 11
15.53105458522214
 21
17.04539285335173
 72
     1
 10
15.53105458522214
 20
17.04539285335173
 11
15.50314628081251
 21
17.03656272933646
 72
     1
 10
15.50314628081251
 20
17.03656272933646
 11
15.46895246875094
 21
17.0288955317246
 72
     1
 10
15.46895246875094
 20
17.0288955317246
 11
15.42839542768504
 21
17.02348969473127
 72
     1
 10
15.42839542768504
 20
17.02348969473127
 11
15.38139743626243
 21
17.02144365257415
 72
     1
 10
15.38139743626243
 20
17.02144365257415
 11
15.15126403013272
 21
17.06534174715754
 72
     1
 10
15.15126403013272
 20
17.06534174715754
 11
14.83611380000021
 21
17.25819612049267
 72
     1
 10
14.83611380000021
 20
17.25819612049267
 11
14.44668924233556
 21
17.67273659494267
 72
     1
 10
14.44668924233556
 20
17.67273659494267
 11
13.99373285360915
 21
18.3816929928713
 72
     1
 10
13.99373285360915
 20
18.3816929928713
 11
13.48798713029229
 21
19.45779513664168
 72
     1
 10
13.48798713029229
 20
19.45779513664168
 11
12.94019456885533
 21
20.97377284861692
 72
     1
 10
12.94019456885533
 20
20.97377284861692
 11
12.36109766576895
 21
23.00235595116013
 72
     1
 10
12.36109766576895
 20
23.00235595116013
 11
11.76143891750416
 21
25.61627426663445
 72
     1
 10
11.76143891750416
 20
25.61627426663445
 11
11.76138041978433
 21
25.61662911146021
 72
     1
 10
11.76138041978433
 20
25.61662911146021
 11
11.76133473781944
 21
25.61693682738152
 72
     1
 10
11.76133473781944
 20
25.61693682738152
 11
11.76129815090625
 21
25.6172131240321
 72
     1
 10
11.76129815090625
 20
25.6172131240321
 11
11.76126693834188
 21
25.61747371104829
 72
     1
 10
11.76126693834188
 20
25.61747371104829
 11
11.76123737942342
 21
25.61773429806448
 72
     1
 10
11.76123737942342
 20
25.61773429806448
 11
11.76120575344765
 21
25.61801059471507
 72
     1
 10
11.76120575344765
 20
25.61801059471507
 11
11.76116833971167
 21
25.61831831063637
 72
     1
 10
11.76116833971167
 20
25.61831831063637
 11
11.76112141751226
 21
25.61867315546214
 72
     1
 10
11.76112141751226
 20
25.61867315546214
 11
11.76109936890171
 21
25.61867315546214
 72
     1
 10
11.76109936890171
 20
25.61867315546214
 11
11.76107732029116
 21
25.61867315546214
 72
     1
 10
11.76107732029116
 20
25.61867315546214
 11
11.76105527168061
 21
25.61867315546214
 72
     1
 10
11.76105527168061
 20
25.61867315546214
 11
11.76103322307006
 21
25.61867315546214
 72
     1
 10
11.76103322307006
 20
25.61867315546214
 11
11.76101117445951
 21
25.61867315546214
 72
     1
 10
11.76101117445951
 20
25.61867315546214
 11
11.76098912584897
 21
25.61867315546214
 72
     1
 10
11.76098912584897
 20
25.61867315546214
 11
11.76096707723842
 21
25.61867315546214
 72
     1
 10
11.76096707723842
 20
25.61867315546214
 11
11.76094502862787
 21
25.61867315546214
 72
     1
 10
11.76094502862787
 20
25.61867315546214
 11
11.7608713035862
 21
25.61905831712801
 72
     1
 10
11.7608713035862
 20
25.61905831712801
 11
11.76078517620131
 21
25.61944595926163
 72
     1
 10
11.76078517620131
 20
25.61944595926163
 11
11.76069078058751
 21
25.61983525504147
 72
     1
 10
11.76069078058751
 20
25.61983525504147
 11
11.76059225085909
 21
25.62022537764476
 72
     1
 10
11.76059225085909
 20
25.62022537764476
 11
11.76049372113067
 21
25.62061550024804
 72
     1
 10
11.76049372113067
 20
25.62061550024804
 11
11.76039932551687
 21
25.62100479602789
 72
     1
 10
11.76039932551687
 20
25.62100479602789
 11
11.76031319813199
 21
25.62139243816151
 72
     1
 10
11.76031319813199
 20
25.62139243816151
 11
11.76023947309031
 21
25.62177759982738
 72
     1
 10
11.76023947309031
 20
25.62177759982738
 11
11.75640246363955
 21
25.63407362761731
 72
     1
 10
11.75640246363955
 20
25.63407362761731
 11
11.75049839694994
 21
25.64499092822793
 72
     1
 10
11.75049839694994
 20
25.64499092822793
 11
11.74280177822257
 21
25.65434801403516
 72
     1
 10
11.74280177822257
 20
25.65434801403516
 11
11.73358711265916
 21
25.66196339741295
 72
     1
 10
11.73358711265916
 20
25.66196339741295
 11
11.72312890546081
 21
25.66765559073591
 72
     1
 10
11.72312890546081
 20
25.66765559073591
 11
11.71170166182861
 21
25.67124310637803
 72
     1
 10
11.71170166182861
 20
25.67124310637803
 11
11.6995798869643
 21
25.67254445671327
 72
     1
 10
11.6995798869643
 20
25.67254445671327
 11
11.68703808606895
 21
25.67137815411752
 72
     1
 10
11.68703808606895
 20
25.67137815411752
 11
11.67493459522776
 21
25.66800148470199
 72
     1
 10
11.67493459522776
 20
25.66800148470199
 11
11.66407158746315
 21
25.66244906916491
 72
     1
 10
11.66407158746315
 20
25.66244906916491
 11
11.65464129911866
 21
25.65499917173767
 72
     1
 10
11.65464129911866
 20
25.65499917173767
 11
11.64683596653752
 21
25.64593005665423
 72
     1
 10
11.64683596653752
 20
25.64593005665423
 11
11.64084782606294
 21
25.63551998814598
 72
     1
 10
11.64084782606294
 20
25.63551998814598
 11
11.63686911403847
 21
25.62404723044559
 72
     1
 10
11.63686911403847
 20
25.62404723044559
 11
11.63509206680701
 21
25.61179004778445
 72
     1
 10
11.63509206680701
 20
25.61179004778445
 11
11.6357089207118
 21
25.59902670439652
 72
     1
 10
11.6357089207118
 20
25.59902670439652
 11
12.14205684670461
 21
22.71707509776396
 72
     1
 10
12.14205684670461
 20
22.71707509776396
 11
12.6602874579408
 21
20.40851675586645
 72
     1
 10
12.6602874579408
 20
20.40851675586645
 11
13.18250252871077
 21
18.61361327275884
 72
     1
 10
13.18250252871077
 20
18.61361327275884
 11
13.70080383330461
 21
17.27262624249723
 72
     1
 10
13.70080383330461
 20
17.27262624249723
 11
14.20729314601243
 21
16.32581725913775
 72
     1
 10
14.20729314601243
 20
16.32581725913775
 11
14.69407224112399
 21
15.71344791673459
 72
     1
 10
14.69407224112399
 20
15.71344791673459
 11
15.15324289292938
 21
15.37577980934451
 72
     1
 10
15.15324289292938
 20
15.37577980934451
 11
15.57690687571901
 21
15.2530745310217
 97
        0
 75
     2
 76
     1
 98
        0
  0
ENDSEC
  0
SECTION
  2
OBJECTS
  0
DICTIONARY
  5
C
330
0
100
AcDbDictionary
  3
ACAD_GROUP
350
D
  3
ACAD_LAYOUT
350
1A
  3
ACAD_MATERIAL
350
3B
  3
ACAD_MLEADERSTYLE
350
102
  3
ACAD_MLINESTYLE
350
17
  3
ACAD_PLOTSETTINGS
350
19
  3
ACAD_VISUALSTYLE
350
2A
  3
ACDBHEADERROUNDTRIPXREC
350
E0
  3
ACDBVARIABLEDICTIONARY
350
100
  0
DICTIONARY
  5
D
102
{ACAD_REACTORS
330
C
102
}
330
C
100
AcDbDictionary
  0
DICTIONARY
  5
1A
102
{ACAD_REACTORS
330
C
102
}
330
C
100
AcDbDictionary
  0
DICTIONARY
  5
3B
102
{ACAD_REACTORS
330
C
102
}
330
C
100
AcDbDictionary
  3
BYBLOCK
350
3D
  3
BYLAYER
350
3C
  3
GLOBAL
350
3E
  0
DICTIONARY
  5
102
102
{ACAD_REACTORS
330
C
102
}
330
C
100
AcDbDictionary
  0
DICTIONARY
  5
17
102
{ACAD_REACTORS
330
C
102
}
330
C
100
AcDbDictionary
  3
STANDARD
350
18
  0
DICTIONARY
  5
19
102
{ACAD_REACTORS
330
C
102
}
330
C
100
AcDbDictionary
  0
DICTIONARY
  5
2A
102
{ACAD_REACTORS
330
C
102
}
330
C
100
AcDbDictionary
  3
2DWIREFRAME
350
2F
  3
3DWIREFRAME
350
30
  3
3D_HIDDEN
350
31
  3
BASIC
350
32
  3
BRIGHTEN
350
36
  3
COLORCHANGE
350
3A
  3
CONCEPTUAL
350
34
  3
DIM
350
35
  3
FACEPATTERN
350
39
  3
FLAT
350
2B
  3
FLATWITHEDGES
350
2C
  3
GOURAUD
350
2D
  3
GOURAUDWITHEDGES
350
2E
  3
LINEPATTERN
350
38
  3
REALISTIC
350
33
  3
THICKEN
350
37
  0
DICTIONARY
  5
E0
102
{ACAD_REACTORS
330
C
102
}
330
C
100
AcDbDictionary
  3
CEPSNTYPE
350
E9
  3
DIMSTYLEDATA
350
FF
  3
FINGERPRINTGUID
350
EA
  3
HYPERLINKBASE
350
E3
  3
INSUNITS
350
E8
  3
LAYOUTDICT
350
E5
  3
LWETCUNION
350
E7
  3
PLOTSETDICT
350
E6
  3
PSVPSCALE
350
EC
  3
PUCSBASE
350
EF
  3
PUCSORGBACK
350
F5
  3
PUCSORGBOTTOM
350
F1
  3
PUCSORGFRONT
350
F4
  3
PUCSORGLEFT
350
F2
  3
PUCSORGRIGHT
350
F3
  3
PUCSORGTOP
350
F0
  3
PUCSORTHOREF
350
ED
  3
PUCSORTHOVIEW
350
EE
  3
STYLESHEET
350
E4
  3
TSTACKALIGN
350
E1
  3
TSTACKSIZE
350
E2
  3
UCSBASE
350
F8
  3
UCSORGBACK
350
FE
  3
UCSORGBOTTOM
350
FA
  3
UCSORGFRONT
350
FD
  3
UCSORGLEFT
350
FB
  3
UCSORGRIGHT
350
FC
  3
UCSORGTOP
350
F9
  3
UCSORTHOREF
350
F6
  3
UCSORTHOVIEW
350
F7
  3
VERSIONGUID
350
EB
  0
DICTIONARY
  5
100
102
{ACAD_REACTORS
330
C
102
}
330
C
100
AcDbDictionary
  3
DIMASSOC
350
103
  3
HIDETEXT
350
104
  0
MATERIAL
  5
3D
102
{ACAD_REACTORS
330
3B
102
}
102
{ACAD_XDICTIONARY
360
107
102
}
330
3B
100
AcDbMaterial
  1
ByBlock
  0
MATERIAL
  5
3C
102
{ACAD_REACTORS
330
3B
102
}
102
{ACAD_XDICTIONARY
360
105
102
}
330
3B
100
AcDbMaterial
  1
ByLayer
  0
MATERIAL
  5
3E
102
{ACAD_REACTORS
330
3B
102
}
102
{ACAD_XDICTIONARY
360
109
102
}
330
3B
100
AcDbMaterial
  1
Global
  0
MLINESTYLE
  5
18
102
{ACAD_REACTORS
330
17
102
}
330
17
100
AcDbMlineStyle
  2
Standard
 70
     0
  3

 62
   256
 51
90.0
 52
90.0
 71
     2
 49
0.5
 62
   256
  6
BYLAYER
 49
-0.5
 62
   256
  6
BYLAYER
  0
ACAD_PROXY_OBJECT
  5
2F
102
{ACAD_REACTORS
330
2A
102
}
330
2A
100
AcDbProxyObject
 90
      499
 91
      501
 93
      436
310
42CC9915DA5C99599C985B595049028333333333333E3BF0000000000000FB0107901411070040501600405405064090741402480A0340
1001
ACAD
1000
AcDbSavedByObjectVersion
1070
     0
  0
ACAD_PROXY_OBJECT
  5
30
102
{ACAD_REACTORS
330
2A
102
}
330
2A
100
AcDbProxyObject
 90
      499
 91
      501
 93
      436
310
42CCD915DA5C99599C985B595059028333333333333E3BF0000000000000FB0107901411070040501600405405064090741402480A0340
1001
ACAD
1000
AcDbSavedByObjectVersion
1070
     0
  0
ACAD_PROXY_OBJECT
  5
31
102
{ACAD_REACTORS
330
2A
102
}
330
2A
100
AcDbProxyObject
 90
      499
 91
      501
 93
      500
310
424CD108121A5919195B90640502408333333333333E3BF0000000000000FB01079024090700405020000000000001110200405405064090740C02480A0340
1001
ACAD
1000
AcDbSavedByObjectVersion
1070
     0
  0
ACAD_PROXY_OBJECT
  5
32
102
{ACAD_REACTORS
330
2A
102
}
330
2A
100
AcDbProxyObject
 90
      499
 91
      501
 93
      388
310
4150985CDA58D07406404333333333333E3BF0000000000000FB0107A41107004050150841D405064090741402480A0350
1001
ACAD
1000
AcDbSavedByObjectVersion
1070
     0
  0
ACAD_PROXY_OBJECT
  5
36
102
{ACAD_REACTORS
330
2A
102
}
330
2A
100
AcDbProxyObject
 90
      499
 91
      501
 93
      428
310
42109C9A59DA1D195B90C409028333333333333E3BF0000000000000FB010790141107004050150841D405064090741402480A029950
1001
ACAD
1000
AcDbSavedByObjectVersion
1070
     0
  0
ACAD_PROXY_OBJECT
  5
3A
102
{ACAD_REACTORS
330
2A
102
}
330
2A
100
AcDbProxyObject
 90
      499
 91
      501
 93
      452
310
42D0DBDB1BDC90DA185B99D95104090240C333333333333E3BF0000000000000FB0108901411070040501508421405064090741402480A0350
1001
ACAD
1000
AcDbSavedByObjectVersion
1070
     0
  0
ACAD_PROXY_OBJECT
  5
34
102
{ACAD_REACTORS
330
2A
102
}
330
2A
100
AcDbProxyObject
 90
      499
 91
      501
 93
      500
310
4290DBDB98D95C1D1D585B10940D028333333333333E3BF0000000000000FB0107902409070040501000000000000111010841D405064090740C02480A0340
1001
ACAD
1000
AcDbSavedByObjectVersion
1070
     0
  0
ACAD_PROXY_OBJECT
  5
35
102
{ACAD_REACTORS
330
2A
102
}
330
2A
100
AcDbProxyObject
 90
      499
 91
      501
 93
      412
310
40D11A5B50B409028333333333333E3BF0000000000000FB010790141107004050150841D405064090741402480A02677FFFFFD0
1001
ACAD
1000
AcDbSavedByObjectVersion
1070
     0
  0
ACAD_PROXY_OBJECT
  5
39
102
{ACAD_REACTORS
330
2A
102
}
330
2A
100
AcDbProxyObject
 90
      499
 91
      501
 93
      444
310
42D19858D95C185D1D195C9B90F409028333333333333E3BF0000000000000FB010790141107004050150841D405064090741402480A0350
1001
ACAD
1000
AcDbSavedByObjectVersion
1070
     0
  0
ACAD_PROXY_OBJECT
  5
2B
102
{ACAD_REACTORS
330
2A
102
}
330
2A
100
AcDbProxyObject
 90
      499
 91
      501
 93
      388
310
41119B185D240901404333333333333E3BF0000000000000F9010740A41107004050150841D405064090741402480A1B50
1001
ACAD
1000
AcDbSavedByObjectVersion
1070
     0
  0
ACAD_PROXY_OBJECT
  5
2C
102
{ACAD_REACTORS
330
2A
102
}
330
2A
100
AcDbProxyObject
 90
      499
 91
      501
 93
      476
310
43519B185D15DA5D1A115919D95CD0140901404333333333333E3BF0000000000000F9010740901411070040501600405405064090741402480A1B50
1001
ACAD
1000
AcDbSavedByObjectVersion
1070
     0
  0
ACAD_PROXY_OBJECT
  5
2D
102
{ACAD_REACTORS
330
2A
102
}
330
2A
100
AcDbProxyObject
 90
      499
 91
      501
 93
      412
310
41D1DBDD5C985D5910240902404333333333333E3BF0000000000000F9010740A411070040501641D405064090741402480A1B50
1001
ACAD
1000
AcDbSavedByObjectVersion
1070
     0
  0
ACAD_PROXY_OBJECT
  5
2E
102
{ACAD_REACTORS
330
2A
102
}
330
2A
100
AcDbProxyObject
 90
      499
 91
      501
 93
      500
310
4411DBDD5C985D5915DA5D1A115919D95CD0340902404333333333333E3BF0000000000000F9010740901411070040501600405405064090741402480A1B50
1001
ACAD
1000
AcDbSavedByObjectVersion
1070
     0
  0
ACAD_PROXY_OBJECT
  5
38
102
{ACAD_REACTORS
330
2A
102
}
330
2A
100
AcDbProxyObject
 90
      499
 91
      501
 93
      444
310
42D31A5B995C185D1D195C9B90E409028333333333333E3BF0000000000000FB010790141107004050750841D405064090741402483A0350
1001
ACAD
1000
AcDbSavedByObjectVersion
1070
     0
  0
ACAD_PROXY_OBJECT
  5
33
102
{ACAD_REACTORS
330
2A
102
}
330
2A
100
AcDbProxyObject
 90
      499
 91
      501
 93
      420
310
425499585B1A5CDD1A58D08409028333333333333E3BF0000000000000FB01079019070040501508421405064090741402480A1B40
1001
ACAD
1000
AcDbSavedByObjectVersion
1070
     0
  0
ACAD_PROXY_OBJECT
  5
37
102
{ACAD_REACTORS
330
2A
102
}
330
2A
100
AcDbProxyObject
 90
      499
 91
      501
 93
      412
310
41D51A1A58DAD95B90D409028333333333333E3BF0000000000000FB010790141107004050150C41D405064090741402480A0350
1001
ACAD
1000
AcDbSavedByObjectVersion
1070
     0
  0
XRECORD
  5
E9
102
{ACAD_REACTORS
330
E0
102
}
330
E0
100
AcDbXrecord
 90
        0
  0
XRECORD
  5
FF
102
{ACAD_REACTORS
330
E0
102
}
330
E0
100
AcDbXrecord
1000
DSTYLE
1002
{
1070
   340
340
11
1002
}
  0
XRECORD
  5
EA
102
{ACAD_REACTORS
330
E0
102
}
330
E0
100
AcDbXrecord
  1
{17517AE7-DCDD-7D33-F4F2-8168F8D443B0}
  0
XRECORD
  5
E3
102
{ACAD_REACTORS
330
E0
102
}
330
E0
100
AcDbXrecord
  1

  0
XRECORD
  5
E8
102
{ACAD_REACTORS
330
E0
102
}
330
E0
100
AcDbXrecord
 90
        4
  0
XRECORD
  5
E5
102
{ACAD_REACTORS
330
E0
102
}
330
E0
100
AcDbXrecord
340
1A
  0
XRECORD
  5
E7
102
{ACAD_REACTORS
330
E0
102
}
330
E0
100
AcDbXrecord
 90
    10269
  0
XRECORD
  5
E6
102
{ACAD_REACTORS
330
E0
102
}
330
E0
100
AcDbXrecord
340
19
  0
XRECORD
  5
EC
102
{ACAD_REACTORS
330
E0
102
}
330
E0
100
AcDbXrecord
 40
0.0
  0
XRECORD
  5
EF
102
{ACAD_REACTORS
330
E0
102
}
330
E0
100
AcDbXrecord
340
0
  0
XRECORD
  5
F5
102
{ACAD_REACTORS
330
E0
102
}
330
E0
100
AcDbXrecord
 10
0.0
 20
0.0
 30
0.0
  0
XRECORD
  5
F1
102
{ACAD_REACTORS
330
E0
102
}
330
E0
100
AcDbXrecord
 10
0.0
 20
0.0
 30
0.0
  0
XRECORD
  5
F4
102
{ACAD_REACTORS
330
E0
102
}
330
E0
100
AcDbXrecord
 10
0.0
 20
0.0
 30
0.0
  0
XRECORD
  5
F2
102
{ACAD_REACTORS
330
E0
102
}
330
E0
100
AcDbXrecord
 10
0.0
 20
0.0
 30
0.0
  0
XRECORD
  5
F3
102
{ACAD_REACTORS
330
E0
102
}
330
E0
100
AcDbXrecord
 10
0.0
 20
0.0
 30
0.0
  0
XRECORD
  5
F0
102
{ACAD_REACTORS
330
E0
102
}
330
E0
100
AcDbXrecord
 10
0.0
 20
0.0
 30
0.0
  0
XRECORD
  5
ED
102
{ACAD_REACTORS
330
E0
102
}
330
E0
100
AcDbXrecord
340
0
  0
XRECORD
  5
EE
102
{ACAD_REACTORS
330
E0
102
}
330
E0
100
AcDbXrecord
 70
     0
  0
XRECORD
  5
E4
102
{ACAD_REACTORS
330
E0
102
}
330
E0
100
AcDbXrecord
  1

  0
XRECORD
  5
E1
102
{ACAD_REACTORS
330
E0
102
}
330
E0
100
AcDbXrecord
 90
        1
  0
XRECORD
  5
E2
102
{ACAD_REACTORS
330
E0
102
}
330
E0
100
AcDbXrecord
 90
       70
  0
XRECORD
  5
F8
102
{ACAD_REACTORS
330
E0
102
}
330
E0
100
AcDbXrecord
340
0
  0
XRECORD
  5
FE
102
{ACAD_REACTORS
330
E0
102
}
330
E0
100
AcDbXrecord
 10
0.0
 20
0.0
 30
0.0
  0
XRECORD
  5
FA
102
{ACAD_REACTORS
330
E0
102
}
330
E0
100
AcDbXrecord
 10
0.0
 20
0.0
 30
0.0
  0
XRECORD
  5
FD
102
{ACAD_REACTORS
330
E0
102
}
330
E0
100
AcDbXrecord
 10
0.0
 20
0.0
 30
0.0
  0
XRECORD
  5
FB
102
{ACAD_REACTORS
330
E0
102
}
330
E0
100
AcDbXrecord
 10
0.0
 20
0.0
 30
0.0
  0
XRECORD
  5
FC
102
{ACAD_REACTORS
330
E0
102
}
330
E0
100
AcDbXrecord
 10
0.0
 20
0.0
 30
0.0
  0
XRECORD
  5
F9
102
{ACAD_REACTORS
330
E0
102
}
330
E0
100
AcDbXrecord
 10
0.0
 20
0.0
 30
0.0
  0
XRECORD
  5
F6
102
{ACAD_REACTORS
330
E0
102
}
330
E0
100
AcDbXrecord
340
0
  0
XRECORD
  5
F7
102
{ACAD_REACTORS
330
E0
102
}
330
E0
100
AcDbXrecord
 70
     0
  0
XRECORD
  5
EB
102
{ACAD_REACTORS
330
E0
102
}
330
E0
100
AcDbXrecord
  1
{FAEB1C32-E019-11D5-929B-00C0DF256EC4}
  0
DICTIONARYVAR
  5
103
102
{ACAD_REACTORS
330
100
102
}
330
100
100
DictionaryVariables
280
     0
  1
2
  0
DICTIONARYVAR
  5
104
102
{ACAD_REACTORS
330
100
102
}
330
100
100
DictionaryVariables
280
     0
  1
1
  0
DICTIONARY
  5
107
330
3D
100
AcDbDictionary
280
     1
  3
ACAD_XREC_ROUNDTRIP
360
108
  0
DICTIONARY
  5
105
330
3C
100
AcDbDictionary
280
     1
  3
ACAD_XREC_ROUNDTRIP
360
106
  0
DICTIONARY
  5
109
330
3E
100
AcDbDictionary
280
     1
  3
ACAD_XREC_ROUNDTRIP
360
10A
  0
XRECORD
  5
108
102
{ACAD_REACTORS
330
107
102
}
330
107
100
AcDbXrecord
102
MATERIAL
148
0.0
149
0.0
149
0.0
 93
        0
 94
      127
282
     0
 72
     1
 77
     1
171
     1
175
     1
179
     1
273
     0
  0
XRECORD
  5
106
102
{ACAD_REACTORS
330
105
102
}
330
105
100
AcDbXrecord
102
MATERIAL
148
0.0
149
0.0
149
0.0
 93
        0
 94
      127
282
     0
 72
     1
 77
     1
171
     1
175
     1
179
     1
273
     0
  0
XRECORD
  5
10A
102
{ACAD_REACTORS
330
109
102
}
330
109
100
AcDbXrecord
102
MATERIAL
148
0.0
149
0.0
149
0.0
 93
        0
 94
      127
282
     0
 72
     1
 77
     1
171
     1
175
     1
179
     1
273
     0
  0
ENDSEC
  0
EOF
