  0
SECTION
  2
HEADER
  9
$ACADVER
  1
AC1014
  9
$ACADMAINTVER
 70
     9
  9
$DWGCODEPAGE
  3
UNDEFINED
  9
$INSBASE
 10
0.0
 20
0.0
 30
0.0
  9
$EXTMIN
 10
1.000000000000000E+20
 20
1.000000000000000E+20
 30
1.000000000000000E+20
  9
$EXTMAX
 10
-1.000000000000000E+20
 20
-1.000000000000000E+20
 30
-1.000000000000000E+20
  9
$LIMMIN
 10
0.0
 20
0.0
  9
$LIMMAX
 10
12.0
 20
9.0
  9
$ORTHOMODE
 70
     0
  9
$REGENMODE
 70
     1
  9
$FILLMODE
 70
     1
  9
$QTEXTMODE
 70
     0
  9
$MIRRTEXT
 70
     1
  9
$DRAGMODE
 70
     2
  9
$LTSCALE
 40
1.0
  9
$OSMODE
 70
    37
  9
$ATTMODE
 70
     1
  9
$TEXTSIZE
 40
0.2
  9
$TRACEWID
 40
0.05
  9
$TEXTSTYLE
  7
STANDARD
  9
$CLAYER
  8
0
  9
$CELTYPE
  6
BYLAYER
  9
$CECOLOR
 62
   256
  9
$CELTSCALE
 40
1.0
  9
$DELOBJ
 70
     1
  9
$DISPSILH
 70
     0
  9
$DIMSCALE
 40
1.0
  9
$DIMASZ
 40
0.18
  9
$DIMEXO
 40
0.0625
  9
$DIMDLI
 40
0.38
  9
$DIMRND
 40
0.0
  9
$DIMDLE
 40
0.0
  9
$DIMEXE
 40
0.18
  9
$DIMTP
 40
0.0
  9
$DIMTM
 40
0.0
  9
$DIMTXT
 40
0.18
  9
$DIMCEN
 40
0.09
  9
$DIMTSZ
 40
0.0
  9
$DIMTOL
 70
     0
  9
$DIMLIM
 70
     0
  9
$DIMTIH
 70
     1
  9
$DIMTOH
 70
     1
  9
$DIMSE1
 70
     0
  9
$DIMSE2
 70
     0
  9
$DIMTAD
 70
     0
  9
$DIMZIN
 70
     0
  9
$DIMBLK
  1

  9
$DIMASO
 70
     1
  9
$DIMSHO
 70
     1
  9
$DIMPOST
  1

  9
$DIMAPOST
  1

  9
$DIMALT
 70
     0
  9
$DIMALTD
 70
     2
  9
$DIMALTF
 40
25.4
  9
$DIMLFAC
 40
1.0
  9
$DIMTOFL
 70
     0
  9
$DIMTVP
 40
0.0
  9
$DIMTIX
 70
     0
  9
$DIMSOXD
 70
     0
  9
$DIMSAH
 70
     0
  9
$DIMBLK1
  1

  9
$DIMBLK2
  1

  9
$DIMSTYLE
  2
STANDARD
  9
$DIMCLRD
 70
     0
  9
$DIMCLRE
 70
     0
  9
$DIMCLRT
 70
     0
  9
$DIMTFAC
 40
1.0
  9
$DIMGAP
 40
0.09
  9
$DIMJUST
 70
     0
  9
$DIMSD1
 70
     0
  9
$DIMSD2
 70
     0
  9
$DIMTOLJ
 70
     1
  9
$DIMTZIN
 70
     0
  9
$DIMALTZ
 70
     0
  9
$DIMALTTZ
 70
     0
  9
$DIMFIT
 70
     3
  9
$DIMUPT
 70
     0
  9
$DIMUNIT
 70
     2
  9
$DIMDEC
 70
     4
  9
$DIMTDEC
 70
     4
  9
$DIMALTU
 70
     2
  9
$DIMALTTD
 70
     2
  9
$DIMTXSTY
  7
STANDARD
  9
$DIMAUNIT
 70
     0
  9
$LUNITS
 70
     2
  9
$LUPREC
 70
     4
  9
$SKETCHINC
 40
0.1
  9
$FILLETRAD
 40
0.5
  9
$AUNITS
 70
     0
  9
$AUPREC
 70
     0
  9
$MENU
  1
.
  9
$ELEVATION
 40
0.0
  9
$PELEVATION
 40
0.0
  9
$THICKNESS
 40
0.0
  9
$LIMCHECK
 70
     0
  9
$CHAMFERA
 40
0.5
  9
$CHAMFERB
 40
0.5
  9
$CHAMFERC
 40
1.0
  9
$CHAMFERD
 40
0.0
  9
$SKPOLY
 70
     0
  9
$TDCREATE
 40
2458968.623819433
  9
$TDUPDATE
 40
2458968.623819433
  9
$TDINDWG
 40
0.0000000116
  9
$TDUSRTIMER
 40
0.0000000116
  9
$USRTIMER
 70
     1
  9
$ANGBASE
 50
0.0
  9
$ANGDIR
 70
     0
  9
$PDMODE
 70
     0
  9
$PDSIZE
 40
0.0
  9
$PLINEWID
 40
0.0
  9
$COORDS
 70
     1
  9
$SPLFRAME
 70
     0
  9
$SPLINETYPE
 70
     6
  9
$SPLINESEGS
 70
     8
  9
$ATTDIA
 70
     0
  9
$ATTREQ
 70
     1
  9
$HANDLING
 70
     1
  9
$HANDSEED
  5
FD
  9
$SURFTAB1
 70
     6
  9
$SURFTAB2
 70
     6
  9
$SURFTYPE
 70
     6
  9
$SURFU
 70
     6
  9
$SURFV
 70
     6
  9
$UCSNAME
  2

  9
$UCSORG
 10
0.0
 20
0.0
 30
0.0
  9
$UCSXDIR
 10
1.0
 20
0.0
 30
0.0
  9
$UCSYDIR
 10
0.0
 20
1.0
 30
0.0
  9
$PUCSNAME
  2

  9
$PUCSORG
 10
0.0
 20
0.0
 30
0.0
  9
$PUCSXDIR
 10
1.0
 20
0.0
 30
0.0
  9
$PUCSYDIR
 10
0.0
 20
1.0
 30
0.0
  9
$USERI1
 70
     0
  9
$USERI2
 70
     0
  9
$USERI3
 70
     0
  9
$USERI4
 70
     0
  9
$USERI5
 70
     0
  9
$USERR1
 40
0.0
  9
$USERR2
 40
0.0
  9
$USERR3
 40
0.0
  9
$USERR4
 40
0.0
  9
$USERR5
 40
0.0
  9
$WORLDVIEW
 70
     1
  9
$SHADEDGE
 70
     3
  9
$SHADEDIF
 70
    70
  9
$TILEMODE
 70
     1
  9
$MAXACTVP
 70
    64
  9
$PINSBASE
 10
0.0
 20
0.0
 30
0.0
  9
$PLIMCHECK
 70
     0
  9
$PEXTMIN
 10
1.000000000000000E+20
 20
1.000000000000000E+20
 30
1.000000000000000E+20
  9
$PEXTMAX
 10
-1.000000000000000E+20
 20
-1.000000000000000E+20
 30
-1.000000000000000E+20
  9
$PLIMMIN
 10
0.0
 20
0.0
  9
$PLIMMAX
 10
12.0
 20
9.0
  9
$UNITMODE
 70
     0
  9
$VISRETAIN
 70
     1
  9
$PLINEGEN
 70
     0
  9
$PSLTSCALE
 70
     1
  9
$TREEDEPTH
 70
  3020
  9
$PICKSTYLE
 70
     1
  9
$CMLSTYLE
  2
STANDARD
  9
$CMLJUST
 70
     0
  9
$CMLSCALE
 40
1.0
  9
$PROXYGRAPHICS
 70
     1
  9
$MEASUREMENT
 70
     0
  0
ENDSEC
  0
SECTION
  2
CLASSES
  0
CLASS
  1
ACDBDICTIONARYWDFLT
  2
AcDbDictionaryWithDefault
  3
ObjectDBX Classes
 90
        0
280
     0
281
     0
  0
CLASS
  1
VISUALSTYLE
  2
AcDbVisualStyle
  3
ObjectDBX Classes
 90
     4095
280
     0
281
     0
  0
CLASS
  1
MATERIAL
  2
AcDbMaterial
  3
ObjectDBX Classes
 90
     1153
280
     0
281
     0
  0
CLASS
  1
SUN
  2
AcDbSun
  3
SCENEOE
 90
     1024
280
     0
281
     0
  0
CLASS
  1
DICTIONARYVAR
  2
AcDbDictionaryVar
  3
ObjectDBX Classes
 90
        0
280
     0
281
     0
  0
CLASS
  1
XRECORD
  2
AcDbXrecord
  3
AutoCAD 2000
 90
        0
280
     0
281
     0
  0
CLASS
  1
LWPOLYLINE
  2
AcDbPolyline
  3
AutoCAD 2000
 90
        0
280
     0
281
     1
  0
CLASS
  1
HATCH
  2
AcDbHatch
  3
AutoCAD 2000
 90
        0
280
     0
281
     1
  0
CLASS
  1
ACDBPLACEHOLDER
  2
AcDbPlaceHolder
  3
ObjectDBX Classes
 90
        0
280
     0
281
     0
  0
CLASS
  1
LAYOUT
  2
AcDbLayout
  3
ObjectDBX Classes
 90
        0
280
     0
281
     0
  0
ENDSEC
  0
SECTION
  2
TABLES
  0
TABLE
  2
VPORT
  5
8
330
0
100
AcDbSymbolTable
 70
     1
  0
VPORT
  5
29
330
8
100
AcDbSymbolTableRecord
100
AcDbViewportTableRecord
  2
*ACTIVE
 70
     0
 10
0.0
 20
0.0
 11
1.0
 21
1.0
 12
0.0
 22
0.0
 13
0.0
 23
0.0
 14
0.5
 24
0.5
 15
0.5
 25
0.5
 16
0.0
 26
0.0
 36
1.0
 17
104.9999989878935
 27
148.4996183011652
 37
0.0
 40
297.0000052006764
 41
0.7070706878738762
 42
50.0
 43
0.0
 44
0.0
 50
0.0
 51
0.0
 71
     0
 72
   100
 73
     1
 74
     3
 75
     0
 76
     0
 77
     0
 78
     0
  0
ENDTAB
  0
TABLE
  2
LTYPE
  5
5
330
0
100
AcDbSymbolTable
 70
     1
  0
LTYPE
  5
14
330
5
100
AcDbSymbolTableRecord
100
AcDbLinetypeTableRecord
  2
BYBLOCK
 70
     0
  3

 72
    65
 73
     0
 40
0.0
  0
LTYPE
  5
15
330
5
100
AcDbSymbolTableRecord
100
AcDbLinetypeTableRecord
  2
BYLAYER
 70
     0
  3

 72
    65
 73
     0
 40
0.0
  0
LTYPE
  5
16
330
5
100
AcDbSymbolTableRecord
100
AcDbLinetypeTableRecord
  2
CONTINUOUS
 70
     0
  3
Solid line
 72
    65
 73
     0
 40
0.0
  0
ENDTAB
  0
TABLE
  2
LAYER
  5
2
330
0
100
AcDbSymbolTable
 70
    14
  0
LAYER
  5
10
330
2
100
AcDbSymbolTableRecord
100
AcDbLayerTableRecord
  2
0
 70
     0
 62
     7
  6
CONTINUOUS
  0
LAYER
  5
40
330
2
100
AcDbSymbolTableRecord
100
AcDbLayerTableRecord
  2
OUTLINE
 70
     5
 62
     7
  6
CONTINUOUS
  0
LAYER
  5
41
330
2
100
AcDbSymbolTableRecord
100
AcDbLayerTableRecord
  2
OUTLINE_U_306E_U_30B3_U_30
 70
     4
 62
     7
  6
CONTINUOUS
  0
LAYER
  5
42
330
2
100
AcDbSymbolTableRecord
100
AcDbLayerTableRecord
  2
L2-SILK
 70
     5
 62
     7
  6
CONTINUOUS
  0
LAYER
  5
43
330
2
100
AcDbSymbolTableRecord
100
AcDbLayerTableRecord
  2
L2-PATTERN
 70
     5
 62
     7
  6
CONTINUOUS
  0
LAYER
  5
44
330
2
100
AcDbSymbolTableRecord
100
AcDbLayerTableRecord
  2
L2-RESIST
 70
     5
 62
     7
  6
CONTINUOUS
  0
LAYER
  5
45
330
2
100
AcDbSymbolTableRecord
100
AcDbLayerTableRecord
  2
L1-PATTERN
 70
     5
 62
     7
  6
CONTINUOUS
  0
LAYER
  5
46
330
2
100
AcDbSymbolTableRecord
100
AcDbLayerTableRecord
  2
L1-RESIST
 70
     5
 62
     7
  6
CONTINUOUS
  0
LAYER
  5
47
330
2
100
AcDbSymbolTableRecord
100
AcDbLayerTableRecord
  2
L1-SILK
 70
     5
 62
     7
  6
CONTINUOUS
  0
LAYER
  5
48
330
2
100
AcDbSymbolTableRecord
100
AcDbLayerTableRecord
  2
DRILL
 70
     5
 62
     7
  6
CONTINUOUS
  0
LAYER
  5
49
330
2
100
AcDbSymbolTableRecord
100
AcDbLayerTableRecord
  2
HANE
 70
     0
 62
     7
  6
CONTINUOUS
  0
LAYER
  5
CF
330
2
100
AcDbSymbolTableRecord
100
AcDbLayerTableRecord
  2
H1
 70
     4
 62
     7
  6
CONTINUOUS
  0
LAYER
  5
D0
330
2
100
AcDbSymbolTableRecord
100
AcDbLayerTableRecord
  2
L2-RESIST_U_306E_U_30B3_U_
 70
     0
 62
     7
  6
CONTINUOUS
  0
LAYER
  5
D1
330
2
100
AcDbSymbolTableRecord
100
AcDbLayerTableRecord
  2
H2
 70
     0
 62
     7
  6
CONTINUOUS
  0
ENDTAB
  0
TABLE
  2
STYLE
  5
3
330
0
100
AcDbSymbolTable
 70
     1
  0
STYLE
  5
11
330
3
100
AcDbSymbolTableRecord
100
AcDbTextStyleTableRecord
  2
STANDARD
 70
     0
 40
0.0
 41
1.0
 50
0.0
 71
     0
 42
0.2
  3
txt
  4

  0
ENDTAB
  0
TABLE
  2
VIEW
  5
6
330
0
100
AcDbSymbolTable
 70
     0
  0
ENDTAB
  0
TABLE
  2
UCS
  5
7
330
0
100
AcDbSymbolTable
 70
     0
  0
ENDTAB
  0
TABLE
  2
APPID
  5
9
330
0
100
AcDbSymbolTable
 70
     1
  0
APPID
  5
12
330
9
100
AcDbSymbolTableRecord
100
AcDbRegAppTableRecord
  2
ACAD
 70
     0
  0
ENDTAB
  0
TABLE
  2
DIMSTYLE
  5
A
330
0
100
AcDbSymbolTable
 70
     1
  0
DIMSTYLE
105
27
330
A
100
AcDbSymbolTableRecord
100
AcDbDimStyleTableRecord
  2
STANDARD
 70
     0
  3

  4

  5

  6

  7

 40
1.0
 41
0.18
 42
0.0625
 43
0.38
 44
0.18
 45
0.0
 46
0.0
 47
0.0
 48
0.0
140
0.18
141
0.09
142
0.0
143
25.4
144
1.0
145
0.0
146
1.0
147
0.09
 71
     0
 72
     0
 73
     1
 74
     1
 75
     0
 76
     0
 77
     0
 78
     0
170
     0
171
     2
172
     0
173
     0
174
     0
175
     0
176
     0
177
     0
178
     0
270
     2
271
     4
272
     4
273
     2
274
     2
340
11
275
     0
280
     0
281
     0
282
     0
283
     1
284
     0
285
     0
286
     0
287
     3
288
     0
  0
ENDTAB
  0
TABLE
  2
BLOCK_RECORD
  5
1
330
0
100
AcDbSymbolTable
 70
     1
  0
BLOCK_RECORD
  5
1F
330
1
100
AcDbSymbolTableRecord
100
AcDbBlockTableRecord
  2
*MODEL_SPACE
  0
BLOCK_RECORD
  5
1B
330
1
100
AcDbSymbolTableRecord
100
AcDbBlockTableRecord
  2
*PAPER_SPACE
  0
ENDTAB
  0
ENDSEC
  0
SECTION
  2
BLOCKS
  0
BLOCK
  5
20
330
1F
100
AcDbEntity
  8
0
100
AcDbBlockBegin
  2
*MODEL_SPACE
 70
     0
 10
0.0
 20
0.0
 30
0.0
  3
*MODEL_SPACE
  1

  0
ENDBLK
  5
21
330
1F
100
AcDbEntity
  8
0
100
AcDbBlockEnd
  0
BLOCK
  5
1C
330
1B
100
AcDbEntity
 67
     1
  8
0
100
AcDbBlockBegin
  2
*PAPER_SPACE
 70
     0
 10
0.0
 20
0.0
 30
0.0
  3
*PAPER_SPACE
  1

  0
ENDBLK
  5
1D
330
1B
100
AcDbEntity
 67
     1
  8
0
100
AcDbBlockEnd
  0
ENDSEC
  0
SECTION
  2
ENTITIES
  0
POLYLINE
  5
4A
330
1F
100
AcDbEntity
  8
HANE
100
AcDb2dPolyline
 66
     1
 10
0.0
 20
0.0
 30
0.0
  0
VERTEX
  5
4B
330
4A
100
AcDbEntity
  8
HANE
100
AcDbVertex
100
AcDb2dVertex
 10
12.80996500186514
 20
55.81595627395351
 30
0.0
  0
VERTEX
  5
4C
330
4A
100
AcDbEntity
  8
HANE
100
AcDbVertex
100
AcDb2dVertex
 10
13.13880466667656
 20
55.35362578064917
 30
0.0
  0
VERTEX
  5
4D
330
4A
100
AcDbEntity
  8
HANE
100
AcDbVertex
100
AcDb2dVertex
 10
13.45731940220682
 20
54.94285058876346
 30
0.0
  0
VERTEX
  5
4E
330
4A
100
AcDbEntity
  8
HANE
100
AcDbVertex
100
AcDb2dVertex
 10
13.76616779451911
 20
54.5844786051769
 30
0.0
  0
VERTEX
  5
4F
330
4A
100
AcDbEntity
  8
HANE
100
AcDbVertex
100
AcDb2dVertex
 10
14.06600842967699
 20
54.27935773676748
 30
0.0
  0
VERTEX
  5
50
330
4A
100
AcDbEntity
  8
HANE
100
AcDbVertex
100
AcDb2dVertex
 10
14.35749989374367
 20
54.02833589041509
 30
0.0
  0
VERTEX
  5
51
330
4A
100
AcDbEntity
  8
HANE
100
AcDbVertex
100
AcDb2dVertex
 10
14.641300772783
 20
53.8322609730003
 30
0.0
  0
VERTEX
  5
52
330
4A
100
AcDbEntity
  8
HANE
100
AcDbVertex
100
AcDb2dVertex
 10
14.91806965285853
 20
53.69198089140105
 30
0.0
  0
VERTEX
  5
53
330
4A
100
AcDbEntity
  8
HANE
100
AcDbVertex
100
AcDb2dVertex
 10
15.18846512003313
 20
53.60834355249727
 30
0.0
  0
VERTEX
  5
54
330
4A
100
AcDbEntity
  8
HANE
100
AcDbVertex
100
AcDb2dVertex
 10
15.42517053890117
 20
53.57766015484285
 30
0.0
  0
VERTEX
  5
55
330
4A
100
AcDbEntity
  8
HANE
100
AcDbVertex
100
AcDb2dVertex
 10
15.65429497002977
 20
53.57561459499892
 30
0.0
  0
VERTEX
  5
56
330
4A
100
AcDbEntity
  8
HANE
100
AcDbVertex
100
AcDb2dVertex
 10
15.87523233060898
 20
53.59926007616622
 30
0.0
  0
VERTEX
  5
57
330
4A
100
AcDbEntity
  8
HANE
100
AcDbVertex
100
AcDb2dVertex
 10
16.08737653782982
 20
53.6456498015455
 30
0.0
  0
VERTEX
  5
58
330
4A
100
AcDbEntity
  8
HANE
100
AcDbVertex
100
AcDb2dVertex
 10
16.29012150888205
 20
53.71183697433622
 30
0.0
  0
VERTEX
  5
59
330
4A
100
AcDbEntity
  8
HANE
100
AcDbVertex
100
AcDb2dVertex
 10
16.48286116095636
 20
53.79487479773846
 30
0.0
  0
VERTEX
  5
5A
330
4A
100
AcDbEntity
  8
HANE
100
AcDbVertex
100
AcDb2dVertex
 10
16.66498941124313
 20
53.89181647495297
 30
0.0
  0
VERTEX
  5
5B
330
4A
100
AcDbEntity
  8
HANE
100
AcDbVertex
100
AcDb2dVertex
 10
16.83590017693275
 20
53.99971520917921
 30
0.0
  0
VERTEX
  5
5C
330
4A
100
AcDbEntity
  8
HANE
100
AcDbVertex
100
AcDb2dVertex
 10
17.09354335883631
 20
54.19461169726286
 30
0.0
  0
VERTEX
  5
5D
330
4A
100
AcDbEntity
  8
HANE
100
AcDbVertex
100
AcDb2dVertex
 10
17.32145853694092
 20
54.40029657048746
 30
0.0
  0
VERTEX
  5
5E
330
4A
100
AcDbEntity
  8
HANE
100
AcDbVertex
100
AcDb2dVertex
 10
17.51833726401453
 20
54.60559449059702
 30
0.0
  0
VERTEX
  5
5F
330
4A
100
AcDbEntity
  8
HANE
100
AcDbVertex
100
AcDb2dVertex
 10
17.68287109282473
 20
54.79933011933489
 30
0.0
  0
VERTEX
  5
60
330
4A
100
AcDbEntity
  8
HANE
100
AcDbVertex
100
AcDb2dVertex
 10
17.81375157613945
 20
54.97032811844443
 30
0.0
  0
VERTEX
  5
61
330
4A
100
AcDbEntity
  8
HANE
100
AcDbVertex
100
AcDb2dVertex
 10
17.90967026672597
 20
55.10741314966964
 30
0.0
  0
VERTEX
  5
62
330
4A
100
AcDbEntity
  8
HANE
100
AcDbVertex
100
AcDb2dVertex
 10
17.96931871735288
 20
55.19940987475324
 30
0.0
  0
VERTEX
  5
63
330
4A
100
AcDbEntity
  8
HANE
100
AcDbVertex
100
AcDb2dVertex
 10
17.99138848078712
 20
55.2351429554386
 30
0.0
  0
VERTEX
  5
64
330
4A
100
AcDbEntity
  8
HANE
100
AcDbVertex
100
AcDb2dVertex
 10
18.64295337898623
 20
56.42971793364229
 30
0.0
  0
VERTEX
  5
65
330
4A
100
AcDbEntity
  8
HANE
100
AcDbVertex
100
AcDb2dVertex
 10
19.1252829266855
 20
57.64412343217435
 30
0.0
  0
VERTEX
  5
66
330
4A
100
AcDbEntity
  8
HANE
100
AcDbVertex
100
AcDb2dVertex
 10
19.46379903404323
 20
58.82338895764498
 30
0.0
  0
VERTEX
  5
67
330
4A
100
AcDbEntity
  8
HANE
100
AcDbVertex
100
AcDb2dVertex
 10
19.68392361121807
 20
59.91254401666436
 30
0.0
  0
VERTEX
  5
68
330
4A
100
AcDbEntity
  8
HANE
100
AcDbVertex
100
AcDb2dVertex
 10
19.81107856836896
 20
60.85661811584331
 30
0.0
  0
VERTEX
  5
69
330
4A
100
AcDbEntity
  8
HANE
100
AcDbVertex
100
AcDb2dVertex
 10
19.87068581565488
 20
61.60064076179267
 30
0.0
  0
VERTEX
  5
6A
330
4A
100
AcDbEntity
  8
HANE
100
AcDbVertex
100
AcDb2dVertex
 10
19.88816726323379
 20
62.08964146112197
 30
0.0
  0
VERTEX
  5
6B
330
4A
100
AcDbEntity
  8
HANE
100
AcDbVertex
100
AcDb2dVertex
 10
19.88894482126532
 20
62.26864972044398
 30
0.0
  0
VERTEX
  5
6C
330
4A
100
AcDbEntity
  8
HANE
100
AcDbVertex
100
AcDb2dVertex
 10
19.88855676571966
 20
62.28441006726412
 30
0.0
  0
VERTEX
  5
6D
330
4A
100
AcDbEntity
  8
HANE
100
AcDbVertex
100
AcDb2dVertex
 10
19.88816871017401
 20
62.30017041408426
 30
0.0
  0
VERTEX
  5
6E
330
4A
100
AcDbEntity
  8
HANE
100
AcDbVertex
100
AcDb2dVertex
 10
19.88778065462835
 20
62.31593076090441
 30
0.0
  0
VERTEX
  5
6F
330
4A
100
AcDbEntity
  8
HANE
100
AcDbVertex
100
AcDb2dVertex
 10
19.88739259908269
 20
62.33169110772455
 30
0.0
  0
VERTEX
  5
70
330
4A
100
AcDbEntity
  8
HANE
100
AcDbVertex
100
AcDb2dVertex
 10
19.88700454353704
 20
62.34745145454469
 30
0.0
  0
VERTEX
  5
71
330
4A
100
AcDbEntity
  8
HANE
100
AcDbVertex
100
AcDb2dVertex
 10
19.88661648799139
 20
62.36321180136483
 30
0.0
  0
VERTEX
  5
72
330
4A
100
AcDbEntity
  8
HANE
100
AcDbVertex
100
AcDb2dVertex
 10
19.88622843244573
 20
62.37897214818433
 30
0.0
  0
VERTEX
  5
73
330
4A
100
AcDbEntity
  8
HANE
100
AcDbVertex
100
AcDb2dVertex
 10
19.88584037690007
 20
62.39473249500448
 30
0.0
  0
VERTEX
  5
74
330
4A
100
AcDbEntity
  8
HANE
100
AcDbVertex
100
AcDb2dVertex
 10
19.87089582867023
 20
62.39946853655032
 30
0.0
  0
VERTEX
  5
75
330
4A
100
AcDbEntity
  8
HANE
100
AcDbVertex
100
AcDb2dVertex
 10
19.85595128044039
 20
62.4042045780968
 30
0.0
  0
VERTEX
  5
76
330
4A
100
AcDbEntity
  8
HANE
100
AcDbVertex
100
AcDb2dVertex
 10
19.84100673221054
 20
62.40894061964264
 30
0.0
  0
VERTEX
  5
77
330
4A
100
AcDbEntity
  8
HANE
100
AcDbVertex
100
AcDb2dVertex
 10
19.8260621839807
 20
62.41367666118848
 30
0.0
  0
VERTEX
  5
78
330
4A
100
AcDbEntity
  8
HANE
100
AcDbVertex
100
AcDb2dVertex
 10
19.81111763575085
 20
62.41841270273432
 30
0.0
  0
VERTEX
  5
79
330
4A
100
AcDbEntity
  8
HANE
100
AcDbVertex
100
AcDb2dVertex
 10
19.79617308752101
 20
62.42314874428016
 30
0.0
  0
VERTEX
  5
7A
330
4A
100
AcDbEntity
  8
HANE
100
AcDbVertex
100
AcDb2dVertex
 10
19.78122853929117
 20
62.42788478582664
 30
0.0
  0
VERTEX
  5
7B
330
4A
100
AcDbEntity
  8
HANE
100
AcDbVertex
100
AcDb2dVertex
 10
19.76628399106132
 20
62.43262082737248
 30
0.0
  0
VERTEX
  5
7C
330
4A
100
AcDbEntity
  8
HANE
100
AcDbVertex
100
AcDb2dVertex
 10
19.76367302216097
 20
62.43350204840004
 30
0.0
  0
VERTEX
  5
7D
330
4A
100
AcDbEntity
  8
HANE
100
AcDbVertex
100
AcDb2dVertex
 10
19.75566207292961
 20
62.43644189121269
 30
0.0
  0
VERTEX
  5
7E
330
4A
100
AcDbEntity
  8
HANE
100
AcDbVertex
100
AcDb2dVertex
 10
19.74198407957196
 20
62.44188462540475
 30
0.0
  0
VERTEX
  5
7F
330
4A
100
AcDbEntity
  8
HANE
100
AcDbVertex
100
AcDb2dVertex
 10
19.72237197829272
 20
62.45027452057118
 30
0.0
  0
VERTEX
  5
80
330
4A
100
AcDbEntity
  8
HANE
100
AcDbVertex
100
AcDb2dVertex
 10
19.69655870529693
 20
62.46205584630567
 30
0.0
  0
VERTEX
  5
81
330
4A
100
AcDbEntity
  8
HANE
100
AcDbVertex
100
AcDb2dVertex
 10
19.66427719678865
 20
62.47767287220317
 30
0.0
  0
VERTEX
  5
82
330
4A
100
AcDbEntity
  8
HANE
100
AcDbVertex
100
AcDb2dVertex
 10
19.62526038897324
 20
62.49756986785736
 30
0.0
  0
VERTEX
  5
83
330
4A
100
AcDbEntity
  8
HANE
100
AcDbVertex
100
AcDb2dVertex
 10
19.5792412180554
 20
62.52219110286256
 30
0.0
  0
VERTEX
  5
84
330
4A
100
AcDbEntity
  8
HANE
100
AcDbVertex
100
AcDb2dVertex
 10
19.40238855492405
 20
62.62793696362044
 30
0.0
  0
VERTEX
  5
85
330
4A
100
AcDbEntity
  8
HANE
100
AcDbVertex
100
AcDb2dVertex
 10
19.1721450435455
 20
62.78753570085604
 30
0.0
  0
VERTEX
  5
86
330
4A
100
AcDbEntity
  8
HANE
100
AcDbVertex
100
AcDb2dVertex
 10
18.8917042873539
 20
63.01027404074703
 30
0.0
  0
VERTEX
  5
87
330
4A
100
AcDbEntity
  8
HANE
100
AcDbVertex
100
AcDb2dVertex
 10
18.56425988978307
 20
63.30543870947043
 30
0.0
  0
VERTEX
  5
88
330
4A
100
AcDbEntity
  8
HANE
100
AcDbVertex
100
AcDb2dVertex
 10
18.19300545426746
 20
63.68231643320133
 30
0.0
  0
VERTEX
  5
89
330
4A
100
AcDbEntity
  8
HANE
100
AcDbVertex
100
AcDb2dVertex
 10
17.78113458424155
 20
64.15019393811802
 30
0.0
  0
VERTEX
  5
8A
330
4A
100
AcDbEntity
  8
HANE
100
AcDbVertex
100
AcDb2dVertex
 10
17.33184088313881
 20
64.71835795039625
 30
0.0
  0
VERTEX
  5
8B
330
4A
100
AcDbEntity
  8
HANE
100
AcDbVertex
100
AcDb2dVertex
 10
16.84831795439373
 20
65.39609519621304
 30
0.0
  0
VERTEX
  5
8C
330
4A
100
AcDbEntity
  8
HANE
100
AcDbVertex
100
AcDb2dVertex
 10
16.70341876547791
 20
65.61216648084772
 30
0.0
  0
VERTEX
  5
8D
330
4A
100
AcDbEntity
  8
HANE
100
AcDbVertex
100
AcDb2dVertex
 10
16.5561041228923
 20
65.8383142561106
 30
0.0
  0
VERTEX
  5
8E
330
4A
100
AcDbEntity
  8
HANE
100
AcDbVertex
100
AcDb2dVertex
 10
16.40644217387362
 20
66.07473282538297
 30
0.0
  0
VERTEX
  5
8F
330
4A
100
AcDbEntity
  8
HANE
100
AcDbVertex
100
AcDb2dVertex
 10
16.25450106565956
 20
66.32161649204419
 30
0.0
  0
VERTEX
  5
90
330
4A
100
AcDbEntity
  8
HANE
100
AcDbVertex
100
AcDb2dVertex
 10
16.1003489454875
 20
66.57915955947551
 30
0.0
  0
VERTEX
  5
91
330
4A
100
AcDbEntity
  8
HANE
100
AcDbVertex
100
AcDb2dVertex
 10
15.94405396059415
 20
66.84755633105698
 30
0.0
  0
VERTEX
  5
92
330
4A
100
AcDbEntity
  8
HANE
100
AcDbVertex
100
AcDb2dVertex
 10
15.78568425821784
 20
67.12700111016855
 30
0.0
  0
VERTEX
  5
93
330
4A
100
AcDbEntity
  8
HANE
100
AcDbVertex
100
AcDb2dVertex
 10
15.62530798559531
 20
67.41768820019153
 30
0.0
  0
VERTEX
  5
94
330
4A
100
AcDbEntity
  8
HANE
100
AcDbVertex
100
AcDb2dVertex
 10
14.73797529664446
 20
69.06676265817751
 30
0.0
  0
VERTEX
  5
95
330
4A
100
AcDbEntity
  8
HANE
100
AcDbVertex
100
AcDb2dVertex
 10
13.82239420346655
 20
70.82509116443713
 30
0.0
  0
VERTEX
  5
96
330
4A
100
AcDbEntity
  8
HANE
100
AcDbVertex
100
AcDb2dVertex
 10
12.90338179527166
 20
72.67338409670097
 30
0.0
  0
VERTEX
  5
97
330
4A
100
AcDbEntity
  8
HANE
100
AcDbVertex
100
AcDb2dVertex
 10
12.00575516127113
 20
74.59235183270155
 30
0.0
  0
VERTEX
  5
98
330
4A
100
AcDbEntity
  8
HANE
100
AcDbVertex
100
AcDb2dVertex
 10
11.15433139067504
 20
76.56270475016947
 30
0.0
  0
VERTEX
  5
99
330
4A
100
AcDbEntity
  8
HANE
100
AcDbVertex
100
AcDb2dVertex
 10
10.37392757269411
 20
78.56515322683595
 30
0.0
  0
VERTEX
  5
9A
330
4A
100
AcDbEntity
  8
HANE
100
AcDbVertex
100
AcDb2dVertex
 10
9.689360796539038
 20
80.5804076404322
 30
0.0
  0
VERTEX
  5
9B
330
4A
100
AcDbEntity
  8
HANE
100
AcDbVertex
100
AcDb2dVertex
 10
9.125448151420551
 20
82.58917836868949
 30
0.0
  0
VERTEX
  5
9C
330
4A
100
AcDbEntity
  8
HANE
100
AcDbVertex
100
AcDb2dVertex
 10
9.121720764905437
 20
82.6118840967352
 30
0.0
  0
VERTEX
  5
9D
330
4A
100
AcDbEntity
  8
HANE
100
AcDbVertex
100
AcDb2dVertex
 10
9.111292392233043
 20
82.67936435163254
 30
0.0
  0
VERTEX
  5
9E
330
4A
100
AcDbEntity
  8
HANE
100
AcDbVertex
100
AcDb2dVertex
 10
9.092952151273016
 20
82.78213092724408
 30
0.0
  0
VERTEX
  5
9F
330
4A
100
AcDbEntity
  8
HANE
100
AcDbVertex
100
AcDb2dVertex
 10
9.065489159894677
 20
82.91069561743231
 30
0.0
  0
VERTEX
  5
A0
330
4A
100
AcDbEntity
  8
HANE
100
AcDbVertex
100
AcDb2dVertex
 10
9.02769253596735
 20
83.05557021605784
 30
0.0
  0
VERTEX
  5
A1
330
4A
100
AcDbEntity
  8
HANE
100
AcDbVertex
100
AcDb2dVertex
 10
8.978351397360681
 20
83.20726651698385
 30
0.0
  0
VERTEX
  5
A2
330
4A
100
AcDbEntity
  8
HANE
100
AcDbVertex
100
AcDb2dVertex
 10
8.916254861943992
 20
83.35629631407157
 30
0.0
  0
VERTEX
  5
A3
330
4A
100
AcDbEntity
  8
HANE
100
AcDbVertex
100
AcDb2dVertex
 10
8.840192047586928
 20
83.49317140118355
 30
0.0
  0
VERTEX
  5
A4
330
4A
100
AcDbEntity
  8
HANE
100
AcDbVertex
100
AcDb2dVertex
 10
8.819274255151816
 20
83.52223374364897
 30
0.0
  0
VERTEX
  5
A5
330
4A
100
AcDbEntity
  8
HANE
100
AcDbVertex
100
AcDb2dVertex
 10
8.796654861197656
 20
83.55074748912361
 30
0.0
  0
VERTEX
  5
A6
330
4A
100
AcDbEntity
  8
HANE
100
AcDbVertex
100
AcDb2dVertex
 10
8.77205109229412
 20
83.57829302498817
 30
0.0
  0
VERTEX
  5
A7
330
4A
100
AcDbEntity
  8
HANE
100
AcDbVertex
100
AcDb2dVertex
 10
8.745180175010884
 20
83.60445073862202
 30
0.0
  0
VERTEX
  5
A8
330
4A
100
AcDbEntity
  8
HANE
100
AcDbVertex
100
AcDb2dVertex
 10
8.715759335917621
 20
83.62880101740589
 30
0.0
  0
VERTEX
  5
A9
330
4A
100
AcDbEntity
  8
HANE
100
AcDbVertex
100
AcDb2dVertex
 10
8.683505801584328
 20
83.65092424872107
 30
0.0
  0
VERTEX
  5
AA
330
4A
100
AcDbEntity
  8
HANE
100
AcDbVertex
100
AcDb2dVertex
 10
8.648136798580357
 20
83.67040081994699
 30
0.0
  0
VERTEX
  5
AB
330
4A
100
AcDbEntity
  8
HANE
100
AcDbVertex
100
AcDb2dVertex
 10
8.609369553475702
 20
83.68681111846432
 30
0.0
  0
VERTEX
  5
AC
330
4A
100
AcDbEntity
  8
HANE
100
AcDbVertex
100
AcDb2dVertex
 10
8.567725584537063
 20
83.69921635577785
 30
0.0
  0
VERTEX
  5
AD
330
4A
100
AcDbEntity
  8
HANE
100
AcDbVertex
100
AcDb2dVertex
 10
8.524436336075617
 20
83.70562630027621
 30
0.0
  0
VERTEX
  5
AE
330
4A
100
AcDbEntity
  8
HANE
100
AcDbVertex
100
AcDb2dVertex
 10
8.480244236228117
 20
83.70630636210748
 30
0.0
  0
VERTEX
  5
AF
330
4A
100
AcDbEntity
  8
HANE
100
AcDbVertex
100
AcDb2dVertex
 10
8.43589171313068
 20
83.70152195142235
 30
0.0
  0
VERTEX
  5
B0
330
4A
100
AcDbEntity
  8
HANE
100
AcDbVertex
100
AcDb2dVertex
 10
8.39212119492038
 20
83.69153847837016
 30
0.0
  0
VERTEX
  5
B1
330
4A
100
AcDbEntity
  8
HANE
100
AcDbVertex
100
AcDb2dVertex
 10
8.349675109733656
 20
83.67662135309969
 30
0.0
  0
VERTEX
  5
B2
330
4A
100
AcDbEntity
  8
HANE
100
AcDbVertex
100
AcDb2dVertex
 10
8.309295885707582
 20
83.65703598576091
 30
0.0
  0
VERTEX
  5
B3
330
4A
100
AcDbEntity
  8
HANE
100
AcDbVertex
100
AcDb2dVertex
 10
8.271725950978595
 20
83.6330477865026
 30
0.0
  0
VERTEX
  5
B4
330
4A
100
AcDbEntity
  8
HANE
100
AcDbVertex
100
AcDb2dVertex
 10
8.228982034909949
 20
83.6007197692076
 30
0.0
  0
VERTEX
  5
B5
330
4A
100
AcDbEntity
  8
HANE
100
AcDbVertex
100
AcDb2dVertex
 10
8.18784227232796
 20
83.56406374746565
 30
0.0
  0
VERTEX
  5
B6
330
4A
100
AcDbEntity
  8
HANE
100
AcDbVertex
100
AcDb2dVertex
 10
8.147975895010969
 20
83.5228858313075
 30
0.0
  0
VERTEX
  5
B7
330
4A
100
AcDbEntity
  8
HANE
100
AcDbVertex
100
AcDb2dVertex
 10
8.109052134736357
 20
83.47699213076393
 30
0.0
  0
VERTEX
  5
B8
330
4A
100
AcDbEntity
  8
HANE
100
AcDbVertex
100
AcDb2dVertex
 10
8.070740223281826
 20
83.42618875586633
 30
0.0
  0
VERTEX
  5
B9
330
4A
100
AcDbEntity
  8
HANE
100
AcDbVertex
100
AcDb2dVertex
 10
8.032709392425714
 20
83.37028181664611
 30
0.0
  0
VERTEX
  5
BA
330
4A
100
AcDbEntity
  8
HANE
100
AcDbVertex
100
AcDb2dVertex
 10
7.994628873945404
 20
83.309077423134
 30
0.0
  0
VERTEX
  5
BB
330
4A
100
AcDbEntity
  8
HANE
100
AcDbVertex
100
AcDb2dVertex
 10
7.956167899618913
 20
83.24238168536014
 30
0.0
  0
VERTEX
  5
BC
330
4A
100
AcDbEntity
  8
HANE
100
AcDbVertex
100
AcDb2dVertex
 10
7.426543051121681
 20
82.09756869861566
 30
0.0
  0
VERTEX
  5
BD
330
4A
100
AcDbEntity
  8
HANE
100
AcDbVertex
100
AcDb2dVertex
 10
6.961713968884648
 20
80.6569875195472
 30
0.0
  0
VERTEX
  5
BE
330
4A
100
AcDbEntity
  8
HANE
100
AcDbVertex
100
AcDb2dVertex
 10
6.601350769127879
 20
78.94494302058217
 30
0.0
  0
VERTEX
  5
BF
330
4A
100
AcDbEntity
  8
HANE
100
AcDbVertex
100
AcDb2dVertex
 10
6.385123568072402
 20
76.98574007414607
 30
0.0
  0
VERTEX
  5
C0
330
4A
100
AcDbEntity
  8
HANE
100
AcDbVertex
100
AcDb2dVertex
 10
6.352702481938604
 20
74.80368355266695
 30
0.0
  0
VERTEX
  5
C1
330
4A
100
AcDbEntity
  8
HANE
100
AcDbVertex
100
AcDb2dVertex
 10
6.543757626946871
 20
72.4230783285703
 30
0.0
  0
VERTEX
  5
C2
330
4A
100
AcDbEntity
  8
HANE
100
AcDbVertex
100
AcDb2dVertex
 10
6.997959119318231
 20
69.86822927428419
 30
0.0
  0
VERTEX
  5
C3
330
4A
100
AcDbEntity
  8
HANE
100
AcDbVertex
100
AcDb2dVertex
 10
7.75497707527307
 20
67.16344126223476
 30
0.0
  0
VERTEX
  5
C4
330
4A
100
AcDbEntity
  8
HANE
100
AcDbVertex
100
AcDb2dVertex
 10
8.413203685541866
 20
65.25603684095283
 30
0.0
  0
VERTEX
  5
C5
330
4A
100
AcDbEntity
  8
HANE
100
AcDbVertex
100
AcDb2dVertex
 10
9.071288495684263
 20
63.48313955491079
 30
0.0
  0
VERTEX
  5
C6
330
4A
100
AcDbEntity
  8
HANE
100
AcDbVertex
100
AcDb2dVertex
 10
9.725537674413998
 20
61.84734852188204
 30
0.0
  0
VERTEX
  5
C7
330
4A
100
AcDbEntity
  8
HANE
100
AcDbVertex
100
AcDb2dVertex
 10
10.37225739044513
 20
60.35126285963741
 30
0.0
  0
VERTEX
  5
C8
330
4A
100
AcDbEntity
  8
HANE
100
AcDbVertex
100
AcDb2dVertex
 10
11.00775381249172
 20
58.99748168595031
 30
0.0
  0
VERTEX
  5
C9
330
4A
100
AcDbEntity
  8
HANE
100
AcDbVertex
100
AcDb2dVertex
 10
11.62833310926814
 20
57.78860411859223
 30
0.0
  0
VERTEX
  5
CA
330
4A
100
AcDbEntity
  8
HANE
100
AcDbVertex
100
AcDb2dVertex
 10
12.23030144948783
 20
56.72722927533592
 30
0.0
  0
VERTEX
  5
CB
330
4A
100
AcDbEntity
  8
HANE
100
AcDbVertex
100
AcDb2dVertex
 10
12.80996500186514
 20
55.81595627395351
 30
0.0
  0
VERTEX
  5
CC
330
4A
100
AcDbEntity
  8
HANE
100
AcDbVertex
100
AcDb2dVertex
 10
12.80996500186514
 20
55.81595627395351
 30
0.0
  0
SEQEND
  5
CD
330
4A
100
AcDbEntity
  8
HANE
  0
HATCH
  5
CE
330
1F
100
AcDbEntity
  8
HANE
 62
   152
100
AcDbHatch
 10
0.0
 20
0.0
 30
0.0
210
0.0
220
0.0
230
1.0
  2
SOLID
 70
     1
 71
     0
 91
        1
 92
        1
 93
      128
 72
     1
 10
12.80996500186514
 20
55.81595627395351
 11
13.13880466667656
 21
55.35362578064917
 72
     1
 10
13.13880466667656
 20
55.35362578064917
 11
13.45731940220682
 21
54.94285058876346
 72
     1
 10
13.45731940220682
 20
54.94285058876346
 11
13.76616779451911
 21
54.5844786051769
 72
     1
 10
13.76616779451911
 20
54.5844786051769
 11
14.06600842967699
 21
54.27935773676748
 72
     1
 10
14.06600842967699
 20
54.27935773676748
 11
14.35749989374367
 21
54.02833589041509
 72
     1
 10
14.35749989374367
 20
54.02833589041509
 11
14.641300772783
 21
53.8322609730003
 72
     1
 10
14.641300772783
 20
53.8322609730003
 11
14.91806965285853
 21
53.69198089140105
 72
     1
 10
14.91806965285853
 20
53.69198089140105
 11
15.18846512003313
 21
53.60834355249727
 72
     1
 10
15.18846512003313
 20
53.60834355249727
 11
15.42517053890117
 21
53.57766015484285
 72
     1
 10
15.42517053890117
 20
53.57766015484285
 11
15.65429497002977
 21
53.57561459499892
 72
     1
 10
15.65429497002977
 20
53.57561459499892
 11
15.87523233060898
 21
53.59926007616622
 72
     1
 10
15.87523233060898
 20
53.59926007616622
 11
16.08737653782982
 21
53.6456498015455
 72
     1
 10
16.08737653782982
 20
53.6456498015455
 11
16.29012150888205
 21
53.71183697433622
 72
     1
 10
16.29012150888205
 20
53.71183697433622
 11
16.48286116095636
 21
53.79487479773846
 72
     1
 10
16.48286116095636
 20
53.79487479773846
 11
16.66498941124313
 21
53.89181647495297
 72
     1
 10
16.66498941124313
 20
53.89181647495297
 11
16.83590017693275
 21
53.99971520917921
 72
     1
 10
16.83590017693275
 20
53.99971520917921
 11
17.09354335883631
 21
54.19461169726286
 72
     1
 10
17.09354335883631
 20
54.19461169726286
 11
17.32145853694092
 21
54.40029657048746
 72
     1
 10
17.32145853694092
 20
54.40029657048746
 11
17.51833726401453
 21
54.60559449059702
 72
     1
 10
17.51833726401453
 20
54.60559449059702
 11
17.68287109282473
 21
54.79933011933489
 72
     1
 10
17.68287109282473
 20
54.79933011933489
 11
17.81375157613945
 21
54.97032811844443
 72
     1
 10
17.81375157613945
 20
54.97032811844443
 11
17.90967026672597
 21
55.10741314966964
 72
     1
 10
17.90967026672597
 20
55.10741314966964
 11
17.96931871735288
 21
55.19940987475324
 72
     1
 10
17.96931871735288
 20
55.19940987475324
 11
17.99138848078712
 21
55.2351429554386
 72
     1
 10
17.99138848078712
 20
55.2351429554386
 11
18.64295337898623
 21
56.42971793364229
 72
     1
 10
18.64295337898623
 20
56.42971793364229
 11
19.1252829266855
 21
57.64412343217435
 72
     1
 10
19.1252829266855
 20
57.64412343217435
 11
19.46379903404323
 21
58.82338895764498
 72
     1
 10
19.46379903404323
 20
58.82338895764498
 11
19.68392361121807
 21
59.91254401666436
 72
     1
 10
19.68392361121807
 20
59.91254401666436
 11
19.81107856836896
 21
60.85661811584331
 72
     1
 10
19.81107856836896
 20
60.85661811584331
 11
19.87068581565488
 21
61.60064076179267
 72
     1
 10
19.87068581565488
 20
61.60064076179267
 11
19.88816726323379
 21
62.08964146112197
 72
     1
 10
19.88816726323379
 20
62.08964146112197
 11
19.88894482126532
 21
62.26864972044398
 72
     1
 10
19.88894482126532
 20
62.26864972044398
 11
19.88855676571966
 21
62.28441006726412
 72
     1
 10
19.88855676571966
 20
62.28441006726412
 11
19.88816871017401
 21
62.30017041408426
 72
     1
 10
19.88816871017401
 20
62.30017041408426
 11
19.88778065462835
 21
62.31593076090441
 72
     1
 10
19.88778065462835
 20
62.31593076090441
 11
19.88739259908269
 21
62.33169110772455
 72
     1
 10
19.88739259908269
 20
62.33169110772455
 11
19.88700454353704
 21
62.34745145454469
 72
     1
 10
19.88700454353704
 20
62.34745145454469
 11
19.88661648799139
 21
62.36321180136483
 72
     1
 10
19.88661648799139
 20
62.36321180136483
 11
19.88622843244573
 21
62.37897214818433
 72
     1
 10
19.88622843244573
 20
62.37897214818433
 11
19.88584037690007
 21
62.39473249500448
 72
     1
 10
19.88584037690007
 20
62.39473249500448
 11
19.87089582867023
 21
62.39946853655032
 72
     1
 10
19.87089582867023
 20
62.39946853655032
 11
19.85595128044039
 21
62.4042045780968
 72
     1
 10
19.85595128044039
 20
62.4042045780968
 11
19.84100673221054
 21
62.40894061964264
 72
     1
 10
19.84100673221054
 20
62.40894061964264
 11
19.8260621839807
 21
62.41367666118848
 72
     1
 10
19.8260621839807
 20
62.41367666118848
 11
19.81111763575085
 21
62.41841270273432
 72
     1
 10
19.81111763575085
 20
62.41841270273432
 11
19.79617308752101
 21
62.42314874428016
 72
     1
 10
19.79617308752101
 20
62.42314874428016
 11
19.78122853929117
 21
62.42788478582664
 72
     1
 10
19.78122853929117
 20
62.42788478582664
 11
19.76628399106132
 21
62.43262082737248
 72
     1
 10
19.76628399106132
 20
62.43262082737248
 11
19.76367302216097
 21
62.43350204840004
 72
     1
 10
19.76367302216097
 20
62.43350204840004
 11
19.75566207292961
 21
62.43644189121269
 72
     1
 10
19.75566207292961
 20
62.43644189121269
 11
19.74198407957196
 21
62.44188462540475
 72
     1
 10
19.74198407957196
 20
62.44188462540475
 11
19.72237197829272
 21
62.45027452057118
 72
     1
 10
19.72237197829272
 20
62.45027452057118
 11
19.69655870529693
 21
62.46205584630567
 72
     1
 10
19.69655870529693
 20
62.46205584630567
 11
19.66427719678865
 21
62.47767287220317
 72
     1
 10
19.66427719678865
 20
62.47767287220317
 11
19.62526038897324
 21
62.49756986785736
 72
     1
 10
19.62526038897324
 20
62.49756986785736
 11
19.5792412180554
 21
62.52219110286256
 72
     1
 10
19.5792412180554
 20
62.52219110286256
 11
19.40238855492405
 21
62.62793696362044
 72
     1
 10
19.40238855492405
 20
62.62793696362044
 11
19.1721450435455
 21
62.78753570085604
 72
     1
 10
19.1721450435455
 20
62.78753570085604
 11
18.8917042873539
 21
63.01027404074703
 72
     1
 10
18.8917042873539
 20
63.01027404074703
 11
18.56425988978307
 21
63.30543870947043
 72
     1
 10
18.56425988978307
 20
63.30543870947043
 11
18.19300545426746
 21
63.68231643320133
 72
     1
 10
18.19300545426746
 20
63.68231643320133
 11
17.78113458424155
 21
64.15019393811802
 72
     1
 10
17.78113458424155
 20
64.15019393811802
 11
17.33184088313881
 21
64.71835795039625
 72
     1
 10
17.33184088313881
 20
64.71835795039625
 11
16.84831795439373
 21
65.39609519621304
 72
     1
 10
16.84831795439373
 20
65.39609519621304
 11
16.70341876547791
 21
65.61216648084772
 72
     1
 10
16.70341876547791
 20
65.61216648084772
 11
16.5561041228923
 21
65.8383142561106
 72
     1
 10
16.5561041228923
 20
65.8383142561106
 11
16.40644217387362
 21
66.07473282538297
 72
     1
 10
16.40644217387362
 20
66.07473282538297
 11
16.25450106565956
 21
66.32161649204419
 72
     1
 10
16.25450106565956
 20
66.32161649204419
 11
16.1003489454875
 21
66.57915955947551
 72
     1
 10
16.1003489454875
 20
66.57915955947551
 11
15.94405396059415
 21
66.84755633105698
 72
     1
 10
15.94405396059415
 20
66.84755633105698
 11
15.78568425821784
 21
67.12700111016855
 72
     1
 10
15.78568425821784
 20
67.12700111016855
 11
15.62530798559531
 21
67.41768820019153
 72
     1
 10
15.62530798559531
 20
67.41768820019153
 11
14.73797529664446
 21
69.06676265817751
 72
     1
 10
14.73797529664446
 20
69.06676265817751
 11
13.82239420346655
 21
70.82509116443713
 72
     1
 10
13.82239420346655
 20
70.82509116443713
 11
12.90338179527166
 21
72.67338409670097
 72
     1
 10
12.90338179527166
 20
72.67338409670097
 11
12.00575516127113
 21
74.59235183270155
 72
     1
 10
12.00575516127113
 20
74.59235183270155
 11
11.15433139067504
 21
76.56270475016947
 72
     1
 10
11.15433139067504
 20
76.56270475016947
 11
10.37392757269411
 21
78.56515322683595
 72
     1
 10
10.37392757269411
 20
78.56515322683595
 11
9.689360796539038
 21
80.5804076404322
 72
     1
 10
9.689360796539038
 20
80.5804076404322
 11
9.125448151420551
 21
82.58917836868949
 72
     1
 10
9.125448151420551
 20
82.58917836868949
 11
9.121720764905437
 21
82.6118840967352
 72
     1
 10
9.121720764905437
 20
82.6118840967352
 11
9.111292392233043
 21
82.67936435163254
 72
     1
 10
9.111292392233043
 20
82.67936435163254
 11
9.092952151273016
 21
82.78213092724408
 72
     1
 10
9.092952151273016
 20
82.78213092724408
 11
9.065489159894677
 21
82.91069561743231
 72
     1
 10
9.065489159894677
 20
82.91069561743231
 11
9.02769253596735
 21
83.05557021605784
 72
     1
 10
9.02769253596735
 20
83.05557021605784
 11
8.978351397360681
 21
83.20726651698385
 72
     1
 10
8.978351397360681
 20
83.20726651698385
 11
8.916254861943992
 21
83.35629631407157
 72
     1
 10
8.916254861943992
 20
83.35629631407157
 11
8.840192047586928
 21
83.49317140118355
 72
     1
 10
8.840192047586928
 20
83.49317140118355
 11
8.819274255151816
 21
83.52223374364897
 72
     1
 10
8.819274255151816
 20
83.52223374364897
 11
8.796654861197656
 21
83.55074748912361
 72
     1
 10
8.796654861197656
 20
83.55074748912361
 11
8.77205109229412
 21
83.57829302498817
 72
     1
 10
8.77205109229412
 20
83.57829302498817
 11
8.745180175010884
 21
83.60445073862202
 72
     1
 10
8.745180175010884
 20
83.60445073862202
 11
8.715759335917621
 21
83.62880101740589
 72
     1
 10
8.715759335917621
 20
83.62880101740589
 11
8.683505801584328
 21
83.65092424872107
 72
     1
 10
8.683505801584328
 20
83.65092424872107
 11
8.648136798580357
 21
83.67040081994699
 72
     1
 10
8.648136798580357
 20
83.67040081994699
 11
8.609369553475702
 21
83.68681111846432
 72
     1
 10
8.609369553475702
 20
83.68681111846432
 11
8.567725584537063
 21
83.69921635577785
 72
     1
 10
8.567725584537063
 20
83.69921635577785
 11
8.524436336075617
 21
83.70562630027621
 72
     1
 10
8.524436336075617
 20
83.70562630027621
 11
8.480244236228117
 21
83.70630636210748
 72
     1
 10
8.480244236228117
 20
83.70630636210748
 11
8.43589171313068
 21
83.70152195142235
 72
     1
 10
8.43589171313068
 20
83.70152195142235
 11
8.39212119492038
 21
83.69153847837016
 72
     1
 10
8.39212119492038
 20
83.69153847837016
 11
8.349675109733656
 21
83.67662135309969
 72
     1
 10
8.349675109733656
 20
83.67662135309969
 11
8.309295885707582
 21
83.65703598576091
 72
     1
 10
8.309295885707582
 20
83.65703598576091
 11
8.271725950978595
 21
83.6330477865026
 72
     1
 10
8.271725950978595
 20
83.6330477865026
 11
8.228982034909949
 21
83.6007197692076
 72
     1
 10
8.228982034909949
 20
83.6007197692076
 11
8.18784227232796
 21
83.56406374746565
 72
     1
 10
8.18784227232796
 20
83.56406374746565
 11
8.147975895010969
 21
83.5228858313075
 72
     1
 10
8.147975895010969
 20
83.5228858313075
 11
8.109052134736357
 21
83.47699213076393
 72
     1
 10
8.109052134736357
 20
83.47699213076393
 11
8.070740223281826
 21
83.42618875586633
 72
     1
 10
8.070740223281826
 20
83.42618875586633
 11
8.032709392425714
 21
83.37028181664611
 72
     1
 10
8.032709392425714
 20
83.37028181664611
 11
7.994628873945404
 21
83.309077423134
 72
     1
 10
7.994628873945404
 20
83.309077423134
 11
7.956167899618913
 21
83.24238168536014
 72
     1
 10
7.956167899618913
 20
83.24238168536014
 11
7.426543051121681
 21
82.09756869861566
 72
     1
 10
7.426543051121681
 20
82.09756869861566
 11
6.961713968884648
 21
80.6569875195472
 72
     1
 10
6.961713968884648
 20
80.6569875195472
 11
6.601350769127879
 21
78.94494302058217
 72
     1
 10
6.601350769127879
 20
78.94494302058217
 11
6.385123568072402
 21
76.98574007414607
 72
     1
 10
6.385123568072402
 20
76.98574007414607
 11
6.352702481938604
 21
74.80368355266695
 72
     1
 10
6.352702481938604
 20
74.80368355266695
 11
6.543757626946871
 21
72.4230783285703
 72
     1
 10
6.543757626946871
 20
72.4230783285703
 11
6.997959119318231
 21
69.86822927428419
 72
     1
 10
6.997959119318231
 20
69.86822927428419
 11
7.75497707527307
 21
67.16344126223476
 72
     1
 10
7.75497707527307
 20
67.16344126223476
 11
8.413203685541866
 21
65.25603684095283
 72
     1
 10
8.413203685541866
 20
65.25603684095283
 11
9.071288495684263
 21
63.48313955491079
 72
     1
 10
9.071288495684263
 20
63.48313955491079
 11
9.725537674413998
 21
61.84734852188204
 72
     1
 10
9.725537674413998
 20
61.84734852188204
 11
10.37225739044513
 21
60.35126285963741
 72
     1
 10
10.37225739044513
 20
60.35126285963741
 11
11.00775381249172
 21
58.99748168595031
 72
     1
 10
11.00775381249172
 20
58.99748168595031
 11
11.62833310926814
 21
57.78860411859223
 72
     1
 10
11.62833310926814
 20
57.78860411859223
 11
12.23030144948783
 21
56.72722927533592
 72
     1
 10
12.23030144948783
 20
56.72722927533592
 11
12.80996500186514
 21
55.81595627395351
 97
        0
 75
     2
 76
     1
 98
        0
  0
ENDSEC
  0
SECTION
  2
OBJECTS
  0
DICTIONARY
  5
C
330
0
100
AcDbDictionary
  3
ACAD_GROUP
350
D
  3
ACAD_LAYOUT
350
1A
  3
ACAD_MATERIAL
350
3B
  3
ACAD_MLEADERSTYLE
350
F4
  3
ACAD_MLINESTYLE
350
17
  3
ACAD_PLOTSETTINGS
350
19
  3
ACAD_VISUALSTYLE
350
2A
  3
ACDBHEADERROUNDTRIPXREC
350
D2
  3
ACDBVARIABLEDICTIONARY
350
F2
  0
DICTIONARY
  5
D
102
{ACAD_REACTORS
330
C
102
}
330
C
100
AcDbDictionary
  0
DICTIONARY
  5
1A
102
{ACAD_REACTORS
330
C
102
}
330
C
100
AcDbDictionary
  0
DICTIONARY
  5
3B
102
{ACAD_REACTORS
330
C
102
}
330
C
100
AcDbDictionary
  3
BYBLOCK
350
3D
  3
BYLAYER
350
3C
  3
GLOBAL
350
3E
  0
DICTIONARY
  5
F4
102
{ACAD_REACTORS
330
C
102
}
330
C
100
AcDbDictionary
  0
DICTIONARY
  5
17
102
{ACAD_REACTORS
330
C
102
}
330
C
100
AcDbDictionary
  3
STANDARD
350
18
  0
DICTIONARY
  5
19
102
{ACAD_REACTORS
330
C
102
}
330
C
100
AcDbDictionary
  0
DICTIONARY
  5
2A
102
{ACAD_REACTORS
330
C
102
}
330
C
100
AcDbDictionary
  3
2DWIREFRAME
350
2F
  3
3DWIREFRAME
350
30
  3
3D_HIDDEN
350
31
  3
BASIC
350
32
  3
BRIGHTEN
350
36
  3
COLORCHANGE
350
3A
  3
CONCEPTUAL
350
34
  3
DIM
350
35
  3
FACEPATTERN
350
39
  3
FLAT
350
2B
  3
FLATWITHEDGES
350
2C
  3
GOURAUD
350
2D
  3
GOURAUDWITHEDGES
350
2E
  3
LINEPATTERN
350
38
  3
REALISTIC
350
33
  3
THICKEN
350
37
  0
DICTIONARY
  5
D2
102
{ACAD_REACTORS
330
C
102
}
330
C
100
AcDbDictionary
  3
CEPSNTYPE
350
DB
  3
DIMSTYLEDATA
350
F1
  3
FINGERPRINTGUID
350
DC
  3
HYPERLINKBASE
350
D5
  3
INSUNITS
350
DA
  3
LAYOUTDICT
350
D7
  3
LWETCUNION
350
D9
  3
PLOTSETDICT
350
D8
  3
PSVPSCALE
350
DE
  3
PUCSBASE
350
E1
  3
PUCSORGBACK
350
E7
  3
PUCSORGBOTTOM
350
E3
  3
PUCSORGFRONT
350
E6
  3
PUCSORGLEFT
350
E4
  3
PUCSORGRIGHT
350
E5
  3
PUCSORGTOP
350
E2
  3
PUCSORTHOREF
350
DF
  3
PUCSORTHOVIEW
350
E0
  3
STYLESHEET
350
D6
  3
TSTACKALIGN
350
D3
  3
TSTACKSIZE
350
D4
  3
UCSBASE
350
EA
  3
UCSORGBACK
350
F0
  3
UCSORGBOTTOM
350
EC
  3
UCSORGFRONT
350
EF
  3
UCSORGLEFT
350
ED
  3
UCSORGRIGHT
350
EE
  3
UCSORGTOP
350
EB
  3
UCSORTHOREF
350
E8
  3
UCSORTHOVIEW
350
E9
  3
VERSIONGUID
350
DD
  0
DICTIONARY
  5
F2
102
{ACAD_REACTORS
330
C
102
}
330
C
100
AcDbDictionary
  3
DIMASSOC
350
F5
  3
HIDETEXT
350
F6
  0
MATERIAL
  5
3D
102
{ACAD_REACTORS
330
3B
102
}
102
{ACAD_XDICTIONARY
360
F9
102
}
330
3B
100
AcDbMaterial
  1
ByBlock
  0
MATERIAL
  5
3C
102
{ACAD_REACTORS
330
3B
102
}
102
{ACAD_XDICTIONARY
360
F7
102
}
330
3B
100
AcDbMaterial
  1
ByLayer
  0
MATERIAL
  5
3E
102
{ACAD_REACTORS
330
3B
102
}
102
{ACAD_XDICTIONARY
360
FB
102
}
330
3B
100
AcDbMaterial
  1
Global
  0
MLINESTYLE
  5
18
102
{ACAD_REACTORS
330
17
102
}
330
17
100
AcDbMlineStyle
  2
Standard
 70
     0
  3

 62
   256
 51
90.0
 52
90.0
 71
     2
 49
0.5
 62
   256
  6
BYLAYER
 49
-0.5
 62
   256
  6
BYLAYER
  0
ACAD_PROXY_OBJECT
  5
2F
102
{ACAD_REACTORS
330
2A
102
}
330
2A
100
AcDbProxyObject
 90
      499
 91
      501
 93
      436
310
42CC9915DA5C99599C985B595049028333333333333E3BF0000000000000FB0107901411070040501600405405064090741402480A0340
1001
ACAD
1000
AcDbSavedByObjectVersion
1070
     0
  0
ACAD_PROXY_OBJECT
  5
30
102
{ACAD_REACTORS
330
2A
102
}
330
2A
100
AcDbProxyObject
 90
      499
 91
      501
 93
      436
310
42CCD915DA5C99599C985B595059028333333333333E3BF0000000000000FB0107901411070040501600405405064090741402480A0340
1001
ACAD
1000
AcDbSavedByObjectVersion
1070
     0
  0
ACAD_PROXY_OBJECT
  5
31
102
{ACAD_REACTORS
330
2A
102
}
330
2A
100
AcDbProxyObject
 90
      499
 91
      501
 93
      500
310
424CD108121A5919195B90640502408333333333333E3BF0000000000000FB01079024090700405020000000000001110200405405064090740C02480A0340
1001
ACAD
1000
AcDbSavedByObjectVersion
1070
     0
  0
ACAD_PROXY_OBJECT
  5
32
102
{ACAD_REACTORS
330
2A
102
}
330
2A
100
AcDbProxyObject
 90
      499
 91
      501
 93
      388
310
4150985CDA58D07406404333333333333E3BF0000000000000FB0107A41107004050150841D405064090741402480A0350
1001
ACAD
1000
AcDbSavedByObjectVersion
1070
     0
  0
ACAD_PROXY_OBJECT
  5
36
102
{ACAD_REACTORS
330
2A
102
}
330
2A
100
AcDbProxyObject
 90
      499
 91
      501
 93
      428
310
42109C9A59DA1D195B90C409028333333333333E3BF0000000000000FB010790141107004050150841D405064090741402480A029950
1001
ACAD
1000
AcDbSavedByObjectVersion
1070
     0
  0
ACAD_PROXY_OBJECT
  5
3A
102
{ACAD_REACTORS
330
2A
102
}
330
2A
100
AcDbProxyObject
 90
      499
 91
      501
 93
      452
310
42D0DBDB1BDC90DA185B99D95104090240C333333333333E3BF0000000000000FB0108901411070040501508421405064090741402480A0350
1001
ACAD
1000
AcDbSavedByObjectVersion
1070
     0
  0
ACAD_PROXY_OBJECT
  5
34
102
{ACAD_REACTORS
330
2A
102
}
330
2A
100
AcDbProxyObject
 90
      499
 91
      501
 93
      500
310
4290DBDB98D95C1D1D585B10940D028333333333333E3BF0000000000000FB0107902409070040501000000000000111010841D405064090740C02480A0340
1001
ACAD
1000
AcDbSavedByObjectVersion
1070
     0
  0
ACAD_PROXY_OBJECT
  5
35
102
{ACAD_REACTORS
330
2A
102
}
330
2A
100
AcDbProxyObject
 90
      499
 91
      501
 93
      412
310
40D11A5B50B409028333333333333E3BF0000000000000FB010790141107004050150841D405064090741402480A02677FFFFFD0
1001
ACAD
1000
AcDbSavedByObjectVersion
1070
     0
  0
ACAD_PROXY_OBJECT
  5
39
102
{ACAD_REACTORS
330
2A
102
}
330
2A
100
AcDbProxyObject
 90
      499
 91
      501
 93
      444
310
42D19858D95C185D1D195C9B90F409028333333333333E3BF0000000000000FB010790141107004050150841D405064090741402480A0350
1001
ACAD
1000
AcDbSavedByObjectVersion
1070
     0
  0
ACAD_PROXY_OBJECT
  5
2B
102
{ACAD_REACTORS
330
2A
102
}
330
2A
100
AcDbProxyObject
 90
      499
 91
      501
 93
      388
310
41119B185D240901404333333333333E3BF0000000000000F9010740A41107004050150841D405064090741402480A1B50
1001
ACAD
1000
AcDbSavedByObjectVersion
1070
     0
  0
ACAD_PROXY_OBJECT
  5
2C
102
{ACAD_REACTORS
330
2A
102
}
330
2A
100
AcDbProxyObject
 90
      499
 91
      501
 93
      476
310
43519B185D15DA5D1A115919D95CD0140901404333333333333E3BF0000000000000F9010740901411070040501600405405064090741402480A1B50
1001
ACAD
1000
AcDbSavedByObjectVersion
1070
     0
  0
ACAD_PROXY_OBJECT
  5
2D
102
{ACAD_REACTORS
330
2A
102
}
330
2A
100
AcDbProxyObject
 90
      499
 91
      501
 93
      412
310
41D1DBDD5C985D5910240902404333333333333E3BF0000000000000F9010740A411070040501641D405064090741402480A1B50
1001
ACAD
1000
AcDbSavedByObjectVersion
1070
     0
  0
ACAD_PROXY_OBJECT
  5
2E
102
{ACAD_REACTORS
330
2A
102
}
330
2A
100
AcDbProxyObject
 90
      499
 91
      501
 93
      500
310
4411DBDD5C985D5915DA5D1A115919D95CD0340902404333333333333E3BF0000000000000F9010740901411070040501600405405064090741402480A1B50
1001
ACAD
1000
AcDbSavedByObjectVersion
1070
     0
  0
ACAD_PROXY_OBJECT
  5
38
102
{ACAD_REACTORS
330
2A
102
}
330
2A
100
AcDbProxyObject
 90
      499
 91
      501
 93
      444
310
42D31A5B995C185D1D195C9B90E409028333333333333E3BF0000000000000FB010790141107004050750841D405064090741402483A0350
1001
ACAD
1000
AcDbSavedByObjectVersion
1070
     0
  0
ACAD_PROXY_OBJECT
  5
33
102
{ACAD_REACTORS
330
2A
102
}
330
2A
100
AcDbProxyObject
 90
      499
 91
      501
 93
      420
310
425499585B1A5CDD1A58D08409028333333333333E3BF0000000000000FB01079019070040501508421405064090741402480A1B40
1001
ACAD
1000
AcDbSavedByObjectVersion
1070
     0
  0
ACAD_PROXY_OBJECT
  5
37
102
{ACAD_REACTORS
330
2A
102
}
330
2A
100
AcDbProxyObject
 90
      499
 91
      501
 93
      412
310
41D51A1A58DAD95B90D409028333333333333E3BF0000000000000FB010790141107004050150C41D405064090741402480A0350
1001
ACAD
1000
AcDbSavedByObjectVersion
1070
     0
  0
XRECORD
  5
DB
102
{ACAD_REACTORS
330
D2
102
}
330
D2
100
AcDbXrecord
 90
        0
  0
XRECORD
  5
F1
102
{ACAD_REACTORS
330
D2
102
}
330
D2
100
AcDbXrecord
1000
DSTYLE
1002
{
1070
   340
340
11
1002
}
  0
XRECORD
  5
DC
102
{ACAD_REACTORS
330
D2
102
}
330
D2
100
AcDbXrecord
  1
{311C41D1-F285-7B96-D6A2-9D2FCCB4DFF6}
  0
XRECORD
  5
D5
102
{ACAD_REACTORS
330
D2
102
}
330
D2
100
AcDbXrecord
  1

  0
XRECORD
  5
DA
102
{ACAD_REACTORS
330
D2
102
}
330
D2
100
AcDbXrecord
 90
        4
  0
XRECORD
  5
D7
102
{ACAD_REACTORS
330
D2
102
}
330
D2
100
AcDbXrecord
340
1A
  0
XRECORD
  5
D9
102
{ACAD_REACTORS
330
D2
102
}
330
D2
100
AcDbXrecord
 90
    10269
  0
XRECORD
  5
D8
102
{ACAD_REACTORS
330
D2
102
}
330
D2
100
AcDbXrecord
340
19
  0
XRECORD
  5
DE
102
{ACAD_REACTORS
330
D2
102
}
330
D2
100
AcDbXrecord
 40
0.0
  0
XRECORD
  5
E1
102
{ACAD_REACTORS
330
D2
102
}
330
D2
100
AcDbXrecord
340
0
  0
XRECORD
  5
E7
102
{ACAD_REACTORS
330
D2
102
}
330
D2
100
AcDbXrecord
 10
0.0
 20
0.0
 30
0.0
  0
XRECORD
  5
E3
102
{ACAD_REACTORS
330
D2
102
}
330
D2
100
AcDbXrecord
 10
0.0
 20
0.0
 30
0.0
  0
XRECORD
  5
E6
102
{ACAD_REACTORS
330
D2
102
}
330
D2
100
AcDbXrecord
 10
0.0
 20
0.0
 30
0.0
  0
XRECORD
  5
E4
102
{ACAD_REACTORS
330
D2
102
}
330
D2
100
AcDbXrecord
 10
0.0
 20
0.0
 30
0.0
  0
XRECORD
  5
E5
102
{ACAD_REACTORS
330
D2
102
}
330
D2
100
AcDbXrecord
 10
0.0
 20
0.0
 30
0.0
  0
XRECORD
  5
E2
102
{ACAD_REACTORS
330
D2
102
}
330
D2
100
AcDbXrecord
 10
0.0
 20
0.0
 30
0.0
  0
XRECORD
  5
DF
102
{ACAD_REACTORS
330
D2
102
}
330
D2
100
AcDbXrecord
340
0
  0
XRECORD
  5
E0
102
{ACAD_REACTORS
330
D2
102
}
330
D2
100
AcDbXrecord
 70
     0
  0
XRECORD
  5
D6
102
{ACAD_REACTORS
330
D2
102
}
330
D2
100
AcDbXrecord
  1

  0
XRECORD
  5
D3
102
{ACAD_REACTORS
330
D2
102
}
330
D2
100
AcDbXrecord
 90
        1
  0
XRECORD
  5
D4
102
{ACAD_REACTORS
330
D2
102
}
330
D2
100
AcDbXrecord
 90
       70
  0
XRECORD
  5
EA
102
{ACAD_REACTORS
330
D2
102
}
330
D2
100
AcDbXrecord
340
0
  0
XRECORD
  5
F0
102
{ACAD_REACTORS
330
D2
102
}
330
D2
100
AcDbXrecord
 10
0.0
 20
0.0
 30
0.0
  0
XRECORD
  5
EC
102
{ACAD_REACTORS
330
D2
102
}
330
D2
100
AcDbXrecord
 10
0.0
 20
0.0
 30
0.0
  0
XRECORD
  5
EF
102
{ACAD_REACTORS
330
D2
102
}
330
D2
100
AcDbXrecord
 10
0.0
 20
0.0
 30
0.0
  0
XRECORD
  5
ED
102
{ACAD_REACTORS
330
D2
102
}
330
D2
100
AcDbXrecord
 10
0.0
 20
0.0
 30
0.0
  0
XRECORD
  5
EE
102
{ACAD_REACTORS
330
D2
102
}
330
D2
100
AcDbXrecord
 10
0.0
 20
0.0
 30
0.0
  0
XRECORD
  5
EB
102
{ACAD_REACTORS
330
D2
102
}
330
D2
100
AcDbXrecord
 10
0.0
 20
0.0
 30
0.0
  0
XRECORD
  5
E8
102
{ACAD_REACTORS
330
D2
102
}
330
D2
100
AcDbXrecord
340
0
  0
XRECORD
  5
E9
102
{ACAD_REACTORS
330
D2
102
}
330
D2
100
AcDbXrecord
 70
     0
  0
XRECORD
  5
DD
102
{ACAD_REACTORS
330
D2
102
}
330
D2
100
AcDbXrecord
  1
{FAEB1C32-E019-11D5-929B-00C0DF256EC4}
  0
DICTIONARYVAR
  5
F5
102
{ACAD_REACTORS
330
F2
102
}
330
F2
100
DictionaryVariables
280
     0
  1
2
  0
DICTIONARYVAR
  5
F6
102
{ACAD_REACTORS
330
F2
102
}
330
F2
100
DictionaryVariables
280
     0
  1
1
  0
DICTIONARY
  5
F9
330
3D
100
AcDbDictionary
280
     1
  3
ACAD_XREC_ROUNDTRIP
360
FA
  0
DICTIONARY
  5
F7
330
3C
100
AcDbDictionary
280
     1
  3
ACAD_XREC_ROUNDTRIP
360
F8
  0
DICTIONARY
  5
FB
330
3E
100
AcDbDictionary
280
     1
  3
ACAD_XREC_ROUNDTRIP
360
FC
  0
XRECORD
  5
FA
102
{ACAD_REACTORS
330
F9
102
}
330
F9
100
AcDbXrecord
102
MATERIAL
148
0.0
149
0.0
149
0.0
 93
        0
 94
      127
282
     0
 72
     1
 77
     1
171
     1
175
     1
179
     1
273
     0
  0
XRECORD
  5
F8
102
{ACAD_REACTORS
330
F7
102
}
330
F7
100
AcDbXrecord
102
MATERIAL
148
0.0
149
0.0
149
0.0
 93
        0
 94
      127
282
     0
 72
     1
 77
     1
171
     1
175
     1
179
     1
273
     0
  0
XRECORD
  5
FC
102
{ACAD_REACTORS
330
FB
102
}
330
FB
100
AcDbXrecord
102
MATERIAL
148
0.0
149
0.0
149
0.0
 93
        0
 94
      127
282
     0
 72
     1
 77
     1
171
     1
175
     1
179
     1
273
     0
  0
ENDSEC
  0
EOF
