  0
SECTION
  2
HEADER
  9
$ACADVER
  1
AC1014
  9
$ACADMAINTVER
 70
     9
  9
$DWGCODEPAGE
  3
UNDEFINED
  9
$INSBASE
 10
0.0
 20
0.0
 30
0.0
  9
$EXTMIN
 10
1.000000000000000E+20
 20
1.000000000000000E+20
 30
1.000000000000000E+20
  9
$EXTMAX
 10
-1.000000000000000E+20
 20
-1.000000000000000E+20
 30
-1.000000000000000E+20
  9
$LIMMIN
 10
0.0
 20
0.0
  9
$LIMMAX
 10
12.0
 20
9.0
  9
$ORTHOMODE
 70
     0
  9
$REGENMODE
 70
     1
  9
$FILLMODE
 70
     1
  9
$QTEXTMODE
 70
     0
  9
$MIRRTEXT
 70
     1
  9
$DRAGMODE
 70
     2
  9
$LTSCALE
 40
1.0
  9
$OSMODE
 70
    37
  9
$ATTMODE
 70
     1
  9
$TEXTSIZE
 40
0.2
  9
$TRACEWID
 40
0.05
  9
$TEXTSTYLE
  7
STANDARD
  9
$CLAYER
  8
0
  9
$CELTYPE
  6
BYLAYER
  9
$CECOLOR
 62
   256
  9
$CELTSCALE
 40
1.0
  9
$DELOBJ
 70
     1
  9
$DISPSILH
 70
     0
  9
$DIMSCALE
 40
1.0
  9
$DIMASZ
 40
0.18
  9
$DIMEXO
 40
0.0625
  9
$DIMDLI
 40
0.38
  9
$DIMRND
 40
0.0
  9
$DIMDLE
 40
0.0
  9
$DIMEXE
 40
0.18
  9
$DIMTP
 40
0.0
  9
$DIMTM
 40
0.0
  9
$DIMTXT
 40
0.18
  9
$DIMCEN
 40
0.09
  9
$DIMTSZ
 40
0.0
  9
$DIMTOL
 70
     0
  9
$DIMLIM
 70
     0
  9
$DIMTIH
 70
     1
  9
$DIMTOH
 70
     1
  9
$DIMSE1
 70
     0
  9
$DIMSE2
 70
     0
  9
$DIMTAD
 70
     0
  9
$DIMZIN
 70
     0
  9
$DIMBLK
  1

  9
$DIMASO
 70
     1
  9
$DIMSHO
 70
     1
  9
$DIMPOST
  1

  9
$DIMAPOST
  1

  9
$DIMALT
 70
     0
  9
$DIMALTD
 70
     2
  9
$DIMALTF
 40
25.4
  9
$DIMLFAC
 40
1.0
  9
$DIMTOFL
 70
     0
  9
$DIMTVP
 40
0.0
  9
$DIMTIX
 70
     0
  9
$DIMSOXD
 70
     0
  9
$DIMSAH
 70
     0
  9
$DIMBLK1
  1

  9
$DIMBLK2
  1

  9
$DIMSTYLE
  2
STANDARD
  9
$DIMCLRD
 70
     0
  9
$DIMCLRE
 70
     0
  9
$DIMCLRT
 70
     0
  9
$DIMTFAC
 40
1.0
  9
$DIMGAP
 40
0.09
  9
$DIMJUST
 70
     0
  9
$DIMSD1
 70
     0
  9
$DIMSD2
 70
     0
  9
$DIMTOLJ
 70
     1
  9
$DIMTZIN
 70
     0
  9
$DIMALTZ
 70
     0
  9
$DIMALTTZ
 70
     0
  9
$DIMFIT
 70
     3
  9
$DIMUPT
 70
     0
  9
$DIMUNIT
 70
     2
  9
$DIMDEC
 70
     4
  9
$DIMTDEC
 70
     4
  9
$DIMALTU
 70
     2
  9
$DIMALTTD
 70
     2
  9
$DIMTXSTY
  7
STANDARD
  9
$DIMAUNIT
 70
     0
  9
$LUNITS
 70
     2
  9
$LUPREC
 70
     4
  9
$SKETCHINC
 40
0.1
  9
$FILLETRAD
 40
0.5
  9
$AUNITS
 70
     0
  9
$AUPREC
 70
     0
  9
$MENU
  1
.
  9
$ELEVATION
 40
0.0
  9
$PELEVATION
 40
0.0
  9
$THICKNESS
 40
0.0
  9
$LIMCHECK
 70
     0
  9
$CHAMFERA
 40
0.5
  9
$CHAMFERB
 40
0.5
  9
$CHAMFERC
 40
1.0
  9
$CHAMFERD
 40
0.0
  9
$SKPOLY
 70
     0
  9
$TDCREATE
 40
2458968.636030081
  9
$TDUPDATE
 40
2458968.636030081
  9
$TDINDWG
 40
0.0000000116
  9
$TDUSRTIMER
 40
0.0000000116
  9
$USRTIMER
 70
     1
  9
$ANGBASE
 50
0.0
  9
$ANGDIR
 70
     0
  9
$PDMODE
 70
     0
  9
$PDSIZE
 40
0.0
  9
$PLINEWID
 40
0.0
  9
$COORDS
 70
     1
  9
$SPLFRAME
 70
     0
  9
$SPLINETYPE
 70
     6
  9
$SPLINESEGS
 70
     8
  9
$ATTDIA
 70
     0
  9
$ATTREQ
 70
     1
  9
$HANDLING
 70
     1
  9
$HANDSEED
  5
1CB
  9
$SURFTAB1
 70
     6
  9
$SURFTAB2
 70
     6
  9
$SURFTYPE
 70
     6
  9
$SURFU
 70
     6
  9
$SURFV
 70
     6
  9
$UCSNAME
  2

  9
$UCSORG
 10
0.0
 20
0.0
 30
0.0
  9
$UCSXDIR
 10
1.0
 20
0.0
 30
0.0
  9
$UCSYDIR
 10
0.0
 20
1.0
 30
0.0
  9
$PUCSNAME
  2

  9
$PUCSORG
 10
0.0
 20
0.0
 30
0.0
  9
$PUCSXDIR
 10
1.0
 20
0.0
 30
0.0
  9
$PUCSYDIR
 10
0.0
 20
1.0
 30
0.0
  9
$USERI1
 70
     0
  9
$USERI2
 70
     0
  9
$USERI3
 70
     0
  9
$USERI4
 70
     0
  9
$USERI5
 70
     0
  9
$USERR1
 40
0.0
  9
$USERR2
 40
0.0
  9
$USERR3
 40
0.0
  9
$USERR4
 40
0.0
  9
$USERR5
 40
0.0
  9
$WORLDVIEW
 70
     1
  9
$SHADEDGE
 70
     3
  9
$SHADEDIF
 70
    70
  9
$TILEMODE
 70
     1
  9
$MAXACTVP
 70
    64
  9
$PINSBASE
 10
0.0
 20
0.0
 30
0.0
  9
$PLIMCHECK
 70
     0
  9
$PEXTMIN
 10
1.000000000000000E+20
 20
1.000000000000000E+20
 30
1.000000000000000E+20
  9
$PEXTMAX
 10
-1.000000000000000E+20
 20
-1.000000000000000E+20
 30
-1.000000000000000E+20
  9
$PLIMMIN
 10
0.0
 20
0.0
  9
$PLIMMAX
 10
12.0
 20
9.0
  9
$UNITMODE
 70
     0
  9
$VISRETAIN
 70
     1
  9
$PLINEGEN
 70
     0
  9
$PSLTSCALE
 70
     1
  9
$TREEDEPTH
 70
  3020
  9
$PICKSTYLE
 70
     1
  9
$CMLSTYLE
  2
STANDARD
  9
$CMLJUST
 70
     0
  9
$CMLSCALE
 40
1.0
  9
$PROXYGRAPHICS
 70
     1
  9
$MEASUREMENT
 70
     0
  0
ENDSEC
  0
SECTION
  2
CLASSES
  0
CLASS
  1
ACDBDICTIONARYWDFLT
  2
AcDbDictionaryWithDefault
  3
ObjectDBX Classes
 90
        0
280
     0
281
     0
  0
CLASS
  1
VISUALSTYLE
  2
AcDbVisualStyle
  3
ObjectDBX Classes
 90
     4095
280
     0
281
     0
  0
CLASS
  1
MATERIAL
  2
AcDbMaterial
  3
ObjectDBX Classes
 90
     1153
280
     0
281
     0
  0
CLASS
  1
SUN
  2
AcDbSun
  3
SCENEOE
 90
     1024
280
     0
281
     0
  0
CLASS
  1
DICTIONARYVAR
  2
AcDbDictionaryVar
  3
ObjectDBX Classes
 90
        0
280
     0
281
     0
  0
CLASS
  1
XRECORD
  2
AcDbXrecord
  3
AutoCAD 2000
 90
        0
280
     0
281
     0
  0
CLASS
  1
LWPOLYLINE
  2
AcDbPolyline
  3
AutoCAD 2000
 90
        0
280
     0
281
     1
  0
CLASS
  1
HATCH
  2
AcDbHatch
  3
AutoCAD 2000
 90
        0
280
     0
281
     1
  0
CLASS
  1
ACDBPLACEHOLDER
  2
AcDbPlaceHolder
  3
ObjectDBX Classes
 90
        0
280
     0
281
     0
  0
CLASS
  1
LAYOUT
  2
AcDbLayout
  3
ObjectDBX Classes
 90
        0
280
     0
281
     0
  0
ENDSEC
  0
SECTION
  2
TABLES
  0
TABLE
  2
VPORT
  5
8
330
0
100
AcDbSymbolTable
 70
     1
  0
VPORT
  5
29
330
8
100
AcDbSymbolTableRecord
100
AcDbViewportTableRecord
  2
*ACTIVE
 70
     0
 10
0.0
 20
0.0
 11
1.0
 21
1.0
 12
0.0
 22
0.0
 13
0.0
 23
0.0
 14
0.5
 24
0.5
 15
0.5
 25
0.5
 16
0.0
 26
0.0
 36
1.0
 17
104.9999989878935
 27
148.4996183011652
 37
0.0
 40
297.0000052006764
 41
0.7070706878738762
 42
50.0
 43
0.0
 44
0.0
 50
0.0
 51
0.0
 71
     0
 72
   100
 73
     1
 74
     3
 75
     0
 76
     0
 77
     0
 78
     0
  0
ENDTAB
  0
TABLE
  2
LTYPE
  5
5
330
0
100
AcDbSymbolTable
 70
     1
  0
LTYPE
  5
14
330
5
100
AcDbSymbolTableRecord
100
AcDbLinetypeTableRecord
  2
BYBLOCK
 70
     0
  3

 72
    65
 73
     0
 40
0.0
  0
LTYPE
  5
15
330
5
100
AcDbSymbolTableRecord
100
AcDbLinetypeTableRecord
  2
BYLAYER
 70
     0
  3

 72
    65
 73
     0
 40
0.0
  0
LTYPE
  5
16
330
5
100
AcDbSymbolTableRecord
100
AcDbLinetypeTableRecord
  2
CONTINUOUS
 70
     0
  3
Solid line
 72
    65
 73
     0
 40
0.0
  0
ENDTAB
  0
TABLE
  2
LAYER
  5
2
330
0
100
AcDbSymbolTable
 70
    12
  0
LAYER
  5
10
330
2
100
AcDbSymbolTableRecord
100
AcDbLayerTableRecord
  2
0
 70
     0
 62
     7
  6
CONTINUOUS
  0
LAYER
  5
40
330
2
100
AcDbSymbolTableRecord
100
AcDbLayerTableRecord
  2
OUTLINE
 70
     5
 62
     7
  6
CONTINUOUS
  0
LAYER
  5
41
330
2
100
AcDbSymbolTableRecord
100
AcDbLayerTableRecord
  2
OUTLINE_U_306E_U_30B3_U_30
 70
     4
 62
     7
  6
CONTINUOUS
  0
LAYER
  5
42
330
2
100
AcDbSymbolTableRecord
100
AcDbLayerTableRecord
  2
L2-SILK
 70
     5
 62
     7
  6
CONTINUOUS
  0
LAYER
  5
43
330
2
100
AcDbSymbolTableRecord
100
AcDbLayerTableRecord
  2
L2-PATTERN
 70
     5
 62
     7
  6
CONTINUOUS
  0
LAYER
  5
44
330
2
100
AcDbSymbolTableRecord
100
AcDbLayerTableRecord
  2
L2-RESIST
 70
     5
 62
     7
  6
CONTINUOUS
  0
LAYER
  5
45
330
2
100
AcDbSymbolTableRecord
100
AcDbLayerTableRecord
  2
L1-PATTERN
 70
     5
 62
     7
  6
CONTINUOUS
  0
LAYER
  5
46
330
2
100
AcDbSymbolTableRecord
100
AcDbLayerTableRecord
  2
L1-RESIST
 70
     5
 62
     7
  6
CONTINUOUS
  0
LAYER
  5
47
330
2
100
AcDbSymbolTableRecord
100
AcDbLayerTableRecord
  2
L1-SILK
 70
     5
 62
     7
  6
CONTINUOUS
  0
LAYER
  5
48
330
2
100
AcDbSymbolTableRecord
100
AcDbLayerTableRecord
  2
DRILL
 70
     5
 62
     7
  6
CONTINUOUS
  0
LAYER
  5
49
330
2
100
AcDbSymbolTableRecord
100
AcDbLayerTableRecord
  2
HANE
 70
     0
 62
     7
  6
CONTINUOUS
  0
LAYER
  5
4A
330
2
100
AcDbSymbolTableRecord
100
AcDbLayerTableRecord
  2
L2-RESIST_U_306E_U_30B3_U_
 70
     0
 62
     7
  6
CONTINUOUS
  0
ENDTAB
  0
TABLE
  2
STYLE
  5
3
330
0
100
AcDbSymbolTable
 70
     1
  0
STYLE
  5
11
330
3
100
AcDbSymbolTableRecord
100
AcDbTextStyleTableRecord
  2
STANDARD
 70
     0
 40
0.0
 41
1.0
 50
0.0
 71
     0
 42
0.2
  3
txt
  4

  0
ENDTAB
  0
TABLE
  2
VIEW
  5
6
330
0
100
AcDbSymbolTable
 70
     0
  0
ENDTAB
  0
TABLE
  2
UCS
  5
7
330
0
100
AcDbSymbolTable
 70
     0
  0
ENDTAB
  0
TABLE
  2
APPID
  5
9
330
0
100
AcDbSymbolTable
 70
     1
  0
APPID
  5
12
330
9
100
AcDbSymbolTableRecord
100
AcDbRegAppTableRecord
  2
ACAD
 70
     0
  0
ENDTAB
  0
TABLE
  2
DIMSTYLE
  5
A
330
0
100
AcDbSymbolTable
 70
     1
  0
DIMSTYLE
105
27
330
A
100
AcDbSymbolTableRecord
100
AcDbDimStyleTableRecord
  2
STANDARD
 70
     0
  3

  4

  5

  6

  7

 40
1.0
 41
0.18
 42
0.0625
 43
0.38
 44
0.18
 45
0.0
 46
0.0
 47
0.0
 48
0.0
140
0.18
141
0.09
142
0.0
143
25.4
144
1.0
145
0.0
146
1.0
147
0.09
 71
     0
 72
     0
 73
     1
 74
     1
 75
     0
 76
     0
 77
     0
 78
     0
170
     0
171
     2
172
     0
173
     0
174
     0
175
     0
176
     0
177
     0
178
     0
270
     2
271
     4
272
     4
273
     2
274
     2
340
11
275
     0
280
     0
281
     0
282
     0
283
     1
284
     0
285
     0
286
     0
287
     3
288
     0
  0
ENDTAB
  0
TABLE
  2
BLOCK_RECORD
  5
1
330
0
100
AcDbSymbolTable
 70
     1
  0
BLOCK_RECORD
  5
1F
330
1
100
AcDbSymbolTableRecord
100
AcDbBlockTableRecord
  2
*MODEL_SPACE
  0
BLOCK_RECORD
  5
1B
330
1
100
AcDbSymbolTableRecord
100
AcDbBlockTableRecord
  2
*PAPER_SPACE
  0
ENDTAB
  0
ENDSEC
  0
SECTION
  2
BLOCKS
  0
BLOCK
  5
20
330
1F
100
AcDbEntity
  8
0
100
AcDbBlockBegin
  2
*MODEL_SPACE
 70
     0
 10
0.0
 20
0.0
 30
0.0
  3
*MODEL_SPACE
  1

  0
ENDBLK
  5
21
330
1F
100
AcDbEntity
  8
0
100
AcDbBlockEnd
  0
BLOCK
  5
1C
330
1B
100
AcDbEntity
 67
     1
  8
0
100
AcDbBlockBegin
  2
*PAPER_SPACE
 70
     0
 10
0.0
 20
0.0
 30
0.0
  3
*PAPER_SPACE
  1

  0
ENDBLK
  5
1D
330
1B
100
AcDbEntity
 67
     1
  8
0
100
AcDbBlockEnd
  0
ENDSEC
  0
SECTION
  2
ENTITIES
  0
POLYLINE
  5
4B
330
1F
100
AcDbEntity
  8
L2-RESIST_U_306E_U_30B3_U_
100
AcDb2dPolyline
 66
     1
 10
0.0
 20
0.0
 30
0.0
  0
VERTEX
  5
4C
330
4B
100
AcDbEntity
  8
L2-RESIST_U_306E_U_30B3_U_
100
AcDbVertex
100
AcDb2dVertex
 10
30.91702481769333
 20
55.70211488797024
 30
0.0
  0
VERTEX
  5
4D
330
4B
100
AcDbEntity
  8
L2-RESIST_U_306E_U_30B3_U_
100
AcDbVertex
100
AcDb2dVertex
 10
30.90557777694471
 20
55.78919918262361
 30
0.0
  0
VERTEX
  5
4E
330
4B
100
AcDbEntity
  8
L2-RESIST_U_306E_U_30B3_U_
100
AcDbVertex
100
AcDb2dVertex
 10
30.89343516788913
 20
55.87655467518658
 30
0.0
  0
VERTEX
  5
4F
330
4B
100
AcDbEntity
  8
L2-RESIST_U_306E_U_30B3_U_
100
AcDbVertex
100
AcDb2dVertex
 10
30.88059947102737
 20
55.96416152191011
 30
0.0
  0
VERTEX
  5
50
330
4B
100
AcDbEntity
  8
L2-RESIST_U_306E_U_30B3_U_
100
AcDbVertex
100
AcDb2dVertex
 10
30.86707316686184
 20
56.05199987904393
 30
0.0
  0
VERTEX
  5
51
330
4B
100
AcDbEntity
  8
L2-RESIST_U_306E_U_30B3_U_
100
AcDbVertex
100
AcDb2dVertex
 10
30.85285873589364
 20
56.14004990283901
 30
0.0
  0
VERTEX
  5
52
330
4B
100
AcDbEntity
  8
L2-RESIST_U_306E_U_30B3_U_
100
AcDbVertex
100
AcDb2dVertex
 10
30.83795865862453
 20
56.22829174954635
 30
0.0
  0
VERTEX
  5
53
330
4B
100
AcDbEntity
  8
L2-RESIST_U_306E_U_30B3_U_
100
AcDbVertex
100
AcDb2dVertex
 10
30.82237541555595
 20
56.31670557541565
 30
0.0
  0
VERTEX
  5
54
330
4B
100
AcDbEntity
  8
L2-RESIST_U_306E_U_30B3_U_
100
AcDbVertex
100
AcDb2dVertex
 10
30.80611148718964
 20
56.40527153669724
 30
0.0
  0
VERTEX
  5
55
330
4B
100
AcDbEntity
  8
L2-RESIST_U_306E_U_30B3_U_
100
AcDbVertex
100
AcDb2dVertex
 10
30.80498618560365
 20
56.41117319181962
 30
0.0
  0
VERTEX
  5
56
330
4B
100
AcDbEntity
  8
L2-RESIST_U_306E_U_30B3_U_
100
AcDbVertex
100
AcDb2dVertex
 10
30.80382949099564
 20
56.41687186192136
 30
0.0
  0
VERTEX
  5
57
330
4B
100
AcDbEntity
  8
L2-RESIST_U_306E_U_30B3_U_
100
AcDbVertex
100
AcDb2dVertex
 10
30.80267615617557
 20
56.42237622864311
 30
0.0
  0
VERTEX
  5
58
330
4B
100
AcDbEntity
  8
L2-RESIST_U_306E_U_30B3_U_
100
AcDbVertex
100
AcDb2dVertex
 10
30.80156093395372
 20
56.42769497362485
 30
0.0
  0
VERTEX
  5
59
330
4B
100
AcDbEntity
  8
L2-RESIST_U_306E_U_30B3_U_
100
AcDbVertex
100
AcDb2dVertex
 10
30.80051857713971
 20
56.43283677850658
 30
0.0
  0
VERTEX
  5
5A
330
4B
100
AcDbEntity
  8
L2-RESIST_U_306E_U_30B3_U_
100
AcDbVertex
100
AcDb2dVertex
 10
30.79958383854284
 20
56.43781032492957
 30
0.0
  0
VERTEX
  5
5B
330
4B
100
AcDbEntity
  8
L2-RESIST_U_306E_U_30B3_U_
100
AcDbVertex
100
AcDb2dVertex
 10
30.79879147097373
 20
56.44262429453318
 30
0.0
  0
VERTEX
  5
5C
330
4B
100
AcDbEntity
  8
L2-RESIST_U_306E_U_30B3_U_
100
AcDbVertex
100
AcDb2dVertex
 10
30.798176227242
 20
56.44728736895802
 30
0.0
  0
VERTEX
  5
5D
330
4B
100
AcDbEntity
  8
L2-RESIST_U_306E_U_30B3_U_
100
AcDbVertex
100
AcDb2dVertex
 10
30.74115635669211
 20
56.72482439204264
 30
0.0
  0
VERTEX
  5
5E
330
4B
100
AcDbEntity
  8
L2-RESIST_U_306E_U_30B3_U_
100
AcDbVertex
100
AcDb2dVertex
 10
30.67718239321467
 20
57.0040820335735
 30
0.0
  0
VERTEX
  5
5F
330
4B
100
AcDbEntity
  8
L2-RESIST_U_306E_U_30B3_U_
100
AcDbVertex
100
AcDb2dVertex
 10
30.60622529333404
 20
57.28521325578503
 30
0.0
  0
VERTEX
  5
60
330
4B
100
AcDbEntity
  8
L2-RESIST_U_306E_U_30B3_U_
100
AcDbVertex
100
AcDb2dVertex
 10
30.52825601357556
 20
57.56837102091364
 30
0.0
  0
VERTEX
  5
61
330
4B
100
AcDbEntity
  8
L2-RESIST_U_306E_U_30B3_U_
100
AcDbVertex
100
AcDb2dVertex
 10
30.4432455104639
 20
57.85370829119505
 30
0.0
  0
VERTEX
  5
62
330
4B
100
AcDbEntity
  8
L2-RESIST_U_306E_U_30B3_U_
100
AcDbVertex
100
AcDb2dVertex
 10
30.35116474052441
 20
58.14137802886501
 30
0.0
  0
VERTEX
  5
63
330
4B
100
AcDbEntity
  8
L2-RESIST_U_306E_U_30B3_U_
100
AcDbVertex
100
AcDb2dVertex
 10
30.25198466028176
 20
58.43153319615927
 30
0.0
  0
VERTEX
  5
64
330
4B
100
AcDbEntity
  8
L2-RESIST_U_306E_U_30B3_U_
100
AcDbVertex
100
AcDb2dVertex
 10
30.14567622626097
 20
58.72432675531292
 30
0.0
  0
VERTEX
  5
65
330
4B
100
AcDbEntity
  8
L2-RESIST_U_306E_U_30B3_U_
100
AcDbVertex
100
AcDb2dVertex
 10
30.14513824016358
 20
58.72568054000028
 30
0.0
  0
VERTEX
  5
66
330
4B
100
AcDbEntity
  8
L2-RESIST_U_306E_U_30B3_U_
100
AcDbVertex
100
AcDb2dVertex
 10
30.14460025406619
 20
58.72703432468764
 30
0.0
  0
VERTEX
  5
67
330
4B
100
AcDbEntity
  8
L2-RESIST_U_306E_U_30B3_U_
100
AcDbVertex
100
AcDb2dVertex
 10
30.14406226796881
 20
58.72838810937501
 30
0.0
  0
VERTEX
  5
68
330
4B
100
AcDbEntity
  8
L2-RESIST_U_306E_U_30B3_U_
100
AcDbVertex
100
AcDb2dVertex
 10
30.14352428187142
 20
58.72974189406237
 30
0.0
  0
VERTEX
  5
69
330
4B
100
AcDbEntity
  8
L2-RESIST_U_306E_U_30B3_U_
100
AcDbVertex
100
AcDb2dVertex
 10
30.14298629577404
 20
58.73109567874974
 30
0.0
  0
VERTEX
  5
6A
330
4B
100
AcDbEntity
  8
L2-RESIST_U_306E_U_30B3_U_
100
AcDbVertex
100
AcDb2dVertex
 10
30.14244830967665
 20
58.7324494634371
 30
0.0
  0
VERTEX
  5
6B
330
4B
100
AcDbEntity
  8
L2-RESIST_U_306E_U_30B3_U_
100
AcDbVertex
100
AcDb2dVertex
 10
30.14191032357926
 20
58.73380324812447
 30
0.0
  0
VERTEX
  5
6C
330
4B
100
AcDbEntity
  8
L2-RESIST_U_306E_U_30B3_U_
100
AcDbVertex
100
AcDb2dVertex
 10
30.14137233748188
 20
58.73515703281247
 30
0.0
  0
VERTEX
  5
6D
330
4B
100
AcDbEntity
  8
L2-RESIST_U_306E_U_30B3_U_
100
AcDbVertex
100
AcDb2dVertex
 10
30.05768566481209
 20
58.93380419625598
 30
0.0
  0
VERTEX
  5
6E
330
4B
100
AcDbEntity
  8
L2-RESIST_U_306E_U_30B3_U_
100
AcDbVertex
100
AcDb2dVertex
 10
29.97022826632741
 20
59.13286931867321
 30
0.0
  0
VERTEX
  5
6F
330
4B
100
AcDbEntity
  8
L2-RESIST_U_306E_U_30B3_U_
100
AcDbVertex
100
AcDb2dVertex
 10
29.87889720257668
 20
59.33235033300717
 30
0.0
  0
VERTEX
  5
70
330
4B
100
AcDbEntity
  8
L2-RESIST_U_306E_U_30B3_U_
100
AcDbVertex
100
AcDb2dVertex
 10
29.78358953410968
 20
59.5322451721996
 30
0.0
  0
VERTEX
  5
71
330
4B
100
AcDbEntity
  8
L2-RESIST_U_306E_U_30B3_U_
100
AcDbVertex
100
AcDb2dVertex
 10
29.6842023214762
 20
59.73255176919414
 30
0.0
  0
VERTEX
  5
72
330
4B
100
AcDbEntity
  8
L2-RESIST_U_306E_U_30B3_U_
100
AcDbVertex
100
AcDb2dVertex
 10
29.58063262522508
 20
59.93326805693317
 30
0.0
  0
VERTEX
  5
73
330
4B
100
AcDbEntity
  8
L2-RESIST_U_306E_U_30B3_U_
100
AcDbVertex
100
AcDb2dVertex
 10
29.47277750590643
 20
60.13439196836033
 30
0.0
  0
VERTEX
  5
74
330
4B
100
AcDbEntity
  8
L2-RESIST_U_306E_U_30B3_U_
100
AcDbVertex
100
AcDb2dVertex
 10
29.36053402406939
 20
60.33592143641801
 30
0.0
  0
VERTEX
  5
75
330
4B
100
AcDbEntity
  8
L2-RESIST_U_306E_U_30B3_U_
100
AcDbVertex
100
AcDb2dVertex
 10
29.35381229843787
 20
60.34549999280742
 30
0.0
  0
VERTEX
  5
76
330
4B
100
AcDbEntity
  8
L2-RESIST_U_306E_U_30B3_U_
100
AcDbVertex
100
AcDb2dVertex
 10
29.34569365552427
 20
60.35348049530691
 30
0.0
  0
VERTEX
  5
77
330
4B
100
AcDbEntity
  8
L2-RESIST_U_306E_U_30B3_U_
100
AcDbVertex
100
AcDb2dVertex
 10
29.33642820925465
 20
60.3597704856107
 30
0.0
  0
VERTEX
  5
78
330
4B
100
AcDbEntity
  8
L2-RESIST_U_306E_U_30B3_U_
100
AcDbVertex
100
AcDb2dVertex
 10
29.32626607355475
 20
60.36427750541364
 30
0.0
  0
VERTEX
  5
79
330
4B
100
AcDbEntity
  8
L2-RESIST_U_306E_U_30B3_U_
100
AcDbVertex
100
AcDb2dVertex
 10
29.31545736235031
 20
60.36690909641121
 30
0.0
  0
VERTEX
  5
7A
330
4B
100
AcDbEntity
  8
L2-RESIST_U_306E_U_30B3_U_
100
AcDbVertex
100
AcDb2dVertex
 10
29.30425218956772
 20
60.36757280029699
 30
0.0
  0
VERTEX
  5
7B
330
4B
100
AcDbEntity
  8
L2-RESIST_U_306E_U_30B3_U_
100
AcDbVertex
100
AcDb2dVertex
 10
29.29290066913239
 20
60.3661761587671
 30
0.0
  0
VERTEX
  5
7C
330
4B
100
AcDbEntity
  8
L2-RESIST_U_306E_U_30B3_U_
100
AcDbVertex
100
AcDb2dVertex
 10
29.2816529149707
 20
60.36262671351512
 30
0.0
  0
VERTEX
  5
7D
330
4B
100
AcDbEntity
  8
L2-RESIST_U_306E_U_30B3_U_
100
AcDbVertex
100
AcDb2dVertex
 10
29.27114957702245
 20
60.35736033398307
 30
0.0
  0
VERTEX
  5
7E
330
4B
100
AcDbEntity
  8
L2-RESIST_U_306E_U_30B3_U_
100
AcDbVertex
100
AcDb2dVertex
 10
29.26207870974096
 20
60.35039359316649
 30
0.0
  0
VERTEX
  5
7F
330
4B
100
AcDbEntity
  8
L2-RESIST_U_306E_U_30B3_U_
100
AcDbVertex
100
AcDb2dVertex
 10
29.2545630963261
 20
60.3419972755642
 30
0.0
  0
VERTEX
  5
80
330
4B
100
AcDbEntity
  8
L2-RESIST_U_306E_U_30B3_U_
100
AcDbVertex
100
AcDb2dVertex
 10
29.24872551997742
 20
60.33244216567376
 30
0.0
  0
VERTEX
  5
81
330
4B
100
AcDbEntity
  8
L2-RESIST_U_306E_U_30B3_U_
100
AcDbVertex
100
AcDb2dVertex
 10
29.24468876389541
 20
60.32199904799335
 30
0.0
  0
VERTEX
  5
82
330
4B
100
AcDbEntity
  8
L2-RESIST_U_306E_U_30B3_U_
100
AcDbVertex
100
AcDb2dVertex
 10
29.24257561128027
 20
60.31093870702117
 30
0.0
  0
VERTEX
  5
83
330
4B
100
AcDbEntity
  8
L2-RESIST_U_306E_U_30B3_U_
100
AcDbVertex
100
AcDb2dVertex
 10
29.24250884533153
 20
60.29953192725605
 30
0.0
  0
VERTEX
  5
84
330
4B
100
AcDbEntity
  8
L2-RESIST_U_306E_U_30B3_U_
100
AcDbVertex
100
AcDb2dVertex
 10
29.24461124924905
 20
60.28804949319552
 30
0.0
  0
VERTEX
  5
85
330
4B
100
AcDbEntity
  8
L2-RESIST_U_306E_U_30B3_U_
100
AcDbVertex
100
AcDb2dVertex
 10
29.26936165761122
 20
60.20501669963185
 30
0.0
  0
VERTEX
  5
86
330
4B
100
AcDbEntity
  8
L2-RESIST_U_306E_U_30B3_U_
100
AcDbVertex
100
AcDb2dVertex
 10
29.31885815238986
 20
60.03115947804718
 30
0.0
  0
VERTEX
  5
87
330
4B
100
AcDbEntity
  8
L2-RESIST_U_306E_U_30B3_U_
100
AcDbVertex
100
AcDb2dVertex
 10
29.38446673879395
 20
59.77258019482218
 30
0.0
  0
VERTEX
  5
88
330
4B
100
AcDbEntity
  8
L2-RESIST_U_306E_U_30B3_U_
100
AcDbVertex
100
AcDb2dVertex
 10
29.45755342203341
 20
59.43538121633747
 30
0.0
  0
VERTEX
  5
89
330
4B
100
AcDbEntity
  8
L2-RESIST_U_306E_U_30B3_U_
100
AcDbVertex
100
AcDb2dVertex
 10
29.52948420731722
 20
59.02566490897371
 30
0.0
  0
VERTEX
  5
8A
330
4B
100
AcDbEntity
  8
L2-RESIST_U_306E_U_30B3_U_
100
AcDbVertex
100
AcDb2dVertex
 10
29.59162509985434
 20
58.5495336391109
 30
0.0
  0
VERTEX
  5
8B
330
4B
100
AcDbEntity
  8
L2-RESIST_U_306E_U_30B3_U_
100
AcDbVertex
100
AcDb2dVertex
 10
29.63534210485505
 20
58.01308977313096
 30
0.0
  0
VERTEX
  5
8C
330
4B
100
AcDbEntity
  8
L2-RESIST_U_306E_U_30B3_U_
100
AcDbVertex
100
AcDb2dVertex
 10
29.65200122752829
 20
57.42243567741325
 30
0.0
  0
VERTEX
  5
8D
330
4B
100
AcDbEntity
  8
L2-RESIST_U_306E_U_30B3_U_
100
AcDbVertex
100
AcDb2dVertex
 10
29.62417783842229
 20
56.66064832014428
 30
0.0
  0
VERTEX
  5
8E
330
4B
100
AcDbEntity
  8
L2-RESIST_U_306E_U_30B3_U_
100
AcDbVertex
100
AcDb2dVertex
 10
29.53150815121329
 20
55.84273441689867
 30
0.0
  0
VERTEX
  5
8F
330
4B
100
AcDbEntity
  8
L2-RESIST_U_306E_U_30B3_U_
100
AcDbVertex
100
AcDb2dVertex
 10
29.35943633632737
 20
54.9790811174716
 30
0.0
  0
VERTEX
  5
90
330
4B
100
AcDbEntity
  8
L2-RESIST_U_306E_U_30B3_U_
100
AcDbVertex
100
AcDb2dVertex
 10
29.09340656419064
 20
54.08007557165764
 30
0.0
  0
VERTEX
  5
91
330
4B
100
AcDbEntity
  8
L2-RESIST_U_306E_U_30B3_U_
100
AcDbVertex
100
AcDb2dVertex
 10
28.71886300522856
 20
53.15610492925196
 30
0.0
  0
VERTEX
  5
92
330
4B
100
AcDbEntity
  8
L2-RESIST_U_306E_U_30B3_U_
100
AcDbVertex
100
AcDb2dVertex
 10
28.22124982986756
 20
52.21755634004978
 30
0.0
  0
VERTEX
  5
93
330
4B
100
AcDbEntity
  8
L2-RESIST_U_306E_U_30B3_U_
100
AcDbVertex
100
AcDb2dVertex
 10
27.58601120853341
 20
51.27481695384499
 30
0.0
  0
VERTEX
  5
94
330
4B
100
AcDbEntity
  8
L2-RESIST_U_306E_U_30B3_U_
100
AcDbVertex
100
AcDb2dVertex
 10
26.79859131165222
 20
50.33827392043408
 30
0.0
  0
VERTEX
  5
95
330
4B
100
AcDbEntity
  8
L2-RESIST_U_306E_U_30B3_U_
100
AcDbVertex
100
AcDb2dVertex
 10
26.76921119358644
 20
50.30433031447767
 30
0.0
  0
VERTEX
  5
96
330
4B
100
AcDbEntity
  8
L2-RESIST_U_306E_U_30B3_U_
100
AcDbVertex
100
AcDb2dVertex
 10
26.68785822853971
 20
50.2185311765416
 30
0.0
  0
VERTEX
  5
97
330
4B
100
AcDbEntity
  8
L2-RESIST_U_306E_U_30B3_U_
100
AcDbVertex
100
AcDb2dVertex
 10
26.56066537533933
 20
50.09833151912282
 30
0.0
  0
VERTEX
  5
98
330
4B
100
AcDbEntity
  8
L2-RESIST_U_306E_U_30B3_U_
100
AcDbVertex
100
AcDb2dVertex
 10
26.39376559281352
 20
49.9611863547189
 30
0.0
  0
VERTEX
  5
99
330
4B
100
AcDbEntity
  8
L2-RESIST_U_306E_U_30B3_U_
100
AcDbVertex
100
AcDb2dVertex
 10
26.1932918397902
 20
49.82455069582615
 30
0.0
  0
VERTEX
  5
9A
330
4B
100
AcDbEntity
  8
L2-RESIST_U_306E_U_30B3_U_
100
AcDbVertex
100
AcDb2dVertex
 10
25.96537707509666
 20
49.70587955494023
 30
0.0
  0
VERTEX
  5
9B
330
4B
100
AcDbEntity
  8
L2-RESIST_U_306E_U_30B3_U_
100
AcDbVertex
100
AcDb2dVertex
 10
25.71615425756178
 20
49.62262794455935
 30
0.0
  0
VERTEX
  5
9C
330
4B
100
AcDbEntity
  8
L2-RESIST_U_306E_U_30B3_U_
100
AcDbVertex
100
AcDb2dVertex
 10
25.45175634601284
 20
49.59225087717855
 30
0.0
  0
VERTEX
  5
9D
330
4B
100
AcDbEntity
  8
L2-RESIST_U_306E_U_30B3_U_
100
AcDbVertex
100
AcDb2dVertex
 10
25.22904277964609
 20
49.61610023909171
 30
0.0
  0
VERTEX
  5
9E
330
4B
100
AcDbEntity
  8
L2-RESIST_U_306E_U_30B3_U_
100
AcDbVertex
100
AcDb2dVertex
 10
24.9990035624248
 20
49.69529671222352
 30
0.0
  0
VERTEX
  5
9F
330
4B
100
AcDbEntity
  8
L2-RESIST_U_306E_U_30B3_U_
100
AcDbVertex
100
AcDb2dVertex
 10
24.76493937134762
 20
49.84051912768106
 30
0.0
  0
VERTEX
  5
A0
330
4B
100
AcDbEntity
  8
L2-RESIST_U_306E_U_30B3_U_
100
AcDbVertex
100
AcDb2dVertex
 10
24.53015088341384
 20
50.06244631657207
 30
0.0
  0
VERTEX
  5
A1
330
4B
100
AcDbEntity
  8
L2-RESIST_U_306E_U_30B3_U_
100
AcDbVertex
100
AcDb2dVertex
 10
24.29793877562275
 20
50.3717571100043
 30
0.0
  0
VERTEX
  5
A2
330
4B
100
AcDbEntity
  8
L2-RESIST_U_306E_U_30B3_U_
100
AcDbVertex
100
AcDb2dVertex
 10
24.07160372497363
 20
50.77913033908611
 30
0.0
  0
VERTEX
  5
A3
330
4B
100
AcDbEntity
  8
L2-RESIST_U_306E_U_30B3_U_
100
AcDbVertex
100
AcDb2dVertex
 10
23.85444640846512
 20
51.29524483492526
 30
0.0
  0
VERTEX
  5
A4
330
4B
100
AcDbEntity
  8
L2-RESIST_U_306E_U_30B3_U_
100
AcDbVertex
100
AcDb2dVertex
 10
23.64976750309652
 20
51.93077942862882
 30
0.0
  0
VERTEX
  5
A5
330
4B
100
AcDbEntity
  8
L2-RESIST_U_306E_U_30B3_U_
100
AcDbVertex
100
AcDb2dVertex
 10
23.64918948499054
 20
51.93297581474971
 30
0.0
  0
VERTEX
  5
A6
330
4B
100
AcDbEntity
  8
L2-RESIST_U_306E_U_30B3_U_
100
AcDbVertex
100
AcDb2dVertex
 10
23.64859617066124
 20
51.93517426792695
 30
0.0
  0
VERTEX
  5
A7
330
4B
100
AcDbEntity
  8
L2-RESIST_U_306E_U_30B3_U_
100
AcDbVertex
100
AcDb2dVertex
 10
23.647992107634
 20
51.9373768552188
 30
0.0
  0
VERTEX
  5
A8
330
4B
100
AcDbEntity
  8
L2-RESIST_U_306E_U_30B3_U_
100
AcDbVertex
100
AcDb2dVertex
 10
23.64738184343516
 20
51.93958564368226
 30
0.0
  0
VERTEX
  5
A9
330
4B
100
AcDbEntity
  8
L2-RESIST_U_306E_U_30B3_U_
100
AcDbVertex
100
AcDb2dVertex
 10
23.64676992559072
 20
51.94180270037431
 30
0.0
  0
VERTEX
  5
AA
330
4B
100
AcDbEntity
  8
L2-RESIST_U_306E_U_30B3_U_
100
AcDbVertex
100
AcDb2dVertex
 10
23.64616090162607
 20
51.94403009235323
 30
0.0
  0
VERTEX
  5
AB
330
4B
100
AcDbEntity
  8
L2-RESIST_U_306E_U_30B3_U_
100
AcDbVertex
100
AcDb2dVertex
 10
23.64555931906754
 20
51.94626988667537
 30
0.0
  0
VERTEX
  5
AC
330
4B
100
AcDbEntity
  8
L2-RESIST_U_306E_U_30B3_U_
100
AcDbVertex
100
AcDb2dVertex
 10
23.64496972544114
 20
51.94852415039834
 30
0.0
  0
VERTEX
  5
AD
330
4B
100
AcDbEntity
  8
L2-RESIST_U_306E_U_30B3_U_
100
AcDbVertex
100
AcDb2dVertex
 10
23.6440024804571
 20
51.95188821715276
 30
0.0
  0
VERTEX
  5
AE
330
4B
100
AcDbEntity
  8
L2-RESIST_U_306E_U_30B3_U_
100
AcDbVertex
100
AcDb2dVertex
 10
23.64303275500436
 20
51.95528204953165
 30
0.0
  0
VERTEX
  5
AF
330
4B
100
AcDbEntity
  8
L2-RESIST_U_306E_U_30B3_U_
100
AcDbVertex
100
AcDb2dVertex
 10
23.64206137590603
 20
51.95869903295138
 30
0.0
  0
VERTEX
  5
B0
330
4B
100
AcDbEntity
  8
L2-RESIST_U_306E_U_30B3_U_
100
AcDbVertex
100
AcDb2dVertex
 10
23.64108916998459
 20
51.96213255282894
 30
0.0
  0
VERTEX
  5
B1
330
4B
100
AcDbEntity
  8
L2-RESIST_U_306E_U_30B3_U_
100
AcDbVertex
100
AcDb2dVertex
 10
23.64011696406314
 20
51.96557599458133
 30
0.0
  0
VERTEX
  5
B2
330
4B
100
AcDbEntity
  8
L2-RESIST_U_306E_U_30B3_U_
100
AcDbVertex
100
AcDb2dVertex
 10
23.6391455849648
 20
51.96902274362554
 30
0.0
  0
VERTEX
  5
B3
330
4B
100
AcDbEntity
  8
L2-RESIST_U_306E_U_30B3_U_
100
AcDbVertex
100
AcDb2dVertex
 10
23.63817585951206
 20
51.97246618537793
 30
0.0
  0
VERTEX
  5
B4
330
4B
100
AcDbEntity
  8
L2-RESIST_U_306E_U_30B3_U_
100
AcDbVertex
100
AcDb2dVertex
 10
23.63720861452803
 20
51.97589970525549
 30
0.0
  0
VERTEX
  5
B5
330
4B
100
AcDbEntity
  8
L2-RESIST_U_306E_U_30B3_U_
100
AcDbVertex
100
AcDb2dVertex
 10
23.63716451730693
 20
51.97587765664526
 30
0.0
  0
VERTEX
  5
B6
330
4B
100
AcDbEntity
  8
L2-RESIST_U_306E_U_30B3_U_
100
AcDbVertex
100
AcDb2dVertex
 10
23.63712042008584
 20
51.97585560803439
 30
0.0
  0
VERTEX
  5
B7
330
4B
100
AcDbEntity
  8
L2-RESIST_U_306E_U_30B3_U_
100
AcDbVertex
100
AcDb2dVertex
 10
23.63707632286474
 20
51.97583355942352
 30
0.0
  0
VERTEX
  5
B8
330
4B
100
AcDbEntity
  8
L2-RESIST_U_306E_U_30B3_U_
100
AcDbVertex
100
AcDb2dVertex
 10
23.63703222564364
 20
51.97581151081329
 30
0.0
  0
VERTEX
  5
B9
330
4B
100
AcDbEntity
  8
L2-RESIST_U_306E_U_30B3_U_
100
AcDbVertex
100
AcDb2dVertex
 10
23.63698812842254
 20
51.97578946220307
 30
0.0
  0
VERTEX
  5
BA
330
4B
100
AcDbEntity
  8
L2-RESIST_U_306E_U_30B3_U_
100
AcDbVertex
100
AcDb2dVertex
 10
23.63694403120145
 20
51.97576741359219
 30
0.0
  0
VERTEX
  5
BB
330
4B
100
AcDbEntity
  8
L2-RESIST_U_306E_U_30B3_U_
100
AcDbVertex
100
AcDb2dVertex
 10
23.63689993398035
 20
51.97574536498133
 30
0.0
  0
VERTEX
  5
BC
330
4B
100
AcDbEntity
  8
L2-RESIST_U_306E_U_30B3_U_
100
AcDbVertex
100
AcDb2dVertex
 10
23.63685583675925
 20
51.9757233163711
 30
0.0
  0
VERTEX
  5
BD
330
4B
100
AcDbEntity
  8
L2-RESIST_U_306E_U_30B3_U_
100
AcDbVertex
100
AcDb2dVertex
 10
23.63679733903943
 20
51.97592024571383
 30
0.0
  0
VERTEX
  5
BE
330
4B
100
AcDbEntity
  8
L2-RESIST_U_306E_U_30B3_U_
100
AcDbVertex
100
AcDb2dVertex
 10
23.63675165707453
 20
51.97611474072441
 30
0.0
  0
VERTEX
  5
BF
330
4B
100
AcDbEntity
  8
L2-RESIST_U_306E_U_30B3_U_
100
AcDbVertex
100
AcDb2dVertex
 10
23.63671507016135
 20
51.9763076743638
 30
0.0
  0
VERTEX
  5
C0
330
4B
100
AcDbEntity
  8
L2-RESIST_U_306E_U_30B3_U_
100
AcDbVertex
100
AcDb2dVertex
 10
23.63668385759697
 20
51.97649991959103
 30
0.0
  0
VERTEX
  5
C1
330
4B
100
AcDbEntity
  8
L2-RESIST_U_306E_U_30B3_U_
100
AcDbVertex
100
AcDb2dVertex
 10
23.63665429867851
 20
51.97669234936641
 30
0.0
  0
VERTEX
  5
C2
330
4B
100
AcDbEntity
  8
L2-RESIST_U_306E_U_30B3_U_
100
AcDbVertex
100
AcDb2dVertex
 10
23.63662267270274
 20
51.97688583664961
 30
0.0
  0
VERTEX
  5
C3
330
4B
100
AcDbEntity
  8
L2-RESIST_U_306E_U_30B3_U_
100
AcDbVertex
100
AcDb2dVertex
 10
23.63658525896676
 20
51.97708125440095
 30
0.0
  0
VERTEX
  5
C4
330
4B
100
AcDbEntity
  8
L2-RESIST_U_306E_U_30B3_U_
100
AcDbVertex
100
AcDb2dVertex
 10
23.63653833676735
 20
51.9772794755801
 30
0.0
  0
VERTEX
  5
C5
330
4B
100
AcDbEntity
  8
L2-RESIST_U_306E_U_30B3_U_
100
AcDbVertex
100
AcDb2dVertex
 10
23.6316132283861
 20
51.98909340632962
 30
0.0
  0
VERTEX
  5
C6
330
4B
100
AcDbEntity
  8
L2-RESIST_U_306E_U_30B3_U_
100
AcDbVertex
100
AcDb2dVertex
 10
23.62468720859764
 20
51.99937597062417
 30
0.0
  0
VERTEX
  5
C7
330
4B
100
AcDbEntity
  8
L2-RESIST_U_306E_U_30B3_U_
100
AcDbVertex
100
AcDb2dVertex
 10
23.61606454822722
 20
52.00796795891952
 30
0.0
  0
VERTEX
  5
C8
330
4B
100
AcDbEntity
  8
L2-RESIST_U_306E_U_30B3_U_
100
AcDbVertex
100
AcDb2dVertex
 10
23.60604951810074
 20
52.01471016167144
 30
0.0
  0
VERTEX
  5
C9
330
4B
100
AcDbEntity
  8
L2-RESIST_U_306E_U_30B3_U_
100
AcDbVertex
100
AcDb2dVertex
 10
23.59494638904377
 20
52.01944336933507
 30
0.0
  0
VERTEX
  5
CA
330
4B
100
AcDbEntity
  8
L2-RESIST_U_306E_U_30B3_U_
100
AcDbVertex
100
AcDb2dVertex
 10
23.58305943188187
 20
52.02200837236619
 30
0.0
  0
VERTEX
  5
CB
330
4B
100
AcDbEntity
  8
L2-RESIST_U_306E_U_30B3_U_
100
AcDbVertex
100
AcDb2dVertex
 10
23.5706929174403
 20
52.02224596121993
 30
0.0
  0
VERTEX
  5
CC
330
4B
100
AcDbEntity
  8
L2-RESIST_U_306E_U_30B3_U_
100
AcDbVertex
100
AcDb2dVertex
 10
23.55815111654496
 20
52.0199969263527
 30
0.0
  0
VERTEX
  5
CD
330
4B
100
AcDbEntity
  8
L2-RESIST_U_306E_U_30B3_U_
100
AcDbVertex
100
AcDb2dVertex
 10
23.54634608776664
 20
52.0153615504947
 30
0.0
  0
VERTEX
  5
CE
330
4B
100
AcDbEntity
  8
L2-RESIST_U_306E_U_30B3_U_
100
AcDbVertex
100
AcDb2dVertex
 10
23.53600166572594
 20
52.00864464799668
 30
0.0
  0
VERTEX
  5
CF
330
4B
100
AcDbEntity
  8
L2-RESIST_U_306E_U_30B3_U_
100
AcDbVertex
100
AcDb2dVertex
 10
23.52729853531675
 20
52.00015255674218
 30
0.0
  0
VERTEX
  5
D0
330
4B
100
AcDbEntity
  8
L2-RESIST_U_306E_U_30B3_U_
100
AcDbVertex
100
AcDb2dVertex
 10
23.52041738143393
 20
51.99019161461278
 30
0.0
  0
VERTEX
  5
D1
330
4B
100
AcDbEntity
  8
L2-RESIST_U_306E_U_30B3_U_
100
AcDbVertex
100
AcDb2dVertex
 10
23.51553888897234
 20
51.97906815949327
 30
0.0
  0
VERTEX
  5
D2
330
4B
100
AcDbEntity
  8
L2-RESIST_U_306E_U_30B3_U_
100
AcDbVertex
100
AcDb2dVertex
 10
23.51284374282685
 20
51.96708852926464
 30
0.0
  0
VERTEX
  5
D3
330
4B
100
AcDbEntity
  8
L2-RESIST_U_306E_U_30B3_U_
100
AcDbVertex
100
AcDb2dVertex
 10
23.51251262789199
 20
51.95455906181103
 30
0.0
  0
VERTEX
  5
D4
330
4B
100
AcDbEntity
  8
L2-RESIST_U_306E_U_30B3_U_
100
AcDbVertex
100
AcDb2dVertex
 10
23.51472622906263
 20
51.94178609501469
 30
0.0
  0
VERTEX
  5
D5
330
4B
100
AcDbEntity
  8
L2-RESIST_U_306E_U_30B3_U_
100
AcDbVertex
100
AcDb2dVertex
 10
23.5147265695568
 20
51.94176308177744
 30
0.0
  0
VERTEX
  5
D6
330
4B
100
AcDbEntity
  8
L2-RESIST_U_306E_U_30B3_U_
100
AcDbVertex
100
AcDb2dVertex
 10
23.51472895301634
 20
51.94170120786432
 30
0.0
  0
VERTEX
  5
D7
330
4B
100
AcDbEntity
  8
L2-RESIST_U_306E_U_30B3_U_
100
AcDbVertex
100
AcDb2dVertex
 10
23.51473542240595
 20
51.9416112219723
 30
0.0
  0
VERTEX
  5
D8
330
4B
100
AcDbEntity
  8
L2-RESIST_U_306E_U_30B3_U_
100
AcDbVertex
100
AcDb2dVertex
 10
23.51474802069133
 20
51.94150387279966
 30
0.0
  0
VERTEX
  5
D9
330
4B
100
AcDbEntity
  8
L2-RESIST_U_306E_U_30B3_U_
100
AcDbVertex
100
AcDb2dVertex
 10
23.5147687908375
 20
51.94138990904403
 30
0.0
  0
VERTEX
  5
DA
330
4B
100
AcDbEntity
  8
L2-RESIST_U_306E_U_30B3_U_
100
AcDbVertex
100
AcDb2dVertex
 10
23.51479977580983
 20
51.941280079403
 30
0.0
  0
VERTEX
  5
DB
330
4B
100
AcDbEntity
  8
L2-RESIST_U_306E_U_30B3_U_
100
AcDbVertex
100
AcDb2dVertex
 10
23.51484301857336
 20
51.94118513257357
 30
0.0
  0
VERTEX
  5
DC
330
4B
100
AcDbEntity
  8
L2-RESIST_U_306E_U_30B3_U_
100
AcDbVertex
100
AcDb2dVertex
 10
23.51490056209281
 20
51.94111581725401
 30
0.0
  0
VERTEX
  5
DD
330
4B
100
AcDbEntity
  8
L2-RESIST_U_306E_U_30B3_U_
100
AcDbVertex
100
AcDb2dVertex
 10
23.51487877046412
 20
51.94111581725401
 30
0.0
  0
VERTEX
  5
DE
330
4B
100
AcDbEntity
  8
L2-RESIST_U_306E_U_30B3_U_
100
AcDbVertex
100
AcDb2dVertex
 10
23.51485697883543
 20
51.94111581725401
 30
0.0
  0
VERTEX
  5
DF
330
4B
100
AcDbEntity
  8
L2-RESIST_U_306E_U_30B3_U_
100
AcDbVertex
100
AcDb2dVertex
 10
23.51483518720642
 20
51.94111581725401
 30
0.0
  0
VERTEX
  5
E0
330
4B
100
AcDbEntity
  8
L2-RESIST_U_306E_U_30B3_U_
100
AcDbVertex
100
AcDb2dVertex
 10
23.51481339557772
 20
51.94111581725401
 30
0.0
  0
VERTEX
  5
E1
330
4B
100
AcDbEntity
  8
L2-RESIST_U_306E_U_30B3_U_
100
AcDbVertex
100
AcDb2dVertex
 10
23.51479160394903
 20
51.94111581725401
 30
0.0
  0
VERTEX
  5
E2
330
4B
100
AcDbEntity
  8
L2-RESIST_U_306E_U_30B3_U_
100
AcDbVertex
100
AcDb2dVertex
 10
23.51476981232002
 20
51.94111581725401
 30
0.0
  0
VERTEX
  5
E3
330
4B
100
AcDbEntity
  8
L2-RESIST_U_306E_U_30B3_U_
100
AcDbVertex
100
AcDb2dVertex
 10
23.51474802069133
 20
51.94111581725401
 30
0.0
  0
VERTEX
  5
E4
330
4B
100
AcDbEntity
  8
L2-RESIST_U_306E_U_30B3_U_
100
AcDbVertex
100
AcDb2dVertex
 10
23.51472622906263
 20
51.94111581725401
 30
0.0
  0
VERTEX
  5
E5
330
4B
100
AcDbEntity
  8
L2-RESIST_U_306E_U_30B3_U_
100
AcDbVertex
100
AcDb2dVertex
 10
23.51512108646923
 20
51.93981942785555
 30
0.0
  0
VERTEX
  5
E6
330
4B
100
AcDbEntity
  8
L2-RESIST_U_306E_U_30B3_U_
100
AcDbVertex
100
AcDb2dVertex
 10
23.51551083838223
 20
51.93852345186848
 30
0.0
  0
VERTEX
  5
E7
330
4B
100
AcDbEntity
  8
L2-RESIST_U_306E_U_30B3_U_
100
AcDbVertex
100
AcDb2dVertex
 10
23.51589387934058
 20
51.93722830270421
 30
0.0
  0
VERTEX
  5
E8
330
4B
100
AcDbEntity
  8
L2-RESIST_U_306E_U_30B3_U_
100
AcDbVertex
100
AcDb2dVertex
 10
23.51626860388388
 20
51.93593439377477
 30
0.0
  0
VERTEX
  5
E9
330
4B
100
AcDbEntity
  8
L2-RESIST_U_306E_U_30B3_U_
100
AcDbVertex
100
AcDb2dVertex
 10
23.51663340655106
 20
51.93464213849092
 30
0.0
  0
VERTEX
  5
EA
330
4B
100
AcDbEntity
  8
L2-RESIST_U_306E_U_30B3_U_
100
AcDbVertex
100
AcDb2dVertex
 10
23.51698668188172
 20
51.93335195026471
 30
0.0
  0
VERTEX
  5
EB
330
4B
100
AcDbEntity
  8
L2-RESIST_U_306E_U_30B3_U_
100
AcDbVertex
100
AcDb2dVertex
 10
23.51732682441449
 20
51.93206424250688
 30
0.0
  0
VERTEX
  5
EC
330
4B
100
AcDbEntity
  8
L2-RESIST_U_306E_U_30B3_U_
100
AcDbVertex
100
AcDb2dVertex
 10
23.51765222868928
 20
51.93077942862882
 30
0.0
  0
VERTEX
  5
ED
330
4B
100
AcDbEntity
  8
L2-RESIST_U_306E_U_30B3_U_
100
AcDbVertex
100
AcDb2dVertex
 10
23.51984827029992
 20
51.92290311372588
 30
0.0
  0
VERTEX
  5
EE
330
4B
100
AcDbEntity
  8
L2-RESIST_U_306E_U_30B3_U_
100
AcDbVertex
100
AcDb2dVertex
 10
23.52204431191056
 20
51.91504333528012
 30
0.0
  0
VERTEX
  5
EF
330
4B
100
AcDbEntity
  8
L2-RESIST_U_306E_U_30B3_U_
100
AcDbVertex
100
AcDb2dVertex
 10
23.5242403535212
 20
51.90720009329284
 30
0.0
  0
VERTEX
  5
F0
330
4B
100
AcDbEntity
  8
L2-RESIST_U_306E_U_30B3_U_
100
AcDbVertex
100
AcDb2dVertex
 10
23.52643639513184
 20
51.8993733877634
 30
0.0
  0
VERTEX
  5
F1
330
4B
100
AcDbEntity
  8
L2-RESIST_U_306E_U_30B3_U_
100
AcDbVertex
100
AcDb2dVertex
 10
23.52863243674248
 20
51.89156321869177
 30
0.0
  0
VERTEX
  5
F2
330
4B
100
AcDbEntity
  8
L2-RESIST_U_306E_U_30B3_U_
100
AcDbVertex
100
AcDb2dVertex
 10
23.53082847835313
 20
51.88376958607799
 30
0.0
  0
VERTEX
  5
F3
330
4B
100
AcDbEntity
  8
L2-RESIST_U_306E_U_30B3_U_
100
AcDbVertex
100
AcDb2dVertex
 10
23.53302451996377
 20
51.87599248992267
 30
0.0
  0
VERTEX
  5
F4
330
4B
100
AcDbEntity
  8
L2-RESIST_U_306E_U_30B3_U_
100
AcDbVertex
100
AcDb2dVertex
 10
23.53522056157441
 20
51.86823193022455
 30
0.0
  0
VERTEX
  5
F5
330
4B
100
AcDbEntity
  8
L2-RESIST_U_306E_U_30B3_U_
100
AcDbVertex
100
AcDb2dVertex
 10
23.54120611364393
 20
51.84544697266045
 30
0.0
  0
VERTEX
  5
F6
330
4B
100
AcDbEntity
  8
L2-RESIST_U_306E_U_30B3_U_
100
AcDbVertex
100
AcDb2dVertex
 10
23.54705164341842
 20
51.822655859975
 30
0.0
  0
VERTEX
  5
F7
330
4B
100
AcDbEntity
  8
L2-RESIST_U_306E_U_30B3_U_
100
AcDbVertex
100
AcDb2dVertex
 10
23.55280933716049
 20
51.79982267142235
 30
0.0
  0
VERTEX
  5
F8
330
4B
100
AcDbEntity
  8
L2-RESIST_U_306E_U_30B3_U_
100
AcDbVertex
100
AcDb2dVertex
 10
23.55853138113402
 20
51.77691148625602
 30
0.0
  0
VERTEX
  5
F9
330
4B
100
AcDbEntity
  8
L2-RESIST_U_306E_U_30B3_U_
100
AcDbVertex
100
AcDb2dVertex
 10
23.56426996160164
 20
51.75388638373082
 30
0.0
  0
VERTEX
  5
FA
330
4B
100
AcDbEntity
  8
L2-RESIST_U_306E_U_30B3_U_
100
AcDbVertex
100
AcDb2dVertex
 10
23.5700772648266
 20
51.73071144310089
 30
0.0
  0
VERTEX
  5
FB
330
4B
100
AcDbEntity
  8
L2-RESIST_U_306E_U_30B3_U_
100
AcDbVertex
100
AcDb2dVertex
 10
23.57600547707249
 20
51.70735074361977
 30
0.0
  0
VERTEX
  5
FC
330
4B
100
AcDbEntity
  8
L2-RESIST_U_306E_U_30B3_U_
100
AcDbVertex
100
AcDb2dVertex
 10
23.58210678460159
 20
51.68376836454225
 30
0.0
  0
VERTEX
  5
FD
330
4B
100
AcDbEntity
  8
L2-RESIST_U_306E_U_30B3_U_
100
AcDbVertex
100
AcDb2dVertex
 10
23.70696256385046
 20
51.21530209948889
 30
0.0
  0
VERTEX
  5
FE
330
4B
100
AcDbEntity
  8
L2-RESIST_U_306E_U_30B3_U_
100
AcDbVertex
100
AcDb2dVertex
 10
23.86027858277151
 20
50.62253284290018
 30
0.0
  0
VERTEX
  5
FF
330
4B
100
AcDbEntity
  8
L2-RESIST_U_306E_U_30B3_U_
100
AcDbVertex
100
AcDb2dVertex
 10
24.02815179026405
 20
49.9630251989504
 30
0.0
  0
VERTEX
  5
100
330
4B
100
AcDbEntity
  8
L2-RESIST_U_306E_U_30B3_U_
100
AcDbVertex
100
AcDb2dVertex
 10
24.19667913522711
 20
49.29434377181382
 30
0.0
  0
VERTEX
  5
101
330
4B
100
AcDbEntity
  8
L2-RESIST_U_306E_U_30B3_U_
100
AcDbVertex
100
AcDb2dVertex
 10
24.35195756655936
 20
48.67405316566344
 30
0.0
  0
VERTEX
  5
102
330
4B
100
AcDbEntity
  8
L2-RESIST_U_306E_U_30B3_U_
100
AcDbVertex
100
AcDb2dVertex
 10
24.4800840331598
 20
48.15971798467417
 30
0.0
  0
VERTEX
  5
103
330
4B
100
AcDbEntity
  8
L2-RESIST_U_306E_U_30B3_U_
100
AcDbVertex
100
AcDb2dVertex
 10
24.56715548392776
 20
47.80890283301964
 30
0.0
  0
VERTEX
  5
104
330
4B
100
AcDbEntity
  8
L2-RESIST_U_306E_U_30B3_U_
100
AcDbVertex
100
AcDb2dVertex
 10
24.59926886776161
 20
47.67917231487414
 30
0.0
  0
VERTEX
  5
105
330
4B
100
AcDbEntity
  8
L2-RESIST_U_306E_U_30B3_U_
100
AcDbVertex
100
AcDb2dVertex
 10
24.7835797490186
 20
47.16817812652148
 30
0.0
  0
VERTEX
  5
106
330
4B
100
AcDbEntity
  8
L2-RESIST_U_306E_U_30B3_U_
100
AcDbVertex
100
AcDb2dVertex
 10
24.97831479993158
 20
46.73665154030905
 30
0.0
  0
VERTEX
  5
107
330
4B
100
AcDbEntity
  8
L2-RESIST_U_306E_U_30B3_U_
100
AcDbVertex
100
AcDb2dVertex
 10
25.18275261752404
 20
46.38105375424174
 30
0.0
  0
VERTEX
  5
108
330
4B
100
AcDbEntity
  8
L2-RESIST_U_306E_U_30B3_U_
100
AcDbVertex
100
AcDb2dVertex
 10
25.39617179881981
 20
46.09784596632824
 30
0.0
  0
VERTEX
  5
109
330
4B
100
AcDbEntity
  8
L2-RESIST_U_306E_U_30B3_U_
100
AcDbVertex
100
AcDb2dVertex
 10
25.61785094084239
 20
45.88348937457472
 30
0.0
  0
VERTEX
  5
10A
330
4B
100
AcDbEntity
  8
L2-RESIST_U_306E_U_30B3_U_
100
AcDbVertex
100
AcDb2dVertex
 10
25.84706864061496
 20
45.73444517698858
 30
0.0
  0
VERTEX
  5
10B
330
4B
100
AcDbEntity
  8
L2-RESIST_U_306E_U_30B3_U_
100
AcDbVertex
100
AcDb2dVertex
 10
26.08310349516199
 20
45.64717457157599
 30
0.0
  0
VERTEX
  5
10C
330
4B
100
AcDbEntity
  8
L2-RESIST_U_306E_U_30B3_U_
100
AcDbVertex
100
AcDb2dVertex
 10
26.32523410150634
 20
45.61813875634437
 30
0.0
  0
VERTEX
  5
10D
330
4B
100
AcDbEntity
  8
L2-RESIST_U_306E_U_30B3_U_
100
AcDbVertex
100
AcDb2dVertex
 10
27.04492123607547
 20
45.84390453943026
 30
0.0
  0
VERTEX
  5
10E
330
4B
100
AcDbEntity
  8
L2-RESIST_U_306E_U_30B3_U_
100
AcDbVertex
100
AcDb2dVertex
 10
27.74811503794929
 20
46.41930478625207
 30
0.0
  0
VERTEX
  5
10F
330
4B
100
AcDbEntity
  8
L2-RESIST_U_306E_U_30B3_U_
100
AcDbVertex
100
AcDb2dVertex
 10
28.41056967428242
 20
47.22733165474392
 30
0.0
  0
VERTEX
  5
110
330
4B
100
AcDbEntity
  8
L2-RESIST_U_306E_U_30B3_U_
100
AcDbVertex
100
AcDb2dVertex
 10
29.00803931223014
 20
48.15097730283739
 30
0.0
  0
VERTEX
  5
111
330
4B
100
AcDbEntity
  8
L2-RESIST_U_306E_U_30B3_U_
100
AcDbVertex
100
AcDb2dVertex
 10
29.51627811894739
 20
49.07323388846662
 30
0.0
  0
VERTEX
  5
112
330
4B
100
AcDbEntity
  8
L2-RESIST_U_306E_U_30B3_U_
100
AcDbVertex
100
AcDb2dVertex
 10
29.91104026158881
 20
49.87709356956447
 30
0.0
  0
VERTEX
  5
113
330
4B
100
AcDbEntity
  8
L2-RESIST_U_306E_U_30B3_U_
100
AcDbVertex
100
AcDb2dVertex
 10
30.16807990730934
 20
50.44554850406378
 30
0.0
  0
VERTEX
  5
114
330
4B
100
AcDbEntity
  8
L2-RESIST_U_306E_U_30B3_U_
100
AcDbVertex
100
AcDb2dVertex
 10
30.26315122326393
 20
50.66159084989742
 30
0.0
  0
VERTEX
  5
115
330
4B
100
AcDbEntity
  8
L2-RESIST_U_306E_U_30B3_U_
100
AcDbVertex
100
AcDb2dVertex
 10
30.28814635500462
 20
50.72732003170613
 30
0.0
  0
VERTEX
  5
116
330
4B
100
AcDbEntity
  8
L2-RESIST_U_306E_U_30B3_U_
100
AcDbVertex
100
AcDb2dVertex
 10
30.31264373936222
 20
50.79298348109428
 30
0.0
  0
VERTEX
  5
117
330
4B
100
AcDbEntity
  8
L2-RESIST_U_306E_U_30B3_U_
100
AcDbVertex
100
AcDb2dVertex
 10
30.3366747956068
 20
50.8585816114739
 30
0.0
  0
VERTEX
  5
118
330
4B
100
AcDbEntity
  8
L2-RESIST_U_306E_U_30B3_U_
100
AcDbVertex
100
AcDb2dVertex
 10
30.36027094300842
 20
50.92411483625575
 30
0.0
  0
VERTEX
  5
119
330
4B
100
AcDbEntity
  8
L2-RESIST_U_306E_U_30B3_U_
100
AcDbVertex
100
AcDb2dVertex
 10
30.38346360083685
 20
50.98958356885186
 30
0.0
  0
VERTEX
  5
11A
330
4B
100
AcDbEntity
  8
L2-RESIST_U_306E_U_30B3_U_
100
AcDbVertex
100
AcDb2dVertex
 10
30.40628418836246
 20
51.05498822267363
 30
0.0
  0
VERTEX
  5
11B
330
4B
100
AcDbEntity
  8
L2-RESIST_U_306E_U_30B3_U_
100
AcDbVertex
100
AcDb2dVertex
 10
30.42876412485471
 20
51.12032921113246
 30
0.0
  0
VERTEX
  5
11C
330
4B
100
AcDbEntity
  8
L2-RESIST_U_306E_U_30B3_U_
100
AcDbVertex
100
AcDb2dVertex
 10
30.45093482958428
 20
51.18560694763976
 30
0.0
  0
VERTEX
  5
11D
330
4B
100
AcDbEntity
  8
L2-RESIST_U_306E_U_30B3_U_
100
AcDbVertex
100
AcDb2dVertex
 10
30.45245535688934
 20
51.19037615328285
 30
0.0
  0
VERTEX
  5
11E
330
4B
100
AcDbEntity
  8
L2-RESIST_U_306E_U_30B3_U_
100
AcDbVertex
100
AcDb2dVertex
 10
30.45380555867771
 20
51.19485413389349
 30
0.0
  0
VERTEX
  5
11F
330
4B
100
AcDbEntity
  8
L2-RESIST_U_306E_U_30B3_U_
100
AcDbVertex
100
AcDb2dVertex
 10
30.45501023963646
 20
51.19902490414414
 30
0.0
  0
VERTEX
  5
120
330
4B
100
AcDbEntity
  8
L2-RESIST_U_306E_U_30B3_U_
100
AcDbVertex
100
AcDb2dVertex
 10
30.45609420445265
 20
51.20287247870852
 30
0.0
  0
VERTEX
  5
121
330
4B
100
AcDbEntity
  8
L2-RESIST_U_306E_U_30B3_U_
100
AcDbVertex
100
AcDb2dVertex
 10
30.45708225781273
 20
51.20638087225909
 30
0.0
  0
VERTEX
  5
122
330
4B
100
AcDbEntity
  8
L2-RESIST_U_306E_U_30B3_U_
100
AcDbVertex
100
AcDb2dVertex
 10
30.45799920440405
 20
51.20953409947021
 30
0.0
  0
VERTEX
  5
123
330
4B
100
AcDbEntity
  8
L2-RESIST_U_306E_U_30B3_U_
100
AcDbVertex
100
AcDb2dVertex
 10
30.45886984891307
 20
51.21231617501434
 30
0.0
  0
VERTEX
  5
124
330
4B
100
AcDbEntity
  8
L2-RESIST_U_306E_U_30B3_U_
100
AcDbVertex
100
AcDb2dVertex
 10
30.45971899602685
 20
51.21471111356392
 30
0.0
  0
VERTEX
  5
125
330
4B
100
AcDbEntity
  8
L2-RESIST_U_306E_U_30B3_U_
100
AcDbVertex
100
AcDb2dVertex
 10
30.46481188055397
 20
51.23060630141817
 30
0.0
  0
VERTEX
  5
126
330
4B
100
AcDbEntity
  8
L2-RESIST_U_306E_U_30B3_U_
100
AcDbVertex
100
AcDb2dVertex
 10
30.46979025011014
 20
51.24626543133549
 30
0.0
  0
VERTEX
  5
127
330
4B
100
AcDbEntity
  8
L2-RESIST_U_306E_U_30B3_U_
100
AcDbVertex
100
AcDb2dVertex
 10
30.47468180326223
 20
51.26171041412251
 30
0.0
  0
VERTEX
  5
128
330
4B
100
AcDbEntity
  8
L2-RESIST_U_306E_U_30B3_U_
100
AcDbVertex
100
AcDb2dVertex
 10
30.47951423857738
 20
51.27696316058653
 30
0.0
  0
VERTEX
  5
129
330
4B
100
AcDbEntity
  8
L2-RESIST_U_306E_U_30B3_U_
100
AcDbVertex
100
AcDb2dVertex
 10
30.48431525462247
 20
51.29204558153481
 30
0.0
  0
VERTEX
  5
12A
330
4B
100
AcDbEntity
  8
L2-RESIST_U_306E_U_30B3_U_
100
AcDbVertex
100
AcDb2dVertex
 10
30.48911254996433
 20
51.30697958777273
 30
0.0
  0
VERTEX
  5
12B
330
4B
100
AcDbEntity
  8
L2-RESIST_U_306E_U_30B3_U_
100
AcDbVertex
100
AcDb2dVertex
 10
30.49393382317047
 20
51.32178709010757
 30
0.0
  0
VERTEX
  5
12C
330
4B
100
AcDbEntity
  8
L2-RESIST_U_306E_U_30B3_U_
100
AcDbVertex
100
AcDb2dVertex
 10
30.49880677280741
 20
51.33648999934596
 30
0.0
  0
VERTEX
  5
12D
330
4B
100
AcDbEntity
  8
L2-RESIST_U_306E_U_30B3_U_
100
AcDbVertex
100
AcDb2dVertex
 10
30.51394259273388
 20
51.3843442347795
 30
0.0
  0
VERTEX
  5
12E
330
4B
100
AcDbEntity
  8
L2-RESIST_U_306E_U_30B3_U_
100
AcDbVertex
100
AcDb2dVertex
 10
30.52887005329027
 20
51.43217821305071
 30
0.0
  0
VERTEX
  5
12F
330
4B
100
AcDbEntity
  8
L2-RESIST_U_306E_U_30B3_U_
100
AcDbVertex
100
AcDb2dVertex
 10
30.54358915447754
 20
51.47998821345892
 30
0.0
  0
VERTEX
  5
130
330
4B
100
AcDbEntity
  8
L2-RESIST_U_306E_U_30B3_U_
100
AcDbVertex
100
AcDb2dVertex
 10
30.55809989629472
 20
51.52777051529965
 30
0.0
  0
VERTEX
  5
131
330
4B
100
AcDbEntity
  8
L2-RESIST_U_306E_U_30B3_U_
100
AcDbVertex
100
AcDb2dVertex
 10
30.57240227874246
 20
51.5755213978703
 30
0.0
  0
VERTEX
  5
132
330
4B
100
AcDbEntity
  8
L2-RESIST_U_306E_U_30B3_U_
100
AcDbVertex
100
AcDb2dVertex
 10
30.58649630182011
 20
51.6232371404683
 30
0.0
  0
VERTEX
  5
133
330
4B
100
AcDbEntity
  8
L2-RESIST_U_306E_U_30B3_U_
100
AcDbVertex
100
AcDb2dVertex
 10
30.60038196552863
 20
51.67091402239043
 30
0.0
  0
VERTEX
  5
134
330
4B
100
AcDbEntity
  8
L2-RESIST_U_306E_U_30B3_U_
100
AcDbVertex
100
AcDb2dVertex
 10
30.61405926986707
 20
51.71854832293283
 30
0.0
  0
VERTEX
  5
135
330
4B
100
AcDbEntity
  8
L2-RESIST_U_306E_U_30B3_U_
100
AcDbVertex
100
AcDb2dVertex
 10
30.61737388674454
 20
51.7306996567156
 30
0.0
  0
VERTEX
  5
136
330
4B
100
AcDbEntity
  8
L2-RESIST_U_306E_U_30B3_U_
100
AcDbVertex
100
AcDb2dVertex
 10
30.62071503481381
 20
51.74275383880774
 30
0.0
  0
VERTEX
  5
137
330
4B
100
AcDbEntity
  8
L2-RESIST_U_306E_U_30B3_U_
100
AcDbVertex
100
AcDb2dVertex
 10
30.62406336232583
 20
51.75474270189199
 30
0.0
  0
VERTEX
  5
138
330
4B
100
AcDbEntity
  8
L2-RESIST_U_306E_U_30B3_U_
100
AcDbVertex
100
AcDb2dVertex
 10
30.62739951753156
 20
51.76669807864855
 30
0.0
  0
VERTEX
  5
139
330
4B
100
AcDbEntity
  8
L2-RESIST_U_306E_U_30B3_U_
100
AcDbVertex
100
AcDb2dVertex
 10
30.63070414868193
 20
51.77865180175886
 30
0.0
  0
VERTEX
  5
13A
330
4B
100
AcDbEntity
  8
L2-RESIST_U_306E_U_30B3_U_
100
AcDbVertex
100
AcDb2dVertex
 10
30.63395790402789
 20
51.7906357039057
 30
0.0
  0
VERTEX
  5
13B
330
4B
100
AcDbEntity
  8
L2-RESIST_U_306E_U_30B3_U_
100
AcDbVertex
100
AcDb2dVertex
 10
30.63714143182039
 20
51.80268161776988
 30
0.0
  0
VERTEX
  5
13C
330
4B
100
AcDbEntity
  8
L2-RESIST_U_306E_U_30B3_U_
100
AcDbVertex
100
AcDb2dVertex
 10
30.64023538031038
 20
51.81482137603225
 30
0.0
  0
VERTEX
  5
13D
330
4B
100
AcDbEntity
  8
L2-RESIST_U_306E_U_30B3_U_
100
AcDbVertex
100
AcDb2dVertex
 10
30.64272163675746
 20
51.82344651687105
 30
0.0
  0
VERTEX
  5
13E
330
4B
100
AcDbEntity
  8
L2-RESIST_U_306E_U_30B3_U_
100
AcDbVertex
100
AcDb2dVertex
 10
30.64538152601242
 20
51.83238088947252
 30
0.0
  0
VERTEX
  5
13F
330
4B
100
AcDbEntity
  8
L2-RESIST_U_306E_U_30B3_U_
100
AcDbVertex
100
AcDb2dVertex
 10
30.64816047776434
 20
51.84161291831687
 30
0.0
  0
VERTEX
  5
140
330
4B
100
AcDbEntity
  8
L2-RESIST_U_306E_U_30B3_U_
100
AcDbVertex
100
AcDb2dVertex
 10
30.65100392170232
 20
51.85113102788305
 30
0.0
  0
VERTEX
  5
141
330
4B
100
AcDbEntity
  8
L2-RESIST_U_306E_U_30B3_U_
100
AcDbVertex
100
AcDb2dVertex
 10
30.6538572875148
 20
51.86092364265064
 30
0.0
  0
VERTEX
  5
142
330
4B
100
AcDbEntity
  8
L2-RESIST_U_306E_U_30B3_U_
100
AcDbVertex
100
AcDb2dVertex
 10
30.6566660048912
 20
51.87097918709922
 30
0.0
  0
VERTEX
  5
143
330
4B
100
AcDbEntity
  8
L2-RESIST_U_306E_U_30B3_U_
100
AcDbVertex
100
AcDb2dVertex
 10
30.65937550351997
 20
51.88128608570774
 30
0.0
  0
VERTEX
  5
144
330
4B
100
AcDbEntity
  8
L2-RESIST_U_306E_U_30B3_U_
100
AcDbVertex
100
AcDb2dVertex
 10
30.66193121309021
 20
51.89183276295577
 30
0.0
  0
VERTEX
  5
145
330
4B
100
AcDbEntity
  8
L2-RESIST_U_306E_U_30B3_U_
100
AcDbVertex
100
AcDb2dVertex
 10
30.67510277742445
 20
51.94189833622295
 30
0.0
  0
VERTEX
  5
146
330
4B
100
AcDbEntity
  8
L2-RESIST_U_306E_U_30B3_U_
100
AcDbVertex
100
AcDb2dVertex
 10
30.68800149020288
 20
51.99210157550223
 30
0.0
  0
VERTEX
  5
147
330
4B
100
AcDbEntity
  8
L2-RESIST_U_306E_U_30B3_U_
100
AcDbVertex
100
AcDb2dVertex
 10
30.70062900507171
 20
52.04243131868395
 30
0.0
  0
VERTEX
  5
148
330
4B
100
AcDbEntity
  8
L2-RESIST_U_306E_U_30B3_U_
100
AcDbVertex
100
AcDb2dVertex
 10
30.71298697567655
 20
52.09287640366038
 30
0.0
  0
VERTEX
  5
149
330
4B
100
AcDbEntity
  8
L2-RESIST_U_306E_U_30B3_U_
100
AcDbVertex
100
AcDb2dVertex
 10
30.72507705566331
 20
52.1434256683212
 30
0.0
  0
VERTEX
  5
14A
330
4B
100
AcDbEntity
  8
L2-RESIST_U_306E_U_30B3_U_
100
AcDbVertex
100
AcDb2dVertex
 10
30.73690089867757
 20
52.19406795055741
 30
0.0
  0
VERTEX
  5
14B
330
4B
100
AcDbEntity
  8
L2-RESIST_U_306E_U_30B3_U_
100
AcDbVertex
100
AcDb2dVertex
 10
30.74846015836524
 20
52.24479208826062
 30
0.0
  0
VERTEX
  5
14C
330
4B
100
AcDbEntity
  8
L2-RESIST_U_306E_U_30B3_U_
100
AcDbVertex
100
AcDb2dVertex
 10
30.75975648837225
 20
52.29558691932181
 30
0.0
  0
VERTEX
  5
14D
330
4B
100
AcDbEntity
  8
L2-RESIST_U_306E_U_30B3_U_
100
AcDbVertex
100
AcDb2dVertex
 10
30.77237408136626
 20
52.35321330565523
 30
0.0
  0
VERTEX
  5
14E
330
4B
100
AcDbEntity
  8
L2-RESIST_U_306E_U_30B3_U_
100
AcDbVertex
100
AcDb2dVertex
 10
30.78464936968162
 20
52.41084713339509
 30
0.0
  0
VERTEX
  5
14F
330
4B
100
AcDbEntity
  8
L2-RESIST_U_306E_U_30B3_U_
100
AcDbVertex
100
AcDb2dVertex
 10
30.79659392883876
 20
52.46849915123837
 30
0.0
  0
VERTEX
  5
150
330
4B
100
AcDbEntity
  8
L2-RESIST_U_306E_U_30B3_U_
100
AcDbVertex
100
AcDb2dVertex
 10
30.80821933435808
 20
52.52618010788333
 30
0.0
  0
VERTEX
  5
151
330
4B
100
AcDbEntity
  8
L2-RESIST_U_306E_U_30B3_U_
100
AcDbVertex
100
AcDb2dVertex
 10
30.81953716176033
 20
52.58390075202696
 30
0.0
  0
VERTEX
  5
152
330
4B
100
AcDbEntity
  8
L2-RESIST_U_306E_U_30B3_U_
100
AcDbVertex
100
AcDb2dVertex
 10
30.83055898656593
 20
52.64167183236753
 30
0.0
  0
VERTEX
  5
153
330
4B
100
AcDbEntity
  8
L2-RESIST_U_306E_U_30B3_U_
100
AcDbVertex
100
AcDb2dVertex
 10
30.84129638429561
 20
52.69950409760265
 30
0.0
  0
VERTEX
  5
154
330
4B
100
AcDbEntity
  8
L2-RESIST_U_306E_U_30B3_U_
100
AcDbVertex
100
AcDb2dVertex
 10
30.85176093046947
 20
52.7574082964293
 30
0.0
  0
VERTEX
  5
155
330
4B
100
AcDbEntity
  8
L2-RESIST_U_306E_U_30B3_U_
100
AcDbVertex
100
AcDb2dVertex
 10
30.8519549582423
 20
52.75848426862407
 30
0.0
  0
VERTEX
  5
156
330
4B
100
AcDbEntity
  8
L2-RESIST_U_306E_U_30B3_U_
100
AcDbVertex
100
AcDb2dVertex
 10
30.85214898601512
 20
52.75956024081884
 30
0.0
  0
VERTEX
  5
157
330
4B
100
AcDbEntity
  8
L2-RESIST_U_306E_U_30B3_U_
100
AcDbVertex
100
AcDb2dVertex
 10
30.85234301378795
 20
52.76063621301361
 30
0.0
  0
VERTEX
  5
158
330
4B
100
AcDbEntity
  8
L2-RESIST_U_306E_U_30B3_U_
100
AcDbVertex
100
AcDb2dVertex
 10
30.85253704156078
 20
52.76171218520838
 30
0.0
  0
VERTEX
  5
159
330
4B
100
AcDbEntity
  8
L2-RESIST_U_306E_U_30B3_U_
100
AcDbVertex
100
AcDb2dVertex
 10
30.8527310693336
 20
52.76278815740316
 30
0.0
  0
VERTEX
  5
15A
330
4B
100
AcDbEntity
  8
L2-RESIST_U_306E_U_30B3_U_
100
AcDbVertex
100
AcDb2dVertex
 10
30.85292509710643
 20
52.76386412959793
 30
0.0
  0
VERTEX
  5
15B
330
4B
100
AcDbEntity
  8
L2-RESIST_U_306E_U_30B3_U_
100
AcDbVertex
100
AcDb2dVertex
 10
30.85311912487926
 20
52.7649401017927
 30
0.0
  0
VERTEX
  5
15C
330
4B
100
AcDbEntity
  8
L2-RESIST_U_306E_U_30B3_U_
100
AcDbVertex
100
AcDb2dVertex
 10
30.85331315265209
 20
52.76601607398683
 30
0.0
  0
VERTEX
  5
15D
330
4B
100
AcDbEntity
  8
L2-RESIST_U_306E_U_30B3_U_
100
AcDbVertex
100
AcDb2dVertex
 10
30.85411875376007
 20
52.77002396016926
 30
0.0
  0
VERTEX
  5
15E
330
4B
100
AcDbEntity
  8
L2-RESIST_U_306E_U_30B3_U_
100
AcDbVertex
100
AcDb2dVertex
 10
30.85498884705378
 20
52.77440557030074
 30
0.0
  0
VERTEX
  5
15F
330
4B
100
AcDbEntity
  8
L2-RESIST_U_306E_U_30B3_U_
100
AcDbVertex
100
AcDb2dVertex
 10
30.85590524242981
 20
52.77912783146494
 30
0.0
  0
VERTEX
  5
160
330
4B
100
AcDbEntity
  8
L2-RESIST_U_306E_U_30B3_U_
100
AcDbVertex
100
AcDb2dVertex
 10
30.85684974978409
 20
52.78415767074623
 30
0.0
  0
VERTEX
  5
161
330
4B
100
AcDbEntity
  8
L2-RESIST_U_306E_U_30B3_U_
100
AcDbVertex
100
AcDb2dVertex
 10
30.85780417901319
 20
52.78946201522891
 30
0.0
  0
VERTEX
  5
162
330
4B
100
AcDbEntity
  8
L2-RESIST_U_306E_U_30B3_U_
100
AcDbVertex
100
AcDb2dVertex
 10
30.85875034001338
 20
52.79500779199735
 30
0.0
  0
VERTEX
  5
163
330
4B
100
AcDbEntity
  8
L2-RESIST_U_306E_U_30B3_U_
100
AcDbVertex
100
AcDb2dVertex
 10
30.8596700426809
 20
52.80076192813588
 30
0.0
  0
VERTEX
  5
164
330
4B
100
AcDbEntity
  8
L2-RESIST_U_306E_U_30B3_U_
100
AcDbVertex
100
AcDb2dVertex
 10
30.86054509691203
 20
52.80669135072754
 30
0.0
  0
VERTEX
  5
165
330
4B
100
AcDbEntity
  8
L2-RESIST_U_306E_U_30B3_U_
100
AcDbVertex
100
AcDb2dVertex
 10
30.87396195203851
 20
52.88798432719794
 30
0.0
  0
VERTEX
  5
166
330
4B
100
AcDbEntity
  8
L2-RESIST_U_306E_U_30B3_U_
100
AcDbVertex
100
AcDb2dVertex
 10
30.88647426291719
 20
52.96934781616923
 30
0.0
  0
VERTEX
  5
167
330
4B
100
AcDbEntity
  8
L2-RESIST_U_306E_U_30B3_U_
100
AcDbVertex
100
AcDb2dVertex
 10
30.89814652173413
 20
53.05076927576587
 30
0.0
  0
VERTEX
  5
168
330
4B
100
AcDbEntity
  8
L2-RESIST_U_306E_U_30B3_U_
100
AcDbVertex
100
AcDb2dVertex
 10
30.90904322067474
 20
53.13223616411103
 30
0.0
  0
VERTEX
  5
169
330
4B
100
AcDbEntity
  8
L2-RESIST_U_306E_U_30B3_U_
100
AcDbVertex
100
AcDb2dVertex
 10
30.9192288519254
 20
53.21373593932727
 30
0.0
  0
VERTEX
  5
16A
330
4B
100
AcDbEntity
  8
L2-RESIST_U_306E_U_30B3_U_
100
AcDbVertex
100
AcDb2dVertex
 10
30.92876790767152
 20
53.29525605953776
 30
0.0
  0
VERTEX
  5
16B
330
4B
100
AcDbEntity
  8
L2-RESIST_U_306E_U_30B3_U_
100
AcDbVertex
100
AcDb2dVertex
 10
30.93772488009916
 20
53.37678398286631
 30
0.0
  0
VERTEX
  5
16C
330
4B
100
AcDbEntity
  8
L2-RESIST_U_306E_U_30B3_U_
100
AcDbVertex
100
AcDb2dVertex
 10
30.94616426139437
 20
53.45830716743612
 30
0.0
  0
VERTEX
  5
16D
330
4B
100
AcDbEntity
  8
L2-RESIST_U_306E_U_30B3_U_
100
AcDbVertex
100
AcDb2dVertex
 10
30.94751221254785
 20
53.47007244382844
 30
0.0
  0
VERTEX
  5
16E
330
4B
100
AcDbEntity
  8
L2-RESIST_U_306E_U_30B3_U_
100
AcDbVertex
100
AcDb2dVertex
 10
30.94884458553695
 20
53.4819708387075
 30
0.0
  0
VERTEX
  5
16F
330
4B
100
AcDbEntity
  8
L2-RESIST_U_306E_U_30B3_U_
100
AcDbVertex
100
AcDb2dVertex
 10
30.950142284553
 20
53.49398994972878
 30
0.0
  0
VERTEX
  5
170
330
4B
100
AcDbEntity
  8
L2-RESIST_U_306E_U_30B3_U_
100
AcDbVertex
100
AcDb2dVertex
 10
30.95138621378635
 20
53.50611737454972
 30
0.0
  0
VERTEX
  5
171
330
4B
100
AcDbEntity
  8
L2-RESIST_U_306E_U_30B3_U_
100
AcDbVertex
100
AcDb2dVertex
 10
30.95255727742833
 20
53.51834071082646
 30
0.0
  0
VERTEX
  5
172
330
4B
100
AcDbEntity
  8
L2-RESIST_U_306E_U_30B3_U_
100
AcDbVertex
100
AcDb2dVertex
 10
30.95363637966963
 20
53.53064755621581
 30
0.0
  0
VERTEX
  5
173
330
4B
100
AcDbEntity
  8
L2-RESIST_U_306E_U_30B3_U_
100
AcDbVertex
100
AcDb2dVertex
 10
30.95460442470093
 20
53.54302550837389
 30
0.0
  0
VERTEX
  5
174
330
4B
100
AcDbEntity
  8
L2-RESIST_U_306E_U_30B3_U_
100
AcDbVertex
100
AcDb2dVertex
 10
30.95544231671322
 20
53.5554621649575
 30
0.0
  0
VERTEX
  5
175
330
4B
100
AcDbEntity
  8
L2-RESIST_U_306E_U_30B3_U_
100
AcDbVertex
100
AcDb2dVertex
 10
30.9624656948977
 20
53.63491522879382
 30
0.0
  0
VERTEX
  5
176
330
4B
100
AcDbEntity
  8
L2-RESIST_U_306E_U_30B3_U_
100
AcDbVertex
100
AcDb2dVertex
 10
30.96880653078188
 20
53.71449934405988
 30
0.0
  0
VERTEX
  5
177
330
4B
100
AcDbEntity
  8
L2-RESIST_U_306E_U_30B3_U_
100
AcDbVertex
100
AcDb2dVertex
 10
30.97447681329788
 20
53.79421657781203
 30
0.0
  0
VERTEX
  5
178
330
4B
100
AcDbEntity
  8
L2-RESIST_U_306E_U_30B3_U_
100
AcDbVertex
100
AcDb2dVertex
 10
30.97948853137753
 20
53.87406899710726
 30
0.0
  0
VERTEX
  5
179
330
4B
100
AcDbEntity
  8
L2-RESIST_U_306E_U_30B3_U_
100
AcDbVertex
100
AcDb2dVertex
 10
30.98385367395264
 20
53.95405866900319
 30
0.0
  0
VERTEX
  5
17A
330
4B
100
AcDbEntity
  8
L2-RESIST_U_306E_U_30B3_U_
100
AcDbVertex
100
AcDb2dVertex
 10
30.98758422995568
 20
54.03418766055745
 30
0.0
  0
VERTEX
  5
17B
330
4B
100
AcDbEntity
  8
L2-RESIST_U_306E_U_30B3_U_
100
AcDbVertex
100
AcDb2dVertex
 10
30.99069218831812
 20
54.1144580388264
 30
0.0
  0
VERTEX
  5
17C
330
4B
100
AcDbEntity
  8
L2-RESIST_U_306E_U_30B3_U_
100
AcDbVertex
100
AcDb2dVertex
 10
30.99318953797243
 20
54.19487187086702
 30
0.0
  0
VERTEX
  5
17D
330
4B
100
AcDbEntity
  8
L2-RESIST_U_306E_U_30B3_U_
100
AcDbVertex
100
AcDb2dVertex
 10
30.99338466817587
 20
54.20673299761705
 30
0.0
  0
VERTEX
  5
17E
330
4B
100
AcDbEntity
  8
L2-RESIST_U_306E_U_30B3_U_
100
AcDbVertex
100
AcDb2dVertex
 10
30.993493808798
 20
54.21840276168652
 30
0.0
  0
VERTEX
  5
17F
330
4B
100
AcDbEntity
  8
L2-RESIST_U_306E_U_30B3_U_
100
AcDbVertex
100
AcDb2dVertex
 10
30.99355664733815
 20
54.22988823789075
 30
0.0
  0
VERTEX
  5
180
330
4B
100
AcDbEntity
  8
L2-RESIST_U_306E_U_30B3_U_
100
AcDbVertex
100
AcDb2dVertex
 10
30.99361287129497
 20
54.24119650104442
 30
0.0
  0
VERTEX
  5
181
330
4B
100
AcDbEntity
  8
L2-RESIST_U_306E_U_30B3_U_
100
AcDbVertex
100
AcDb2dVertex
 10
30.99370216816777
 20
54.25233462596224
 30
0.0
  0
VERTEX
  5
182
330
4B
100
AcDbEntity
  8
L2-RESIST_U_306E_U_30B3_U_
100
AcDbVertex
100
AcDb2dVertex
 10
30.99386422545522
 20
54.26330968745889
 30
0.0
  0
VERTEX
  5
183
330
4B
100
AcDbEntity
  8
L2-RESIST_U_306E_U_30B3_U_
100
AcDbVertex
100
AcDb2dVertex
 10
30.99413873065663
 20
54.27412876034904
 30
0.0
  0
VERTEX
  5
184
330
4B
100
AcDbEntity
  8
L2-RESIST_U_306E_U_30B3_U_
100
AcDbVertex
100
AcDb2dVertex
 10
30.99456537127067
 20
54.28479891944741
 30
0.0
  0
VERTEX
  5
185
330
4B
100
AcDbEntity
  8
L2-RESIST_U_306E_U_30B3_U_
100
AcDbVertex
100
AcDb2dVertex
 10
30.99460175147815
 20
54.30340614567
 30
0.0
  0
VERTEX
  5
186
330
4B
100
AcDbEntity
  8
L2-RESIST_U_306E_U_30B3_U_
100
AcDbVertex
100
AcDb2dVertex
 10
30.99469766293396
 20
54.3217859099256
 30
0.0
  0
VERTEX
  5
187
330
4B
100
AcDbEntity
  8
L2-RESIST_U_306E_U_30B3_U_
100
AcDbVertex
100
AcDb2dVertex
 10
30.99483326188875
 20
54.33996834442983
 30
0.0
  0
VERTEX
  5
188
330
4B
100
AcDbEntity
  8
L2-RESIST_U_306E_U_30B3_U_
100
AcDbVertex
100
AcDb2dVertex
 10
30.9949887045932
 20
54.35798358139891
 30
0.0
  0
VERTEX
  5
189
330
4B
100
AcDbEntity
  8
L2-RESIST_U_306E_U_30B3_U_
100
AcDbVertex
100
AcDb2dVertex
 10
30.99514414729765
 20
54.37586175304779
 30
0.0
  0
VERTEX
  5
18A
330
4B
100
AcDbEntity
  8
L2-RESIST_U_306E_U_30B3_U_
100
AcDbVertex
100
AcDb2dVertex
 10
30.99527974625244
 20
54.39363299159142
 30
0.0
  0
VERTEX
  5
18B
330
4B
100
AcDbEntity
  8
L2-RESIST_U_306E_U_30B3_U_
100
AcDbVertex
100
AcDb2dVertex
 10
30.99537565770825
 20
54.41132742924668
 30
0.0
  0
VERTEX
  5
18C
330
4B
100
AcDbEntity
  8
L2-RESIST_U_306E_U_30B3_U_
100
AcDbVertex
100
AcDb2dVertex
 10
30.99541203791573
 20
54.42897519822787
 30
0.0
  0
VERTEX
  5
18D
330
4B
100
AcDbEntity
  8
L2-RESIST_U_306E_U_30B3_U_
100
AcDbVertex
100
AcDb2dVertex
 10
30.99428659415105
 20
54.58107002778934
 30
0.0
  0
VERTEX
  5
18E
330
4B
100
AcDbEntity
  8
L2-RESIST_U_306E_U_30B3_U_
100
AcDbVertex
100
AcDb2dVertex
 10
30.99089978976688
 20
54.73340422257958
 30
0.0
  0
VERTEX
  5
18F
330
4B
100
AcDbEntity
  8
L2-RESIST_U_306E_U_30B3_U_
100
AcDbVertex
100
AcDb2dVertex
 10
30.9852359151285
 20
54.88602201762262
 30
0.0
  0
VERTEX
  5
190
330
4B
100
AcDbEntity
  8
L2-RESIST_U_306E_U_30B3_U_
100
AcDbVertex
100
AcDb2dVertex
 10
30.97727926060056
 20
55.03896764794313
 30
0.0
  0
VERTEX
  5
191
330
4B
100
AcDbEntity
  8
L2-RESIST_U_306E_U_30B3_U_
100
AcDbVertex
100
AcDb2dVertex
 10
30.96701411654834
 20
55.19228534856774
 30
0.0
  0
VERTEX
  5
192
330
4B
100
AcDbEntity
  8
L2-RESIST_U_306E_U_30B3_U_
100
AcDbVertex
100
AcDb2dVertex
 10
30.95442477333648
 20
55.34601935451983
 30
0.0
  0
VERTEX
  5
193
330
4B
100
AcDbEntity
  8
L2-RESIST_U_306E_U_30B3_U_
100
AcDbVertex
100
AcDb2dVertex
 10
30.93949552132996
 20
55.50021390082474
 30
0.0
  0
VERTEX
  5
194
330
4B
100
AcDbEntity
  8
L2-RESIST_U_306E_U_30B3_U_
100
AcDbVertex
100
AcDb2dVertex
 10
30.92221065089437
 20
55.65491322250715
 30
0.0
  0
VERTEX
  5
195
330
4B
100
AcDbEntity
  8
L2-RESIST_U_306E_U_30B3_U_
100
AcDbVertex
100
AcDb2dVertex
 10
30.92163476874749
 20
55.66018835258098
 30
0.0
  0
VERTEX
  5
196
330
4B
100
AcDbEntity
  8
L2-RESIST_U_306E_U_30B3_U_
100
AcDbVertex
100
AcDb2dVertex
 10
30.92106302071523
 20
55.66566192014943
 30
0.0
  0
VERTEX
  5
197
330
4B
100
AcDbEntity
  8
L2-RESIST_U_306E_U_30B3_U_
100
AcDbVertex
100
AcDb2dVertex
 10
30.92048300445406
 20
55.67132400333831
 30
0.0
  0
VERTEX
  5
198
330
4B
100
AcDbEntity
  8
L2-RESIST_U_306E_U_30B3_U_
100
AcDbVertex
100
AcDb2dVertex
 10
30.91988231762043
 20
55.6771646802728
 30
0.0
  0
VERTEX
  5
199
330
4B
100
AcDbEntity
  8
L2-RESIST_U_306E_U_30B3_U_
100
AcDbVertex
100
AcDb2dVertex
 10
30.91924855787083
 20
55.68317402907806
 30
0.0
  0
VERTEX
  5
19A
330
4B
100
AcDbEntity
  8
L2-RESIST_U_306E_U_30B3_U_
100
AcDbVertex
100
AcDb2dVertex
 10
30.91856932286235
 20
55.68934212787927
 30
0.0
  0
VERTEX
  5
19B
330
4B
100
AcDbEntity
  8
L2-RESIST_U_306E_U_30B3_U_
100
AcDbVertex
100
AcDb2dVertex
 10
30.91783221025081
 20
55.69565905480161
 30
0.0
  0
VERTEX
  5
19C
330
4B
100
AcDbEntity
  8
L2-RESIST_U_306E_U_30B3_U_
100
AcDbVertex
100
AcDb2dVertex
 10
30.91702481769333
 20
55.70211488797024
 30
0.0
  0
VERTEX
  5
19D
330
4B
100
AcDbEntity
  8
L2-RESIST_U_306E_U_30B3_U_
100
AcDbVertex
100
AcDb2dVertex
 10
30.91702481769333
 20
55.70211488797024
 30
0.0
  0
SEQEND
  5
19E
330
4B
100
AcDbEntity
  8
L2-RESIST_U_306E_U_30B3_U_
  0
HATCH
  5
19F
330
1F
100
AcDbEntity
  8
L2-RESIST_U_306E_U_30B3_U_
 62
    21
100
AcDbHatch
 10
0.0
 20
0.0
 30
0.0
210
0.0
220
0.0
230
1.0
  2
SOLID
 70
     1
 71
     0
 91
        1
 92
        1
 93
      336
 72
     1
 10
30.91702481769333
 20
55.70211488797024
 11
30.90557777694471
 21
55.78919918262361
 72
     1
 10
30.90557777694471
 20
55.78919918262361
 11
30.89343516788913
 21
55.87655467518658
 72
     1
 10
30.89343516788913
 20
55.87655467518658
 11
30.88059947102737
 21
55.96416152191011
 72
     1
 10
30.88059947102737
 20
55.96416152191011
 11
30.86707316686184
 21
56.05199987904393
 72
     1
 10
30.86707316686184
 20
56.05199987904393
 11
30.85285873589364
 21
56.14004990283901
 72
     1
 10
30.85285873589364
 20
56.14004990283901
 11
30.83795865862453
 21
56.22829174954635
 72
     1
 10
30.83795865862453
 20
56.22829174954635
 11
30.82237541555595
 21
56.31670557541565
 72
     1
 10
30.82237541555595
 20
56.31670557541565
 11
30.80611148718964
 21
56.40527153669724
 72
     1
 10
30.80611148718964
 20
56.40527153669724
 11
30.80498618560365
 21
56.41117319181962
 72
     1
 10
30.80498618560365
 20
56.41117319181962
 11
30.80382949099564
 21
56.41687186192136
 72
     1
 10
30.80382949099564
 20
56.41687186192136
 11
30.80267615617557
 21
56.42237622864311
 72
     1
 10
30.80267615617557
 20
56.42237622864311
 11
30.80156093395372
 21
56.42769497362485
 72
     1
 10
30.80156093395372
 20
56.42769497362485
 11
30.80051857713971
 21
56.43283677850658
 72
     1
 10
30.80051857713971
 20
56.43283677850658
 11
30.79958383854284
 21
56.43781032492957
 72
     1
 10
30.79958383854284
 20
56.43781032492957
 11
30.79879147097373
 21
56.44262429453318
 72
     1
 10
30.79879147097373
 20
56.44262429453318
 11
30.798176227242
 21
56.44728736895802
 72
     1
 10
30.798176227242
 20
56.44728736895802
 11
30.74115635669211
 21
56.72482439204264
 72
     1
 10
30.74115635669211
 20
56.72482439204264
 11
30.67718239321467
 21
57.0040820335735
 72
     1
 10
30.67718239321467
 20
57.0040820335735
 11
30.60622529333404
 21
57.28521325578503
 72
     1
 10
30.60622529333404
 20
57.28521325578503
 11
30.52825601357556
 21
57.56837102091364
 72
     1
 10
30.52825601357556
 20
57.56837102091364
 11
30.4432455104639
 21
57.85370829119505
 72
     1
 10
30.4432455104639
 20
57.85370829119505
 11
30.35116474052441
 21
58.14137802886501
 72
     1
 10
30.35116474052441
 20
58.14137802886501
 11
30.25198466028176
 21
58.43153319615927
 72
     1
 10
30.25198466028176
 20
58.43153319615927
 11
30.14567622626097
 21
58.72432675531292
 72
     1
 10
30.14567622626097
 20
58.72432675531292
 11
30.14513824016358
 21
58.72568054000028
 72
     1
 10
30.14513824016358
 20
58.72568054000028
 11
30.14460025406619
 21
58.72703432468764
 72
     1
 10
30.14460025406619
 20
58.72703432468764
 11
30.14406226796881
 21
58.72838810937501
 72
     1
 10
30.14406226796881
 20
58.72838810937501
 11
30.14352428187142
 21
58.72974189406237
 72
     1
 10
30.14352428187142
 20
58.72974189406237
 11
30.14298629577404
 21
58.73109567874974
 72
     1
 10
30.14298629577404
 20
58.73109567874974
 11
30.14244830967665
 21
58.7324494634371
 72
     1
 10
30.14244830967665
 20
58.7324494634371
 11
30.14191032357926
 21
58.73380324812447
 72
     1
 10
30.14191032357926
 20
58.73380324812447
 11
30.14137233748188
 21
58.73515703281247
 72
     1
 10
30.14137233748188
 20
58.73515703281247
 11
30.05768566481209
 21
58.93380419625598
 72
     1
 10
30.05768566481209
 20
58.93380419625598
 11
29.97022826632741
 21
59.13286931867321
 72
     1
 10
29.97022826632741
 20
59.13286931867321
 11
29.87889720257668
 21
59.33235033300717
 72
     1
 10
29.87889720257668
 20
59.33235033300717
 11
29.78358953410968
 21
59.5322451721996
 72
     1
 10
29.78358953410968
 20
59.5322451721996
 11
29.6842023214762
 21
59.73255176919414
 72
     1
 10
29.6842023214762
 20
59.73255176919414
 11
29.58063262522508
 21
59.93326805693317
 72
     1
 10
29.58063262522508
 20
59.93326805693317
 11
29.47277750590643
 21
60.13439196836033
 72
     1
 10
29.47277750590643
 20
60.13439196836033
 11
29.36053402406939
 21
60.33592143641801
 72
     1
 10
29.36053402406939
 20
60.33592143641801
 11
29.35381229843787
 21
60.34549999280742
 72
     1
 10
29.35381229843787
 20
60.34549999280742
 11
29.34569365552427
 21
60.35348049530691
 72
     1
 10
29.34569365552427
 20
60.35348049530691
 11
29.33642820925465
 21
60.3597704856107
 72
     1
 10
29.33642820925465
 20
60.3597704856107
 11
29.32626607355475
 21
60.36427750541364
 72
     1
 10
29.32626607355475
 20
60.36427750541364
 11
29.31545736235031
 21
60.36690909641121
 72
     1
 10
29.31545736235031
 20
60.36690909641121
 11
29.30425218956772
 21
60.36757280029699
 72
     1
 10
29.30425218956772
 20
60.36757280029699
 11
29.29290066913239
 21
60.3661761587671
 72
     1
 10
29.29290066913239
 20
60.3661761587671
 11
29.2816529149707
 21
60.36262671351512
 72
     1
 10
29.2816529149707
 20
60.36262671351512
 11
29.27114957702245
 21
60.35736033398307
 72
     1
 10
29.27114957702245
 20
60.35736033398307
 11
29.26207870974096
 21
60.35039359316649
 72
     1
 10
29.26207870974096
 20
60.35039359316649
 11
29.2545630963261
 21
60.3419972755642
 72
     1
 10
29.2545630963261
 20
60.3419972755642
 11
29.24872551997742
 21
60.33244216567376
 72
     1
 10
29.24872551997742
 20
60.33244216567376
 11
29.24468876389541
 21
60.32199904799335
 72
     1
 10
29.24468876389541
 20
60.32199904799335
 11
29.24257561128027
 21
60.31093870702117
 72
     1
 10
29.24257561128027
 20
60.31093870702117
 11
29.24250884533153
 21
60.29953192725605
 72
     1
 10
29.24250884533153
 20
60.29953192725605
 11
29.24461124924905
 21
60.28804949319552
 72
     1
 10
29.24461124924905
 20
60.28804949319552
 11
29.26936165761122
 21
60.20501669963185
 72
     1
 10
29.26936165761122
 20
60.20501669963185
 11
29.31885815238986
 21
60.03115947804718
 72
     1
 10
29.31885815238986
 20
60.03115947804718
 11
29.38446673879395
 21
59.77258019482218
 72
     1
 10
29.38446673879395
 20
59.77258019482218
 11
29.45755342203341
 21
59.43538121633747
 72
     1
 10
29.45755342203341
 20
59.43538121633747
 11
29.52948420731722
 21
59.02566490897371
 72
     1
 10
29.52948420731722
 20
59.02566490897371
 11
29.59162509985434
 21
58.5495336391109
 72
     1
 10
29.59162509985434
 20
58.5495336391109
 11
29.63534210485505
 21
58.01308977313096
 72
     1
 10
29.63534210485505
 20
58.01308977313096
 11
29.65200122752829
 21
57.42243567741325
 72
     1
 10
29.65200122752829
 20
57.42243567741325
 11
29.62417783842229
 21
56.66064832014428
 72
     1
 10
29.62417783842229
 20
56.66064832014428
 11
29.53150815121329
 21
55.84273441689867
 72
     1
 10
29.53150815121329
 20
55.84273441689867
 11
29.35943633632737
 21
54.9790811174716
 72
     1
 10
29.35943633632737
 20
54.9790811174716
 11
29.09340656419064
 21
54.08007557165764
 72
     1
 10
29.09340656419064
 20
54.08007557165764
 11
28.71886300522856
 21
53.15610492925196
 72
     1
 10
28.71886300522856
 20
53.15610492925196
 11
28.22124982986756
 21
52.21755634004978
 72
     1
 10
28.22124982986756
 20
52.21755634004978
 11
27.58601120853341
 21
51.27481695384499
 72
     1
 10
27.58601120853341
 20
51.27481695384499
 11
26.79859131165222
 21
50.33827392043408
 72
     1
 10
26.79859131165222
 20
50.33827392043408
 11
26.76921119358644
 21
50.30433031447767
 72
     1
 10
26.76921119358644
 20
50.30433031447767
 11
26.68785822853971
 21
50.2185311765416
 72
     1
 10
26.68785822853971
 20
50.2185311765416
 11
26.56066537533933
 21
50.09833151912282
 72
     1
 10
26.56066537533933
 20
50.09833151912282
 11
26.39376559281352
 21
49.9611863547189
 72
     1
 10
26.39376559281352
 20
49.9611863547189
 11
26.1932918397902
 21
49.82455069582615
 72
     1
 10
26.1932918397902
 20
49.82455069582615
 11
25.96537707509666
 21
49.70587955494023
 72
     1
 10
25.96537707509666
 20
49.70587955494023
 11
25.71615425756178
 21
49.62262794455935
 72
     1
 10
25.71615425756178
 20
49.62262794455935
 11
25.45175634601284
 21
49.59225087717855
 72
     1
 10
25.45175634601284
 20
49.59225087717855
 11
25.22904277964609
 21
49.61610023909171
 72
     1
 10
25.22904277964609
 20
49.61610023909171
 11
24.9990035624248
 21
49.69529671222352
 72
     1
 10
24.9990035624248
 20
49.69529671222352
 11
24.76493937134762
 21
49.84051912768106
 72
     1
 10
24.76493937134762
 20
49.84051912768106
 11
24.53015088341384
 21
50.06244631657207
 72
     1
 10
24.53015088341384
 20
50.06244631657207
 11
24.29793877562275
 21
50.3717571100043
 72
     1
 10
24.29793877562275
 20
50.3717571100043
 11
24.07160372497363
 21
50.77913033908611
 72
     1
 10
24.07160372497363
 20
50.77913033908611
 11
23.85444640846512
 21
51.29524483492526
 72
     1
 10
23.85444640846512
 20
51.29524483492526
 11
23.64976750309652
 21
51.93077942862882
 72
     1
 10
23.64976750309652
 20
51.93077942862882
 11
23.64918948499054
 21
51.93297581474971
 72
     1
 10
23.64918948499054
 20
51.93297581474971
 11
23.64859617066124
 21
51.93517426792695
 72
     1
 10
23.64859617066124
 20
51.93517426792695
 11
23.647992107634
 21
51.9373768552188
 72
     1
 10
23.647992107634
 20
51.9373768552188
 11
23.64738184343516
 21
51.93958564368226
 72
     1
 10
23.64738184343516
 20
51.93958564368226
 11
23.64676992559072
 21
51.94180270037431
 72
     1
 10
23.64676992559072
 20
51.94180270037431
 11
23.64616090162607
 21
51.94403009235323
 72
     1
 10
23.64616090162607
 20
51.94403009235323
 11
23.64555931906754
 21
51.94626988667537
 72
     1
 10
23.64555931906754
 20
51.94626988667537
 11
23.64496972544114
 21
51.94852415039834
 72
     1
 10
23.64496972544114
 20
51.94852415039834
 11
23.6440024804571
 21
51.95188821715276
 72
     1
 10
23.6440024804571
 20
51.95188821715276
 11
23.64303275500436
 21
51.95528204953165
 72
     1
 10
23.64303275500436
 20
51.95528204953165
 11
23.64206137590603
 21
51.95869903295138
 72
     1
 10
23.64206137590603
 20
51.95869903295138
 11
23.64108916998459
 21
51.96213255282894
 72
     1
 10
23.64108916998459
 20
51.96213255282894
 11
23.64011696406314
 21
51.96557599458133
 72
     1
 10
23.64011696406314
 20
51.96557599458133
 11
23.6391455849648
 21
51.96902274362554
 72
     1
 10
23.6391455849648
 20
51.96902274362554
 11
23.63817585951206
 21
51.97246618537793
 72
     1
 10
23.63817585951206
 20
51.97246618537793
 11
23.63720861452803
 21
51.97589970525549
 72
     1
 10
23.63720861452803
 20
51.97589970525549
 11
23.63716451730693
 21
51.97587765664526
 72
     1
 10
23.63716451730693
 20
51.97587765664526
 11
23.63712042008584
 21
51.97585560803439
 72
     1
 10
23.63712042008584
 20
51.97585560803439
 11
23.63707632286474
 21
51.97583355942352
 72
     1
 10
23.63707632286474
 20
51.97583355942352
 11
23.63703222564364
 21
51.97581151081329
 72
     1
 10
23.63703222564364
 20
51.97581151081329
 11
23.63698812842254
 21
51.97578946220307
 72
     1
 10
23.63698812842254
 20
51.97578946220307
 11
23.63694403120145
 21
51.97576741359219
 72
     1
 10
23.63694403120145
 20
51.97576741359219
 11
23.63689993398035
 21
51.97574536498133
 72
     1
 10
23.63689993398035
 20
51.97574536498133
 11
23.63685583675925
 21
51.9757233163711
 72
     1
 10
23.63685583675925
 20
51.9757233163711
 11
23.63679733903943
 21
51.97592024571383
 72
     1
 10
23.63679733903943
 20
51.97592024571383
 11
23.63675165707453
 21
51.97611474072441
 72
     1
 10
23.63675165707453
 20
51.97611474072441
 11
23.63671507016135
 21
51.9763076743638
 72
     1
 10
23.63671507016135
 20
51.9763076743638
 11
23.63668385759697
 21
51.97649991959103
 72
     1
 10
23.63668385759697
 20
51.97649991959103
 11
23.63665429867851
 21
51.97669234936641
 72
     1
 10
23.63665429867851
 20
51.97669234936641
 11
23.63662267270274
 21
51.97688583664961
 72
     1
 10
23.63662267270274
 20
51.97688583664961
 11
23.63658525896676
 21
51.97708125440095
 72
     1
 10
23.63658525896676
 20
51.97708125440095
 11
23.63653833676735
 21
51.9772794755801
 72
     1
 10
23.63653833676735
 20
51.9772794755801
 11
23.6316132283861
 21
51.98909340632962
 72
     1
 10
23.6316132283861
 20
51.98909340632962
 11
23.62468720859764
 21
51.99937597062417
 72
     1
 10
23.62468720859764
 20
51.99937597062417
 11
23.61606454822722
 21
52.00796795891952
 72
     1
 10
23.61606454822722
 20
52.00796795891952
 11
23.60604951810074
 21
52.01471016167144
 72
     1
 10
23.60604951810074
 20
52.01471016167144
 11
23.59494638904377
 21
52.01944336933507
 72
     1
 10
23.59494638904377
 20
52.01944336933507
 11
23.58305943188187
 21
52.02200837236619
 72
     1
 10
23.58305943188187
 20
52.02200837236619
 11
23.5706929174403
 21
52.02224596121993
 72
     1
 10
23.5706929174403
 20
52.02224596121993
 11
23.55815111654496
 21
52.0199969263527
 72
     1
 10
23.55815111654496
 20
52.0199969263527
 11
23.54634608776664
 21
52.0153615504947
 72
     1
 10
23.54634608776664
 20
52.0153615504947
 11
23.53600166572594
 21
52.00864464799668
 72
     1
 10
23.53600166572594
 20
52.00864464799668
 11
23.52729853531675
 21
52.00015255674218
 72
     1
 10
23.52729853531675
 20
52.00015255674218
 11
23.52041738143393
 21
51.99019161461278
 72
     1
 10
23.52041738143393
 20
51.99019161461278
 11
23.51553888897234
 21
51.97906815949327
 72
     1
 10
23.51553888897234
 20
51.97906815949327
 11
23.51284374282685
 21
51.96708852926464
 72
     1
 10
23.51284374282685
 20
51.96708852926464
 11
23.51251262789199
 21
51.95455906181103
 72
     1
 10
23.51251262789199
 20
51.95455906181103
 11
23.51472622906263
 21
51.94178609501469
 72
     1
 10
23.51472622906263
 20
51.94178609501469
 11
23.5147265695568
 21
51.94176308177744
 72
     1
 10
23.5147265695568
 20
51.94176308177744
 11
23.51472895301634
 21
51.94170120786432
 72
     1
 10
23.51472895301634
 20
51.94170120786432
 11
23.51473542240595
 21
51.9416112219723
 72
     1
 10
23.51473542240595
 20
51.9416112219723
 11
23.51474802069133
 21
51.94150387279966
 72
     1
 10
23.51474802069133
 20
51.94150387279966
 11
23.5147687908375
 21
51.94138990904403
 72
     1
 10
23.5147687908375
 20
51.94138990904403
 11
23.51479977580983
 21
51.941280079403
 72
     1
 10
23.51479977580983
 20
51.941280079403
 11
23.51484301857336
 21
51.94118513257357
 72
     1
 10
23.51484301857336
 20
51.94118513257357
 11
23.51490056209281
 21
51.94111581725401
 72
     1
 10
23.51490056209281
 20
51.94111581725401
 11
23.51487877046412
 21
51.94111581725401
 72
     1
 10
23.51487877046412
 20
51.94111581725401
 11
23.51485697883543
 21
51.94111581725401
 72
     1
 10
23.51485697883543
 20
51.94111581725401
 11
23.51483518720642
 21
51.94111581725401
 72
     1
 10
23.51483518720642
 20
51.94111581725401
 11
23.51481339557772
 21
51.94111581725401
 72
     1
 10
23.51481339557772
 20
51.94111581725401
 11
23.51479160394903
 21
51.94111581725401
 72
     1
 10
23.51479160394903
 20
51.94111581725401
 11
23.51476981232002
 21
51.94111581725401
 72
     1
 10
23.51476981232002
 20
51.94111581725401
 11
23.51474802069133
 21
51.94111581725401
 72
     1
 10
23.51474802069133
 20
51.94111581725401
 11
23.51472622906263
 21
51.94111581725401
 72
     1
 10
23.51472622906263
 20
51.94111581725401
 11
23.51512108646923
 21
51.93981942785555
 72
     1
 10
23.51512108646923
 20
51.93981942785555
 11
23.51551083838223
 21
51.93852345186848
 72
     1
 10
23.51551083838223
 20
51.93852345186848
 11
23.51589387934058
 21
51.93722830270421
 72
     1
 10
23.51589387934058
 20
51.93722830270421
 11
23.51626860388388
 21
51.93593439377477
 72
     1
 10
23.51626860388388
 20
51.93593439377477
 11
23.51663340655106
 21
51.93464213849092
 72
     1
 10
23.51663340655106
 20
51.93464213849092
 11
23.51698668188172
 21
51.93335195026471
 72
     1
 10
23.51698668188172
 20
51.93335195026471
 11
23.51732682441449
 21
51.93206424250688
 72
     1
 10
23.51732682441449
 20
51.93206424250688
 11
23.51765222868928
 21
51.93077942862882
 72
     1
 10
23.51765222868928
 20
51.93077942862882
 11
23.51984827029992
 21
51.92290311372588
 72
     1
 10
23.51984827029992
 20
51.92290311372588
 11
23.52204431191056
 21
51.91504333528012
 72
     1
 10
23.52204431191056
 20
51.91504333528012
 11
23.5242403535212
 21
51.90720009329284
 72
     1
 10
23.5242403535212
 20
51.90720009329284
 11
23.52643639513184
 21
51.8993733877634
 72
     1
 10
23.52643639513184
 20
51.8993733877634
 11
23.52863243674248
 21
51.89156321869177
 72
     1
 10
23.52863243674248
 20
51.89156321869177
 11
23.53082847835313
 21
51.88376958607799
 72
     1
 10
23.53082847835313
 20
51.88376958607799
 11
23.53302451996377
 21
51.87599248992267
 72
     1
 10
23.53302451996377
 20
51.87599248992267
 11
23.53522056157441
 21
51.86823193022455
 72
     1
 10
23.53522056157441
 20
51.86823193022455
 11
23.54120611364393
 21
51.84544697266045
 72
     1
 10
23.54120611364393
 20
51.84544697266045
 11
23.54705164341842
 21
51.822655859975
 72
     1
 10
23.54705164341842
 20
51.822655859975
 11
23.55280933716049
 21
51.79982267142235
 72
     1
 10
23.55280933716049
 20
51.79982267142235
 11
23.55853138113402
 21
51.77691148625602
 72
     1
 10
23.55853138113402
 20
51.77691148625602
 11
23.56426996160164
 21
51.75388638373082
 72
     1
 10
23.56426996160164
 20
51.75388638373082
 11
23.5700772648266
 21
51.73071144310089
 72
     1
 10
23.5700772648266
 20
51.73071144310089
 11
23.57600547707249
 21
51.70735074361977
 72
     1
 10
23.57600547707249
 20
51.70735074361977
 11
23.58210678460159
 21
51.68376836454225
 72
     1
 10
23.58210678460159
 20
51.68376836454225
 11
23.70696256385046
 21
51.21530209948889
 72
     1
 10
23.70696256385046
 20
51.21530209948889
 11
23.86027858277151
 21
50.62253284290018
 72
     1
 10
23.86027858277151
 20
50.62253284290018
 11
24.02815179026405
 21
49.9630251989504
 72
     1
 10
24.02815179026405
 20
49.9630251989504
 11
24.19667913522711
 21
49.29434377181382
 72
     1
 10
24.19667913522711
 20
49.29434377181382
 11
24.35195756655936
 21
48.67405316566344
 72
     1
 10
24.35195756655936
 20
48.67405316566344
 11
24.4800840331598
 21
48.15971798467417
 72
     1
 10
24.4800840331598
 20
48.15971798467417
 11
24.56715548392776
 21
47.80890283301964
 72
     1
 10
24.56715548392776
 20
47.80890283301964
 11
24.59926886776161
 21
47.67917231487414
 72
     1
 10
24.59926886776161
 20
47.67917231487414
 11
24.7835797490186
 21
47.16817812652148
 72
     1
 10
24.7835797490186
 20
47.16817812652148
 11
24.97831479993158
 21
46.73665154030905
 72
     1
 10
24.97831479993158
 20
46.73665154030905
 11
25.18275261752404
 21
46.38105375424174
 72
     1
 10
25.18275261752404
 20
46.38105375424174
 11
25.39617179881981
 21
46.09784596632824
 72
     1
 10
25.39617179881981
 20
46.09784596632824
 11
25.61785094084239
 21
45.88348937457472
 72
     1
 10
25.61785094084239
 20
45.88348937457472
 11
25.84706864061496
 21
45.73444517698858
 72
     1
 10
25.84706864061496
 20
45.73444517698858
 11
26.08310349516199
 21
45.64717457157599
 72
     1
 10
26.08310349516199
 20
45.64717457157599
 11
26.32523410150634
 21
45.61813875634437
 72
     1
 10
26.32523410150634
 20
45.61813875634437
 11
27.04492123607547
 21
45.84390453943026
 72
     1
 10
27.04492123607547
 20
45.84390453943026
 11
27.74811503794929
 21
46.41930478625207
 72
     1
 10
27.74811503794929
 20
46.41930478625207
 11
28.41056967428242
 21
47.22733165474392
 72
     1
 10
28.41056967428242
 20
47.22733165474392
 11
29.00803931223014
 21
48.15097730283739
 72
     1
 10
29.00803931223014
 20
48.15097730283739
 11
29.51627811894739
 21
49.07323388846662
 72
     1
 10
29.51627811894739
 20
49.07323388846662
 11
29.91104026158881
 21
49.87709356956447
 72
     1
 10
29.91104026158881
 20
49.87709356956447
 11
30.16807990730934
 21
50.44554850406378
 72
     1
 10
30.16807990730934
 20
50.44554850406378
 11
30.26315122326393
 21
50.66159084989742
 72
     1
 10
30.26315122326393
 20
50.66159084989742
 11
30.28814635500462
 21
50.72732003170613
 72
     1
 10
30.28814635500462
 20
50.72732003170613
 11
30.31264373936222
 21
50.79298348109428
 72
     1
 10
30.31264373936222
 20
50.79298348109428
 11
30.3366747956068
 21
50.8585816114739
 72
     1
 10
30.3366747956068
 20
50.8585816114739
 11
30.36027094300842
 21
50.92411483625575
 72
     1
 10
30.36027094300842
 20
50.92411483625575
 11
30.38346360083685
 21
50.98958356885186
 72
     1
 10
30.38346360083685
 20
50.98958356885186
 11
30.40628418836246
 21
51.05498822267363
 72
     1
 10
30.40628418836246
 20
51.05498822267363
 11
30.42876412485471
 21
51.12032921113246
 72
     1
 10
30.42876412485471
 20
51.12032921113246
 11
30.45093482958428
 21
51.18560694763976
 72
     1
 10
30.45093482958428
 20
51.18560694763976
 11
30.45245535688934
 21
51.19037615328285
 72
     1
 10
30.45245535688934
 20
51.19037615328285
 11
30.45380555867771
 21
51.19485413389349
 72
     1
 10
30.45380555867771
 20
51.19485413389349
 11
30.45501023963646
 21
51.19902490414414
 72
     1
 10
30.45501023963646
 20
51.19902490414414
 11
30.45609420445265
 21
51.20287247870852
 72
     1
 10
30.45609420445265
 20
51.20287247870852
 11
30.45708225781273
 21
51.20638087225909
 72
     1
 10
30.45708225781273
 20
51.20638087225909
 11
30.45799920440405
 21
51.20953409947021
 72
     1
 10
30.45799920440405
 20
51.20953409947021
 11
30.45886984891307
 21
51.21231617501434
 72
     1
 10
30.45886984891307
 20
51.21231617501434
 11
30.45971899602685
 21
51.21471111356392
 72
     1
 10
30.45971899602685
 20
51.21471111356392
 11
30.46481188055397
 21
51.23060630141817
 72
     1
 10
30.46481188055397
 20
51.23060630141817
 11
30.46979025011014
 21
51.24626543133549
 72
     1
 10
30.46979025011014
 20
51.24626543133549
 11
30.47468180326223
 21
51.26171041412251
 72
     1
 10
30.47468180326223
 20
51.26171041412251
 11
30.47951423857738
 21
51.27696316058653
 72
     1
 10
30.47951423857738
 20
51.27696316058653
 11
30.48431525462247
 21
51.29204558153481
 72
     1
 10
30.48431525462247
 20
51.29204558153481
 11
30.48911254996433
 21
51.30697958777273
 72
     1
 10
30.48911254996433
 20
51.30697958777273
 11
30.49393382317047
 21
51.32178709010757
 72
     1
 10
30.49393382317047
 20
51.32178709010757
 11
30.49880677280741
 21
51.33648999934596
 72
     1
 10
30.49880677280741
 20
51.33648999934596
 11
30.51394259273388
 21
51.3843442347795
 72
     1
 10
30.51394259273388
 20
51.3843442347795
 11
30.52887005329027
 21
51.43217821305071
 72
     1
 10
30.52887005329027
 20
51.43217821305071
 11
30.54358915447754
 21
51.47998821345892
 72
     1
 10
30.54358915447754
 20
51.47998821345892
 11
30.55809989629472
 21
51.52777051529965
 72
     1
 10
30.55809989629472
 20
51.52777051529965
 11
30.57240227874246
 21
51.5755213978703
 72
     1
 10
30.57240227874246
 20
51.5755213978703
 11
30.58649630182011
 21
51.6232371404683
 72
     1
 10
30.58649630182011
 20
51.6232371404683
 11
30.60038196552863
 21
51.67091402239043
 72
     1
 10
30.60038196552863
 20
51.67091402239043
 11
30.61405926986707
 21
51.71854832293283
 72
     1
 10
30.61405926986707
 20
51.71854832293283
 11
30.61737388674454
 21
51.7306996567156
 72
     1
 10
30.61737388674454
 20
51.7306996567156
 11
30.62071503481381
 21
51.74275383880774
 72
     1
 10
30.62071503481381
 20
51.74275383880774
 11
30.62406336232583
 21
51.75474270189199
 72
     1
 10
30.62406336232583
 20
51.75474270189199
 11
30.62739951753156
 21
51.76669807864855
 72
     1
 10
30.62739951753156
 20
51.76669807864855
 11
30.63070414868193
 21
51.77865180175886
 72
     1
 10
30.63070414868193
 20
51.77865180175886
 11
30.63395790402789
 21
51.7906357039057
 72
     1
 10
30.63395790402789
 20
51.7906357039057
 11
30.63714143182039
 21
51.80268161776988
 72
     1
 10
30.63714143182039
 20
51.80268161776988
 11
30.64023538031038
 21
51.81482137603225
 72
     1
 10
30.64023538031038
 20
51.81482137603225
 11
30.64272163675746
 21
51.82344651687105
 72
     1
 10
30.64272163675746
 20
51.82344651687105
 11
30.64538152601242
 21
51.83238088947252
 72
     1
 10
30.64538152601242
 20
51.83238088947252
 11
30.64816047776434
 21
51.84161291831687
 72
     1
 10
30.64816047776434
 20
51.84161291831687
 11
30.65100392170232
 21
51.85113102788305
 72
     1
 10
30.65100392170232
 20
51.85113102788305
 11
30.6538572875148
 21
51.86092364265064
 72
     1
 10
30.6538572875148
 20
51.86092364265064
 11
30.6566660048912
 21
51.87097918709922
 72
     1
 10
30.6566660048912
 20
51.87097918709922
 11
30.65937550351997
 21
51.88128608570774
 72
     1
 10
30.65937550351997
 20
51.88128608570774
 11
30.66193121309021
 21
51.89183276295577
 72
     1
 10
30.66193121309021
 20
51.89183276295577
 11
30.67510277742445
 21
51.94189833622295
 72
     1
 10
30.67510277742445
 20
51.94189833622295
 11
30.68800149020288
 21
51.99210157550223
 72
     1
 10
30.68800149020288
 20
51.99210157550223
 11
30.70062900507171
 21
52.04243131868395
 72
     1
 10
30.70062900507171
 20
52.04243131868395
 11
30.71298697567655
 21
52.09287640366038
 72
     1
 10
30.71298697567655
 20
52.09287640366038
 11
30.72507705566331
 21
52.1434256683212
 72
     1
 10
30.72507705566331
 20
52.1434256683212
 11
30.73690089867757
 21
52.19406795055741
 72
     1
 10
30.73690089867757
 20
52.19406795055741
 11
30.74846015836524
 21
52.24479208826062
 72
     1
 10
30.74846015836524
 20
52.24479208826062
 11
30.75975648837225
 21
52.29558691932181
 72
     1
 10
30.75975648837225
 20
52.29558691932181
 11
30.77237408136626
 21
52.35321330565523
 72
     1
 10
30.77237408136626
 20
52.35321330565523
 11
30.78464936968162
 21
52.41084713339509
 72
     1
 10
30.78464936968162
 20
52.41084713339509
 11
30.79659392883876
 21
52.46849915123837
 72
     1
 10
30.79659392883876
 20
52.46849915123837
 11
30.80821933435808
 21
52.52618010788333
 72
     1
 10
30.80821933435808
 20
52.52618010788333
 11
30.81953716176033
 21
52.58390075202696
 72
     1
 10
30.81953716176033
 20
52.58390075202696
 11
30.83055898656593
 21
52.64167183236753
 72
     1
 10
30.83055898656593
 20
52.64167183236753
 11
30.84129638429561
 21
52.69950409760265
 72
     1
 10
30.84129638429561
 20
52.69950409760265
 11
30.85176093046947
 21
52.7574082964293
 72
     1
 10
30.85176093046947
 20
52.7574082964293
 11
30.8519549582423
 21
52.75848426862407
 72
     1
 10
30.8519549582423
 20
52.75848426862407
 11
30.85214898601512
 21
52.75956024081884
 72
     1
 10
30.85214898601512
 20
52.75956024081884
 11
30.85234301378795
 21
52.76063621301361
 72
     1
 10
30.85234301378795
 20
52.76063621301361
 11
30.85253704156078
 21
52.76171218520838
 72
     1
 10
30.85253704156078
 20
52.76171218520838
 11
30.8527310693336
 21
52.76278815740316
 72
     1
 10
30.8527310693336
 20
52.76278815740316
 11
30.85292509710643
 21
52.76386412959793
 72
     1
 10
30.85292509710643
 20
52.76386412959793
 11
30.85311912487926
 21
52.7649401017927
 72
     1
 10
30.85311912487926
 20
52.7649401017927
 11
30.85331315265209
 21
52.76601607398683
 72
     1
 10
30.85331315265209
 20
52.76601607398683
 11
30.85411875376007
 21
52.77002396016926
 72
     1
 10
30.85411875376007
 20
52.77002396016926
 11
30.85498884705378
 21
52.77440557030074
 72
     1
 10
30.85498884705378
 20
52.77440557030074
 11
30.85590524242981
 21
52.77912783146494
 72
     1
 10
30.85590524242981
 20
52.77912783146494
 11
30.85684974978409
 21
52.78415767074623
 72
     1
 10
30.85684974978409
 20
52.78415767074623
 11
30.85780417901319
 21
52.78946201522891
 72
     1
 10
30.85780417901319
 20
52.78946201522891
 11
30.85875034001338
 21
52.79500779199735
 72
     1
 10
30.85875034001338
 20
52.79500779199735
 11
30.8596700426809
 21
52.80076192813588
 72
     1
 10
30.8596700426809
 20
52.80076192813588
 11
30.86054509691203
 21
52.80669135072754
 72
     1
 10
30.86054509691203
 20
52.80669135072754
 11
30.87396195203851
 21
52.88798432719794
 72
     1
 10
30.87396195203851
 20
52.88798432719794
 11
30.88647426291719
 21
52.96934781616923
 72
     1
 10
30.88647426291719
 20
52.96934781616923
 11
30.89814652173413
 21
53.05076927576587
 72
     1
 10
30.89814652173413
 20
53.05076927576587
 11
30.90904322067474
 21
53.13223616411103
 72
     1
 10
30.90904322067474
 20
53.13223616411103
 11
30.9192288519254
 21
53.21373593932727
 72
     1
 10
30.9192288519254
 20
53.21373593932727
 11
30.92876790767152
 21
53.29525605953776
 72
     1
 10
30.92876790767152
 20
53.29525605953776
 11
30.93772488009916
 21
53.37678398286631
 72
     1
 10
30.93772488009916
 20
53.37678398286631
 11
30.94616426139437
 21
53.45830716743612
 72
     1
 10
30.94616426139437
 20
53.45830716743612
 11
30.94751221254785
 21
53.47007244382844
 72
     1
 10
30.94751221254785
 20
53.47007244382844
 11
30.94884458553695
 21
53.4819708387075
 72
     1
 10
30.94884458553695
 20
53.4819708387075
 11
30.950142284553
 21
53.49398994972878
 72
     1
 10
30.950142284553
 20
53.49398994972878
 11
30.95138621378635
 21
53.50611737454972
 72
     1
 10
30.95138621378635
 20
53.50611737454972
 11
30.95255727742833
 21
53.51834071082646
 72
     1
 10
30.95255727742833
 20
53.51834071082646
 11
30.95363637966963
 21
53.53064755621581
 72
     1
 10
30.95363637966963
 20
53.53064755621581
 11
30.95460442470093
 21
53.54302550837389
 72
     1
 10
30.95460442470093
 20
53.54302550837389
 11
30.95544231671322
 21
53.5554621649575
 72
     1
 10
30.95544231671322
 20
53.5554621649575
 11
30.9624656948977
 21
53.63491522879382
 72
     1
 10
30.9624656948977
 20
53.63491522879382
 11
30.96880653078188
 21
53.71449934405988
 72
     1
 10
30.96880653078188
 20
53.71449934405988
 11
30.97447681329788
 21
53.79421657781203
 72
     1
 10
30.97447681329788
 20
53.79421657781203
 11
30.97948853137753
 21
53.87406899710726
 72
     1
 10
30.97948853137753
 20
53.87406899710726
 11
30.98385367395264
 21
53.95405866900319
 72
     1
 10
30.98385367395264
 20
53.95405866900319
 11
30.98758422995568
 21
54.03418766055745
 72
     1
 10
30.98758422995568
 20
54.03418766055745
 11
30.99069218831812
 21
54.1144580388264
 72
     1
 10
30.99069218831812
 20
54.1144580388264
 11
30.99318953797243
 21
54.19487187086702
 72
     1
 10
30.99318953797243
 20
54.19487187086702
 11
30.99338466817587
 21
54.20673299761705
 72
     1
 10
30.99338466817587
 20
54.20673299761705
 11
30.993493808798
 21
54.21840276168652
 72
     1
 10
30.993493808798
 20
54.21840276168652
 11
30.99355664733815
 21
54.22988823789075
 72
     1
 10
30.99355664733815
 20
54.22988823789075
 11
30.99361287129497
 21
54.24119650104442
 72
     1
 10
30.99361287129497
 20
54.24119650104442
 11
30.99370216816777
 21
54.25233462596224
 72
     1
 10
30.99370216816777
 20
54.25233462596224
 11
30.99386422545522
 21
54.26330968745889
 72
     1
 10
30.99386422545522
 20
54.26330968745889
 11
30.99413873065663
 21
54.27412876034904
 72
     1
 10
30.99413873065663
 20
54.27412876034904
 11
30.99456537127067
 21
54.28479891944741
 72
     1
 10
30.99456537127067
 20
54.28479891944741
 11
30.99460175147815
 21
54.30340614567
 72
     1
 10
30.99460175147815
 20
54.30340614567
 11
30.99469766293396
 21
54.3217859099256
 72
     1
 10
30.99469766293396
 20
54.3217859099256
 11
30.99483326188875
 21
54.33996834442983
 72
     1
 10
30.99483326188875
 20
54.33996834442983
 11
30.9949887045932
 21
54.35798358139891
 72
     1
 10
30.9949887045932
 20
54.35798358139891
 11
30.99514414729765
 21
54.37586175304779
 72
     1
 10
30.99514414729765
 20
54.37586175304779
 11
30.99527974625244
 21
54.39363299159142
 72
     1
 10
30.99527974625244
 20
54.39363299159142
 11
30.99537565770825
 21
54.41132742924668
 72
     1
 10
30.99537565770825
 20
54.41132742924668
 11
30.99541203791573
 21
54.42897519822787
 72
     1
 10
30.99541203791573
 20
54.42897519822787
 11
30.99428659415105
 21
54.58107002778934
 72
     1
 10
30.99428659415105
 20
54.58107002778934
 11
30.99089978976688
 21
54.73340422257958
 72
     1
 10
30.99089978976688
 20
54.73340422257958
 11
30.9852359151285
 21
54.88602201762262
 72
     1
 10
30.9852359151285
 20
54.88602201762262
 11
30.97727926060056
 21
55.03896764794313
 72
     1
 10
30.97727926060056
 20
55.03896764794313
 11
30.96701411654834
 21
55.19228534856774
 72
     1
 10
30.96701411654834
 20
55.19228534856774
 11
30.95442477333648
 21
55.34601935451983
 72
     1
 10
30.95442477333648
 20
55.34601935451983
 11
30.93949552132996
 21
55.50021390082474
 72
     1
 10
30.93949552132996
 20
55.50021390082474
 11
30.92221065089437
 21
55.65491322250715
 72
     1
 10
30.92221065089437
 20
55.65491322250715
 11
30.92163476874749
 21
55.66018835258098
 72
     1
 10
30.92163476874749
 20
55.66018835258098
 11
30.92106302071523
 21
55.66566192014943
 72
     1
 10
30.92106302071523
 20
55.66566192014943
 11
30.92048300445406
 21
55.67132400333831
 72
     1
 10
30.92048300445406
 20
55.67132400333831
 11
30.91988231762043
 21
55.6771646802728
 72
     1
 10
30.91988231762043
 20
55.6771646802728
 11
30.91924855787083
 21
55.68317402907806
 72
     1
 10
30.91924855787083
 20
55.68317402907806
 11
30.91856932286235
 21
55.68934212787927
 72
     1
 10
30.91856932286235
 20
55.68934212787927
 11
30.91783221025081
 21
55.69565905480161
 72
     1
 10
30.91783221025081
 20
55.69565905480161
 11
30.91702481769333
 21
55.70211488797024
 97
        0
 75
     2
 76
     1
 98
        0
  0
ENDSEC
  0
SECTION
  2
OBJECTS
  0
DICTIONARY
  5
C
330
0
100
AcDbDictionary
  3
ACAD_GROUP
350
D
  3
ACAD_LAYOUT
350
1A
  3
ACAD_MATERIAL
350
3B
  3
ACAD_MLEADERSTYLE
350
1C2
  3
ACAD_MLINESTYLE
350
17
  3
ACAD_PLOTSETTINGS
350
19
  3
ACAD_VISUALSTYLE
350
2A
  3
ACDBHEADERROUNDTRIPXREC
350
1A0
  3
ACDBVARIABLEDICTIONARY
350
1C0
  0
DICTIONARY
  5
D
102
{ACAD_REACTORS
330
C
102
}
330
C
100
AcDbDictionary
  0
DICTIONARY
  5
1A
102
{ACAD_REACTORS
330
C
102
}
330
C
100
AcDbDictionary
  0
DICTIONARY
  5
3B
102
{ACAD_REACTORS
330
C
102
}
330
C
100
AcDbDictionary
  3
BYBLOCK
350
3D
  3
BYLAYER
350
3C
  3
GLOBAL
350
3E
  0
DICTIONARY
  5
1C2
102
{ACAD_REACTORS
330
C
102
}
330
C
100
AcDbDictionary
  0
DICTIONARY
  5
17
102
{ACAD_REACTORS
330
C
102
}
330
C
100
AcDbDictionary
  3
STANDARD
350
18
  0
DICTIONARY
  5
19
102
{ACAD_REACTORS
330
C
102
}
330
C
100
AcDbDictionary
  0
DICTIONARY
  5
2A
102
{ACAD_REACTORS
330
C
102
}
330
C
100
AcDbDictionary
  3
2DWIREFRAME
350
2F
  3
3DWIREFRAME
350
30
  3
3D_HIDDEN
350
31
  3
BASIC
350
32
  3
BRIGHTEN
350
36
  3
COLORCHANGE
350
3A
  3
CONCEPTUAL
350
34
  3
DIM
350
35
  3
FACEPATTERN
350
39
  3
FLAT
350
2B
  3
FLATWITHEDGES
350
2C
  3
GOURAUD
350
2D
  3
GOURAUDWITHEDGES
350
2E
  3
LINEPATTERN
350
38
  3
REALISTIC
350
33
  3
THICKEN
350
37
  0
DICTIONARY
  5
1A0
102
{ACAD_REACTORS
330
C
102
}
330
C
100
AcDbDictionary
  3
CEPSNTYPE
350
1A9
  3
DIMSTYLEDATA
350
1BF
  3
FINGERPRINTGUID
350
1AA
  3
HYPERLINKBASE
350
1A3
  3
INSUNITS
350
1A8
  3
LAYOUTDICT
350
1A5
  3
LWETCUNION
350
1A7
  3
PLOTSETDICT
350
1A6
  3
PSVPSCALE
350
1AC
  3
PUCSBASE
350
1AF
  3
PUCSORGBACK
350
1B5
  3
PUCSORGBOTTOM
350
1B1
  3
PUCSORGFRONT
350
1B4
  3
PUCSORGLEFT
350
1B2
  3
PUCSORGRIGHT
350
1B3
  3
PUCSORGTOP
350
1B0
  3
PUCSORTHOREF
350
1AD
  3
PUCSORTHOVIEW
350
1AE
  3
STYLESHEET
350
1A4
  3
TSTACKALIGN
350
1A1
  3
TSTACKSIZE
350
1A2
  3
UCSBASE
350
1B8
  3
UCSORGBACK
350
1BE
  3
UCSORGBOTTOM
350
1BA
  3
UCSORGFRONT
350
1BD
  3
UCSORGLEFT
350
1BB
  3
UCSORGRIGHT
350
1BC
  3
UCSORGTOP
350
1B9
  3
UCSORTHOREF
350
1B6
  3
UCSORTHOVIEW
350
1B7
  3
VERSIONGUID
350
1AB
  0
DICTIONARY
  5
1C0
102
{ACAD_REACTORS
330
C
102
}
330
C
100
AcDbDictionary
  3
DIMASSOC
350
1C3
  3
HIDETEXT
350
1C4
  0
MATERIAL
  5
3D
102
{ACAD_REACTORS
330
3B
102
}
102
{ACAD_XDICTIONARY
360
1C7
102
}
330
3B
100
AcDbMaterial
  1
ByBlock
  0
MATERIAL
  5
3C
102
{ACAD_REACTORS
330
3B
102
}
102
{ACAD_XDICTIONARY
360
1C5
102
}
330
3B
100
AcDbMaterial
  1
ByLayer
  0
MATERIAL
  5
3E
102
{ACAD_REACTORS
330
3B
102
}
102
{ACAD_XDICTIONARY
360
1C9
102
}
330
3B
100
AcDbMaterial
  1
Global
  0
MLINESTYLE
  5
18
102
{ACAD_REACTORS
330
17
102
}
330
17
100
AcDbMlineStyle
  2
Standard
 70
     0
  3

 62
   256
 51
90.0
 52
90.0
 71
     2
 49
0.5
 62
   256
  6
BYLAYER
 49
-0.5
 62
   256
  6
BYLAYER
  0
ACAD_PROXY_OBJECT
  5
2F
102
{ACAD_REACTORS
330
2A
102
}
330
2A
100
AcDbProxyObject
 90
      499
 91
      501
 93
      436
310
42CC9915DA5C99599C985B595049028333333333333E3BF0000000000000FB0107901411070040501600405405064090741402480A0340
1001
ACAD
1000
AcDbSavedByObjectVersion
1070
     0
  0
ACAD_PROXY_OBJECT
  5
30
102
{ACAD_REACTORS
330
2A
102
}
330
2A
100
AcDbProxyObject
 90
      499
 91
      501
 93
      436
310
42CCD915DA5C99599C985B595059028333333333333E3BF0000000000000FB0107901411070040501600405405064090741402480A0340
1001
ACAD
1000
AcDbSavedByObjectVersion
1070
     0
  0
ACAD_PROXY_OBJECT
  5
31
102
{ACAD_REACTORS
330
2A
102
}
330
2A
100
AcDbProxyObject
 90
      499
 91
      501
 93
      500
310
424CD108121A5919195B90640502408333333333333E3BF0000000000000FB01079024090700405020000000000001110200405405064090740C02480A0340
1001
ACAD
1000
AcDbSavedByObjectVersion
1070
     0
  0
ACAD_PROXY_OBJECT
  5
32
102
{ACAD_REACTORS
330
2A
102
}
330
2A
100
AcDbProxyObject
 90
      499
 91
      501
 93
      388
310
4150985CDA58D07406404333333333333E3BF0000000000000FB0107A41107004050150841D405064090741402480A0350
1001
ACAD
1000
AcDbSavedByObjectVersion
1070
     0
  0
ACAD_PROXY_OBJECT
  5
36
102
{ACAD_REACTORS
330
2A
102
}
330
2A
100
AcDbProxyObject
 90
      499
 91
      501
 93
      428
310
42109C9A59DA1D195B90C409028333333333333E3BF0000000000000FB010790141107004050150841D405064090741402480A029950
1001
ACAD
1000
AcDbSavedByObjectVersion
1070
     0
  0
ACAD_PROXY_OBJECT
  5
3A
102
{ACAD_REACTORS
330
2A
102
}
330
2A
100
AcDbProxyObject
 90
      499
 91
      501
 93
      452
310
42D0DBDB1BDC90DA185B99D95104090240C333333333333E3BF0000000000000FB0108901411070040501508421405064090741402480A0350
1001
ACAD
1000
AcDbSavedByObjectVersion
1070
     0
  0
ACAD_PROXY_OBJECT
  5
34
102
{ACAD_REACTORS
330
2A
102
}
330
2A
100
AcDbProxyObject
 90
      499
 91
      501
 93
      500
310
4290DBDB98D95C1D1D585B10940D028333333333333E3BF0000000000000FB0107902409070040501000000000000111010841D405064090740C02480A0340
1001
ACAD
1000
AcDbSavedByObjectVersion
1070
     0
  0
ACAD_PROXY_OBJECT
  5
35
102
{ACAD_REACTORS
330
2A
102
}
330
2A
100
AcDbProxyObject
 90
      499
 91
      501
 93
      412
310
40D11A5B50B409028333333333333E3BF0000000000000FB010790141107004050150841D405064090741402480A02677FFFFFD0
1001
ACAD
1000
AcDbSavedByObjectVersion
1070
     0
  0
ACAD_PROXY_OBJECT
  5
39
102
{ACAD_REACTORS
330
2A
102
}
330
2A
100
AcDbProxyObject
 90
      499
 91
      501
 93
      444
310
42D19858D95C185D1D195C9B90F409028333333333333E3BF0000000000000FB010790141107004050150841D405064090741402480A0350
1001
ACAD
1000
AcDbSavedByObjectVersion
1070
     0
  0
ACAD_PROXY_OBJECT
  5
2B
102
{ACAD_REACTORS
330
2A
102
}
330
2A
100
AcDbProxyObject
 90
      499
 91
      501
 93
      388
310
41119B185D240901404333333333333E3BF0000000000000F9010740A41107004050150841D405064090741402480A1B50
1001
ACAD
1000
AcDbSavedByObjectVersion
1070
     0
  0
ACAD_PROXY_OBJECT
  5
2C
102
{ACAD_REACTORS
330
2A
102
}
330
2A
100
AcDbProxyObject
 90
      499
 91
      501
 93
      476
310
43519B185D15DA5D1A115919D95CD0140901404333333333333E3BF0000000000000F9010740901411070040501600405405064090741402480A1B50
1001
ACAD
1000
AcDbSavedByObjectVersion
1070
     0
  0
ACAD_PROXY_OBJECT
  5
2D
102
{ACAD_REACTORS
330
2A
102
}
330
2A
100
AcDbProxyObject
 90
      499
 91
      501
 93
      412
310
41D1DBDD5C985D5910240902404333333333333E3BF0000000000000F9010740A411070040501641D405064090741402480A1B50
1001
ACAD
1000
AcDbSavedByObjectVersion
1070
     0
  0
ACAD_PROXY_OBJECT
  5
2E
102
{ACAD_REACTORS
330
2A
102
}
330
2A
100
AcDbProxyObject
 90
      499
 91
      501
 93
      500
310
4411DBDD5C985D5915DA5D1A115919D95CD0340902404333333333333E3BF0000000000000F9010740901411070040501600405405064090741402480A1B50
1001
ACAD
1000
AcDbSavedByObjectVersion
1070
     0
  0
ACAD_PROXY_OBJECT
  5
38
102
{ACAD_REACTORS
330
2A
102
}
330
2A
100
AcDbProxyObject
 90
      499
 91
      501
 93
      444
310
42D31A5B995C185D1D195C9B90E409028333333333333E3BF0000000000000FB010790141107004050750841D405064090741402483A0350
1001
ACAD
1000
AcDbSavedByObjectVersion
1070
     0
  0
ACAD_PROXY_OBJECT
  5
33
102
{ACAD_REACTORS
330
2A
102
}
330
2A
100
AcDbProxyObject
 90
      499
 91
      501
 93
      420
310
425499585B1A5CDD1A58D08409028333333333333E3BF0000000000000FB01079019070040501508421405064090741402480A1B40
1001
ACAD
1000
AcDbSavedByObjectVersion
1070
     0
  0
ACAD_PROXY_OBJECT
  5
37
102
{ACAD_REACTORS
330
2A
102
}
330
2A
100
AcDbProxyObject
 90
      499
 91
      501
 93
      412
310
41D51A1A58DAD95B90D409028333333333333E3BF0000000000000FB010790141107004050150C41D405064090741402480A0350
1001
ACAD
1000
AcDbSavedByObjectVersion
1070
     0
  0
XRECORD
  5
1A9
102
{ACAD_REACTORS
330
1A0
102
}
330
1A0
100
AcDbXrecord
 90
        0
  0
XRECORD
  5
1BF
102
{ACAD_REACTORS
330
1A0
102
}
330
1A0
100
AcDbXrecord
1000
DSTYLE
1002
{
1070
   340
340
11
1002
}
  0
XRECORD
  5
1AA
102
{ACAD_REACTORS
330
1A0
102
}
330
1A0
100
AcDbXrecord
  1
{F5DFA04F-89F6-4E67-DC34-26A7A4941115}
  0
XRECORD
  5
1A3
102
{ACAD_REACTORS
330
1A0
102
}
330
1A0
100
AcDbXrecord
  1

  0
XRECORD
  5
1A8
102
{ACAD_REACTORS
330
1A0
102
}
330
1A0
100
AcDbXrecord
 90
        4
  0
XRECORD
  5
1A5
102
{ACAD_REACTORS
330
1A0
102
}
330
1A0
100
AcDbXrecord
340
1A
  0
XRECORD
  5
1A7
102
{ACAD_REACTORS
330
1A0
102
}
330
1A0
100
AcDbXrecord
 90
    10269
  0
XRECORD
  5
1A6
102
{ACAD_REACTORS
330
1A0
102
}
330
1A0
100
AcDbXrecord
340
19
  0
XRECORD
  5
1AC
102
{ACAD_REACTORS
330
1A0
102
}
330
1A0
100
AcDbXrecord
 40
0.0
  0
XRECORD
  5
1AF
102
{ACAD_REACTORS
330
1A0
102
}
330
1A0
100
AcDbXrecord
340
0
  0
XRECORD
  5
1B5
102
{ACAD_REACTORS
330
1A0
102
}
330
1A0
100
AcDbXrecord
 10
0.0
 20
0.0
 30
0.0
  0
XRECORD
  5
1B1
102
{ACAD_REACTORS
330
1A0
102
}
330
1A0
100
AcDbXrecord
 10
0.0
 20
0.0
 30
0.0
  0
XRECORD
  5
1B4
102
{ACAD_REACTORS
330
1A0
102
}
330
1A0
100
AcDbXrecord
 10
0.0
 20
0.0
 30
0.0
  0
XRECORD
  5
1B2
102
{ACAD_REACTORS
330
1A0
102
}
330
1A0
100
AcDbXrecord
 10
0.0
 20
0.0
 30
0.0
  0
XRECORD
  5
1B3
102
{ACAD_REACTORS
330
1A0
102
}
330
1A0
100
AcDbXrecord
 10
0.0
 20
0.0
 30
0.0
  0
XRECORD
  5
1B0
102
{ACAD_REACTORS
330
1A0
102
}
330
1A0
100
AcDbXrecord
 10
0.0
 20
0.0
 30
0.0
  0
XRECORD
  5
1AD
102
{ACAD_REACTORS
330
1A0
102
}
330
1A0
100
AcDbXrecord
340
0
  0
XRECORD
  5
1AE
102
{ACAD_REACTORS
330
1A0
102
}
330
1A0
100
AcDbXrecord
 70
     0
  0
XRECORD
  5
1A4
102
{ACAD_REACTORS
330
1A0
102
}
330
1A0
100
AcDbXrecord
  1

  0
XRECORD
  5
1A1
102
{ACAD_REACTORS
330
1A0
102
}
330
1A0
100
AcDbXrecord
 90
        1
  0
XRECORD
  5
1A2
102
{ACAD_REACTORS
330
1A0
102
}
330
1A0
100
AcDbXrecord
 90
       70
  0
XRECORD
  5
1B8
102
{ACAD_REACTORS
330
1A0
102
}
330
1A0
100
AcDbXrecord
340
0
  0
XRECORD
  5
1BE
102
{ACAD_REACTORS
330
1A0
102
}
330
1A0
100
AcDbXrecord
 10
0.0
 20
0.0
 30
0.0
  0
XRECORD
  5
1BA
102
{ACAD_REACTORS
330
1A0
102
}
330
1A0
100
AcDbXrecord
 10
0.0
 20
0.0
 30
0.0
  0
XRECORD
  5
1BD
102
{ACAD_REACTORS
330
1A0
102
}
330
1A0
100
AcDbXrecord
 10
0.0
 20
0.0
 30
0.0
  0
XRECORD
  5
1BB
102
{ACAD_REACTORS
330
1A0
102
}
330
1A0
100
AcDbXrecord
 10
0.0
 20
0.0
 30
0.0
  0
XRECORD
  5
1BC
102
{ACAD_REACTORS
330
1A0
102
}
330
1A0
100
AcDbXrecord
 10
0.0
 20
0.0
 30
0.0
  0
XRECORD
  5
1B9
102
{ACAD_REACTORS
330
1A0
102
}
330
1A0
100
AcDbXrecord
 10
0.0
 20
0.0
 30
0.0
  0
XRECORD
  5
1B6
102
{ACAD_REACTORS
330
1A0
102
}
330
1A0
100
AcDbXrecord
340
0
  0
XRECORD
  5
1B7
102
{ACAD_REACTORS
330
1A0
102
}
330
1A0
100
AcDbXrecord
 70
     0
  0
XRECORD
  5
1AB
102
{ACAD_REACTORS
330
1A0
102
}
330
1A0
100
AcDbXrecord
  1
{FAEB1C32-E019-11D5-929B-00C0DF256EC4}
  0
DICTIONARYVAR
  5
1C3
102
{ACAD_REACTORS
330
1C0
102
}
330
1C0
100
DictionaryVariables
280
     0
  1
2
  0
DICTIONARYVAR
  5
1C4
102
{ACAD_REACTORS
330
1C0
102
}
330
1C0
100
DictionaryVariables
280
     0
  1
1
  0
DICTIONARY
  5
1C7
330
3D
100
AcDbDictionary
280
     1
  3
ACAD_XREC_ROUNDTRIP
360
1C8
  0
DICTIONARY
  5
1C5
330
3C
100
AcDbDictionary
280
     1
  3
ACAD_XREC_ROUNDTRIP
360
1C6
  0
DICTIONARY
  5
1C9
330
3E
100
AcDbDictionary
280
     1
  3
ACAD_XREC_ROUNDTRIP
360
1CA
  0
XRECORD
  5
1C8
102
{ACAD_REACTORS
330
1C7
102
}
330
1C7
100
AcDbXrecord
102
MATERIAL
148
0.0
149
0.0
149
0.0
 93
        0
 94
      127
282
     0
 72
     1
 77
     1
171
     1
175
     1
179
     1
273
     0
  0
XRECORD
  5
1C6
102
{ACAD_REACTORS
330
1C5
102
}
330
1C5
100
AcDbXrecord
102
MATERIAL
148
0.0
149
0.0
149
0.0
 93
        0
 94
      127
282
     0
 72
     1
 77
     1
171
     1
175
     1
179
     1
273
     0
  0
XRECORD
  5
1CA
102
{ACAD_REACTORS
330
1C9
102
}
330
1C9
100
AcDbXrecord
102
MATERIAL
148
0.0
149
0.0
149
0.0
 93
        0
 94
      127
282
     0
 72
     1
 77
     1
171
     1
175
     1
179
     1
273
     0
  0
ENDSEC
  0
EOF
