  0
SECTION
  2
HEADER
  9
$ACADVER
  1
AC1014
  9
$ACADMAINTVER
 70
     9
  9
$DWGCODEPAGE
  3
UNDEFINED
  9
$INSBASE
 10
0.0
 20
0.0
 30
0.0
  9
$EXTMIN
 10
1.000000000000000E+20
 20
1.000000000000000E+20
 30
1.000000000000000E+20
  9
$EXTMAX
 10
-1.000000000000000E+20
 20
-1.000000000000000E+20
 30
-1.000000000000000E+20
  9
$LIMMIN
 10
0.0
 20
0.0
  9
$LIMMAX
 10
12.0
 20
9.0
  9
$ORTHOMODE
 70
     0
  9
$REGENMODE
 70
     1
  9
$FILLMODE
 70
     1
  9
$QTEXTMODE
 70
     0
  9
$MIRRTEXT
 70
     1
  9
$DRAGMODE
 70
     2
  9
$LTSCALE
 40
1.0
  9
$OSMODE
 70
    37
  9
$ATTMODE
 70
     1
  9
$TEXTSIZE
 40
0.2
  9
$TRACEWID
 40
0.05
  9
$TEXTSTYLE
  7
STANDARD
  9
$CLAYER
  8
0
  9
$CELTYPE
  6
BYLAYER
  9
$CECOLOR
 62
   256
  9
$CELTSCALE
 40
1.0
  9
$DELOBJ
 70
     1
  9
$DISPSILH
 70
     0
  9
$DIMSCALE
 40
1.0
  9
$DIMASZ
 40
0.18
  9
$DIMEXO
 40
0.0625
  9
$DIMDLI
 40
0.38
  9
$DIMRND
 40
0.0
  9
$DIMDLE
 40
0.0
  9
$DIMEXE
 40
0.18
  9
$DIMTP
 40
0.0
  9
$DIMTM
 40
0.0
  9
$DIMTXT
 40
0.18
  9
$DIMCEN
 40
0.09
  9
$DIMTSZ
 40
0.0
  9
$DIMTOL
 70
     0
  9
$DIMLIM
 70
     0
  9
$DIMTIH
 70
     1
  9
$DIMTOH
 70
     1
  9
$DIMSE1
 70
     0
  9
$DIMSE2
 70
     0
  9
$DIMTAD
 70
     0
  9
$DIMZIN
 70
     0
  9
$DIMBLK
  1

  9
$DIMASO
 70
     1
  9
$DIMSHO
 70
     1
  9
$DIMPOST
  1

  9
$DIMAPOST
  1

  9
$DIMALT
 70
     0
  9
$DIMALTD
 70
     2
  9
$DIMALTF
 40
25.4
  9
$DIMLFAC
 40
1.0
  9
$DIMTOFL
 70
     0
  9
$DIMTVP
 40
0.0
  9
$DIMTIX
 70
     0
  9
$DIMSOXD
 70
     0
  9
$DIMSAH
 70
     0
  9
$DIMBLK1
  1

  9
$DIMBLK2
  1

  9
$DIMSTYLE
  2
STANDARD
  9
$DIMCLRD
 70
     0
  9
$DIMCLRE
 70
     0
  9
$DIMCLRT
 70
     0
  9
$DIMTFAC
 40
1.0
  9
$DIMGAP
 40
0.09
  9
$DIMJUST
 70
     0
  9
$DIMSD1
 70
     0
  9
$DIMSD2
 70
     0
  9
$DIMTOLJ
 70
     1
  9
$DIMTZIN
 70
     0
  9
$DIMALTZ
 70
     0
  9
$DIMALTTZ
 70
     0
  9
$DIMFIT
 70
     3
  9
$DIMUPT
 70
     0
  9
$DIMUNIT
 70
     2
  9
$DIMDEC
 70
     4
  9
$DIMTDEC
 70
     4
  9
$DIMALTU
 70
     2
  9
$DIMALTTD
 70
     2
  9
$DIMTXSTY
  7
STANDARD
  9
$DIMAUNIT
 70
     0
  9
$LUNITS
 70
     2
  9
$LUPREC
 70
     4
  9
$SKETCHINC
 40
0.1
  9
$FILLETRAD
 40
0.5
  9
$AUNITS
 70
     0
  9
$AUPREC
 70
     0
  9
$MENU
  1
.
  9
$ELEVATION
 40
0.0
  9
$PELEVATION
 40
0.0
  9
$THICKNESS
 40
0.0
  9
$LIMCHECK
 70
     0
  9
$CHAMFERA
 40
0.5
  9
$CHAMFERB
 40
0.5
  9
$CHAMFERC
 40
1.0
  9
$CHAMFERD
 40
0.0
  9
$SKPOLY
 70
     0
  9
$TDCREATE
 40
2458968.617546285
  9
$TDUPDATE
 40
2458968.617546285
  9
$TDINDWG
 40
0.0000000116
  9
$TDUSRTIMER
 40
0.0000000116
  9
$USRTIMER
 70
     1
  9
$ANGBASE
 50
0.0
  9
$ANGDIR
 70
     0
  9
$PDMODE
 70
     0
  9
$PDSIZE
 40
0.0
  9
$PLINEWID
 40
0.0
  9
$COORDS
 70
     1
  9
$SPLFRAME
 70
     0
  9
$SPLINETYPE
 70
     6
  9
$SPLINESEGS
 70
     8
  9
$ATTDIA
 70
     0
  9
$ATTREQ
 70
     1
  9
$HANDLING
 70
     1
  9
$HANDSEED
  5
E5
  9
$SURFTAB1
 70
     6
  9
$SURFTAB2
 70
     6
  9
$SURFTYPE
 70
     6
  9
$SURFU
 70
     6
  9
$SURFV
 70
     6
  9
$UCSNAME
  2

  9
$UCSORG
 10
0.0
 20
0.0
 30
0.0
  9
$UCSXDIR
 10
1.0
 20
0.0
 30
0.0
  9
$UCSYDIR
 10
0.0
 20
1.0
 30
0.0
  9
$PUCSNAME
  2

  9
$PUCSORG
 10
0.0
 20
0.0
 30
0.0
  9
$PUCSXDIR
 10
1.0
 20
0.0
 30
0.0
  9
$PUCSYDIR
 10
0.0
 20
1.0
 30
0.0
  9
$USERI1
 70
     0
  9
$USERI2
 70
     0
  9
$USERI3
 70
     0
  9
$USERI4
 70
     0
  9
$USERI5
 70
     0
  9
$USERR1
 40
0.0
  9
$USERR2
 40
0.0
  9
$USERR3
 40
0.0
  9
$USERR4
 40
0.0
  9
$USERR5
 40
0.0
  9
$WORLDVIEW
 70
     1
  9
$SHADEDGE
 70
     3
  9
$SHADEDIF
 70
    70
  9
$TILEMODE
 70
     1
  9
$MAXACTVP
 70
    64
  9
$PINSBASE
 10
0.0
 20
0.0
 30
0.0
  9
$PLIMCHECK
 70
     0
  9
$PEXTMIN
 10
1.000000000000000E+20
 20
1.000000000000000E+20
 30
1.000000000000000E+20
  9
$PEXTMAX
 10
-1.000000000000000E+20
 20
-1.000000000000000E+20
 30
-1.000000000000000E+20
  9
$PLIMMIN
 10
0.0
 20
0.0
  9
$PLIMMAX
 10
12.0
 20
9.0
  9
$UNITMODE
 70
     0
  9
$VISRETAIN
 70
     1
  9
$PLINEGEN
 70
     0
  9
$PSLTSCALE
 70
     1
  9
$TREEDEPTH
 70
  3020
  9
$PICKSTYLE
 70
     1
  9
$CMLSTYLE
  2
STANDARD
  9
$CMLJUST
 70
     0
  9
$CMLSCALE
 40
1.0
  9
$PROXYGRAPHICS
 70
     1
  9
$MEASUREMENT
 70
     0
  0
ENDSEC
  0
SECTION
  2
CLASSES
  0
CLASS
  1
ACDBDICTIONARYWDFLT
  2
AcDbDictionaryWithDefault
  3
ObjectDBX Classes
 90
        0
280
     0
281
     0
  0
CLASS
  1
VISUALSTYLE
  2
AcDbVisualStyle
  3
ObjectDBX Classes
 90
     4095
280
     0
281
     0
  0
CLASS
  1
MATERIAL
  2
AcDbMaterial
  3
ObjectDBX Classes
 90
     1153
280
     0
281
     0
  0
CLASS
  1
SUN
  2
AcDbSun
  3
SCENEOE
 90
     1024
280
     0
281
     0
  0
CLASS
  1
DICTIONARYVAR
  2
AcDbDictionaryVar
  3
ObjectDBX Classes
 90
        0
280
     0
281
     0
  0
CLASS
  1
XRECORD
  2
AcDbXrecord
  3
AutoCAD 2000
 90
        0
280
     0
281
     0
  0
CLASS
  1
LWPOLYLINE
  2
AcDbPolyline
  3
AutoCAD 2000
 90
        0
280
     0
281
     1
  0
CLASS
  1
HATCH
  2
AcDbHatch
  3
AutoCAD 2000
 90
        0
280
     0
281
     1
  0
CLASS
  1
ACDBPLACEHOLDER
  2
AcDbPlaceHolder
  3
ObjectDBX Classes
 90
        0
280
     0
281
     0
  0
CLASS
  1
LAYOUT
  2
AcDbLayout
  3
ObjectDBX Classes
 90
        0
280
     0
281
     0
  0
ENDSEC
  0
SECTION
  2
TABLES
  0
TABLE
  2
VPORT
  5
8
330
0
100
AcDbSymbolTable
 70
     1
  0
VPORT
  5
29
330
8
100
AcDbSymbolTableRecord
100
AcDbViewportTableRecord
  2
*ACTIVE
 70
     0
 10
0.0
 20
0.0
 11
1.0
 21
1.0
 12
0.0
 22
0.0
 13
0.0
 23
0.0
 14
0.5
 24
0.5
 15
0.5
 25
0.5
 16
0.0
 26
0.0
 36
1.0
 17
104.9999989878935
 27
148.4996183011652
 37
0.0
 40
297.0000052006764
 41
0.7070706878738762
 42
50.0
 43
0.0
 44
0.0
 50
0.0
 51
0.0
 71
     0
 72
   100
 73
     1
 74
     3
 75
     0
 76
     0
 77
     0
 78
     0
  0
ENDTAB
  0
TABLE
  2
LTYPE
  5
5
330
0
100
AcDbSymbolTable
 70
     1
  0
LTYPE
  5
14
330
5
100
AcDbSymbolTableRecord
100
AcDbLinetypeTableRecord
  2
BYBLOCK
 70
     0
  3

 72
    65
 73
     0
 40
0.0
  0
LTYPE
  5
15
330
5
100
AcDbSymbolTableRecord
100
AcDbLinetypeTableRecord
  2
BYLAYER
 70
     0
  3

 72
    65
 73
     0
 40
0.0
  0
LTYPE
  5
16
330
5
100
AcDbSymbolTableRecord
100
AcDbLinetypeTableRecord
  2
CONTINUOUS
 70
     0
  3
Solid line
 72
    65
 73
     0
 40
0.0
  0
ENDTAB
  0
TABLE
  2
LAYER
  5
2
330
0
100
AcDbSymbolTable
 70
    14
  0
LAYER
  5
10
330
2
100
AcDbSymbolTableRecord
100
AcDbLayerTableRecord
  2
0
 70
     0
 62
     7
  6
CONTINUOUS
  0
LAYER
  5
40
330
2
100
AcDbSymbolTableRecord
100
AcDbLayerTableRecord
  2
OUTLINE
 70
     5
 62
     7
  6
CONTINUOUS
  0
LAYER
  5
41
330
2
100
AcDbSymbolTableRecord
100
AcDbLayerTableRecord
  2
OUTLINE_U_306E_U_30B3_U_30
 70
     4
 62
     7
  6
CONTINUOUS
  0
LAYER
  5
42
330
2
100
AcDbSymbolTableRecord
100
AcDbLayerTableRecord
  2
L2-SILK
 70
     5
 62
     7
  6
CONTINUOUS
  0
LAYER
  5
43
330
2
100
AcDbSymbolTableRecord
100
AcDbLayerTableRecord
  2
L2-PATTERN
 70
     5
 62
     7
  6
CONTINUOUS
  0
LAYER
  5
44
330
2
100
AcDbSymbolTableRecord
100
AcDbLayerTableRecord
  2
L2-RESIST
 70
     5
 62
     7
  6
CONTINUOUS
  0
LAYER
  5
45
330
2
100
AcDbSymbolTableRecord
100
AcDbLayerTableRecord
  2
L1-PATTERN
 70
     5
 62
     7
  6
CONTINUOUS
  0
LAYER
  5
46
330
2
100
AcDbSymbolTableRecord
100
AcDbLayerTableRecord
  2
L1-RESIST
 70
     5
 62
     7
  6
CONTINUOUS
  0
LAYER
  5
47
330
2
100
AcDbSymbolTableRecord
100
AcDbLayerTableRecord
  2
L1-SILK
 70
     5
 62
     7
  6
CONTINUOUS
  0
LAYER
  5
48
330
2
100
AcDbSymbolTableRecord
100
AcDbLayerTableRecord
  2
DRILL
 70
     5
 62
     7
  6
CONTINUOUS
  0
LAYER
  5
49
330
2
100
AcDbSymbolTableRecord
100
AcDbLayerTableRecord
  2
HANE
 70
     0
 62
     7
  6
CONTINUOUS
  0
LAYER
  5
4A
330
2
100
AcDbSymbolTableRecord
100
AcDbLayerTableRecord
  2
H1
 70
     4
 62
     7
  6
CONTINUOUS
  0
LAYER
  5
4B
330
2
100
AcDbSymbolTableRecord
100
AcDbLayerTableRecord
  2
L2-RESIST_U_306E_U_30B3_U_
 70
     0
 62
     7
  6
CONTINUOUS
  0
LAYER
  5
4C
330
2
100
AcDbSymbolTableRecord
100
AcDbLayerTableRecord
  2
H2
 70
     0
 62
     7
  6
CONTINUOUS
  0
ENDTAB
  0
TABLE
  2
STYLE
  5
3
330
0
100
AcDbSymbolTable
 70
     1
  0
STYLE
  5
11
330
3
100
AcDbSymbolTableRecord
100
AcDbTextStyleTableRecord
  2
STANDARD
 70
     0
 40
0.0
 41
1.0
 50
0.0
 71
     0
 42
0.2
  3
txt
  4

  0
ENDTAB
  0
TABLE
  2
VIEW
  5
6
330
0
100
AcDbSymbolTable
 70
     0
  0
ENDTAB
  0
TABLE
  2
UCS
  5
7
330
0
100
AcDbSymbolTable
 70
     0
  0
ENDTAB
  0
TABLE
  2
APPID
  5
9
330
0
100
AcDbSymbolTable
 70
     1
  0
APPID
  5
12
330
9
100
AcDbSymbolTableRecord
100
AcDbRegAppTableRecord
  2
ACAD
 70
     0
  0
ENDTAB
  0
TABLE
  2
DIMSTYLE
  5
A
330
0
100
AcDbSymbolTable
 70
     1
  0
DIMSTYLE
105
27
330
A
100
AcDbSymbolTableRecord
100
AcDbDimStyleTableRecord
  2
STANDARD
 70
     0
  3

  4

  5

  6

  7

 40
1.0
 41
0.18
 42
0.0625
 43
0.38
 44
0.18
 45
0.0
 46
0.0
 47
0.0
 48
0.0
140
0.18
141
0.09
142
0.0
143
25.4
144
1.0
145
0.0
146
1.0
147
0.09
 71
     0
 72
     0
 73
     1
 74
     1
 75
     0
 76
     0
 77
     0
 78
     0
170
     0
171
     2
172
     0
173
     0
174
     0
175
     0
176
     0
177
     0
178
     0
270
     2
271
     4
272
     4
273
     2
274
     2
340
11
275
     0
280
     0
281
     0
282
     0
283
     1
284
     0
285
     0
286
     0
287
     3
288
     0
  0
ENDTAB
  0
TABLE
  2
BLOCK_RECORD
  5
1
330
0
100
AcDbSymbolTable
 70
     1
  0
BLOCK_RECORD
  5
1F
330
1
100
AcDbSymbolTableRecord
100
AcDbBlockTableRecord
  2
*MODEL_SPACE
  0
BLOCK_RECORD
  5
1B
330
1
100
AcDbSymbolTableRecord
100
AcDbBlockTableRecord
  2
*PAPER_SPACE
  0
ENDTAB
  0
ENDSEC
  0
SECTION
  2
BLOCKS
  0
BLOCK
  5
20
330
1F
100
AcDbEntity
  8
0
100
AcDbBlockBegin
  2
*MODEL_SPACE
 70
     0
 10
0.0
 20
0.0
 30
0.0
  3
*MODEL_SPACE
  1

  0
ENDBLK
  5
21
330
1F
100
AcDbEntity
  8
0
100
AcDbBlockEnd
  0
BLOCK
  5
1C
330
1B
100
AcDbEntity
 67
     1
  8
0
100
AcDbBlockBegin
  2
*PAPER_SPACE
 70
     0
 10
0.0
 20
0.0
 30
0.0
  3
*PAPER_SPACE
  1

  0
ENDBLK
  5
1D
330
1B
100
AcDbEntity
 67
     1
  8
0
100
AcDbBlockEnd
  0
ENDSEC
  0
SECTION
  2
ENTITIES
  0
POLYLINE
  5
4D
330
1F
100
AcDbEntity
  8
H2
100
AcDb2dPolyline
 66
     1
 10
0.0
 20
0.0
 30
0.0
  0
VERTEX
  5
4E
330
4D
100
AcDbEntity
  8
H2
100
AcDbVertex
100
AcDb2dVertex
 10
23.70335444617384
 20
76.6270929652394
 30
0.0
  0
VERTEX
  5
4F
330
4D
100
AcDbEntity
  8
H2
100
AcDbVertex
100
AcDb2dVertex
 10
22.94728306138295
 20
77.68842799254494
 30
0.0
  0
VERTEX
  5
50
330
4D
100
AcDbEntity
  8
H2
100
AcDbVertex
100
AcDb2dVertex
 10
22.0560873180604
 20
78.82344167759496
 30
0.0
  0
VERTEX
  5
51
330
4D
100
AcDbEntity
  8
H2
100
AcDbVertex
100
AcDb2dVertex
 10
21.02602832307181
 20
80.0049799723724
 30
0.0
  0
VERTEX
  5
52
330
4D
100
AcDbEntity
  8
H2
100
AcDbVertex
100
AcDb2dVertex
 10
19.85336718328409
 20
81.20588882886089
 30
0.0
  0
VERTEX
  5
53
330
4D
100
AcDbEntity
  8
H2
100
AcDbVertex
100
AcDb2dVertex
 10
18.53436500556317
 20
82.39901419904464
 30
0.0
  0
VERTEX
  5
54
330
4D
100
AcDbEntity
  8
H2
100
AcDbVertex
100
AcDb2dVertex
 10
17.065282896775
 20
83.55720203490729
 30
0.0
  0
VERTEX
  5
55
330
4D
100
AcDbEntity
  8
H2
100
AcDbVertex
100
AcDb2dVertex
 10
15.44238196378647
 20
84.65329828843241
 30
0.0
  0
VERTEX
  5
56
330
4D
100
AcDbEntity
  8
H2
100
AcDbVertex
100
AcDb2dVertex
 10
13.66192331346321
 20
85.66014891160361
 30
0.0
  0
VERTEX
  5
57
330
4D
100
AcDbEntity
  8
H2
100
AcDbVertex
100
AcDb2dVertex
 10
13.63332982061584
 20
85.67539070364386
 30
0.0
  0
VERTEX
  5
58
330
4D
100
AcDbEntity
  8
H2
100
AcDbVertex
100
AcDb2dVertex
 10
13.55241935215156
 20
85.71720169936859
 30
0.0
  0
VERTEX
  5
59
330
4D
100
AcDbEntity
  8
H2
100
AcDbVertex
100
AcDb2dVertex
 10
13.42459395600604
 20
85.78050407818151
 30
0.0
  0
VERTEX
  5
5A
330
4D
100
AcDbEntity
  8
H2
100
AcDbVertex
100
AcDb2dVertex
 10
13.25525568011594
 20
85.86022001948699
 30
0.0
  0
VERTEX
  5
5B
330
4D
100
AcDbEntity
  8
H2
100
AcDbVertex
100
AcDb2dVertex
 10
13.04980657241821
 20
85.95127170269
 30
0.0
  0
VERTEX
  5
5C
330
4D
100
AcDbEntity
  8
H2
100
AcDbVertex
100
AcDb2dVertex
 10
12.81364868084887
 20
86.04858130719555
 30
0.0
  0
VERTEX
  5
5D
330
4D
100
AcDbEntity
  8
H2
100
AcDbVertex
100
AcDb2dVertex
 10
12.55218405334455
 20
86.14707101240668
 30
0.0
  0
VERTEX
  5
5E
330
4D
100
AcDbEntity
  8
H2
100
AcDbVertex
100
AcDb2dVertex
 10
12.27081473784223
 20
86.24166299772907
 30
0.0
  0
VERTEX
  5
5F
330
4D
100
AcDbEntity
  8
H2
100
AcDbVertex
100
AcDb2dVertex
 10
11.97494608653642
 20
86.32632015377291
 30
0.0
  0
VERTEX
  5
60
330
4D
100
AcDbEntity
  8
H2
100
AcDbVertex
100
AcDb2dVertex
 10
11.66870246153673
 20
86.3982599468595
 30
0.0
  0
VERTEX
  5
61
330
4D
100
AcDbEntity
  8
H2
100
AcDbVertex
100
AcDb2dVertex
 10
11.35711425334005
 20
86.45109517012119
 30
0.0
  0
VERTEX
  5
62
330
4D
100
AcDbEntity
  8
H2
100
AcDbVertex
100
AcDb2dVertex
 10
11.0452118524433
 20
86.47843861668906
 30
0.0
  0
VERTEX
  5
63
330
4D
100
AcDbEntity
  8
H2
100
AcDbVertex
100
AcDb2dVertex
 10
10.73802564934273
 20
86.4739030796961
 30
0.0
  0
VERTEX
  5
64
330
4D
100
AcDbEntity
  8
H2
100
AcDbVertex
100
AcDb2dVertex
 10
10.44058603453525
 20
86.43110135227214
 30
0.0
  0
VERTEX
  5
65
330
4D
100
AcDbEntity
  8
H2
100
AcDbVertex
100
AcDb2dVertex
 10
10.15792339851745
 20
86.34364622755078
 30
0.0
  0
VERTEX
  5
66
330
4D
100
AcDbEntity
  8
H2
100
AcDbVertex
100
AcDb2dVertex
 10
9.895068131785909
 20
86.2051504986625
 30
0.0
  0
VERTEX
  5
67
330
4D
100
AcDbEntity
  8
H2
100
AcDbVertex
100
AcDb2dVertex
 10
9.663743347031586
 20
86.00361365810018
 30
0.0
  0
VERTEX
  5
68
330
4D
100
AcDbEntity
  8
H2
100
AcDbVertex
100
AcDb2dVertex
 10
9.47822387909571
 20
85.74635970307467
 30
0.0
  0
VERTEX
  5
69
330
4D
100
AcDbEntity
  8
H2
100
AcDbVertex
100
AcDb2dVertex
 10
9.342329295925301
 20
85.42967537196117
 30
0.0
  0
VERTEX
  5
6A
330
4D
100
AcDbEntity
  8
H2
100
AcDbVertex
100
AcDb2dVertex
 10
9.259879165467702
 20
85.04984740313546
 30
0.0
  0
VERTEX
  5
6B
330
4D
100
AcDbEntity
  8
H2
100
AcDbVertex
100
AcDb2dVertex
 10
9.234693055670256
 20
84.60316253497398
 30
0.0
  0
VERTEX
  5
6C
330
4D
100
AcDbEntity
  8
H2
100
AcDbVertex
100
AcDb2dVertex
 10
9.270590534479663
 20
84.08590750585253
 30
0.0
  0
VERTEX
  5
6D
330
4D
100
AcDbEntity
  8
H2
100
AcDbVertex
100
AcDb2dVertex
 10
9.371391169843907
 20
83.49436905414757
 30
0.0
  0
VERTEX
  5
6E
330
4D
100
AcDbEntity
  8
H2
100
AcDbVertex
100
AcDb2dVertex
 10
9.54091452971001
 20
82.82483391823425
 30
0.0
  0
VERTEX
  5
6F
330
4D
100
AcDbEntity
  8
H2
100
AcDbVertex
100
AcDb2dVertex
 10
10.23642465139761
 20
80.69765425245086
 30
0.0
  0
VERTEX
  5
70
330
4D
100
AcDbEntity
  8
H2
100
AcDbVertex
100
AcDb2dVertex
 10
11.15322523944471
 20
78.30442778355942
 30
0.0
  0
VERTEX
  5
71
330
4D
100
AcDbEntity
  8
H2
100
AcDbVertex
100
AcDb2dVertex
 10
12.22538502274688
 20
75.76907376620981
 30
0.0
  0
VERTEX
  5
72
330
4D
100
AcDbEntity
  8
H2
100
AcDbVertex
100
AcDb2dVertex
 10
13.3869727302
 20
73.21551145505451
 30
0.0
  0
VERTEX
  5
73
330
4D
100
AcDbEntity
  8
H2
100
AcDbVertex
100
AcDb2dVertex
 10
14.57205709069962
 20
70.76766010474405
 30
0.0
  0
VERTEX
  5
74
330
4D
100
AcDbEntity
  8
H2
100
AcDbVertex
100
AcDb2dVertex
 10
15.71470683314099
 20
68.54943896992896
 30
0.0
  0
VERTEX
  5
75
330
4D
100
AcDbEntity
  8
H2
100
AcDbVertex
100
AcDb2dVertex
 10
16.74899068641997
 20
66.68476730526169
 30
0.0
  0
VERTEX
  5
76
330
4D
100
AcDbEntity
  8
H2
100
AcDbVertex
100
AcDb2dVertex
 10
17.60897737943213
 20
65.29756436539151
 30
0.0
  0
VERTEX
  5
77
330
4D
100
AcDbEntity
  8
H2
100
AcDbVertex
100
AcDb2dVertex
 10
17.68643745706192
 20
65.18525342858716
 30
0.0
  0
VERTEX
  5
78
330
4D
100
AcDbEntity
  8
H2
100
AcDbVertex
100
AcDb2dVertex
 10
17.7612415107799
 20
65.07936690568137
 30
0.0
  0
VERTEX
  5
79
330
4D
100
AcDbEntity
  8
H2
100
AcDbVertex
100
AcDb2dVertex
 10
17.83344585426718
 20
64.98000236177555
 30
0.0
  0
VERTEX
  5
7A
330
4D
100
AcDbEntity
  8
H2
100
AcDbVertex
100
AcDb2dVertex
 10
17.90310680120453
 20
64.8872573619717
 30
0.0
  0
VERTEX
  5
7B
330
4D
100
AcDbEntity
  8
H2
100
AcDbVertex
100
AcDb2dVertex
 10
17.97028066527273
 20
64.80122947137126
 30
0.0
  0
VERTEX
  5
7C
330
4D
100
AcDbEntity
  8
H2
100
AcDbVertex
100
AcDb2dVertex
 10
18.03502376015226
 20
64.72201625507626
 30
0.0
  0
VERTEX
  5
7D
330
4D
100
AcDbEntity
  8
H2
100
AcDbVertex
100
AcDb2dVertex
 10
18.09739239952389
 20
64.64971527818741
 30
0.0
  0
VERTEX
  5
7E
330
4D
100
AcDbEntity
  8
H2
100
AcDbVertex
100
AcDb2dVertex
 10
18.15744289706873
 20
64.5844241058081
 30
0.0
  0
VERTEX
  5
7F
330
4D
100
AcDbEntity
  8
H2
100
AcDbVertex
100
AcDb2dVertex
 10
18.20171167393005
 20
64.52452120043546
 30
0.0
  0
VERTEX
  5
80
330
4D
100
AcDbEntity
  8
H2
100
AcDbVertex
100
AcDb2dVertex
 10
18.28318890177099
 20
64.4214771568403
 30
0.0
  0
VERTEX
  5
81
330
4D
100
AcDbEntity
  8
H2
100
AcDbVertex
100
AcDb2dVertex
 10
18.40084063895712
 20
64.28408523651723
 30
0.0
  0
VERTEX
  5
82
330
4D
100
AcDbEntity
  8
H2
100
AcDbVertex
100
AcDb2dVertex
 10
18.5536329438534
 20
64.12113870096083
 30
0.0
  0
VERTEX
  5
83
330
4D
100
AcDbEntity
  8
H2
100
AcDbVertex
100
AcDb2dVertex
 10
18.74053187482508
 20
63.94143081166506
 30
0.0
  0
VERTEX
  5
84
330
4D
100
AcDbEntity
  8
H2
100
AcDbVertex
100
AcDb2dVertex
 10
18.96050349023742
 20
63.75375483012451
 30
0.0
  0
VERTEX
  5
85
330
4D
100
AcDbEntity
  8
H2
100
AcDbVertex
100
AcDb2dVertex
 10
19.21251384845571
 20
63.56690401783379
 30
0.0
  0
VERTEX
  5
86
330
4D
100
AcDbEntity
  8
H2
100
AcDbVertex
100
AcDb2dVertex
 10
19.4955290078452
 20
63.38967163628685
 30
0.0
  0
VERTEX
  5
87
330
4D
100
AcDbEntity
  8
H2
100
AcDbVertex
100
AcDb2dVertex
 10
19.83048575548005
 20
63.22054611542803
 30
0.0
  0
VERTEX
  5
88
330
4D
100
AcDbEntity
  8
H2
100
AcDbVertex
100
AcDb2dVertex
 10
20.20036352842429
 20
63.08585280723316
 30
0.0
  0
VERTEX
  5
89
330
4D
100
AcDbEntity
  8
H2
100
AcDbVertex
100
AcDb2dVertex
 10
20.60219483640432
 20
62.99657191975416
 30
0.0
  0
VERTEX
  5
8A
330
4D
100
AcDbEntity
  8
H2
100
AcDbVertex
100
AcDb2dVertex
 10
21.03301218914552
 20
62.96368366104488
 30
0.0
  0
VERTEX
  5
8B
330
4D
100
AcDbEntity
  8
H2
100
AcDbVertex
100
AcDb2dVertex
 10
21.48984809637333
 20
62.99816823915852
 30
0.0
  0
VERTEX
  5
8C
330
4D
100
AcDbEntity
  8
H2
100
AcDbVertex
100
AcDb2dVertex
 10
21.96973506781345
 20
63.11100586214765
 30
0.0
  0
VERTEX
  5
8D
330
4D
100
AcDbEntity
  8
H2
100
AcDbVertex
100
AcDb2dVertex
 10
22.46970561319132
 20
63.3131767380661
 30
0.0
  0
VERTEX
  5
8E
330
4D
100
AcDbEntity
  8
H2
100
AcDbVertex
100
AcDb2dVertex
 10
22.98679224223265
 20
63.6156610749671
 30
0.0
  0
VERTEX
  5
8F
330
4D
100
AcDbEntity
  8
H2
100
AcDbVertex
100
AcDb2dVertex
 10
22.98836892459241
 20
63.6167232667796
 30
0.0
  0
VERTEX
  5
90
330
4D
100
AcDbEntity
  8
H2
100
AcDbVertex
100
AcDb2dVertex
 10
22.989993149269
 20
63.61783506796687
 30
0.0
  0
VERTEX
  5
91
330
4D
100
AcDbEntity
  8
H2
100
AcDbVertex
100
AcDb2dVertex
 10
22.99164962003846
 20
63.61897994206917
 30
0.0
  0
VERTEX
  5
92
330
4D
100
AcDbEntity
  8
H2
100
AcDbVertex
100
AcDb2dVertex
 10
22.99332304067714
 20
63.62014135263058
 30
0.0
  0
VERTEX
  5
93
330
4D
100
AcDbEntity
  8
H2
100
AcDbVertex
100
AcDb2dVertex
 10
22.99499811496174
 20
63.62130276319199
 30
0.0
  0
VERTEX
  5
94
330
4D
100
AcDbEntity
  8
H2
100
AcDbVertex
100
AcDb2dVertex
 10
22.99665954666829
 20
63.62244763729429
 30
0.0
  0
VERTEX
  5
95
330
4D
100
AcDbEntity
  8
H2
100
AcDbVertex
100
AcDb2dVertex
 10
22.99829203957379
 20
63.62355943848156
 30
0.0
  0
VERTEX
  5
96
330
4D
100
AcDbEntity
  8
H2
100
AcDbVertex
100
AcDb2dVertex
 10
22.9998802974543
 20
63.6246216302947
 30
0.0
  0
VERTEX
  5
97
330
4D
100
AcDbEntity
  8
H2
100
AcDbVertex
100
AcDb2dVertex
 10
23.09934123512945
 20
63.69400853878904
 30
0.0
  0
VERTEX
  5
98
330
4D
100
AcDbEntity
  8
H2
100
AcDbVertex
100
AcDb2dVertex
 10
23.19928958490178
 20
63.76731748168842
 30
0.0
  0
VERTEX
  5
99
330
4D
100
AcDbEntity
  8
H2
100
AcDbVertex
100
AcDb2dVertex
 10
23.29972989429669
 20
63.84459765495559
 30
0.0
  0
VERTEX
  5
9A
330
4D
100
AcDbEntity
  8
H2
100
AcDbVertex
100
AcDb2dVertex
 10
23.4006667108405
 20
63.92589825455197
 30
0.0
  0
VERTEX
  5
9B
330
4D
100
AcDbEntity
  8
H2
100
AcDbVertex
100
AcDb2dVertex
 10
23.50210458205922
 20
64.01126847644097
 30
0.0
  0
VERTEX
  5
9C
330
4D
100
AcDbEntity
  8
H2
100
AcDbVertex
100
AcDb2dVertex
 10
23.60404805547823
 20
64.10075751658404
 30
0.0
  0
VERTEX
  5
9D
330
4D
100
AcDbEntity
  8
H2
100
AcDbVertex
100
AcDb2dVertex
 10
23.70650167862388
 20
64.1944145709439
 30
0.0
  0
VERTEX
  5
9E
330
4D
100
AcDbEntity
  8
H2
100
AcDbVertex
100
AcDb2dVertex
 10
23.80946999902217
 20
64.2922888354833
 30
0.0
  0
VERTEX
  5
9F
330
4D
100
AcDbEntity
  8
H2
100
AcDbVertex
100
AcDb2dVertex
 10
23.97913012978508
 20
64.49518187229896
 30
0.0
  0
VERTEX
  5
A0
330
4D
100
AcDbEntity
  8
H2
100
AcDbVertex
100
AcDb2dVertex
 10
24.4002994500948
 20
65.05647658942448
 30
0.0
  0
VERTEX
  5
A1
330
4D
100
AcDbEntity
  8
H2
100
AcDbVertex
100
AcDb2dVertex
 10
24.95519166412841
 20
65.92910733376331
 30
0.0
  0
VERTEX
  5
A2
330
4D
100
AcDbEntity
  8
H2
100
AcDbVertex
100
AcDb2dVertex
 10
25.52602047606265
 20
67.06600845221887
 30
0.0
  0
VERTEX
  5
A3
330
4D
100
AcDbEntity
  8
H2
100
AcDbVertex
100
AcDb2dVertex
 10
25.99499959007457
 20
68.42011429169649
 30
0.0
  0
VERTEX
  5
A4
330
4D
100
AcDbEntity
  8
H2
100
AcDbVertex
100
AcDb2dVertex
 10
26.24434271034093
 20
69.94435919909895
 30
0.0
  0
VERTEX
  5
A5
330
4D
100
AcDbEntity
  8
H2
100
AcDbVertex
100
AcDb2dVertex
 10
26.15626354103846
 20
71.59167752133034
 30
0.0
  0
VERTEX
  5
A6
330
4D
100
AcDbEntity
  8
H2
100
AcDbVertex
100
AcDb2dVertex
 10
25.61297578634423
 20
73.31500360529468
 30
0.0
  0
VERTEX
  5
A7
330
4D
100
AcDbEntity
  8
H2
100
AcDbVertex
100
AcDb2dVertex
 10
25.61293168912314
 20
73.31500360529468
 30
0.0
  0
VERTEX
  5
A8
330
4D
100
AcDbEntity
  8
H2
100
AcDbVertex
100
AcDb2dVertex
 10
25.61288759190204
 20
73.31500360529468
 30
0.0
  0
VERTEX
  5
A9
330
4D
100
AcDbEntity
  8
H2
100
AcDbVertex
100
AcDb2dVertex
 10
25.61284349468094
 20
73.31500360529468
 30
0.0
  0
VERTEX
  5
AA
330
4D
100
AcDbEntity
  8
H2
100
AcDbVertex
100
AcDb2dVertex
 10
25.61279939745985
 20
73.31500360529468
 30
0.0
  0
VERTEX
  5
AB
330
4D
100
AcDbEntity
  8
H2
100
AcDbVertex
100
AcDb2dVertex
 10
25.61275530023875
 20
73.31500360529468
 30
0.0
  0
VERTEX
  5
AC
330
4D
100
AcDbEntity
  8
H2
100
AcDbVertex
100
AcDb2dVertex
 10
25.61271120301765
 20
73.31500360529468
 30
0.0
  0
VERTEX
  5
AD
330
4D
100
AcDbEntity
  8
H2
100
AcDbVertex
100
AcDb2dVertex
 10
25.61266710579655
 20
73.31500360529468
 30
0.0
  0
VERTEX
  5
AE
330
4D
100
AcDbEntity
  8
H2
100
AcDbVertex
100
AcDb2dVertex
 10
25.61262300857545
 20
73.31500360529468
 30
0.0
  0
VERTEX
  5
AF
330
4D
100
AcDbEntity
  8
H2
100
AcDbVertex
100
AcDb2dVertex
 10
25.57129667770695
 20
73.406700193667
 30
0.0
  0
VERTEX
  5
B0
330
4D
100
AcDbEntity
  8
H2
100
AcDbVertex
100
AcDb2dVertex
 10
25.47597178376323
 20
73.6082038235088
 30
0.0
  0
VERTEX
  5
B1
330
4D
100
AcDbEntity
  8
H2
100
AcDbVertex
100
AcDb2dVertex
 10
25.32545728836262
 20
73.91065591431693
 30
0.0
  0
VERTEX
  5
B2
330
4D
100
AcDbEntity
  8
H2
100
AcDbVertex
100
AcDb2dVertex
 10
25.11856215312444
 20
74.30519788558763
 30
0.0
  0
VERTEX
  5
B3
330
4D
100
AcDbEntity
  8
H2
100
AcDbVertex
100
AcDb2dVertex
 10
24.85409533966765
 20
74.78297115681842
 30
0.0
  0
VERTEX
  5
B4
330
4D
100
AcDbEntity
  8
H2
100
AcDbVertex
100
AcDb2dVertex
 10
24.53086580961092
 20
75.33511714750617
 30
0.0
  0
VERTEX
  5
B5
330
4D
100
AcDbEntity
  8
H2
100
AcDbVertex
100
AcDb2dVertex
 10
24.14768252457322
 20
75.95277727714775
 30
0.0
  0
VERTEX
  5
B6
330
4D
100
AcDbEntity
  8
H2
100
AcDbVertex
100
AcDb2dVertex
 10
23.70335444617384
 20
76.6270929652394
 30
0.0
  0
VERTEX
  5
B7
330
4D
100
AcDbEntity
  8
H2
100
AcDbVertex
100
AcDb2dVertex
 10
23.70335444617384
 20
76.6270929652394
 30
0.0
  0
SEQEND
  5
B9
330
4D
100
AcDbEntity
  8
H2
  0
HATCH
  5
B8
330
1F
100
AcDbEntity
  8
H2
 62
   152
100
AcDbHatch
 10
0.0
 20
0.0
 30
0.0
210
0.0
220
0.0
230
1.0
  2
SOLID
 70
     1
 71
     0
 91
        1
 92
        1
 93
      104
 72
     1
 10
23.70335444617384
 20
76.6270929652394
 11
22.94728306138295
 21
77.68842799254494
 72
     1
 10
22.94728306138295
 20
77.68842799254494
 11
22.0560873180604
 21
78.82344167759496
 72
     1
 10
22.0560873180604
 20
78.82344167759496
 11
21.02602832307181
 21
80.0049799723724
 72
     1
 10
21.02602832307181
 20
80.0049799723724
 11
19.85336718328409
 21
81.20588882886089
 72
     1
 10
19.85336718328409
 20
81.20588882886089
 11
18.53436500556317
 21
82.39901419904464
 72
     1
 10
18.53436500556317
 20
82.39901419904464
 11
17.065282896775
 21
83.55720203490729
 72
     1
 10
17.065282896775
 20
83.55720203490729
 11
15.44238196378647
 21
84.65329828843241
 72
     1
 10
15.44238196378647
 20
84.65329828843241
 11
13.66192331346321
 21
85.66014891160361
 72
     1
 10
13.66192331346321
 20
85.66014891160361
 11
13.63332982061584
 21
85.67539070364386
 72
     1
 10
13.63332982061584
 20
85.67539070364386
 11
13.55241935215156
 21
85.71720169936859
 72
     1
 10
13.55241935215156
 20
85.71720169936859
 11
13.42459395600604
 21
85.78050407818151
 72
     1
 10
13.42459395600604
 20
85.78050407818151
 11
13.25525568011594
 21
85.86022001948699
 72
     1
 10
13.25525568011594
 20
85.86022001948699
 11
13.04980657241821
 21
85.95127170269
 72
     1
 10
13.04980657241821
 20
85.95127170269
 11
12.81364868084887
 21
86.04858130719555
 72
     1
 10
12.81364868084887
 20
86.04858130719555
 11
12.55218405334455
 21
86.14707101240668
 72
     1
 10
12.55218405334455
 20
86.14707101240668
 11
12.27081473784223
 21
86.24166299772907
 72
     1
 10
12.27081473784223
 20
86.24166299772907
 11
11.97494608653642
 21
86.32632015377291
 72
     1
 10
11.97494608653642
 20
86.32632015377291
 11
11.66870246153673
 21
86.3982599468595
 72
     1
 10
11.66870246153673
 20
86.3982599468595
 11
11.35711425334005
 21
86.45109517012119
 72
     1
 10
11.35711425334005
 20
86.45109517012119
 11
11.0452118524433
 21
86.47843861668906
 72
     1
 10
11.0452118524433
 20
86.47843861668906
 11
10.73802564934273
 21
86.4739030796961
 72
     1
 10
10.73802564934273
 20
86.4739030796961
 11
10.44058603453525
 21
86.43110135227214
 72
     1
 10
10.44058603453525
 20
86.43110135227214
 11
10.15792339851745
 21
86.34364622755078
 72
     1
 10
10.15792339851745
 20
86.34364622755078
 11
9.895068131785909
 21
86.2051504986625
 72
     1
 10
9.895068131785909
 20
86.2051504986625
 11
9.663743347031586
 21
86.00361365810018
 72
     1
 10
9.663743347031586
 20
86.00361365810018
 11
9.47822387909571
 21
85.74635970307467
 72
     1
 10
9.47822387909571
 20
85.74635970307467
 11
9.342329295925301
 21
85.42967537196117
 72
     1
 10
9.342329295925301
 20
85.42967537196117
 11
9.259879165467702
 21
85.04984740313546
 72
     1
 10
9.259879165467702
 20
85.04984740313546
 11
9.234693055670256
 21
84.60316253497398
 72
     1
 10
9.234693055670256
 20
84.60316253497398
 11
9.270590534479663
 21
84.08590750585253
 72
     1
 10
9.270590534479663
 20
84.08590750585253
 11
9.371391169843907
 21
83.49436905414757
 72
     1
 10
9.371391169843907
 20
83.49436905414757
 11
9.54091452971001
 21
82.82483391823425
 72
     1
 10
9.54091452971001
 20
82.82483391823425
 11
10.23642465139761
 21
80.69765425245086
 72
     1
 10
10.23642465139761
 20
80.69765425245086
 11
11.15322523944471
 21
78.30442778355942
 72
     1
 10
11.15322523944471
 20
78.30442778355942
 11
12.22538502274688
 21
75.76907376620981
 72
     1
 10
12.22538502274688
 20
75.76907376620981
 11
13.3869727302
 21
73.21551145505451
 72
     1
 10
13.3869727302
 20
73.21551145505451
 11
14.57205709069962
 21
70.76766010474405
 72
     1
 10
14.57205709069962
 20
70.76766010474405
 11
15.71470683314099
 21
68.54943896992896
 72
     1
 10
15.71470683314099
 20
68.54943896992896
 11
16.74899068641997
 21
66.68476730526169
 72
     1
 10
16.74899068641997
 20
66.68476730526169
 11
17.60897737943213
 21
65.29756436539151
 72
     1
 10
17.60897737943213
 20
65.29756436539151
 11
17.68643745706192
 21
65.18525342858716
 72
     1
 10
17.68643745706192
 20
65.18525342858716
 11
17.7612415107799
 21
65.07936690568137
 72
     1
 10
17.7612415107799
 20
65.07936690568137
 11
17.83344585426718
 21
64.98000236177555
 72
     1
 10
17.83344585426718
 20
64.98000236177555
 11
17.90310680120453
 21
64.8872573619717
 72
     1
 10
17.90310680120453
 20
64.8872573619717
 11
17.97028066527273
 21
64.80122947137126
 72
     1
 10
17.97028066527273
 20
64.80122947137126
 11
18.03502376015226
 21
64.72201625507626
 72
     1
 10
18.03502376015226
 20
64.72201625507626
 11
18.09739239952389
 21
64.64971527818741
 72
     1
 10
18.09739239952389
 20
64.64971527818741
 11
18.15744289706873
 21
64.5844241058081
 72
     1
 10
18.15744289706873
 20
64.5844241058081
 11
18.20171167393005
 21
64.52452120043546
 72
     1
 10
18.20171167393005
 20
64.52452120043546
 11
18.28318890177099
 21
64.4214771568403
 72
     1
 10
18.28318890177099
 20
64.4214771568403
 11
18.40084063895712
 21
64.28408523651723
 72
     1
 10
18.40084063895712
 20
64.28408523651723
 11
18.5536329438534
 21
64.12113870096083
 72
     1
 10
18.5536329438534
 20
64.12113870096083
 11
18.74053187482508
 21
63.94143081166506
 72
     1
 10
18.74053187482508
 20
63.94143081166506
 11
18.96050349023742
 21
63.75375483012451
 72
     1
 10
18.96050349023742
 20
63.75375483012451
 11
19.21251384845571
 21
63.56690401783379
 72
     1
 10
19.21251384845571
 20
63.56690401783379
 11
19.4955290078452
 21
63.38967163628685
 72
     1
 10
19.4955290078452
 20
63.38967163628685
 11
19.83048575548005
 21
63.22054611542803
 72
     1
 10
19.83048575548005
 20
63.22054611542803
 11
20.20036352842429
 21
63.08585280723316
 72
     1
 10
20.20036352842429
 20
63.08585280723316
 11
20.60219483640432
 21
62.99657191975416
 72
     1
 10
20.60219483640432
 20
62.99657191975416
 11
21.03301218914552
 21
62.96368366104488
 72
     1
 10
21.03301218914552
 20
62.96368366104488
 11
21.48984809637333
 21
62.99816823915852
 72
     1
 10
21.48984809637333
 20
62.99816823915852
 11
21.96973506781345
 21
63.11100586214765
 72
     1
 10
21.96973506781345
 20
63.11100586214765
 11
22.46970561319132
 21
63.3131767380661
 72
     1
 10
22.46970561319132
 20
63.3131767380661
 11
22.98679224223265
 21
63.6156610749671
 72
     1
 10
22.98679224223265
 20
63.6156610749671
 11
22.98836892459241
 21
63.6167232667796
 72
     1
 10
22.98836892459241
 20
63.6167232667796
 11
22.989993149269
 21
63.61783506796687
 72
     1
 10
22.989993149269
 20
63.61783506796687
 11
22.99164962003846
 21
63.61897994206917
 72
     1
 10
22.99164962003846
 20
63.61897994206917
 11
22.99332304067714
 21
63.62014135263058
 72
     1
 10
22.99332304067714
 20
63.62014135263058
 11
22.99499811496174
 21
63.62130276319199
 72
     1
 10
22.99499811496174
 20
63.62130276319199
 11
22.99665954666829
 21
63.62244763729429
 72
     1
 10
22.99665954666829
 20
63.62244763729429
 11
22.99829203957379
 21
63.62355943848156
 72
     1
 10
22.99829203957379
 20
63.62355943848156
 11
22.9998802974543
 21
63.6246216302947
 72
     1
 10
22.9998802974543
 20
63.6246216302947
 11
23.09934123512945
 21
63.69400853878904
 72
     1
 10
23.09934123512945
 20
63.69400853878904
 11
23.19928958490178
 21
63.76731748168842
 72
     1
 10
23.19928958490178
 20
63.76731748168842
 11
23.29972989429669
 21
63.84459765495559
 72
     1
 10
23.29972989429669
 20
63.84459765495559
 11
23.4006667108405
 21
63.92589825455197
 72
     1
 10
23.4006667108405
 20
63.92589825455197
 11
23.50210458205922
 21
64.01126847644097
 72
     1
 10
23.50210458205922
 20
64.01126847644097
 11
23.60404805547823
 21
64.10075751658404
 72
     1
 10
23.60404805547823
 20
64.10075751658404
 11
23.70650167862388
 21
64.1944145709439
 72
     1
 10
23.70650167862388
 20
64.1944145709439
 11
23.80946999902217
 21
64.2922888354833
 72
     1
 10
23.80946999902217
 20
64.2922888354833
 11
23.97913012978508
 21
64.49518187229896
 72
     1
 10
23.97913012978508
 20
64.49518187229896
 11
24.4002994500948
 21
65.05647658942448
 72
     1
 10
24.4002994500948
 20
65.05647658942448
 11
24.95519166412841
 21
65.92910733376331
 72
     1
 10
24.95519166412841
 20
65.92910733376331
 11
25.52602047606265
 21
67.06600845221887
 72
     1
 10
25.52602047606265
 20
67.06600845221887
 11
25.99499959007457
 21
68.42011429169649
 72
     1
 10
25.99499959007457
 20
68.42011429169649
 11
26.24434271034093
 21
69.94435919909895
 72
     1
 10
26.24434271034093
 20
69.94435919909895
 11
26.15626354103846
 21
71.59167752133034
 72
     1
 10
26.15626354103846
 20
71.59167752133034
 11
25.61297578634423
 21
73.31500360529468
 72
     1
 10
25.61297578634423
 20
73.31500360529468
 11
25.61293168912314
 21
73.31500360529468
 72
     1
 10
25.61293168912314
 20
73.31500360529468
 11
25.61288759190204
 21
73.31500360529468
 72
     1
 10
25.61288759190204
 20
73.31500360529468
 11
25.61284349468094
 21
73.31500360529468
 72
     1
 10
25.61284349468094
 20
73.31500360529468
 11
25.61279939745985
 21
73.31500360529468
 72
     1
 10
25.61279939745985
 20
73.31500360529468
 11
25.61275530023875
 21
73.31500360529468
 72
     1
 10
25.61275530023875
 20
73.31500360529468
 11
25.61271120301765
 21
73.31500360529468
 72
     1
 10
25.61271120301765
 20
73.31500360529468
 11
25.61266710579655
 21
73.31500360529468
 72
     1
 10
25.61266710579655
 20
73.31500360529468
 11
25.61262300857545
 21
73.31500360529468
 72
     1
 10
25.61262300857545
 20
73.31500360529468
 11
25.57129667770695
 21
73.406700193667
 72
     1
 10
25.57129667770695
 20
73.406700193667
 11
25.47597178376323
 21
73.6082038235088
 72
     1
 10
25.47597178376323
 20
73.6082038235088
 11
25.32545728836262
 21
73.91065591431693
 72
     1
 10
25.32545728836262
 20
73.91065591431693
 11
25.11856215312444
 21
74.30519788558763
 72
     1
 10
25.11856215312444
 20
74.30519788558763
 11
24.85409533966765
 21
74.78297115681842
 72
     1
 10
24.85409533966765
 20
74.78297115681842
 11
24.53086580961092
 21
75.33511714750617
 72
     1
 10
24.53086580961092
 20
75.33511714750617
 11
24.14768252457322
 21
75.95277727714775
 72
     1
 10
24.14768252457322
 20
75.95277727714775
 11
23.70335444617384
 21
76.6270929652394
 97
        0
 75
     2
 76
     1
 98
        0
  0
ENDSEC
  0
SECTION
  2
OBJECTS
  0
DICTIONARY
  5
C
330
0
100
AcDbDictionary
  3
ACAD_GROUP
350
D
  3
ACAD_LAYOUT
350
1A
  3
ACAD_MATERIAL
350
3B
  3
ACAD_MLEADERSTYLE
350
DC
  3
ACAD_MLINESTYLE
350
17
  3
ACAD_PLOTSETTINGS
350
19
  3
ACAD_VISUALSTYLE
350
2A
  3
ACDBHEADERROUNDTRIPXREC
350
BA
  3
ACDBVARIABLEDICTIONARY
350
DA
  0
DICTIONARY
  5
D
102
{ACAD_REACTORS
330
C
102
}
330
C
100
AcDbDictionary
  0
DICTIONARY
  5
1A
102
{ACAD_REACTORS
330
C
102
}
330
C
100
AcDbDictionary
  0
DICTIONARY
  5
3B
102
{ACAD_REACTORS
330
C
102
}
330
C
100
AcDbDictionary
  3
BYBLOCK
350
3D
  3
BYLAYER
350
3C
  3
GLOBAL
350
3E
  0
DICTIONARY
  5
DC
102
{ACAD_REACTORS
330
C
102
}
330
C
100
AcDbDictionary
  0
DICTIONARY
  5
17
102
{ACAD_REACTORS
330
C
102
}
330
C
100
AcDbDictionary
  3
STANDARD
350
18
  0
DICTIONARY
  5
19
102
{ACAD_REACTORS
330
C
102
}
330
C
100
AcDbDictionary
  0
DICTIONARY
  5
2A
102
{ACAD_REACTORS
330
C
102
}
330
C
100
AcDbDictionary
  3
2DWIREFRAME
350
2F
  3
3DWIREFRAME
350
30
  3
3D_HIDDEN
350
31
  3
BASIC
350
32
  3
BRIGHTEN
350
36
  3
COLORCHANGE
350
3A
  3
CONCEPTUAL
350
34
  3
DIM
350
35
  3
FACEPATTERN
350
39
  3
FLAT
350
2B
  3
FLATWITHEDGES
350
2C
  3
GOURAUD
350
2D
  3
GOURAUDWITHEDGES
350
2E
  3
LINEPATTERN
350
38
  3
REALISTIC
350
33
  3
THICKEN
350
37
  0
DICTIONARY
  5
BA
102
{ACAD_REACTORS
330
C
102
}
330
C
100
AcDbDictionary
  3
CEPSNTYPE
350
C3
  3
DIMSTYLEDATA
350
D9
  3
FINGERPRINTGUID
350
C4
  3
HYPERLINKBASE
350
BD
  3
INSUNITS
350
C2
  3
LAYOUTDICT
350
BF
  3
LWETCUNION
350
C1
  3
PLOTSETDICT
350
C0
  3
PSVPSCALE
350
C6
  3
PUCSBASE
350
C9
  3
PUCSORGBACK
350
CF
  3
PUCSORGBOTTOM
350
CB
  3
PUCSORGFRONT
350
CE
  3
PUCSORGLEFT
350
CC
  3
PUCSORGRIGHT
350
CD
  3
PUCSORGTOP
350
CA
  3
PUCSORTHOREF
350
C7
  3
PUCSORTHOVIEW
350
C8
  3
STYLESHEET
350
BE
  3
TSTACKALIGN
350
BB
  3
TSTACKSIZE
350
BC
  3
UCSBASE
350
D2
  3
UCSORGBACK
350
D8
  3
UCSORGBOTTOM
350
D4
  3
UCSORGFRONT
350
D7
  3
UCSORGLEFT
350
D5
  3
UCSORGRIGHT
350
D6
  3
UCSORGTOP
350
D3
  3
UCSORTHOREF
350
D0
  3
UCSORTHOVIEW
350
D1
  3
VERSIONGUID
350
C5
  0
DICTIONARY
  5
DA
102
{ACAD_REACTORS
330
C
102
}
330
C
100
AcDbDictionary
  3
DIMASSOC
350
DD
  3
HIDETEXT
350
DE
  0
MATERIAL
  5
3D
102
{ACAD_REACTORS
330
3B
102
}
102
{ACAD_XDICTIONARY
360
E1
102
}
330
3B
100
AcDbMaterial
  1
ByBlock
  0
MATERIAL
  5
3C
102
{ACAD_REACTORS
330
3B
102
}
102
{ACAD_XDICTIONARY
360
DF
102
}
330
3B
100
AcDbMaterial
  1
ByLayer
  0
MATERIAL
  5
3E
102
{ACAD_REACTORS
330
3B
102
}
102
{ACAD_XDICTIONARY
360
E3
102
}
330
3B
100
AcDbMaterial
  1
Global
  0
MLINESTYLE
  5
18
102
{ACAD_REACTORS
330
17
102
}
330
17
100
AcDbMlineStyle
  2
Standard
 70
     0
  3

 62
   256
 51
90.0
 52
90.0
 71
     2
 49
0.5
 62
   256
  6
BYLAYER
 49
-0.5
 62
   256
  6
BYLAYER
  0
ACAD_PROXY_OBJECT
  5
2F
102
{ACAD_REACTORS
330
2A
102
}
330
2A
100
AcDbProxyObject
 90
      499
 91
      501
 93
      436
310
42CC9915DA5C99599C985B595049028333333333333E3BF0000000000000FB0107901411070040501600405405064090741402480A0340
1001
ACAD
1000
AcDbSavedByObjectVersion
1070
     0
  0
ACAD_PROXY_OBJECT
  5
30
102
{ACAD_REACTORS
330
2A
102
}
330
2A
100
AcDbProxyObject
 90
      499
 91
      501
 93
      436
310
42CCD915DA5C99599C985B595059028333333333333E3BF0000000000000FB0107901411070040501600405405064090741402480A0340
1001
ACAD
1000
AcDbSavedByObjectVersion
1070
     0
  0
ACAD_PROXY_OBJECT
  5
31
102
{ACAD_REACTORS
330
2A
102
}
330
2A
100
AcDbProxyObject
 90
      499
 91
      501
 93
      500
310
424CD108121A5919195B90640502408333333333333E3BF0000000000000FB01079024090700405020000000000001110200405405064090740C02480A0340
1001
ACAD
1000
AcDbSavedByObjectVersion
1070
     0
  0
ACAD_PROXY_OBJECT
  5
32
102
{ACAD_REACTORS
330
2A
102
}
330
2A
100
AcDbProxyObject
 90
      499
 91
      501
 93
      388
310
4150985CDA58D07406404333333333333E3BF0000000000000FB0107A41107004050150841D405064090741402480A0350
1001
ACAD
1000
AcDbSavedByObjectVersion
1070
     0
  0
ACAD_PROXY_OBJECT
  5
36
102
{ACAD_REACTORS
330
2A
102
}
330
2A
100
AcDbProxyObject
 90
      499
 91
      501
 93
      428
310
42109C9A59DA1D195B90C409028333333333333E3BF0000000000000FB010790141107004050150841D405064090741402480A029950
1001
ACAD
1000
AcDbSavedByObjectVersion
1070
     0
  0
ACAD_PROXY_OBJECT
  5
3A
102
{ACAD_REACTORS
330
2A
102
}
330
2A
100
AcDbProxyObject
 90
      499
 91
      501
 93
      452
310
42D0DBDB1BDC90DA185B99D95104090240C333333333333E3BF0000000000000FB0108901411070040501508421405064090741402480A0350
1001
ACAD
1000
AcDbSavedByObjectVersion
1070
     0
  0
ACAD_PROXY_OBJECT
  5
34
102
{ACAD_REACTORS
330
2A
102
}
330
2A
100
AcDbProxyObject
 90
      499
 91
      501
 93
      500
310
4290DBDB98D95C1D1D585B10940D028333333333333E3BF0000000000000FB0107902409070040501000000000000111010841D405064090740C02480A0340
1001
ACAD
1000
AcDbSavedByObjectVersion
1070
     0
  0
ACAD_PROXY_OBJECT
  5
35
102
{ACAD_REACTORS
330
2A
102
}
330
2A
100
AcDbProxyObject
 90
      499
 91
      501
 93
      412
310
40D11A5B50B409028333333333333E3BF0000000000000FB010790141107004050150841D405064090741402480A02677FFFFFD0
1001
ACAD
1000
AcDbSavedByObjectVersion
1070
     0
  0
ACAD_PROXY_OBJECT
  5
39
102
{ACAD_REACTORS
330
2A
102
}
330
2A
100
AcDbProxyObject
 90
      499
 91
      501
 93
      444
310
42D19858D95C185D1D195C9B90F409028333333333333E3BF0000000000000FB010790141107004050150841D405064090741402480A0350
1001
ACAD
1000
AcDbSavedByObjectVersion
1070
     0
  0
ACAD_PROXY_OBJECT
  5
2B
102
{ACAD_REACTORS
330
2A
102
}
330
2A
100
AcDbProxyObject
 90
      499
 91
      501
 93
      388
310
41119B185D240901404333333333333E3BF0000000000000F9010740A41107004050150841D405064090741402480A1B50
1001
ACAD
1000
AcDbSavedByObjectVersion
1070
     0
  0
ACAD_PROXY_OBJECT
  5
2C
102
{ACAD_REACTORS
330
2A
102
}
330
2A
100
AcDbProxyObject
 90
      499
 91
      501
 93
      476
310
43519B185D15DA5D1A115919D95CD0140901404333333333333E3BF0000000000000F9010740901411070040501600405405064090741402480A1B50
1001
ACAD
1000
AcDbSavedByObjectVersion
1070
     0
  0
ACAD_PROXY_OBJECT
  5
2D
102
{ACAD_REACTORS
330
2A
102
}
330
2A
100
AcDbProxyObject
 90
      499
 91
      501
 93
      412
310
41D1DBDD5C985D5910240902404333333333333E3BF0000000000000F9010740A411070040501641D405064090741402480A1B50
1001
ACAD
1000
AcDbSavedByObjectVersion
1070
     0
  0
ACAD_PROXY_OBJECT
  5
2E
102
{ACAD_REACTORS
330
2A
102
}
330
2A
100
AcDbProxyObject
 90
      499
 91
      501
 93
      500
310
4411DBDD5C985D5915DA5D1A115919D95CD0340902404333333333333E3BF0000000000000F9010740901411070040501600405405064090741402480A1B50
1001
ACAD
1000
AcDbSavedByObjectVersion
1070
     0
  0
ACAD_PROXY_OBJECT
  5
38
102
{ACAD_REACTORS
330
2A
102
}
330
2A
100
AcDbProxyObject
 90
      499
 91
      501
 93
      444
310
42D31A5B995C185D1D195C9B90E409028333333333333E3BF0000000000000FB010790141107004050750841D405064090741402483A0350
1001
ACAD
1000
AcDbSavedByObjectVersion
1070
     0
  0
ACAD_PROXY_OBJECT
  5
33
102
{ACAD_REACTORS
330
2A
102
}
330
2A
100
AcDbProxyObject
 90
      499
 91
      501
 93
      420
310
425499585B1A5CDD1A58D08409028333333333333E3BF0000000000000FB01079019070040501508421405064090741402480A1B40
1001
ACAD
1000
AcDbSavedByObjectVersion
1070
     0
  0
ACAD_PROXY_OBJECT
  5
37
102
{ACAD_REACTORS
330
2A
102
}
330
2A
100
AcDbProxyObject
 90
      499
 91
      501
 93
      412
310
41D51A1A58DAD95B90D409028333333333333E3BF0000000000000FB010790141107004050150C41D405064090741402480A0350
1001
ACAD
1000
AcDbSavedByObjectVersion
1070
     0
  0
XRECORD
  5
C3
102
{ACAD_REACTORS
330
BA
102
}
330
BA
100
AcDbXrecord
 90
        0
  0
XRECORD
  5
D9
102
{ACAD_REACTORS
330
BA
102
}
330
BA
100
AcDbXrecord
1000
DSTYLE
1002
{
1070
   340
340
11
1002
}
  0
XRECORD
  5
C4
102
{ACAD_REACTORS
330
BA
102
}
330
BA
100
AcDbXrecord
  1
{40FB50D6-2CB5-9DAA-57E1-981F42EF20D3}
  0
XRECORD
  5
BD
102
{ACAD_REACTORS
330
BA
102
}
330
BA
100
AcDbXrecord
  1

  0
XRECORD
  5
C2
102
{ACAD_REACTORS
330
BA
102
}
330
BA
100
AcDbXrecord
 90
        4
  0
XRECORD
  5
BF
102
{ACAD_REACTORS
330
BA
102
}
330
BA
100
AcDbXrecord
340
1A
  0
XRECORD
  5
C1
102
{ACAD_REACTORS
330
BA
102
}
330
BA
100
AcDbXrecord
 90
    10269
  0
XRECORD
  5
C0
102
{ACAD_REACTORS
330
BA
102
}
330
BA
100
AcDbXrecord
340
19
  0
XRECORD
  5
C6
102
{ACAD_REACTORS
330
BA
102
}
330
BA
100
AcDbXrecord
 40
0.0
  0
XRECORD
  5
C9
102
{ACAD_REACTORS
330
BA
102
}
330
BA
100
AcDbXrecord
340
0
  0
XRECORD
  5
CF
102
{ACAD_REACTORS
330
BA
102
}
330
BA
100
AcDbXrecord
 10
0.0
 20
0.0
 30
0.0
  0
XRECORD
  5
CB
102
{ACAD_REACTORS
330
BA
102
}
330
BA
100
AcDbXrecord
 10
0.0
 20
0.0
 30
0.0
  0
XRECORD
  5
CE
102
{ACAD_REACTORS
330
BA
102
}
330
BA
100
AcDbXrecord
 10
0.0
 20
0.0
 30
0.0
  0
XRECORD
  5
CC
102
{ACAD_REACTORS
330
BA
102
}
330
BA
100
AcDbXrecord
 10
0.0
 20
0.0
 30
0.0
  0
XRECORD
  5
CD
102
{ACAD_REACTORS
330
BA
102
}
330
BA
100
AcDbXrecord
 10
0.0
 20
0.0
 30
0.0
  0
XRECORD
  5
CA
102
{ACAD_REACTORS
330
BA
102
}
330
BA
100
AcDbXrecord
 10
0.0
 20
0.0
 30
0.0
  0
XRECORD
  5
C7
102
{ACAD_REACTORS
330
BA
102
}
330
BA
100
AcDbXrecord
340
0
  0
XRECORD
  5
C8
102
{ACAD_REACTORS
330
BA
102
}
330
BA
100
AcDbXrecord
 70
     0
  0
XRECORD
  5
BE
102
{ACAD_REACTORS
330
BA
102
}
330
BA
100
AcDbXrecord
  1

  0
XRECORD
  5
BB
102
{ACAD_REACTORS
330
BA
102
}
330
BA
100
AcDbXrecord
 90
        1
  0
XRECORD
  5
BC
102
{ACAD_REACTORS
330
BA
102
}
330
BA
100
AcDbXrecord
 90
       70
  0
XRECORD
  5
D2
102
{ACAD_REACTORS
330
BA
102
}
330
BA
100
AcDbXrecord
340
0
  0
XRECORD
  5
D8
102
{ACAD_REACTORS
330
BA
102
}
330
BA
100
AcDbXrecord
 10
0.0
 20
0.0
 30
0.0
  0
XRECORD
  5
D4
102
{ACAD_REACTORS
330
BA
102
}
330
BA
100
AcDbXrecord
 10
0.0
 20
0.0
 30
0.0
  0
XRECORD
  5
D7
102
{ACAD_REACTORS
330
BA
102
}
330
BA
100
AcDbXrecord
 10
0.0
 20
0.0
 30
0.0
  0
XRECORD
  5
D5
102
{ACAD_REACTORS
330
BA
102
}
330
BA
100
AcDbXrecord
 10
0.0
 20
0.0
 30
0.0
  0
XRECORD
  5
D6
102
{ACAD_REACTORS
330
BA
102
}
330
BA
100
AcDbXrecord
 10
0.0
 20
0.0
 30
0.0
  0
XRECORD
  5
D3
102
{ACAD_REACTORS
330
BA
102
}
330
BA
100
AcDbXrecord
 10
0.0
 20
0.0
 30
0.0
  0
XRECORD
  5
D0
102
{ACAD_REACTORS
330
BA
102
}
330
BA
100
AcDbXrecord
340
0
  0
XRECORD
  5
D1
102
{ACAD_REACTORS
330
BA
102
}
330
BA
100
AcDbXrecord
 70
     0
  0
XRECORD
  5
C5
102
{ACAD_REACTORS
330
BA
102
}
330
BA
100
AcDbXrecord
  1
{FAEB1C32-E019-11D5-929B-00C0DF256EC4}
  0
DICTIONARYVAR
  5
DD
102
{ACAD_REACTORS
330
DA
102
}
330
DA
100
DictionaryVariables
280
     0
  1
2
  0
DICTIONARYVAR
  5
DE
102
{ACAD_REACTORS
330
DA
102
}
330
DA
100
DictionaryVariables
280
     0
  1
1
  0
DICTIONARY
  5
E1
330
3D
100
AcDbDictionary
280
     1
  3
ACAD_XREC_ROUNDTRIP
360
E2
  0
DICTIONARY
  5
DF
330
3C
100
AcDbDictionary
280
     1
  3
ACAD_XREC_ROUNDTRIP
360
E0
  0
DICTIONARY
  5
E3
330
3E
100
AcDbDictionary
280
     1
  3
ACAD_XREC_ROUNDTRIP
360
E4
  0
XRECORD
  5
E2
102
{ACAD_REACTORS
330
E1
102
}
330
E1
100
AcDbXrecord
102
MATERIAL
148
0.0
149
0.0
149
0.0
 93
        0
 94
      127
282
     0
 72
     1
 77
     1
171
     1
175
     1
179
     1
273
     0
  0
XRECORD
  5
E0
102
{ACAD_REACTORS
330
DF
102
}
330
DF
100
AcDbXrecord
102
MATERIAL
148
0.0
149
0.0
149
0.0
 93
        0
 94
      127
282
     0
 72
     1
 77
     1
171
     1
175
     1
179
     1
273
     0
  0
XRECORD
  5
E4
102
{ACAD_REACTORS
330
E3
102
}
330
E3
100
AcDbXrecord
102
MATERIAL
148
0.0
149
0.0
149
0.0
 93
        0
 94
      127
282
     0
 72
     1
 77
     1
171
     1
175
     1
179
     1
273
     0
  0
ENDSEC
  0
EOF
