  0
SECTION
  2
HEADER
  9
$ACADVER
  1
AC1014
  9
$ACADMAINTVER
 70
     9
  9
$DWGCODEPAGE
  3
UNDEFINED
  9
$INSBASE
 10
0.0
 20
0.0
 30
0.0
  9
$EXTMIN
 10
1.000000000000000E+20
 20
1.000000000000000E+20
 30
1.000000000000000E+20
  9
$EXTMAX
 10
-1.000000000000000E+20
 20
-1.000000000000000E+20
 30
-1.000000000000000E+20
  9
$LIMMIN
 10
0.0
 20
0.0
  9
$LIMMAX
 10
12.0
 20
9.0
  9
$ORTHOMODE
 70
     0
  9
$REGENMODE
 70
     1
  9
$FILLMODE
 70
     1
  9
$QTEXTMODE
 70
     0
  9
$MIRRTEXT
 70
     1
  9
$DRAGMODE
 70
     2
  9
$LTSCALE
 40
1.0
  9
$OSMODE
 70
    37
  9
$ATTMODE
 70
     1
  9
$TEXTSIZE
 40
0.2
  9
$TRACEWID
 40
0.05
  9
$TEXTSTYLE
  7
STANDARD
  9
$CLAYER
  8
0
  9
$CELTYPE
  6
BYLAYER
  9
$CECOLOR
 62
   256
  9
$CELTSCALE
 40
1.0
  9
$DELOBJ
 70
     1
  9
$DISPSILH
 70
     0
  9
$DIMSCALE
 40
1.0
  9
$DIMASZ
 40
0.18
  9
$DIMEXO
 40
0.0625
  9
$DIMDLI
 40
0.38
  9
$DIMRND
 40
0.0
  9
$DIMDLE
 40
0.0
  9
$DIMEXE
 40
0.18
  9
$DIMTP
 40
0.0
  9
$DIMTM
 40
0.0
  9
$DIMTXT
 40
0.18
  9
$DIMCEN
 40
0.09
  9
$DIMTSZ
 40
0.0
  9
$DIMTOL
 70
     0
  9
$DIMLIM
 70
     0
  9
$DIMTIH
 70
     1
  9
$DIMTOH
 70
     1
  9
$DIMSE1
 70
     0
  9
$DIMSE2
 70
     0
  9
$DIMTAD
 70
     0
  9
$DIMZIN
 70
     0
  9
$DIMBLK
  1

  9
$DIMASO
 70
     1
  9
$DIMSHO
 70
     1
  9
$DIMPOST
  1

  9
$DIMAPOST
  1

  9
$DIMALT
 70
     0
  9
$DIMALTD
 70
     2
  9
$DIMALTF
 40
25.4
  9
$DIMLFAC
 40
1.0
  9
$DIMTOFL
 70
     0
  9
$DIMTVP
 40
0.0
  9
$DIMTIX
 70
     0
  9
$DIMSOXD
 70
     0
  9
$DIMSAH
 70
     0
  9
$DIMBLK1
  1

  9
$DIMBLK2
  1

  9
$DIMSTYLE
  2
STANDARD
  9
$DIMCLRD
 70
     0
  9
$DIMCLRE
 70
     0
  9
$DIMCLRT
 70
     0
  9
$DIMTFAC
 40
1.0
  9
$DIMGAP
 40
0.09
  9
$DIMJUST
 70
     0
  9
$DIMSD1
 70
     0
  9
$DIMSD2
 70
     0
  9
$DIMTOLJ
 70
     1
  9
$DIMTZIN
 70
     0
  9
$DIMALTZ
 70
     0
  9
$DIMALTTZ
 70
     0
  9
$DIMFIT
 70
     3
  9
$DIMUPT
 70
     0
  9
$DIMUNIT
 70
     2
  9
$DIMDEC
 70
     4
  9
$DIMTDEC
 70
     4
  9
$DIMALTU
 70
     2
  9
$DIMALTTD
 70
     2
  9
$DIMTXSTY
  7
STANDARD
  9
$DIMAUNIT
 70
     0
  9
$LUNITS
 70
     2
  9
$LUPREC
 70
     4
  9
$SKETCHINC
 40
0.1
  9
$FILLETRAD
 40
0.5
  9
$AUNITS
 70
     0
  9
$AUPREC
 70
     0
  9
$MENU
  1
.
  9
$ELEVATION
 40
0.0
  9
$PELEVATION
 40
0.0
  9
$THICKNESS
 40
0.0
  9
$LIMCHECK
 70
     0
  9
$CHAMFERA
 40
0.5
  9
$CHAMFERB
 40
0.5
  9
$CHAMFERC
 40
1.0
  9
$CHAMFERD
 40
0.0
  9
$SKPOLY
 70
     0
  9
$TDCREATE
 40
2458968.636203704
  9
$TDUPDATE
 40
2458968.636203704
  9
$TDINDWG
 40
0.0000000116
  9
$TDUSRTIMER
 40
0.0000000116
  9
$USRTIMER
 70
     1
  9
$ANGBASE
 50
0.0
  9
$ANGDIR
 70
     0
  9
$PDMODE
 70
     0
  9
$PDSIZE
 40
0.0
  9
$PLINEWID
 40
0.0
  9
$COORDS
 70
     1
  9
$SPLFRAME
 70
     0
  9
$SPLINETYPE
 70
     6
  9
$SPLINESEGS
 70
     8
  9
$ATTDIA
 70
     0
  9
$ATTREQ
 70
     1
  9
$HANDLING
 70
     1
  9
$HANDSEED
  5
EB
  9
$SURFTAB1
 70
     6
  9
$SURFTAB2
 70
     6
  9
$SURFTYPE
 70
     6
  9
$SURFU
 70
     6
  9
$SURFV
 70
     6
  9
$UCSNAME
  2

  9
$UCSORG
 10
0.0
 20
0.0
 30
0.0
  9
$UCSXDIR
 10
1.0
 20
0.0
 30
0.0
  9
$UCSYDIR
 10
0.0
 20
1.0
 30
0.0
  9
$PUCSNAME
  2

  9
$PUCSORG
 10
0.0
 20
0.0
 30
0.0
  9
$PUCSXDIR
 10
1.0
 20
0.0
 30
0.0
  9
$PUCSYDIR
 10
0.0
 20
1.0
 30
0.0
  9
$USERI1
 70
     0
  9
$USERI2
 70
     0
  9
$USERI3
 70
     0
  9
$USERI4
 70
     0
  9
$USERI5
 70
     0
  9
$USERR1
 40
0.0
  9
$USERR2
 40
0.0
  9
$USERR3
 40
0.0
  9
$USERR4
 40
0.0
  9
$USERR5
 40
0.0
  9
$WORLDVIEW
 70
     1
  9
$SHADEDGE
 70
     3
  9
$SHADEDIF
 70
    70
  9
$TILEMODE
 70
     1
  9
$MAXACTVP
 70
    64
  9
$PINSBASE
 10
0.0
 20
0.0
 30
0.0
  9
$PLIMCHECK
 70
     0
  9
$PEXTMIN
 10
1.000000000000000E+20
 20
1.000000000000000E+20
 30
1.000000000000000E+20
  9
$PEXTMAX
 10
-1.000000000000000E+20
 20
-1.000000000000000E+20
 30
-1.000000000000000E+20
  9
$PLIMMIN
 10
0.0
 20
0.0
  9
$PLIMMAX
 10
12.0
 20
9.0
  9
$UNITMODE
 70
     0
  9
$VISRETAIN
 70
     1
  9
$PLINEGEN
 70
     0
  9
$PSLTSCALE
 70
     1
  9
$TREEDEPTH
 70
  3020
  9
$PICKSTYLE
 70
     1
  9
$CMLSTYLE
  2
STANDARD
  9
$CMLJUST
 70
     0
  9
$CMLSCALE
 40
1.0
  9
$PROXYGRAPHICS
 70
     1
  9
$MEASUREMENT
 70
     0
  0
ENDSEC
  0
SECTION
  2
CLASSES
  0
CLASS
  1
ACDBDICTIONARYWDFLT
  2
AcDbDictionaryWithDefault
  3
ObjectDBX Classes
 90
        0
280
     0
281
     0
  0
CLASS
  1
VISUALSTYLE
  2
AcDbVisualStyle
  3
ObjectDBX Classes
 90
     4095
280
     0
281
     0
  0
CLASS
  1
MATERIAL
  2
AcDbMaterial
  3
ObjectDBX Classes
 90
     1153
280
     0
281
     0
  0
CLASS
  1
SUN
  2
AcDbSun
  3
SCENEOE
 90
     1024
280
     0
281
     0
  0
CLASS
  1
DICTIONARYVAR
  2
AcDbDictionaryVar
  3
ObjectDBX Classes
 90
        0
280
     0
281
     0
  0
CLASS
  1
XRECORD
  2
AcDbXrecord
  3
AutoCAD 2000
 90
        0
280
     0
281
     0
  0
CLASS
  1
LWPOLYLINE
  2
AcDbPolyline
  3
AutoCAD 2000
 90
        0
280
     0
281
     1
  0
CLASS
  1
HATCH
  2
AcDbHatch
  3
AutoCAD 2000
 90
        0
280
     0
281
     1
  0
CLASS
  1
ACDBPLACEHOLDER
  2
AcDbPlaceHolder
  3
ObjectDBX Classes
 90
        0
280
     0
281
     0
  0
CLASS
  1
LAYOUT
  2
AcDbLayout
  3
ObjectDBX Classes
 90
        0
280
     0
281
     0
  0
ENDSEC
  0
SECTION
  2
TABLES
  0
TABLE
  2
VPORT
  5
8
330
0
100
AcDbSymbolTable
 70
     1
  0
VPORT
  5
29
330
8
100
AcDbSymbolTableRecord
100
AcDbViewportTableRecord
  2
*ACTIVE
 70
     0
 10
0.0
 20
0.0
 11
1.0
 21
1.0
 12
0.0
 22
0.0
 13
0.0
 23
0.0
 14
0.5
 24
0.5
 15
0.5
 25
0.5
 16
0.0
 26
0.0
 36
1.0
 17
104.9999989878935
 27
148.4996183011652
 37
0.0
 40
297.0000052006764
 41
0.7070706878738762
 42
50.0
 43
0.0
 44
0.0
 50
0.0
 51
0.0
 71
     0
 72
   100
 73
     1
 74
     3
 75
     0
 76
     0
 77
     0
 78
     0
  0
ENDTAB
  0
TABLE
  2
LTYPE
  5
5
330
0
100
AcDbSymbolTable
 70
     1
  0
LTYPE
  5
14
330
5
100
AcDbSymbolTableRecord
100
AcDbLinetypeTableRecord
  2
BYBLOCK
 70
     0
  3

 72
    65
 73
     0
 40
0.0
  0
LTYPE
  5
15
330
5
100
AcDbSymbolTableRecord
100
AcDbLinetypeTableRecord
  2
BYLAYER
 70
     0
  3

 72
    65
 73
     0
 40
0.0
  0
LTYPE
  5
16
330
5
100
AcDbSymbolTableRecord
100
AcDbLinetypeTableRecord
  2
CONTINUOUS
 70
     0
  3
Solid line
 72
    65
 73
     0
 40
0.0
  0
ENDTAB
  0
TABLE
  2
LAYER
  5
2
330
0
100
AcDbSymbolTable
 70
    12
  0
LAYER
  5
10
330
2
100
AcDbSymbolTableRecord
100
AcDbLayerTableRecord
  2
0
 70
     0
 62
     7
  6
CONTINUOUS
  0
LAYER
  5
40
330
2
100
AcDbSymbolTableRecord
100
AcDbLayerTableRecord
  2
OUTLINE
 70
     5
 62
     7
  6
CONTINUOUS
  0
LAYER
  5
41
330
2
100
AcDbSymbolTableRecord
100
AcDbLayerTableRecord
  2
OUTLINE_U_306E_U_30B3_U_30
 70
     4
 62
     7
  6
CONTINUOUS
  0
LAYER
  5
42
330
2
100
AcDbSymbolTableRecord
100
AcDbLayerTableRecord
  2
L2-SILK
 70
     5
 62
     7
  6
CONTINUOUS
  0
LAYER
  5
43
330
2
100
AcDbSymbolTableRecord
100
AcDbLayerTableRecord
  2
L2-PATTERN
 70
     5
 62
     7
  6
CONTINUOUS
  0
LAYER
  5
44
330
2
100
AcDbSymbolTableRecord
100
AcDbLayerTableRecord
  2
L2-RESIST
 70
     5
 62
     7
  6
CONTINUOUS
  0
LAYER
  5
45
330
2
100
AcDbSymbolTableRecord
100
AcDbLayerTableRecord
  2
L1-PATTERN
 70
     5
 62
     7
  6
CONTINUOUS
  0
LAYER
  5
46
330
2
100
AcDbSymbolTableRecord
100
AcDbLayerTableRecord
  2
L1-RESIST
 70
     5
 62
     7
  6
CONTINUOUS
  0
LAYER
  5
47
330
2
100
AcDbSymbolTableRecord
100
AcDbLayerTableRecord
  2
L1-SILK
 70
     5
 62
     7
  6
CONTINUOUS
  0
LAYER
  5
48
330
2
100
AcDbSymbolTableRecord
100
AcDbLayerTableRecord
  2
DRILL
 70
     5
 62
     7
  6
CONTINUOUS
  0
LAYER
  5
49
330
2
100
AcDbSymbolTableRecord
100
AcDbLayerTableRecord
  2
HANE
 70
     0
 62
     7
  6
CONTINUOUS
  0
LAYER
  5
BF
330
2
100
AcDbSymbolTableRecord
100
AcDbLayerTableRecord
  2
L2-RESIST_U_306E_U_30B3_U_
 70
     0
 62
     7
  6
CONTINUOUS
  0
ENDTAB
  0
TABLE
  2
STYLE
  5
3
330
0
100
AcDbSymbolTable
 70
     1
  0
STYLE
  5
11
330
3
100
AcDbSymbolTableRecord
100
AcDbTextStyleTableRecord
  2
STANDARD
 70
     0
 40
0.0
 41
1.0
 50
0.0
 71
     0
 42
0.2
  3
txt
  4

  0
ENDTAB
  0
TABLE
  2
VIEW
  5
6
330
0
100
AcDbSymbolTable
 70
     0
  0
ENDTAB
  0
TABLE
  2
UCS
  5
7
330
0
100
AcDbSymbolTable
 70
     0
  0
ENDTAB
  0
TABLE
  2
APPID
  5
9
330
0
100
AcDbSymbolTable
 70
     1
  0
APPID
  5
12
330
9
100
AcDbSymbolTableRecord
100
AcDbRegAppTableRecord
  2
ACAD
 70
     0
  0
ENDTAB
  0
TABLE
  2
DIMSTYLE
  5
A
330
0
100
AcDbSymbolTable
 70
     1
  0
DIMSTYLE
105
27
330
A
100
AcDbSymbolTableRecord
100
AcDbDimStyleTableRecord
  2
STANDARD
 70
     0
  3

  4

  5

  6

  7

 40
1.0
 41
0.18
 42
0.0625
 43
0.38
 44
0.18
 45
0.0
 46
0.0
 47
0.0
 48
0.0
140
0.18
141
0.09
142
0.0
143
25.4
144
1.0
145
0.0
146
1.0
147
0.09
 71
     0
 72
     0
 73
     1
 74
     1
 75
     0
 76
     0
 77
     0
 78
     0
170
     0
171
     2
172
     0
173
     0
174
     0
175
     0
176
     0
177
     0
178
     0
270
     2
271
     4
272
     4
273
     2
274
     2
340
11
275
     0
280
     0
281
     0
282
     0
283
     1
284
     0
285
     0
286
     0
287
     3
288
     0
  0
ENDTAB
  0
TABLE
  2
BLOCK_RECORD
  5
1
330
0
100
AcDbSymbolTable
 70
     1
  0
BLOCK_RECORD
  5
1F
330
1
100
AcDbSymbolTableRecord
100
AcDbBlockTableRecord
  2
*MODEL_SPACE
  0
BLOCK_RECORD
  5
1B
330
1
100
AcDbSymbolTableRecord
100
AcDbBlockTableRecord
  2
*PAPER_SPACE
  0
ENDTAB
  0
ENDSEC
  0
SECTION
  2
BLOCKS
  0
BLOCK
  5
20
330
1F
100
AcDbEntity
  8
0
100
AcDbBlockBegin
  2
*MODEL_SPACE
 70
     0
 10
0.0
 20
0.0
 30
0.0
  3
*MODEL_SPACE
  1

  0
ENDBLK
  5
21
330
1F
100
AcDbEntity
  8
0
100
AcDbBlockEnd
  0
BLOCK
  5
1C
330
1B
100
AcDbEntity
 67
     1
  8
0
100
AcDbBlockBegin
  2
*PAPER_SPACE
 70
     0
 10
0.0
 20
0.0
 30
0.0
  3
*PAPER_SPACE
  1

  0
ENDBLK
  5
1D
330
1B
100
AcDbEntity
 67
     1
  8
0
100
AcDbBlockEnd
  0
ENDSEC
  0
SECTION
  2
ENTITIES
  0
POLYLINE
  5
4A
330
1F
100
AcDbEntity
  8
HANE
100
AcDb2dPolyline
 66
     1
 10
0.0
 20
0.0
 30
0.0
  0
VERTEX
  5
4B
330
4A
100
AcDbEntity
  8
HANE
100
AcDbVertex
100
AcDb2dVertex
 10
17.35437766370529
 20
53.09780356552223
 30
0.0
  0
VERTEX
  5
4C
330
4A
100
AcDbEntity
  8
HANE
100
AcDbVertex
100
AcDb2dVertex
 10
17.21189644175441
 20
53.00659618842136
 30
0.0
  0
VERTEX
  5
4D
330
4A
100
AcDbEntity
  8
HANE
100
AcDbVertex
100
AcDb2dVertex
 10
17.07474119948537
 20
52.92913396148416
 30
0.0
  0
VERTEX
  5
4E
330
4A
100
AcDbEntity
  8
HANE
100
AcDbVertex
100
AcDb2dVertex
 10
16.94348864586751
 20
52.86430237379645
 30
0.0
  0
VERTEX
  5
4F
330
4A
100
AcDbEntity
  8
HANE
100
AcDbVertex
100
AcDb2dVertex
 10
16.81871548987117
 20
52.81098691444274
 30
0.0
  0
VERTEX
  5
50
330
4A
100
AcDbEntity
  8
HANE
100
AcDbVertex
100
AcDb2dVertex
 10
16.70099844046569
 20
52.76807307250757
 30
0.0
  0
VERTEX
  5
51
330
4A
100
AcDbEntity
  8
HANE
100
AcDbVertex
100
AcDb2dVertex
 10
16.59091420662041
 20
52.73444633707738
 30
0.0
  0
VERTEX
  5
52
330
4A
100
AcDbEntity
  8
HANE
100
AcDbVertex
100
AcDb2dVertex
 10
16.48903949730533
 20
52.70899219723604
 30
0.0
  0
VERTEX
  5
53
330
4A
100
AcDbEntity
  8
HANE
100
AcDbVertex
100
AcDb2dVertex
 10
16.39595102149012
 20
52.6905961420681
 30
0.0
  0
VERTEX
  5
54
330
4A
100
AcDbEntity
  8
HANE
100
AcDbVertex
100
AcDb2dVertex
 10
16.35282028745595
 20
52.68384672153158
 30
0.0
  0
VERTEX
  5
55
330
4A
100
AcDbEntity
  8
HANE
100
AcDbVertex
100
AcDb2dVertex
 10
16.31208858005337
 20
52.67850570482407
 30
0.0
  0
VERTEX
  5
56
330
4A
100
AcDbEntity
  8
HANE
100
AcDbVertex
100
AcDb2dVertex
 10
16.27383320722272
 20
52.67442669794418
 30
0.0
  0
VERTEX
  5
57
330
4A
100
AcDbEntity
  8
HANE
100
AcDbVertex
100
AcDb2dVertex
 10
16.23813147690533
 20
52.67146330689118
 30
0.0
  0
VERTEX
  5
58
330
4A
100
AcDbEntity
  8
HANE
100
AcDbVertex
100
AcDb2dVertex
 10
16.20506069704152
 20
52.66946913766434
 30
0.0
  0
VERTEX
  5
59
330
4A
100
AcDbEntity
  8
HANE
100
AcDbVertex
100
AcDb2dVertex
 10
16.1746981755723
 20
52.66829779626357
 30
0.0
  0
VERTEX
  5
5A
330
4A
100
AcDbEntity
  8
HANE
100
AcDbVertex
100
AcDb2dVertex
 10
16.14712122043831
 20
52.66780288868748
 30
0.0
  0
VERTEX
  5
5B
330
4A
100
AcDbEntity
  8
HANE
100
AcDbVertex
100
AcDb2dVertex
 10
16.12240713957992
 20
52.667838020936
 30
0.0
  0
VERTEX
  5
5C
330
4A
100
AcDbEntity
  8
HANE
100
AcDbVertex
100
AcDb2dVertex
 10
16.10107648691241
 20
52.6681021219494
 30
0.0
  0
VERTEX
  5
5D
330
4A
100
AcDbEntity
  8
HANE
100
AcDbVertex
100
AcDb2dVertex
 10
16.08320691488572
 20
52.6687866624049
 30
0.0
  0
VERTEX
  5
5E
330
4A
100
AcDbEntity
  8
HANE
100
AcDbVertex
100
AcDb2dVertex
 10
16.06860825423384
 20
52.66972999842677
 30
0.0
  0
VERTEX
  5
5F
330
4A
100
AcDbEntity
  8
HANE
100
AcDbVertex
100
AcDb2dVertex
 10
16.05709033569074
 20
52.67077048613929
 30
0.0
  0
VERTEX
  5
60
330
4A
100
AcDbEntity
  8
HANE
100
AcDbVertex
100
AcDb2dVertex
 10
16.04846298999072
 20
52.67174648166543
 30
0.0
  0
VERTEX
  5
61
330
4A
100
AcDbEntity
  8
HANE
100
AcDbVertex
100
AcDb2dVertex
 10
16.04253604786744
 20
52.67249634113011
 30
0.0
  0
VERTEX
  5
62
330
4A
100
AcDbEntity
  8
HANE
100
AcDbVertex
100
AcDb2dVertex
 10
16.03911934005552
 20
52.67285842065693
 30
0.0
  0
VERTEX
  5
63
330
4A
100
AcDbEntity
  8
HANE
100
AcDbVertex
100
AcDb2dVertex
 10
16.03802269728831
 20
52.6726710763689
 30
0.0
  0
VERTEX
  5
64
330
4A
100
AcDbEntity
  8
HANE
100
AcDbVertex
100
AcDb2dVertex
 10
16.01920200332401
 20
52.67568291656952
 30
0.0
  0
VERTEX
  5
65
330
4A
100
AcDbEntity
  8
HANE
100
AcDbVertex
100
AcDb2dVertex
 10
16.00038130935973
 20
52.67869475677078
 30
0.0
  0
VERTEX
  5
66
330
4A
100
AcDbEntity
  8
HANE
100
AcDbVertex
100
AcDb2dVertex
 10
15.98156061539544
 20
52.68170659697204
 30
0.0
  0
VERTEX
  5
67
330
4A
100
AcDbEntity
  8
HANE
100
AcDbVertex
100
AcDb2dVertex
 10
15.96273992143115
 20
52.68471843717266
 30
0.0
  0
VERTEX
  5
68
330
4A
100
AcDbEntity
  8
HANE
100
AcDbVertex
100
AcDb2dVertex
 10
15.94391922746686
 20
52.68773027737328
 30
0.0
  0
VERTEX
  5
69
330
4A
100
AcDbEntity
  8
HANE
100
AcDbVertex
100
AcDb2dVertex
 10
15.92509853350257
 20
52.6907421175739
 30
0.0
  0
VERTEX
  5
6A
330
4A
100
AcDbEntity
  8
HANE
100
AcDbVertex
100
AcDb2dVertex
 10
15.90627783953828
 20
52.69375395777451
 30
0.0
  0
VERTEX
  5
6B
330
4A
100
AcDbEntity
  8
HANE
100
AcDbVertex
100
AcDb2dVertex
 10
15.887457145574
 20
52.69676579797577
 30
0.0
  0
VERTEX
  5
6C
330
4A
100
AcDbEntity
  8
HANE
100
AcDbVertex
100
AcDb2dVertex
 10
15.88172891655347
 20
52.6787653123239
 30
0.0
  0
VERTEX
  5
6D
330
4A
100
AcDbEntity
  8
HANE
100
AcDbVertex
100
AcDb2dVertex
 10
15.87600068753294
 20
52.66076482667201
 30
0.0
  0
VERTEX
  5
6E
330
4A
100
AcDbEntity
  8
HANE
100
AcDbVertex
100
AcDb2dVertex
 10
15.87027245851241
 20
52.64276434102013
 30
0.0
  0
VERTEX
  5
6F
330
4A
100
AcDbEntity
  8
HANE
100
AcDbVertex
100
AcDb2dVertex
 10
15.86454422949189
 20
52.62476385536825
 30
0.0
  0
VERTEX
  5
70
330
4A
100
AcDbEntity
  8
HANE
100
AcDbVertex
100
AcDb2dVertex
 10
15.85881600047136
 20
52.60676336971637
 30
0.0
  0
VERTEX
  5
71
330
4A
100
AcDbEntity
  8
HANE
100
AcDbVertex
100
AcDb2dVertex
 10
15.85308777145083
 20
52.58876288406449
 30
0.0
  0
VERTEX
  5
72
330
4A
100
AcDbEntity
  8
HANE
100
AcDbVertex
100
AcDb2dVertex
 10
15.8473595424303
 20
52.57076239841261
 30
0.0
  0
VERTEX
  5
73
330
4A
100
AcDbEntity
  8
HANE
100
AcDbVertex
100
AcDb2dVertex
 10
15.84163131340978
 20
52.55276191276073
 30
0.0
  0
VERTEX
  5
74
330
4A
100
AcDbEntity
  8
HANE
100
AcDbVertex
100
AcDb2dVertex
 10
15.81296633188264
 20
52.4403007008944
 30
0.0
  0
VERTEX
  5
75
330
4A
100
AcDbEntity
  8
HANE
100
AcDbVertex
100
AcDb2dVertex
 10
15.75011968684357
 20
52.09800215439746
 30
0.0
  0
VERTEX
  5
76
330
4A
100
AcDbEntity
  8
HANE
100
AcDbVertex
100
AcDb2dVertex
 10
15.67388351546163
 20
51.46888453318601
 30
0.0
  0
VERTEX
  5
77
330
4A
100
AcDbEntity
  8
HANE
100
AcDbVertex
100
AcDb2dVertex
 10
15.60504995490557
 20
50.49596609717808
 30
0.0
  0
VERTEX
  5
78
330
4A
100
AcDbEntity
  8
HANE
100
AcDbVertex
100
AcDb2dVertex
 10
15.56441114234445
 20
49.1222651062911
 30
0.0
  0
VERTEX
  5
79
330
4A
100
AcDbEntity
  8
HANE
100
AcDbVertex
100
AcDb2dVertex
 10
15.572759214947
 20
47.29079982044178
 30
0.0
  0
VERTEX
  5
7A
330
4A
100
AcDbEntity
  8
HANE
100
AcDbVertex
100
AcDb2dVertex
 10
15.65088630988261
 20
44.9445884995482
 30
0.0
  0
VERTEX
  5
7B
330
4A
100
AcDbEntity
  8
HANE
100
AcDbVertex
100
AcDb2dVertex
 10
15.81958456431971
 20
42.02664940352646
 30
0.0
  0
VERTEX
  5
7C
330
4A
100
AcDbEntity
  8
HANE
100
AcDbVertex
100
AcDb2dVertex
 10
15.82592547850465
 20
41.84077073727222
 30
0.0
  0
VERTEX
  5
7D
330
4A
100
AcDbEntity
  8
HANE
100
AcDbVertex
100
AcDb2dVertex
 10
15.85154353003553
 20
41.33571755908596
 30
0.0
  0
VERTEX
  5
7E
330
4A
100
AcDbEntity
  8
HANE
100
AcDbVertex
100
AcDb2dVertex
 10
15.91216365058711
 20
40.58492691247199
 30
0.0
  0
VERTEX
  5
7F
330
4A
100
AcDbEntity
  8
HANE
100
AcDbVertex
100
AcDb2dVertex
 10
16.02351077183511
 20
39.66183584093528
 30
0.0
  0
VERTEX
  5
80
330
4A
100
AcDbEntity
  8
HANE
100
AcDbVertex
100
AcDb2dVertex
 10
16.20130982545395
 20
38.63988138798079
 30
0.0
  0
VERTEX
  5
81
330
4A
100
AcDbEntity
  8
HANE
100
AcDbVertex
100
AcDb2dVertex
 10
16.46128574311871
 20
37.59250059711349
 30
0.0
  0
VERTEX
  5
82
330
4A
100
AcDbEntity
  8
HANE
100
AcDbVertex
100
AcDb2dVertex
 10
16.81916345650414
 20
36.59313051183707
 30
0.0
  0
VERTEX
  5
83
330
4A
100
AcDbEntity
  8
HANE
100
AcDbVertex
100
AcDb2dVertex
 10
17.2906678972853
 20
35.71520817565649
 30
0.0
  0
VERTEX
  5
84
330
4A
100
AcDbEntity
  8
HANE
100
AcDbVertex
100
AcDb2dVertex
 10
17.5465856348896
 20
35.37618791303836
 30
0.0
  0
VERTEX
  5
85
330
4A
100
AcDbEntity
  8
HANE
100
AcDbVertex
100
AcDb2dVertex
 10
17.83849432519857
 20
35.08546899033326
 30
0.0
  0
VERTEX
  5
86
330
4A
100
AcDbEntity
  8
HANE
100
AcDbVertex
100
AcDb2dVertex
 10
18.16537284282363
 20
34.85123860785369
 30
0.0
  0
VERTEX
  5
87
330
4A
100
AcDbEntity
  8
HANE
100
AcDbVertex
100
AcDb2dVertex
 10
18.52620006237621
 20
34.68168396591214
 30
0.0
  0
VERTEX
  5
88
330
4A
100
AcDbEntity
  8
HANE
100
AcDbVertex
100
AcDb2dVertex
 10
18.91995485846803
 20
34.58499226481977
 30
0.0
  0
VERTEX
  5
89
330
4A
100
AcDbEntity
  8
HANE
100
AcDbVertex
100
AcDb2dVertex
 10
19.34561610570988
 20
34.5693507048891
 30
0.0
  0
VERTEX
  5
8A
330
4A
100
AcDbEntity
  8
HANE
100
AcDbVertex
100
AcDb2dVertex
 10
19.80216267871381
 20
34.64294648643196
 30
0.0
  0
VERTEX
  5
8B
330
4A
100
AcDbEntity
  8
HANE
100
AcDbVertex
100
AcDb2dVertex
 10
20.28857345209156
 20
34.81396680975954
 30
0.0
  0
VERTEX
  5
8C
330
4A
100
AcDbEntity
  8
HANE
100
AcDbVertex
100
AcDb2dVertex
 10
20.38309519382217
 20
34.85624791436675
 30
0.0
  0
VERTEX
  5
8D
330
4A
100
AcDbEntity
  8
HANE
100
AcDbVertex
100
AcDb2dVertex
 10
20.4767439725338
 20
34.90090117386119
 30
0.0
  0
VERTEX
  5
8E
330
4A
100
AcDbEntity
  8
HANE
100
AcDbVertex
100
AcDb2dVertex
 10
20.56951976508934
 20
34.9479108786078
 30
0.0
  0
VERTEX
  5
8F
330
4A
100
AcDbEntity
  8
HANE
100
AcDbVertex
100
AcDb2dVertex
 10
20.66142254835202
 20
34.9972613189722
 30
0.0
  0
VERTEX
  5
90
330
4A
100
AcDbEntity
  8
HANE
100
AcDbVertex
100
AcDb2dVertex
 10
20.75245229918506
 20
35.04893678531935
 30
0.0
  0
VERTEX
  5
91
330
4A
100
AcDbEntity
  8
HANE
100
AcDbVertex
100
AcDb2dVertex
 10
20.84260899445135
 20
35.10292156801293
 30
0.0
  0
VERTEX
  5
92
330
4A
100
AcDbEntity
  8
HANE
100
AcDbVertex
100
AcDb2dVertex
 10
20.93189261101379
 20
35.1591999574192
 30
0.0
  0
VERTEX
  5
93
330
4A
100
AcDbEntity
  8
HANE
100
AcDbVertex
100
AcDb2dVertex
 10
21.0203031257353
 20
35.2177562439031
 30
0.0
  0
VERTEX
  5
94
330
4A
100
AcDbEntity
  8
HANE
100
AcDbVertex
100
AcDb2dVertex
 10
21.02155548681446
 20
35.21861613971417
 30
0.0
  0
VERTEX
  5
95
330
4A
100
AcDbEntity
  8
HANE
100
AcDbVertex
100
AcDb2dVertex
 10
21.02280784789362
 20
35.21947603552589
 30
0.0
  0
VERTEX
  5
96
330
4A
100
AcDbEntity
  8
HANE
100
AcDbVertex
100
AcDb2dVertex
 10
21.02406020897278
 20
35.22033593133761
 30
0.0
  0
VERTEX
  5
97
330
4A
100
AcDbEntity
  8
HANE
100
AcDbVertex
100
AcDb2dVertex
 10
21.02531257005194
 20
35.22119582714868
 30
0.0
  0
VERTEX
  5
98
330
4A
100
AcDbEntity
  8
HANE
100
AcDbVertex
100
AcDb2dVertex
 10
21.0265649311311
 20
35.22205572295976
 30
0.0
  0
VERTEX
  5
99
330
4A
100
AcDbEntity
  8
HANE
100
AcDbVertex
100
AcDb2dVertex
 10
21.02781729221026
 20
35.22291561877083
 30
0.0
  0
VERTEX
  5
9A
330
4A
100
AcDbEntity
  8
HANE
100
AcDbVertex
100
AcDb2dVertex
 10
21.02906965328942
 20
35.22377551458191
 30
0.0
  0
VERTEX
  5
9B
330
4A
100
AcDbEntity
  8
HANE
100
AcDbVertex
100
AcDb2dVertex
 10
21.03032201436858
 20
35.22463541039362
 30
0.0
  0
VERTEX
  5
9C
330
4A
100
AcDbEntity
  8
HANE
100
AcDbVertex
100
AcDb2dVertex
 10
22.05189656621416
 20
36.14097283981562
 30
0.0
  0
VERTEX
  5
9D
330
4A
100
AcDbEntity
  8
HANE
100
AcDbVertex
100
AcDb2dVertex
 10
22.91166931880205
 20
37.37965502989378
 30
0.0
  0
VERTEX
  5
9E
330
4A
100
AcDbEntity
  8
HANE
100
AcDbVertex
100
AcDb2dVertex
 10
23.58222695902952
 20
38.92157865103803
 30
0.0
  0
VERTEX
  5
9F
330
4A
100
AcDbEntity
  8
HANE
100
AcDbVertex
100
AcDb2dVertex
 10
24.03615617379447
 20
40.74764037365701
 30
0.0
  0
VERTEX
  5
A0
330
4A
100
AcDbEntity
  8
HANE
100
AcDbVertex
100
AcDb2dVertex
 10
24.24604364999355
 20
42.83873686816003
 30
0.0
  0
VERTEX
  5
A1
330
4A
100
AcDbEntity
  8
HANE
100
AcDbVertex
100
AcDb2dVertex
 10
24.18447607452433
 20
45.17576480495702
 30
0.0
  0
VERTEX
  5
A2
330
4A
100
AcDbEntity
  8
HANE
100
AcDbVertex
100
AcDb2dVertex
 10
23.82404013428408
 20
47.73962085445662
 30
0.0
  0
VERTEX
  5
A3
330
4A
100
AcDbEntity
  8
HANE
100
AcDbVertex
100
AcDb2dVertex
 10
23.13732251617008
 20
50.51120168706814
 30
0.0
  0
VERTEX
  5
A4
330
4A
100
AcDbEntity
  8
HANE
100
AcDbVertex
100
AcDb2dVertex
 10
22.80295261168714
 20
51.64413027407004
 30
0.0
  0
VERTEX
  5
A5
330
4A
100
AcDbEntity
  8
HANE
100
AcDbVertex
100
AcDb2dVertex
 10
22.41374750407087
 20
52.99131435312257
 30
0.0
  0
VERTEX
  5
A6
330
4A
100
AcDbEntity
  8
HANE
100
AcDbVertex
100
AcDb2dVertex
 10
22.00029640440466
 20
54.44028538815222
 30
0.0
  0
VERTEX
  5
A7
330
4A
100
AcDbEntity
  8
HANE
100
AcDbVertex
100
AcDb2dVertex
 10
21.59318852377094
 20
55.87857484308743
 30
0.0
  0
VERTEX
  5
A8
330
4A
100
AcDbEntity
  8
HANE
100
AcDbVertex
100
AcDb2dVertex
 10
21.22301307325245
 20
57.19371418185469
 30
0.0
  0
VERTEX
  5
A9
330
4A
100
AcDbEntity
  8
HANE
100
AcDbVertex
100
AcDb2dVertex
 10
20.92035926393192
 20
58.27323486838117
 30
0.0
  0
VERTEX
  5
AA
330
4A
100
AcDbEntity
  8
HANE
100
AcDbVertex
100
AcDb2dVertex
 10
20.71581630689244
 20
59.00466836659463
 30
0.0
  0
VERTEX
  5
AB
330
4A
100
AcDbEntity
  8
HANE
100
AcDbVertex
100
AcDb2dVertex
 10
20.63997341321609
 20
59.27554614042224
 30
0.0
  0
VERTEX
  5
AC
330
4A
100
AcDbEntity
  8
HANE
100
AcDbVertex
100
AcDb2dVertex
 10
20.59708445597695
 20
59.27382142390243
 30
0.0
  0
VERTEX
  5
AD
330
4A
100
AcDbEntity
  8
HANE
100
AcDbVertex
100
AcDb2dVertex
 10
20.5541954987378
 20
59.27209670738324
 30
0.0
  0
VERTEX
  5
AE
330
4A
100
AcDbEntity
  8
HANE
100
AcDbVertex
100
AcDb2dVertex
 10
20.51130654149866
 20
59.27037199086406
 30
0.0
  0
VERTEX
  5
AF
330
4A
100
AcDbEntity
  8
HANE
100
AcDbVertex
100
AcDb2dVertex
 10
20.46841758425951
 20
59.26864727434425
 30
0.0
  0
VERTEX
  5
B0
330
4A
100
AcDbEntity
  8
HANE
100
AcDbVertex
100
AcDb2dVertex
 10
20.42552862702037
 20
59.26692255782507
 30
0.0
  0
VERTEX
  5
B1
330
4A
100
AcDbEntity
  8
HANE
100
AcDbVertex
100
AcDb2dVertex
 10
20.38263966978122
 20
59.26519784130589
 30
0.0
  0
VERTEX
  5
B2
330
4A
100
AcDbEntity
  8
HANE
100
AcDbVertex
100
AcDb2dVertex
 10
20.33975071254208
 20
59.26347312478607
 30
0.0
  0
VERTEX
  5
B3
330
4A
100
AcDbEntity
  8
HANE
100
AcDbVertex
100
AcDb2dVertex
 10
20.29686175530293
 20
59.26174840826689
 30
0.0
  0
VERTEX
  5
B4
330
4A
100
AcDbEntity
  8
HANE
100
AcDbVertex
100
AcDb2dVertex
 10
19.99280052933615
 20
57.89219189263918
 30
0.0
  0
VERTEX
  5
B5
330
4A
100
AcDbEntity
  8
HANE
100
AcDbVertex
100
AcDb2dVertex
 10
19.65134127697995
 20
56.72644704064222
 30
0.0
  0
VERTEX
  5
B6
330
4A
100
AcDbEntity
  8
HANE
100
AcDbVertex
100
AcDb2dVertex
 10
19.28207597064543
 20
55.7481885076445
 30
0.0
  0
VERTEX
  5
B7
330
4A
100
AcDbEntity
  8
HANE
100
AcDbVertex
100
AcDb2dVertex
 10
18.89459658274437
 20
54.94109094901382
 30
0.0
  0
VERTEX
  5
B8
330
4A
100
AcDbEntity
  8
HANE
100
AcDbVertex
100
AcDb2dVertex
 10
18.49849508568819
 20
54.28882902011799
 30
0.0
  0
VERTEX
  5
B9
330
4A
100
AcDbEntity
  8
HANE
100
AcDbVertex
100
AcDb2dVertex
 10
18.10336345188866
 20
53.7750773763261
 30
0.0
  0
VERTEX
  5
BA
330
4A
100
AcDbEntity
  8
HANE
100
AcDbVertex
100
AcDb2dVertex
 10
17.71879365375721
 20
53.3835106730047
 30
0.0
  0
VERTEX
  5
BB
330
4A
100
AcDbEntity
  8
HANE
100
AcDbVertex
100
AcDb2dVertex
 10
17.35437766370529
 20
53.09780356552223
 30
0.0
  0
VERTEX
  5
BC
330
4A
100
AcDbEntity
  8
HANE
100
AcDbVertex
100
AcDb2dVertex
 10
17.35437766370529
 20
53.09780356552223
 30
0.0
  0
SEQEND
  5
BD
330
4A
100
AcDbEntity
  8
HANE
  0
HATCH
  5
BE
330
1F
100
AcDbEntity
  8
HANE
 62
   152
100
AcDbHatch
 10
0.0
 20
0.0
 30
0.0
210
0.0
220
0.0
230
1.0
  2
SOLID
 70
     1
 71
     0
 91
        1
 92
        1
 93
      112
 72
     1
 10
17.35437766370529
 20
53.09780356552223
 11
17.21189644175441
 21
53.00659618842136
 72
     1
 10
17.21189644175441
 20
53.00659618842136
 11
17.07474119948537
 21
52.92913396148416
 72
     1
 10
17.07474119948537
 20
52.92913396148416
 11
16.94348864586751
 21
52.86430237379645
 72
     1
 10
16.94348864586751
 20
52.86430237379645
 11
16.81871548987117
 21
52.81098691444274
 72
     1
 10
16.81871548987117
 20
52.81098691444274
 11
16.70099844046569
 21
52.76807307250757
 72
     1
 10
16.70099844046569
 20
52.76807307250757
 11
16.59091420662041
 21
52.73444633707738
 72
     1
 10
16.59091420662041
 20
52.73444633707738
 11
16.48903949730533
 21
52.70899219723604
 72
     1
 10
16.48903949730533
 20
52.70899219723604
 11
16.39595102149012
 21
52.6905961420681
 72
     1
 10
16.39595102149012
 20
52.6905961420681
 11
16.35282028745595
 21
52.68384672153158
 72
     1
 10
16.35282028745595
 20
52.68384672153158
 11
16.31208858005337
 21
52.67850570482407
 72
     1
 10
16.31208858005337
 20
52.67850570482407
 11
16.27383320722272
 21
52.67442669794418
 72
     1
 10
16.27383320722272
 20
52.67442669794418
 11
16.23813147690533
 21
52.67146330689118
 72
     1
 10
16.23813147690533
 20
52.67146330689118
 11
16.20506069704152
 21
52.66946913766434
 72
     1
 10
16.20506069704152
 20
52.66946913766434
 11
16.1746981755723
 21
52.66829779626357
 72
     1
 10
16.1746981755723
 20
52.66829779626357
 11
16.14712122043831
 21
52.66780288868748
 72
     1
 10
16.14712122043831
 20
52.66780288868748
 11
16.12240713957992
 21
52.667838020936
 72
     1
 10
16.12240713957992
 20
52.667838020936
 11
16.10107648691241
 21
52.6681021219494
 72
     1
 10
16.10107648691241
 20
52.6681021219494
 11
16.08320691488572
 21
52.6687866624049
 72
     1
 10
16.08320691488572
 20
52.6687866624049
 11
16.06860825423384
 21
52.66972999842677
 72
     1
 10
16.06860825423384
 20
52.66972999842677
 11
16.05709033569074
 21
52.67077048613929
 72
     1
 10
16.05709033569074
 20
52.67077048613929
 11
16.04846298999072
 21
52.67174648166543
 72
     1
 10
16.04846298999072
 20
52.67174648166543
 11
16.04253604786744
 21
52.67249634113011
 72
     1
 10
16.04253604786744
 20
52.67249634113011
 11
16.03911934005552
 21
52.67285842065693
 72
     1
 10
16.03911934005552
 20
52.67285842065693
 11
16.03802269728831
 21
52.6726710763689
 72
     1
 10
16.03802269728831
 20
52.6726710763689
 11
16.01920200332401
 21
52.67568291656952
 72
     1
 10
16.01920200332401
 20
52.67568291656952
 11
16.00038130935973
 21
52.67869475677078
 72
     1
 10
16.00038130935973
 20
52.67869475677078
 11
15.98156061539544
 21
52.68170659697204
 72
     1
 10
15.98156061539544
 20
52.68170659697204
 11
15.96273992143115
 21
52.68471843717266
 72
     1
 10
15.96273992143115
 20
52.68471843717266
 11
15.94391922746686
 21
52.68773027737328
 72
     1
 10
15.94391922746686
 20
52.68773027737328
 11
15.92509853350257
 21
52.6907421175739
 72
     1
 10
15.92509853350257
 20
52.6907421175739
 11
15.90627783953828
 21
52.69375395777451
 72
     1
 10
15.90627783953828
 20
52.69375395777451
 11
15.887457145574
 21
52.69676579797577
 72
     1
 10
15.887457145574
 20
52.69676579797577
 11
15.88172891655347
 21
52.6787653123239
 72
     1
 10
15.88172891655347
 20
52.6787653123239
 11
15.87600068753294
 21
52.66076482667201
 72
     1
 10
15.87600068753294
 20
52.66076482667201
 11
15.87027245851241
 21
52.64276434102013
 72
     1
 10
15.87027245851241
 20
52.64276434102013
 11
15.86454422949189
 21
52.62476385536825
 72
     1
 10
15.86454422949189
 20
52.62476385536825
 11
15.85881600047136
 21
52.60676336971637
 72
     1
 10
15.85881600047136
 20
52.60676336971637
 11
15.85308777145083
 21
52.58876288406449
 72
     1
 10
15.85308777145083
 20
52.58876288406449
 11
15.8473595424303
 21
52.57076239841261
 72
     1
 10
15.8473595424303
 20
52.57076239841261
 11
15.84163131340978
 21
52.55276191276073
 72
     1
 10
15.84163131340978
 20
52.55276191276073
 11
15.81296633188264
 21
52.4403007008944
 72
     1
 10
15.81296633188264
 20
52.4403007008944
 11
15.75011968684357
 21
52.09800215439746
 72
     1
 10
15.75011968684357
 20
52.09800215439746
 11
15.67388351546163
 21
51.46888453318601
 72
     1
 10
15.67388351546163
 20
51.46888453318601
 11
15.60504995490557
 21
50.49596609717808
 72
     1
 10
15.60504995490557
 20
50.49596609717808
 11
15.56441114234445
 21
49.1222651062911
 72
     1
 10
15.56441114234445
 20
49.1222651062911
 11
15.572759214947
 21
47.29079982044178
 72
     1
 10
15.572759214947
 20
47.29079982044178
 11
15.65088630988261
 21
44.9445884995482
 72
     1
 10
15.65088630988261
 20
44.9445884995482
 11
15.81958456431971
 21
42.02664940352646
 72
     1
 10
15.81958456431971
 20
42.02664940352646
 11
15.82592547850465
 21
41.84077073727222
 72
     1
 10
15.82592547850465
 20
41.84077073727222
 11
15.85154353003553
 21
41.33571755908596
 72
     1
 10
15.85154353003553
 20
41.33571755908596
 11
15.91216365058711
 21
40.58492691247199
 72
     1
 10
15.91216365058711
 20
40.58492691247199
 11
16.02351077183511
 21
39.66183584093528
 72
     1
 10
16.02351077183511
 20
39.66183584093528
 11
16.20130982545395
 21
38.63988138798079
 72
     1
 10
16.20130982545395
 20
38.63988138798079
 11
16.46128574311871
 21
37.59250059711349
 72
     1
 10
16.46128574311871
 20
37.59250059711349
 11
16.81916345650414
 21
36.59313051183707
 72
     1
 10
16.81916345650414
 20
36.59313051183707
 11
17.2906678972853
 21
35.71520817565649
 72
     1
 10
17.2906678972853
 20
35.71520817565649
 11
17.5465856348896
 21
35.37618791303836
 72
     1
 10
17.5465856348896
 20
35.37618791303836
 11
17.83849432519857
 21
35.08546899033326
 72
     1
 10
17.83849432519857
 20
35.08546899033326
 11
18.16537284282363
 21
34.85123860785369
 72
     1
 10
18.16537284282363
 20
34.85123860785369
 11
18.52620006237621
 21
34.68168396591214
 72
     1
 10
18.52620006237621
 20
34.68168396591214
 11
18.91995485846803
 21
34.58499226481977
 72
     1
 10
18.91995485846803
 20
34.58499226481977
 11
19.34561610570988
 21
34.5693507048891
 72
     1
 10
19.34561610570988
 20
34.5693507048891
 11
19.80216267871381
 21
34.64294648643196
 72
     1
 10
19.80216267871381
 20
34.64294648643196
 11
20.28857345209156
 21
34.81396680975954
 72
     1
 10
20.28857345209156
 20
34.81396680975954
 11
20.38309519382217
 21
34.85624791436675
 72
     1
 10
20.38309519382217
 20
34.85624791436675
 11
20.4767439725338
 21
34.90090117386119
 72
     1
 10
20.4767439725338
 20
34.90090117386119
 11
20.56951976508934
 21
34.9479108786078
 72
     1
 10
20.56951976508934
 20
34.9479108786078
 11
20.66142254835202
 21
34.9972613189722
 72
     1
 10
20.66142254835202
 20
34.9972613189722
 11
20.75245229918506
 21
35.04893678531935
 72
     1
 10
20.75245229918506
 20
35.04893678531935
 11
20.84260899445135
 21
35.10292156801293
 72
     1
 10
20.84260899445135
 20
35.10292156801293
 11
20.93189261101379
 21
35.1591999574192
 72
     1
 10
20.93189261101379
 20
35.1591999574192
 11
21.0203031257353
 21
35.2177562439031
 72
     1
 10
21.0203031257353
 20
35.2177562439031
 11
21.02155548681446
 21
35.21861613971417
 72
     1
 10
21.02155548681446
 20
35.21861613971417
 11
21.02280784789362
 21
35.21947603552589
 72
     1
 10
21.02280784789362
 20
35.21947603552589
 11
21.02406020897278
 21
35.22033593133761
 72
     1
 10
21.02406020897278
 20
35.22033593133761
 11
21.02531257005194
 21
35.22119582714868
 72
     1
 10
21.02531257005194
 20
35.22119582714868
 11
21.0265649311311
 21
35.22205572295976
 72
     1
 10
21.0265649311311
 20
35.22205572295976
 11
21.02781729221026
 21
35.22291561877083
 72
     1
 10
21.02781729221026
 20
35.22291561877083
 11
21.02906965328942
 21
35.22377551458191
 72
     1
 10
21.02906965328942
 20
35.22377551458191
 11
21.03032201436858
 21
35.22463541039362
 72
     1
 10
21.03032201436858
 20
35.22463541039362
 11
22.05189656621416
 21
36.14097283981562
 72
     1
 10
22.05189656621416
 20
36.14097283981562
 11
22.91166931880205
 21
37.37965502989378
 72
     1
 10
22.91166931880205
 20
37.37965502989378
 11
23.58222695902952
 21
38.92157865103803
 72
     1
 10
23.58222695902952
 20
38.92157865103803
 11
24.03615617379447
 21
40.74764037365701
 72
     1
 10
24.03615617379447
 20
40.74764037365701
 11
24.24604364999355
 21
42.83873686816003
 72
     1
 10
24.24604364999355
 20
42.83873686816003
 11
24.18447607452433
 21
45.17576480495702
 72
     1
 10
24.18447607452433
 20
45.17576480495702
 11
23.82404013428408
 21
47.73962085445662
 72
     1
 10
23.82404013428408
 20
47.73962085445662
 11
23.13732251617008
 21
50.51120168706814
 72
     1
 10
23.13732251617008
 20
50.51120168706814
 11
22.80295261168714
 21
51.64413027407004
 72
     1
 10
22.80295261168714
 20
51.64413027407004
 11
22.41374750407087
 21
52.99131435312257
 72
     1
 10
22.41374750407087
 20
52.99131435312257
 11
22.00029640440466
 21
54.44028538815222
 72
     1
 10
22.00029640440466
 20
54.44028538815222
 11
21.59318852377094
 21
55.87857484308743
 72
     1
 10
21.59318852377094
 20
55.87857484308743
 11
21.22301307325245
 21
57.19371418185469
 72
     1
 10
21.22301307325245
 20
57.19371418185469
 11
20.92035926393192
 21
58.27323486838117
 72
     1
 10
20.92035926393192
 20
58.27323486838117
 11
20.71581630689244
 21
59.00466836659463
 72
     1
 10
20.71581630689244
 20
59.00466836659463
 11
20.63997341321609
 21
59.27554614042224
 72
     1
 10
20.63997341321609
 20
59.27554614042224
 11
20.59708445597695
 21
59.27382142390243
 72
     1
 10
20.59708445597695
 20
59.27382142390243
 11
20.5541954987378
 21
59.27209670738324
 72
     1
 10
20.5541954987378
 20
59.27209670738324
 11
20.51130654149866
 21
59.27037199086406
 72
     1
 10
20.51130654149866
 20
59.27037199086406
 11
20.46841758425951
 21
59.26864727434425
 72
     1
 10
20.46841758425951
 20
59.26864727434425
 11
20.42552862702037
 21
59.26692255782507
 72
     1
 10
20.42552862702037
 20
59.26692255782507
 11
20.38263966978122
 21
59.26519784130589
 72
     1
 10
20.38263966978122
 20
59.26519784130589
 11
20.33975071254208
 21
59.26347312478607
 72
     1
 10
20.33975071254208
 20
59.26347312478607
 11
20.29686175530293
 21
59.26174840826689
 72
     1
 10
20.29686175530293
 20
59.26174840826689
 11
19.99280052933615
 21
57.89219189263918
 72
     1
 10
19.99280052933615
 20
57.89219189263918
 11
19.65134127697995
 21
56.72644704064222
 72
     1
 10
19.65134127697995
 20
56.72644704064222
 11
19.28207597064543
 21
55.7481885076445
 72
     1
 10
19.28207597064543
 20
55.7481885076445
 11
18.89459658274437
 21
54.94109094901382
 72
     1
 10
18.89459658274437
 20
54.94109094901382
 11
18.49849508568819
 21
54.28882902011799
 72
     1
 10
18.49849508568819
 20
54.28882902011799
 11
18.10336345188866
 21
53.7750773763261
 72
     1
 10
18.10336345188866
 20
53.7750773763261
 11
17.71879365375721
 21
53.3835106730047
 72
     1
 10
17.71879365375721
 20
53.3835106730047
 11
17.35437766370529
 21
53.09780356552223
 97
        0
 75
     2
 76
     1
 98
        0
  0
ENDSEC
  0
SECTION
  2
OBJECTS
  0
DICTIONARY
  5
C
330
0
100
AcDbDictionary
  3
ACAD_GROUP
350
D
  3
ACAD_LAYOUT
350
1A
  3
ACAD_MATERIAL
350
3B
  3
ACAD_MLEADERSTYLE
350
E2
  3
ACAD_MLINESTYLE
350
17
  3
ACAD_PLOTSETTINGS
350
19
  3
ACAD_VISUALSTYLE
350
2A
  3
ACDBHEADERROUNDTRIPXREC
350
C0
  3
ACDBVARIABLEDICTIONARY
350
E0
  0
DICTIONARY
  5
D
102
{ACAD_REACTORS
330
C
102
}
330
C
100
AcDbDictionary
  0
DICTIONARY
  5
1A
102
{ACAD_REACTORS
330
C
102
}
330
C
100
AcDbDictionary
  0
DICTIONARY
  5
3B
102
{ACAD_REACTORS
330
C
102
}
330
C
100
AcDbDictionary
  3
BYBLOCK
350
3D
  3
BYLAYER
350
3C
  3
GLOBAL
350
3E
  0
DICTIONARY
  5
E2
102
{ACAD_REACTORS
330
C
102
}
330
C
100
AcDbDictionary
  0
DICTIONARY
  5
17
102
{ACAD_REACTORS
330
C
102
}
330
C
100
AcDbDictionary
  3
STANDARD
350
18
  0
DICTIONARY
  5
19
102
{ACAD_REACTORS
330
C
102
}
330
C
100
AcDbDictionary
  0
DICTIONARY
  5
2A
102
{ACAD_REACTORS
330
C
102
}
330
C
100
AcDbDictionary
  3
2DWIREFRAME
350
2F
  3
3DWIREFRAME
350
30
  3
3D_HIDDEN
350
31
  3
BASIC
350
32
  3
BRIGHTEN
350
36
  3
COLORCHANGE
350
3A
  3
CONCEPTUAL
350
34
  3
DIM
350
35
  3
FACEPATTERN
350
39
  3
FLAT
350
2B
  3
FLATWITHEDGES
350
2C
  3
GOURAUD
350
2D
  3
GOURAUDWITHEDGES
350
2E
  3
LINEPATTERN
350
38
  3
REALISTIC
350
33
  3
THICKEN
350
37
  0
DICTIONARY
  5
C0
102
{ACAD_REACTORS
330
C
102
}
330
C
100
AcDbDictionary
  3
CEPSNTYPE
350
C9
  3
DIMSTYLEDATA
350
DF
  3
FINGERPRINTGUID
350
CA
  3
HYPERLINKBASE
350
C3
  3
INSUNITS
350
C8
  3
LAYOUTDICT
350
C5
  3
LWETCUNION
350
C7
  3
PLOTSETDICT
350
C6
  3
PSVPSCALE
350
CC
  3
PUCSBASE
350
CF
  3
PUCSORGBACK
350
D5
  3
PUCSORGBOTTOM
350
D1
  3
PUCSORGFRONT
350
D4
  3
PUCSORGLEFT
350
D2
  3
PUCSORGRIGHT
350
D3
  3
PUCSORGTOP
350
D0
  3
PUCSORTHOREF
350
CD
  3
PUCSORTHOVIEW
350
CE
  3
STYLESHEET
350
C4
  3
TSTACKALIGN
350
C1
  3
TSTACKSIZE
350
C2
  3
UCSBASE
350
D8
  3
UCSORGBACK
350
DE
  3
UCSORGBOTTOM
350
DA
  3
UCSORGFRONT
350
DD
  3
UCSORGLEFT
350
DB
  3
UCSORGRIGHT
350
DC
  3
UCSORGTOP
350
D9
  3
UCSORTHOREF
350
D6
  3
UCSORTHOVIEW
350
D7
  3
VERSIONGUID
350
CB
  0
DICTIONARY
  5
E0
102
{ACAD_REACTORS
330
C
102
}
330
C
100
AcDbDictionary
  3
DIMASSOC
350
E3
  3
HIDETEXT
350
E4
  0
MATERIAL
  5
3D
102
{ACAD_REACTORS
330
3B
102
}
102
{ACAD_XDICTIONARY
360
E7
102
}
330
3B
100
AcDbMaterial
  1
ByBlock
  0
MATERIAL
  5
3C
102
{ACAD_REACTORS
330
3B
102
}
102
{ACAD_XDICTIONARY
360
E5
102
}
330
3B
100
AcDbMaterial
  1
ByLayer
  0
MATERIAL
  5
3E
102
{ACAD_REACTORS
330
3B
102
}
102
{ACAD_XDICTIONARY
360
E9
102
}
330
3B
100
AcDbMaterial
  1
Global
  0
MLINESTYLE
  5
18
102
{ACAD_REACTORS
330
17
102
}
330
17
100
AcDbMlineStyle
  2
Standard
 70
     0
  3

 62
   256
 51
90.0
 52
90.0
 71
     2
 49
0.5
 62
   256
  6
BYLAYER
 49
-0.5
 62
   256
  6
BYLAYER
  0
ACAD_PROXY_OBJECT
  5
2F
102
{ACAD_REACTORS
330
2A
102
}
330
2A
100
AcDbProxyObject
 90
      499
 91
      501
 93
      436
310
42CC9915DA5C99599C985B595049028333333333333E3BF0000000000000FB0107901411070040501600405405064090741402480A0340
1001
ACAD
1000
AcDbSavedByObjectVersion
1070
     0
  0
ACAD_PROXY_OBJECT
  5
30
102
{ACAD_REACTORS
330
2A
102
}
330
2A
100
AcDbProxyObject
 90
      499
 91
      501
 93
      436
310
42CCD915DA5C99599C985B595059028333333333333E3BF0000000000000FB0107901411070040501600405405064090741402480A0340
1001
ACAD
1000
AcDbSavedByObjectVersion
1070
     0
  0
ACAD_PROXY_OBJECT
  5
31
102
{ACAD_REACTORS
330
2A
102
}
330
2A
100
AcDbProxyObject
 90
      499
 91
      501
 93
      500
310
424CD108121A5919195B90640502408333333333333E3BF0000000000000FB01079024090700405020000000000001110200405405064090740C02480A0340
1001
ACAD
1000
AcDbSavedByObjectVersion
1070
     0
  0
ACAD_PROXY_OBJECT
  5
32
102
{ACAD_REACTORS
330
2A
102
}
330
2A
100
AcDbProxyObject
 90
      499
 91
      501
 93
      388
310
4150985CDA58D07406404333333333333E3BF0000000000000FB0107A41107004050150841D405064090741402480A0350
1001
ACAD
1000
AcDbSavedByObjectVersion
1070
     0
  0
ACAD_PROXY_OBJECT
  5
36
102
{ACAD_REACTORS
330
2A
102
}
330
2A
100
AcDbProxyObject
 90
      499
 91
      501
 93
      428
310
42109C9A59DA1D195B90C409028333333333333E3BF0000000000000FB010790141107004050150841D405064090741402480A029950
1001
ACAD
1000
AcDbSavedByObjectVersion
1070
     0
  0
ACAD_PROXY_OBJECT
  5
3A
102
{ACAD_REACTORS
330
2A
102
}
330
2A
100
AcDbProxyObject
 90
      499
 91
      501
 93
      452
310
42D0DBDB1BDC90DA185B99D95104090240C333333333333E3BF0000000000000FB0108901411070040501508421405064090741402480A0350
1001
ACAD
1000
AcDbSavedByObjectVersion
1070
     0
  0
ACAD_PROXY_OBJECT
  5
34
102
{ACAD_REACTORS
330
2A
102
}
330
2A
100
AcDbProxyObject
 90
      499
 91
      501
 93
      500
310
4290DBDB98D95C1D1D585B10940D028333333333333E3BF0000000000000FB0107902409070040501000000000000111010841D405064090740C02480A0340
1001
ACAD
1000
AcDbSavedByObjectVersion
1070
     0
  0
ACAD_PROXY_OBJECT
  5
35
102
{ACAD_REACTORS
330
2A
102
}
330
2A
100
AcDbProxyObject
 90
      499
 91
      501
 93
      412
310
40D11A5B50B409028333333333333E3BF0000000000000FB010790141107004050150841D405064090741402480A02677FFFFFD0
1001
ACAD
1000
AcDbSavedByObjectVersion
1070
     0
  0
ACAD_PROXY_OBJECT
  5
39
102
{ACAD_REACTORS
330
2A
102
}
330
2A
100
AcDbProxyObject
 90
      499
 91
      501
 93
      444
310
42D19858D95C185D1D195C9B90F409028333333333333E3BF0000000000000FB010790141107004050150841D405064090741402480A0350
1001
ACAD
1000
AcDbSavedByObjectVersion
1070
     0
  0
ACAD_PROXY_OBJECT
  5
2B
102
{ACAD_REACTORS
330
2A
102
}
330
2A
100
AcDbProxyObject
 90
      499
 91
      501
 93
      388
310
41119B185D240901404333333333333E3BF0000000000000F9010740A41107004050150841D405064090741402480A1B50
1001
ACAD
1000
AcDbSavedByObjectVersion
1070
     0
  0
ACAD_PROXY_OBJECT
  5
2C
102
{ACAD_REACTORS
330
2A
102
}
330
2A
100
AcDbProxyObject
 90
      499
 91
      501
 93
      476
310
43519B185D15DA5D1A115919D95CD0140901404333333333333E3BF0000000000000F9010740901411070040501600405405064090741402480A1B50
1001
ACAD
1000
AcDbSavedByObjectVersion
1070
     0
  0
ACAD_PROXY_OBJECT
  5
2D
102
{ACAD_REACTORS
330
2A
102
}
330
2A
100
AcDbProxyObject
 90
      499
 91
      501
 93
      412
310
41D1DBDD5C985D5910240902404333333333333E3BF0000000000000F9010740A411070040501641D405064090741402480A1B50
1001
ACAD
1000
AcDbSavedByObjectVersion
1070
     0
  0
ACAD_PROXY_OBJECT
  5
2E
102
{ACAD_REACTORS
330
2A
102
}
330
2A
100
AcDbProxyObject
 90
      499
 91
      501
 93
      500
310
4411DBDD5C985D5915DA5D1A115919D95CD0340902404333333333333E3BF0000000000000F9010740901411070040501600405405064090741402480A1B50
1001
ACAD
1000
AcDbSavedByObjectVersion
1070
     0
  0
ACAD_PROXY_OBJECT
  5
38
102
{ACAD_REACTORS
330
2A
102
}
330
2A
100
AcDbProxyObject
 90
      499
 91
      501
 93
      444
310
42D31A5B995C185D1D195C9B90E409028333333333333E3BF0000000000000FB010790141107004050750841D405064090741402483A0350
1001
ACAD
1000
AcDbSavedByObjectVersion
1070
     0
  0
ACAD_PROXY_OBJECT
  5
33
102
{ACAD_REACTORS
330
2A
102
}
330
2A
100
AcDbProxyObject
 90
      499
 91
      501
 93
      420
310
425499585B1A5CDD1A58D08409028333333333333E3BF0000000000000FB01079019070040501508421405064090741402480A1B40
1001
ACAD
1000
AcDbSavedByObjectVersion
1070
     0
  0
ACAD_PROXY_OBJECT
  5
37
102
{ACAD_REACTORS
330
2A
102
}
330
2A
100
AcDbProxyObject
 90
      499
 91
      501
 93
      412
310
41D51A1A58DAD95B90D409028333333333333E3BF0000000000000FB010790141107004050150C41D405064090741402480A0350
1001
ACAD
1000
AcDbSavedByObjectVersion
1070
     0
  0
XRECORD
  5
C9
102
{ACAD_REACTORS
330
C0
102
}
330
C0
100
AcDbXrecord
 90
        0
  0
XRECORD
  5
DF
102
{ACAD_REACTORS
330
C0
102
}
330
C0
100
AcDbXrecord
1000
DSTYLE
1002
{
1070
   340
340
11
1002
}
  0
XRECORD
  5
CA
102
{ACAD_REACTORS
330
C0
102
}
330
C0
100
AcDbXrecord
  1
{CD17A8E2-1B07-5387-D48F-D1767D56C21E}
  0
XRECORD
  5
C3
102
{ACAD_REACTORS
330
C0
102
}
330
C0
100
AcDbXrecord
  1

  0
XRECORD
  5
C8
102
{ACAD_REACTORS
330
C0
102
}
330
C0
100
AcDbXrecord
 90
        4
  0
XRECORD
  5
C5
102
{ACAD_REACTORS
330
C0
102
}
330
C0
100
AcDbXrecord
340
1A
  0
XRECORD
  5
C7
102
{ACAD_REACTORS
330
C0
102
}
330
C0
100
AcDbXrecord
 90
    10269
  0
XRECORD
  5
C6
102
{ACAD_REACTORS
330
C0
102
}
330
C0
100
AcDbXrecord
340
19
  0
XRECORD
  5
CC
102
{ACAD_REACTORS
330
C0
102
}
330
C0
100
AcDbXrecord
 40
0.0
  0
XRECORD
  5
CF
102
{ACAD_REACTORS
330
C0
102
}
330
C0
100
AcDbXrecord
340
0
  0
XRECORD
  5
D5
102
{ACAD_REACTORS
330
C0
102
}
330
C0
100
AcDbXrecord
 10
0.0
 20
0.0
 30
0.0
  0
XRECORD
  5
D1
102
{ACAD_REACTORS
330
C0
102
}
330
C0
100
AcDbXrecord
 10
0.0
 20
0.0
 30
0.0
  0
XRECORD
  5
D4
102
{ACAD_REACTORS
330
C0
102
}
330
C0
100
AcDbXrecord
 10
0.0
 20
0.0
 30
0.0
  0
XRECORD
  5
D2
102
{ACAD_REACTORS
330
C0
102
}
330
C0
100
AcDbXrecord
 10
0.0
 20
0.0
 30
0.0
  0
XRECORD
  5
D3
102
{ACAD_REACTORS
330
C0
102
}
330
C0
100
AcDbXrecord
 10
0.0
 20
0.0
 30
0.0
  0
XRECORD
  5
D0
102
{ACAD_REACTORS
330
C0
102
}
330
C0
100
AcDbXrecord
 10
0.0
 20
0.0
 30
0.0
  0
XRECORD
  5
CD
102
{ACAD_REACTORS
330
C0
102
}
330
C0
100
AcDbXrecord
340
0
  0
XRECORD
  5
CE
102
{ACAD_REACTORS
330
C0
102
}
330
C0
100
AcDbXrecord
 70
     0
  0
XRECORD
  5
C4
102
{ACAD_REACTORS
330
C0
102
}
330
C0
100
AcDbXrecord
  1

  0
XRECORD
  5
C1
102
{ACAD_REACTORS
330
C0
102
}
330
C0
100
AcDbXrecord
 90
        1
  0
XRECORD
  5
C2
102
{ACAD_REACTORS
330
C0
102
}
330
C0
100
AcDbXrecord
 90
       70
  0
XRECORD
  5
D8
102
{ACAD_REACTORS
330
C0
102
}
330
C0
100
AcDbXrecord
340
0
  0
XRECORD
  5
DE
102
{ACAD_REACTORS
330
C0
102
}
330
C0
100
AcDbXrecord
 10
0.0
 20
0.0
 30
0.0
  0
XRECORD
  5
DA
102
{ACAD_REACTORS
330
C0
102
}
330
C0
100
AcDbXrecord
 10
0.0
 20
0.0
 30
0.0
  0
XRECORD
  5
DD
102
{ACAD_REACTORS
330
C0
102
}
330
C0
100
AcDbXrecord
 10
0.0
 20
0.0
 30
0.0
  0
XRECORD
  5
DB
102
{ACAD_REACTORS
330
C0
102
}
330
C0
100
AcDbXrecord
 10
0.0
 20
0.0
 30
0.0
  0
XRECORD
  5
DC
102
{ACAD_REACTORS
330
C0
102
}
330
C0
100
AcDbXrecord
 10
0.0
 20
0.0
 30
0.0
  0
XRECORD
  5
D9
102
{ACAD_REACTORS
330
C0
102
}
330
C0
100
AcDbXrecord
 10
0.0
 20
0.0
 30
0.0
  0
XRECORD
  5
D6
102
{ACAD_REACTORS
330
C0
102
}
330
C0
100
AcDbXrecord
340
0
  0
XRECORD
  5
D7
102
{ACAD_REACTORS
330
C0
102
}
330
C0
100
AcDbXrecord
 70
     0
  0
XRECORD
  5
CB
102
{ACAD_REACTORS
330
C0
102
}
330
C0
100
AcDbXrecord
  1
{FAEB1C32-E019-11D5-929B-00C0DF256EC4}
  0
DICTIONARYVAR
  5
E3
102
{ACAD_REACTORS
330
E0
102
}
330
E0
100
DictionaryVariables
280
     0
  1
2
  0
DICTIONARYVAR
  5
E4
102
{ACAD_REACTORS
330
E0
102
}
330
E0
100
DictionaryVariables
280
     0
  1
1
  0
DICTIONARY
  5
E7
330
3D
100
AcDbDictionary
280
     1
  3
ACAD_XREC_ROUNDTRIP
360
E8
  0
DICTIONARY
  5
E5
330
3C
100
AcDbDictionary
280
     1
  3
ACAD_XREC_ROUNDTRIP
360
E6
  0
DICTIONARY
  5
E9
330
3E
100
AcDbDictionary
280
     1
  3
ACAD_XREC_ROUNDTRIP
360
EA
  0
XRECORD
  5
E8
102
{ACAD_REACTORS
330
E7
102
}
330
E7
100
AcDbXrecord
102
MATERIAL
148
0.0
149
0.0
149
0.0
 93
        0
 94
      127
282
     0
 72
     1
 77
     1
171
     1
175
     1
179
     1
273
     0
  0
XRECORD
  5
E6
102
{ACAD_REACTORS
330
E5
102
}
330
E5
100
AcDbXrecord
102
MATERIAL
148
0.0
149
0.0
149
0.0
 93
        0
 94
      127
282
     0
 72
     1
 77
     1
171
     1
175
     1
179
     1
273
     0
  0
XRECORD
  5
EA
102
{ACAD_REACTORS
330
E9
102
}
330
E9
100
AcDbXrecord
102
MATERIAL
148
0.0
149
0.0
149
0.0
 93
        0
 94
      127
282
     0
 72
     1
 77
     1
171
     1
175
     1
179
     1
273
     0
  0
ENDSEC
  0
EOF
