  0
SECTION
  2
HEADER
  9
$ACADVER
  1
AC1014
  9
$ACADMAINTVER
 70
     9
  9
$DWGCODEPAGE
  3
UNDEFINED
  9
$INSBASE
 10
0.0
 20
0.0
 30
0.0
  9
$EXTMIN
 10
1.000000000000000E+20
 20
1.000000000000000E+20
 30
1.000000000000000E+20
  9
$EXTMAX
 10
-1.000000000000000E+20
 20
-1.000000000000000E+20
 30
-1.000000000000000E+20
  9
$LIMMIN
 10
0.0
 20
0.0
  9
$LIMMAX
 10
12.0
 20
9.0
  9
$ORTHOMODE
 70
     0
  9
$REGENMODE
 70
     1
  9
$FILLMODE
 70
     1
  9
$QTEXTMODE
 70
     0
  9
$MIRRTEXT
 70
     1
  9
$DRAGMODE
 70
     2
  9
$LTSCALE
 40
1.0
  9
$OSMODE
 70
    37
  9
$ATTMODE
 70
     1
  9
$TEXTSIZE
 40
0.2
  9
$TRACEWID
 40
0.05
  9
$TEXTSTYLE
  7
STANDARD
  9
$CLAYER
  8
0
  9
$CELTYPE
  6
BYLAYER
  9
$CECOLOR
 62
   256
  9
$CELTSCALE
 40
1.0
  9
$DELOBJ
 70
     1
  9
$DISPSILH
 70
     0
  9
$DIMSCALE
 40
1.0
  9
$DIMASZ
 40
0.18
  9
$DIMEXO
 40
0.0625
  9
$DIMDLI
 40
0.38
  9
$DIMRND
 40
0.0
  9
$DIMDLE
 40
0.0
  9
$DIMEXE
 40
0.18
  9
$DIMTP
 40
0.0
  9
$DIMTM
 40
0.0
  9
$DIMTXT
 40
0.18
  9
$DIMCEN
 40
0.09
  9
$DIMTSZ
 40
0.0
  9
$DIMTOL
 70
     0
  9
$DIMLIM
 70
     0
  9
$DIMTIH
 70
     1
  9
$DIMTOH
 70
     1
  9
$DIMSE1
 70
     0
  9
$DIMSE2
 70
     0
  9
$DIMTAD
 70
     0
  9
$DIMZIN
 70
     0
  9
$DIMBLK
  1

  9
$DIMASO
 70
     1
  9
$DIMSHO
 70
     1
  9
$DIMPOST
  1

  9
$DIMAPOST
  1

  9
$DIMALT
 70
     0
  9
$DIMALTD
 70
     2
  9
$DIMALTF
 40
25.4
  9
$DIMLFAC
 40
1.0
  9
$DIMTOFL
 70
     0
  9
$DIMTVP
 40
0.0
  9
$DIMTIX
 70
     0
  9
$DIMSOXD
 70
     0
  9
$DIMSAH
 70
     0
  9
$DIMBLK1
  1

  9
$DIMBLK2
  1

  9
$DIMSTYLE
  2
STANDARD
  9
$DIMCLRD
 70
     0
  9
$DIMCLRE
 70
     0
  9
$DIMCLRT
 70
     0
  9
$DIMTFAC
 40
1.0
  9
$DIMGAP
 40
0.09
  9
$DIMJUST
 70
     0
  9
$DIMSD1
 70
     0
  9
$DIMSD2
 70
     0
  9
$DIMTOLJ
 70
     1
  9
$DIMTZIN
 70
     0
  9
$DIMALTZ
 70
     0
  9
$DIMALTTZ
 70
     0
  9
$DIMFIT
 70
     3
  9
$DIMUPT
 70
     0
  9
$DIMUNIT
 70
     2
  9
$DIMDEC
 70
     4
  9
$DIMTDEC
 70
     4
  9
$DIMALTU
 70
     2
  9
$DIMALTTD
 70
     2
  9
$DIMTXSTY
  7
STANDARD
  9
$DIMAUNIT
 70
     0
  9
$LUNITS
 70
     2
  9
$LUPREC
 70
     4
  9
$SKETCHINC
 40
0.1
  9
$FILLETRAD
 40
0.5
  9
$AUNITS
 70
     0
  9
$AUPREC
 70
     0
  9
$MENU
  1
.
  9
$ELEVATION
 40
0.0
  9
$PELEVATION
 40
0.0
  9
$THICKNESS
 40
0.0
  9
$LIMCHECK
 70
     0
  9
$CHAMFERA
 40
0.5
  9
$CHAMFERB
 40
0.5
  9
$CHAMFERC
 40
1.0
  9
$CHAMFERD
 40
0.0
  9
$SKPOLY
 70
     0
  9
$TDCREATE
 40
2458970.894004618
  9
$TDUPDATE
 40
2458970.894004618
  9
$TDINDWG
 40
0.0000000116
  9
$TDUSRTIMER
 40
0.0000000116
  9
$USRTIMER
 70
     1
  9
$ANGBASE
 50
0.0
  9
$ANGDIR
 70
     0
  9
$PDMODE
 70
     0
  9
$PDSIZE
 40
0.0
  9
$PLINEWID
 40
0.0
  9
$COORDS
 70
     1
  9
$SPLFRAME
 70
     0
  9
$SPLINETYPE
 70
     6
  9
$SPLINESEGS
 70
     8
  9
$ATTDIA
 70
     0
  9
$ATTREQ
 70
     1
  9
$HANDLING
 70
     1
  9
$HANDSEED
  5
1CD
  9
$SURFTAB1
 70
     6
  9
$SURFTAB2
 70
     6
  9
$SURFTYPE
 70
     6
  9
$SURFU
 70
     6
  9
$SURFV
 70
     6
  9
$UCSNAME
  2

  9
$UCSORG
 10
0.0
 20
0.0
 30
0.0
  9
$UCSXDIR
 10
1.0
 20
0.0
 30
0.0
  9
$UCSYDIR
 10
0.0
 20
1.0
 30
0.0
  9
$PUCSNAME
  2

  9
$PUCSORG
 10
0.0
 20
0.0
 30
0.0
  9
$PUCSXDIR
 10
1.0
 20
0.0
 30
0.0
  9
$PUCSYDIR
 10
0.0
 20
1.0
 30
0.0
  9
$USERI1
 70
     0
  9
$USERI2
 70
     0
  9
$USERI3
 70
     0
  9
$USERI4
 70
     0
  9
$USERI5
 70
     0
  9
$USERR1
 40
0.0
  9
$USERR2
 40
0.0
  9
$USERR3
 40
0.0
  9
$USERR4
 40
0.0
  9
$USERR5
 40
0.0
  9
$WORLDVIEW
 70
     1
  9
$SHADEDGE
 70
     3
  9
$SHADEDIF
 70
    70
  9
$TILEMODE
 70
     1
  9
$MAXACTVP
 70
    64
  9
$PINSBASE
 10
0.0
 20
0.0
 30
0.0
  9
$PLIMCHECK
 70
     0
  9
$PEXTMIN
 10
1.000000000000000E+20
 20
1.000000000000000E+20
 30
1.000000000000000E+20
  9
$PEXTMAX
 10
-1.000000000000000E+20
 20
-1.000000000000000E+20
 30
-1.000000000000000E+20
  9
$PLIMMIN
 10
0.0
 20
0.0
  9
$PLIMMAX
 10
12.0
 20
9.0
  9
$UNITMODE
 70
     0
  9
$VISRETAIN
 70
     1
  9
$PLINEGEN
 70
     0
  9
$PSLTSCALE
 70
     1
  9
$TREEDEPTH
 70
  3020
  9
$PICKSTYLE
 70
     1
  9
$CMLSTYLE
  2
STANDARD
  9
$CMLJUST
 70
     0
  9
$CMLSCALE
 40
1.0
  9
$PROXYGRAPHICS
 70
     1
  9
$MEASUREMENT
 70
     0
  0
ENDSEC
  0
SECTION
  2
CLASSES
  0
CLASS
  1
ACDBDICTIONARYWDFLT
  2
AcDbDictionaryWithDefault
  3
ObjectDBX Classes
 90
        0
280
     0
281
     0
  0
CLASS
  1
VISUALSTYLE
  2
AcDbVisualStyle
  3
ObjectDBX Classes
 90
     4095
280
     0
281
     0
  0
CLASS
  1
MATERIAL
  2
AcDbMaterial
  3
ObjectDBX Classes
 90
     1153
280
     0
281
     0
  0
CLASS
  1
SUN
  2
AcDbSun
  3
SCENEOE
 90
     1024
280
     0
281
     0
  0
CLASS
  1
DICTIONARYVAR
  2
AcDbDictionaryVar
  3
ObjectDBX Classes
 90
        0
280
     0
281
     0
  0
CLASS
  1
XRECORD
  2
AcDbXrecord
  3
AutoCAD 2000
 90
        0
280
     0
281
     0
  0
CLASS
  1
LWPOLYLINE
  2
AcDbPolyline
  3
AutoCAD 2000
 90
        0
280
     0
281
     1
  0
CLASS
  1
HATCH
  2
AcDbHatch
  3
AutoCAD 2000
 90
        0
280
     0
281
     1
  0
CLASS
  1
ACDBPLACEHOLDER
  2
AcDbPlaceHolder
  3
ObjectDBX Classes
 90
        0
280
     0
281
     0
  0
CLASS
  1
LAYOUT
  2
AcDbLayout
  3
ObjectDBX Classes
 90
        0
280
     0
281
     0
  0
ENDSEC
  0
SECTION
  2
TABLES
  0
TABLE
  2
VPORT
  5
8
330
0
100
AcDbSymbolTable
 70
     1
  0
VPORT
  5
29
330
8
100
AcDbSymbolTableRecord
100
AcDbViewportTableRecord
  2
*ACTIVE
 70
     0
 10
0.0
 20
0.0
 11
1.0
 21
1.0
 12
0.0
 22
0.0
 13
0.0
 23
0.0
 14
0.5
 24
0.5
 15
0.5
 25
0.5
 16
0.0
 26
0.0
 36
1.0
 17
104.9999989878935
 27
148.4996183011652
 37
0.0
 40
297.0000052006764
 41
0.7070706878738762
 42
50.0
 43
0.0
 44
0.0
 50
0.0
 51
0.0
 71
     0
 72
   100
 73
     1
 74
     3
 75
     0
 76
     0
 77
     0
 78
     0
  0
ENDTAB
  0
TABLE
  2
LTYPE
  5
5
330
0
100
AcDbSymbolTable
 70
     1
  0
LTYPE
  5
14
330
5
100
AcDbSymbolTableRecord
100
AcDbLinetypeTableRecord
  2
BYBLOCK
 70
     0
  3

 72
    65
 73
     0
 40
0.0
  0
LTYPE
  5
15
330
5
100
AcDbSymbolTableRecord
100
AcDbLinetypeTableRecord
  2
BYLAYER
 70
     0
  3

 72
    65
 73
     0
 40
0.0
  0
LTYPE
  5
16
330
5
100
AcDbSymbolTableRecord
100
AcDbLinetypeTableRecord
  2
CONTINUOUS
 70
     0
  3
Solid line
 72
    65
 73
     0
 40
0.0
  0
ENDTAB
  0
TABLE
  2
LAYER
  5
2
330
0
100
AcDbSymbolTable
 70
    15
  0
LAYER
  5
10
330
2
100
AcDbSymbolTableRecord
100
AcDbLayerTableRecord
  2
0
 70
     0
 62
     7
  6
CONTINUOUS
  0
LAYER
  5
40
330
2
100
AcDbSymbolTableRecord
100
AcDbLayerTableRecord
  2
OUTLINE
 70
     5
 62
     7
  6
CONTINUOUS
  0
LAYER
  5
41
330
2
100
AcDbSymbolTableRecord
100
AcDbLayerTableRecord
  2
OUTLINE_U_306E_U_30B3_U_30
 70
     4
 62
     7
  6
CONTINUOUS
  0
LAYER
  5
42
330
2
100
AcDbSymbolTableRecord
100
AcDbLayerTableRecord
  2
L2-SILK
 70
     5
 62
     7
  6
CONTINUOUS
  0
LAYER
  5
43
330
2
100
AcDbSymbolTableRecord
100
AcDbLayerTableRecord
  2
L2-PATTERN
 70
     1
 62
     7
  6
CONTINUOUS
  0
LAYER
  5
44
330
2
100
AcDbSymbolTableRecord
100
AcDbLayerTableRecord
  2
L2-RESIST
 70
     1
 62
     7
  6
CONTINUOUS
  0
LAYER
  5
45
330
2
100
AcDbSymbolTableRecord
100
AcDbLayerTableRecord
  2
L1-PATTERN
 70
     0
 62
     7
  6
CONTINUOUS
  0
LAYER
  5
19A
330
2
100
AcDbSymbolTableRecord
100
AcDbLayerTableRecord
  2
_U_30EC_U_30A4_U_30E4_U_30
 70
     1
 62
     7
  6
CONTINUOUS
  0
LAYER
  5
19B
330
2
100
AcDbSymbolTableRecord
100
AcDbLayerTableRecord
  2
L1-RESIST
 70
     1
 62
     7
  6
CONTINUOUS
  0
LAYER
  5
19C
330
2
100
AcDbSymbolTableRecord
100
AcDbLayerTableRecord
  2
L1-SILK
 70
     5
 62
     7
  6
CONTINUOUS
  0
LAYER
  5
19D
330
2
100
AcDbSymbolTableRecord
100
AcDbLayerTableRecord
  2
DRILL
 70
     1
 62
     7
  6
CONTINUOUS
  0
LAYER
  5
19E
330
2
100
AcDbSymbolTableRecord
100
AcDbLayerTableRecord
  2
_U_30EC_U_30A4_U_30E4_U_31
 70
     1
 62
     7
  6
CONTINUOUS
  0
LAYER
  5
19F
330
2
100
AcDbSymbolTableRecord
100
AcDbLayerTableRecord
  2
HANE
 70
     5
 62
     7
  6
CONTINUOUS
  0
LAYER
  5
1A0
330
2
100
AcDbSymbolTableRecord
100
AcDbLayerTableRecord
  2
L2-RESIST_U_306E_U_30B3_U_
 70
     5
 62
     7
  6
CONTINUOUS
  0
LAYER
  5
1A1
330
2
100
AcDbSymbolTableRecord
100
AcDbLayerTableRecord
  2
_U_30EC_U_30A4_U_30E4_U_32
 70
     5
 62
     7
  6
CONTINUOUS
  0
ENDTAB
  0
TABLE
  2
STYLE
  5
3
330
0
100
AcDbSymbolTable
 70
     1
  0
STYLE
  5
11
330
3
100
AcDbSymbolTableRecord
100
AcDbTextStyleTableRecord
  2
STANDARD
 70
     0
 40
0.0
 41
1.0
 50
0.0
 71
     0
 42
0.2
  3
txt
  4

  0
ENDTAB
  0
TABLE
  2
VIEW
  5
6
330
0
100
AcDbSymbolTable
 70
     0
  0
ENDTAB
  0
TABLE
  2
UCS
  5
7
330
0
100
AcDbSymbolTable
 70
     0
  0
ENDTAB
  0
TABLE
  2
APPID
  5
9
330
0
100
AcDbSymbolTable
 70
     1
  0
APPID
  5
12
330
9
100
AcDbSymbolTableRecord
100
AcDbRegAppTableRecord
  2
ACAD
 70
     0
  0
ENDTAB
  0
TABLE
  2
DIMSTYLE
  5
A
330
0
100
AcDbSymbolTable
 70
     1
  0
DIMSTYLE
105
27
330
A
100
AcDbSymbolTableRecord
100
AcDbDimStyleTableRecord
  2
STANDARD
 70
     0
  3

  4

  5

  6

  7

 40
1.0
 41
0.18
 42
0.0625
 43
0.38
 44
0.18
 45
0.0
 46
0.0
 47
0.0
 48
0.0
140
0.18
141
0.09
142
0.0
143
25.4
144
1.0
145
0.0
146
1.0
147
0.09
 71
     0
 72
     0
 73
     1
 74
     1
 75
     0
 76
     0
 77
     0
 78
     0
170
     0
171
     2
172
     0
173
     0
174
     0
175
     0
176
     0
177
     0
178
     0
270
     2
271
     4
272
     4
273
     2
274
     2
340
11
275
     0
280
     0
281
     0
282
     0
283
     1
284
     0
285
     0
286
     0
287
     3
288
     0
  0
ENDTAB
  0
TABLE
  2
BLOCK_RECORD
  5
1
330
0
100
AcDbSymbolTable
 70
     1
  0
BLOCK_RECORD
  5
1F
330
1
100
AcDbSymbolTableRecord
100
AcDbBlockTableRecord
  2
*MODEL_SPACE
  0
BLOCK_RECORD
  5
1B
330
1
100
AcDbSymbolTableRecord
100
AcDbBlockTableRecord
  2
*PAPER_SPACE
  0
ENDTAB
  0
ENDSEC
  0
SECTION
  2
BLOCKS
  0
BLOCK
  5
20
330
1F
100
AcDbEntity
  8
0
100
AcDbBlockBegin
  2
*MODEL_SPACE
 70
     0
 10
0.0
 20
0.0
 30
0.0
  3
*MODEL_SPACE
  1

  0
ENDBLK
  5
21
330
1F
100
AcDbEntity
  8
0
100
AcDbBlockEnd
  0
BLOCK
  5
1C
330
1B
100
AcDbEntity
 67
     1
  8
0
100
AcDbBlockBegin
  2
*PAPER_SPACE
 70
     0
 10
0.0
 20
0.0
 30
0.0
  3
*PAPER_SPACE
  1

  0
ENDBLK
  5
1D
330
1B
100
AcDbEntity
 67
     1
  8
0
100
AcDbBlockEnd
  0
ENDSEC
  0
SECTION
  2
ENTITIES
  0
POLYLINE
  5
46
330
1F
100
AcDbEntity
  8
L1-PATTERN
100
AcDb2dPolyline
 66
     1
 10
0.0
 20
0.0
 30
0.0
  0
VERTEX
  5
47
330
46
100
AcDbEntity
  8
L1-PATTERN
100
AcDbVertex
100
AcDb2dVertex
 10
8.955073545124513
 20
78.70878310884929
 30
0.0
  0
VERTEX
  5
48
330
46
100
AcDbEntity
  8
L1-PATTERN
100
AcDbVertex
100
AcDb2dVertex
 10
8.828789263743325
 20
78.70103164400747
 30
0.0
  0
VERTEX
  5
49
330
46
100
AcDbEntity
  8
L1-PATTERN
100
AcDbVertex
100
AcDb2dVertex
 10
8.66088392253096
 20
78.70695290187274
 30
0.0
  0
VERTEX
  5
4A
330
46
100
AcDbEntity
  8
L1-PATTERN
100
AcDbVertex
100
AcDb2dVertex
 10
8.494119769198084
 20
78.72887232189764
 30
0.0
  0
VERTEX
  5
4B
330
46
100
AcDbEntity
  8
L1-PATTERN
100
AcDbVertex
100
AcDb2dVertex
 10
8.329724119011319
 20
78.76681143592896
 30
0.0
  0
VERTEX
  5
4C
330
46
100
AcDbEntity
  8
L1-PATTERN
100
AcDbVertex
100
AcDb2dVertex
 10
8.168859691696936
 20
78.82081330766025
 30
0.0
  0
VERTEX
  5
4D
330
46
100
AcDbEntity
  8
L1-PATTERN
100
AcDbVertex
100
AcDb2dVertex
 10
8.012775334368333
 20
78.8908994689383
 30
0.0
  0
VERTEX
  5
4E
330
46
100
AcDbEntity
  8
L1-PATTERN
100
AcDbVertex
100
AcDb2dVertex
 10
7.862655298598573
 20
78.97713451530346
 30
0.0
  0
VERTEX
  5
4F
330
46
100
AcDbEntity
  8
L1-PATTERN
100
AcDbVertex
100
AcDb2dVertex
 10
7.719705367807487
 20
79.0795615104493
 30
0.0
  0
VERTEX
  5
50
330
46
100
AcDbEntity
  8
L1-PATTERN
100
AcDbVertex
100
AcDb2dVertex
 10
7.585152857261698
 20
79.1981804543758
 30
0.0
  0
VERTEX
  5
51
330
46
100
AcDbEntity
  8
L1-PATTERN
100
AcDbVertex
100
AcDb2dVertex
 10
7.463174945237071
 20
79.329718506372
 30
0.0
  0
VERTEX
  5
52
330
46
100
AcDbEntity
  8
L1-PATTERN
100
AcDbVertex
100
AcDb2dVertex
 10
7.357216727218856
 20
79.47006308370237
 30
0.0
  0
VERTEX
  5
53
330
46
100
AcDbEntity
  8
L1-PATTERN
100
AcDbVertex
100
AcDb2dVertex
 10
7.267256671360269
 20
79.61800840294707
 30
0.0
  0
VERTEX
  5
54
330
46
100
AcDbEntity
  8
L1-PATTERN
100
AcDbVertex
100
AcDb2dVertex
 10
7.193251713967746
 20
79.77234868068626
 30
0.0
  0
VERTEX
  5
55
330
46
100
AcDbEntity
  8
L1-PATTERN
100
AcDbVertex
100
AcDb2dVertex
 10
7.135201855041287
 20
79.9318781335001
 30
0.0
  0
VERTEX
  5
56
330
46
100
AcDbEntity
  8
L1-PATTERN
100
AcDbVertex
100
AcDb2dVertex
 10
7.093107094580891
 20
80.09536944612199
 30
0.0
  0
VERTEX
  5
57
330
46
100
AcDbEntity
  8
L1-PATTERN
100
AcDbVertex
100
AcDb2dVertex
 10
7.066924368892991
 20
80.26163836697887
 30
0.0
  0
VERTEX
  5
58
330
46
100
AcDbEntity
  8
L1-PATTERN
100
AcDbVertex
100
AcDb2dVertex
 10
7.05665367797759
 20
80.42947911265088
 30
0.0
  0
VERTEX
  5
59
330
46
100
AcDbEntity
  8
L1-PATTERN
100
AcDbVertex
100
AcDb2dVertex
 10
7.062790254310691
 20
80.59759977233107
 30
0.0
  0
VERTEX
  5
5A
330
46
100
AcDbEntity
  8
L1-PATTERN
100
AcDbVertex
100
AcDb2dVertex
 10
7.084860397263073
 20
80.76453618043821
 30
0.0
  0
VERTEX
  5
5B
330
46
100
AcDbEntity
  8
L1-PATTERN
100
AcDbVertex
100
AcDb2dVertex
 10
7.122928702375084
 20
80.92908255355246
 30
0.0
  0
VERTEX
  5
5C
330
46
100
AcDbEntity
  8
L1-PATTERN
100
AcDbVertex
100
AcDb2dVertex
 10
7.177016701493507
 20
81.09001157640719
 30
0.0
  0
VERTEX
  5
5D
330
46
100
AcDbEntity
  8
L1-PATTERN
100
AcDbVertex
100
AcDb2dVertex
 10
7.247167458311907
 20
81.24616052927614
 30
0.0
  0
VERTEX
  5
5E
330
46
100
AcDbEntity
  8
L1-PATTERN
100
AcDbVertex
100
AcDb2dVertex
 10
7.333424036523849
 20
81.39630209689268
 30
0.0
  0
VERTEX
  5
5F
330
46
100
AcDbEntity
  8
L1-PATTERN
100
AcDbVertex
100
AcDb2dVertex
 10
7.4358294998229
 20
81.53927355953056
 30
0.0
  0
VERTEX
  5
60
330
46
100
AcDbEntity
  8
L1-PATTERN
100
AcDbVertex
100
AcDb2dVertex
 10
7.554448443749409
 20
81.67382607007634
 30
0.0
  0
VERTEX
  5
61
330
46
100
AcDbEntity
  8
L1-PATTERN
100
AcDbVertex
100
AcDb2dVertex
 10
7.685900368358473
 20
81.79567479102028
 30
0.0
  0
VERTEX
  5
62
330
46
100
AcDbEntity
  8
L1-PATTERN
100
AcDbVertex
100
AcDb2dVertex
 10
7.826223413842055
 20
81.90158994534492
 30
0.0
  0
VERTEX
  5
63
330
46
100
AcDbEntity
  8
L1-PATTERN
100
AcDbVertex
100
AcDb2dVertex
 10
7.974147201239971
 20
81.99152846935672
 30
0.0
  0
VERTEX
  5
64
330
46
100
AcDbEntity
  8
L1-PATTERN
100
AcDbVertex
100
AcDb2dVertex
 10
8.128509010825946
 20
82.06553342674924
 30
0.0
  0
VERTEX
  5
65
330
46
100
AcDbEntity
  8
L1-PATTERN
100
AcDbVertex
100
AcDb2dVertex
 10
8.288081527333363
 20
82.1235832856757
 30
0.0
  0
VERTEX
  5
66
330
46
100
AcDbEntity
  8
L1-PATTERN
100
AcDbVertex
100
AcDb2dVertex
 10
8.451615903648815
 20
82.16565651428932
 30
0.0
  0
VERTEX
  5
67
330
46
100
AcDbEntity
  8
L1-PATTERN
100
AcDbVertex
100
AcDb2dVertex
 10
8.617906356352469
 20
82.19179617628365
 30
0.0
  0
VERTEX
  5
68
330
46
100
AcDbEntity
  8
L1-PATTERN
100
AcDbVertex
100
AcDb2dVertex
 10
8.785768633871266
 20
82.20195920796515
 30
0.0
  0
VERTEX
  5
69
330
46
100
AcDbEntity
  8
L1-PATTERN
100
AcDbVertex
100
AcDb2dVertex
 10
8.95367397508363
 20
82.19582263163204
 30
0.0
  0
VERTEX
  5
6A
330
46
100
AcDbEntity
  8
L1-PATTERN
100
AcDbVertex
100
AcDb2dVertex
 10
8.955073545124513
 20
82.19562884501099
 30
0.0
  0
VERTEX
  5
6B
330
46
100
AcDbEntity
  8
L1-PATTERN
100
AcDbVertex
100
AcDb2dVertex
 10
8.955073545124513
 20
82.4370223792931
 30
0.0
  0
VERTEX
  5
6C
330
46
100
AcDbEntity
  8
L1-PATTERN
100
AcDbVertex
100
AcDb2dVertex
 10
8.782689579781325
 20
82.45138412109722
 30
0.0
  0
VERTEX
  5
6D
330
46
100
AcDbEntity
  8
L1-PATTERN
100
AcDbVertex
100
AcDb2dVertex
 10
8.40125291402382
 20
82.40999991158067
 30
0.0
  0
VERTEX
  5
6E
330
46
100
AcDbEntity
  8
L1-PATTERN
100
AcDbVertex
100
AcDb2dVertex
 10
8.032089400932517
 20
82.29551508223645
 30
0.0
  0
VERTEX
  5
6F
330
46
100
AcDbEntity
  8
L1-PATTERN
100
AcDbVertex
100
AcDb2dVertex
 10
7.68656785560874
 20
82.10808035599209
 30
0.0
  0
VERTEX
  5
70
330
46
100
AcDbEntity
  8
L1-PATTERN
100
AcDbVertex
100
AcDb2dVertex
 10
7.37601402946025
 20
81.84782492392824
 30
0.0
  0
VERTEX
  5
71
330
46
100
AcDbEntity
  8
L1-PATTERN
100
AcDbVertex
100
AcDb2dVertex
 10
7.123639253318917
 20
81.53091920297882
 30
0.0
  0
VERTEX
  5
72
330
46
100
AcDbEntity
  8
L1-PATTERN
100
AcDbVertex
100
AcDb2dVertex
 10
6.944903393174799
 20
81.18083290613708
 30
0.0
  0
VERTEX
  5
73
330
46
100
AcDbEntity
  8
L1-PATTERN
100
AcDbVertex
100
AcDb2dVertex
 10
6.839677257947199
 20
80.8088917848108
 30
0.0
  0
VERTEX
  5
74
330
46
100
AcDbEntity
  8
L1-PATTERN
100
AcDbVertex
100
AcDb2dVertex
 10
6.807810124708638
 20
80.42648618594806
 30
0.0
  0
VERTEX
  5
75
330
46
100
AcDbEntity
  8
L1-PATTERN
100
AcDbVertex
100
AcDb2dVertex
 10
6.849129738684853
 20
80.04496339280344
 30
0.0
  0
VERTEX
  5
76
330
46
100
AcDbEntity
  8
L1-PATTERN
100
AcDbVertex
100
AcDb2dVertex
 10
6.963506908795148
 20
79.67569222047821
 30
0.0
  0
VERTEX
  5
77
330
46
100
AcDbEntity
  8
L1-PATTERN
100
AcDbVertex
100
AcDb2dVertex
 10
7.15076938026526
 20
79.33004148407375
 30
0.0
  0
VERTEX
  5
78
330
46
100
AcDbEntity
  8
L1-PATTERN
100
AcDbVertex
100
AcDb2dVertex
 10
7.410809493861274
 20
79.01937999869133
 30
0.0
  0
VERTEX
  5
79
330
46
100
AcDbEntity
  8
L1-PATTERN
100
AcDbVertex
100
AcDb2dVertex
 10
7.727801342197824
 20
78.76711288178392
 30
0.0
  0
VERTEX
  5
7A
330
46
100
AcDbEntity
  8
L1-PATTERN
100
AcDbVertex
100
AcDb2dVertex
 10
8.077973766426688
 20
78.58846314902694
 30
0.0
  0
VERTEX
  5
7B
330
46
100
AcDbEntity
  8
L1-PATTERN
100
AcDbVertex
100
AcDb2dVertex
 10
8.449957951446539
 20
78.48332314118646
 30
0.0
  0
VERTEX
  5
7C
330
46
100
AcDbEntity
  8
L1-PATTERN
100
AcDbVertex
100
AcDb2dVertex
 10
8.832385082156053
 20
78.45154213533503
 30
0.0
  0
VERTEX
  5
7D
330
46
100
AcDbEntity
  8
L1-PATTERN
100
AcDbVertex
100
AcDb2dVertex
 10
8.955073545124513
 20
78.46487034849359
 30
0.0
  0
VERTEX
  5
7E
330
46
100
AcDbEntity
  8
L1-PATTERN
100
AcDbVertex
100
AcDb2dVertex
 10
8.955073545124513
 20
78.70878310884929
 30
0.0
  0
SEQEND
  5
80
330
46
100
AcDbEntity
  8
L1-PATTERN
  0
HATCH
  5
7F
330
1F
100
AcDbEntity
  8
L1-PATTERN
 62
     1
100
AcDbHatch
 10
0.0
 20
0.0
 30
0.0
210
0.0
220
0.0
230
1.0
  2
SOLID
 70
     1
 71
     0
 91
        1
 92
        1
 93
       55
 72
     1
 10
8.955073545124513
 20
78.70878310884929
 11
8.828789263743325
 21
78.70103164400747
 72
     1
 10
8.828789263743325
 20
78.70103164400747
 11
8.66088392253096
 21
78.70695290187274
 72
     1
 10
8.66088392253096
 20
78.70695290187274
 11
8.494119769198084
 21
78.72887232189764
 72
     1
 10
8.494119769198084
 20
78.72887232189764
 11
8.329724119011319
 21
78.76681143592896
 72
     1
 10
8.329724119011319
 20
78.76681143592896
 11
8.168859691696936
 21
78.82081330766025
 72
     1
 10
8.168859691696936
 20
78.82081330766025
 11
8.012775334368333
 21
78.8908994689383
 72
     1
 10
8.012775334368333
 20
78.8908994689383
 11
7.862655298598573
 21
78.97713451530346
 72
     1
 10
7.862655298598573
 20
78.97713451530346
 11
7.719705367807487
 21
79.0795615104493
 72
     1
 10
7.719705367807487
 20
79.0795615104493
 11
7.585152857261698
 21
79.1981804543758
 72
     1
 10
7.585152857261698
 20
79.1981804543758
 11
7.463174945237071
 21
79.329718506372
 72
     1
 10
7.463174945237071
 20
79.329718506372
 11
7.357216727218856
 21
79.47006308370237
 72
     1
 10
7.357216727218856
 20
79.47006308370237
 11
7.267256671360269
 21
79.61800840294707
 72
     1
 10
7.267256671360269
 20
79.61800840294707
 11
7.193251713967746
 21
79.77234868068626
 72
     1
 10
7.193251713967746
 20
79.77234868068626
 11
7.135201855041287
 21
79.9318781335001
 72
     1
 10
7.135201855041287
 20
79.9318781335001
 11
7.093107094580891
 21
80.09536944612199
 72
     1
 10
7.093107094580891
 20
80.09536944612199
 11
7.066924368892991
 21
80.26163836697887
 72
     1
 10
7.066924368892991
 20
80.26163836697887
 11
7.05665367797759
 21
80.42947911265088
 72
     1
 10
7.05665367797759
 20
80.42947911265088
 11
7.062790254310691
 21
80.59759977233107
 72
     1
 10
7.062790254310691
 20
80.59759977233107
 11
7.084860397263073
 21
80.76453618043821
 72
     1
 10
7.084860397263073
 20
80.76453618043821
 11
7.122928702375084
 21
80.92908255355246
 72
     1
 10
7.122928702375084
 20
80.92908255355246
 11
7.177016701493507
 21
81.09001157640719
 72
     1
 10
7.177016701493507
 20
81.09001157640719
 11
7.247167458311907
 21
81.24616052927614
 72
     1
 10
7.247167458311907
 20
81.24616052927614
 11
7.333424036523849
 21
81.39630209689268
 72
     1
 10
7.333424036523849
 20
81.39630209689268
 11
7.4358294998229
 21
81.53927355953056
 72
     1
 10
7.4358294998229
 20
81.53927355953056
 11
7.554448443749409
 21
81.67382607007634
 72
     1
 10
7.554448443749409
 20
81.67382607007634
 11
7.685900368358473
 21
81.79567479102028
 72
     1
 10
7.685900368358473
 20
81.79567479102028
 11
7.826223413842055
 21
81.90158994534492
 72
     1
 10
7.826223413842055
 20
81.90158994534492
 11
7.974147201239971
 21
81.99152846935672
 72
     1
 10
7.974147201239971
 20
81.99152846935672
 11
8.128509010825946
 21
82.06553342674924
 72
     1
 10
8.128509010825946
 20
82.06553342674924
 11
8.288081527333363
 21
82.1235832856757
 72
     1
 10
8.288081527333363
 20
82.1235832856757
 11
8.451615903648815
 21
82.16565651428932
 72
     1
 10
8.451615903648815
 20
82.16565651428932
 11
8.617906356352469
 21
82.19179617628365
 72
     1
 10
8.617906356352469
 20
82.19179617628365
 11
8.785768633871266
 21
82.20195920796515
 72
     1
 10
8.785768633871266
 20
82.20195920796515
 11
8.95367397508363
 21
82.19582263163204
 72
     1
 10
8.95367397508363
 20
82.19582263163204
 11
8.955073545124513
 21
82.19562884501099
 72
     1
 10
8.955073545124513
 20
82.19562884501099
 11
8.955073545124513
 21
82.4370223792931
 72
     1
 10
8.955073545124513
 20
82.4370223792931
 11
8.782689579781325
 21
82.45138412109722
 72
     1
 10
8.782689579781325
 20
82.45138412109722
 11
8.40125291402382
 21
82.40999991158067
 72
     1
 10
8.40125291402382
 20
82.40999991158067
 11
8.032089400932517
 21
82.29551508223645
 72
     1
 10
8.032089400932517
 20
82.29551508223645
 11
7.68656785560874
 21
82.10808035599209
 72
     1
 10
7.68656785560874
 20
82.10808035599209
 11
7.37601402946025
 21
81.84782492392824
 72
     1
 10
7.37601402946025
 20
81.84782492392824
 11
7.123639253318917
 21
81.53091920297882
 72
     1
 10
7.123639253318917
 20
81.53091920297882
 11
6.944903393174799
 21
81.18083290613708
 72
     1
 10
6.944903393174799
 20
81.18083290613708
 11
6.839677257947199
 21
80.8088917848108
 72
     1
 10
6.839677257947199
 20
80.8088917848108
 11
6.807810124708638
 21
80.42648618594806
 72
     1
 10
6.807810124708638
 20
80.42648618594806
 11
6.849129738684853
 21
80.04496339280344
 72
     1
 10
6.849129738684853
 20
80.04496339280344
 11
6.963506908795148
 21
79.67569222047821
 72
     1
 10
6.963506908795148
 20
79.67569222047821
 11
7.15076938026526
 21
79.33004148407375
 72
     1
 10
7.15076938026526
 20
79.33004148407375
 11
7.410809493861274
 21
79.01937999869133
 72
     1
 10
7.410809493861274
 20
79.01937999869133
 11
7.727801342197824
 21
78.76711288178392
 72
     1
 10
7.727801342197824
 20
78.76711288178392
 11
8.077973766426688
 21
78.58846314902694
 72
     1
 10
8.077973766426688
 20
78.58846314902694
 11
8.449957951446539
 21
78.48332314118646
 72
     1
 10
8.449957951446539
 20
78.48332314118646
 11
8.832385082156053
 21
78.45154213533503
 72
     1
 10
8.832385082156053
 20
78.45154213533503
 11
8.955073545124513
 21
78.46487034849359
 72
     1
 10
8.955073545124513
 20
78.46487034849359
 11
8.955073545124513
 21
78.70878310884929
 97
        0
 75
     2
 76
     1
 98
        0
  0
POLYLINE
  5
81
330
1F
100
AcDbEntity
  8
L1-PATTERN
100
AcDb2dPolyline
 66
     1
 10
0.0
 20
0.0
 30
0.0
  0
VERTEX
  5
82
330
81
100
AcDbEntity
  8
L1-PATTERN
100
AcDbVertex
100
AcDb2dVertex
 10
7.652999706474337
 20
80.2778733794531
 30
0.0
  0
VERTEX
  5
83
330
81
100
AcDbEntity
  8
L1-PATTERN
100
AcDbVertex
100
AcDb2dVertex
 10
7.659007091726742
 20
80.26712898790848
 30
0.0
  0
VERTEX
  5
84
330
81
100
AcDbEntity
  8
L1-PATTERN
100
AcDbVertex
100
AcDb2dVertex
 10
7.667146129810645
 20
80.25752578424334
 30
0.0
  0
VERTEX
  5
85
330
81
100
AcDbEntity
  8
L1-PATTERN
100
AcDbVertex
100
AcDb2dVertex
 10
7.791449481287815
 20
80.13625842316256
 30
0.0
  0
VERTEX
  5
86
330
81
100
AcDbEntity
  8
L1-PATTERN
100
AcDbVertex
100
AcDb2dVertex
 10
7.915774364611768
 20
80.01499106208176
 30
0.0
  0
VERTEX
  5
87
330
81
100
AcDbEntity
  8
L1-PATTERN
100
AcDbVertex
100
AcDb2dVertex
 10
8.040099247935721
 20
79.89372370100097
 30
0.0
  0
VERTEX
  5
88
330
81
100
AcDbEntity
  8
L1-PATTERN
100
AcDbVertex
100
AcDb2dVertex
 10
8.164424131259675
 20
79.77245633992017
 30
0.0
  0
VERTEX
  5
89
330
81
100
AcDbEntity
  8
L1-PATTERN
100
AcDbVertex
100
AcDb2dVertex
 10
8.28874901458363
 20
79.65118897883937
 30
0.0
  0
VERTEX
  5
8A
330
81
100
AcDbEntity
  8
L1-PATTERN
100
AcDbVertex
100
AcDb2dVertex
 10
8.413073897907582
 20
79.52992161775859
 30
0.0
  0
VERTEX
  5
8B
330
81
100
AcDbEntity
  8
L1-PATTERN
100
AcDbVertex
100
AcDb2dVertex
 10
8.537398781231536
 20
79.40865425667779
 30
0.0
  0
VERTEX
  5
8C
330
81
100
AcDbEntity
  8
L1-PATTERN
100
AcDbVertex
100
AcDb2dVertex
 10
8.66172366455549
 20
79.287386895597
 30
0.0
  0
VERTEX
  5
8D
330
81
100
AcDbEntity
  8
L1-PATTERN
100
AcDbVertex
100
AcDb2dVertex
 10
8.664522804637254
 20
79.28497532875731
 30
0.0
  0
VERTEX
  5
8E
330
81
100
AcDbEntity
  8
L1-PATTERN
100
AcDbVertex
100
AcDb2dVertex
 10
8.667451135799718
 20
79.28288673961939
 30
0.0
  0
VERTEX
  5
8F
330
81
100
AcDbEntity
  8
L1-PATTERN
100
AcDbVertex
100
AcDb2dVertex
 10
8.670530189889659
 20
79.28109959633642
 30
0.0
  0
VERTEX
  5
90
330
81
100
AcDbEntity
  8
L1-PATTERN
100
AcDbVertex
100
AcDb2dVertex
 10
8.673738435060299
 20
79.27965696260196
 30
0.0
  0
VERTEX
  5
91
330
81
100
AcDbEntity
  8
L1-PATTERN
100
AcDbVertex
100
AcDb2dVertex
 10
8.677054339464851
 20
79.27853730656926
 30
0.0
  0
VERTEX
  5
92
330
81
100
AcDbEntity
  8
L1-PATTERN
100
AcDbVertex
100
AcDb2dVertex
 10
8.680477903103318
 20
79.27774062823829
 30
0.0
  0
VERTEX
  5
93
330
81
100
AcDbEntity
  8
L1-PATTERN
100
AcDbVertex
100
AcDb2dVertex
 10
8.683987594128917
 20
79.2772453957623
 30
0.0
  0
VERTEX
  5
94
330
81
100
AcDbEntity
  8
L1-PATTERN
100
AcDbVertex
100
AcDb2dVertex
 10
8.687583412541645
 20
79.2770946728348
 30
0.0
  0
VERTEX
  5
95
330
81
100
AcDbEntity
  8
L1-PATTERN
100
AcDbVertex
100
AcDb2dVertex
 10
8.691157699107594
 20
79.27728845945586
 30
0.0
  0
VERTEX
  5
96
330
81
100
AcDbEntity
  8
L1-PATTERN
100
AcDbVertex
100
AcDb2dVertex
 10
8.694645858286409
 20
79.27782675562543
 30
0.0
  0
VERTEX
  5
97
330
81
100
AcDbEntity
  8
L1-PATTERN
100
AcDbVertex
100
AcDb2dVertex
 10
8.698047890078092
 20
79.2787310931903
 30
0.0
  0
VERTEX
  5
98
330
81
100
AcDbEntity
  8
L1-PATTERN
100
AcDbVertex
100
AcDb2dVertex
 10
8.701299198942298
 20
79.2799799403037
 30
0.0
  0
VERTEX
  5
99
330
81
100
AcDbEntity
  8
L1-PATTERN
100
AcDbVertex
100
AcDb2dVertex
 10
8.704421316725805
 20
79.28150870142528
 30
0.0
  0
VERTEX
  5
9A
330
81
100
AcDbEntity
  8
L1-PATTERN
100
AcDbVertex
100
AcDb2dVertex
 10
8.70737117973505
 20
79.28331737655505
 30
0.0
  0
VERTEX
  5
9B
330
81
100
AcDbEntity
  8
L1-PATTERN
100
AcDbVertex
100
AcDb2dVertex
 10
8.710148787970033
 20
79.28540596569297
 30
0.0
  0
VERTEX
  5
9C
330
81
100
AcDbEntity
  8
L1-PATTERN
100
AcDbVertex
100
AcDb2dVertex
 10
8.712689545890404
 20
79.2877529369923
 30
0.0
  0
VERTEX
  5
9D
330
81
100
AcDbEntity
  8
L1-PATTERN
100
AcDbVertex
100
AcDb2dVertex
 10
8.731680634752845
 20
79.3071746627904
 30
0.0
  0
VERTEX
  5
9E
330
81
100
AcDbEntity
  8
L1-PATTERN
100
AcDbVertex
100
AcDb2dVertex
 10
8.750693255462068
 20
79.3265963885885
 30
0.0
  0
VERTEX
  5
9F
330
81
100
AcDbEntity
  8
L1-PATTERN
100
AcDbVertex
100
AcDb2dVertex
 10
8.769684344324506
 20
79.3460181143866
 30
0.0
  0
VERTEX
  5
A0
330
81
100
AcDbEntity
  8
L1-PATTERN
100
AcDbVertex
100
AcDb2dVertex
 10
8.788675433186945
 20
79.36543984018469
 30
0.0
  0
VERTEX
  5
A1
330
81
100
AcDbEntity
  8
L1-PATTERN
100
AcDbVertex
100
AcDb2dVertex
 10
8.807666522049386
 20
79.38486156598277
 30
0.0
  0
VERTEX
  5
A2
330
81
100
AcDbEntity
  8
L1-PATTERN
100
AcDbVertex
100
AcDb2dVertex
 10
8.826657610911825
 20
79.40430482362765
 30
0.0
  0
VERTEX
  5
A3
330
81
100
AcDbEntity
  8
L1-PATTERN
100
AcDbVertex
100
AcDb2dVertex
 10
8.845648699774266
 20
79.42372654942575
 30
0.0
  0
VERTEX
  5
A4
330
81
100
AcDbEntity
  8
L1-PATTERN
100
AcDbVertex
100
AcDb2dVertex
 10
8.864639788636705
 20
79.44314827522385
 30
0.0
  0
VERTEX
  5
A5
330
81
100
AcDbEntity
  8
L1-PATTERN
100
AcDbVertex
100
AcDb2dVertex
 10
8.86705135547638
 20
79.44603354269275
 30
0.0
  0
VERTEX
  5
A6
330
81
100
AcDbEntity
  8
L1-PATTERN
100
AcDbVertex
100
AcDb2dVertex
 10
8.869161476461095
 20
79.44900493754878
 30
0.0
  0
VERTEX
  5
A7
330
81
100
AcDbEntity
  8
L1-PATTERN
100
AcDbVertex
100
AcDb2dVertex
 10
8.870927087897286
 20
79.45206245979193
 30
0.0
  0
VERTEX
  5
A8
330
81
100
AcDbEntity
  8
L1-PATTERN
100
AcDbVertex
100
AcDb2dVertex
 10
8.872391253478517
 20
79.455227641269
 30
0.0
  0
VERTEX
  5
A9
330
81
100
AcDbEntity
  8
L1-PATTERN
100
AcDbVertex
100
AcDb2dVertex
 10
8.873510909511223
 20
79.45845741828643
 30
0.0
  0
VERTEX
  5
AA
330
81
100
AcDbEntity
  8
L1-PATTERN
100
AcDbVertex
100
AcDb2dVertex
 10
8.874329119688971
 20
79.46177332269099
 30
0.0
  0
VERTEX
  5
AB
330
81
100
AcDbEntity
  8
L1-PATTERN
100
AcDbVertex
100
AcDb2dVertex
 10
8.874824352164975
 20
79.46515382263588
 30
0.0
  0
VERTEX
  5
AC
330
81
100
AcDbEntity
  8
L1-PATTERN
100
AcDbVertex
100
AcDb2dVertex
 10
8.874975075092454
 20
79.46862044996791
 30
0.0
  0
VERTEX
  5
AD
330
81
100
AcDbEntity
  8
L1-PATTERN
100
AcDbVertex
100
AcDb2dVertex
 10
8.874802820318193
 20
79.47243158684847
 30
0.0
  0
VERTEX
  5
AE
330
81
100
AcDbEntity
  8
L1-PATTERN
100
AcDbVertex
100
AcDb2dVertex
 10
8.874264524148622
 20
79.47609200080156
 30
0.0
  0
VERTEX
  5
AF
330
81
100
AcDbEntity
  8
L1-PATTERN
100
AcDbVertex
100
AcDb2dVertex
 10
8.87340325027731
 20
79.47962322367394
 30
0.0
  0
VERTEX
  5
B0
330
81
100
AcDbEntity
  8
L1-PATTERN
100
AcDbVertex
100
AcDb2dVertex
 10
8.87217593501069
 20
79.48300372361884
 30
0.0
  0
VERTEX
  5
B1
330
81
100
AcDbEntity
  8
L1-PATTERN
100
AcDbVertex
100
AcDb2dVertex
 10
8.870625642042327
 20
79.48621196878948
 30
0.0
  0
VERTEX
  5
B2
330
81
100
AcDbEntity
  8
L1-PATTERN
100
AcDbVertex
100
AcDb2dVertex
 10
8.868730839525439
 20
79.48924795918585
 30
0.0
  0
VERTEX
  5
B3
330
81
100
AcDbEntity
  8
L1-PATTERN
100
AcDbVertex
100
AcDb2dVertex
 10
8.86651305930681
 20
79.49211169480796
 30
0.0
  0
VERTEX
  5
B4
330
81
100
AcDbEntity
  8
L1-PATTERN
100
AcDbVertex
100
AcDb2dVertex
 10
8.863972301386438
 20
79.49478164380903
 30
0.0
  0
VERTEX
  5
B5
330
81
100
AcDbEntity
  8
L1-PATTERN
100
AcDbVertex
100
AcDb2dVertex
 10
8.771815997156004
 20
79.58469863597405
 30
0.0
  0
VERTEX
  5
B6
330
81
100
AcDbEntity
  8
L1-PATTERN
100
AcDbVertex
100
AcDb2dVertex
 10
8.679659692925572
 20
79.67461562813908
 30
0.0
  0
VERTEX
  5
B7
330
81
100
AcDbEntity
  8
L1-PATTERN
100
AcDbVertex
100
AcDb2dVertex
 10
8.587503388695138
 20
79.76455415215088
 30
0.0
  0
VERTEX
  5
B8
330
81
100
AcDbEntity
  8
L1-PATTERN
100
AcDbVertex
100
AcDb2dVertex
 10
8.495325552617922
 20
79.8544711443159
 30
0.0
  0
VERTEX
  5
B9
330
81
100
AcDbEntity
  8
L1-PATTERN
100
AcDbVertex
100
AcDb2dVertex
 10
8.403169248387488
 20
79.94438813648092
 30
0.0
  0
VERTEX
  5
BA
330
81
100
AcDbEntity
  8
L1-PATTERN
100
AcDbVertex
100
AcDb2dVertex
 10
8.311012944157056
 20
80.03430512864594
 30
0.0
  0
VERTEX
  5
BB
330
81
100
AcDbEntity
  8
L1-PATTERN
100
AcDbVertex
100
AcDb2dVertex
 10
8.218856639926623
 20
80.12422212081096
 30
0.0
  0
VERTEX
  5
BC
330
81
100
AcDbEntity
  8
L1-PATTERN
100
AcDbVertex
100
AcDb2dVertex
 10
8.12670033569619
 20
80.21413911297599
 30
0.0
  0
VERTEX
  5
BD
330
81
100
AcDbEntity
  8
L1-PATTERN
100
AcDbVertex
100
AcDb2dVertex
 10
8.255891416393059
 20
80.19553559735563
 30
0.0
  0
VERTEX
  5
BE
330
81
100
AcDbEntity
  8
L1-PATTERN
100
AcDbVertex
100
AcDb2dVertex
 10
8.385082497089927
 20
80.17693208173529
 30
0.0
  0
VERTEX
  5
BF
330
81
100
AcDbEntity
  8
L1-PATTERN
100
AcDbVertex
100
AcDb2dVertex
 10
8.514273577786797
 20
80.15832856611493
 30
0.0
  0
VERTEX
  5
C0
330
81
100
AcDbEntity
  8
L1-PATTERN
100
AcDbVertex
100
AcDb2dVertex
 10
8.643464658483666
 20
80.13972505049459
 30
0.0
  0
VERTEX
  5
C1
330
81
100
AcDbEntity
  8
L1-PATTERN
100
AcDbVertex
100
AcDb2dVertex
 10
8.772655739180534
 20
80.12112153487423
 30
0.0
  0
VERTEX
  5
C2
330
81
100
AcDbEntity
  8
L1-PATTERN
100
AcDbVertex
100
AcDb2dVertex
 10
8.901846819877404
 20
80.10251801925389
 30
0.0
  0
VERTEX
  5
C3
330
81
100
AcDbEntity
  8
L1-PATTERN
100
AcDbVertex
100
AcDb2dVertex
 10
9.031037900574272
 20
80.08391450363354
 30
0.0
  0
VERTEX
  5
C4
330
81
100
AcDbEntity
  8
L1-PATTERN
100
AcDbVertex
100
AcDb2dVertex
 10
9.16022898127114
 20
80.0653109880132
 30
0.0
  0
VERTEX
  5
C5
330
81
100
AcDbEntity
  8
L1-PATTERN
100
AcDbVertex
100
AcDb2dVertex
 10
9.164621478014835
 20
80.06481575553718
 30
0.0
  0
VERTEX
  5
C6
330
81
100
AcDbEntity
  8
L1-PATTERN
100
AcDbVertex
100
AcDb2dVertex
 10
9.16894937921818
 20
80.06488035107753
 30
0.0
  0
VERTEX
  5
C7
330
81
100
AcDbEntity
  8
L1-PATTERN
100
AcDbVertex
100
AcDb2dVertex
 10
9.173191153034393
 20
80.06546171094067
 30
0.0
  0
VERTEX
  5
C8
330
81
100
AcDbEntity
  8
L1-PATTERN
100
AcDbVertex
100
AcDb2dVertex
 10
9.177282203923127
 20
80.06651677143303
 30
0.0
  0
VERTEX
  5
C9
330
81
100
AcDbEntity
  8
L1-PATTERN
100
AcDbVertex
100
AcDb2dVertex
 10
9.181179468190816
 20
80.0680455325546
 30
0.0
  0
VERTEX
  5
CA
330
81
100
AcDbEntity
  8
L1-PATTERN
100
AcDbVertex
100
AcDb2dVertex
 10
9.184839882143894
 20
80.06996186691828
 30
0.0
  0
VERTEX
  5
CB
330
81
100
AcDbEntity
  8
L1-PATTERN
100
AcDbVertex
100
AcDb2dVertex
 10
9.188220382088796
 20
80.07228730637082
 30
0.0
  0
VERTEX
  5
CC
330
81
100
AcDbEntity
  8
L1-PATTERN
100
AcDbVertex
100
AcDb2dVertex
 10
9.191234840638389
 20
80.07497878721867
 30
0.0
  0
VERTEX
  5
CD
330
81
100
AcDbEntity
  8
L1-PATTERN
100
AcDbVertex
100
AcDb2dVertex
 10
9.194141639954069
 20
80.0784454145507
 30
0.0
  0
VERTEX
  5
CE
330
81
100
AcDbEntity
  8
L1-PATTERN
100
AcDbVertex
100
AcDb2dVertex
 10
9.196617802334092
 20
80.08214889219735
 30
0.0
  0
VERTEX
  5
CF
330
81
100
AcDbEntity
  8
L1-PATTERN
100
AcDbVertex
100
AcDb2dVertex
 10
9.198684859625242
 20
80.08602462461826
 30
0.0
  0
VERTEX
  5
D0
330
81
100
AcDbEntity
  8
L1-PATTERN
100
AcDbVertex
100
AcDb2dVertex
 10
9.20027821628717
 20
80.09002954811986
 30
0.0
  0
VERTEX
  5
D1
330
81
100
AcDbEntity
  8
L1-PATTERN
100
AcDbVertex
100
AcDb2dVertex
 10
9.201376340473093
 20
80.09414213085537
 30
0.0
  0
VERTEX
  5
D2
330
81
100
AcDbEntity
  8
L1-PATTERN
100
AcDbVertex
100
AcDb2dVertex
 10
9.201979232183012
 20
80.09831930913124
 30
0.0
  0
VERTEX
  5
D3
330
81
100
AcDbEntity
  8
L1-PATTERN
100
AcDbVertex
100
AcDb2dVertex
 10
9.202065359570144
 20
80.10249648740711
 30
0.0
  0
VERTEX
  5
D4
330
81
100
AcDbEntity
  8
L1-PATTERN
100
AcDbVertex
100
AcDb2dVertex
 10
9.20157012709414
 20
80.10665213383619
 30
0.0
  0
VERTEX
  5
D5
330
81
100
AcDbEntity
  8
L1-PATTERN
100
AcDbVertex
100
AcDb2dVertex
 10
9.180339726166286
 20
80.23515419543601
 30
0.0
  0
VERTEX
  5
D6
330
81
100
AcDbEntity
  8
L1-PATTERN
100
AcDbVertex
100
AcDb2dVertex
 10
9.159109325238434
 20
80.36365625703583
 30
0.0
  0
VERTEX
  5
D7
330
81
100
AcDbEntity
  8
L1-PATTERN
100
AcDbVertex
100
AcDb2dVertex
 10
9.137878924310582
 20
80.49215831863565
 30
0.0
  0
VERTEX
  5
D8
330
81
100
AcDbEntity
  8
L1-PATTERN
100
AcDbVertex
100
AcDb2dVertex
 10
9.11664852338273
 20
80.62066038023546
 30
0.0
  0
VERTEX
  5
D9
330
81
100
AcDbEntity
  8
L1-PATTERN
100
AcDbVertex
100
AcDb2dVertex
 10
9.095418122454879
 20
80.74916244183528
 30
0.0
  0
VERTEX
  5
DA
330
81
100
AcDbEntity
  8
L1-PATTERN
100
AcDbVertex
100
AcDb2dVertex
 10
9.074187721527027
 20
80.8776645034351
 30
0.0
  0
VERTEX
  5
DB
330
81
100
AcDbEntity
  8
L1-PATTERN
100
AcDbVertex
100
AcDb2dVertex
 10
9.052957320599175
 20
81.00616656503492
 30
0.0
  0
VERTEX
  5
DC
330
81
100
AcDbEntity
  8
L1-PATTERN
100
AcDbVertex
100
AcDb2dVertex
 10
9.03170538782454
 20
81.13466862663473
 30
0.0
  0
VERTEX
  5
DD
330
81
100
AcDbEntity
  8
L1-PATTERN
100
AcDbVertex
100
AcDb2dVertex
 10
9.123387991425751
 20
81.04518227140538
 30
0.0
  0
VERTEX
  5
DE
330
81
100
AcDbEntity
  8
L1-PATTERN
100
AcDbVertex
100
AcDb2dVertex
 10
9.215070595026962
 20
80.95569591617601
 30
0.0
  0
VERTEX
  5
DF
330
81
100
AcDbEntity
  8
L1-PATTERN
100
AcDbVertex
100
AcDb2dVertex
 10
9.306753198628174
 20
80.86620956094664
 30
0.0
  0
VERTEX
  5
E0
330
81
100
AcDbEntity
  8
L1-PATTERN
100
AcDbVertex
100
AcDb2dVertex
 10
9.398435802229384
 20
80.77672320571727
 30
0.0
  0
VERTEX
  5
E1
330
81
100
AcDbEntity
  8
L1-PATTERN
100
AcDbVertex
100
AcDb2dVertex
 10
9.490118405830597
 20
80.68723685048792
 30
0.0
  0
VERTEX
  5
E2
330
81
100
AcDbEntity
  8
L1-PATTERN
100
AcDbVertex
100
AcDb2dVertex
 10
9.581801009431807
 20
80.59775049525855
 30
0.0
  0
VERTEX
  5
E3
330
81
100
AcDbEntity
  8
L1-PATTERN
100
AcDbVertex
100
AcDb2dVertex
 10
9.673483613033019
 20
80.50826414002918
 30
0.0
  0
VERTEX
  5
E4
330
81
100
AcDbEntity
  8
L1-PATTERN
100
AcDbVertex
100
AcDb2dVertex
 10
9.76516621663423
 20
80.41877778479983
 30
0.0
  0
VERTEX
  5
E5
330
81
100
AcDbEntity
  8
L1-PATTERN
100
AcDbVertex
100
AcDb2dVertex
 10
9.767943824869212
 20
80.41636621796015
 30
0.0
  0
VERTEX
  5
E6
330
81
100
AcDbEntity
  8
L1-PATTERN
100
AcDbVertex
100
AcDb2dVertex
 10
9.770872156031675
 20
80.41425609697544
 30
0.0
  0
VERTEX
  5
E7
330
81
100
AcDbEntity
  8
L1-PATTERN
100
AcDbVertex
100
AcDb2dVertex
 10
9.773929678274834
 20
80.41246895369245
 30
0.0
  0
VERTEX
  5
E8
330
81
100
AcDbEntity
  8
L1-PATTERN
100
AcDbVertex
100
AcDb2dVertex
 10
9.77711639159869
 20
80.41102631995801
 30
0.0
  0
VERTEX
  5
E9
330
81
100
AcDbEntity
  8
L1-PATTERN
100
AcDbVertex
100
AcDb2dVertex
 10
9.780453827850026
 20
80.40988513207853
 30
0.0
  0
VERTEX
  5
EA
330
81
100
AcDbEntity
  8
L1-PATTERN
100
AcDbVertex
100
AcDb2dVertex
 10
9.783941987028841
 20
80.40908845374756
 30
0.0
  0
VERTEX
  5
EB
330
81
100
AcDbEntity
  8
L1-PATTERN
100
AcDbVertex
100
AcDb2dVertex
 10
9.787580869135137
 20
80.40861475311834
 30
0.0
  0
VERTEX
  5
EC
330
81
100
AcDbEntity
  8
L1-PATTERN
100
AcDbVertex
100
AcDb2dVertex
 10
9.791392006015695
 20
80.40844249834407
 30
0.0
  0
VERTEX
  5
ED
330
81
100
AcDbEntity
  8
L1-PATTERN
100
AcDbVertex
100
AcDb2dVertex
 10
9.794966292581641
 20
80.40874394419903
 30
0.0
  0
VERTEX
  5
EE
330
81
100
AcDbEntity
  8
L1-PATTERN
100
AcDbVertex
100
AcDb2dVertex
 10
9.798454451760456
 20
80.40938989960252
 30
0.0
  0
VERTEX
  5
EF
330
81
100
AcDbEntity
  8
L1-PATTERN
100
AcDbVertex
100
AcDb2dVertex
 10
9.801856483552141
 20
80.41035883270774
 30
0.0
  0
VERTEX
  5
F0
330
81
100
AcDbEntity
  8
L1-PATTERN
100
AcDbVertex
100
AcDb2dVertex
 10
9.805150856109911
 20
80.41162921166793
 30
0.0
  0
VERTEX
  5
F1
330
81
100
AcDbEntity
  8
L1-PATTERN
100
AcDbVertex
100
AcDb2dVertex
 10
9.808316037586984
 20
80.41320103648307
 30
0.0
  0
VERTEX
  5
F2
330
81
100
AcDbEntity
  8
L1-PATTERN
100
AcDbVertex
100
AcDb2dVertex
 10
9.811330496136577
 20
80.41503124345961
 30
0.0
  0
VERTEX
  5
F3
330
81
100
AcDbEntity
  8
L1-PATTERN
100
AcDbVertex
100
AcDb2dVertex
 10
9.814172699911909
 20
80.41711983259755
 30
0.0
  0
VERTEX
  5
F4
330
81
100
AcDbEntity
  8
L1-PATTERN
100
AcDbVertex
100
AcDb2dVertex
 10
9.81686418075976
 20
80.41944527205008
 30
0.0
  0
VERTEX
  5
F5
330
81
100
AcDbEntity
  8
L1-PATTERN
100
AcDbVertex
100
AcDb2dVertex
 10
9.835726078541503
 20
80.43884546600141
 30
0.0
  0
VERTEX
  5
F6
330
81
100
AcDbEntity
  8
L1-PATTERN
100
AcDbVertex
100
AcDb2dVertex
 10
9.854587976323247
 20
80.45822412810594
 30
0.0
  0
VERTEX
  5
F7
330
81
100
AcDbEntity
  8
L1-PATTERN
100
AcDbVertex
100
AcDb2dVertex
 10
9.873449874104988
 20
80.47760279021047
 30
0.0
  0
VERTEX
  5
F8
330
81
100
AcDbEntity
  8
L1-PATTERN
100
AcDbVertex
100
AcDb2dVertex
 10
9.892311771886732
 20
80.496981452315
 30
0.0
  0
VERTEX
  5
F9
330
81
100
AcDbEntity
  8
L1-PATTERN
100
AcDbVertex
100
AcDb2dVertex
 10
9.911173669668475
 20
80.51636011441953
 30
0.0
  0
VERTEX
  5
FA
330
81
100
AcDbEntity
  8
L1-PATTERN
100
AcDbVertex
100
AcDb2dVertex
 10
9.930035567450217
 20
80.53573877652406
 30
0.0
  0
VERTEX
  5
FB
330
81
100
AcDbEntity
  8
L1-PATTERN
100
AcDbVertex
100
AcDb2dVertex
 10
9.948918997078742
 20
80.55511743862859
 30
0.0
  0
VERTEX
  5
FC
330
81
100
AcDbEntity
  8
L1-PATTERN
100
AcDbVertex
100
AcDb2dVertex
 10
9.967780894860486
 20
80.57449610073311
 30
0.0
  0
VERTEX
  5
FD
330
81
100
AcDbEntity
  8
L1-PATTERN
100
AcDbVertex
100
AcDb2dVertex
 10
9.970321652780857
 20
80.57731677266166
 30
0.0
  0
VERTEX
  5
FE
330
81
100
AcDbEntity
  8
L1-PATTERN
100
AcDbVertex
100
AcDb2dVertex
 10
9.972539432999486
 20
80.5802881675177
 30
0.0
  0
VERTEX
  5
FF
330
81
100
AcDbEntity
  8
L1-PATTERN
100
AcDbVertex
100
AcDb2dVertex
 10
9.974434235516375
 20
80.5834102853012
 30
0.0
  0
VERTEX
  5
100
330
81
100
AcDbEntity
  8
L1-PATTERN
100
AcDbVertex
100
AcDb2dVertex
 10
9.975984528484737
 20
80.58664006231862
 30
0.0
  0
VERTEX
  5
101
330
81
100
AcDbEntity
  8
L1-PATTERN
100
AcDbVertex
100
AcDb2dVertex
 10
9.977211843751357
 20
80.58997749856995
 30
0.0
  0
VERTEX
  5
102
330
81
100
AcDbEntity
  8
L1-PATTERN
100
AcDbVertex
100
AcDb2dVertex
 10
9.97807311762267
 20
80.59340106220843
 30
0.0
  0
VERTEX
  5
103
330
81
100
AcDbEntity
  8
L1-PATTERN
100
AcDbVertex
100
AcDb2dVertex
 10
9.97861141379224
 20
80.59684615769368
 30
0.0
  0
VERTEX
  5
104
330
81
100
AcDbEntity
  8
L1-PATTERN
100
AcDbVertex
100
AcDb2dVertex
 10
9.978783668566502
 20
80.60031278502571
 30
0.0
  0
VERTEX
  5
105
330
81
100
AcDbEntity
  8
L1-PATTERN
100
AcDbVertex
100
AcDb2dVertex
 10
9.978396095324412
 20
80.60401626267235
 30
0.0
  0
VERTEX
  5
106
330
81
100
AcDbEntity
  8
L1-PATTERN
100
AcDbVertex
100
AcDb2dVertex
 10
9.977750139920927
 20
80.60761208108508
 30
0.0
  0
VERTEX
  5
107
330
81
100
AcDbEntity
  8
L1-PATTERN
100
AcDbVertex
100
AcDb2dVertex
 10
9.976802738662483
 20
80.61107870841711
 30
0.0
  0
VERTEX
  5
108
330
81
100
AcDbEntity
  8
L1-PATTERN
100
AcDbVertex
100
AcDb2dVertex
 10
9.975553891549081
 20
80.61439461282167
 30
0.0
  0
VERTEX
  5
109
330
81
100
AcDbEntity
  8
L1-PATTERN
100
AcDbVertex
100
AcDb2dVertex
 10
9.974025130427501
 20
80.61760285799231
 30
0.0
  0
VERTEX
  5
10A
330
81
100
AcDbEntity
  8
L1-PATTERN
100
AcDbVertex
100
AcDb2dVertex
 10
9.972151859757396
 20
80.62063884838868
 30
0.0
  0
VERTEX
  5
10B
330
81
100
AcDbEntity
  8
L1-PATTERN
100
AcDbVertex
100
AcDb2dVertex
 10
9.969955611385549
 20
80.6235025840108
 30
0.0
  0
VERTEX
  5
10C
330
81
100
AcDbEntity
  8
L1-PATTERN
100
AcDbVertex
100
AcDb2dVertex
 10
9.967414853465177
 20
80.62617253301187
 30
0.0
  0
VERTEX
  5
10D
330
81
100
AcDbEntity
  8
L1-PATTERN
100
AcDbVertex
100
AcDb2dVertex
 10
9.843089970141225
 20
80.7473968303991
 30
0.0
  0
VERTEX
  5
10E
330
81
100
AcDbEntity
  8
L1-PATTERN
100
AcDbVertex
100
AcDb2dVertex
 10
9.718765086817271
 20
80.86862112778633
 30
0.0
  0
VERTEX
  5
10F
330
81
100
AcDbEntity
  8
L1-PATTERN
100
AcDbVertex
100
AcDb2dVertex
 10
9.594440203493317
 20
80.98984542517356
 30
0.0
  0
VERTEX
  5
110
330
81
100
AcDbEntity
  8
L1-PATTERN
100
AcDbVertex
100
AcDb2dVertex
 10
9.470115320169365
 20
81.11106972256077
 30
0.0
  0
VERTEX
  5
111
330
81
100
AcDbEntity
  8
L1-PATTERN
100
AcDbVertex
100
AcDb2dVertex
 10
9.34579043684541
 20
81.232294019948
 30
0.0
  0
VERTEX
  5
112
330
81
100
AcDbEntity
  8
L1-PATTERN
100
AcDbVertex
100
AcDb2dVertex
 10
9.221465553521456
 20
81.35351831733523
 30
0.0
  0
VERTEX
  5
113
330
81
100
AcDbEntity
  8
L1-PATTERN
100
AcDbVertex
100
AcDb2dVertex
 10
9.09711913835072
 20
81.47474261472246
 30
0.0
  0
VERTEX
  5
114
330
81
100
AcDbEntity
  8
L1-PATTERN
100
AcDbVertex
100
AcDb2dVertex
 10
8.972794255026766
 20
81.59596691210969
 30
0.0
  0
VERTEX
  5
115
330
81
100
AcDbEntity
  8
L1-PATTERN
100
AcDbVertex
100
AcDb2dVertex
 10
8.96308339212772
 20
81.60384756803221
 30
0.0
  0
VERTEX
  5
116
330
81
100
AcDbEntity
  8
L1-PATTERN
100
AcDbVertex
100
AcDb2dVertex
 10
8.952231341349183
 20
81.60961810296999
 30
0.0
  0
VERTEX
  5
117
330
81
100
AcDbEntity
  8
L1-PATTERN
100
AcDbVertex
100
AcDb2dVertex
 10
8.940604144086464
 20
81.61321392138272
 30
0.0
  0
VERTEX
  5
118
330
81
100
AcDbEntity
  8
L1-PATTERN
100
AcDbVertex
100
AcDb2dVertex
 10
8.92854630988809
 20
81.61452736403648
 30
0.0
  0
VERTEX
  5
119
330
81
100
AcDbEntity
  8
L1-PATTERN
100
AcDbVertex
100
AcDb2dVertex
 10
8.916423880149367
 20
81.6134938353909
 30
0.0
  0
VERTEX
  5
11A
330
81
100
AcDbEntity
  8
L1-PATTERN
100
AcDbVertex
100
AcDb2dVertex
 10
8.904602896265603
 20
81.61004873990565
 30
0.0
  0
VERTEX
  5
11B
330
81
100
AcDbEntity
  8
L1-PATTERN
100
AcDbVertex
100
AcDb2dVertex
 10
8.893406335938542
 20
81.60412748204038
 30
0.0
  0
VERTEX
  5
11C
330
81
100
AcDbEntity
  8
L1-PATTERN
100
AcDbVertex
100
AcDb2dVertex
 10
8.883221772410272
 20
81.59562240256116
 30
0.0
  0
VERTEX
  5
11D
330
81
100
AcDbEntity
  8
L1-PATTERN
100
AcDbVertex
100
AcDb2dVertex
 10
8.88044416417529
 20
81.59273713509226
 30
0.0
  0
VERTEX
  5
11E
330
81
100
AcDbEntity
  8
L1-PATTERN
100
AcDbVertex
100
AcDb2dVertex
 10
8.877645024093523
 20
81.58985186762338
 30
0.0
  0
VERTEX
  5
11F
330
81
100
AcDbEntity
  8
L1-PATTERN
100
AcDbVertex
100
AcDb2dVertex
 10
8.874845884011759
 20
81.58696660015448
 30
0.0
  0
VERTEX
  5
120
330
81
100
AcDbEntity
  8
L1-PATTERN
100
AcDbVertex
100
AcDb2dVertex
 10
8.872046743929992
 20
81.58408133268559
 30
0.0
  0
VERTEX
  5
121
330
81
100
AcDbEntity
  8
L1-PATTERN
100
AcDbVertex
100
AcDb2dVertex
 10
8.869247603848226
 20
81.58119606521669
 30
0.0
  0
VERTEX
  5
122
330
81
100
AcDbEntity
  8
L1-PATTERN
100
AcDbVertex
100
AcDb2dVertex
 10
8.866448463766462
 20
81.57831079774779
 30
0.0
  0
VERTEX
  5
123
330
81
100
AcDbEntity
  8
L1-PATTERN
100
AcDbVertex
100
AcDb2dVertex
 10
8.86367085553148
 20
81.57542553027889
 30
0.0
  0
VERTEX
  5
124
330
81
100
AcDbEntity
  8
L1-PATTERN
100
AcDbVertex
100
AcDb2dVertex
 10
8.860871715449713
 20
81.57254026281
 30
0.0
  0
VERTEX
  5
125
330
81
100
AcDbEntity
  8
L1-PATTERN
100
AcDbVertex
100
AcDb2dVertex
 10
8.84239739091006
 20
81.55363530133468
 30
0.0
  0
VERTEX
  5
126
330
81
100
AcDbEntity
  8
L1-PATTERN
100
AcDbVertex
100
AcDb2dVertex
 10
8.823901534523626
 20
81.53473033985938
 30
0.0
  0
VERTEX
  5
127
330
81
100
AcDbEntity
  8
L1-PATTERN
100
AcDbVertex
100
AcDb2dVertex
 10
8.805427209983973
 20
81.51582537838406
 30
0.0
  0
VERTEX
  5
128
330
81
100
AcDbEntity
  8
L1-PATTERN
100
AcDbVertex
100
AcDb2dVertex
 10
8.786952885444322
 20
81.49692041690876
 30
0.0
  0
VERTEX
  5
129
330
81
100
AcDbEntity
  8
L1-PATTERN
100
AcDbVertex
100
AcDb2dVertex
 10
8.768478560904668
 20
81.47801545543345
 30
0.0
  0
VERTEX
  5
12A
330
81
100
AcDbEntity
  8
L1-PATTERN
100
AcDbVertex
100
AcDb2dVertex
 10
8.750004236365017
 20
81.45911049395815
 30
0.0
  0
VERTEX
  5
12B
330
81
100
AcDbEntity
  8
L1-PATTERN
100
AcDbVertex
100
AcDb2dVertex
 10
8.731529911825364
 20
81.44020553248284
 30
0.0
  0
VERTEX
  5
12C
330
81
100
AcDbEntity
  8
L1-PATTERN
100
AcDbVertex
100
AcDb2dVertex
 10
8.713055587285712
 20
81.42130057100752
 30
0.0
  0
VERTEX
  5
12D
330
81
100
AcDbEntity
  8
L1-PATTERN
100
AcDbVertex
100
AcDb2dVertex
 10
8.710407170131427
 20
81.41807079399011
 30
0.0
  0
VERTEX
  5
12E
330
81
100
AcDbEntity
  8
L1-PATTERN
100
AcDbVertex
100
AcDb2dVertex
 10
8.70814632621923
 20
81.41456110296451
 30
0.0
  0
VERTEX
  5
12F
330
81
100
AcDbEntity
  8
L1-PATTERN
100
AcDbVertex
100
AcDb2dVertex
 10
8.706273055549127
 20
81.41085762531786
 30
0.0
  0
VERTEX
  5
130
330
81
100
AcDbEntity
  8
L1-PATTERN
100
AcDbVertex
100
AcDb2dVertex
 10
8.704787358121113
 20
81.40696036105017
 30
0.0
  0
VERTEX
  5
131
330
81
100
AcDbEntity
  8
L1-PATTERN
100
AcDbVertex
100
AcDb2dVertex
 10
8.703689233935188
 20
81.402912373855
 30
0.0
  0
VERTEX
  5
132
330
81
100
AcDbEntity
  8
L1-PATTERN
100
AcDbVertex
100
AcDb2dVertex
 10
8.702978682991356
 20
81.3987782592727
 30
0.0
  0
VERTEX
  5
133
330
81
100
AcDbEntity
  8
L1-PATTERN
100
AcDbVertex
100
AcDb2dVertex
 10
8.702655705289613
 20
81.39455801730327
 30
0.0
  0
VERTEX
  5
134
330
81
100
AcDbEntity
  8
L1-PATTERN
100
AcDbVertex
100
AcDb2dVertex
 10
8.702720300829963
 20
81.39029471164028
 30
0.0
  0
VERTEX
  5
135
330
81
100
AcDbEntity
  8
L1-PATTERN
100
AcDbVertex
100
AcDb2dVertex
 10
8.723347810047896
 20
81.2653669366064
 30
0.0
  0
VERTEX
  5
136
330
81
100
AcDbEntity
  8
L1-PATTERN
100
AcDbVertex
100
AcDb2dVertex
 10
8.743975319265829
 20
81.14043916157253
 30
0.0
  0
VERTEX
  5
137
330
81
100
AcDbEntity
  8
L1-PATTERN
100
AcDbVertex
100
AcDb2dVertex
 10
8.764602828483763
 20
81.01551138653866
 30
0.0
  0
VERTEX
  5
138
330
81
100
AcDbEntity
  8
L1-PATTERN
100
AcDbVertex
100
AcDb2dVertex
 10
8.785230337701696
 20
80.8905836115048
 30
0.0
  0
VERTEX
  5
139
330
81
100
AcDbEntity
  8
L1-PATTERN
100
AcDbVertex
100
AcDb2dVertex
 10
8.80585784691963
 20
80.76565583647091
 30
0.0
  0
VERTEX
  5
13A
330
81
100
AcDbEntity
  8
L1-PATTERN
100
AcDbVertex
100
AcDb2dVertex
 10
8.826485356137564
 20
80.64072806143704
 30
0.0
  0
VERTEX
  5
13B
330
81
100
AcDbEntity
  8
L1-PATTERN
100
AcDbVertex
100
AcDb2dVertex
 10
8.847112865355497
 20
80.51580028640318
 30
0.0
  0
VERTEX
  5
13C
330
81
100
AcDbEntity
  8
L1-PATTERN
100
AcDbVertex
100
AcDb2dVertex
 10
8.86774037457343
 20
80.3908725113693
 30
0.0
  0
VERTEX
  5
13D
330
81
100
AcDbEntity
  8
L1-PATTERN
100
AcDbVertex
100
AcDb2dVertex
 10
8.742640344765295
 20
80.4086578168119
 30
0.0
  0
VERTEX
  5
13E
330
81
100
AcDbEntity
  8
L1-PATTERN
100
AcDbVertex
100
AcDb2dVertex
 10
8.61754031495716
 20
80.4264431222545
 30
0.0
  0
VERTEX
  5
13F
330
81
100
AcDbEntity
  8
L1-PATTERN
100
AcDbVertex
100
AcDb2dVertex
 10
8.492440285149026
 20
80.44422842769711
 30
0.0
  0
VERTEX
  5
140
330
81
100
AcDbEntity
  8
L1-PATTERN
100
AcDbVertex
100
AcDb2dVertex
 10
8.36734025534089
 20
80.46201373313971
 30
0.0
  0
VERTEX
  5
141
330
81
100
AcDbEntity
  8
L1-PATTERN
100
AcDbVertex
100
AcDb2dVertex
 10
8.242240225532756
 20
80.47979903858231
 30
0.0
  0
VERTEX
  5
142
330
81
100
AcDbEntity
  8
L1-PATTERN
100
AcDbVertex
100
AcDb2dVertex
 10
8.117140195724621
 20
80.49758434402492
 30
0.0
  0
VERTEX
  5
143
330
81
100
AcDbEntity
  8
L1-PATTERN
100
AcDbVertex
100
AcDb2dVertex
 10
7.992040165916487
 20
80.51536964946752
 30
0.0
  0
VERTEX
  5
144
330
81
100
AcDbEntity
  8
L1-PATTERN
100
AcDbVertex
100
AcDb2dVertex
 10
7.866940136108352
 20
80.53315495491012
 30
0.0
  0
VERTEX
  5
145
330
81
100
AcDbEntity
  8
L1-PATTERN
100
AcDbVertex
100
AcDb2dVertex
 10
7.862569171211441
 20
80.53319801860368
 30
0.0
  0
VERTEX
  5
146
330
81
100
AcDbEntity
  8
L1-PATTERN
100
AcDbVertex
100
AcDb2dVertex
 10
7.858284333701662
 20
80.53285350905516
 30
0.0
  0
VERTEX
  5
147
330
81
100
AcDbEntity
  8
L1-PATTERN
100
AcDbVertex
100
AcDb2dVertex
 10
7.854064091732231
 20
80.5320568307242
 30
0.0
  0
VERTEX
  5
148
330
81
100
AcDbEntity
  8
L1-PATTERN
100
AcDbVertex
100
AcDb2dVertex
 10
7.850016104537063
 20
80.53087257915114
 30
0.0
  0
VERTEX
  5
149
330
81
100
AcDbEntity
  8
L1-PATTERN
100
AcDbVertex
100
AcDb2dVertex
 10
7.846140372116157
 20
80.52927922248921
 30
0.0
  0
VERTEX
  5
14A
330
81
100
AcDbEntity
  8
L1-PATTERN
100
AcDbVertex
100
AcDb2dVertex
 10
7.842479958163079
 20
80.52727676073842
 30
0.0
  0
VERTEX
  5
14B
330
81
100
AcDbEntity
  8
L1-PATTERN
100
AcDbVertex
100
AcDb2dVertex
 10
7.839056394524611
 20
80.52488672574552
 30
0.0
  0
VERTEX
  5
14C
330
81
100
AcDbEntity
  8
L1-PATTERN
100
AcDbVertex
100
AcDb2dVertex
 10
7.835934276741104
 20
80.52210911751054
 30
0.0
  0
VERTEX
  5
14D
330
81
100
AcDbEntity
  8
L1-PATTERN
100
AcDbVertex
100
AcDb2dVertex
 10
7.831864757699152
 20
80.51791040738789
 30
0.0
  0
VERTEX
  5
14E
330
81
100
AcDbEntity
  8
L1-PATTERN
100
AcDbVertex
100
AcDb2dVertex
 10
7.820646665525308
 20
80.5063693375123
 30
0.0
  0
VERTEX
  5
14F
330
81
100
AcDbEntity
  8
L1-PATTERN
100
AcDbVertex
100
AcDb2dVertex
 10
7.803787229494366
 20
80.48901466900536
 30
0.0
  0
VERTEX
  5
150
330
81
100
AcDbEntity
  8
L1-PATTERN
100
AcDbVertex
100
AcDb2dVertex
 10
7.782793678881124
 20
80.46743975852898
 30
0.0
  0
VERTEX
  5
151
330
81
100
AcDbEntity
  8
L1-PATTERN
100
AcDbVertex
100
AcDb2dVertex
 10
7.759194774807163
 20
80.44315183535797
 30
0.0
  0
VERTEX
  5
152
330
81
100
AcDbEntity
  8
L1-PATTERN
100
AcDbVertex
100
AcDb2dVertex
 10
7.734497746547278
 20
80.41776578800103
 30
0.0
  0
VERTEX
  5
153
330
81
100
AcDbEntity
  8
L1-PATTERN
100
AcDbVertex
100
AcDb2dVertex
 10
7.710188291529485
 20
80.39281037757975
 30
0.0
  0
VERTEX
  5
154
330
81
100
AcDbEntity
  8
L1-PATTERN
100
AcDbVertex
100
AcDb2dVertex
 10
7.687816702722143
 20
80.36985742890927
 30
0.0
  0
VERTEX
  5
155
330
81
100
AcDbEntity
  8
L1-PATTERN
100
AcDbVertex
100
AcDb2dVertex
 10
7.685060626333944
 20
80.36701522513394
 30
0.0
  0
VERTEX
  5
156
330
81
100
AcDbEntity
  8
L1-PATTERN
100
AcDbVertex
100
AcDb2dVertex
 10
7.682304549945743
 20
80.36417302135861
 30
0.0
  0
VERTEX
  5
157
330
81
100
AcDbEntity
  8
L1-PATTERN
100
AcDbVertex
100
AcDb2dVertex
 10
7.679548473557544
 20
80.36133081758328
 30
0.0
  0
VERTEX
  5
158
330
81
100
AcDbEntity
  8
L1-PATTERN
100
AcDbVertex
100
AcDb2dVertex
 10
7.676792397169344
 20
80.35848861380795
 30
0.0
  0
VERTEX
  5
159
330
81
100
AcDbEntity
  8
L1-PATTERN
100
AcDbVertex
100
AcDb2dVertex
 10
7.674036320781144
 20
80.35564641003262
 30
0.0
  0
VERTEX
  5
15A
330
81
100
AcDbEntity
  8
L1-PATTERN
100
AcDbVertex
100
AcDb2dVertex
 10
7.671280244392944
 20
80.35280420625729
 30
0.0
  0
VERTEX
  5
15B
330
81
100
AcDbEntity
  8
L1-PATTERN
100
AcDbVertex
100
AcDb2dVertex
 10
7.668524168004744
 20
80.34998353432874
 30
0.0
  0
VERTEX
  5
15C
330
81
100
AcDbEntity
  8
L1-PATTERN
100
AcDbVertex
100
AcDb2dVertex
 10
7.665768091616544
 20
80.34714133055341
 30
0.0
  0
VERTEX
  5
15D
330
81
100
AcDbEntity
  8
L1-PATTERN
100
AcDbVertex
100
AcDb2dVertex
 10
7.657499862451945
 20
80.3367414485573
 30
0.0
  0
VERTEX
  5
15E
330
81
100
AcDbEntity
  8
L1-PATTERN
100
AcDbVertex
100
AcDb2dVertex
 10
7.651772391207717
 20
80.32541569714955
 30
0.0
  0
VERTEX
  5
15F
330
81
100
AcDbEntity
  8
L1-PATTERN
100
AcDbVertex
100
AcDb2dVertex
 10
7.648521082343512
 20
80.31353011772543
 30
0.0
  0
VERTEX
  5
160
330
81
100
AcDbEntity
  8
L1-PATTERN
100
AcDbVertex
100
AcDb2dVertex
 10
7.647702872165765
 20
80.3014292198335
 30
0.0
  0
VERTEX
  5
161
330
81
100
AcDbEntity
  8
L1-PATTERN
100
AcDbVertex
100
AcDb2dVertex
 10
7.649210101440563
 20
80.28941444932869
 30
0.0
  0
VERTEX
  5
162
330
81
100
AcDbEntity
  8
L1-PATTERN
100
AcDbVertex
100
AcDb2dVertex
 10
7.652999706474337
 20
80.2778733794531
 30
0.0
  0
SEQEND
  5
164
330
81
100
AcDbEntity
  8
L1-PATTERN
  0
HATCH
  5
163
330
1F
100
AcDbEntity
  8
L1-PATTERN
 62
     1
100
AcDbHatch
 10
0.0
 20
0.0
 30
0.0
210
0.0
220
0.0
230
1.0
  2
SOLID
 70
     1
 71
     0
 91
        1
 92
        1
 93
      224
 72
     1
 10
7.652999706474337
 20
80.2778733794531
 11
7.659007091726742
 21
80.26712898790848
 72
     1
 10
7.659007091726742
 20
80.26712898790848
 11
7.667146129810645
 21
80.25752578424334
 72
     1
 10
7.667146129810645
 20
80.25752578424334
 11
7.791449481287815
 21
80.13625842316256
 72
     1
 10
7.791449481287815
 20
80.13625842316256
 11
7.915774364611768
 21
80.01499106208176
 72
     1
 10
7.915774364611768
 20
80.01499106208176
 11
8.040099247935721
 21
79.89372370100097
 72
     1
 10
8.040099247935721
 20
79.89372370100097
 11
8.164424131259675
 21
79.77245633992017
 72
     1
 10
8.164424131259675
 20
79.77245633992017
 11
8.28874901458363
 21
79.65118897883937
 72
     1
 10
8.28874901458363
 20
79.65118897883937
 11
8.413073897907582
 21
79.52992161775859
 72
     1
 10
8.413073897907582
 20
79.52992161775859
 11
8.537398781231536
 21
79.40865425667779
 72
     1
 10
8.537398781231536
 20
79.40865425667779
 11
8.66172366455549
 21
79.287386895597
 72
     1
 10
8.66172366455549
 20
79.287386895597
 11
8.664522804637254
 21
79.28497532875731
 72
     1
 10
8.664522804637254
 20
79.28497532875731
 11
8.667451135799718
 21
79.28288673961939
 72
     1
 10
8.667451135799718
 20
79.28288673961939
 11
8.670530189889659
 21
79.28109959633642
 72
     1
 10
8.670530189889659
 20
79.28109959633642
 11
8.673738435060299
 21
79.27965696260196
 72
     1
 10
8.673738435060299
 20
79.27965696260196
 11
8.677054339464851
 21
79.27853730656926
 72
     1
 10
8.677054339464851
 20
79.27853730656926
 11
8.680477903103318
 21
79.27774062823829
 72
     1
 10
8.680477903103318
 20
79.27774062823829
 11
8.683987594128917
 21
79.2772453957623
 72
     1
 10
8.683987594128917
 20
79.2772453957623
 11
8.687583412541645
 21
79.2770946728348
 72
     1
 10
8.687583412541645
 20
79.2770946728348
 11
8.691157699107594
 21
79.27728845945586
 72
     1
 10
8.691157699107594
 20
79.27728845945586
 11
8.694645858286409
 21
79.27782675562543
 72
     1
 10
8.694645858286409
 20
79.27782675562543
 11
8.698047890078092
 21
79.2787310931903
 72
     1
 10
8.698047890078092
 20
79.2787310931903
 11
8.701299198942298
 21
79.2799799403037
 72
     1
 10
8.701299198942298
 20
79.2799799403037
 11
8.704421316725805
 21
79.28150870142528
 72
     1
 10
8.704421316725805
 20
79.28150870142528
 11
8.70737117973505
 21
79.28331737655505
 72
     1
 10
8.70737117973505
 20
79.28331737655505
 11
8.710148787970033
 21
79.28540596569297
 72
     1
 10
8.710148787970033
 20
79.28540596569297
 11
8.712689545890404
 21
79.2877529369923
 72
     1
 10
8.712689545890404
 20
79.2877529369923
 11
8.731680634752845
 21
79.3071746627904
 72
     1
 10
8.731680634752845
 20
79.3071746627904
 11
8.750693255462068
 21
79.3265963885885
 72
     1
 10
8.750693255462068
 20
79.3265963885885
 11
8.769684344324506
 21
79.3460181143866
 72
     1
 10
8.769684344324506
 20
79.3460181143866
 11
8.788675433186945
 21
79.36543984018469
 72
     1
 10
8.788675433186945
 20
79.36543984018469
 11
8.807666522049386
 21
79.38486156598277
 72
     1
 10
8.807666522049386
 20
79.38486156598277
 11
8.826657610911825
 21
79.40430482362765
 72
     1
 10
8.826657610911825
 20
79.40430482362765
 11
8.845648699774266
 21
79.42372654942575
 72
     1
 10
8.845648699774266
 20
79.42372654942575
 11
8.864639788636705
 21
79.44314827522385
 72
     1
 10
8.864639788636705
 20
79.44314827522385
 11
8.86705135547638
 21
79.44603354269275
 72
     1
 10
8.86705135547638
 20
79.44603354269275
 11
8.869161476461095
 21
79.44900493754878
 72
     1
 10
8.869161476461095
 20
79.44900493754878
 11
8.870927087897286
 21
79.45206245979193
 72
     1
 10
8.870927087897286
 20
79.45206245979193
 11
8.872391253478517
 21
79.455227641269
 72
     1
 10
8.872391253478517
 20
79.455227641269
 11
8.873510909511223
 21
79.45845741828643
 72
     1
 10
8.873510909511223
 20
79.45845741828643
 11
8.874329119688971
 21
79.46177332269099
 72
     1
 10
8.874329119688971
 20
79.46177332269099
 11
8.874824352164975
 21
79.46515382263588
 72
     1
 10
8.874824352164975
 20
79.46515382263588
 11
8.874975075092454
 21
79.46862044996791
 72
     1
 10
8.874975075092454
 20
79.46862044996791
 11
8.874802820318193
 21
79.47243158684847
 72
     1
 10
8.874802820318193
 20
79.47243158684847
 11
8.874264524148622
 21
79.47609200080156
 72
     1
 10
8.874264524148622
 20
79.47609200080156
 11
8.87340325027731
 21
79.47962322367394
 72
     1
 10
8.87340325027731
 20
79.47962322367394
 11
8.87217593501069
 21
79.48300372361884
 72
     1
 10
8.87217593501069
 20
79.48300372361884
 11
8.870625642042327
 21
79.48621196878948
 72
     1
 10
8.870625642042327
 20
79.48621196878948
 11
8.868730839525439
 21
79.48924795918585
 72
     1
 10
8.868730839525439
 20
79.48924795918585
 11
8.86651305930681
 21
79.49211169480796
 72
     1
 10
8.86651305930681
 20
79.49211169480796
 11
8.863972301386438
 21
79.49478164380903
 72
     1
 10
8.863972301386438
 20
79.49478164380903
 11
8.771815997156004
 21
79.58469863597405
 72
     1
 10
8.771815997156004
 20
79.58469863597405
 11
8.679659692925572
 21
79.67461562813908
 72
     1
 10
8.679659692925572
 20
79.67461562813908
 11
8.587503388695138
 21
79.76455415215088
 72
     1
 10
8.587503388695138
 20
79.76455415215088
 11
8.495325552617922
 21
79.8544711443159
 72
     1
 10
8.495325552617922
 20
79.8544711443159
 11
8.403169248387488
 21
79.94438813648092
 72
     1
 10
8.403169248387488
 20
79.94438813648092
 11
8.311012944157056
 21
80.03430512864594
 72
     1
 10
8.311012944157056
 20
80.03430512864594
 11
8.218856639926623
 21
80.12422212081096
 72
     1
 10
8.218856639926623
 20
80.12422212081096
 11
8.12670033569619
 21
80.21413911297599
 72
     1
 10
8.12670033569619
 20
80.21413911297599
 11
8.255891416393059
 21
80.19553559735563
 72
     1
 10
8.255891416393059
 20
80.19553559735563
 11
8.385082497089927
 21
80.17693208173529
 72
     1
 10
8.385082497089927
 20
80.17693208173529
 11
8.514273577786797
 21
80.15832856611493
 72
     1
 10
8.514273577786797
 20
80.15832856611493
 11
8.643464658483666
 21
80.13972505049459
 72
     1
 10
8.643464658483666
 20
80.13972505049459
 11
8.772655739180534
 21
80.12112153487423
 72
     1
 10
8.772655739180534
 20
80.12112153487423
 11
8.901846819877404
 21
80.10251801925389
 72
     1
 10
8.901846819877404
 20
80.10251801925389
 11
9.031037900574272
 21
80.08391450363354
 72
     1
 10
9.031037900574272
 20
80.08391450363354
 11
9.16022898127114
 21
80.0653109880132
 72
     1
 10
9.16022898127114
 20
80.0653109880132
 11
9.164621478014835
 21
80.06481575553718
 72
     1
 10
9.164621478014835
 20
80.06481575553718
 11
9.16894937921818
 21
80.06488035107753
 72
     1
 10
9.16894937921818
 20
80.06488035107753
 11
9.173191153034393
 21
80.06546171094067
 72
     1
 10
9.173191153034393
 20
80.06546171094067
 11
9.177282203923127
 21
80.06651677143303
 72
     1
 10
9.177282203923127
 20
80.06651677143303
 11
9.181179468190816
 21
80.0680455325546
 72
     1
 10
9.181179468190816
 20
80.0680455325546
 11
9.184839882143894
 21
80.06996186691828
 72
     1
 10
9.184839882143894
 20
80.06996186691828
 11
9.188220382088796
 21
80.07228730637082
 72
     1
 10
9.188220382088796
 20
80.07228730637082
 11
9.191234840638389
 21
80.07497878721867
 72
     1
 10
9.191234840638389
 20
80.07497878721867
 11
9.194141639954069
 21
80.0784454145507
 72
     1
 10
9.194141639954069
 20
80.0784454145507
 11
9.196617802334092
 21
80.08214889219735
 72
     1
 10
9.196617802334092
 20
80.08214889219735
 11
9.198684859625242
 21
80.08602462461826
 72
     1
 10
9.198684859625242
 20
80.08602462461826
 11
9.20027821628717
 21
80.09002954811986
 72
     1
 10
9.20027821628717
 20
80.09002954811986
 11
9.201376340473093
 21
80.09414213085537
 72
     1
 10
9.201376340473093
 20
80.09414213085537
 11
9.201979232183012
 21
80.09831930913124
 72
     1
 10
9.201979232183012
 20
80.09831930913124
 11
9.202065359570144
 21
80.10249648740711
 72
     1
 10
9.202065359570144
 20
80.10249648740711
 11
9.20157012709414
 21
80.10665213383619
 72
     1
 10
9.20157012709414
 20
80.10665213383619
 11
9.180339726166286
 21
80.23515419543601
 72
     1
 10
9.180339726166286
 20
80.23515419543601
 11
9.159109325238434
 21
80.36365625703583
 72
     1
 10
9.159109325238434
 20
80.36365625703583
 11
9.137878924310582
 21
80.49215831863565
 72
     1
 10
9.137878924310582
 20
80.49215831863565
 11
9.11664852338273
 21
80.62066038023546
 72
     1
 10
9.11664852338273
 20
80.62066038023546
 11
9.095418122454879
 21
80.74916244183528
 72
     1
 10
9.095418122454879
 20
80.74916244183528
 11
9.074187721527027
 21
80.8776645034351
 72
     1
 10
9.074187721527027
 20
80.8776645034351
 11
9.052957320599175
 21
81.00616656503492
 72
     1
 10
9.052957320599175
 20
81.00616656503492
 11
9.03170538782454
 21
81.13466862663473
 72
     1
 10
9.03170538782454
 20
81.13466862663473
 11
9.123387991425751
 21
81.04518227140538
 72
     1
 10
9.123387991425751
 20
81.04518227140538
 11
9.215070595026962
 21
80.95569591617601
 72
     1
 10
9.215070595026962
 20
80.95569591617601
 11
9.306753198628174
 21
80.86620956094664
 72
     1
 10
9.306753198628174
 20
80.86620956094664
 11
9.398435802229384
 21
80.77672320571727
 72
     1
 10
9.398435802229384
 20
80.77672320571727
 11
9.490118405830597
 21
80.68723685048792
 72
     1
 10
9.490118405830597
 20
80.68723685048792
 11
9.581801009431807
 21
80.59775049525855
 72
     1
 10
9.581801009431807
 20
80.59775049525855
 11
9.673483613033019
 21
80.50826414002918
 72
     1
 10
9.673483613033019
 20
80.50826414002918
 11
9.76516621663423
 21
80.41877778479983
 72
     1
 10
9.76516621663423
 20
80.41877778479983
 11
9.767943824869212
 21
80.41636621796015
 72
     1
 10
9.767943824869212
 20
80.41636621796015
 11
9.770872156031675
 21
80.41425609697544
 72
     1
 10
9.770872156031675
 20
80.41425609697544
 11
9.773929678274834
 21
80.41246895369245
 72
     1
 10
9.773929678274834
 20
80.41246895369245
 11
9.77711639159869
 21
80.41102631995801
 72
     1
 10
9.77711639159869
 20
80.41102631995801
 11
9.780453827850026
 21
80.40988513207853
 72
     1
 10
9.780453827850026
 20
80.40988513207853
 11
9.783941987028841
 21
80.40908845374756
 72
     1
 10
9.783941987028841
 20
80.40908845374756
 11
9.787580869135137
 21
80.40861475311834
 72
     1
 10
9.787580869135137
 20
80.40861475311834
 11
9.791392006015695
 21
80.40844249834407
 72
     1
 10
9.791392006015695
 20
80.40844249834407
 11
9.794966292581641
 21
80.40874394419903
 72
     1
 10
9.794966292581641
 20
80.40874394419903
 11
9.798454451760456
 21
80.40938989960252
 72
     1
 10
9.798454451760456
 20
80.40938989960252
 11
9.801856483552141
 21
80.41035883270774
 72
     1
 10
9.801856483552141
 20
80.41035883270774
 11
9.805150856109911
 21
80.41162921166793
 72
     1
 10
9.805150856109911
 20
80.41162921166793
 11
9.808316037586984
 21
80.41320103648307
 72
     1
 10
9.808316037586984
 20
80.41320103648307
 11
9.811330496136577
 21
80.41503124345961
 72
     1
 10
9.811330496136577
 20
80.41503124345961
 11
9.814172699911909
 21
80.41711983259755
 72
     1
 10
9.814172699911909
 20
80.41711983259755
 11
9.81686418075976
 21
80.41944527205008
 72
     1
 10
9.81686418075976
 20
80.41944527205008
 11
9.835726078541503
 21
80.43884546600141
 72
     1
 10
9.835726078541503
 20
80.43884546600141
 11
9.854587976323247
 21
80.45822412810594
 72
     1
 10
9.854587976323247
 20
80.45822412810594
 11
9.873449874104988
 21
80.47760279021047
 72
     1
 10
9.873449874104988
 20
80.47760279021047
 11
9.892311771886732
 21
80.496981452315
 72
     1
 10
9.892311771886732
 20
80.496981452315
 11
9.911173669668475
 21
80.51636011441953
 72
     1
 10
9.911173669668475
 20
80.51636011441953
 11
9.930035567450217
 21
80.53573877652406
 72
     1
 10
9.930035567450217
 20
80.53573877652406
 11
9.948918997078742
 21
80.55511743862859
 72
     1
 10
9.948918997078742
 20
80.55511743862859
 11
9.967780894860486
 21
80.57449610073311
 72
     1
 10
9.967780894860486
 20
80.57449610073311
 11
9.970321652780857
 21
80.57731677266166
 72
     1
 10
9.970321652780857
 20
80.57731677266166
 11
9.972539432999486
 21
80.5802881675177
 72
     1
 10
9.972539432999486
 20
80.5802881675177
 11
9.974434235516375
 21
80.5834102853012
 72
     1
 10
9.974434235516375
 20
80.5834102853012
 11
9.975984528484737
 21
80.58664006231862
 72
     1
 10
9.975984528484737
 20
80.58664006231862
 11
9.977211843751357
 21
80.58997749856995
 72
     1
 10
9.977211843751357
 20
80.58997749856995
 11
9.97807311762267
 21
80.59340106220843
 72
     1
 10
9.97807311762267
 20
80.59340106220843
 11
9.97861141379224
 21
80.59684615769368
 72
     1
 10
9.97861141379224
 20
80.59684615769368
 11
9.978783668566502
 21
80.60031278502571
 72
     1
 10
9.978783668566502
 20
80.60031278502571
 11
9.978396095324412
 21
80.60401626267235
 72
     1
 10
9.978396095324412
 20
80.60401626267235
 11
9.977750139920927
 21
80.60761208108508
 72
     1
 10
9.977750139920927
 20
80.60761208108508
 11
9.976802738662483
 21
80.61107870841711
 72
     1
 10
9.976802738662483
 20
80.61107870841711
 11
9.975553891549081
 21
80.61439461282167
 72
     1
 10
9.975553891549081
 20
80.61439461282167
 11
9.974025130427501
 21
80.61760285799231
 72
     1
 10
9.974025130427501
 20
80.61760285799231
 11
9.972151859757396
 21
80.62063884838868
 72
     1
 10
9.972151859757396
 20
80.62063884838868
 11
9.969955611385549
 21
80.6235025840108
 72
     1
 10
9.969955611385549
 20
80.6235025840108
 11
9.967414853465177
 21
80.62617253301187
 72
     1
 10
9.967414853465177
 20
80.62617253301187
 11
9.843089970141225
 21
80.7473968303991
 72
     1
 10
9.843089970141225
 20
80.7473968303991
 11
9.718765086817271
 21
80.86862112778633
 72
     1
 10
9.718765086817271
 20
80.86862112778633
 11
9.594440203493317
 21
80.98984542517356
 72
     1
 10
9.594440203493317
 20
80.98984542517356
 11
9.470115320169365
 21
81.11106972256077
 72
     1
 10
9.470115320169365
 20
81.11106972256077
 11
9.34579043684541
 21
81.232294019948
 72
     1
 10
9.34579043684541
 20
81.232294019948
 11
9.221465553521456
 21
81.35351831733523
 72
     1
 10
9.221465553521456
 20
81.35351831733523
 11
9.09711913835072
 21
81.47474261472246
 72
     1
 10
9.09711913835072
 20
81.47474261472246
 11
8.972794255026766
 21
81.59596691210969
 72
     1
 10
8.972794255026766
 20
81.59596691210969
 11
8.96308339212772
 21
81.60384756803221
 72
     1
 10
8.96308339212772
 20
81.60384756803221
 11
8.952231341349183
 21
81.60961810296999
 72
     1
 10
8.952231341349183
 20
81.60961810296999
 11
8.940604144086464
 21
81.61321392138272
 72
     1
 10
8.940604144086464
 20
81.61321392138272
 11
8.92854630988809
 21
81.61452736403648
 72
     1
 10
8.92854630988809
 20
81.61452736403648
 11
8.916423880149367
 21
81.6134938353909
 72
     1
 10
8.916423880149367
 20
81.6134938353909
 11
8.904602896265603
 21
81.61004873990565
 72
     1
 10
8.904602896265603
 20
81.61004873990565
 11
8.893406335938542
 21
81.60412748204038
 72
     1
 10
8.893406335938542
 20
81.60412748204038
 11
8.883221772410272
 21
81.59562240256116
 72
     1
 10
8.883221772410272
 20
81.59562240256116
 11
8.88044416417529
 21
81.59273713509226
 72
     1
 10
8.88044416417529
 20
81.59273713509226
 11
8.877645024093523
 21
81.58985186762338
 72
     1
 10
8.877645024093523
 20
81.58985186762338
 11
8.874845884011759
 21
81.58696660015448
 72
     1
 10
8.874845884011759
 20
81.58696660015448
 11
8.872046743929992
 21
81.58408133268559
 72
     1
 10
8.872046743929992
 20
81.58408133268559
 11
8.869247603848226
 21
81.58119606521669
 72
     1
 10
8.869247603848226
 20
81.58119606521669
 11
8.866448463766462
 21
81.57831079774779
 72
     1
 10
8.866448463766462
 20
81.57831079774779
 11
8.86367085553148
 21
81.57542553027889
 72
     1
 10
8.86367085553148
 20
81.57542553027889
 11
8.860871715449713
 21
81.57254026281
 72
     1
 10
8.860871715449713
 20
81.57254026281
 11
8.84239739091006
 21
81.55363530133468
 72
     1
 10
8.84239739091006
 20
81.55363530133468
 11
8.823901534523626
 21
81.53473033985938
 72
     1
 10
8.823901534523626
 20
81.53473033985938
 11
8.805427209983973
 21
81.51582537838406
 72
     1
 10
8.805427209983973
 20
81.51582537838406
 11
8.786952885444322
 21
81.49692041690876
 72
     1
 10
8.786952885444322
 20
81.49692041690876
 11
8.768478560904668
 21
81.47801545543345
 72
     1
 10
8.768478560904668
 20
81.47801545543345
 11
8.750004236365017
 21
81.45911049395815
 72
     1
 10
8.750004236365017
 20
81.45911049395815
 11
8.731529911825364
 21
81.44020553248284
 72
     1
 10
8.731529911825364
 20
81.44020553248284
 11
8.713055587285712
 21
81.42130057100752
 72
     1
 10
8.713055587285712
 20
81.42130057100752
 11
8.710407170131427
 21
81.41807079399011
 72
     1
 10
8.710407170131427
 20
81.41807079399011
 11
8.70814632621923
 21
81.41456110296451
 72
     1
 10
8.70814632621923
 20
81.41456110296451
 11
8.706273055549127
 21
81.41085762531786
 72
     1
 10
8.706273055549127
 20
81.41085762531786
 11
8.704787358121113
 21
81.40696036105017
 72
     1
 10
8.704787358121113
 20
81.40696036105017
 11
8.703689233935188
 21
81.402912373855
 72
     1
 10
8.703689233935188
 20
81.402912373855
 11
8.702978682991356
 21
81.3987782592727
 72
     1
 10
8.702978682991356
 20
81.3987782592727
 11
8.702655705289613
 21
81.39455801730327
 72
     1
 10
8.702655705289613
 20
81.39455801730327
 11
8.702720300829963
 21
81.39029471164028
 72
     1
 10
8.702720300829963
 20
81.39029471164028
 11
8.723347810047896
 21
81.2653669366064
 72
     1
 10
8.723347810047896
 20
81.2653669366064
 11
8.743975319265829
 21
81.14043916157253
 72
     1
 10
8.743975319265829
 20
81.14043916157253
 11
8.764602828483763
 21
81.01551138653866
 72
     1
 10
8.764602828483763
 20
81.01551138653866
 11
8.785230337701696
 21
80.8905836115048
 72
     1
 10
8.785230337701696
 20
80.8905836115048
 11
8.80585784691963
 21
80.76565583647091
 72
     1
 10
8.80585784691963
 20
80.76565583647091
 11
8.826485356137564
 21
80.64072806143704
 72
     1
 10
8.826485356137564
 20
80.64072806143704
 11
8.847112865355497
 21
80.51580028640318
 72
     1
 10
8.847112865355497
 20
80.51580028640318
 11
8.86774037457343
 21
80.3908725113693
 72
     1
 10
8.86774037457343
 20
80.3908725113693
 11
8.742640344765295
 21
80.4086578168119
 72
     1
 10
8.742640344765295
 20
80.4086578168119
 11
8.61754031495716
 21
80.4264431222545
 72
     1
 10
8.61754031495716
 20
80.4264431222545
 11
8.492440285149026
 21
80.44422842769711
 72
     1
 10
8.492440285149026
 20
80.44422842769711
 11
8.36734025534089
 21
80.46201373313971
 72
     1
 10
8.36734025534089
 20
80.46201373313971
 11
8.242240225532756
 21
80.47979903858231
 72
     1
 10
8.242240225532756
 20
80.47979903858231
 11
8.117140195724621
 21
80.49758434402492
 72
     1
 10
8.117140195724621
 20
80.49758434402492
 11
7.992040165916487
 21
80.51536964946752
 72
     1
 10
7.992040165916487
 20
80.51536964946752
 11
7.866940136108352
 21
80.53315495491012
 72
     1
 10
7.866940136108352
 20
80.53315495491012
 11
7.862569171211441
 21
80.53319801860368
 72
     1
 10
7.862569171211441
 20
80.53319801860368
 11
7.858284333701662
 21
80.53285350905516
 72
     1
 10
7.858284333701662
 20
80.53285350905516
 11
7.854064091732231
 21
80.5320568307242
 72
     1
 10
7.854064091732231
 20
80.5320568307242
 11
7.850016104537063
 21
80.53087257915114
 72
     1
 10
7.850016104537063
 20
80.53087257915114
 11
7.846140372116157
 21
80.52927922248921
 72
     1
 10
7.846140372116157
 20
80.52927922248921
 11
7.842479958163079
 21
80.52727676073842
 72
     1
 10
7.842479958163079
 20
80.52727676073842
 11
7.839056394524611
 21
80.52488672574552
 72
     1
 10
7.839056394524611
 20
80.52488672574552
 11
7.835934276741104
 21
80.52210911751054
 72
     1
 10
7.835934276741104
 20
80.52210911751054
 11
7.831864757699152
 21
80.51791040738789
 72
     1
 10
7.831864757699152
 20
80.51791040738789
 11
7.820646665525308
 21
80.5063693375123
 72
     1
 10
7.820646665525308
 20
80.5063693375123
 11
7.803787229494366
 21
80.48901466900536
 72
     1
 10
7.803787229494366
 20
80.48901466900536
 11
7.782793678881124
 21
80.46743975852898
 72
     1
 10
7.782793678881124
 20
80.46743975852898
 11
7.759194774807163
 21
80.44315183535797
 72
     1
 10
7.759194774807163
 20
80.44315183535797
 11
7.734497746547278
 21
80.41776578800103
 72
     1
 10
7.734497746547278
 20
80.41776578800103
 11
7.710188291529485
 21
80.39281037757975
 72
     1
 10
7.710188291529485
 20
80.39281037757975
 11
7.687816702722143
 21
80.36985742890927
 72
     1
 10
7.687816702722143
 20
80.36985742890927
 11
7.685060626333944
 21
80.36701522513394
 72
     1
 10
7.685060626333944
 20
80.36701522513394
 11
7.682304549945743
 21
80.36417302135861
 72
     1
 10
7.682304549945743
 20
80.36417302135861
 11
7.679548473557544
 21
80.36133081758328
 72
     1
 10
7.679548473557544
 20
80.36133081758328
 11
7.676792397169344
 21
80.35848861380795
 72
     1
 10
7.676792397169344
 20
80.35848861380795
 11
7.674036320781144
 21
80.35564641003262
 72
     1
 10
7.674036320781144
 20
80.35564641003262
 11
7.671280244392944
 21
80.35280420625729
 72
     1
 10
7.671280244392944
 20
80.35280420625729
 11
7.668524168004744
 21
80.34998353432874
 72
     1
 10
7.668524168004744
 20
80.34998353432874
 11
7.665768091616544
 21
80.34714133055341
 72
     1
 10
7.665768091616544
 20
80.34714133055341
 11
7.657499862451945
 21
80.3367414485573
 72
     1
 10
7.657499862451945
 20
80.3367414485573
 11
7.651772391207717
 21
80.32541569714955
 72
     1
 10
7.651772391207717
 20
80.32541569714955
 11
7.648521082343512
 21
80.31353011772543
 72
     1
 10
7.648521082343512
 20
80.31353011772543
 11
7.647702872165765
 21
80.3014292198335
 72
     1
 10
7.647702872165765
 20
80.3014292198335
 11
7.649210101440563
 21
80.28941444932869
 72
     1
 10
7.649210101440563
 20
80.28941444932869
 11
7.652999706474337
 21
80.2778733794531
 97
        0
 75
     2
 76
     1
 98
        0
  0
POLYLINE
  5
165
330
1F
100
AcDbEntity
  8
L1-PATTERN
100
AcDb2dPolyline
 66
     1
 10
0.0
 20
0.0
 30
0.0
  0
VERTEX
  5
166
330
165
100
AcDbEntity
  8
L1-PATTERN
100
AcDbVertex
100
AcDb2dVertex
 10
10.76605258248644
 20
80.85787673624169
 30
0.0
  0
VERTEX
  5
167
330
165
100
AcDbEntity
  8
L1-PATTERN
100
AcDbVertex
100
AcDb2dVertex
 10
10.6516108168358
 20
81.22701871748622
 30
0.0
  0
VERTEX
  5
168
330
165
100
AcDbEntity
  8
L1-PATTERN
100
AcDbVertex
100
AcDb2dVertex
 10
10.46424068613177
 20
81.57251873096321
 30
0.0
  0
VERTEX
  5
169
330
165
100
AcDbEntity
  8
L1-PATTERN
100
AcDbVertex
100
AcDb2dVertex
 10
10.20409291330184
 20
81.88296489787778
 30
0.0
  0
VERTEX
  5
16A
330
165
100
AcDbEntity
  8
L1-PATTERN
100
AcDbVertex
100
AcDb2dVertex
 10
9.887122596812073
 20
82.13544733325304
 30
0.0
  0
VERTEX
  5
16B
330
165
100
AcDbEntity
  8
L1-PATTERN
100
AcDbVertex
100
AcDb2dVertex
 10
9.536993236276777
 20
82.31424778893751
 30
0.0
  0
VERTEX
  5
16C
330
165
100
AcDbEntity
  8
L1-PATTERN
100
AcDbVertex
100
AcDb2dVertex
 10
9.165052114950491
 20
82.41951698785867
 30
0.0
  0
VERTEX
  5
16D
330
165
100
AcDbEntity
  8
L1-PATTERN
100
AcDbVertex
100
AcDb2dVertex
 10
8.955073545124513
 20
82.4370223792931
 30
0.0
  0
VERTEX
  5
16E
330
165
100
AcDbEntity
  8
L1-PATTERN
100
AcDbVertex
100
AcDb2dVertex
 10
8.955073545124513
 20
82.19562884501099
 30
0.0
  0
VERTEX
  5
16F
330
165
100
AcDbEntity
  8
L1-PATTERN
100
AcDbVertex
100
AcDb2dVertex
 10
9.120481192110072
 20
82.17379555237322
 30
0.0
  0
VERTEX
  5
170
330
165
100
AcDbEntity
  8
L1-PATTERN
100
AcDbVertex
100
AcDb2dVertex
 10
9.284941437837185
 20
82.13577031095478
 30
0.0
  0
VERTEX
  5
171
330
165
100
AcDbEntity
  8
L1-PATTERN
100
AcDbVertex
100
AcDb2dVertex
 10
9.445870460691918
 20
82.08176843922348
 30
0.0
  0
VERTEX
  5
172
330
165
100
AcDbEntity
  8
L1-PATTERN
100
AcDbVertex
100
AcDb2dVertex
 10
9.602019413560868
 20
82.01168227794544
 30
0.0
  0
VERTEX
  5
173
330
165
100
AcDbEntity
  8
L1-PATTERN
100
AcDbVertex
100
AcDb2dVertex
 10
9.752204044870977
 20
81.92546876342706
 30
0.0
  0
VERTEX
  5
174
330
165
100
AcDbEntity
  8
L1-PATTERN
100
AcDbVertex
100
AcDb2dVertex
 10
9.895175507508846
 20
81.82308483197478
 30
0.0
  0
VERTEX
  5
175
330
165
100
AcDbEntity
  8
L1-PATTERN
100
AcDbVertex
100
AcDb2dVertex
 10
10.02974954990142
 20
81.70448741989506
 30
0.0
  0
VERTEX
  5
176
330
165
100
AcDbEntity
  8
L1-PATTERN
100
AcDbVertex
100
AcDb2dVertex
 10
10.15172746192605
 20
81.57292783605209
 30
0.0
  0
VERTEX
  5
177
330
165
100
AcDbEntity
  8
L1-PATTERN
100
AcDbVertex
100
AcDb2dVertex
 10
10.25768567994426
 20
81.43256172687494
 30
0.0
  0
VERTEX
  5
178
330
165
100
AcDbEntity
  8
L1-PATTERN
100
AcDbVertex
100
AcDb2dVertex
 10
10.34762420395606
 20
81.28457334393667
 30
0.0
  0
VERTEX
  5
179
330
165
100
AcDbEntity
  8
L1-PATTERN
100
AcDbVertex
100
AcDb2dVertex
 10
10.42156456580824
 20
81.13023306619748
 30
0.0
  0
VERTEX
  5
17A
330
165
100
AcDbEntity
  8
L1-PATTERN
100
AcDbVertex
100
AcDb2dVertex
 10
10.47952829734757
 20
80.9707466770772
 30
0.0
  0
VERTEX
  5
17B
330
165
100
AcDbEntity
  8
L1-PATTERN
100
AcDbVertex
100
AcDb2dVertex
 10
10.52149386672727
 20
80.80731995999565
 30
0.0
  0
VERTEX
  5
17C
330
165
100
AcDbEntity
  8
L1-PATTERN
100
AcDbVertex
100
AcDb2dVertex
 10
10.5475043376409
 20
80.64118023021949
 30
0.0
  0
VERTEX
  5
17D
330
165
100
AcDbEntity
  8
L1-PATTERN
100
AcDbVertex
100
AcDb2dVertex
 10
10.55755971008847
 20
80.47357633486207
 30
0.0
  0
VERTEX
  5
17E
330
165
100
AcDbEntity
  8
L1-PATTERN
100
AcDbVertex
100
AcDb2dVertex
 10
10.5516384522232
 20
80.30552027072224
 30
0.0
  0
VERTEX
  5
17F
330
165
100
AcDbEntity
  8
L1-PATTERN
100
AcDbVertex
100
AcDb2dVertex
 10
10.52969750035152
 20
80.13862692630866
 30
0.0
  0
VERTEX
  5
180
330
165
100
AcDbEntity
  8
L1-PATTERN
100
AcDbVertex
100
AcDb2dVertex
 10
10.49173685447342
 20
79.97408055319441
 30
0.0
  0
VERTEX
  5
181
330
165
100
AcDbEntity
  8
L1-PATTERN
100
AcDbVertex
100
AcDb2dVertex
 10
10.43771345089535
 20
79.81308693479933
 30
0.0
  0
VERTEX
  5
182
330
165
100
AcDbEntity
  8
L1-PATTERN
100
AcDbVertex
100
AcDb2dVertex
 10
10.36762728961729
 20
79.65685185454326
 30
0.0
  0
VERTEX
  5
183
330
165
100
AcDbEntity
  8
L1-PATTERN
100
AcDbVertex
100
AcDb2dVertex
 10
10.28145683879248
 20
79.5066026276928
 30
0.0
  0
VERTEX
  5
184
330
165
100
AcDbEntity
  8
L1-PATTERN
100
AcDbVertex
100
AcDb2dVertex
 10
10.17918056657413
 20
79.36352350582102
 30
0.0
  0
VERTEX
  5
185
330
165
100
AcDbEntity
  8
L1-PATTERN
100
AcDbVertex
100
AcDb2dVertex
 10
10.06077694111545
 20
79.22882027234775
 30
0.0
  0
VERTEX
  5
186
330
165
100
AcDbEntity
  8
L1-PATTERN
100
AcDbVertex
100
AcDb2dVertex
 10
9.929088166191773
 20
79.10710074248452
 30
0.0
  0
VERTEX
  5
187
330
165
100
AcDbEntity
  8
L1-PATTERN
100
AcDbVertex
100
AcDb2dVertex
 10
9.788614397780712
 20
79.00131477924056
 30
0.0
  0
VERTEX
  5
188
330
165
100
AcDbEntity
  8
L1-PATTERN
100
AcDbVertex
100
AcDb2dVertex
 10
9.6405614193021
 20
78.91148391446266
 30
0.0
  0
VERTEX
  5
189
330
165
100
AcDbEntity
  8
L1-PATTERN
100
AcDbVertex
100
AcDb2dVertex
 10
9.486113482328992
 20
78.83756508445728
 30
0.0
  0
VERTEX
  5
18A
330
165
100
AcDbEntity
  8
L1-PATTERN
100
AcDbVertex
100
AcDb2dVertex
 10
9.326519433974795
 20
78.77957982107117
 30
0.0
  0
VERTEX
  5
18B
330
165
100
AcDbEntity
  8
L1-PATTERN
100
AcDbVertex
100
AcDb2dVertex
 10
9.162941993965775
 20
78.73748506061077
 30
0.0
  0
VERTEX
  5
18C
330
165
100
AcDbEntity
  8
L1-PATTERN
100
AcDbVertex
100
AcDb2dVertex
 10
8.996651541262123
 20
78.71132386676966
 30
0.0
  0
VERTEX
  5
18D
330
165
100
AcDbEntity
  8
L1-PATTERN
100
AcDbVertex
100
AcDb2dVertex
 10
8.955073545124513
 20
78.70878310884929
 30
0.0
  0
VERTEX
  5
18E
330
165
100
AcDbEntity
  8
L1-PATTERN
100
AcDbVertex
100
AcDb2dVertex
 10
8.955073545124513
 20
78.46487034849359
 30
0.0
  0
VERTEX
  5
18F
330
165
100
AcDbEntity
  8
L1-PATTERN
100
AcDbVertex
100
AcDb2dVertex
 10
9.21390787530069
 20
78.49296940854516
 30
0.0
  0
VERTEX
  5
190
330
165
100
AcDbEntity
  8
L1-PATTERN
100
AcDbVertex
100
AcDb2dVertex
 10
9.583114452085558
 20
78.60747576973615
 30
0.0
  0
VERTEX
  5
191
330
165
100
AcDbEntity
  8
L1-PATTERN
100
AcDbVertex
100
AcDb2dVertex
 10
9.9286790611029
 20
78.79493202782731
 30
0.0
  0
VERTEX
  5
192
330
165
100
AcDbEntity
  8
L1-PATTERN
100
AcDbVertex
100
AcDb2dVertex
 10
10.23923288725139
 20
79.05518745989116
 30
0.0
  0
VERTEX
  5
193
330
165
100
AcDbEntity
  8
L1-PATTERN
100
AcDbVertex
100
AcDb2dVertex
 10
10.49162919523951
 20
79.37209318084058
 30
0.0
  0
VERTEX
  5
194
330
165
100
AcDbEntity
  8
L1-PATTERN
100
AcDbVertex
100
AcDb2dVertex
 10
10.67034352353684
 20
79.7221794776823
 30
0.0
  0
VERTEX
  5
195
330
165
100
AcDbEntity
  8
L1-PATTERN
100
AcDbVertex
100
AcDb2dVertex
 10
10.77556965876444
 20
80.09407753531502
 30
0.0
  0
VERTEX
  5
196
330
165
100
AcDbEntity
  8
L1-PATTERN
100
AcDbVertex
100
AcDb2dVertex
 10
10.80741526015622
 20
80.47644007048419
 30
0.0
  0
VERTEX
  5
197
330
165
100
AcDbEntity
  8
L1-PATTERN
100
AcDbVertex
100
AcDb2dVertex
 10
10.76605258248644
 20
80.85787673624169
 30
0.0
  0
SEQEND
  5
199
330
165
100
AcDbEntity
  8
L1-PATTERN
  0
HATCH
  5
198
330
1F
100
AcDbEntity
  8
L1-PATTERN
 62
     1
100
AcDbHatch
 10
0.0
 20
0.0
 30
0.0
210
0.0
220
0.0
230
1.0
  2
SOLID
 70
     1
 71
     0
 91
        1
 92
        1
 93
       49
 72
     1
 10
10.76605258248644
 20
80.85787673624169
 11
10.6516108168358
 21
81.22701871748622
 72
     1
 10
10.6516108168358
 20
81.22701871748622
 11
10.46424068613177
 21
81.57251873096321
 72
     1
 10
10.46424068613177
 20
81.57251873096321
 11
10.20409291330184
 21
81.88296489787778
 72
     1
 10
10.20409291330184
 20
81.88296489787778
 11
9.887122596812073
 21
82.13544733325304
 72
     1
 10
9.887122596812073
 20
82.13544733325304
 11
9.536993236276777
 21
82.31424778893751
 72
     1
 10
9.536993236276777
 20
82.31424778893751
 11
9.165052114950491
 21
82.41951698785867
 72
     1
 10
9.165052114950491
 20
82.41951698785867
 11
8.955073545124513
 21
82.4370223792931
 72
     1
 10
8.955073545124513
 20
82.4370223792931
 11
8.955073545124513
 21
82.19562884501099
 72
     1
 10
8.955073545124513
 20
82.19562884501099
 11
9.120481192110072
 21
82.17379555237322
 72
     1
 10
9.120481192110072
 20
82.17379555237322
 11
9.284941437837185
 21
82.13577031095478
 72
     1
 10
9.284941437837185
 20
82.13577031095478
 11
9.445870460691918
 21
82.08176843922348
 72
     1
 10
9.445870460691918
 20
82.08176843922348
 11
9.602019413560868
 21
82.01168227794544
 72
     1
 10
9.602019413560868
 20
82.01168227794544
 11
9.752204044870977
 21
81.92546876342706
 72
     1
 10
9.752204044870977
 20
81.92546876342706
 11
9.895175507508846
 21
81.82308483197478
 72
     1
 10
9.895175507508846
 20
81.82308483197478
 11
10.02974954990142
 21
81.70448741989506
 72
     1
 10
10.02974954990142
 20
81.70448741989506
 11
10.15172746192605
 21
81.57292783605209
 72
     1
 10
10.15172746192605
 20
81.57292783605209
 11
10.25768567994426
 21
81.43256172687494
 72
     1
 10
10.25768567994426
 20
81.43256172687494
 11
10.34762420395606
 21
81.28457334393667
 72
     1
 10
10.34762420395606
 20
81.28457334393667
 11
10.42156456580824
 21
81.13023306619748
 72
     1
 10
10.42156456580824
 20
81.13023306619748
 11
10.47952829734757
 21
80.9707466770772
 72
     1
 10
10.47952829734757
 20
80.9707466770772
 11
10.52149386672727
 21
80.80731995999565
 72
     1
 10
10.52149386672727
 20
80.80731995999565
 11
10.5475043376409
 21
80.64118023021949
 72
     1
 10
10.5475043376409
 20
80.64118023021949
 11
10.55755971008847
 21
80.47357633486207
 72
     1
 10
10.55755971008847
 20
80.47357633486207
 11
10.5516384522232
 21
80.30552027072224
 72
     1
 10
10.5516384522232
 20
80.30552027072224
 11
10.52969750035152
 21
80.13862692630866
 72
     1
 10
10.52969750035152
 20
80.13862692630866
 11
10.49173685447342
 21
79.97408055319441
 72
     1
 10
10.49173685447342
 20
79.97408055319441
 11
10.43771345089535
 21
79.81308693479933
 72
     1
 10
10.43771345089535
 20
79.81308693479933
 11
10.36762728961729
 21
79.65685185454326
 72
     1
 10
10.36762728961729
 20
79.65685185454326
 11
10.28145683879248
 21
79.5066026276928
 72
     1
 10
10.28145683879248
 20
79.5066026276928
 11
10.17918056657413
 21
79.36352350582102
 72
     1
 10
10.17918056657413
 20
79.36352350582102
 11
10.06077694111545
 21
79.22882027234775
 72
     1
 10
10.06077694111545
 20
79.22882027234775
 11
9.929088166191773
 21
79.10710074248452
 72
     1
 10
9.929088166191773
 20
79.10710074248452
 11
9.788614397780712
 21
79.00131477924056
 72
     1
 10
9.788614397780712
 20
79.00131477924056
 11
9.6405614193021
 21
78.91148391446266
 72
     1
 10
9.6405614193021
 20
78.91148391446266
 11
9.486113482328992
 21
78.83756508445728
 72
     1
 10
9.486113482328992
 20
78.83756508445728
 11
9.326519433974795
 21
78.77957982107117
 72
     1
 10
9.326519433974795
 20
78.77957982107117
 11
9.162941993965775
 21
78.73748506061077
 72
     1
 10
9.162941993965775
 20
78.73748506061077
 11
8.996651541262123
 21
78.71132386676966
 72
     1
 10
8.996651541262123
 20
78.71132386676966
 11
8.955073545124513
 21
78.70878310884929
 72
     1
 10
8.955073545124513
 20
78.70878310884929
 11
8.955073545124513
 21
78.46487034849359
 72
     1
 10
8.955073545124513
 20
78.46487034849359
 11
9.21390787530069
 21
78.49296940854516
 72
     1
 10
9.21390787530069
 20
78.49296940854516
 11
9.583114452085558
 21
78.60747576973615
 72
     1
 10
9.583114452085558
 20
78.60747576973615
 11
9.9286790611029
 21
78.79493202782731
 72
     1
 10
9.9286790611029
 20
78.79493202782731
 11
10.23923288725139
 21
79.05518745989116
 72
     1
 10
10.23923288725139
 20
79.05518745989116
 11
10.49162919523951
 21
79.37209318084058
 72
     1
 10
10.49162919523951
 20
79.37209318084058
 11
10.67034352353684
 21
79.7221794776823
 72
     1
 10
10.67034352353684
 20
79.7221794776823
 11
10.77556965876444
 21
80.09407753531502
 72
     1
 10
10.77556965876444
 20
80.09407753531502
 11
10.80741526015622
 21
80.47644007048419
 72
     1
 10
10.80741526015622
 20
80.47644007048419
 11
10.76605258248644
 21
80.85787673624169
 97
        0
 75
     2
 76
     1
 98
        0
  0
ENDSEC
  0
SECTION
  2
OBJECTS
  0
DICTIONARY
  5
C
330
0
100
AcDbDictionary
  3
ACAD_GROUP
350
D
  3
ACAD_LAYOUT
350
1A
  3
ACAD_MATERIAL
350
3B
  3
ACAD_MLEADERSTYLE
350
1C4
  3
ACAD_MLINESTYLE
350
17
  3
ACAD_PLOTSETTINGS
350
19
  3
ACAD_VISUALSTYLE
350
2A
  3
ACDBHEADERROUNDTRIPXREC
350
1A2
  3
ACDBVARIABLEDICTIONARY
350
1C2
  0
DICTIONARY
  5
D
102
{ACAD_REACTORS
330
C
102
}
330
C
100
AcDbDictionary
  0
DICTIONARY
  5
1A
102
{ACAD_REACTORS
330
C
102
}
330
C
100
AcDbDictionary
  0
DICTIONARY
  5
3B
102
{ACAD_REACTORS
330
C
102
}
330
C
100
AcDbDictionary
  3
BYBLOCK
350
3D
  3
BYLAYER
350
3C
  3
GLOBAL
350
3E
  0
DICTIONARY
  5
1C4
102
{ACAD_REACTORS
330
C
102
}
330
C
100
AcDbDictionary
  0
DICTIONARY
  5
17
102
{ACAD_REACTORS
330
C
102
}
330
C
100
AcDbDictionary
  3
STANDARD
350
18
  0
DICTIONARY
  5
19
102
{ACAD_REACTORS
330
C
102
}
330
C
100
AcDbDictionary
  0
DICTIONARY
  5
2A
102
{ACAD_REACTORS
330
C
102
}
330
C
100
AcDbDictionary
  3
2DWIREFRAME
350
2F
  3
3DWIREFRAME
350
30
  3
3D_HIDDEN
350
31
  3
BASIC
350
32
  3
BRIGHTEN
350
36
  3
COLORCHANGE
350
3A
  3
CONCEPTUAL
350
34
  3
DIM
350
35
  3
FACEPATTERN
350
39
  3
FLAT
350
2B
  3
FLATWITHEDGES
350
2C
  3
GOURAUD
350
2D
  3
GOURAUDWITHEDGES
350
2E
  3
LINEPATTERN
350
38
  3
REALISTIC
350
33
  3
THICKEN
350
37
  0
DICTIONARY
  5
1A2
102
{ACAD_REACTORS
330
C
102
}
330
C
100
AcDbDictionary
  3
CEPSNTYPE
350
1AB
  3
DIMSTYLEDATA
350
1C1
  3
FINGERPRINTGUID
350
1AC
  3
HYPERLINKBASE
350
1A5
  3
INSUNITS
350
1AA
  3
LAYOUTDICT
350
1A7
  3
LWETCUNION
350
1A9
  3
PLOTSETDICT
350
1A8
  3
PSVPSCALE
350
1AE
  3
PUCSBASE
350
1B1
  3
PUCSORGBACK
350
1B7
  3
PUCSORGBOTTOM
350
1B3
  3
PUCSORGFRONT
350
1B6
  3
PUCSORGLEFT
350
1B4
  3
PUCSORGRIGHT
350
1B5
  3
PUCSORGTOP
350
1B2
  3
PUCSORTHOREF
350
1AF
  3
PUCSORTHOVIEW
350
1B0
  3
STYLESHEET
350
1A6
  3
TSTACKALIGN
350
1A3
  3
TSTACKSIZE
350
1A4
  3
UCSBASE
350
1BA
  3
UCSORGBACK
350
1C0
  3
UCSORGBOTTOM
350
1BC
  3
UCSORGFRONT
350
1BF
  3
UCSORGLEFT
350
1BD
  3
UCSORGRIGHT
350
1BE
  3
UCSORGTOP
350
1BB
  3
UCSORTHOREF
350
1B8
  3
UCSORTHOVIEW
350
1B9
  3
VERSIONGUID
350
1AD
  0
DICTIONARY
  5
1C2
102
{ACAD_REACTORS
330
C
102
}
330
C
100
AcDbDictionary
  3
DIMASSOC
350
1C5
  3
HIDETEXT
350
1C6
  0
MATERIAL
  5
3D
102
{ACAD_REACTORS
330
3B
102
}
102
{ACAD_XDICTIONARY
360
1C9
102
}
330
3B
100
AcDbMaterial
  1
ByBlock
  0
MATERIAL
  5
3C
102
{ACAD_REACTORS
330
3B
102
}
102
{ACAD_XDICTIONARY
360
1C7
102
}
330
3B
100
AcDbMaterial
  1
ByLayer
  0
MATERIAL
  5
3E
102
{ACAD_REACTORS
330
3B
102
}
102
{ACAD_XDICTIONARY
360
1CB
102
}
330
3B
100
AcDbMaterial
  1
Global
  0
MLINESTYLE
  5
18
102
{ACAD_REACTORS
330
17
102
}
330
17
100
AcDbMlineStyle
  2
Standard
 70
     0
  3

 62
   256
 51
90.0
 52
90.0
 71
     2
 49
0.5
 62
   256
  6
BYLAYER
 49
-0.5
 62
   256
  6
BYLAYER
  0
ACAD_PROXY_OBJECT
  5
2F
102
{ACAD_REACTORS
330
2A
102
}
330
2A
100
AcDbProxyObject
 90
      499
 91
      501
 93
      436
310
42CC9915DA5C99599C985B595049028333333333333E3BF0000000000000FB0107901411070040501600405405064090741402480A0340
1001
ACAD
1000
AcDbSavedByObjectVersion
1070
     0
  0
ACAD_PROXY_OBJECT
  5
30
102
{ACAD_REACTORS
330
2A
102
}
330
2A
100
AcDbProxyObject
 90
      499
 91
      501
 93
      436
310
42CCD915DA5C99599C985B595059028333333333333E3BF0000000000000FB0107901411070040501600405405064090741402480A0340
1001
ACAD
1000
AcDbSavedByObjectVersion
1070
     0
  0
ACAD_PROXY_OBJECT
  5
31
102
{ACAD_REACTORS
330
2A
102
}
330
2A
100
AcDbProxyObject
 90
      499
 91
      501
 93
      500
310
424CD108121A5919195B90640502408333333333333E3BF0000000000000FB01079024090700405020000000000001110200405405064090740C02480A0340
1001
ACAD
1000
AcDbSavedByObjectVersion
1070
     0
  0
ACAD_PROXY_OBJECT
  5
32
102
{ACAD_REACTORS
330
2A
102
}
330
2A
100
AcDbProxyObject
 90
      499
 91
      501
 93
      388
310
4150985CDA58D07406404333333333333E3BF0000000000000FB0107A41107004050150841D405064090741402480A0350
1001
ACAD
1000
AcDbSavedByObjectVersion
1070
     0
  0
ACAD_PROXY_OBJECT
  5
36
102
{ACAD_REACTORS
330
2A
102
}
330
2A
100
AcDbProxyObject
 90
      499
 91
      501
 93
      428
310
42109C9A59DA1D195B90C409028333333333333E3BF0000000000000FB010790141107004050150841D405064090741402480A029950
1001
ACAD
1000
AcDbSavedByObjectVersion
1070
     0
  0
ACAD_PROXY_OBJECT
  5
3A
102
{ACAD_REACTORS
330
2A
102
}
330
2A
100
AcDbProxyObject
 90
      499
 91
      501
 93
      452
310
42D0DBDB1BDC90DA185B99D95104090240C333333333333E3BF0000000000000FB0108901411070040501508421405064090741402480A0350
1001
ACAD
1000
AcDbSavedByObjectVersion
1070
     0
  0
ACAD_PROXY_OBJECT
  5
34
102
{ACAD_REACTORS
330
2A
102
}
330
2A
100
AcDbProxyObject
 90
      499
 91
      501
 93
      500
310
4290DBDB98D95C1D1D585B10940D028333333333333E3BF0000000000000FB0107902409070040501000000000000111010841D405064090740C02480A0340
1001
ACAD
1000
AcDbSavedByObjectVersion
1070
     0
  0
ACAD_PROXY_OBJECT
  5
35
102
{ACAD_REACTORS
330
2A
102
}
330
2A
100
AcDbProxyObject
 90
      499
 91
      501
 93
      412
310
40D11A5B50B409028333333333333E3BF0000000000000FB010790141107004050150841D405064090741402480A02677FFFFFD0
1001
ACAD
1000
AcDbSavedByObjectVersion
1070
     0
  0
ACAD_PROXY_OBJECT
  5
39
102
{ACAD_REACTORS
330
2A
102
}
330
2A
100
AcDbProxyObject
 90
      499
 91
      501
 93
      444
310
42D19858D95C185D1D195C9B90F409028333333333333E3BF0000000000000FB010790141107004050150841D405064090741402480A0350
1001
ACAD
1000
AcDbSavedByObjectVersion
1070
     0
  0
ACAD_PROXY_OBJECT
  5
2B
102
{ACAD_REACTORS
330
2A
102
}
330
2A
100
AcDbProxyObject
 90
      499
 91
      501
 93
      388
310
41119B185D240901404333333333333E3BF0000000000000F9010740A41107004050150841D405064090741402480A1B50
1001
ACAD
1000
AcDbSavedByObjectVersion
1070
     0
  0
ACAD_PROXY_OBJECT
  5
2C
102
{ACAD_REACTORS
330
2A
102
}
330
2A
100
AcDbProxyObject
 90
      499
 91
      501
 93
      476
310
43519B185D15DA5D1A115919D95CD0140901404333333333333E3BF0000000000000F9010740901411070040501600405405064090741402480A1B50
1001
ACAD
1000
AcDbSavedByObjectVersion
1070
     0
  0
ACAD_PROXY_OBJECT
  5
2D
102
{ACAD_REACTORS
330
2A
102
}
330
2A
100
AcDbProxyObject
 90
      499
 91
      501
 93
      412
310
41D1DBDD5C985D5910240902404333333333333E3BF0000000000000F9010740A411070040501641D405064090741402480A1B50
1001
ACAD
1000
AcDbSavedByObjectVersion
1070
     0
  0
ACAD_PROXY_OBJECT
  5
2E
102
{ACAD_REACTORS
330
2A
102
}
330
2A
100
AcDbProxyObject
 90
      499
 91
      501
 93
      500
310
4411DBDD5C985D5915DA5D1A115919D95CD0340902404333333333333E3BF0000000000000F9010740901411070040501600405405064090741402480A1B50
1001
ACAD
1000
AcDbSavedByObjectVersion
1070
     0
  0
ACAD_PROXY_OBJECT
  5
38
102
{ACAD_REACTORS
330
2A
102
}
330
2A
100
AcDbProxyObject
 90
      499
 91
      501
 93
      444
310
42D31A5B995C185D1D195C9B90E409028333333333333E3BF0000000000000FB010790141107004050750841D405064090741402483A0350
1001
ACAD
1000
AcDbSavedByObjectVersion
1070
     0
  0
ACAD_PROXY_OBJECT
  5
33
102
{ACAD_REACTORS
330
2A
102
}
330
2A
100
AcDbProxyObject
 90
      499
 91
      501
 93
      420
310
425499585B1A5CDD1A58D08409028333333333333E3BF0000000000000FB01079019070040501508421405064090741402480A1B40
1001
ACAD
1000
AcDbSavedByObjectVersion
1070
     0
  0
ACAD_PROXY_OBJECT
  5
37
102
{ACAD_REACTORS
330
2A
102
}
330
2A
100
AcDbProxyObject
 90
      499
 91
      501
 93
      412
310
41D51A1A58DAD95B90D409028333333333333E3BF0000000000000FB010790141107004050150C41D405064090741402480A0350
1001
ACAD
1000
AcDbSavedByObjectVersion
1070
     0
  0
XRECORD
  5
1AB
102
{ACAD_REACTORS
330
1A2
102
}
330
1A2
100
AcDbXrecord
 90
        0
  0
XRECORD
  5
1C1
102
{ACAD_REACTORS
330
1A2
102
}
330
1A2
100
AcDbXrecord
1000
DSTYLE
1002
{
1070
   340
340
11
1002
}
  0
XRECORD
  5
1AC
102
{ACAD_REACTORS
330
1A2
102
}
330
1A2
100
AcDbXrecord
  1
{4D9BE007-5040-9594-2A5E-4E790E624739}
  0
XRECORD
  5
1A5
102
{ACAD_REACTORS
330
1A2
102
}
330
1A2
100
AcDbXrecord
  1

  0
XRECORD
  5
1AA
102
{ACAD_REACTORS
330
1A2
102
}
330
1A2
100
AcDbXrecord
 90
        4
  0
XRECORD
  5
1A7
102
{ACAD_REACTORS
330
1A2
102
}
330
1A2
100
AcDbXrecord
340
1A
  0
XRECORD
  5
1A9
102
{ACAD_REACTORS
330
1A2
102
}
330
1A2
100
AcDbXrecord
 90
    10269
  0
XRECORD
  5
1A8
102
{ACAD_REACTORS
330
1A2
102
}
330
1A2
100
AcDbXrecord
340
19
  0
XRECORD
  5
1AE
102
{ACAD_REACTORS
330
1A2
102
}
330
1A2
100
AcDbXrecord
 40
0.0
  0
XRECORD
  5
1B1
102
{ACAD_REACTORS
330
1A2
102
}
330
1A2
100
AcDbXrecord
340
0
  0
XRECORD
  5
1B7
102
{ACAD_REACTORS
330
1A2
102
}
330
1A2
100
AcDbXrecord
 10
0.0
 20
0.0
 30
0.0
  0
XRECORD
  5
1B3
102
{ACAD_REACTORS
330
1A2
102
}
330
1A2
100
AcDbXrecord
 10
0.0
 20
0.0
 30
0.0
  0
XRECORD
  5
1B6
102
{ACAD_REACTORS
330
1A2
102
}
330
1A2
100
AcDbXrecord
 10
0.0
 20
0.0
 30
0.0
  0
XRECORD
  5
1B4
102
{ACAD_REACTORS
330
1A2
102
}
330
1A2
100
AcDbXrecord
 10
0.0
 20
0.0
 30
0.0
  0
XRECORD
  5
1B5
102
{ACAD_REACTORS
330
1A2
102
}
330
1A2
100
AcDbXrecord
 10
0.0
 20
0.0
 30
0.0
  0
XRECORD
  5
1B2
102
{ACAD_REACTORS
330
1A2
102
}
330
1A2
100
AcDbXrecord
 10
0.0
 20
0.0
 30
0.0
  0
XRECORD
  5
1AF
102
{ACAD_REACTORS
330
1A2
102
}
330
1A2
100
AcDbXrecord
340
0
  0
XRECORD
  5
1B0
102
{ACAD_REACTORS
330
1A2
102
}
330
1A2
100
AcDbXrecord
 70
     0
  0
XRECORD
  5
1A6
102
{ACAD_REACTORS
330
1A2
102
}
330
1A2
100
AcDbXrecord
  1

  0
XRECORD
  5
1A3
102
{ACAD_REACTORS
330
1A2
102
}
330
1A2
100
AcDbXrecord
 90
        1
  0
XRECORD
  5
1A4
102
{ACAD_REACTORS
330
1A2
102
}
330
1A2
100
AcDbXrecord
 90
       70
  0
XRECORD
  5
1BA
102
{ACAD_REACTORS
330
1A2
102
}
330
1A2
100
AcDbXrecord
340
0
  0
XRECORD
  5
1C0
102
{ACAD_REACTORS
330
1A2
102
}
330
1A2
100
AcDbXrecord
 10
0.0
 20
0.0
 30
0.0
  0
XRECORD
  5
1BC
102
{ACAD_REACTORS
330
1A2
102
}
330
1A2
100
AcDbXrecord
 10
0.0
 20
0.0
 30
0.0
  0
XRECORD
  5
1BF
102
{ACAD_REACTORS
330
1A2
102
}
330
1A2
100
AcDbXrecord
 10
0.0
 20
0.0
 30
0.0
  0
XRECORD
  5
1BD
102
{ACAD_REACTORS
330
1A2
102
}
330
1A2
100
AcDbXrecord
 10
0.0
 20
0.0
 30
0.0
  0
XRECORD
  5
1BE
102
{ACAD_REACTORS
330
1A2
102
}
330
1A2
100
AcDbXrecord
 10
0.0
 20
0.0
 30
0.0
  0
XRECORD
  5
1BB
102
{ACAD_REACTORS
330
1A2
102
}
330
1A2
100
AcDbXrecord
 10
0.0
 20
0.0
 30
0.0
  0
XRECORD
  5
1B8
102
{ACAD_REACTORS
330
1A2
102
}
330
1A2
100
AcDbXrecord
340
0
  0
XRECORD
  5
1B9
102
{ACAD_REACTORS
330
1A2
102
}
330
1A2
100
AcDbXrecord
 70
     0
  0
XRECORD
  5
1AD
102
{ACAD_REACTORS
330
1A2
102
}
330
1A2
100
AcDbXrecord
  1
{FAEB1C32-E019-11D5-929B-00C0DF256EC4}
  0
DICTIONARYVAR
  5
1C5
102
{ACAD_REACTORS
330
1C2
102
}
330
1C2
100
DictionaryVariables
280
     0
  1
2
  0
DICTIONARYVAR
  5
1C6
102
{ACAD_REACTORS
330
1C2
102
}
330
1C2
100
DictionaryVariables
280
     0
  1
1
  0
DICTIONARY
  5
1C9
330
3D
100
AcDbDictionary
280
     1
  3
ACAD_XREC_ROUNDTRIP
360
1CA
  0
DICTIONARY
  5
1C7
330
3C
100
AcDbDictionary
280
     1
  3
ACAD_XREC_ROUNDTRIP
360
1C8
  0
DICTIONARY
  5
1CB
330
3E
100
AcDbDictionary
280
     1
  3
ACAD_XREC_ROUNDTRIP
360
1CC
  0
XRECORD
  5
1CA
102
{ACAD_REACTORS
330
1C9
102
}
330
1C9
100
AcDbXrecord
102
MATERIAL
148
0.0
149
0.0
149
0.0
 93
        0
 94
      127
282
     0
 72
     1
 77
     1
171
     1
175
     1
179
     1
273
     0
  0
XRECORD
  5
1C8
102
{ACAD_REACTORS
330
1C7
102
}
330
1C7
100
AcDbXrecord
102
MATERIAL
148
0.0
149
0.0
149
0.0
 93
        0
 94
      127
282
     0
 72
     1
 77
     1
171
     1
175
     1
179
     1
273
     0
  0
XRECORD
  5
1CC
102
{ACAD_REACTORS
330
1CB
102
}
330
1CB
100
AcDbXrecord
102
MATERIAL
148
0.0
149
0.0
149
0.0
 93
        0
 94
      127
282
     0
 72
     1
 77
     1
171
     1
175
     1
179
     1
273
     0
  0
ENDSEC
  0
EOF
