  0
SECTION
  2
HEADER
  9
$ACADVER
  1
AC1014
  9
$ACADMAINTVER
 70
     9
  9
$DWGCODEPAGE
  3
UNDEFINED
  9
$INSBASE
 10
0.0
 20
0.0
 30
0.0
  9
$EXTMIN
 10
1.000000000000000E+20
 20
1.000000000000000E+20
 30
1.000000000000000E+20
  9
$EXTMAX
 10
-1.000000000000000E+20
 20
-1.000000000000000E+20
 30
-1.000000000000000E+20
  9
$LIMMIN
 10
0.0
 20
0.0
  9
$LIMMAX
 10
12.0
 20
9.0
  9
$ORTHOMODE
 70
     0
  9
$REGENMODE
 70
     1
  9
$FILLMODE
 70
     1
  9
$QTEXTMODE
 70
     0
  9
$MIRRTEXT
 70
     1
  9
$DRAGMODE
 70
     2
  9
$LTSCALE
 40
1.0
  9
$OSMODE
 70
    37
  9
$ATTMODE
 70
     1
  9
$TEXTSIZE
 40
0.2
  9
$TRACEWID
 40
0.05
  9
$TEXTSTYLE
  7
STANDARD
  9
$CLAYER
  8
0
  9
$CELTYPE
  6
BYLAYER
  9
$CECOLOR
 62
   256
  9
$CELTSCALE
 40
1.0
  9
$DELOBJ
 70
     1
  9
$DISPSILH
 70
     0
  9
$DIMSCALE
 40
1.0
  9
$DIMASZ
 40
0.18
  9
$DIMEXO
 40
0.0625
  9
$DIMDLI
 40
0.38
  9
$DIMRND
 40
0.0
  9
$DIMDLE
 40
0.0
  9
$DIMEXE
 40
0.18
  9
$DIMTP
 40
0.0
  9
$DIMTM
 40
0.0
  9
$DIMTXT
 40
0.18
  9
$DIMCEN
 40
0.09
  9
$DIMTSZ
 40
0.0
  9
$DIMTOL
 70
     0
  9
$DIMLIM
 70
     0
  9
$DIMTIH
 70
     1
  9
$DIMTOH
 70
     1
  9
$DIMSE1
 70
     0
  9
$DIMSE2
 70
     0
  9
$DIMTAD
 70
     0
  9
$DIMZIN
 70
     0
  9
$DIMBLK
  1

  9
$DIMASO
 70
     1
  9
$DIMSHO
 70
     1
  9
$DIMPOST
  1

  9
$DIMAPOST
  1

  9
$DIMALT
 70
     0
  9
$DIMALTD
 70
     2
  9
$DIMALTF
 40
25.4
  9
$DIMLFAC
 40
1.0
  9
$DIMTOFL
 70
     0
  9
$DIMTVP
 40
0.0
  9
$DIMTIX
 70
     0
  9
$DIMSOXD
 70
     0
  9
$DIMSAH
 70
     0
  9
$DIMBLK1
  1

  9
$DIMBLK2
  1

  9
$DIMSTYLE
  2
STANDARD
  9
$DIMCLRD
 70
     0
  9
$DIMCLRE
 70
     0
  9
$DIMCLRT
 70
     0
  9
$DIMTFAC
 40
1.0
  9
$DIMGAP
 40
0.09
  9
$DIMJUST
 70
     0
  9
$DIMSD1
 70
     0
  9
$DIMSD2
 70
     0
  9
$DIMTOLJ
 70
     1
  9
$DIMTZIN
 70
     0
  9
$DIMALTZ
 70
     0
  9
$DIMALTTZ
 70
     0
  9
$DIMFIT
 70
     3
  9
$DIMUPT
 70
     0
  9
$DIMUNIT
 70
     2
  9
$DIMDEC
 70
     4
  9
$DIMTDEC
 70
     4
  9
$DIMALTU
 70
     2
  9
$DIMALTTD
 70
     2
  9
$DIMTXSTY
  7
STANDARD
  9
$DIMAUNIT
 70
     0
  9
$LUNITS
 70
     2
  9
$LUPREC
 70
     4
  9
$SKETCHINC
 40
0.1
  9
$FILLETRAD
 40
0.5
  9
$AUNITS
 70
     0
  9
$AUPREC
 70
     0
  9
$MENU
  1
.
  9
$ELEVATION
 40
0.0
  9
$PELEVATION
 40
0.0
  9
$THICKNESS
 40
0.0
  9
$LIMCHECK
 70
     0
  9
$CHAMFERA
 40
0.5
  9
$CHAMFERB
 40
0.5
  9
$CHAMFERC
 40
1.0
  9
$CHAMFERD
 40
0.0
  9
$SKPOLY
 70
     0
  9
$TDCREATE
 40
2458969.601435185
  9
$TDUPDATE
 40
2458969.601435185
  9
$TDINDWG
 40
0.0000000116
  9
$TDUSRTIMER
 40
0.0000000116
  9
$USRTIMER
 70
     1
  9
$ANGBASE
 50
0.0
  9
$ANGDIR
 70
     0
  9
$PDMODE
 70
     0
  9
$PDSIZE
 40
0.0
  9
$PLINEWID
 40
0.0
  9
$COORDS
 70
     1
  9
$SPLFRAME
 70
     0
  9
$SPLINETYPE
 70
     6
  9
$SPLINESEGS
 70
     8
  9
$ATTDIA
 70
     0
  9
$ATTREQ
 70
     1
  9
$HANDLING
 70
     1
  9
$HANDSEED
  5
D1
  9
$SURFTAB1
 70
     6
  9
$SURFTAB2
 70
     6
  9
$SURFTYPE
 70
     6
  9
$SURFU
 70
     6
  9
$SURFV
 70
     6
  9
$UCSNAME
  2

  9
$UCSORG
 10
0.0
 20
0.0
 30
0.0
  9
$UCSXDIR
 10
1.0
 20
0.0
 30
0.0
  9
$UCSYDIR
 10
0.0
 20
1.0
 30
0.0
  9
$PUCSNAME
  2

  9
$PUCSORG
 10
0.0
 20
0.0
 30
0.0
  9
$PUCSXDIR
 10
1.0
 20
0.0
 30
0.0
  9
$PUCSYDIR
 10
0.0
 20
1.0
 30
0.0
  9
$USERI1
 70
     0
  9
$USERI2
 70
     0
  9
$USERI3
 70
     0
  9
$USERI4
 70
     0
  9
$USERI5
 70
     0
  9
$USERR1
 40
0.0
  9
$USERR2
 40
0.0
  9
$USERR3
 40
0.0
  9
$USERR4
 40
0.0
  9
$USERR5
 40
0.0
  9
$WORLDVIEW
 70
     1
  9
$SHADEDGE
 70
     3
  9
$SHADEDIF
 70
    70
  9
$TILEMODE
 70
     1
  9
$MAXACTVP
 70
    64
  9
$PINSBASE
 10
0.0
 20
0.0
 30
0.0
  9
$PLIMCHECK
 70
     0
  9
$PEXTMIN
 10
1.000000000000000E+20
 20
1.000000000000000E+20
 30
1.000000000000000E+20
  9
$PEXTMAX
 10
-1.000000000000000E+20
 20
-1.000000000000000E+20
 30
-1.000000000000000E+20
  9
$PLIMMIN
 10
0.0
 20
0.0
  9
$PLIMMAX
 10
12.0
 20
9.0
  9
$UNITMODE
 70
     0
  9
$VISRETAIN
 70
     1
  9
$PLINEGEN
 70
     0
  9
$PSLTSCALE
 70
     1
  9
$TREEDEPTH
 70
  3020
  9
$PICKSTYLE
 70
     1
  9
$CMLSTYLE
  2
STANDARD
  9
$CMLJUST
 70
     0
  9
$CMLSCALE
 40
1.0
  9
$PROXYGRAPHICS
 70
     1
  9
$MEASUREMENT
 70
     0
  0
ENDSEC
  0
SECTION
  2
CLASSES
  0
CLASS
  1
ACDBDICTIONARYWDFLT
  2
AcDbDictionaryWithDefault
  3
ObjectDBX Classes
 90
        0
280
     0
281
     0
  0
CLASS
  1
VISUALSTYLE
  2
AcDbVisualStyle
  3
ObjectDBX Classes
 90
     4095
280
     0
281
     0
  0
CLASS
  1
MATERIAL
  2
AcDbMaterial
  3
ObjectDBX Classes
 90
     1153
280
     0
281
     0
  0
CLASS
  1
SUN
  2
AcDbSun
  3
SCENEOE
 90
     1024
280
     0
281
     0
  0
CLASS
  1
DICTIONARYVAR
  2
AcDbDictionaryVar
  3
ObjectDBX Classes
 90
        0
280
     0
281
     0
  0
CLASS
  1
XRECORD
  2
AcDbXrecord
  3
AutoCAD 2000
 90
        0
280
     0
281
     0
  0
CLASS
  1
LWPOLYLINE
  2
AcDbPolyline
  3
AutoCAD 2000
 90
        0
280
     0
281
     1
  0
CLASS
  1
HATCH
  2
AcDbHatch
  3
AutoCAD 2000
 90
        0
280
     0
281
     1
  0
CLASS
  1
ACDBPLACEHOLDER
  2
AcDbPlaceHolder
  3
ObjectDBX Classes
 90
        0
280
     0
281
     0
  0
CLASS
  1
LAYOUT
  2
AcDbLayout
  3
ObjectDBX Classes
 90
        0
280
     0
281
     0
  0
ENDSEC
  0
SECTION
  2
TABLES
  0
TABLE
  2
VPORT
  5
8
330
0
100
AcDbSymbolTable
 70
     1
  0
VPORT
  5
29
330
8
100
AcDbSymbolTableRecord
100
AcDbViewportTableRecord
  2
*ACTIVE
 70
     0
 10
0.0
 20
0.0
 11
1.0
 21
1.0
 12
0.0
 22
0.0
 13
0.0
 23
0.0
 14
0.5
 24
0.5
 15
0.5
 25
0.5
 16
0.0
 26
0.0
 36
1.0
 17
104.9999989878935
 27
148.4996183011652
 37
0.0
 40
297.0000052006764
 41
0.7070706878738762
 42
50.0
 43
0.0
 44
0.0
 50
0.0
 51
0.0
 71
     0
 72
   100
 73
     1
 74
     3
 75
     0
 76
     0
 77
     0
 78
     0
  0
ENDTAB
  0
TABLE
  2
LTYPE
  5
5
330
0
100
AcDbSymbolTable
 70
     1
  0
LTYPE
  5
14
330
5
100
AcDbSymbolTableRecord
100
AcDbLinetypeTableRecord
  2
BYBLOCK
 70
     0
  3

 72
    65
 73
     0
 40
0.0
  0
LTYPE
  5
15
330
5
100
AcDbSymbolTableRecord
100
AcDbLinetypeTableRecord
  2
BYLAYER
 70
     0
  3

 72
    65
 73
     0
 40
0.0
  0
LTYPE
  5
16
330
5
100
AcDbSymbolTableRecord
100
AcDbLinetypeTableRecord
  2
CONTINUOUS
 70
     0
  3
Solid line
 72
    65
 73
     0
 40
0.0
  0
ENDTAB
  0
TABLE
  2
LAYER
  5
2
330
0
100
AcDbSymbolTable
 70
    15
  0
LAYER
  5
10
330
2
100
AcDbSymbolTableRecord
100
AcDbLayerTableRecord
  2
0
 70
     0
 62
     7
  6
CONTINUOUS
  0
LAYER
  5
40
330
2
100
AcDbSymbolTableRecord
100
AcDbLayerTableRecord
  2
OUTLINE
 70
     5
 62
     7
  6
CONTINUOUS
  0
LAYER
  5
41
330
2
100
AcDbSymbolTableRecord
100
AcDbLayerTableRecord
  2
OUTLINE_U_306E_U_30B3_U_30
 70
     4
 62
     7
  6
CONTINUOUS
  0
LAYER
  5
42
330
2
100
AcDbSymbolTableRecord
100
AcDbLayerTableRecord
  2
L2-SILK
 70
     5
 62
     7
  6
CONTINUOUS
  0
LAYER
  5
43
330
2
100
AcDbSymbolTableRecord
100
AcDbLayerTableRecord
  2
L2-PATTERN
 70
     1
 62
     7
  6
CONTINUOUS
  0
LAYER
  5
44
330
2
100
AcDbSymbolTableRecord
100
AcDbLayerTableRecord
  2
L2-RESIST
 70
     5
 62
     7
  6
CONTINUOUS
  0
LAYER
  5
45
330
2
100
AcDbSymbolTableRecord
100
AcDbLayerTableRecord
  2
L1-PATTERN
 70
     0
 62
     7
  6
CONTINUOUS
  0
LAYER
  5
9E
330
2
100
AcDbSymbolTableRecord
100
AcDbLayerTableRecord
  2
_U_30EC_U_30A4_U_30E4_U_30
 70
     1
 62
     7
  6
CONTINUOUS
  0
LAYER
  5
9F
330
2
100
AcDbSymbolTableRecord
100
AcDbLayerTableRecord
  2
L1-RESIST
 70
     5
 62
     7
  6
CONTINUOUS
  0
LAYER
  5
A0
330
2
100
AcDbSymbolTableRecord
100
AcDbLayerTableRecord
  2
L1-SILK
 70
     5
 62
     7
  6
CONTINUOUS
  0
LAYER
  5
A1
330
2
100
AcDbSymbolTableRecord
100
AcDbLayerTableRecord
  2
DRILL
 70
     0
 62
     7
  6
CONTINUOUS
  0
LAYER
  5
A2
330
2
100
AcDbSymbolTableRecord
100
AcDbLayerTableRecord
  2
_U_30EC_U_30A4_U_30E4_U_31
 70
     1
 62
     7
  6
CONTINUOUS
  0
LAYER
  5
A3
330
2
100
AcDbSymbolTableRecord
100
AcDbLayerTableRecord
  2
HANE
 70
     4
 62
     7
  6
CONTINUOUS
  0
LAYER
  5
A4
330
2
100
AcDbSymbolTableRecord
100
AcDbLayerTableRecord
  2
L2-RESIST_U_306E_U_30B3_U_
 70
     5
 62
     7
  6
CONTINUOUS
  0
LAYER
  5
A5
330
2
100
AcDbSymbolTableRecord
100
AcDbLayerTableRecord
  2
_U_30EC_U_30A4_U_30E4_U_32
 70
     5
 62
     7
  6
CONTINUOUS
  0
ENDTAB
  0
TABLE
  2
STYLE
  5
3
330
0
100
AcDbSymbolTable
 70
     1
  0
STYLE
  5
11
330
3
100
AcDbSymbolTableRecord
100
AcDbTextStyleTableRecord
  2
STANDARD
 70
     0
 40
0.0
 41
1.0
 50
0.0
 71
     0
 42
0.2
  3
txt
  4

  0
ENDTAB
  0
TABLE
  2
VIEW
  5
6
330
0
100
AcDbSymbolTable
 70
     0
  0
ENDTAB
  0
TABLE
  2
UCS
  5
7
330
0
100
AcDbSymbolTable
 70
     0
  0
ENDTAB
  0
TABLE
  2
APPID
  5
9
330
0
100
AcDbSymbolTable
 70
     1
  0
APPID
  5
12
330
9
100
AcDbSymbolTableRecord
100
AcDbRegAppTableRecord
  2
ACAD
 70
     0
  0
ENDTAB
  0
TABLE
  2
DIMSTYLE
  5
A
330
0
100
AcDbSymbolTable
 70
     1
  0
DIMSTYLE
105
27
330
A
100
AcDbSymbolTableRecord
100
AcDbDimStyleTableRecord
  2
STANDARD
 70
     0
  3

  4

  5

  6

  7

 40
1.0
 41
0.18
 42
0.0625
 43
0.38
 44
0.18
 45
0.0
 46
0.0
 47
0.0
 48
0.0
140
0.18
141
0.09
142
0.0
143
25.4
144
1.0
145
0.0
146
1.0
147
0.09
 71
     0
 72
     0
 73
     1
 74
     1
 75
     0
 76
     0
 77
     0
 78
     0
170
     0
171
     2
172
     0
173
     0
174
     0
175
     0
176
     0
177
     0
178
     0
270
     2
271
     4
272
     4
273
     2
274
     2
340
11
275
     0
280
     0
281
     0
282
     0
283
     1
284
     0
285
     0
286
     0
287
     3
288
     0
  0
ENDTAB
  0
TABLE
  2
BLOCK_RECORD
  5
1
330
0
100
AcDbSymbolTable
 70
     2
  0
BLOCK_RECORD
  5
1F
330
1
100
AcDbSymbolTableRecord
100
AcDbBlockTableRecord
  2
*MODEL_SPACE
  0
BLOCK_RECORD
  5
1B
330
1
100
AcDbSymbolTableRecord
100
AcDbBlockTableRecord
  2
*PAPER_SPACE
  0
BLOCK_RECORD
  5
46
330
1
100
AcDbSymbolTableRecord
100
AcDbBlockTableRecord
  2
BLOCK_2
  0
ENDTAB
  0
ENDSEC
  0
SECTION
  2
BLOCKS
  0
BLOCK
  5
20
330
1F
100
AcDbEntity
  8
0
100
AcDbBlockBegin
  2
*MODEL_SPACE
 70
     0
 10
0.0
 20
0.0
 30
0.0
  3
*MODEL_SPACE
  1

  0
ENDBLK
  5
21
330
1F
100
AcDbEntity
  8
0
100
AcDbBlockEnd
  0
BLOCK
  5
1C
330
1B
100
AcDbEntity
 67
     1
  8
0
100
AcDbBlockBegin
  2
*PAPER_SPACE
 70
     0
 10
0.0
 20
0.0
 30
0.0
  3
*PAPER_SPACE
  1

  0
ENDBLK
  5
1D
330
1B
100
AcDbEntity
 67
     1
  8
0
100
AcDbBlockEnd
  0
BLOCK
  5
48
330
46
100
AcDbEntity
  8
0
100
AcDbBlockBegin
  2
BLOCK_2
 70
     0
 10
0.0
 20
0.0
 30
0.0
  3
BLOCK_2
  1

  0
POLYLINE
  5
4A
330
46
100
AcDbEntity
  8
L1-PATTERN
100
AcDb2dPolyline
 66
     1
 10
0.0
 20
0.0
 30
0.0
  0
VERTEX
  5
4B
330
4A
100
AcDbEntity
  8
L1-PATTERN
100
AcDbVertex
100
AcDb2dVertex
 10
8.98836178025074
 20
102.449625116803
 30
0.0
  0
VERTEX
  5
4C
330
4A
100
AcDbEntity
  8
L1-PATTERN
100
AcDbVertex
100
AcDb2dVertex
 10
9.029810585307652
 20
102.2111383818365
 30
0.0
  0
VERTEX
  5
4D
330
4A
100
AcDbEntity
  8
L1-PATTERN
100
AcDbVertex
100
AcDb2dVertex
 10
9.071259390364563
 20
101.9726516468701
 30
0.0
  0
VERTEX
  5
4E
330
4A
100
AcDbEntity
  8
L1-PATTERN
100
AcDbVertex
100
AcDb2dVertex
 10
9.112708195421476
 20
101.7341649119037
 30
0.0
  0
VERTEX
  5
4F
330
4A
100
AcDbEntity
  8
L1-PATTERN
100
AcDbVertex
100
AcDb2dVertex
 10
9.154157000478389
 20
101.4956781769373
 30
0.0
  0
VERTEX
  5
50
330
4A
100
AcDbEntity
  8
L1-PATTERN
100
AcDbVertex
100
AcDb2dVertex
 10
9.195605805535301
 20
101.2571914419709
 30
0.0
  0
VERTEX
  5
51
330
4A
100
AcDbEntity
  8
L1-PATTERN
100
AcDbVertex
100
AcDb2dVertex
 10
9.237076142438996
 20
101.0187047070044
 30
0.0
  0
VERTEX
  5
52
330
4A
100
AcDbEntity
  8
L1-PATTERN
100
AcDbVertex
100
AcDb2dVertex
 10
9.237571374915
 20
101.0185324522302
 30
0.0
  0
VERTEX
  5
53
330
4A
100
AcDbEntity
  8
L1-PATTERN
100
AcDbVertex
100
AcDb2dVertex
 10
9.238045075544221
 20
101.0183601974559
 30
0.0
  0
VERTEX
  5
54
330
4A
100
AcDbEntity
  8
L1-PATTERN
100
AcDbVertex
100
AcDb2dVertex
 10
9.238540308020227
 20
101.0181879426816
 30
0.0
  0
VERTEX
  5
55
330
4A
100
AcDbEntity
  8
L1-PATTERN
100
AcDbVertex
100
AcDb2dVertex
 10
9.23903554049623
 20
101.0180156879074
 30
0.0
  0
VERTEX
  5
56
330
4A
100
AcDbEntity
  8
L1-PATTERN
100
AcDbVertex
100
AcDb2dVertex
 10
9.239530772972236
 20
101.0178434331331
 30
0.0
  0
VERTEX
  5
57
330
4A
100
AcDbEntity
  8
L1-PATTERN
100
AcDbVertex
100
AcDb2dVertex
 10
9.240026005448241
 20
101.0176711783589
 30
0.0
  0
VERTEX
  5
58
330
4A
100
AcDbEntity
  8
L1-PATTERN
100
AcDbVertex
100
AcDb2dVertex
 10
9.240521237924245
 20
101.0174989235846
 30
0.0
  0
VERTEX
  5
59
330
4A
100
AcDbEntity
  8
L1-PATTERN
100
AcDbVertex
100
AcDb2dVertex
 10
9.24101647040025
 20
101.0173266688103
 30
0.0
  0
VERTEX
  5
5A
330
4A
100
AcDbEntity
  8
L1-PATTERN
100
AcDbVertex
100
AcDb2dVertex
 10
9.243664887554536
 20
101.0164438630922
 30
0.0
  0
VERTEX
  5
5B
330
4A
100
AcDbEntity
  8
L1-PATTERN
100
AcDbVertex
100
AcDb2dVertex
 10
9.246334836555604
 20
101.0155610573742
 30
0.0
  0
VERTEX
  5
5C
330
4A
100
AcDbEntity
  8
L1-PATTERN
100
AcDbVertex
100
AcDb2dVertex
 10
9.249004785556673
 20
101.0146997835028
 30
0.0
  0
VERTEX
  5
5D
330
4A
100
AcDbEntity
  8
L1-PATTERN
100
AcDbVertex
100
AcDb2dVertex
 10
9.251696266404524
 20
101.0138385096315
 30
0.0
  0
VERTEX
  5
5E
330
4A
100
AcDbEntity
  8
L1-PATTERN
100
AcDbVertex
100
AcDb2dVertex
 10
9.254366215405593
 20
101.0129772357602
 30
0.0
  0
VERTEX
  5
5F
330
4A
100
AcDbEntity
  8
L1-PATTERN
100
AcDbVertex
100
AcDb2dVertex
 10
9.257036164406662
 20
101.0121374937357
 30
0.0
  0
VERTEX
  5
60
330
4A
100
AcDbEntity
  8
L1-PATTERN
100
AcDbVertex
100
AcDb2dVertex
 10
9.25970611340773
 20
101.0112977517112
 30
0.0
  0
VERTEX
  5
61
330
4A
100
AcDbEntity
  8
L1-PATTERN
100
AcDbVertex
100
AcDb2dVertex
 10
9.262354530562016
 20
101.0104580096866
 30
0.0
  0
VERTEX
  5
62
330
4A
100
AcDbEntity
  8
L1-PATTERN
100
AcDbVertex
100
AcDb2dVertex
 10
9.342388405053725
 20
100.9850504304829
 30
0.0
  0
VERTEX
  5
63
330
4A
100
AcDbEntity
  8
L1-PATTERN
100
AcDbVertex
100
AcDb2dVertex
 10
9.424274018368758
 20
100.9584801315529
 30
0.0
  0
VERTEX
  5
64
330
4A
100
AcDbEntity
  8
L1-PATTERN
100
AcDbVertex
100
AcDb2dVertex
 10
9.507580733571457
 20
100.9305748581224
 30
0.0
  0
VERTEX
  5
65
330
4A
100
AcDbEntity
  8
L1-PATTERN
100
AcDbVertex
100
AcDb2dVertex
 10
9.591877913726163
 20
100.9011408235703
 30
0.0
  0
VERTEX
  5
66
330
4A
100
AcDbEntity
  8
L1-PATTERN
100
AcDbVertex
100
AcDb2dVertex
 10
9.676691858203657
 20
100.8700057731223
 30
0.0
  0
VERTEX
  5
67
330
4A
100
AcDbEntity
  8
L1-PATTERN
100
AcDbVertex
100
AcDb2dVertex
 10
9.761634993761849
 20
100.8370405156979
 30
0.0
  0
VERTEX
  5
68
330
4A
100
AcDbEntity
  8
L1-PATTERN
100
AcDbVertex
100
AcDb2dVertex
 10
9.846233619771516
 20
100.802029732829
 30
0.0
  0
VERTEX
  5
69
330
4A
100
AcDbEntity
  8
L1-PATTERN
100
AcDbVertex
100
AcDb2dVertex
 10
9.930035567450217
 20
100.7648227015883
 30
0.0
  0
VERTEX
  5
6A
330
4A
100
AcDbEntity
  8
L1-PATTERN
100
AcDbVertex
100
AcDb2dVertex
 10
10.07815314146918
 20
100.7105193840021
 30
0.0
  0
VERTEX
  5
6B
330
4A
100
AcDbEntity
  8
L1-PATTERN
100
AcDbVertex
100
AcDb2dVertex
 10
10.22627071548814
 20
100.6562160664158
 30
0.0
  0
VERTEX
  5
6C
330
4A
100
AcDbEntity
  8
L1-PATTERN
100
AcDbVertex
100
AcDb2dVertex
 10
10.3743882895071
 20
100.6019127488296
 30
0.0
  0
VERTEX
  5
6D
330
4A
100
AcDbEntity
  8
L1-PATTERN
100
AcDbVertex
100
AcDb2dVertex
 10
10.52250586352606
 20
100.5476094312433
 30
0.0
  0
VERTEX
  5
6E
330
4A
100
AcDbEntity
  8
L1-PATTERN
100
AcDbVertex
100
AcDb2dVertex
 10
10.67062343754502
 20
100.4933061136571
 30
0.0
  0
VERTEX
  5
6F
330
4A
100
AcDbEntity
  8
L1-PATTERN
100
AcDbVertex
100
AcDb2dVertex
 10
10.81874101156398
 20
100.4390243279176
 30
0.0
  0
VERTEX
  5
70
330
4A
100
AcDbEntity
  8
L1-PATTERN
100
AcDbVertex
100
AcDb2dVertex
 10
10.96685858558294
 20
100.3847210103313
 30
0.0
  0
VERTEX
  5
71
330
4A
100
AcDbEntity
  8
L1-PATTERN
100
AcDbVertex
100
AcDb2dVertex
 10
11.1149761596019
 20
100.3304176927451
 30
0.0
  0
VERTEX
  5
72
330
4A
100
AcDbEntity
  8
L1-PATTERN
100
AcDbVertex
100
AcDb2dVertex
 10
11.30686797813031
 20
100.4907007601963
 30
0.0
  0
VERTEX
  5
73
330
4A
100
AcDbEntity
  8
L1-PATTERN
100
AcDbVertex
100
AcDb2dVertex
 10
11.49875979665873
 20
100.6509622958008
 30
0.0
  0
VERTEX
  5
74
330
4A
100
AcDbEntity
  8
L1-PATTERN
100
AcDbVertex
100
AcDb2dVertex
 10
11.69065161518715
 20
100.8112453632521
 30
0.0
  0
VERTEX
  5
75
330
4A
100
AcDbEntity
  8
L1-PATTERN
100
AcDbVertex
100
AcDb2dVertex
 10
11.88254343371556
 20
100.9715284307033
 30
0.0
  0
VERTEX
  5
76
330
4A
100
AcDbEntity
  8
L1-PATTERN
100
AcDbVertex
100
AcDb2dVertex
 10
12.07443525224398
 20
101.1318114981545
 30
0.0
  0
VERTEX
  5
77
330
4A
100
AcDbEntity
  8
L1-PATTERN
100
AcDbVertex
100
AcDb2dVertex
 10
12.26632707077239
 20
101.2920945656058
 30
0.0
  0
VERTEX
  5
78
330
4A
100
AcDbEntity
  8
L1-PATTERN
100
AcDbVertex
100
AcDb2dVertex
 10
12.45821888930081
 20
101.4523776330571
 30
0.0
  0
VERTEX
  5
79
330
4A
100
AcDbEntity
  8
L1-PATTERN
100
AcDbVertex
100
AcDb2dVertex
 10
12.65011070782923
 20
101.6126391686615
 30
0.0
  0
VERTEX
  5
7A
330
4A
100
AcDbEntity
  8
L1-PATTERN
100
AcDbVertex
100
AcDb2dVertex
 10
12.60726233273143
 20
101.8588773684697
 30
0.0
  0
VERTEX
  5
7B
330
4A
100
AcDbEntity
  8
L1-PATTERN
100
AcDbVertex
100
AcDb2dVertex
 10
12.56441395763364
 20
102.1051371001248
 30
0.0
  0
VERTEX
  5
7C
330
4A
100
AcDbEntity
  8
L1-PATTERN
100
AcDbVertex
100
AcDb2dVertex
 10
12.52156558253584
 20
102.351375299933
 30
0.0
  0
VERTEX
  5
7D
330
4A
100
AcDbEntity
  8
L1-PATTERN
100
AcDbVertex
100
AcDb2dVertex
 10
12.47871720743805
 20
102.5976134997412
 30
0.0
  0
VERTEX
  5
7E
330
4A
100
AcDbEntity
  8
L1-PATTERN
100
AcDbVertex
100
AcDb2dVertex
 10
12.43586883234025
 20
102.8438516995495
 30
0.0
  0
VERTEX
  5
7F
330
4A
100
AcDbEntity
  8
L1-PATTERN
100
AcDbVertex
100
AcDb2dVertex
 10
12.39302045724246
 20
103.0900898993577
 30
0.0
  0
VERTEX
  5
80
330
4A
100
AcDbEntity
  8
L1-PATTERN
100
AcDbVertex
100
AcDb2dVertex
 10
12.35017208214466
 20
103.3363280991659
 30
0.0
  0
VERTEX
  5
81
330
4A
100
AcDbEntity
  8
L1-PATTERN
100
AcDbVertex
100
AcDb2dVertex
 10
12.30732370704687
 20
103.5825662989742
 30
0.0
  0
VERTEX
  5
82
330
4A
100
AcDbEntity
  8
L1-PATTERN
100
AcDbVertex
100
AcDb2dVertex
 10
12.07258351342066
 20
103.6686506224118
 30
0.0
  0
VERTEX
  5
83
330
4A
100
AcDbEntity
  8
L1-PATTERN
100
AcDbVertex
100
AcDb2dVertex
 10
11.83784331979445
 20
103.7547349458495
 30
0.0
  0
VERTEX
  5
84
330
4A
100
AcDbEntity
  8
L1-PATTERN
100
AcDbVertex
100
AcDb2dVertex
 10
11.60310312616824
 20
103.8408192692872
 30
0.0
  0
VERTEX
  5
85
330
4A
100
AcDbEntity
  8
L1-PATTERN
100
AcDbVertex
100
AcDb2dVertex
 10
11.36838446438881
 20
103.9269035927249
 30
0.0
  0
VERTEX
  5
86
330
4A
100
AcDbEntity
  8
L1-PATTERN
100
AcDbVertex
100
AcDb2dVertex
 10
11.1336442707626
 20
104.0129879161626
 30
0.0
  0
VERTEX
  5
87
330
4A
100
AcDbEntity
  8
L1-PATTERN
100
AcDbVertex
100
AcDb2dVertex
 10
10.89890407713639
 20
104.0990722396002
 30
0.0
  0
VERTEX
  5
88
330
4A
100
AcDbEntity
  8
L1-PATTERN
100
AcDbVertex
100
AcDb2dVertex
 10
10.66416388351018
 20
104.1851565630379
 30
0.0
  0
VERTEX
  5
89
330
4A
100
AcDbEntity
  8
L1-PATTERN
100
AcDbVertex
100
AcDb2dVertex
 10
10.42942368988396
 20
104.2712624183224
 30
0.0
  0
VERTEX
  5
8A
330
4A
100
AcDbEntity
  8
L1-PATTERN
100
AcDbVertex
100
AcDb2dVertex
 10
10.2561353869759
 20
104.1265038124015
 30
0.0
  0
VERTEX
  5
8B
330
4A
100
AcDbEntity
  8
L1-PATTERN
100
AcDbVertex
100
AcDb2dVertex
 10
10.08284708406783
 20
103.9817667383275
 30
0.0
  0
VERTEX
  5
8C
330
4A
100
AcDbEntity
  8
L1-PATTERN
100
AcDbVertex
100
AcDb2dVertex
 10
9.909558781159763
 20
103.8370296642534
 30
0.0
  0
VERTEX
  5
8D
330
4A
100
AcDbEntity
  8
L1-PATTERN
100
AcDbVertex
100
AcDb2dVertex
 10
9.736270478251697
 20
103.6922925901794
 30
0.0
  0
VERTEX
  5
8E
330
4A
100
AcDbEntity
  8
L1-PATTERN
100
AcDbVertex
100
AcDb2dVertex
 10
9.56298217534363
 20
103.5475555161053
 30
0.0
  0
VERTEX
  5
8F
330
4A
100
AcDbEntity
  8
L1-PATTERN
100
AcDbVertex
100
AcDb2dVertex
 10
9.389693872435563
 20
103.4028184420312
 30
0.0
  0
VERTEX
  5
90
330
4A
100
AcDbEntity
  8
L1-PATTERN
100
AcDbVertex
100
AcDb2dVertex
 10
9.216405569527497
 20
103.2580813679572
 30
0.0
  0
VERTEX
  5
91
330
4A
100
AcDbEntity
  8
L1-PATTERN
100
AcDbVertex
100
AcDb2dVertex
 10
9.04311726661943
 20
103.1133227620363
 30
0.0
  0
VERTEX
  5
92
330
4A
100
AcDbEntity
  8
L1-PATTERN
100
AcDbVertex
100
AcDb2dVertex
 10
9.025138174555781
 20
103.0893578165671
 30
0.0
  0
VERTEX
  5
93
330
4A
100
AcDbEntity
  8
L1-PATTERN
100
AcDbVertex
100
AcDb2dVertex
 10
9.007266741726049
 20
103.0654789984849
 30
0.0
  0
VERTEX
  5
94
330
4A
100
AcDbEntity
  8
L1-PATTERN
100
AcDbVertex
100
AcDb2dVertex
 10
8.98958909551736
 20
103.0417724351771
 30
0.0
  0
VERTEX
  5
95
330
4A
100
AcDbEntity
  8
L1-PATTERN
100
AcDbVertex
100
AcDb2dVertex
 10
8.972148299623283
 20
103.0182381266435
 30
0.0
  0
VERTEX
  5
96
330
4A
100
AcDbEntity
  8
L1-PATTERN
100
AcDbVertex
100
AcDb2dVertex
 10
8.954944354043816
 20
102.9949191365777
 30
0.0
  0
VERTEX
  5
97
330
4A
100
AcDbEntity
  8
L1-PATTERN
100
AcDbVertex
100
AcDb2dVertex
 10
8.938084918012875
 20
102.9718585286733
 30
0.0
  0
VERTEX
  5
98
330
4A
100
AcDbEntity
  8
L1-PATTERN
100
AcDbVertex
100
AcDb2dVertex
 10
8.92156999153046
 20
102.9490778347771
 30
0.0
  0
VERTEX
  5
99
330
4A
100
AcDbEntity
  8
L1-PATTERN
100
AcDbVertex
100
AcDb2dVertex
 10
8.905464170136916
 20
102.9265985867358
 30
0.0
  0
VERTEX
  5
9A
330
4A
100
AcDbEntity
  8
L1-PATTERN
100
AcDbVertex
100
AcDb2dVertex
 10
8.946912975193827
 20
102.6881118517694
 30
0.0
  0
VERTEX
  5
9B
330
4A
100
AcDbEntity
  8
L1-PATTERN
100
AcDbVertex
100
AcDb2dVertex
 10
8.98836178025074
 20
102.449625116803
 30
0.0
  0
SEQEND
  5
9D
330
4A
100
AcDbEntity
  8
L1-PATTERN
  0
HATCH
  5
9C
330
46
100
AcDbEntity
  8
L1-PATTERN
 62
     1
100
AcDbHatch
 10
0.0
 20
0.0
 30
0.0
210
0.0
220
0.0
230
1.0
  2
SOLID
 70
     1
 71
     0
 91
        1
 92
        1
 93
       80
 72
     1
 10
8.98836178025074
 20
102.449625116803
 11
9.029810585307652
 21
102.2111383818365
 72
     1
 10
9.029810585307652
 20
102.2111383818365
 11
9.071259390364563
 21
101.9726516468701
 72
     1
 10
9.071259390364563
 20
101.9726516468701
 11
9.112708195421476
 21
101.7341649119037
 72
     1
 10
9.112708195421476
 20
101.7341649119037
 11
9.154157000478389
 21
101.4956781769373
 72
     1
 10
9.154157000478389
 20
101.4956781769373
 11
9.195605805535301
 21
101.2571914419709
 72
     1
 10
9.195605805535301
 20
101.2571914419709
 11
9.237076142438996
 21
101.0187047070044
 72
     1
 10
9.237076142438996
 20
101.0187047070044
 11
9.237571374915
 21
101.0185324522302
 72
     1
 10
9.237571374915
 20
101.0185324522302
 11
9.238045075544221
 21
101.0183601974559
 72
     1
 10
9.238045075544221
 20
101.0183601974559
 11
9.238540308020227
 21
101.0181879426816
 72
     1
 10
9.238540308020227
 20
101.0181879426816
 11
9.23903554049623
 21
101.0180156879074
 72
     1
 10
9.23903554049623
 20
101.0180156879074
 11
9.239530772972236
 21
101.0178434331331
 72
     1
 10
9.239530772972236
 20
101.0178434331331
 11
9.240026005448241
 21
101.0176711783589
 72
     1
 10
9.240026005448241
 20
101.0176711783589
 11
9.240521237924245
 21
101.0174989235846
 72
     1
 10
9.240521237924245
 20
101.0174989235846
 11
9.24101647040025
 21
101.0173266688103
 72
     1
 10
9.24101647040025
 20
101.0173266688103
 11
9.243664887554536
 21
101.0164438630922
 72
     1
 10
9.243664887554536
 20
101.0164438630922
 11
9.246334836555604
 21
101.0155610573742
 72
     1
 10
9.246334836555604
 20
101.0155610573742
 11
9.249004785556673
 21
101.0146997835028
 72
     1
 10
9.249004785556673
 20
101.0146997835028
 11
9.251696266404524
 21
101.0138385096315
 72
     1
 10
9.251696266404524
 20
101.0138385096315
 11
9.254366215405593
 21
101.0129772357602
 72
     1
 10
9.254366215405593
 20
101.0129772357602
 11
9.257036164406662
 21
101.0121374937357
 72
     1
 10
9.257036164406662
 20
101.0121374937357
 11
9.25970611340773
 21
101.0112977517112
 72
     1
 10
9.25970611340773
 20
101.0112977517112
 11
9.262354530562016
 21
101.0104580096866
 72
     1
 10
9.262354530562016
 20
101.0104580096866
 11
9.342388405053725
 21
100.9850504304829
 72
     1
 10
9.342388405053725
 20
100.9850504304829
 11
9.424274018368758
 21
100.9584801315529
 72
     1
 10
9.424274018368758
 20
100.9584801315529
 11
9.507580733571457
 21
100.9305748581224
 72
     1
 10
9.507580733571457
 20
100.9305748581224
 11
9.591877913726163
 21
100.9011408235703
 72
     1
 10
9.591877913726163
 20
100.9011408235703
 11
9.676691858203657
 21
100.8700057731223
 72
     1
 10
9.676691858203657
 20
100.8700057731223
 11
9.761634993761849
 21
100.8370405156979
 72
     1
 10
9.761634993761849
 20
100.8370405156979
 11
9.846233619771516
 21
100.802029732829
 72
     1
 10
9.846233619771516
 20
100.802029732829
 11
9.930035567450217
 21
100.7648227015883
 72
     1
 10
9.930035567450217
 20
100.7648227015883
 11
10.07815314146918
 21
100.7105193840021
 72
     1
 10
10.07815314146918
 20
100.7105193840021
 11
10.22627071548814
 21
100.6562160664158
 72
     1
 10
10.22627071548814
 20
100.6562160664158
 11
10.3743882895071
 21
100.6019127488296
 72
     1
 10
10.3743882895071
 20
100.6019127488296
 11
10.52250586352606
 21
100.5476094312433
 72
     1
 10
10.52250586352606
 20
100.5476094312433
 11
10.67062343754502
 21
100.4933061136571
 72
     1
 10
10.67062343754502
 20
100.4933061136571
 11
10.81874101156398
 21
100.4390243279176
 72
     1
 10
10.81874101156398
 20
100.4390243279176
 11
10.96685858558294
 21
100.3847210103313
 72
     1
 10
10.96685858558294
 20
100.3847210103313
 11
11.1149761596019
 21
100.3304176927451
 72
     1
 10
11.1149761596019
 20
100.3304176927451
 11
11.30686797813031
 21
100.4907007601963
 72
     1
 10
11.30686797813031
 20
100.4907007601963
 11
11.49875979665873
 21
100.6509622958008
 72
     1
 10
11.49875979665873
 20
100.6509622958008
 11
11.69065161518715
 21
100.8112453632521
 72
     1
 10
11.69065161518715
 20
100.8112453632521
 11
11.88254343371556
 21
100.9715284307033
 72
     1
 10
11.88254343371556
 20
100.9715284307033
 11
12.07443525224398
 21
101.1318114981545
 72
     1
 10
12.07443525224398
 20
101.1318114981545
 11
12.26632707077239
 21
101.2920945656058
 72
     1
 10
12.26632707077239
 20
101.2920945656058
 11
12.45821888930081
 21
101.4523776330571
 72
     1
 10
12.45821888930081
 20
101.4523776330571
 11
12.65011070782923
 21
101.6126391686615
 72
     1
 10
12.65011070782923
 20
101.6126391686615
 11
12.60726233273143
 21
101.8588773684697
 72
     1
 10
12.60726233273143
 20
101.8588773684697
 11
12.56441395763364
 21
102.1051371001248
 72
     1
 10
12.56441395763364
 20
102.1051371001248
 11
12.52156558253584
 21
102.351375299933
 72
     1
 10
12.52156558253584
 20
102.351375299933
 11
12.47871720743805
 21
102.5976134997412
 72
     1
 10
12.47871720743805
 20
102.5976134997412
 11
12.43586883234025
 21
102.8438516995495
 72
     1
 10
12.43586883234025
 20
102.8438516995495
 11
12.39302045724246
 21
103.0900898993577
 72
     1
 10
12.39302045724246
 20
103.0900898993577
 11
12.35017208214466
 21
103.3363280991659
 72
     1
 10
12.35017208214466
 20
103.3363280991659
 11
12.30732370704687
 21
103.5825662989742
 72
     1
 10
12.30732370704687
 20
103.5825662989742
 11
12.07258351342066
 21
103.6686506224118
 72
     1
 10
12.07258351342066
 20
103.6686506224118
 11
11.83784331979445
 21
103.7547349458495
 72
     1
 10
11.83784331979445
 20
103.7547349458495
 11
11.60310312616824
 21
103.8408192692872
 72
     1
 10
11.60310312616824
 20
103.8408192692872
 11
11.36838446438881
 21
103.9269035927249
 72
     1
 10
11.36838446438881
 20
103.9269035927249
 11
11.1336442707626
 21
104.0129879161626
 72
     1
 10
11.1336442707626
 20
104.0129879161626
 11
10.89890407713639
 21
104.0990722396002
 72
     1
 10
10.89890407713639
 20
104.0990722396002
 11
10.66416388351018
 21
104.1851565630379
 72
     1
 10
10.66416388351018
 20
104.1851565630379
 11
10.42942368988396
 21
104.2712624183224
 72
     1
 10
10.42942368988396
 20
104.2712624183224
 11
10.2561353869759
 21
104.1265038124015
 72
     1
 10
10.2561353869759
 20
104.1265038124015
 11
10.08284708406783
 21
103.9817667383275
 72
     1
 10
10.08284708406783
 20
103.9817667383275
 11
9.909558781159763
 21
103.8370296642534
 72
     1
 10
9.909558781159763
 20
103.8370296642534
 11
9.736270478251697
 21
103.6922925901794
 72
     1
 10
9.736270478251697
 20
103.6922925901794
 11
9.56298217534363
 21
103.5475555161053
 72
     1
 10
9.56298217534363
 20
103.5475555161053
 11
9.389693872435563
 21
103.4028184420312
 72
     1
 10
9.389693872435563
 20
103.4028184420312
 11
9.216405569527497
 21
103.2580813679572
 72
     1
 10
9.216405569527497
 20
103.2580813679572
 11
9.04311726661943
 21
103.1133227620363
 72
     1
 10
9.04311726661943
 20
103.1133227620363
 11
9.025138174555781
 21
103.0893578165671
 72
     1
 10
9.025138174555781
 20
103.0893578165671
 11
9.007266741726049
 21
103.0654789984849
 72
     1
 10
9.007266741726049
 20
103.0654789984849
 11
8.98958909551736
 21
103.0417724351771
 72
     1
 10
8.98958909551736
 20
103.0417724351771
 11
8.972148299623283
 21
103.0182381266435
 72
     1
 10
8.972148299623283
 20
103.0182381266435
 11
8.954944354043816
 21
102.9949191365777
 72
     1
 10
8.954944354043816
 20
102.9949191365777
 11
8.938084918012875
 21
102.9718585286733
 72
     1
 10
8.938084918012875
 20
102.9718585286733
 11
8.92156999153046
 21
102.9490778347771
 72
     1
 10
8.92156999153046
 20
102.9490778347771
 11
8.905464170136916
 21
102.9265985867358
 72
     1
 10
8.905464170136916
 20
102.9265985867358
 11
8.946912975193827
 21
102.6881118517694
 72
     1
 10
8.946912975193827
 20
102.6881118517694
 11
8.98836178025074
 21
102.449625116803
 97
        0
 75
     2
 76
     1
 98
        0
  0
ENDBLK
  5
49
330
46
100
AcDbEntity
  8
0
100
AcDbBlockEnd
  0
ENDSEC
  0
SECTION
  2
ENTITIES
  0
INSERT
  5
47
330
1F
100
AcDbEntity
  8
L1-PATTERN
100
AcDbBlockReference
  2
BLOCK_2
 10
0.0
 20
0.0
 30
0.0
  0
ENDSEC
  0
SECTION
  2
OBJECTS
  0
DICTIONARY
  5
C
330
0
100
AcDbDictionary
  3
ACAD_GROUP
350
D
  3
ACAD_LAYOUT
350
1A
  3
ACAD_MATERIAL
350
3B
  3
ACAD_MLEADERSTYLE
350
C8
  3
ACAD_MLINESTYLE
350
17
  3
ACAD_PLOTSETTINGS
350
19
  3
ACAD_VISUALSTYLE
350
2A
  3
ACDBHEADERROUNDTRIPXREC
350
A6
  3
ACDBVARIABLEDICTIONARY
350
C6
  0
DICTIONARY
  5
D
102
{ACAD_REACTORS
330
C
102
}
330
C
100
AcDbDictionary
  0
DICTIONARY
  5
1A
102
{ACAD_REACTORS
330
C
102
}
330
C
100
AcDbDictionary
  0
DICTIONARY
  5
3B
102
{ACAD_REACTORS
330
C
102
}
330
C
100
AcDbDictionary
  3
BYBLOCK
350
3D
  3
BYLAYER
350
3C
  3
GLOBAL
350
3E
  0
DICTIONARY
  5
C8
102
{ACAD_REACTORS
330
C
102
}
330
C
100
AcDbDictionary
  0
DICTIONARY
  5
17
102
{ACAD_REACTORS
330
C
102
}
330
C
100
AcDbDictionary
  3
STANDARD
350
18
  0
DICTIONARY
  5
19
102
{ACAD_REACTORS
330
C
102
}
330
C
100
AcDbDictionary
  0
DICTIONARY
  5
2A
102
{ACAD_REACTORS
330
C
102
}
330
C
100
AcDbDictionary
  3
2DWIREFRAME
350
2F
  3
3DWIREFRAME
350
30
  3
3D_HIDDEN
350
31
  3
BASIC
350
32
  3
BRIGHTEN
350
36
  3
COLORCHANGE
350
3A
  3
CONCEPTUAL
350
34
  3
DIM
350
35
  3
FACEPATTERN
350
39
  3
FLAT
350
2B
  3
FLATWITHEDGES
350
2C
  3
GOURAUD
350
2D
  3
GOURAUDWITHEDGES
350
2E
  3
LINEPATTERN
350
38
  3
REALISTIC
350
33
  3
THICKEN
350
37
  0
DICTIONARY
  5
A6
102
{ACAD_REACTORS
330
C
102
}
330
C
100
AcDbDictionary
  3
CEPSNTYPE
350
AF
  3
DIMSTYLEDATA
350
C5
  3
FINGERPRINTGUID
350
B0
  3
HYPERLINKBASE
350
A9
  3
INSUNITS
350
AE
  3
LAYOUTDICT
350
AB
  3
LWETCUNION
350
AD
  3
PLOTSETDICT
350
AC
  3
PSVPSCALE
350
B2
  3
PUCSBASE
350
B5
  3
PUCSORGBACK
350
BB
  3
PUCSORGBOTTOM
350
B7
  3
PUCSORGFRONT
350
BA
  3
PUCSORGLEFT
350
B8
  3
PUCSORGRIGHT
350
B9
  3
PUCSORGTOP
350
B6
  3
PUCSORTHOREF
350
B3
  3
PUCSORTHOVIEW
350
B4
  3
STYLESHEET
350
AA
  3
TSTACKALIGN
350
A7
  3
TSTACKSIZE
350
A8
  3
UCSBASE
350
BE
  3
UCSORGBACK
350
C4
  3
UCSORGBOTTOM
350
C0
  3
UCSORGFRONT
350
C3
  3
UCSORGLEFT
350
C1
  3
UCSORGRIGHT
350
C2
  3
UCSORGTOP
350
BF
  3
UCSORTHOREF
350
BC
  3
UCSORTHOVIEW
350
BD
  3
VERSIONGUID
350
B1
  0
DICTIONARY
  5
C6
102
{ACAD_REACTORS
330
C
102
}
330
C
100
AcDbDictionary
  3
DIMASSOC
350
C9
  3
HIDETEXT
350
CA
  0
MATERIAL
  5
3D
102
{ACAD_REACTORS
330
3B
102
}
102
{ACAD_XDICTIONARY
360
CD
102
}
330
3B
100
AcDbMaterial
  1
ByBlock
  0
MATERIAL
  5
3C
102
{ACAD_REACTORS
330
3B
102
}
102
{ACAD_XDICTIONARY
360
CB
102
}
330
3B
100
AcDbMaterial
  1
ByLayer
  0
MATERIAL
  5
3E
102
{ACAD_REACTORS
330
3B
102
}
102
{ACAD_XDICTIONARY
360
CF
102
}
330
3B
100
AcDbMaterial
  1
Global
  0
MLINESTYLE
  5
18
102
{ACAD_REACTORS
330
17
102
}
330
17
100
AcDbMlineStyle
  2
Standard
 70
     0
  3

 62
   256
 51
90.0
 52
90.0
 71
     2
 49
0.5
 62
   256
  6
BYLAYER
 49
-0.5
 62
   256
  6
BYLAYER
  0
ACAD_PROXY_OBJECT
  5
2F
102
{ACAD_REACTORS
330
2A
102
}
330
2A
100
AcDbProxyObject
 90
      499
 91
      501
 93
      436
310
42CC9915DA5C99599C985B595049028333333333333E3BF0000000000000FB0107901411070040501600405405064090741402480A0340
1001
ACAD
1000
AcDbSavedByObjectVersion
1070
     0
  0
ACAD_PROXY_OBJECT
  5
30
102
{ACAD_REACTORS
330
2A
102
}
330
2A
100
AcDbProxyObject
 90
      499
 91
      501
 93
      436
310
42CCD915DA5C99599C985B595059028333333333333E3BF0000000000000FB0107901411070040501600405405064090741402480A0340
1001
ACAD
1000
AcDbSavedByObjectVersion
1070
     0
  0
ACAD_PROXY_OBJECT
  5
31
102
{ACAD_REACTORS
330
2A
102
}
330
2A
100
AcDbProxyObject
 90
      499
 91
      501
 93
      500
310
424CD108121A5919195B90640502408333333333333E3BF0000000000000FB01079024090700405020000000000001110200405405064090740C02480A0340
1001
ACAD
1000
AcDbSavedByObjectVersion
1070
     0
  0
ACAD_PROXY_OBJECT
  5
32
102
{ACAD_REACTORS
330
2A
102
}
330
2A
100
AcDbProxyObject
 90
      499
 91
      501
 93
      388
310
4150985CDA58D07406404333333333333E3BF0000000000000FB0107A41107004050150841D405064090741402480A0350
1001
ACAD
1000
AcDbSavedByObjectVersion
1070
     0
  0
ACAD_PROXY_OBJECT
  5
36
102
{ACAD_REACTORS
330
2A
102
}
330
2A
100
AcDbProxyObject
 90
      499
 91
      501
 93
      428
310
42109C9A59DA1D195B90C409028333333333333E3BF0000000000000FB010790141107004050150841D405064090741402480A029950
1001
ACAD
1000
AcDbSavedByObjectVersion
1070
     0
  0
ACAD_PROXY_OBJECT
  5
3A
102
{ACAD_REACTORS
330
2A
102
}
330
2A
100
AcDbProxyObject
 90
      499
 91
      501
 93
      452
310
42D0DBDB1BDC90DA185B99D95104090240C333333333333E3BF0000000000000FB0108901411070040501508421405064090741402480A0350
1001
ACAD
1000
AcDbSavedByObjectVersion
1070
     0
  0
ACAD_PROXY_OBJECT
  5
34
102
{ACAD_REACTORS
330
2A
102
}
330
2A
100
AcDbProxyObject
 90
      499
 91
      501
 93
      500
310
4290DBDB98D95C1D1D585B10940D028333333333333E3BF0000000000000FB0107902409070040501000000000000111010841D405064090740C02480A0340
1001
ACAD
1000
AcDbSavedByObjectVersion
1070
     0
  0
ACAD_PROXY_OBJECT
  5
35
102
{ACAD_REACTORS
330
2A
102
}
330
2A
100
AcDbProxyObject
 90
      499
 91
      501
 93
      412
310
40D11A5B50B409028333333333333E3BF0000000000000FB010790141107004050150841D405064090741402480A02677FFFFFD0
1001
ACAD
1000
AcDbSavedByObjectVersion
1070
     0
  0
ACAD_PROXY_OBJECT
  5
39
102
{ACAD_REACTORS
330
2A
102
}
330
2A
100
AcDbProxyObject
 90
      499
 91
      501
 93
      444
310
42D19858D95C185D1D195C9B90F409028333333333333E3BF0000000000000FB010790141107004050150841D405064090741402480A0350
1001
ACAD
1000
AcDbSavedByObjectVersion
1070
     0
  0
ACAD_PROXY_OBJECT
  5
2B
102
{ACAD_REACTORS
330
2A
102
}
330
2A
100
AcDbProxyObject
 90
      499
 91
      501
 93
      388
310
41119B185D240901404333333333333E3BF0000000000000F9010740A41107004050150841D405064090741402480A1B50
1001
ACAD
1000
AcDbSavedByObjectVersion
1070
     0
  0
ACAD_PROXY_OBJECT
  5
2C
102
{ACAD_REACTORS
330
2A
102
}
330
2A
100
AcDbProxyObject
 90
      499
 91
      501
 93
      476
310
43519B185D15DA5D1A115919D95CD0140901404333333333333E3BF0000000000000F9010740901411070040501600405405064090741402480A1B50
1001
ACAD
1000
AcDbSavedByObjectVersion
1070
     0
  0
ACAD_PROXY_OBJECT
  5
2D
102
{ACAD_REACTORS
330
2A
102
}
330
2A
100
AcDbProxyObject
 90
      499
 91
      501
 93
      412
310
41D1DBDD5C985D5910240902404333333333333E3BF0000000000000F9010740A411070040501641D405064090741402480A1B50
1001
ACAD
1000
AcDbSavedByObjectVersion
1070
     0
  0
ACAD_PROXY_OBJECT
  5
2E
102
{ACAD_REACTORS
330
2A
102
}
330
2A
100
AcDbProxyObject
 90
      499
 91
      501
 93
      500
310
4411DBDD5C985D5915DA5D1A115919D95CD0340902404333333333333E3BF0000000000000F9010740901411070040501600405405064090741402480A1B50
1001
ACAD
1000
AcDbSavedByObjectVersion
1070
     0
  0
ACAD_PROXY_OBJECT
  5
38
102
{ACAD_REACTORS
330
2A
102
}
330
2A
100
AcDbProxyObject
 90
      499
 91
      501
 93
      444
310
42D31A5B995C185D1D195C9B90E409028333333333333E3BF0000000000000FB010790141107004050750841D405064090741402483A0350
1001
ACAD
1000
AcDbSavedByObjectVersion
1070
     0
  0
ACAD_PROXY_OBJECT
  5
33
102
{ACAD_REACTORS
330
2A
102
}
330
2A
100
AcDbProxyObject
 90
      499
 91
      501
 93
      420
310
425499585B1A5CDD1A58D08409028333333333333E3BF0000000000000FB01079019070040501508421405064090741402480A1B40
1001
ACAD
1000
AcDbSavedByObjectVersion
1070
     0
  0
ACAD_PROXY_OBJECT
  5
37
102
{ACAD_REACTORS
330
2A
102
}
330
2A
100
AcDbProxyObject
 90
      499
 91
      501
 93
      412
310
41D51A1A58DAD95B90D409028333333333333E3BF0000000000000FB010790141107004050150C41D405064090741402480A0350
1001
ACAD
1000
AcDbSavedByObjectVersion
1070
     0
  0
XRECORD
  5
AF
102
{ACAD_REACTORS
330
A6
102
}
330
A6
100
AcDbXrecord
 90
        0
  0
XRECORD
  5
C5
102
{ACAD_REACTORS
330
A6
102
}
330
A6
100
AcDbXrecord
1000
DSTYLE
1002
{
1070
   340
340
11
1002
}
  0
XRECORD
  5
B0
102
{ACAD_REACTORS
330
A6
102
}
330
A6
100
AcDbXrecord
  1
{10E36A26-4602-A8EB-75F2-7A062885CA79}
  0
XRECORD
  5
A9
102
{ACAD_REACTORS
330
A6
102
}
330
A6
100
AcDbXrecord
  1

  0
XRECORD
  5
AE
102
{ACAD_REACTORS
330
A6
102
}
330
A6
100
AcDbXrecord
 90
        4
  0
XRECORD
  5
AB
102
{ACAD_REACTORS
330
A6
102
}
330
A6
100
AcDbXrecord
340
1A
  0
XRECORD
  5
AD
102
{ACAD_REACTORS
330
A6
102
}
330
A6
100
AcDbXrecord
 90
    10269
  0
XRECORD
  5
AC
102
{ACAD_REACTORS
330
A6
102
}
330
A6
100
AcDbXrecord
340
19
  0
XRECORD
  5
B2
102
{ACAD_REACTORS
330
A6
102
}
330
A6
100
AcDbXrecord
 40
0.0
  0
XRECORD
  5
B5
102
{ACAD_REACTORS
330
A6
102
}
330
A6
100
AcDbXrecord
340
0
  0
XRECORD
  5
BB
102
{ACAD_REACTORS
330
A6
102
}
330
A6
100
AcDbXrecord
 10
0.0
 20
0.0
 30
0.0
  0
XRECORD
  5
B7
102
{ACAD_REACTORS
330
A6
102
}
330
A6
100
AcDbXrecord
 10
0.0
 20
0.0
 30
0.0
  0
XRECORD
  5
BA
102
{ACAD_REACTORS
330
A6
102
}
330
A6
100
AcDbXrecord
 10
0.0
 20
0.0
 30
0.0
  0
XRECORD
  5
B8
102
{ACAD_REACTORS
330
A6
102
}
330
A6
100
AcDbXrecord
 10
0.0
 20
0.0
 30
0.0
  0
XRECORD
  5
B9
102
{ACAD_REACTORS
330
A6
102
}
330
A6
100
AcDbXrecord
 10
0.0
 20
0.0
 30
0.0
  0
XRECORD
  5
B6
102
{ACAD_REACTORS
330
A6
102
}
330
A6
100
AcDbXrecord
 10
0.0
 20
0.0
 30
0.0
  0
XRECORD
  5
B3
102
{ACAD_REACTORS
330
A6
102
}
330
A6
100
AcDbXrecord
340
0
  0
XRECORD
  5
B4
102
{ACAD_REACTORS
330
A6
102
}
330
A6
100
AcDbXrecord
 70
     0
  0
XRECORD
  5
AA
102
{ACAD_REACTORS
330
A6
102
}
330
A6
100
AcDbXrecord
  1

  0
XRECORD
  5
A7
102
{ACAD_REACTORS
330
A6
102
}
330
A6
100
AcDbXrecord
 90
        1
  0
XRECORD
  5
A8
102
{ACAD_REACTORS
330
A6
102
}
330
A6
100
AcDbXrecord
 90
       70
  0
XRECORD
  5
BE
102
{ACAD_REACTORS
330
A6
102
}
330
A6
100
AcDbXrecord
340
0
  0
XRECORD
  5
C4
102
{ACAD_REACTORS
330
A6
102
}
330
A6
100
AcDbXrecord
 10
0.0
 20
0.0
 30
0.0
  0
XRECORD
  5
C0
102
{ACAD_REACTORS
330
A6
102
}
330
A6
100
AcDbXrecord
 10
0.0
 20
0.0
 30
0.0
  0
XRECORD
  5
C3
102
{ACAD_REACTORS
330
A6
102
}
330
A6
100
AcDbXrecord
 10
0.0
 20
0.0
 30
0.0
  0
XRECORD
  5
C1
102
{ACAD_REACTORS
330
A6
102
}
330
A6
100
AcDbXrecord
 10
0.0
 20
0.0
 30
0.0
  0
XRECORD
  5
C2
102
{ACAD_REACTORS
330
A6
102
}
330
A6
100
AcDbXrecord
 10
0.0
 20
0.0
 30
0.0
  0
XRECORD
  5
BF
102
{ACAD_REACTORS
330
A6
102
}
330
A6
100
AcDbXrecord
 10
0.0
 20
0.0
 30
0.0
  0
XRECORD
  5
BC
102
{ACAD_REACTORS
330
A6
102
}
330
A6
100
AcDbXrecord
340
0
  0
XRECORD
  5
BD
102
{ACAD_REACTORS
330
A6
102
}
330
A6
100
AcDbXrecord
 70
     0
  0
XRECORD
  5
B1
102
{ACAD_REACTORS
330
A6
102
}
330
A6
100
AcDbXrecord
  1
{FAEB1C32-E019-11D5-929B-00C0DF256EC4}
  0
DICTIONARYVAR
  5
C9
102
{ACAD_REACTORS
330
C6
102
}
330
C6
100
DictionaryVariables
280
     0
  1
2
  0
DICTIONARYVAR
  5
CA
102
{ACAD_REACTORS
330
C6
102
}
330
C6
100
DictionaryVariables
280
     0
  1
1
  0
DICTIONARY
  5
CD
330
3D
100
AcDbDictionary
280
     1
  3
ACAD_XREC_ROUNDTRIP
360
CE
  0
DICTIONARY
  5
CB
330
3C
100
AcDbDictionary
280
     1
  3
ACAD_XREC_ROUNDTRIP
360
CC
  0
DICTIONARY
  5
CF
330
3E
100
AcDbDictionary
280
     1
  3
ACAD_XREC_ROUNDTRIP
360
D0
  0
XRECORD
  5
CE
102
{ACAD_REACTORS
330
CD
102
}
330
CD
100
AcDbXrecord
102
MATERIAL
148
0.0
149
0.0
149
0.0
 93
        0
 94
      127
282
     0
 72
     1
 77
     1
171
     1
175
     1
179
     1
273
     0
  0
XRECORD
  5
CC
102
{ACAD_REACTORS
330
CB
102
}
330
CB
100
AcDbXrecord
102
MATERIAL
148
0.0
149
0.0
149
0.0
 93
        0
 94
      127
282
     0
 72
     1
 77
     1
171
     1
175
     1
179
     1
273
     0
  0
XRECORD
  5
D0
102
{ACAD_REACTORS
330
CF
102
}
330
CF
100
AcDbXrecord
102
MATERIAL
148
0.0
149
0.0
149
0.0
 93
        0
 94
      127
282
     0
 72
     1
 77
     1
171
     1
175
     1
179
     1
273
     0
  0
ENDSEC
  0
EOF
