G04 EAGLE Gerber RS-274X export*
G75*
%MOMM*%
%FSLAX34Y34*%
%LPD*%
%INSolder paste top*%
%IPPOS*%
%AMOC8*
5,1,8,0,0,1.08239X$1,22.5*%
G01*
%ADD10C,0.001000*%
%ADD11C,0.175000*%
%ADD12C,0.325000*%
%ADD13C,1.000000*%
%ADD14R,0.500000X0.500000*%
%ADD15R,0.200000X0.200000*%
%ADD16C,0.500000*%
%ADD17C,0.750000*%
%ADD18C,1.500000*%
%ADD19C,1.600000*%


D10*
X420454Y640101D02*
X420149Y640371D01*
X419841Y640637D01*
X419531Y640899D01*
X419218Y641156D01*
X418902Y641410D01*
X418583Y641659D01*
X418262Y641904D01*
X417939Y642144D01*
X417613Y642380D01*
X417285Y642612D01*
X416954Y642840D01*
X416622Y643062D01*
X416287Y643281D01*
X415950Y643495D01*
X415610Y643704D01*
X415269Y643908D01*
X415202Y643951D01*
X415015Y644080D01*
X414728Y644294D01*
X414363Y644593D01*
X413940Y644977D01*
X413481Y645445D01*
X413007Y645997D01*
X412537Y646633D01*
X412094Y647353D01*
X411697Y648155D01*
X411369Y649040D01*
X411130Y650007D01*
X411000Y651056D01*
X411001Y652186D01*
X411154Y653398D01*
X411479Y654691D01*
X411839Y655922D01*
X412207Y657195D01*
X412582Y658504D01*
X412963Y659842D01*
X413347Y661202D01*
X413732Y662579D01*
X414118Y663966D01*
X414501Y665356D01*
X414880Y666742D01*
X415253Y668120D01*
X415619Y669481D01*
X415974Y670820D01*
X416319Y672130D01*
X416650Y673405D01*
X416965Y674639D01*
X417264Y675824D01*
X424276Y709087D01*
X428228Y739649D01*
X429481Y767585D01*
X428394Y792973D01*
X425327Y815889D01*
X420639Y836410D01*
X414691Y854613D01*
X407841Y870574D01*
X400450Y884370D01*
X392877Y896078D01*
X385483Y905774D01*
X378626Y913535D01*
X372667Y919438D01*
X367965Y923559D01*
X364880Y925976D01*
X363772Y926764D01*
X359084Y930697D01*
X355052Y934095D01*
X351611Y937015D01*
X348696Y939513D01*
X346242Y941646D01*
X344184Y943469D01*
X342457Y945039D01*
X340997Y946413D01*
X339739Y947645D01*
X338617Y948793D01*
X337567Y949913D01*
X336525Y951060D01*
X335424Y952292D01*
X334201Y953664D01*
X332790Y955232D01*
X331126Y957054D01*
X329361Y959217D01*
X328078Y961318D01*
X327226Y963346D01*
X326756Y965291D01*
X326615Y967141D01*
X326753Y968886D01*
X327120Y970516D01*
X327664Y972019D01*
X328335Y973385D01*
X329081Y974604D01*
X329852Y975665D01*
X330597Y976556D01*
X331264Y977268D01*
X331804Y977790D01*
X332166Y978111D01*
X332297Y978220D01*
X334816Y979993D01*
X337139Y981750D01*
X339271Y983476D01*
X341218Y985159D01*
X342982Y986784D01*
X344570Y988339D01*
X345985Y989810D01*
X347232Y991183D01*
X348315Y992445D01*
X349239Y993582D01*
X350009Y994582D01*
X350629Y995430D01*
X351103Y996113D01*
X351436Y996618D01*
X351632Y996930D01*
X351697Y997037D01*
X351969Y997427D01*
X352692Y998565D01*
X353722Y1000401D01*
X354917Y1002888D01*
X356134Y1005978D01*
X357230Y1009621D01*
X358062Y1013769D01*
X358487Y1018374D01*
X358364Y1023387D01*
X357548Y1028760D01*
X355898Y1034445D01*
X353271Y1040392D01*
X349523Y1046554D01*
X344512Y1052882D01*
X338096Y1059328D01*
X330131Y1065843D01*
X330240Y1066386D01*
X330453Y1067634D01*
X330702Y1069517D01*
X330919Y1071965D01*
X331036Y1074909D01*
X330984Y1078280D01*
X330695Y1082010D01*
X330100Y1086028D01*
X329133Y1090265D01*
X327723Y1094653D01*
X325804Y1099122D01*
X323306Y1103602D01*
X320162Y1108025D01*
X316304Y1112322D01*
X311662Y1116422D01*
X306170Y1120258D01*
X299242Y1124140D01*
X291551Y1127594D01*
X283110Y1130494D01*
X273933Y1132715D01*
X264031Y1134132D01*
X253417Y1134621D01*
X242105Y1134056D01*
X230106Y1132312D01*
X217434Y1129264D01*
X204101Y1124788D01*
X190120Y1118757D01*
X175503Y1111047D01*
X160264Y1101533D01*
X144414Y1090090D01*
X127968Y1076593D01*
X110936Y1060916D01*
X99472Y1049347D01*
X90763Y1039624D01*
X84533Y1031568D01*
X80502Y1024997D01*
X78394Y1019734D01*
X77932Y1015596D01*
X78836Y1012406D01*
X80830Y1009982D01*
X83637Y1008144D01*
X86977Y1006714D01*
X90575Y1005510D01*
X94151Y1004354D01*
X97429Y1003065D01*
X100131Y1001462D01*
X101979Y999368D01*
X102695Y996600D01*
X102449Y994277D01*
X101687Y991232D01*
X100478Y987415D01*
X98885Y982773D01*
X96977Y977255D01*
X94817Y970809D01*
X92473Y963384D01*
X90011Y954928D01*
X87496Y945390D01*
X84994Y934717D01*
X82571Y922859D01*
X80294Y909763D01*
X78228Y895377D01*
X76439Y879652D01*
X74993Y862534D01*
X73956Y843972D01*
X69948Y838718D01*
X66426Y833162D01*
X63358Y827392D01*
X60714Y821497D01*
X58462Y815565D01*
X56570Y809685D01*
X55008Y803945D01*
X53743Y798434D01*
X52745Y793239D01*
X51982Y788451D01*
X51422Y784156D01*
X51035Y780444D01*
X50788Y777402D01*
X50650Y775121D01*
X50591Y773687D01*
X50578Y773189D01*
X45858Y768816D01*
X41841Y762790D01*
X38471Y755376D01*
X35695Y746842D01*
X33457Y737456D01*
X31701Y727484D01*
X30374Y717194D01*
X29420Y706853D01*
X28784Y696728D01*
X28412Y687086D01*
X28247Y678195D01*
X28236Y670321D01*
X28323Y663731D01*
X28453Y658694D01*
X28571Y655476D01*
X28623Y654343D01*
X30608Y630813D01*
X32852Y608894D01*
X35355Y588555D01*
X38117Y569762D01*
X41137Y552484D01*
X44414Y536688D01*
X47950Y522341D01*
X51744Y509410D01*
X55795Y497865D01*
X60104Y487670D01*
X64669Y478796D01*
X69492Y471208D01*
X74571Y464874D01*
X79907Y459762D01*
X85499Y455840D01*
X91347Y453074D01*
X91470Y449289D01*
X91860Y438509D01*
X92554Y421596D01*
X93586Y399413D01*
X94992Y372824D01*
X96806Y342690D01*
X99064Y309875D01*
X101801Y275241D01*
X105051Y239651D01*
X108851Y203968D01*
X113235Y169055D01*
X118238Y135774D01*
X123896Y104988D01*
X130243Y77560D01*
X137315Y54352D01*
X145146Y36228D01*
X145387Y35733D01*
X146138Y34435D01*
X147443Y32613D01*
X149344Y30546D01*
X151885Y28516D01*
X155109Y26800D01*
X159059Y25679D01*
X163778Y25432D01*
X169308Y26339D01*
X175694Y28679D01*
X182978Y32732D01*
X191203Y38777D01*
X200412Y47095D01*
X210649Y57964D01*
X221957Y71665D01*
X234378Y88476D01*
X243290Y101778D01*
X251878Y115899D01*
X260109Y130811D01*
X267951Y146484D01*
X275370Y162889D01*
X282336Y179997D01*
X288815Y197778D01*
X294776Y216202D01*
X300186Y235242D01*
X305013Y254866D01*
X309225Y275046D01*
X312789Y295753D01*
X315674Y316957D01*
X317846Y338629D01*
X319275Y360740D01*
X319926Y383259D01*
X319981Y388757D01*
X320017Y394085D01*
X320032Y399253D01*
X320023Y404268D01*
X319988Y409140D01*
X319924Y413878D01*
X319829Y418489D01*
X319701Y422982D01*
X319537Y427367D01*
X319335Y431651D01*
X319093Y435843D01*
X318808Y439952D01*
X318479Y443986D01*
X318101Y447954D01*
X317674Y451865D01*
X317194Y455727D01*
X322364Y464064D01*
X327387Y472314D01*
X332265Y480475D01*
X337000Y488548D01*
X341594Y496534D01*
X346048Y504434D01*
X350364Y512246D01*
X354544Y519973D01*
X358589Y527613D01*
X362501Y535168D01*
X366283Y542638D01*
X369935Y550022D01*
X373459Y557323D01*
X376857Y564539D01*
X380130Y571671D01*
X383281Y578720D01*
X383305Y578764D01*
X383378Y578886D01*
X383505Y579076D01*
X383692Y579321D01*
X383943Y579611D01*
X384264Y579933D01*
X384658Y580276D01*
X385132Y580628D01*
X385689Y580978D01*
X386335Y581314D01*
X387074Y581624D01*
X387912Y581897D01*
X388853Y582122D01*
X389903Y582286D01*
X391065Y582377D01*
X392345Y582386D01*
X394069Y582350D01*
X395783Y582340D01*
X397487Y582363D01*
X399179Y582424D01*
X400858Y582531D01*
X402524Y582688D01*
X404174Y582903D01*
X405807Y583182D01*
X407422Y583531D01*
X409019Y583957D01*
X410594Y584465D01*
X412148Y585063D01*
X413679Y585756D01*
X415186Y586550D01*
X416667Y587453D01*
X418121Y588470D01*
X420756Y590649D01*
X423111Y593036D01*
X425185Y595609D01*
X426973Y598343D01*
X428473Y601215D01*
X429680Y604202D01*
X430591Y607280D01*
X431203Y610425D01*
X431513Y613614D01*
X431517Y616824D01*
X431211Y620031D01*
X430593Y623211D01*
X429658Y626342D01*
X428404Y629399D01*
X426826Y632359D01*
X424922Y635199D01*
X424667Y635537D01*
X424409Y635870D01*
X424148Y636199D01*
X423883Y636524D01*
X423614Y636845D01*
X423343Y637162D01*
X423068Y637475D01*
X422790Y637783D01*
X422509Y638088D01*
X422225Y638388D01*
X421937Y638684D01*
X421647Y638975D01*
X421353Y639263D01*
X421056Y639547D01*
X420757Y639826D01*
X420454Y640101D01*
X215561Y980361D02*
X213545Y982768D01*
X215561Y980361D02*
X217943Y978462D01*
X220605Y977087D01*
X223459Y976253D01*
X226420Y975977D01*
X229401Y976274D01*
X232316Y977162D01*
X235077Y978658D01*
X237483Y980673D01*
X239382Y983055D01*
X240757Y985716D01*
X241590Y988570D01*
X241866Y991531D01*
X241568Y994512D01*
X240680Y997426D01*
X239184Y1000186D01*
X237170Y1002592D01*
X234789Y1004490D01*
X232128Y1005865D01*
X229273Y1006700D01*
X226312Y1006977D01*
X223331Y1006680D01*
X220417Y1005792D01*
X217655Y1004297D01*
X215249Y1002282D01*
X213350Y999901D01*
X211976Y997239D01*
X211143Y994385D01*
X210866Y991423D01*
X211164Y988442D01*
X212051Y985528D01*
X213545Y982768D01*
D11*
X155655Y441045D02*
X155655Y439295D01*
X155655Y441045D02*
X178905Y441045D01*
X178905Y439295D01*
X155655Y439295D01*
X155655Y440957D02*
X178905Y440957D01*
X155655Y434695D02*
X155655Y432945D01*
X155655Y434695D02*
X178905Y434695D01*
X178905Y432945D01*
X155655Y432945D01*
X155655Y434607D02*
X178905Y434607D01*
X155655Y428345D02*
X155655Y426595D01*
X155655Y428345D02*
X178905Y428345D01*
X178905Y426595D01*
X155655Y426595D01*
X155655Y428257D02*
X178905Y428257D01*
X155655Y421995D02*
X155655Y420245D01*
X155655Y421995D02*
X178905Y421995D01*
X178905Y420245D01*
X155655Y420245D01*
X155655Y421907D02*
X178905Y421907D01*
X155655Y415645D02*
X155655Y413895D01*
X155655Y415645D02*
X178905Y415645D01*
X178905Y413895D01*
X155655Y413895D01*
X155655Y415557D02*
X178905Y415557D01*
X155655Y409295D02*
X155655Y407545D01*
X155655Y409295D02*
X178905Y409295D01*
X178905Y407545D01*
X155655Y407545D01*
X155655Y409207D02*
X178905Y409207D01*
X155655Y402945D02*
X155655Y401195D01*
X155655Y402945D02*
X178905Y402945D01*
X178905Y401195D01*
X155655Y401195D01*
X155655Y402857D02*
X178905Y402857D01*
X155655Y396595D02*
X155655Y394845D01*
X155655Y396595D02*
X178905Y396595D01*
X178905Y394845D01*
X155655Y394845D01*
X155655Y396507D02*
X178905Y396507D01*
X155655Y390245D02*
X155655Y388495D01*
X155655Y390245D02*
X178905Y390245D01*
X178905Y388495D01*
X155655Y388495D01*
X155655Y390157D02*
X178905Y390157D01*
X155655Y383895D02*
X155655Y382145D01*
X155655Y383895D02*
X178905Y383895D01*
X178905Y382145D01*
X155655Y382145D01*
X155655Y383807D02*
X178905Y383807D01*
X225655Y439295D02*
X225655Y441045D01*
X248905Y441045D01*
X248905Y439295D01*
X225655Y439295D01*
X225655Y440957D02*
X248905Y440957D01*
X225655Y434695D02*
X225655Y432945D01*
X225655Y434695D02*
X248905Y434695D01*
X248905Y432945D01*
X225655Y432945D01*
X225655Y434607D02*
X248905Y434607D01*
X225655Y428345D02*
X225655Y426595D01*
X225655Y428345D02*
X248905Y428345D01*
X248905Y426595D01*
X225655Y426595D01*
X225655Y428257D02*
X248905Y428257D01*
X225655Y421995D02*
X225655Y420245D01*
X225655Y421995D02*
X248905Y421995D01*
X248905Y420245D01*
X225655Y420245D01*
X225655Y421907D02*
X248905Y421907D01*
X225655Y415645D02*
X225655Y413895D01*
X225655Y415645D02*
X248905Y415645D01*
X248905Y413895D01*
X225655Y413895D01*
X225655Y415557D02*
X248905Y415557D01*
X225655Y409295D02*
X225655Y407545D01*
X225655Y409295D02*
X248905Y409295D01*
X248905Y407545D01*
X225655Y407545D01*
X225655Y409207D02*
X248905Y409207D01*
X225655Y402945D02*
X225655Y401195D01*
X225655Y402945D02*
X248905Y402945D01*
X248905Y401195D01*
X225655Y401195D01*
X225655Y402857D02*
X248905Y402857D01*
X225655Y396595D02*
X225655Y394845D01*
X225655Y396595D02*
X248905Y396595D01*
X248905Y394845D01*
X225655Y394845D01*
X225655Y396507D02*
X248905Y396507D01*
X225655Y390245D02*
X225655Y388495D01*
X225655Y390245D02*
X248905Y390245D01*
X248905Y388495D01*
X225655Y388495D01*
X225655Y390157D02*
X248905Y390157D01*
X225655Y383895D02*
X225655Y382145D01*
X225655Y383895D02*
X248905Y383895D01*
X248905Y382145D01*
X225655Y382145D01*
X225655Y383807D02*
X248905Y383807D01*
D12*
X289625Y813525D02*
X311375Y813525D01*
X289625Y813525D02*
X289625Y816775D01*
X311375Y816775D01*
X311375Y813525D01*
X311375Y816612D02*
X289625Y816612D01*
X289625Y800825D02*
X311375Y800825D01*
X289625Y800825D02*
X289625Y804075D01*
X311375Y804075D01*
X311375Y800825D01*
X311375Y803912D02*
X289625Y803912D01*
X289625Y788125D02*
X311375Y788125D01*
X289625Y788125D02*
X289625Y791375D01*
X311375Y791375D01*
X311375Y788125D01*
X311375Y791212D02*
X289625Y791212D01*
X289625Y775425D02*
X311375Y775425D01*
X289625Y775425D02*
X289625Y778675D01*
X311375Y778675D01*
X311375Y775425D01*
X311375Y778512D02*
X289625Y778512D01*
X339625Y775425D02*
X361375Y775425D01*
X339625Y775425D02*
X339625Y778675D01*
X361375Y778675D01*
X361375Y775425D01*
X361375Y778512D02*
X339625Y778512D01*
X339625Y788125D02*
X361375Y788125D01*
X339625Y788125D02*
X339625Y791375D01*
X361375Y791375D01*
X361375Y788125D01*
X361375Y791212D02*
X339625Y791212D01*
X339625Y800825D02*
X361375Y800825D01*
X339625Y800825D02*
X339625Y804075D01*
X361375Y804075D01*
X361375Y800825D01*
X361375Y803912D02*
X339625Y803912D01*
X339625Y813525D02*
X361375Y813525D01*
X339625Y813525D02*
X339625Y816775D01*
X361375Y816775D01*
X361375Y813525D01*
X361375Y816612D02*
X339625Y816612D01*
D13*
X264800Y874000D02*
X264800Y904000D01*
X264800Y874000D02*
X254800Y874000D01*
X254800Y904000D01*
X264800Y904000D01*
X264800Y883500D02*
X254800Y883500D01*
X254800Y893000D02*
X264800Y893000D01*
X264800Y902500D02*
X254800Y902500D01*
X140800Y904000D02*
X140800Y874000D01*
X130800Y874000D01*
X130800Y904000D01*
X140800Y904000D01*
X140800Y883500D02*
X130800Y883500D01*
X130800Y893000D02*
X140800Y893000D01*
X140800Y902500D02*
X130800Y902500D01*
D14*
X177800Y1003300D03*
X265000Y985000D03*
D15*
X320000Y990000D03*
X320000Y1020000D03*
X240000Y1030000D03*
D16*
X253440Y811580D02*
X263440Y811580D01*
X263440Y806580D01*
X253440Y806580D01*
X253440Y811580D01*
X253440Y811330D02*
X263440Y811330D01*
X243440Y811580D02*
X233440Y811580D01*
X243440Y811580D02*
X243440Y806580D01*
X233440Y806580D01*
X233440Y811580D01*
X233440Y811330D02*
X243440Y811330D01*
X305000Y882500D02*
X315000Y882500D01*
X305000Y882500D02*
X305000Y887500D01*
X315000Y887500D01*
X315000Y882500D01*
X315000Y887250D02*
X305000Y887250D01*
X325000Y882500D02*
X335000Y882500D01*
X325000Y882500D02*
X325000Y887500D01*
X335000Y887500D01*
X335000Y882500D01*
X335000Y887250D02*
X325000Y887250D01*
X345000Y742500D02*
X355000Y742500D01*
X345000Y742500D02*
X345000Y747500D01*
X355000Y747500D01*
X355000Y742500D01*
X355000Y747250D02*
X345000Y747250D01*
X365000Y742500D02*
X375000Y742500D01*
X365000Y742500D02*
X365000Y747500D01*
X375000Y747500D01*
X375000Y742500D01*
X375000Y747250D02*
X365000Y747250D01*
X290250Y847500D02*
X280250Y847500D01*
X280250Y852500D01*
X290250Y852500D01*
X290250Y847500D01*
X290250Y852250D02*
X280250Y852250D01*
X300250Y847500D02*
X310250Y847500D01*
X300250Y847500D02*
X300250Y852500D01*
X310250Y852500D01*
X310250Y847500D01*
X310250Y852250D02*
X300250Y852250D01*
D17*
X148404Y520194D02*
X149707Y512809D01*
X137398Y510638D01*
X136095Y518023D01*
X148404Y520194D01*
X148833Y517763D02*
X136141Y517763D01*
X145365Y537429D02*
X144062Y544814D01*
X145365Y537429D02*
X133056Y535258D01*
X131753Y542643D01*
X144062Y544814D01*
X144491Y542383D02*
X131799Y542383D01*
X141024Y562049D02*
X139721Y569434D01*
X141024Y562049D02*
X128715Y559878D01*
X127412Y567263D01*
X139721Y569434D01*
X140150Y567003D02*
X127458Y567003D01*
X82602Y559362D02*
X83905Y551977D01*
X71596Y549806D01*
X70293Y557191D01*
X82602Y559362D01*
X83031Y556931D02*
X70339Y556931D01*
X86944Y534742D02*
X88247Y527357D01*
X75938Y525186D01*
X74635Y532571D01*
X86944Y534742D01*
X87373Y532311D02*
X74681Y532311D01*
X91285Y510122D02*
X92588Y502737D01*
X80279Y500566D01*
X78976Y507951D01*
X91285Y510122D01*
X91714Y507691D02*
X79022Y507691D01*
D16*
X206410Y477130D02*
X216410Y477130D01*
X216410Y472130D01*
X206410Y472130D01*
X206410Y477130D01*
X206410Y476880D02*
X216410Y476880D01*
X196410Y477130D02*
X186410Y477130D01*
X196410Y477130D02*
X196410Y472130D01*
X186410Y472130D01*
X186410Y477130D01*
X186410Y476880D02*
X196410Y476880D01*
X325000Y852500D02*
X335000Y852500D01*
X325000Y852500D02*
X325000Y857500D01*
X335000Y857500D01*
X335000Y852500D01*
X335000Y857250D02*
X325000Y857250D01*
X345000Y852500D02*
X355000Y852500D01*
X345000Y852500D02*
X345000Y857500D01*
X355000Y857500D01*
X355000Y852500D01*
X355000Y857250D02*
X345000Y857250D01*
D18*
X302420Y681180D02*
X285420Y681180D01*
X302420Y681180D02*
X302420Y666180D01*
X285420Y666180D01*
X285420Y681180D01*
X285420Y680430D02*
X302420Y680430D01*
D19*
X87920Y685680D02*
X71920Y685680D01*
X87920Y685680D02*
X87920Y661680D01*
X71920Y661680D01*
X71920Y685680D01*
X71920Y676880D02*
X87920Y676880D01*
M02*
