G04 EAGLE Gerber RS-274X export*
G75*
%MOMM*%
%FSLAX34Y34*%
%LPD*%
%INTop Layer*%
%IPPOS*%
%AMOC8*
5,1,8,0,0,1.08239X$1,22.5*%
G01*
%ADD10C,0.001000*%
%ADD11C,0.654800*%
%ADD12C,0.175000*%
%ADD13C,0.325000*%
%ADD14C,1.000000*%
%ADD15R,0.500000X0.500000*%
%ADD16R,0.200000X0.200000*%
%ADD17C,0.500000*%
%ADD18C,1.200000*%
%ADD19C,3.116000*%
%ADD20C,0.750000*%
%ADD21C,1.000000*%
%ADD22C,1.500000*%
%ADD23C,1.600000*%
%ADD24C,0.100000*%
%ADD25C,0.152400*%
%ADD26C,0.609600*%

G36*
X342555Y995484D02*
X342555Y995484D01*
X343183Y995899D01*
X343879Y996535D01*
X343879Y996536D01*
X344645Y997422D01*
X345485Y998585D01*
X345739Y998944D01*
X345740Y998944D01*
X346415Y999990D01*
X347380Y1001678D01*
X347381Y1001678D01*
X348504Y1003960D01*
X349654Y1006792D01*
X350699Y1010126D01*
X351508Y1013916D01*
X351508Y1013917D01*
X351949Y1018117D01*
X351949Y1018118D01*
X351891Y1022683D01*
X351890Y1022683D01*
X351891Y1022683D01*
X351201Y1027567D01*
X349750Y1032723D01*
X349749Y1032723D01*
X347404Y1038104D01*
X347404Y1038105D01*
X344033Y1043666D01*
X339505Y1049361D01*
X333690Y1055144D01*
X333689Y1055144D01*
X326454Y1060968D01*
X326452Y1060968D01*
X326452Y1060969D01*
X325957Y1061084D01*
X324568Y1061340D01*
X322427Y1061601D01*
X322427Y1061600D01*
X322427Y1061601D01*
X319677Y1061729D01*
X316462Y1061591D01*
X316461Y1061591D01*
X312923Y1061050D01*
X312923Y1061049D01*
X309205Y1059969D01*
X309204Y1059968D01*
X305449Y1058212D01*
X305448Y1058212D01*
X301799Y1055645D01*
X301798Y1055645D01*
X298397Y1052131D01*
X298397Y1052130D01*
X295387Y1047533D01*
X292912Y1041717D01*
X292911Y1041717D01*
X291113Y1034547D01*
X291113Y1034546D01*
X290135Y1025886D01*
X290135Y1025885D01*
X290120Y1015598D01*
X291210Y1003548D01*
X291211Y1003548D01*
X291210Y1003548D01*
X291212Y1003547D01*
X291214Y1003544D01*
X291215Y1003545D01*
X291216Y1003545D01*
X291640Y1003704D01*
X292848Y1004134D01*
X294747Y1004761D01*
X297242Y1005513D01*
X300239Y1006316D01*
X303643Y1007097D01*
X307361Y1007783D01*
X311298Y1008300D01*
X315360Y1008577D01*
X319452Y1008540D01*
X323480Y1008115D01*
X327351Y1007230D01*
X330969Y1005812D01*
X334240Y1003788D01*
X337071Y1001084D01*
X339366Y997628D01*
X339383Y997563D01*
X339437Y997383D01*
X339529Y997118D01*
X339663Y996795D01*
X339664Y996794D01*
X339842Y996442D01*
X339842Y996441D01*
X340067Y996087D01*
X340067Y996086D01*
X340342Y995758D01*
X340342Y995757D01*
X340669Y995483D01*
X340670Y995482D01*
X341051Y995290D01*
X341052Y995290D01*
X341491Y995207D01*
X341492Y995207D01*
X341991Y995262D01*
X341992Y995263D01*
X341993Y995263D01*
X342554Y995484D01*
X342555Y995484D01*
G37*
G36*
X404286Y590885D02*
X404286Y590885D01*
X404287Y590885D01*
X408904Y592164D01*
X408905Y592164D01*
X413242Y594453D01*
X413242Y594454D01*
X416984Y597629D01*
X416984Y597630D01*
X416985Y597630D01*
X419892Y601442D01*
X419892Y601443D01*
X421942Y605750D01*
X421943Y605750D01*
X423115Y610410D01*
X423115Y610411D01*
X423388Y615282D01*
X423387Y615282D01*
X423388Y615282D01*
X422740Y620222D01*
X422739Y620223D01*
X421149Y625090D01*
X421148Y625091D01*
X418594Y629744D01*
X418593Y629744D01*
X418593Y629745D01*
X415207Y633755D01*
X415206Y633755D01*
X411236Y636823D01*
X411235Y636823D01*
X411235Y636824D01*
X406836Y638993D01*
X406835Y638994D01*
X402164Y640309D01*
X402163Y640308D01*
X402163Y640309D01*
X397374Y640813D01*
X397373Y640813D01*
X392622Y640551D01*
X392622Y640550D01*
X392621Y640551D01*
X388064Y639565D01*
X388063Y639565D01*
X383855Y637900D01*
X383854Y637900D01*
X379859Y635162D01*
X379859Y635161D01*
X379858Y635161D01*
X376833Y631555D01*
X376833Y631554D01*
X374767Y627276D01*
X374767Y627275D01*
X373652Y622518D01*
X373652Y622517D01*
X373477Y617478D01*
X373478Y617478D01*
X373477Y617478D01*
X374234Y612351D01*
X374235Y612351D01*
X374234Y612351D01*
X375912Y607332D01*
X375913Y607332D01*
X378502Y602617D01*
X378503Y602616D01*
X381872Y598515D01*
X385799Y595229D01*
X385799Y595228D01*
X390143Y592790D01*
X390144Y592790D01*
X390144Y592789D01*
X394766Y591231D01*
X394767Y591231D01*
X399527Y590585D01*
X404286Y590885D01*
G37*
G36*
X193766Y988079D02*
X193766Y988079D01*
X194754Y988161D01*
X195784Y988270D01*
X196844Y988379D01*
X198302Y988592D01*
X198303Y988592D01*
X199121Y988843D01*
X199833Y988723D01*
X200339Y988664D01*
X200340Y988664D01*
X200841Y988657D01*
X201333Y988699D01*
X201814Y988790D01*
X202280Y988925D01*
X202280Y988926D01*
X202280Y988925D01*
X202728Y989105D01*
X202729Y989105D01*
X203156Y989325D01*
X203156Y989326D01*
X203157Y989326D01*
X203561Y989585D01*
X203561Y989586D01*
X203939Y989883D01*
X204287Y990215D01*
X204288Y990215D01*
X204604Y990580D01*
X204885Y990976D01*
X205128Y991401D01*
X205330Y991852D01*
X205330Y991853D01*
X205487Y992328D01*
X205487Y992329D01*
X205598Y992826D01*
X205642Y993087D01*
X205686Y993348D01*
X205774Y993870D01*
X205817Y994131D01*
X205861Y994392D01*
X205905Y994653D01*
X205949Y994914D01*
X205993Y995175D01*
X206037Y995436D01*
X206081Y995697D01*
X206125Y995958D01*
X206169Y996219D01*
X206213Y996480D01*
X206301Y997002D01*
X206355Y997446D01*
X206370Y997886D01*
X206347Y998320D01*
X206346Y998320D01*
X206347Y998320D01*
X206285Y998745D01*
X206285Y998746D01*
X206189Y999161D01*
X206188Y999161D01*
X206058Y999564D01*
X206057Y999564D01*
X206057Y999565D01*
X205893Y999954D01*
X205698Y1000327D01*
X205697Y1000327D01*
X205698Y1000327D01*
X205472Y1000682D01*
X205472Y1000683D01*
X205218Y1001018D01*
X205217Y1001018D01*
X204936Y1001331D01*
X204936Y1001332D01*
X204628Y1001621D01*
X204297Y1001884D01*
X204296Y1001884D01*
X204296Y1001885D01*
X203941Y1002120D01*
X203565Y1002326D01*
X203177Y1002497D01*
X203237Y1002528D01*
X203333Y1002589D01*
X203369Y1002611D01*
X203460Y1002667D01*
X203545Y1002720D01*
X203623Y1002771D01*
X203695Y1002818D01*
X203760Y1002862D01*
X203787Y1002880D01*
X203839Y1002914D01*
X203908Y1002965D01*
X203916Y1002971D01*
X203954Y1002999D01*
X203986Y1003023D01*
X204011Y1003042D01*
X204028Y1003055D01*
X204029Y1003055D01*
X204039Y1003064D01*
X204042Y1003066D01*
X204939Y1003477D01*
X204940Y1003477D01*
X205672Y1003840D01*
X205673Y1003840D01*
X206251Y1004157D01*
X206251Y1004158D01*
X206252Y1004158D01*
X206689Y1004433D01*
X206996Y1004667D01*
X206996Y1004668D01*
X207185Y1004866D01*
X207185Y1004867D01*
X207267Y1005030D01*
X207266Y1005031D01*
X207267Y1005032D01*
X207253Y1005164D01*
X207252Y1005165D01*
X207252Y1005166D01*
X207155Y1005269D01*
X207154Y1005269D01*
X207153Y1005270D01*
X206984Y1005346D01*
X206984Y1005347D01*
X206754Y1005399D01*
X206476Y1005431D01*
X206162Y1005445D01*
X206161Y1005445D01*
X205822Y1005444D01*
X205469Y1005430D01*
X205115Y1005406D01*
X204254Y1005376D01*
X203435Y1005416D01*
X202679Y1005506D01*
X202010Y1005625D01*
X201449Y1005753D01*
X201021Y1005870D01*
X200747Y1005955D01*
X200683Y1005977D01*
X201402Y1005923D01*
X202156Y1005909D01*
X202912Y1005935D01*
X203666Y1005999D01*
X204417Y1006099D01*
X205163Y1006232D01*
X205902Y1006395D01*
X206632Y1006586D01*
X206633Y1006586D01*
X207352Y1006803D01*
X208059Y1007042D01*
X208751Y1007302D01*
X209427Y1007581D01*
X210085Y1007874D01*
X210722Y1008181D01*
X211337Y1008498D01*
X211928Y1008823D01*
X212683Y1009270D01*
X213349Y1009702D01*
X213925Y1010115D01*
X214411Y1010507D01*
X214806Y1010873D01*
X215110Y1011211D01*
X215322Y1011517D01*
X215441Y1011787D01*
X215441Y1011788D01*
X215442Y1011789D01*
X215468Y1012020D01*
X215467Y1012020D01*
X215468Y1012020D01*
X215467Y1012021D01*
X215467Y1012022D01*
X215399Y1012211D01*
X215398Y1012212D01*
X215398Y1012213D01*
X215236Y1012357D01*
X215235Y1012357D01*
X215234Y1012358D01*
X214977Y1012452D01*
X214976Y1012452D01*
X214976Y1012453D01*
X214623Y1012495D01*
X214622Y1012495D01*
X214173Y1012482D01*
X214172Y1012482D01*
X213626Y1012410D01*
X212982Y1012276D01*
X210301Y1011743D01*
X207369Y1011328D01*
X204374Y1011016D01*
X201503Y1010794D01*
X198944Y1010646D01*
X196883Y1010558D01*
X195510Y1010516D01*
X195010Y1010505D01*
X193827Y1010510D01*
X192820Y1010488D01*
X191974Y1010443D01*
X191271Y1010379D01*
X190696Y1010300D01*
X190233Y1010210D01*
X189865Y1010114D01*
X189865Y1010113D01*
X189865Y1010114D01*
X189576Y1010014D01*
X189575Y1010014D01*
X189349Y1009916D01*
X189169Y1009823D01*
X188883Y1009671D01*
X188588Y1009589D01*
X188157Y1009609D01*
X188237Y1009811D01*
X188316Y1010024D01*
X188394Y1010243D01*
X188470Y1010467D01*
X188544Y1010697D01*
X188617Y1010934D01*
X188689Y1011178D01*
X188760Y1011430D01*
X188830Y1011689D01*
X188900Y1011956D01*
X188969Y1012232D01*
X189038Y1012517D01*
X189108Y1012811D01*
X189177Y1013114D01*
X189246Y1013428D01*
X189316Y1013752D01*
X189479Y1014558D01*
X189597Y1015277D01*
X189674Y1015912D01*
X189674Y1015913D01*
X189713Y1016468D01*
X189718Y1016947D01*
X189718Y1016948D01*
X189690Y1017354D01*
X189633Y1017690D01*
X189550Y1017960D01*
X189550Y1017961D01*
X189444Y1018167D01*
X189443Y1018168D01*
X189318Y1018315D01*
X189317Y1018315D01*
X189317Y1018316D01*
X189174Y1018407D01*
X189173Y1018407D01*
X189016Y1018445D01*
X189015Y1018445D01*
X188847Y1018434D01*
X188847Y1018433D01*
X188846Y1018433D01*
X188671Y1018376D01*
X188671Y1018375D01*
X188670Y1018375D01*
X188490Y1018275D01*
X188489Y1018275D01*
X188307Y1018135D01*
X187460Y1017431D01*
X186776Y1016921D01*
X186238Y1016572D01*
X185832Y1016356D01*
X185542Y1016240D01*
X185355Y1016196D01*
X185254Y1016191D01*
X185235Y1016194D01*
X185525Y1016357D01*
X185841Y1016581D01*
X185842Y1016581D01*
X186170Y1016861D01*
X186506Y1017197D01*
X186846Y1017589D01*
X187186Y1018038D01*
X187187Y1018038D01*
X187523Y1018545D01*
X187851Y1019108D01*
X187851Y1019109D01*
X188167Y1019730D01*
X188467Y1020410D01*
X188747Y1021149D01*
X189003Y1021946D01*
X189231Y1022802D01*
X189230Y1022802D01*
X189231Y1022803D01*
X189426Y1023719D01*
X189586Y1024695D01*
X189706Y1025731D01*
X189790Y1026838D01*
X189820Y1027716D01*
X189804Y1028387D01*
X189803Y1028387D01*
X189804Y1028387D01*
X189746Y1028872D01*
X189746Y1028873D01*
X189655Y1029195D01*
X189654Y1029195D01*
X189654Y1029196D01*
X189535Y1029376D01*
X189534Y1029376D01*
X189534Y1029378D01*
X189394Y1029437D01*
X189392Y1029437D01*
X189392Y1029438D01*
X189239Y1029399D01*
X189238Y1029398D01*
X189237Y1029398D01*
X189077Y1029283D01*
X188916Y1029112D01*
X188762Y1028908D01*
X188620Y1028693D01*
X188620Y1028692D01*
X188499Y1028487D01*
X188404Y1028314D01*
X188404Y1028313D01*
X188342Y1028193D01*
X188320Y1028149D01*
X187649Y1027338D01*
X187093Y1026769D01*
X186645Y1026400D01*
X186295Y1026190D01*
X186037Y1026099D01*
X185863Y1026084D01*
X185765Y1026105D01*
X185739Y1026119D01*
X186527Y1027138D01*
X187206Y1028172D01*
X187780Y1029206D01*
X187781Y1029207D01*
X188260Y1030231D01*
X188259Y1030231D01*
X188260Y1030231D01*
X188652Y1031234D01*
X188965Y1032206D01*
X188965Y1032207D01*
X189209Y1033137D01*
X189208Y1033137D01*
X189209Y1033137D01*
X189390Y1034014D01*
X189519Y1034828D01*
X189603Y1035568D01*
X189651Y1036224D01*
X189671Y1036784D01*
X189672Y1037238D01*
X189662Y1037576D01*
X189649Y1037786D01*
X189643Y1037859D01*
X189521Y1038711D01*
X189393Y1039416D01*
X189260Y1039984D01*
X189124Y1040426D01*
X189123Y1040427D01*
X189124Y1040427D01*
X188985Y1040753D01*
X188984Y1040753D01*
X188844Y1040973D01*
X188843Y1040973D01*
X188843Y1040974D01*
X188702Y1041097D01*
X188701Y1041097D01*
X188701Y1041098D01*
X188561Y1041135D01*
X188560Y1041134D01*
X188559Y1041135D01*
X188421Y1041096D01*
X188420Y1041095D01*
X188419Y1041095D01*
X188285Y1040991D01*
X188284Y1040990D01*
X188153Y1040830D01*
X188153Y1040829D01*
X188028Y1040623D01*
X187909Y1040381D01*
X187798Y1040114D01*
X187695Y1039832D01*
X187603Y1039544D01*
X187348Y1038859D01*
X187034Y1038231D01*
X186691Y1037672D01*
X186346Y1037190D01*
X186028Y1036797D01*
X185767Y1036503D01*
X185589Y1036319D01*
X185543Y1036275D01*
X185838Y1036818D01*
X186103Y1037403D01*
X186327Y1038003D01*
X186327Y1038004D01*
X186512Y1038617D01*
X186659Y1039241D01*
X186770Y1039873D01*
X186848Y1040511D01*
X186894Y1041152D01*
X186911Y1041794D01*
X186900Y1042435D01*
X186862Y1043072D01*
X186801Y1043703D01*
X186718Y1044325D01*
X186615Y1044937D01*
X186494Y1045535D01*
X186357Y1046117D01*
X186148Y1046871D01*
X185926Y1047549D01*
X185692Y1048151D01*
X185451Y1048673D01*
X185451Y1048674D01*
X185206Y1049116D01*
X184960Y1049476D01*
X184959Y1049476D01*
X184959Y1049477D01*
X184715Y1049753D01*
X184714Y1049753D01*
X184476Y1049944D01*
X184475Y1049944D01*
X184475Y1049945D01*
X184246Y1050049D01*
X184245Y1050049D01*
X184244Y1050049D01*
X184027Y1050064D01*
X184026Y1050063D01*
X184025Y1050064D01*
X183823Y1049988D01*
X183823Y1049987D01*
X183822Y1049987D01*
X183639Y1049820D01*
X183639Y1049819D01*
X183638Y1049819D01*
X183477Y1049557D01*
X183341Y1049199D01*
X183234Y1048744D01*
X183233Y1048744D01*
X183158Y1048191D01*
X183151Y1048138D01*
X183150Y1048138D01*
X183142Y1048083D01*
X183134Y1048027D01*
X183126Y1047972D01*
X183117Y1047917D01*
X183109Y1047862D01*
X183101Y1047806D01*
X183093Y1047751D01*
X183084Y1047696D01*
X183076Y1047641D01*
X183068Y1047585D01*
X183059Y1047530D01*
X183051Y1047475D01*
X183043Y1047420D01*
X183035Y1047364D01*
X183026Y1047309D01*
X183018Y1047254D01*
X183010Y1047199D01*
X183001Y1047143D01*
X182993Y1047088D01*
X182985Y1047033D01*
X182977Y1046978D01*
X182968Y1046922D01*
X182960Y1046867D01*
X182952Y1046812D01*
X182943Y1046757D01*
X182935Y1046701D01*
X182927Y1046646D01*
X182919Y1046591D01*
X182910Y1046536D01*
X182902Y1046480D01*
X182894Y1046425D01*
X182886Y1046370D01*
X182885Y1046370D01*
X182877Y1046315D01*
X182869Y1046259D01*
X182861Y1046204D01*
X182852Y1046149D01*
X182844Y1046094D01*
X182836Y1046038D01*
X182828Y1045983D01*
X182819Y1045928D01*
X182814Y1045895D01*
X182266Y1043446D01*
X181589Y1040985D01*
X180862Y1038654D01*
X180162Y1036594D01*
X179566Y1034948D01*
X179152Y1033856D01*
X178997Y1033460D01*
X177527Y1030321D01*
X176260Y1027880D01*
X175185Y1026023D01*
X174289Y1024635D01*
X173560Y1023600D01*
X173254Y1023179D01*
X172985Y1022803D01*
X172752Y1022458D01*
X172752Y1022457D01*
X172553Y1022128D01*
X172387Y1021801D01*
X172251Y1021461D01*
X172252Y1021461D01*
X172251Y1021461D01*
X172202Y1021309D01*
X172157Y1021155D01*
X172117Y1020999D01*
X172080Y1020842D01*
X172048Y1020684D01*
X172019Y1020525D01*
X171995Y1020366D01*
X171973Y1020207D01*
X171973Y1020206D01*
X171955Y1020048D01*
X171940Y1019890D01*
X171940Y1019889D01*
X171928Y1019732D01*
X171919Y1019577D01*
X171912Y1019423D01*
X171908Y1019271D01*
X171906Y1019122D01*
X171906Y1018977D01*
X171882Y1018931D01*
X171858Y1018888D01*
X171836Y1018846D01*
X171815Y1018807D01*
X171796Y1018770D01*
X171778Y1018736D01*
X171762Y1018705D01*
X171747Y1018677D01*
X171734Y1018651D01*
X171722Y1018629D01*
X171705Y1018594D01*
X171698Y1018581D01*
X171694Y1018572D01*
X171692Y1018568D01*
X171550Y1018637D01*
X171549Y1018637D01*
X171412Y1018697D01*
X171281Y1018750D01*
X171153Y1018799D01*
X171026Y1018844D01*
X170896Y1018890D01*
X170616Y1018993D01*
X170290Y1019126D01*
X169894Y1019309D01*
X169405Y1019564D01*
X168799Y1019910D01*
X168493Y1020092D01*
X168128Y1020304D01*
X167708Y1020535D01*
X167242Y1020775D01*
X167241Y1020775D01*
X166733Y1021014D01*
X166188Y1021241D01*
X165613Y1021447D01*
X165014Y1021621D01*
X164397Y1021753D01*
X163767Y1021833D01*
X163131Y1021850D01*
X162495Y1021795D01*
X161864Y1021658D01*
X161864Y1021657D01*
X161245Y1021427D01*
X161244Y1021427D01*
X160643Y1021093D01*
X160642Y1021093D01*
X160064Y1020646D01*
X160034Y1020627D01*
X159943Y1020572D01*
X159797Y1020489D01*
X159596Y1020384D01*
X159346Y1020265D01*
X159048Y1020138D01*
X158706Y1020011D01*
X158322Y1019889D01*
X158131Y1019830D01*
X157960Y1019771D01*
X157811Y1019714D01*
X157685Y1019656D01*
X157582Y1019599D01*
X157505Y1019542D01*
X157505Y1019541D01*
X157504Y1019541D01*
X157452Y1019483D01*
X157452Y1019482D01*
X157427Y1019423D01*
X157427Y1019422D01*
X157426Y1019422D01*
X157429Y1019362D01*
X157430Y1019361D01*
X157430Y1019360D01*
X157461Y1019299D01*
X157462Y1019299D01*
X157462Y1019298D01*
X157524Y1019235D01*
X157616Y1019170D01*
X157616Y1019169D01*
X157740Y1019102D01*
X157741Y1019102D01*
X157897Y1019032D01*
X158087Y1018959D01*
X158312Y1018882D01*
X158578Y1018785D01*
X158851Y1018671D01*
X159116Y1018549D01*
X159362Y1018428D01*
X159575Y1018318D01*
X159743Y1018228D01*
X159853Y1018168D01*
X159882Y1018151D01*
X159892Y1018146D01*
X160526Y1017636D01*
X161157Y1017008D01*
X161778Y1016260D01*
X162383Y1015388D01*
X162964Y1014389D01*
X163513Y1013260D01*
X164024Y1011998D01*
X164490Y1010600D01*
X164498Y1010557D01*
X164509Y1010505D01*
X164539Y1010353D01*
X164696Y1009666D01*
X164970Y1008619D01*
X164971Y1008619D01*
X165372Y1007292D01*
X165912Y1005766D01*
X165912Y1005765D01*
X166600Y1004120D01*
X166600Y1004119D01*
X167083Y1003158D01*
X167044Y1002926D01*
X167005Y1002692D01*
X166965Y1002458D01*
X166926Y1002224D01*
X166887Y1001990D01*
X166847Y1001755D01*
X166808Y1001521D01*
X166768Y1001287D01*
X166729Y1001053D01*
X166690Y1000819D01*
X166650Y1000585D01*
X166611Y1000351D01*
X166571Y1000117D01*
X166532Y999883D01*
X166492Y999649D01*
X166453Y999415D01*
X166394Y998909D01*
X166394Y998908D01*
X166386Y998407D01*
X166387Y998407D01*
X166386Y998407D01*
X166429Y997915D01*
X166519Y997434D01*
X166655Y996968D01*
X166834Y996520D01*
X166835Y996520D01*
X166834Y996519D01*
X167055Y996092D01*
X167055Y996091D01*
X167315Y995687D01*
X167612Y995309D01*
X167944Y994960D01*
X167945Y994960D01*
X168310Y994644D01*
X168706Y994363D01*
X169131Y994120D01*
X169582Y993918D01*
X170058Y993761D01*
X170556Y993650D01*
X172386Y993342D01*
X174216Y993034D01*
X176046Y992726D01*
X177876Y992418D01*
X179705Y992111D01*
X181535Y991803D01*
X183365Y991495D01*
X185195Y991187D01*
X187024Y990879D01*
X188589Y990616D01*
X188704Y990425D01*
X188704Y990424D01*
X189214Y989738D01*
X189214Y989737D01*
X189884Y989001D01*
X189885Y989001D01*
X189885Y989000D01*
X190479Y988551D01*
X190480Y988551D01*
X190480Y988550D01*
X191177Y988260D01*
X191178Y988260D01*
X191966Y988102D01*
X191966Y988103D01*
X191966Y988102D01*
X192833Y988051D01*
X193766Y988079D01*
G37*
G36*
X88324Y784512D02*
X88324Y784512D01*
X88324Y784511D01*
X89551Y784644D01*
X92140Y784925D01*
X92140Y784926D01*
X95832Y786071D01*
X95833Y786071D01*
X99289Y787946D01*
X99290Y787946D01*
X102395Y790549D01*
X102396Y790549D01*
X104920Y793718D01*
X104920Y793719D01*
X106707Y797220D01*
X106708Y797221D01*
X107760Y800940D01*
X108078Y804764D01*
X108078Y804765D01*
X107665Y808579D01*
X107664Y808580D01*
X107665Y808580D01*
X106520Y812271D01*
X106520Y812272D01*
X104646Y815727D01*
X104646Y815728D01*
X102044Y818832D01*
X102044Y818833D01*
X98874Y821358D01*
X98873Y821358D01*
X95372Y823146D01*
X95371Y823146D01*
X95371Y823147D01*
X91652Y824199D01*
X91651Y824199D01*
X89551Y824374D01*
X87827Y824518D01*
X87826Y824518D01*
X84012Y824104D01*
X84011Y824104D01*
X80320Y822959D01*
X80319Y822959D01*
X76864Y821085D01*
X76863Y821084D01*
X73757Y818481D01*
X71233Y815312D01*
X71233Y815311D01*
X69445Y811810D01*
X69445Y811809D01*
X68393Y808090D01*
X68393Y808089D01*
X68074Y804265D01*
X68074Y804264D01*
X68487Y800449D01*
X68488Y800449D01*
X68487Y800448D01*
X69631Y796756D01*
X69632Y796755D01*
X69631Y796755D01*
X71504Y793298D01*
X71505Y793298D01*
X71504Y793298D01*
X74105Y790191D01*
X77275Y787668D01*
X77276Y787668D01*
X77276Y787667D01*
X80778Y785881D01*
X80779Y785881D01*
X84498Y784829D01*
X84499Y784829D01*
X88324Y784511D01*
X88324Y784512D01*
G37*
%LPC*%
G36*
X86609Y787074D02*
X86609Y787074D01*
X84942Y787293D01*
X83298Y787672D01*
X81690Y788212D01*
X80130Y788913D01*
X78629Y789775D01*
X77200Y790799D01*
X75854Y791985D01*
X74635Y793300D01*
X73576Y794703D01*
X72676Y796182D01*
X71936Y797725D01*
X71356Y799320D01*
X70935Y800955D01*
X70673Y802617D01*
X70571Y804295D01*
X70632Y805976D01*
X70853Y807645D01*
X71233Y809289D01*
X71774Y810899D01*
X72475Y812460D01*
X73338Y813961D01*
X74362Y815390D01*
X75548Y816735D01*
X76862Y817953D01*
X78265Y819012D01*
X79743Y819911D01*
X81287Y820651D01*
X82882Y821232D01*
X84517Y821652D01*
X86179Y821914D01*
X87858Y822015D01*
X89536Y821954D01*
X89550Y821952D01*
X91204Y821734D01*
X92848Y821354D01*
X94457Y820814D01*
X96018Y820113D01*
X97520Y819251D01*
X98949Y818227D01*
X100295Y817042D01*
X101514Y815727D01*
X102574Y814323D01*
X103472Y812844D01*
X104212Y811300D01*
X104791Y809706D01*
X105211Y808072D01*
X105471Y806412D01*
X105571Y804736D01*
X105512Y803055D01*
X105293Y801387D01*
X104913Y799742D01*
X104373Y798132D01*
X103673Y796570D01*
X102811Y795068D01*
X101788Y793638D01*
X100605Y792291D01*
X99288Y791074D01*
X97884Y790017D01*
X96404Y789119D01*
X94859Y788380D01*
X93264Y787800D01*
X91628Y787379D01*
X89966Y787117D01*
X89550Y787092D01*
X88288Y787015D01*
X86609Y787074D01*
G37*
%LPD*%
G36*
X275476Y970682D02*
X275476Y970682D01*
X275587Y970685D01*
X275699Y970692D01*
X275812Y970701D01*
X275925Y970713D01*
X276029Y970716D01*
X276151Y970721D01*
X276152Y970721D01*
X276292Y970728D01*
X276451Y970739D01*
X276626Y970755D01*
X276819Y970776D01*
X277027Y970804D01*
X277027Y970805D01*
X277028Y970805D01*
X277252Y970841D01*
X277492Y970885D01*
X277493Y970885D01*
X277748Y970940D01*
X278018Y971005D01*
X278302Y971082D01*
X278600Y971172D01*
X278600Y971173D01*
X278600Y971172D01*
X278911Y971276D01*
X279235Y971395D01*
X279571Y971529D01*
X279600Y971535D01*
X279629Y971541D01*
X279658Y971547D01*
X279686Y971553D01*
X279713Y971560D01*
X279740Y971566D01*
X279767Y971573D01*
X279794Y971580D01*
X279820Y971587D01*
X279846Y971595D01*
X279872Y971603D01*
X279897Y971611D01*
X279923Y971619D01*
X279948Y971628D01*
X279974Y971637D01*
X279999Y971646D01*
X280414Y971806D01*
X280415Y971806D01*
X280800Y971971D01*
X280800Y971972D01*
X280800Y971971D01*
X281155Y972142D01*
X281480Y972319D01*
X281774Y972500D01*
X282038Y972688D01*
X282271Y972880D01*
X282473Y973078D01*
X282474Y973078D01*
X282646Y973281D01*
X282787Y973490D01*
X282788Y973490D01*
X282898Y973703D01*
X282898Y973704D01*
X282979Y973922D01*
X282978Y973922D01*
X282979Y973922D01*
X282979Y973923D01*
X283028Y974146D01*
X283028Y974147D01*
X283047Y974375D01*
X283047Y974376D01*
X283035Y974609D01*
X283034Y974610D01*
X283035Y974610D01*
X282992Y974848D01*
X282992Y974849D01*
X282987Y974871D01*
X282981Y974895D01*
X282975Y974918D01*
X282968Y974942D01*
X282961Y974966D01*
X282954Y974990D01*
X282946Y975014D01*
X282938Y975039D01*
X282929Y975063D01*
X282920Y975088D01*
X282910Y975112D01*
X282901Y975136D01*
X282901Y975137D01*
X282890Y975161D01*
X282880Y975185D01*
X282869Y975208D01*
X282857Y975232D01*
X282846Y975256D01*
X282832Y975281D01*
X282818Y975305D01*
X282817Y975305D01*
X282802Y975329D01*
X282801Y975329D01*
X282784Y975354D01*
X282766Y975378D01*
X282748Y975402D01*
X282728Y975426D01*
X282709Y975451D01*
X282708Y975451D01*
X282689Y975475D01*
X282669Y975499D01*
X282650Y975523D01*
X282631Y975547D01*
X282612Y975571D01*
X282612Y975572D01*
X282595Y975596D01*
X282581Y975616D01*
X282855Y975744D01*
X283125Y975891D01*
X283385Y976054D01*
X283635Y976232D01*
X283874Y976425D01*
X284101Y976632D01*
X284315Y976852D01*
X284315Y976853D01*
X284516Y977086D01*
X284516Y977087D01*
X284703Y977333D01*
X284874Y977592D01*
X285030Y977862D01*
X285030Y977863D01*
X285169Y978144D01*
X285291Y978436D01*
X285395Y978738D01*
X285480Y979050D01*
X285545Y979370D01*
X285589Y979631D01*
X285633Y979892D01*
X285677Y980153D01*
X285720Y980414D01*
X285808Y980936D01*
X285852Y981197D01*
X285940Y981719D01*
X285984Y981980D01*
X286028Y982241D01*
X286072Y982502D01*
X286116Y982763D01*
X286160Y983024D01*
X286204Y983285D01*
X286248Y983546D01*
X286247Y983546D01*
X286248Y983546D01*
X286307Y984052D01*
X286307Y984053D01*
X286314Y984554D01*
X286272Y985046D01*
X286271Y985046D01*
X286272Y985046D01*
X286181Y985527D01*
X286046Y985993D01*
X286045Y985993D01*
X285866Y986441D01*
X285866Y986442D01*
X285646Y986869D01*
X285645Y986869D01*
X285645Y986870D01*
X285386Y987274D01*
X285385Y987274D01*
X285088Y987652D01*
X284756Y988000D01*
X284756Y988001D01*
X284391Y988317D01*
X283995Y988598D01*
X283570Y988841D01*
X283119Y989043D01*
X283119Y989042D01*
X283118Y989043D01*
X282643Y989200D01*
X282642Y989200D01*
X282145Y989311D01*
X282144Y989311D01*
X281649Y989394D01*
X281154Y989477D01*
X280659Y989561D01*
X280164Y989644D01*
X279669Y989727D01*
X278679Y989894D01*
X278184Y989977D01*
X277194Y990144D01*
X276699Y990227D01*
X276204Y990311D01*
X275709Y990394D01*
X275214Y990477D01*
X274719Y990561D01*
X274226Y990644D01*
X273576Y992131D01*
X272868Y993435D01*
X272116Y994565D01*
X271335Y995534D01*
X270538Y996354D01*
X270537Y996355D01*
X269738Y997039D01*
X268950Y997599D01*
X268187Y998047D01*
X268186Y998047D01*
X267462Y998396D01*
X266790Y998659D01*
X266789Y998659D01*
X266183Y998847D01*
X265656Y998973D01*
X265223Y999050D01*
X264896Y999089D01*
X264690Y999103D01*
X264620Y999105D01*
X264549Y999190D01*
X264475Y999278D01*
X264401Y999367D01*
X264327Y999458D01*
X264251Y999550D01*
X264176Y999644D01*
X264100Y999739D01*
X264023Y999836D01*
X263947Y999934D01*
X263870Y1000034D01*
X263793Y1000134D01*
X263716Y1000236D01*
X263639Y1000339D01*
X263562Y1000442D01*
X263562Y1000443D01*
X263486Y1000548D01*
X263409Y1000654D01*
X263289Y1000827D01*
X263149Y1001024D01*
X262991Y1001240D01*
X262815Y1001472D01*
X262620Y1001715D01*
X262408Y1001966D01*
X262178Y1002222D01*
X261930Y1002478D01*
X261666Y1002730D01*
X261384Y1002976D01*
X261086Y1003211D01*
X260771Y1003431D01*
X260440Y1003633D01*
X260093Y1003812D01*
X259731Y1003966D01*
X259730Y1003966D01*
X259352Y1004090D01*
X259204Y1004128D01*
X259056Y1004162D01*
X258908Y1004189D01*
X258759Y1004211D01*
X258611Y1004228D01*
X258463Y1004239D01*
X258315Y1004245D01*
X258167Y1004245D01*
X258166Y1004245D01*
X258019Y1004239D01*
X258018Y1004239D01*
X257871Y1004228D01*
X257723Y1004211D01*
X257575Y1004189D01*
X257428Y1004162D01*
X257281Y1004128D01*
X257280Y1004128D01*
X257133Y1004090D01*
X257133Y1004089D01*
X256987Y1004045D01*
X256986Y1004045D01*
X256977Y1004040D01*
X256958Y1004026D01*
X256957Y1004026D01*
X256928Y1004004D01*
X256890Y1003976D01*
X256842Y1003944D01*
X256786Y1003907D01*
X256721Y1003869D01*
X256649Y1003831D01*
X256569Y1003793D01*
X256483Y1003758D01*
X256390Y1003727D01*
X256291Y1003701D01*
X256186Y1003683D01*
X256077Y1003673D01*
X255963Y1003673D01*
X255844Y1003684D01*
X255760Y1003694D01*
X255671Y1003704D01*
X255577Y1003713D01*
X255576Y1003713D01*
X255479Y1003720D01*
X255379Y1003724D01*
X255278Y1003723D01*
X255277Y1003723D01*
X255176Y1003717D01*
X255075Y1003705D01*
X254977Y1003685D01*
X254976Y1003685D01*
X254881Y1003658D01*
X254881Y1003657D01*
X254880Y1003657D01*
X254789Y1003621D01*
X254789Y1003620D01*
X254703Y1003573D01*
X254702Y1003573D01*
X254623Y1003515D01*
X254623Y1003514D01*
X254622Y1003514D01*
X254550Y1003444D01*
X254550Y1003443D01*
X254549Y1003443D01*
X254486Y1003360D01*
X254486Y1003359D01*
X254485Y1003359D01*
X254431Y1003261D01*
X254392Y1003159D01*
X254392Y1003158D01*
X254371Y1003067D01*
X254371Y1003066D01*
X254366Y1002983D01*
X254375Y1002908D01*
X254376Y1002908D01*
X254375Y1002908D01*
X254397Y1002840D01*
X254398Y1002840D01*
X254431Y1002779D01*
X254431Y1002778D01*
X254474Y1002723D01*
X254525Y1002672D01*
X254583Y1002624D01*
X254646Y1002579D01*
X254712Y1002536D01*
X254779Y1002494D01*
X254847Y1002451D01*
X254913Y1002407D01*
X254976Y1002361D01*
X255035Y1002312D01*
X255100Y1002252D01*
X255166Y1002187D01*
X255232Y1002118D01*
X255298Y1002047D01*
X255362Y1001975D01*
X255425Y1001903D01*
X255485Y1001831D01*
X255542Y1001763D01*
X255594Y1001697D01*
X255643Y1001636D01*
X255685Y1001582D01*
X255722Y1001534D01*
X255752Y1001495D01*
X255775Y1001465D01*
X255790Y1001445D01*
X255795Y1001438D01*
X255938Y1001175D01*
X256068Y1000892D01*
X256185Y1000592D01*
X256290Y1000274D01*
X256382Y999939D01*
X256461Y999588D01*
X256527Y999221D01*
X256581Y998840D01*
X256621Y998444D01*
X256647Y998034D01*
X256661Y997612D01*
X256661Y997177D01*
X256647Y996731D01*
X256619Y996274D01*
X256577Y995806D01*
X256522Y995329D01*
X256517Y995281D01*
X256512Y995232D01*
X256506Y995183D01*
X256499Y995132D01*
X256493Y995080D01*
X256485Y995027D01*
X256478Y994973D01*
X256470Y994918D01*
X256464Y994880D01*
X256463Y994872D01*
X256461Y994862D01*
X256453Y994805D01*
X256444Y994748D01*
X256434Y994689D01*
X256425Y994630D01*
X256415Y994570D01*
X256405Y994509D01*
X256394Y994447D01*
X256387Y994402D01*
X256380Y994356D01*
X256373Y994309D01*
X256365Y994262D01*
X256358Y994215D01*
X256351Y994166D01*
X256343Y994118D01*
X256336Y994069D01*
X256328Y994019D01*
X256320Y993969D01*
X256317Y993945D01*
X256316Y993937D01*
X256313Y993919D01*
X256305Y993868D01*
X256298Y993816D01*
X256290Y993765D01*
X256283Y993713D01*
X256276Y993664D01*
X256067Y993700D01*
X255854Y993735D01*
X255641Y993771D01*
X255427Y993807D01*
X255214Y993843D01*
X255001Y993879D01*
X254788Y993915D01*
X254574Y993950D01*
X254361Y993986D01*
X254148Y994022D01*
X253934Y994058D01*
X253721Y994094D01*
X253508Y994130D01*
X253295Y994166D01*
X253081Y994202D01*
X252868Y994237D01*
X252361Y994297D01*
X251860Y994304D01*
X251368Y994262D01*
X251368Y994261D01*
X251367Y994262D01*
X250887Y994171D01*
X250421Y994035D01*
X249972Y993856D01*
X249544Y993635D01*
X249140Y993375D01*
X248762Y993078D01*
X248413Y992746D01*
X248097Y992381D01*
X248097Y992380D01*
X247816Y991985D01*
X247815Y991984D01*
X247573Y991560D01*
X247371Y991109D01*
X247371Y991108D01*
X247213Y990633D01*
X247214Y990632D01*
X247213Y990632D01*
X247103Y990135D01*
X247103Y990134D01*
X247059Y989873D01*
X247015Y989612D01*
X246971Y989351D01*
X246927Y989090D01*
X246883Y988829D01*
X246840Y988569D01*
X246796Y988308D01*
X246752Y988047D01*
X246708Y987786D01*
X246664Y987525D01*
X246620Y987264D01*
X246576Y987003D01*
X246532Y986742D01*
X246488Y986481D01*
X246444Y986220D01*
X246400Y985959D01*
X246341Y985452D01*
X246333Y984951D01*
X246334Y984951D01*
X246333Y984951D01*
X246376Y984459D01*
X246376Y984458D01*
X246466Y983978D01*
X246466Y983977D01*
X246602Y983512D01*
X246602Y983511D01*
X246781Y983063D01*
X246782Y983063D01*
X247002Y982635D01*
X247262Y982231D01*
X247262Y982230D01*
X247559Y981852D01*
X247891Y981504D01*
X247892Y981504D01*
X247892Y981503D01*
X248257Y981187D01*
X248653Y980906D01*
X249077Y980663D01*
X249078Y980663D01*
X249529Y980462D01*
X250005Y980304D01*
X250503Y980194D01*
X251446Y980035D01*
X252389Y979876D01*
X253331Y979718D01*
X254274Y979559D01*
X255217Y979401D01*
X256159Y979242D01*
X257102Y979084D01*
X258045Y978925D01*
X258987Y978766D01*
X259930Y978608D01*
X260873Y978449D01*
X261815Y978291D01*
X262758Y978132D01*
X263701Y977973D01*
X264643Y977815D01*
X265586Y977656D01*
X265756Y977595D01*
X265929Y977533D01*
X266105Y977471D01*
X266282Y977409D01*
X266461Y977347D01*
X266640Y977286D01*
X266820Y977225D01*
X267001Y977164D01*
X267180Y977105D01*
X267181Y977105D01*
X267360Y977047D01*
X267538Y976991D01*
X267714Y976935D01*
X267888Y976882D01*
X268059Y976831D01*
X268228Y976782D01*
X268393Y976735D01*
X268907Y976564D01*
X269366Y976362D01*
X269773Y976133D01*
X270130Y975884D01*
X270442Y975619D01*
X270710Y975346D01*
X270938Y975069D01*
X271130Y974795D01*
X271288Y974529D01*
X271416Y974277D01*
X271516Y974045D01*
X271591Y973838D01*
X271645Y973663D01*
X271681Y973525D01*
X271702Y973429D01*
X271711Y973383D01*
X271712Y973382D01*
X271711Y973382D01*
X271781Y973145D01*
X271863Y972917D01*
X271958Y972699D01*
X271959Y972699D01*
X271959Y972698D01*
X272066Y972490D01*
X272186Y972291D01*
X272317Y972103D01*
X272460Y971925D01*
X272614Y971758D01*
X272779Y971602D01*
X272779Y971601D01*
X272954Y971457D01*
X272954Y971456D01*
X273139Y971323D01*
X273334Y971202D01*
X273334Y971201D01*
X273539Y971092D01*
X273752Y970994D01*
X273974Y970909D01*
X274205Y970837D01*
X274306Y970810D01*
X274408Y970785D01*
X274510Y970763D01*
X274614Y970743D01*
X274719Y970727D01*
X274824Y970712D01*
X274931Y970701D01*
X275038Y970692D01*
X275146Y970685D01*
X275255Y970682D01*
X275256Y970682D01*
X275365Y970680D01*
X275476Y970682D01*
G37*
G36*
X325258Y981965D02*
X325258Y981965D01*
X325259Y981965D01*
X328344Y982697D01*
X328344Y982698D01*
X331345Y984183D01*
X331345Y984184D01*
X331416Y984231D01*
X331616Y984368D01*
X331616Y984369D01*
X331616Y984368D01*
X331927Y984593D01*
X332331Y984899D01*
X332808Y985284D01*
X333341Y985741D01*
X333911Y986268D01*
X334499Y986859D01*
X335088Y987511D01*
X335658Y988218D01*
X335658Y988219D01*
X336191Y988977D01*
X336191Y988978D01*
X336669Y989783D01*
X336669Y989784D01*
X337073Y990632D01*
X337073Y990633D01*
X337385Y991520D01*
X337386Y991520D01*
X337587Y992441D01*
X337586Y992441D01*
X337587Y992442D01*
X337659Y993392D01*
X337659Y993393D01*
X337658Y993393D01*
X337656Y993397D01*
X337655Y993396D01*
X337654Y993396D01*
X337654Y993397D01*
X337616Y993390D01*
X337507Y993370D01*
X337331Y993341D01*
X337096Y993303D01*
X336806Y993260D01*
X336468Y993213D01*
X336087Y993164D01*
X335670Y993116D01*
X335221Y993070D01*
X334748Y993030D01*
X334254Y992996D01*
X333748Y992972D01*
X333233Y992959D01*
X332717Y992960D01*
X332205Y992977D01*
X331702Y993011D01*
X331072Y993220D01*
X330174Y993718D01*
X329015Y994449D01*
X327608Y995359D01*
X325960Y996391D01*
X324081Y997491D01*
X324081Y997492D01*
X321982Y998603D01*
X321981Y998603D01*
X321981Y998604D01*
X319670Y999672D01*
X317156Y1000643D01*
X314449Y1001459D01*
X311559Y1002066D01*
X311558Y1002066D01*
X308494Y1002409D01*
X308494Y1002408D01*
X308494Y1002409D01*
X305265Y1002431D01*
X301881Y1002078D01*
X298352Y1001294D01*
X298351Y1001294D01*
X294686Y1000025D01*
X294686Y1000024D01*
X294685Y1000024D01*
X294685Y1000023D01*
X294683Y1000020D01*
X294684Y1000019D01*
X294684Y1000018D01*
X294923Y999729D01*
X295615Y998924D01*
X295615Y998923D01*
X296721Y997692D01*
X298202Y996124D01*
X298203Y996124D01*
X300022Y994312D01*
X302140Y992346D01*
X302141Y992346D01*
X304520Y990317D01*
X307121Y988315D01*
X307122Y988315D01*
X309907Y986432D01*
X309908Y986432D01*
X312839Y984758D01*
X312840Y984758D01*
X312840Y984757D01*
X315878Y983383D01*
X315879Y983383D01*
X318987Y982399D01*
X318987Y982398D01*
X322126Y981896D01*
X322127Y981896D01*
X325258Y981965D01*
G37*
G36*
X243286Y1027056D02*
X243286Y1027056D01*
X243705Y1027073D01*
X244126Y1027102D01*
X244127Y1027102D01*
X244551Y1027142D01*
X244978Y1027195D01*
X245407Y1027259D01*
X245838Y1027336D01*
X246271Y1027425D01*
X246706Y1027527D01*
X247142Y1027642D01*
X247580Y1027769D01*
X248018Y1027909D01*
X248019Y1027909D01*
X248458Y1028063D01*
X248899Y1028230D01*
X249339Y1028410D01*
X249780Y1028604D01*
X249781Y1028604D01*
X250021Y1028729D01*
X250022Y1028729D01*
X250244Y1028874D01*
X250245Y1028874D01*
X250448Y1029038D01*
X250449Y1029038D01*
X250633Y1029220D01*
X250798Y1029417D01*
X250942Y1029627D01*
X250941Y1029628D01*
X250942Y1029628D01*
X251064Y1029850D01*
X251164Y1030083D01*
X251164Y1030084D01*
X251242Y1030325D01*
X251297Y1030573D01*
X251297Y1030574D01*
X251327Y1030827D01*
X251333Y1031083D01*
X251333Y1031084D01*
X251314Y1031342D01*
X251270Y1031599D01*
X251269Y1031600D01*
X251270Y1031600D01*
X251199Y1031856D01*
X251198Y1031856D01*
X251100Y1032108D01*
X251100Y1032109D01*
X250974Y1032349D01*
X250974Y1032350D01*
X250828Y1032573D01*
X250663Y1032777D01*
X250662Y1032777D01*
X250480Y1032962D01*
X250282Y1033127D01*
X250071Y1033271D01*
X249848Y1033394D01*
X249615Y1033495D01*
X249614Y1033495D01*
X249373Y1033573D01*
X249125Y1033627D01*
X249124Y1033627D01*
X248871Y1033658D01*
X248614Y1033664D01*
X248614Y1033663D01*
X248614Y1033664D01*
X248356Y1033644D01*
X248098Y1033599D01*
X248098Y1033598D01*
X247842Y1033526D01*
X247589Y1033427D01*
X247270Y1033287D01*
X246955Y1033158D01*
X246643Y1033039D01*
X246335Y1032932D01*
X246030Y1032834D01*
X245729Y1032746D01*
X245430Y1032668D01*
X245135Y1032599D01*
X244843Y1032539D01*
X244553Y1032488D01*
X244267Y1032445D01*
X243982Y1032411D01*
X243701Y1032384D01*
X243421Y1032365D01*
X243144Y1032353D01*
X242870Y1032349D01*
X242175Y1032369D01*
X241487Y1032436D01*
X240806Y1032548D01*
X240133Y1032701D01*
X239469Y1032893D01*
X238816Y1033121D01*
X238174Y1033382D01*
X237545Y1033673D01*
X236928Y1033992D01*
X236326Y1034336D01*
X235739Y1034701D01*
X235169Y1035086D01*
X234616Y1035487D01*
X234081Y1035901D01*
X233566Y1036326D01*
X233071Y1036759D01*
X232834Y1036974D01*
X232603Y1037189D01*
X232377Y1037403D01*
X232159Y1037617D01*
X231946Y1037829D01*
X231740Y1038040D01*
X231541Y1038248D01*
X231348Y1038454D01*
X231162Y1038656D01*
X230982Y1038855D01*
X230810Y1039049D01*
X230645Y1039238D01*
X230487Y1039423D01*
X230336Y1039601D01*
X230193Y1039773D01*
X230057Y1039939D01*
X229931Y1040097D01*
X229813Y1040248D01*
X229704Y1040389D01*
X229604Y1040521D01*
X229512Y1040643D01*
X229428Y1040756D01*
X229353Y1040859D01*
X229287Y1040952D01*
X229228Y1041035D01*
X229177Y1041108D01*
X229134Y1041170D01*
X229099Y1041221D01*
X229072Y1041261D01*
X229052Y1041289D01*
X229039Y1041307D01*
X229034Y1041313D01*
X228875Y1041532D01*
X228874Y1041532D01*
X228697Y1041731D01*
X228504Y1041908D01*
X228296Y1042063D01*
X228076Y1042196D01*
X227846Y1042307D01*
X227845Y1042307D01*
X227606Y1042394D01*
X227360Y1042458D01*
X227109Y1042499D01*
X227108Y1042499D01*
X226855Y1042515D01*
X226854Y1042515D01*
X226599Y1042507D01*
X226344Y1042474D01*
X226344Y1042473D01*
X226091Y1042415D01*
X225843Y1042331D01*
X225601Y1042221D01*
X225601Y1042220D01*
X225600Y1042220D01*
X225367Y1042084D01*
X225366Y1042084D01*
X225147Y1041925D01*
X225147Y1041924D01*
X224949Y1041747D01*
X224948Y1041747D01*
X224772Y1041554D01*
X224771Y1041554D01*
X224616Y1041346D01*
X224483Y1041126D01*
X224373Y1040895D01*
X224285Y1040656D01*
X224221Y1040410D01*
X224221Y1040409D01*
X224180Y1040159D01*
X224181Y1040159D01*
X224180Y1040158D01*
X224164Y1039904D01*
X224172Y1039649D01*
X224172Y1039648D01*
X224205Y1039394D01*
X224206Y1039393D01*
X224205Y1039393D01*
X224264Y1039141D01*
X224348Y1038893D01*
X224348Y1038892D01*
X224458Y1038650D01*
X224595Y1038416D01*
X224595Y1038415D01*
X224712Y1038272D01*
X224975Y1037905D01*
X225385Y1037346D01*
X225938Y1036628D01*
X226631Y1035781D01*
X227463Y1034837D01*
X228430Y1033829D01*
X228431Y1033829D01*
X229532Y1032787D01*
X230764Y1031743D01*
X230765Y1031743D01*
X232126Y1030730D01*
X233614Y1029778D01*
X233614Y1029777D01*
X235226Y1028919D01*
X236960Y1028185D01*
X238813Y1027608D01*
X238814Y1027608D01*
X240784Y1027219D01*
X240784Y1027220D01*
X240784Y1027219D01*
X242869Y1027050D01*
X242870Y1027050D01*
X243286Y1027056D01*
G37*
G36*
X86912Y792769D02*
X86912Y792769D01*
X86947Y792774D01*
X86948Y792774D01*
X86982Y792783D01*
X87015Y792796D01*
X87046Y792811D01*
X87046Y792812D01*
X87046Y792811D01*
X87076Y792830D01*
X87104Y792851D01*
X87130Y792874D01*
X87130Y792875D01*
X87320Y793069D01*
X87510Y793263D01*
X87700Y793457D01*
X87890Y793651D01*
X88080Y793846D01*
X88270Y794040D01*
X88460Y794234D01*
X88649Y794429D01*
X88650Y794429D01*
X88674Y794458D01*
X88695Y794488D01*
X88713Y794518D01*
X88713Y794519D01*
X88728Y794551D01*
X88739Y794583D01*
X88739Y794584D01*
X88747Y794617D01*
X88748Y794617D01*
X88752Y794651D01*
X88754Y794686D01*
X88752Y794725D01*
X88747Y794762D01*
X88738Y794797D01*
X88738Y794798D01*
X88726Y794831D01*
X88726Y794832D01*
X88710Y794864D01*
X88691Y794895D01*
X88668Y794924D01*
X88643Y794951D01*
X87721Y795850D01*
X86800Y796749D01*
X85878Y797649D01*
X84956Y798548D01*
X84035Y799447D01*
X83113Y800346D01*
X82192Y801245D01*
X81279Y802135D01*
X82558Y801951D01*
X83850Y801765D01*
X85142Y801579D01*
X86434Y801393D01*
X87726Y801207D01*
X89018Y801021D01*
X90310Y800835D01*
X91602Y800649D01*
X91646Y800644D01*
X91690Y800645D01*
X91732Y800650D01*
X91733Y800651D01*
X91733Y800650D01*
X91774Y800661D01*
X91813Y800677D01*
X91814Y800677D01*
X91850Y800696D01*
X91851Y800696D01*
X91885Y800719D01*
X91885Y800720D01*
X91915Y800747D01*
X91916Y800747D01*
X91945Y800782D01*
X91970Y800819D01*
X91970Y800820D01*
X91991Y800858D01*
X91990Y800859D01*
X91991Y800859D01*
X92007Y800899D01*
X92018Y800940D01*
X92018Y800941D01*
X92024Y800983D01*
X92025Y801025D01*
X92025Y801026D01*
X92020Y801067D01*
X91808Y802352D01*
X91595Y803637D01*
X91383Y804922D01*
X90958Y807492D01*
X90746Y808777D01*
X90534Y810062D01*
X90323Y811335D01*
X91231Y810449D01*
X92148Y809554D01*
X93065Y808659D01*
X93981Y807764D01*
X94898Y806869D01*
X96732Y805080D01*
X97649Y804185D01*
X97677Y804160D01*
X97706Y804139D01*
X97707Y804139D01*
X97737Y804121D01*
X97738Y804121D01*
X97769Y804106D01*
X97770Y804107D01*
X97770Y804106D01*
X97803Y804095D01*
X97804Y804095D01*
X97838Y804087D01*
X97839Y804087D01*
X97875Y804082D01*
X97876Y804082D01*
X97914Y804080D01*
X97950Y804083D01*
X97985Y804090D01*
X97986Y804090D01*
X98020Y804100D01*
X98053Y804112D01*
X98053Y804113D01*
X98085Y804128D01*
X98116Y804147D01*
X98144Y804168D01*
X98171Y804191D01*
X98171Y804192D01*
X98172Y804192D01*
X98360Y804386D01*
X98549Y804579D01*
X98926Y804967D01*
X99115Y805161D01*
X99303Y805354D01*
X99492Y805548D01*
X99681Y805742D01*
X99706Y805770D01*
X99706Y805771D01*
X99707Y805771D01*
X99729Y805800D01*
X99729Y805801D01*
X99748Y805832D01*
X99764Y805865D01*
X99776Y805898D01*
X99776Y805899D01*
X99785Y805933D01*
X99790Y805968D01*
X99792Y806003D01*
X99792Y806004D01*
X99788Y806041D01*
X99782Y806077D01*
X99781Y806077D01*
X99782Y806077D01*
X99772Y806112D01*
X99759Y806145D01*
X99759Y806146D01*
X99744Y806178D01*
X99725Y806209D01*
X99703Y806238D01*
X99677Y806265D01*
X98434Y807477D01*
X97191Y808689D01*
X95947Y809902D01*
X94704Y811114D01*
X93461Y812326D01*
X92218Y813538D01*
X90974Y814750D01*
X89731Y815963D01*
X89634Y816042D01*
X89633Y816042D01*
X89524Y816100D01*
X89407Y816136D01*
X89406Y816136D01*
X89286Y816150D01*
X89286Y816149D01*
X89285Y816150D01*
X89164Y816139D01*
X89163Y816139D01*
X89045Y816105D01*
X89044Y816104D01*
X88932Y816045D01*
X88931Y816045D01*
X88829Y815959D01*
X88801Y815930D01*
X88773Y815901D01*
X88745Y815873D01*
X88717Y815844D01*
X88689Y815815D01*
X88661Y815786D01*
X88634Y815757D01*
X88606Y815728D01*
X88421Y815539D01*
X88236Y815350D01*
X88051Y815161D01*
X87866Y814972D01*
X87682Y814783D01*
X87497Y814594D01*
X87312Y814405D01*
X87128Y814216D01*
X87127Y814216D01*
X87101Y814183D01*
X87078Y814148D01*
X87059Y814111D01*
X87059Y814110D01*
X87044Y814071D01*
X87033Y814030D01*
X87026Y813989D01*
X87026Y813988D01*
X87022Y813946D01*
X87023Y813946D01*
X87022Y813946D01*
X87023Y813903D01*
X87023Y813902D01*
X87229Y812653D01*
X87436Y811404D01*
X87642Y810154D01*
X87848Y808905D01*
X88054Y807656D01*
X88261Y806407D01*
X88467Y805157D01*
X88672Y803914D01*
X87427Y804091D01*
X86176Y804269D01*
X84925Y804447D01*
X83674Y804624D01*
X82423Y804802D01*
X81172Y804980D01*
X79921Y805158D01*
X78670Y805336D01*
X78669Y805336D01*
X78626Y805336D01*
X78625Y805336D01*
X78582Y805333D01*
X78540Y805325D01*
X78539Y805325D01*
X78499Y805313D01*
X78460Y805297D01*
X78460Y805296D01*
X78459Y805297D01*
X78423Y805277D01*
X78423Y805276D01*
X78422Y805276D01*
X78388Y805252D01*
X78357Y805224D01*
X78356Y805224D01*
X78316Y805182D01*
X78203Y805067D01*
X78035Y804893D01*
X77825Y804677D01*
X77589Y804434D01*
X77342Y804181D01*
X77099Y803931D01*
X76875Y803702D01*
X76848Y803673D01*
X76820Y803645D01*
X76792Y803616D01*
X76765Y803588D01*
X76737Y803559D01*
X76710Y803531D01*
X76682Y803503D01*
X76655Y803474D01*
X76654Y803474D01*
X76572Y803370D01*
X76572Y803369D01*
X76571Y803369D01*
X76514Y803256D01*
X76514Y803255D01*
X76481Y803136D01*
X76473Y803015D01*
X76473Y803014D01*
X76488Y802894D01*
X76488Y802893D01*
X76526Y802777D01*
X76586Y802669D01*
X76587Y802669D01*
X76668Y802573D01*
X76669Y802573D01*
X76669Y802572D01*
X77912Y801360D01*
X79155Y800147D01*
X80398Y798934D01*
X81641Y797722D01*
X82885Y796509D01*
X84128Y795296D01*
X85371Y794083D01*
X86614Y792871D01*
X86642Y792847D01*
X86643Y792847D01*
X86643Y792846D01*
X86672Y792825D01*
X86703Y792807D01*
X86704Y792807D01*
X86736Y792793D01*
X86769Y792781D01*
X86769Y792782D01*
X86770Y792781D01*
X86804Y792773D01*
X86839Y792768D01*
X86840Y792768D01*
X86876Y792767D01*
X86912Y792769D01*
G37*
G36*
X181085Y1083975D02*
X181085Y1083975D01*
X181308Y1084011D01*
X181309Y1084011D01*
X181558Y1084095D01*
X181558Y1084096D01*
X181558Y1084095D01*
X181834Y1084229D01*
X181835Y1084229D01*
X182100Y1084390D01*
X182308Y1084554D01*
X182308Y1084555D01*
X182461Y1084724D01*
X182561Y1084897D01*
X182561Y1084898D01*
X182611Y1085076D01*
X182610Y1085076D01*
X182611Y1085077D01*
X182613Y1085259D01*
X182613Y1085260D01*
X182570Y1085447D01*
X182570Y1085448D01*
X182484Y1085640D01*
X182073Y1086398D01*
X181662Y1087155D01*
X181250Y1087913D01*
X180839Y1088670D01*
X180428Y1089428D01*
X180017Y1090185D01*
X179605Y1090943D01*
X179196Y1091697D01*
X179254Y1091729D01*
X179316Y1091763D01*
X179378Y1091798D01*
X179440Y1091832D01*
X179502Y1091867D01*
X179564Y1091901D01*
X179626Y1091935D01*
X179687Y1091969D01*
X180631Y1091654D01*
X180869Y1091574D01*
X182054Y1091179D01*
X183238Y1090784D01*
X184422Y1090388D01*
X185606Y1089993D01*
X186791Y1089598D01*
X187975Y1089202D01*
X189159Y1088807D01*
X189301Y1088762D01*
X189301Y1088761D01*
X189445Y1088727D01*
X189445Y1088726D01*
X189591Y1088705D01*
X189740Y1088698D01*
X189740Y1088699D01*
X189740Y1088698D01*
X189891Y1088709D01*
X189891Y1088710D01*
X190045Y1088740D01*
X190046Y1088740D01*
X190203Y1088793D01*
X190204Y1088793D01*
X190365Y1088869D01*
X190365Y1088870D01*
X190579Y1089004D01*
X190579Y1089005D01*
X190580Y1089005D01*
X190764Y1089159D01*
X190765Y1089159D01*
X190917Y1089328D01*
X191033Y1089507D01*
X191032Y1089508D01*
X191033Y1089508D01*
X191108Y1089692D01*
X191108Y1089693D01*
X191140Y1089880D01*
X191139Y1089880D01*
X191140Y1089881D01*
X191124Y1090065D01*
X191123Y1090065D01*
X191123Y1090066D01*
X191056Y1090242D01*
X191055Y1090243D01*
X190980Y1090351D01*
X190979Y1090351D01*
X190979Y1090352D01*
X190879Y1090446D01*
X190759Y1090528D01*
X190625Y1090600D01*
X190482Y1090663D01*
X190334Y1090718D01*
X190186Y1090768D01*
X190044Y1090813D01*
X189078Y1091137D01*
X188112Y1091461D01*
X187146Y1091785D01*
X186180Y1092109D01*
X185214Y1092433D01*
X184249Y1092756D01*
X183283Y1093080D01*
X182326Y1093401D01*
X182567Y1093532D01*
X182817Y1093668D01*
X183067Y1093803D01*
X183316Y1093939D01*
X183566Y1094074D01*
X183816Y1094210D01*
X184066Y1094346D01*
X184316Y1094481D01*
X184316Y1094482D01*
X184316Y1094481D01*
X184940Y1094869D01*
X184940Y1094870D01*
X184941Y1094870D01*
X185503Y1095318D01*
X185983Y1095815D01*
X185983Y1095816D01*
X185984Y1095816D01*
X186363Y1096352D01*
X186363Y1096353D01*
X186622Y1096917D01*
X186622Y1096918D01*
X186741Y1097499D01*
X186741Y1097500D01*
X186702Y1098088D01*
X186701Y1098089D01*
X186484Y1098673D01*
X186409Y1098814D01*
X186258Y1099094D01*
X186183Y1099235D01*
X186107Y1099375D01*
X186032Y1099515D01*
X185956Y1099656D01*
X185881Y1099796D01*
X185881Y1099797D01*
X185521Y1100272D01*
X185520Y1100272D01*
X185050Y1100616D01*
X185049Y1100617D01*
X184492Y1100836D01*
X184491Y1100836D01*
X183868Y1100937D01*
X183867Y1100937D01*
X183201Y1100927D01*
X183200Y1100927D01*
X182512Y1100812D01*
X182512Y1100811D01*
X181826Y1100597D01*
X181825Y1100597D01*
X181163Y1100291D01*
X181163Y1100290D01*
X181162Y1100291D01*
X180250Y1099795D01*
X179338Y1099299D01*
X178426Y1098804D01*
X177514Y1098308D01*
X177137Y1098103D01*
X176602Y1097812D01*
X175690Y1097316D01*
X174778Y1096821D01*
X173866Y1096325D01*
X173865Y1096323D01*
X173863Y1096322D01*
X173864Y1096321D01*
X173864Y1096320D01*
X173864Y1096319D01*
X174668Y1094836D01*
X175473Y1093353D01*
X176277Y1091870D01*
X177081Y1090387D01*
X177886Y1088904D01*
X178690Y1087421D01*
X179495Y1085938D01*
X180299Y1084455D01*
X180299Y1084454D01*
X180417Y1084277D01*
X180417Y1084276D01*
X180552Y1084138D01*
X180553Y1084138D01*
X180708Y1084040D01*
X180709Y1084040D01*
X180885Y1083985D01*
X180885Y1083986D01*
X180886Y1083985D01*
X181084Y1083975D01*
X181085Y1083975D01*
G37*
G36*
X138395Y1044592D02*
X138395Y1044592D01*
X138396Y1044592D01*
X138581Y1044663D01*
X138582Y1044664D01*
X138772Y1044787D01*
X138772Y1044788D01*
X138967Y1044966D01*
X138968Y1044966D01*
X139169Y1045200D01*
X139169Y1045201D01*
X139344Y1045454D01*
X139345Y1045454D01*
X139467Y1045688D01*
X139467Y1045689D01*
X139538Y1045905D01*
X139537Y1045905D01*
X139538Y1045905D01*
X139559Y1046103D01*
X139559Y1046104D01*
X139533Y1046286D01*
X139532Y1046286D01*
X139532Y1046287D01*
X139460Y1046453D01*
X139460Y1046454D01*
X139344Y1046606D01*
X139343Y1046607D01*
X139185Y1046746D01*
X138104Y1047578D01*
X137023Y1048410D01*
X135942Y1049241D01*
X134862Y1050073D01*
X133781Y1050904D01*
X132700Y1051736D01*
X131619Y1052567D01*
X130542Y1053396D01*
X130543Y1053397D01*
X130555Y1053410D01*
X130556Y1053410D01*
X130560Y1053414D01*
X130564Y1053418D01*
X130569Y1053423D01*
X130572Y1053426D01*
X131007Y1053460D01*
X131444Y1053495D01*
X131881Y1053529D01*
X132319Y1053564D01*
X132756Y1053598D01*
X133193Y1053633D01*
X133630Y1053667D01*
X134065Y1053701D01*
X134093Y1053679D01*
X134122Y1053656D01*
X134152Y1053633D01*
X134181Y1053609D01*
X134210Y1053586D01*
X134240Y1053563D01*
X134269Y1053539D01*
X134298Y1053516D01*
X134299Y1053516D01*
X134476Y1053402D01*
X134477Y1053401D01*
X134668Y1053319D01*
X134668Y1053320D01*
X134669Y1053319D01*
X134871Y1053276D01*
X134872Y1053276D01*
X135082Y1053276D01*
X135083Y1053277D01*
X135297Y1053326D01*
X135297Y1053327D01*
X135298Y1053327D01*
X135513Y1053431D01*
X135513Y1053432D01*
X135514Y1053431D01*
X135726Y1053596D01*
X135727Y1053596D01*
X135933Y1053827D01*
X135934Y1053827D01*
X136112Y1054097D01*
X136221Y1054349D01*
X136221Y1054350D01*
X136268Y1054585D01*
X136269Y1054586D01*
X136261Y1054802D01*
X136260Y1054802D01*
X136260Y1054803D01*
X136204Y1055000D01*
X136203Y1055001D01*
X136204Y1055001D01*
X136106Y1055180D01*
X136105Y1055180D01*
X136105Y1055181D01*
X135973Y1055340D01*
X135972Y1055340D01*
X135812Y1055480D01*
X135782Y1055503D01*
X135753Y1055526D01*
X135723Y1055550D01*
X135694Y1055573D01*
X135664Y1055596D01*
X135634Y1055619D01*
X135605Y1055643D01*
X135576Y1055665D01*
X135497Y1056094D01*
X135417Y1056525D01*
X135338Y1056955D01*
X135258Y1057386D01*
X135178Y1057816D01*
X135098Y1058247D01*
X135019Y1058678D01*
X134939Y1059107D01*
X134942Y1059110D01*
X134946Y1059115D01*
X134950Y1059121D01*
X134954Y1059126D01*
X134957Y1059131D01*
X134961Y1059136D01*
X134965Y1059141D01*
X134966Y1059143D01*
X136044Y1058314D01*
X137126Y1057483D01*
X138207Y1056652D01*
X139288Y1055821D01*
X140370Y1054990D01*
X141451Y1054159D01*
X142532Y1053328D01*
X143614Y1052497D01*
X143614Y1052496D01*
X143789Y1052381D01*
X143790Y1052381D01*
X143790Y1052380D01*
X143967Y1052308D01*
X143968Y1052308D01*
X143968Y1052307D01*
X144148Y1052281D01*
X144149Y1052281D01*
X144331Y1052301D01*
X144332Y1052302D01*
X144519Y1052373D01*
X144520Y1052373D01*
X144710Y1052496D01*
X144711Y1052496D01*
X144906Y1052673D01*
X144906Y1052674D01*
X144907Y1052674D01*
X145108Y1052907D01*
X145108Y1052908D01*
X145282Y1053163D01*
X145282Y1053164D01*
X145402Y1053399D01*
X145403Y1053399D01*
X145472Y1053616D01*
X145473Y1053616D01*
X145493Y1053815D01*
X145493Y1053816D01*
X145467Y1053998D01*
X145467Y1053999D01*
X145396Y1054165D01*
X145395Y1054166D01*
X145281Y1054319D01*
X145280Y1054319D01*
X145280Y1054320D01*
X145125Y1054460D01*
X145124Y1054460D01*
X143790Y1055486D01*
X142455Y1056512D01*
X141121Y1057537D01*
X139786Y1058563D01*
X138452Y1059589D01*
X137117Y1060615D01*
X135783Y1061641D01*
X134448Y1062666D01*
X134442Y1062666D01*
X134443Y1062665D01*
X134442Y1062665D01*
X134207Y1062359D01*
X133973Y1062053D01*
X133738Y1061747D01*
X133503Y1061441D01*
X133269Y1061135D01*
X133034Y1060829D01*
X132799Y1060522D01*
X132565Y1060216D01*
X132565Y1060214D01*
X132564Y1060213D01*
X132656Y1059667D01*
X132748Y1059121D01*
X132840Y1058575D01*
X132932Y1058029D01*
X133025Y1057483D01*
X133117Y1056936D01*
X133209Y1056390D01*
X133300Y1055849D01*
X132753Y1055799D01*
X132201Y1055749D01*
X131649Y1055698D01*
X131097Y1055648D01*
X130544Y1055597D01*
X129992Y1055547D01*
X129440Y1055497D01*
X128888Y1055447D01*
X128887Y1055445D01*
X128885Y1055445D01*
X128649Y1055139D01*
X128413Y1054833D01*
X128177Y1054527D01*
X127941Y1054222D01*
X127705Y1053916D01*
X127469Y1053610D01*
X127233Y1053304D01*
X126997Y1052999D01*
X126998Y1052993D01*
X128333Y1051967D01*
X129668Y1050941D01*
X131003Y1049915D01*
X132338Y1048890D01*
X133673Y1047864D01*
X135008Y1046838D01*
X136343Y1045812D01*
X137678Y1044786D01*
X137854Y1044670D01*
X137855Y1044670D01*
X138032Y1044597D01*
X138033Y1044598D01*
X138033Y1044597D01*
X138212Y1044570D01*
X138213Y1044571D01*
X138213Y1044570D01*
X138395Y1044592D01*
G37*
G36*
X193929Y1090566D02*
X193929Y1090566D01*
X193929Y1090567D01*
X193930Y1090567D01*
X194179Y1090609D01*
X194180Y1090609D01*
X194424Y1090691D01*
X194425Y1090692D01*
X194663Y1090817D01*
X194664Y1090818D01*
X194857Y1090967D01*
X195008Y1091134D01*
X195008Y1091135D01*
X195121Y1091315D01*
X195121Y1091316D01*
X195200Y1091505D01*
X195200Y1091506D01*
X195249Y1091699D01*
X195250Y1091700D01*
X195273Y1091893D01*
X195275Y1092081D01*
X195273Y1092382D01*
X195271Y1092683D01*
X195269Y1092984D01*
X195265Y1093586D01*
X195263Y1093887D01*
X195261Y1094188D01*
X195259Y1094486D01*
X195859Y1094746D01*
X196462Y1095007D01*
X197065Y1095268D01*
X197668Y1095529D01*
X198271Y1095790D01*
X198874Y1096051D01*
X199477Y1096311D01*
X200077Y1096571D01*
X200290Y1096364D01*
X200505Y1096155D01*
X200720Y1095946D01*
X200935Y1095736D01*
X201150Y1095527D01*
X201365Y1095317D01*
X201579Y1095108D01*
X201794Y1094899D01*
X201795Y1094899D01*
X201931Y1094775D01*
X202087Y1094663D01*
X202087Y1094662D01*
X202261Y1094568D01*
X202262Y1094568D01*
X202262Y1094567D01*
X202453Y1094497D01*
X202454Y1094497D01*
X202663Y1094456D01*
X202663Y1094457D01*
X202664Y1094456D01*
X202888Y1094453D01*
X202889Y1094453D01*
X203129Y1094493D01*
X203130Y1094493D01*
X203385Y1094582D01*
X203385Y1094583D01*
X203614Y1094700D01*
X203614Y1094701D01*
X203816Y1094851D01*
X203816Y1094852D01*
X203817Y1094852D01*
X203986Y1095025D01*
X203986Y1095026D01*
X204115Y1095213D01*
X204116Y1095213D01*
X204199Y1095404D01*
X204199Y1095405D01*
X204200Y1095405D01*
X204231Y1095589D01*
X204231Y1095590D01*
X204231Y1095591D01*
X204205Y1095760D01*
X204204Y1095761D01*
X204204Y1095762D01*
X204113Y1095905D01*
X204112Y1095906D01*
X200605Y1099509D01*
X199436Y1100710D01*
X197098Y1103111D01*
X195929Y1104312D01*
X194760Y1105513D01*
X194625Y1105649D01*
X194624Y1105649D01*
X194476Y1105772D01*
X194313Y1105876D01*
X194134Y1105953D01*
X194133Y1105953D01*
X194133Y1105954D01*
X193935Y1105998D01*
X193935Y1105999D01*
X193716Y1106004D01*
X193715Y1106004D01*
X193474Y1105964D01*
X193474Y1105963D01*
X193473Y1105964D01*
X193473Y1105963D01*
X193473Y1105964D01*
X193206Y1105871D01*
X193206Y1105870D01*
X193206Y1105871D01*
X192964Y1105745D01*
X192963Y1105745D01*
X192775Y1105602D01*
X192775Y1105601D01*
X192774Y1105601D01*
X192634Y1105443D01*
X192633Y1105443D01*
X192534Y1105272D01*
X192534Y1105271D01*
X192469Y1105089D01*
X192469Y1105088D01*
X192432Y1104897D01*
X192417Y1104699D01*
X192417Y1104496D01*
X192485Y1102818D01*
X192553Y1101141D01*
X192621Y1099463D01*
X192689Y1097785D01*
X192757Y1096107D01*
X192825Y1094429D01*
X192892Y1092751D01*
X192960Y1091074D01*
X192961Y1091073D01*
X192960Y1091073D01*
X193002Y1090907D01*
X193003Y1090906D01*
X193003Y1090905D01*
X193107Y1090770D01*
X193108Y1090770D01*
X193108Y1090769D01*
X193264Y1090666D01*
X193265Y1090666D01*
X193460Y1090597D01*
X193461Y1090597D01*
X193461Y1090596D01*
X193686Y1090563D01*
X193929Y1090566D01*
G37*
G36*
X147999Y1056795D02*
X147999Y1056795D01*
X148000Y1056796D01*
X148000Y1056795D01*
X148220Y1056851D01*
X148221Y1056851D01*
X148443Y1056948D01*
X148444Y1056948D01*
X148657Y1057084D01*
X148658Y1057084D01*
X148852Y1057254D01*
X148852Y1057255D01*
X149024Y1057463D01*
X149025Y1057464D01*
X149145Y1057675D01*
X149145Y1057676D01*
X149220Y1057888D01*
X149219Y1057888D01*
X149220Y1057888D01*
X149254Y1058098D01*
X149254Y1058099D01*
X149254Y1058304D01*
X149254Y1058305D01*
X149225Y1058502D01*
X149224Y1058503D01*
X149225Y1058503D01*
X149172Y1058690D01*
X149172Y1058691D01*
X149101Y1058865D01*
X148983Y1059142D01*
X148865Y1059418D01*
X148747Y1059695D01*
X148275Y1060803D01*
X148159Y1061077D01*
X148612Y1061549D01*
X149068Y1062022D01*
X149524Y1062495D01*
X149979Y1062968D01*
X150035Y1063027D01*
X150435Y1063442D01*
X150890Y1063915D01*
X151346Y1064388D01*
X151800Y1064860D01*
X152076Y1064750D01*
X152355Y1064640D01*
X152634Y1064530D01*
X152913Y1064420D01*
X153192Y1064309D01*
X153471Y1064199D01*
X153750Y1064089D01*
X154029Y1063979D01*
X154030Y1063979D01*
X154203Y1063917D01*
X154390Y1063873D01*
X154390Y1063874D01*
X154390Y1063873D01*
X154588Y1063853D01*
X154792Y1063862D01*
X154793Y1063862D01*
X155001Y1063906D01*
X155002Y1063906D01*
X155211Y1063989D01*
X155211Y1063990D01*
X155418Y1064119D01*
X155618Y1064300D01*
X155619Y1064300D01*
X155784Y1064497D01*
X155784Y1064498D01*
X155785Y1064498D01*
X155913Y1064715D01*
X156002Y1064940D01*
X156002Y1064941D01*
X156050Y1065163D01*
X156049Y1065164D01*
X156050Y1065164D01*
X156053Y1065372D01*
X156053Y1065373D01*
X156011Y1065556D01*
X156011Y1065557D01*
X155921Y1065703D01*
X155920Y1065703D01*
X155920Y1065704D01*
X155780Y1065802D01*
X155779Y1065801D01*
X155779Y1065802D01*
X154237Y1066459D01*
X152696Y1067116D01*
X151154Y1067773D01*
X149612Y1068431D01*
X148071Y1069088D01*
X146529Y1069745D01*
X144987Y1070402D01*
X143446Y1071059D01*
X143268Y1071132D01*
X143084Y1071188D01*
X143083Y1071188D01*
X142893Y1071221D01*
X142698Y1071224D01*
X142697Y1071223D01*
X142697Y1071224D01*
X142497Y1071189D01*
X142497Y1071188D01*
X142293Y1071109D01*
X142292Y1071109D01*
X142085Y1070979D01*
X142085Y1070978D01*
X142084Y1070978D01*
X141874Y1070790D01*
X141874Y1070789D01*
X141698Y1070580D01*
X141580Y1070375D01*
X141579Y1070374D01*
X141511Y1070174D01*
X141510Y1070174D01*
X141485Y1069977D01*
X141495Y1069784D01*
X141496Y1069783D01*
X141495Y1069783D01*
X141535Y1069593D01*
X141536Y1069593D01*
X141535Y1069592D01*
X141598Y1069404D01*
X141676Y1069217D01*
X142386Y1067695D01*
X143096Y1066173D01*
X143805Y1064652D01*
X144515Y1063130D01*
X145225Y1061608D01*
X145934Y1060086D01*
X146644Y1058564D01*
X147354Y1057042D01*
X147457Y1056905D01*
X147458Y1056904D01*
X147458Y1056903D01*
X147607Y1056819D01*
X147608Y1056819D01*
X147608Y1056818D01*
X147791Y1056783D01*
X147792Y1056784D01*
X147792Y1056783D01*
X147999Y1056795D01*
G37*
G36*
X167496Y1074746D02*
X167496Y1074746D01*
X167496Y1074747D01*
X167497Y1074747D01*
X167714Y1074809D01*
X167715Y1074809D01*
X167953Y1074923D01*
X168213Y1075089D01*
X168213Y1075090D01*
X168214Y1075090D01*
X168458Y1075279D01*
X168645Y1075466D01*
X168645Y1075467D01*
X168777Y1075651D01*
X168856Y1075834D01*
X168856Y1075835D01*
X168885Y1076016D01*
X168884Y1076017D01*
X168885Y1076017D01*
X168866Y1076198D01*
X168865Y1076199D01*
X168866Y1076199D01*
X168801Y1076380D01*
X168801Y1076381D01*
X168694Y1076563D01*
X168693Y1076563D01*
X168308Y1077110D01*
X167922Y1077657D01*
X167537Y1078204D01*
X167152Y1078751D01*
X166766Y1079297D01*
X166381Y1079844D01*
X165995Y1080391D01*
X165612Y1080935D01*
X166350Y1081457D01*
X167834Y1082506D01*
X168575Y1083030D01*
X169317Y1083555D01*
X170058Y1084079D01*
X170800Y1084604D01*
X171538Y1085126D01*
X171921Y1084582D01*
X172307Y1084034D01*
X172693Y1083486D01*
X173079Y1082938D01*
X173465Y1082391D01*
X173850Y1081843D01*
X174236Y1081295D01*
X174622Y1080747D01*
X174756Y1080587D01*
X174756Y1080586D01*
X174904Y1080467D01*
X174905Y1080467D01*
X174905Y1080466D01*
X175068Y1080389D01*
X175069Y1080389D01*
X175249Y1080356D01*
X175250Y1080357D01*
X175250Y1080356D01*
X175449Y1080370D01*
X175450Y1080370D01*
X175668Y1080433D01*
X175669Y1080433D01*
X175909Y1080546D01*
X176171Y1080712D01*
X176172Y1080712D01*
X176416Y1080901D01*
X176416Y1080902D01*
X176603Y1081088D01*
X176603Y1081089D01*
X176735Y1081272D01*
X176735Y1081273D01*
X176814Y1081456D01*
X176814Y1081457D01*
X176842Y1081638D01*
X176842Y1081639D01*
X176822Y1081821D01*
X176822Y1081822D01*
X176757Y1082004D01*
X176756Y1082004D01*
X176756Y1082005D01*
X176648Y1082188D01*
X176648Y1082189D01*
X175743Y1083471D01*
X174838Y1084753D01*
X173934Y1086035D01*
X173029Y1087317D01*
X172124Y1088599D01*
X171219Y1089881D01*
X170315Y1091163D01*
X169410Y1092445D01*
X169275Y1092607D01*
X169275Y1092608D01*
X169127Y1092730D01*
X169126Y1092730D01*
X168963Y1092809D01*
X168962Y1092809D01*
X168782Y1092843D01*
X168781Y1092843D01*
X168583Y1092830D01*
X168582Y1092829D01*
X168582Y1092830D01*
X168363Y1092768D01*
X168363Y1092767D01*
X168362Y1092767D01*
X168122Y1092654D01*
X168121Y1092654D01*
X167857Y1092488D01*
X167857Y1092487D01*
X167615Y1092298D01*
X167615Y1092297D01*
X167430Y1092111D01*
X167430Y1092110D01*
X167429Y1092110D01*
X167299Y1091926D01*
X167300Y1091925D01*
X167299Y1091925D01*
X167221Y1091742D01*
X167222Y1091742D01*
X167221Y1091741D01*
X167193Y1091560D01*
X167192Y1091560D01*
X167193Y1091559D01*
X167192Y1091559D01*
X167211Y1091378D01*
X167212Y1091378D01*
X167212Y1091377D01*
X167275Y1091196D01*
X167275Y1091195D01*
X167380Y1091014D01*
X167380Y1091013D01*
X167766Y1090467D01*
X168152Y1089920D01*
X168538Y1089373D01*
X168924Y1088826D01*
X169310Y1088279D01*
X169695Y1087732D01*
X170081Y1087185D01*
X170465Y1086642D01*
X169727Y1086121D01*
X168985Y1085597D01*
X168244Y1085073D01*
X167502Y1084550D01*
X166761Y1084026D01*
X166019Y1083502D01*
X165278Y1082979D01*
X164539Y1082458D01*
X164157Y1083000D01*
X163772Y1083546D01*
X163387Y1084092D01*
X163002Y1084638D01*
X162617Y1085184D01*
X162232Y1085730D01*
X161847Y1086276D01*
X161462Y1086822D01*
X161462Y1086823D01*
X161326Y1086987D01*
X161177Y1087110D01*
X161176Y1087110D01*
X161011Y1087190D01*
X161010Y1087190D01*
X160830Y1087225D01*
X160829Y1087225D01*
X160630Y1087212D01*
X160629Y1087212D01*
X160412Y1087150D01*
X160411Y1087150D01*
X160173Y1087036D01*
X159913Y1086868D01*
X159668Y1086679D01*
X159668Y1086678D01*
X159481Y1086492D01*
X159481Y1086491D01*
X159349Y1086307D01*
X159350Y1086306D01*
X159349Y1086306D01*
X159270Y1086124D01*
X159271Y1086123D01*
X159270Y1086123D01*
X159242Y1085941D01*
X159242Y1085940D01*
X159262Y1085759D01*
X159262Y1085758D01*
X159327Y1085577D01*
X159328Y1085577D01*
X159327Y1085577D01*
X159436Y1085395D01*
X160340Y1084112D01*
X162147Y1081546D01*
X163050Y1080263D01*
X163954Y1078980D01*
X164857Y1077697D01*
X165761Y1076415D01*
X166664Y1075132D01*
X166664Y1075131D01*
X166800Y1074969D01*
X166950Y1074847D01*
X166950Y1074846D01*
X167115Y1074768D01*
X167116Y1074767D01*
X167296Y1074733D01*
X167297Y1074734D01*
X167297Y1074733D01*
X167496Y1074746D01*
G37*
G36*
X207668Y1096102D02*
X207668Y1096102D01*
X207669Y1096102D01*
X207893Y1096152D01*
X208154Y1096253D01*
X208363Y1096377D01*
X208364Y1096378D01*
X208529Y1096522D01*
X208530Y1096522D01*
X208661Y1096683D01*
X208660Y1096684D01*
X208661Y1096684D01*
X208764Y1096859D01*
X208765Y1096859D01*
X208850Y1097045D01*
X208925Y1097239D01*
X208998Y1097436D01*
X209253Y1098091D01*
X209509Y1098745D01*
X209764Y1099400D01*
X210020Y1100054D01*
X210275Y1100709D01*
X210530Y1101364D01*
X210786Y1102018D01*
X211039Y1102667D01*
X211608Y1102264D01*
X212181Y1101858D01*
X212754Y1101451D01*
X213327Y1101045D01*
X213901Y1100638D01*
X214474Y1100232D01*
X215047Y1099825D01*
X215620Y1099419D01*
X215788Y1099297D01*
X215955Y1099178D01*
X216127Y1099071D01*
X216128Y1099071D01*
X216128Y1099070D01*
X216309Y1098982D01*
X216310Y1098982D01*
X216310Y1098981D01*
X216507Y1098919D01*
X216508Y1098919D01*
X216726Y1098890D01*
X216727Y1098890D01*
X216972Y1098902D01*
X216973Y1098902D01*
X217249Y1098963D01*
X217250Y1098963D01*
X217465Y1099045D01*
X217662Y1099157D01*
X217835Y1099293D01*
X217835Y1099294D01*
X217836Y1099294D01*
X217980Y1099449D01*
X217980Y1099450D01*
X218090Y1099618D01*
X218160Y1099794D01*
X218159Y1099794D01*
X218160Y1099795D01*
X218185Y1099972D01*
X218184Y1099972D01*
X218185Y1099973D01*
X218158Y1100146D01*
X218158Y1100147D01*
X218127Y1100236D01*
X218127Y1100237D01*
X218087Y1100319D01*
X218086Y1100319D01*
X218086Y1100320D01*
X218037Y1100396D01*
X218037Y1100397D01*
X217979Y1100467D01*
X217914Y1100533D01*
X217914Y1100534D01*
X217842Y1100595D01*
X217764Y1100653D01*
X217681Y1100707D01*
X216953Y1101227D01*
X216224Y1101747D01*
X215496Y1102268D01*
X214767Y1102788D01*
X214038Y1103308D01*
X213310Y1103828D01*
X212581Y1104349D01*
X211855Y1104867D01*
X212176Y1105701D01*
X212498Y1106537D01*
X212820Y1107374D01*
X213142Y1108211D01*
X213787Y1109884D01*
X214109Y1110721D01*
X214431Y1111558D01*
X214469Y1111649D01*
X214501Y1111740D01*
X214528Y1111830D01*
X214546Y1111921D01*
X214557Y1112011D01*
X214557Y1112012D01*
X214558Y1112102D01*
X214558Y1112103D01*
X214548Y1112194D01*
X214527Y1112287D01*
X214527Y1112288D01*
X214449Y1112446D01*
X214448Y1112447D01*
X214327Y1112581D01*
X214327Y1112582D01*
X214171Y1112689D01*
X214170Y1112689D01*
X213986Y1112768D01*
X213985Y1112768D01*
X213780Y1112818D01*
X213780Y1112817D01*
X213780Y1112818D01*
X213561Y1112835D01*
X213337Y1112820D01*
X213336Y1112819D01*
X213336Y1112820D01*
X213113Y1112769D01*
X212850Y1112669D01*
X212849Y1112669D01*
X212638Y1112546D01*
X212638Y1112545D01*
X212471Y1112402D01*
X212471Y1112401D01*
X212470Y1112401D01*
X212339Y1112240D01*
X212339Y1112239D01*
X212235Y1112064D01*
X212234Y1112064D01*
X212149Y1111878D01*
X212074Y1111685D01*
X212001Y1111489D01*
X211745Y1110834D01*
X211489Y1110180D01*
X211234Y1109526D01*
X210978Y1108872D01*
X210722Y1108218D01*
X210466Y1107564D01*
X210210Y1106909D01*
X209957Y1106260D01*
X209389Y1106662D01*
X208817Y1107068D01*
X208245Y1107473D01*
X207673Y1107878D01*
X207102Y1108283D01*
X206530Y1108689D01*
X205958Y1109094D01*
X205386Y1109499D01*
X205217Y1109623D01*
X205049Y1109744D01*
X204876Y1109853D01*
X204875Y1109853D01*
X204875Y1109854D01*
X204692Y1109944D01*
X204494Y1110008D01*
X204493Y1110008D01*
X204275Y1110038D01*
X204275Y1110037D01*
X204274Y1110038D01*
X204031Y1110026D01*
X204030Y1110026D01*
X203757Y1109965D01*
X203756Y1109965D01*
X203541Y1109880D01*
X203540Y1109880D01*
X203343Y1109768D01*
X203343Y1109767D01*
X203342Y1109767D01*
X203168Y1109631D01*
X203023Y1109477D01*
X203023Y1109476D01*
X203022Y1109476D01*
X202911Y1109308D01*
X202912Y1109308D01*
X202911Y1109308D01*
X202840Y1109131D01*
X202840Y1109130D01*
X202815Y1108951D01*
X202815Y1108950D01*
X202840Y1108771D01*
X202841Y1108771D01*
X202840Y1108770D01*
X202872Y1108683D01*
X202873Y1108683D01*
X202873Y1108682D01*
X202913Y1108602D01*
X202914Y1108602D01*
X202963Y1108528D01*
X202964Y1108528D01*
X202964Y1108527D01*
X203021Y1108459D01*
X203087Y1108394D01*
X203158Y1108333D01*
X203159Y1108333D01*
X203237Y1108275D01*
X203321Y1108217D01*
X204050Y1107697D01*
X204779Y1107176D01*
X205508Y1106656D01*
X206237Y1106135D01*
X206966Y1105614D01*
X207695Y1105094D01*
X208425Y1104573D01*
X209151Y1104054D01*
X208829Y1103221D01*
X208505Y1102385D01*
X208182Y1101550D01*
X207858Y1100714D01*
X207535Y1099878D01*
X207212Y1099042D01*
X206888Y1098206D01*
X206565Y1097370D01*
X206530Y1097277D01*
X206499Y1097185D01*
X206474Y1097095D01*
X206455Y1097005D01*
X206444Y1096915D01*
X206445Y1096915D01*
X206444Y1096915D01*
X206443Y1096825D01*
X206444Y1096825D01*
X206443Y1096825D01*
X206453Y1096734D01*
X206453Y1096733D01*
X206475Y1096641D01*
X206476Y1096641D01*
X206475Y1096640D01*
X206551Y1096479D01*
X206552Y1096479D01*
X206552Y1096478D01*
X206672Y1096343D01*
X206672Y1096342D01*
X206829Y1096234D01*
X206830Y1096233D01*
X207014Y1096154D01*
X207015Y1096154D01*
X207015Y1096153D01*
X207221Y1096104D01*
X207222Y1096104D01*
X207441Y1096086D01*
X207442Y1096086D01*
X207668Y1096102D01*
G37*
G36*
X160231Y1068751D02*
X160231Y1068751D01*
X160232Y1068751D01*
X160429Y1068784D01*
X160429Y1068785D01*
X160429Y1068784D01*
X160640Y1068868D01*
X160641Y1068868D01*
X160867Y1069004D01*
X160867Y1069005D01*
X160868Y1069005D01*
X161110Y1069195D01*
X161332Y1069409D01*
X161498Y1069615D01*
X161610Y1069812D01*
X161610Y1069813D01*
X161670Y1070004D01*
X161670Y1070005D01*
X161680Y1070189D01*
X161679Y1070189D01*
X161680Y1070190D01*
X161643Y1070368D01*
X161642Y1070369D01*
X161560Y1070543D01*
X161559Y1070543D01*
X161559Y1070544D01*
X161434Y1070713D01*
X160481Y1071812D01*
X159527Y1072910D01*
X158574Y1074008D01*
X157620Y1075106D01*
X156667Y1076204D01*
X155714Y1077302D01*
X154760Y1078400D01*
X153810Y1079495D01*
X154031Y1079690D01*
X154256Y1079887D01*
X154481Y1080084D01*
X154706Y1080281D01*
X154930Y1080479D01*
X155155Y1080676D01*
X155380Y1080873D01*
X155601Y1081068D01*
X155654Y1081008D01*
X155709Y1080945D01*
X155764Y1080882D01*
X155819Y1080819D01*
X155874Y1080756D01*
X155929Y1080694D01*
X155985Y1080631D01*
X156040Y1080568D01*
X156191Y1080418D01*
X156192Y1080418D01*
X156192Y1080417D01*
X156353Y1080310D01*
X156354Y1080310D01*
X156525Y1080247D01*
X156526Y1080247D01*
X156709Y1080231D01*
X156710Y1080232D01*
X156710Y1080231D01*
X156906Y1080265D01*
X156907Y1080265D01*
X157117Y1080348D01*
X157117Y1080349D01*
X157118Y1080349D01*
X157343Y1080486D01*
X157585Y1080678D01*
X157586Y1080678D01*
X157809Y1080892D01*
X157975Y1081097D01*
X157975Y1081098D01*
X157976Y1081098D01*
X158088Y1081295D01*
X158088Y1081296D01*
X158149Y1081486D01*
X158148Y1081486D01*
X158149Y1081487D01*
X158160Y1081670D01*
X158159Y1081671D01*
X158160Y1081671D01*
X158123Y1081849D01*
X158123Y1081850D01*
X158042Y1082023D01*
X158041Y1082023D01*
X158041Y1082024D01*
X157917Y1082192D01*
X157917Y1082193D01*
X157710Y1082430D01*
X157502Y1082668D01*
X157295Y1082906D01*
X157088Y1083143D01*
X156881Y1083381D01*
X156674Y1083619D01*
X156467Y1083857D01*
X156259Y1084094D01*
X156254Y1084095D01*
X156253Y1084095D01*
X155102Y1083093D01*
X153950Y1082092D01*
X152799Y1081090D01*
X151648Y1080088D01*
X150496Y1079087D01*
X149345Y1078085D01*
X148193Y1077083D01*
X147041Y1076081D01*
X147041Y1076079D01*
X147040Y1076078D01*
X147041Y1076078D01*
X147041Y1076076D01*
X147041Y1076075D01*
X147247Y1075838D01*
X147454Y1075601D01*
X147660Y1075364D01*
X147866Y1075126D01*
X148072Y1074889D01*
X148279Y1074652D01*
X148485Y1074414D01*
X148691Y1074177D01*
X148842Y1074027D01*
X148843Y1074027D01*
X148843Y1074026D01*
X149003Y1073919D01*
X149004Y1073920D01*
X149004Y1073919D01*
X149176Y1073857D01*
X149177Y1073857D01*
X149177Y1073856D01*
X149361Y1073841D01*
X149362Y1073841D01*
X149559Y1073874D01*
X149560Y1073874D01*
X149771Y1073958D01*
X149772Y1073958D01*
X149998Y1074095D01*
X150240Y1074287D01*
X150241Y1074287D01*
X150464Y1074500D01*
X150630Y1074704D01*
X150630Y1074705D01*
X150742Y1074901D01*
X150742Y1074902D01*
X150801Y1075092D01*
X150801Y1075093D01*
X150811Y1075276D01*
X150810Y1075277D01*
X150811Y1075278D01*
X150772Y1075457D01*
X150772Y1075458D01*
X150689Y1075632D01*
X150688Y1075633D01*
X150562Y1075805D01*
X150561Y1075805D01*
X150506Y1075868D01*
X150451Y1075931D01*
X150396Y1075994D01*
X150341Y1076057D01*
X150286Y1076120D01*
X150231Y1076182D01*
X150176Y1076245D01*
X150176Y1076246D01*
X150123Y1076305D01*
X150347Y1076499D01*
X150575Y1076695D01*
X150802Y1076891D01*
X151029Y1077088D01*
X151257Y1077284D01*
X151484Y1077480D01*
X151712Y1077677D01*
X151936Y1077870D01*
X152887Y1076775D01*
X153841Y1075676D01*
X154795Y1074577D01*
X155748Y1073478D01*
X156702Y1072379D01*
X157656Y1071280D01*
X158610Y1070181D01*
X159564Y1069082D01*
X159564Y1069081D01*
X159714Y1068934D01*
X159714Y1068933D01*
X159874Y1068828D01*
X159875Y1068828D01*
X159875Y1068827D01*
X160046Y1068766D01*
X160047Y1068766D01*
X160231Y1068751D01*
X160231Y1068751D01*
G37*
%LPC*%
G36*
X178143Y1093644D02*
X178143Y1093644D01*
X177970Y1093963D01*
X177798Y1094281D01*
X177625Y1094599D01*
X177452Y1094917D01*
X177280Y1095236D01*
X177107Y1095554D01*
X176936Y1095869D01*
X177537Y1096196D01*
X178026Y1096462D01*
X178142Y1096525D01*
X178746Y1096855D01*
X179351Y1097184D01*
X179956Y1097514D01*
X180560Y1097843D01*
X181165Y1098173D01*
X181769Y1098502D01*
X182025Y1098634D01*
X182297Y1098757D01*
X182575Y1098860D01*
X182848Y1098928D01*
X183108Y1098949D01*
X183343Y1098912D01*
X183543Y1098802D01*
X183700Y1098607D01*
X183776Y1098466D01*
X183852Y1098325D01*
X183928Y1098185D01*
X184005Y1098044D01*
X184081Y1097903D01*
X184157Y1097762D01*
X184233Y1097622D01*
X184310Y1097481D01*
X184384Y1097243D01*
X184357Y1097017D01*
X184248Y1096802D01*
X184075Y1096600D01*
X183857Y1096413D01*
X183612Y1096242D01*
X183360Y1096088D01*
X183119Y1095953D01*
X182518Y1095625D01*
X181917Y1095297D01*
X181316Y1094969D01*
X180715Y1094641D01*
X180113Y1094312D01*
X179512Y1093984D01*
X179403Y1093924D01*
X178911Y1093656D01*
X178314Y1093330D01*
X178143Y1093644D01*
G37*
%LPD*%
%LPC*%
G36*
X147024Y1063467D02*
X147024Y1063467D01*
X146738Y1064076D01*
X146452Y1064684D01*
X146166Y1065293D01*
X145880Y1065902D01*
X145594Y1066511D01*
X145308Y1067120D01*
X145024Y1067726D01*
X145026Y1067729D01*
X145030Y1067733D01*
X145034Y1067737D01*
X145039Y1067742D01*
X145043Y1067746D01*
X145047Y1067750D01*
X145052Y1067754D01*
X145054Y1067756D01*
X145484Y1067573D01*
X145668Y1067494D01*
X146285Y1067231D01*
X146901Y1066967D01*
X147518Y1066704D01*
X148135Y1066440D01*
X148751Y1066177D01*
X149368Y1065913D01*
X149979Y1065652D01*
X149648Y1065307D01*
X149313Y1064957D01*
X148978Y1064607D01*
X148723Y1064340D01*
X148722Y1064340D01*
X148643Y1064258D01*
X148601Y1064214D01*
X148308Y1063908D01*
X147973Y1063558D01*
X147638Y1063209D01*
X147307Y1062863D01*
X147024Y1063467D01*
G37*
%LPD*%
%LPC*%
G36*
X195134Y1097128D02*
X195134Y1097128D01*
X195047Y1099144D01*
X195018Y1099817D01*
X194960Y1101161D01*
X194931Y1101830D01*
X194934Y1101831D01*
X194939Y1101833D01*
X194945Y1101836D01*
X194951Y1101838D01*
X194956Y1101840D01*
X194962Y1101842D01*
X194968Y1101845D01*
X194971Y1101846D01*
X195296Y1101511D01*
X195436Y1101367D01*
X195903Y1100886D01*
X196370Y1100405D01*
X196838Y1099924D01*
X197305Y1099443D01*
X197772Y1098962D01*
X198240Y1098481D01*
X198703Y1098005D01*
X198264Y1097814D01*
X197820Y1097620D01*
X197376Y1097427D01*
X197038Y1097279D01*
X197037Y1097279D01*
X196933Y1097233D01*
X196877Y1097209D01*
X196045Y1096847D01*
X195601Y1096653D01*
X195162Y1096462D01*
X195134Y1097128D01*
G37*
%LPD*%
D10*
X420454Y640101D02*
X420149Y640371D01*
X419841Y640637D01*
X419531Y640899D01*
X419218Y641156D01*
X418902Y641410D01*
X418583Y641659D01*
X418262Y641904D01*
X417939Y642144D01*
X417613Y642380D01*
X417285Y642612D01*
X416954Y642840D01*
X416622Y643062D01*
X416287Y643281D01*
X415950Y643495D01*
X415610Y643704D01*
X415269Y643908D01*
X415202Y643951D01*
X415015Y644080D01*
X414728Y644294D01*
X414363Y644593D01*
X413940Y644977D01*
X413481Y645445D01*
X413007Y645997D01*
X412537Y646633D01*
X412094Y647353D01*
X411697Y648155D01*
X411369Y649040D01*
X411130Y650007D01*
X411000Y651056D01*
X411001Y652186D01*
X411154Y653398D01*
X411479Y654691D01*
X411839Y655922D01*
X412207Y657195D01*
X412582Y658504D01*
X412963Y659842D01*
X413347Y661202D01*
X413732Y662579D01*
X414118Y663966D01*
X414501Y665356D01*
X414880Y666742D01*
X415253Y668120D01*
X415619Y669481D01*
X415974Y670820D01*
X416319Y672130D01*
X416650Y673405D01*
X416965Y674639D01*
X417264Y675824D01*
X424276Y709087D01*
X428228Y739649D01*
X429481Y767585D01*
X428394Y792973D01*
X425327Y815889D01*
X420639Y836410D01*
X414691Y854613D01*
X407841Y870574D01*
X400450Y884370D01*
X392877Y896078D01*
X385483Y905774D01*
X378626Y913535D01*
X372667Y919438D01*
X367965Y923559D01*
X364880Y925976D01*
X363772Y926764D01*
X359084Y930697D01*
X355052Y934095D01*
X351611Y937015D01*
X348696Y939513D01*
X346242Y941646D01*
X344184Y943469D01*
X342457Y945039D01*
X340997Y946413D01*
X339739Y947645D01*
X338617Y948793D01*
X337567Y949913D01*
X336525Y951060D01*
X335424Y952292D01*
X334201Y953664D01*
X332790Y955232D01*
X331126Y957054D01*
X329361Y959217D01*
X328078Y961318D01*
X327226Y963346D01*
X326756Y965291D01*
X326615Y967141D01*
X326753Y968886D01*
X327120Y970516D01*
X327664Y972019D01*
X328335Y973385D01*
X329081Y974604D01*
X329852Y975665D01*
X330597Y976556D01*
X331264Y977268D01*
X331804Y977790D01*
X332166Y978111D01*
X332297Y978220D01*
X334816Y979993D01*
X337139Y981750D01*
X339271Y983476D01*
X341218Y985159D01*
X342982Y986784D01*
X344570Y988339D01*
X345985Y989810D01*
X347232Y991183D01*
X348315Y992445D01*
X349239Y993582D01*
X350009Y994582D01*
X350629Y995430D01*
X351103Y996113D01*
X351436Y996618D01*
X351632Y996930D01*
X351697Y997037D01*
X351969Y997427D01*
X352692Y998565D01*
X353722Y1000401D01*
X354917Y1002888D01*
X356134Y1005978D01*
X357230Y1009621D01*
X358062Y1013769D01*
X358487Y1018374D01*
X358364Y1023387D01*
X357548Y1028760D01*
X355898Y1034445D01*
X353271Y1040392D01*
X349523Y1046554D01*
X344512Y1052882D01*
X338096Y1059328D01*
X330131Y1065843D01*
X330240Y1066386D01*
X330453Y1067634D01*
X330702Y1069517D01*
X330919Y1071965D01*
X331036Y1074909D01*
X330984Y1078280D01*
X330695Y1082010D01*
X330100Y1086028D01*
X329133Y1090265D01*
X327723Y1094653D01*
X325804Y1099122D01*
X323306Y1103602D01*
X320162Y1108025D01*
X316304Y1112322D01*
X311662Y1116422D01*
X306170Y1120258D01*
X299242Y1124140D01*
X291551Y1127594D01*
X283110Y1130494D01*
X273933Y1132715D01*
X264031Y1134132D01*
X253417Y1134621D01*
X242105Y1134056D01*
X230106Y1132312D01*
X217434Y1129264D01*
X204101Y1124788D01*
X190120Y1118757D01*
X175503Y1111047D01*
X160264Y1101533D01*
X144414Y1090090D01*
X127968Y1076593D01*
X110936Y1060916D01*
X99472Y1049347D01*
X90763Y1039624D01*
X84533Y1031568D01*
X80502Y1024997D01*
X78394Y1019734D01*
X77932Y1015596D01*
X78836Y1012406D01*
X80830Y1009982D01*
X83637Y1008144D01*
X86977Y1006714D01*
X90575Y1005510D01*
X94151Y1004354D01*
X97429Y1003065D01*
X100131Y1001462D01*
X101979Y999368D01*
X102695Y996600D01*
X102449Y994277D01*
X101687Y991232D01*
X100478Y987415D01*
X98885Y982773D01*
X96977Y977255D01*
X94817Y970809D01*
X92473Y963384D01*
X90011Y954928D01*
X87496Y945390D01*
X84994Y934717D01*
X82571Y922859D01*
X80294Y909763D01*
X78228Y895377D01*
X76439Y879652D01*
X74993Y862534D01*
X73956Y843972D01*
X69948Y838718D01*
X66426Y833162D01*
X63358Y827392D01*
X60714Y821497D01*
X58462Y815565D01*
X56570Y809685D01*
X55008Y803945D01*
X53743Y798434D01*
X52745Y793239D01*
X51982Y788451D01*
X51422Y784156D01*
X51035Y780444D01*
X50788Y777402D01*
X50650Y775121D01*
X50591Y773687D01*
X50578Y773189D01*
X45858Y768816D01*
X41841Y762790D01*
X38471Y755376D01*
X35695Y746842D01*
X33457Y737456D01*
X31701Y727484D01*
X30374Y717194D01*
X29420Y706853D01*
X28784Y696728D01*
X28412Y687086D01*
X28247Y678195D01*
X28236Y670321D01*
X28323Y663731D01*
X28453Y658694D01*
X28571Y655476D01*
X28623Y654343D01*
X30608Y630813D01*
X32852Y608894D01*
X35355Y588555D01*
X38117Y569762D01*
X41137Y552484D01*
X44414Y536688D01*
X47950Y522341D01*
X51744Y509410D01*
X55795Y497865D01*
X60104Y487670D01*
X64669Y478796D01*
X69492Y471208D01*
X74571Y464874D01*
X79907Y459762D01*
X85499Y455840D01*
X91347Y453074D01*
X91470Y449289D01*
X91860Y438509D01*
X92554Y421596D01*
X93586Y399413D01*
X94992Y372824D01*
X96806Y342690D01*
X99064Y309875D01*
X101801Y275241D01*
X105051Y239651D01*
X108851Y203968D01*
X113235Y169055D01*
X118238Y135774D01*
X123896Y104988D01*
X130243Y77560D01*
X137315Y54352D01*
X145146Y36228D01*
X145387Y35733D01*
X146138Y34435D01*
X147443Y32613D01*
X149344Y30546D01*
X151885Y28516D01*
X155109Y26800D01*
X159059Y25679D01*
X163778Y25432D01*
X169308Y26339D01*
X175694Y28679D01*
X182978Y32732D01*
X191203Y38777D01*
X200412Y47095D01*
X210649Y57964D01*
X221957Y71665D01*
X234378Y88476D01*
X243290Y101778D01*
X251878Y115899D01*
X260109Y130811D01*
X267951Y146484D01*
X275370Y162889D01*
X282336Y179997D01*
X288815Y197778D01*
X294776Y216202D01*
X300186Y235242D01*
X305013Y254866D01*
X309225Y275046D01*
X312789Y295753D01*
X315674Y316957D01*
X317846Y338629D01*
X319275Y360740D01*
X319926Y383259D01*
X319981Y388757D01*
X320017Y394085D01*
X320032Y399253D01*
X320023Y404268D01*
X319988Y409140D01*
X319924Y413878D01*
X319829Y418489D01*
X319701Y422982D01*
X319537Y427367D01*
X319335Y431651D01*
X319093Y435843D01*
X318808Y439952D01*
X318479Y443986D01*
X318101Y447954D01*
X317674Y451865D01*
X317194Y455727D01*
X322364Y464064D01*
X327387Y472314D01*
X332265Y480475D01*
X337000Y488548D01*
X341594Y496534D01*
X346048Y504434D01*
X350364Y512246D01*
X354544Y519973D01*
X358589Y527613D01*
X362501Y535168D01*
X366283Y542638D01*
X369935Y550022D01*
X373459Y557323D01*
X376857Y564539D01*
X380130Y571671D01*
X383281Y578720D01*
X383305Y578764D01*
X383378Y578886D01*
X383505Y579076D01*
X383692Y579321D01*
X383943Y579611D01*
X384264Y579933D01*
X384658Y580276D01*
X385132Y580628D01*
X385689Y580978D01*
X386335Y581314D01*
X387074Y581624D01*
X387912Y581897D01*
X388853Y582122D01*
X389903Y582286D01*
X391065Y582377D01*
X392345Y582386D01*
X394069Y582350D01*
X395783Y582340D01*
X397487Y582363D01*
X399179Y582424D01*
X400858Y582531D01*
X402524Y582688D01*
X404174Y582903D01*
X405807Y583182D01*
X407422Y583531D01*
X409019Y583957D01*
X410594Y584465D01*
X412148Y585063D01*
X413679Y585756D01*
X415186Y586550D01*
X416667Y587453D01*
X418121Y588470D01*
X420756Y590649D01*
X423111Y593036D01*
X425185Y595609D01*
X426973Y598343D01*
X428473Y601215D01*
X429680Y604202D01*
X430591Y607280D01*
X431203Y610425D01*
X431513Y613614D01*
X431517Y616824D01*
X431211Y620031D01*
X430593Y623211D01*
X429658Y626342D01*
X428404Y629399D01*
X426826Y632359D01*
X424922Y635199D01*
X424667Y635537D01*
X424409Y635870D01*
X424148Y636199D01*
X423883Y636524D01*
X423614Y636845D01*
X423343Y637162D01*
X423068Y637475D01*
X422790Y637783D01*
X422509Y638088D01*
X422225Y638388D01*
X421937Y638684D01*
X421647Y638975D01*
X421353Y639263D01*
X421056Y639547D01*
X420757Y639826D01*
X420454Y640101D01*
X215561Y980361D02*
X213545Y982768D01*
X215561Y980361D02*
X217943Y978462D01*
X220605Y977087D01*
X223459Y976253D01*
X226420Y975977D01*
X229401Y976274D01*
X232316Y977162D01*
X235077Y978658D01*
X237483Y980673D01*
X239382Y983055D01*
X240757Y985716D01*
X241590Y988570D01*
X241866Y991531D01*
X241568Y994512D01*
X240680Y997426D01*
X239184Y1000186D01*
X237170Y1002592D01*
X234789Y1004490D01*
X232128Y1005865D01*
X229273Y1006700D01*
X226312Y1006977D01*
X223331Y1006680D01*
X220417Y1005792D01*
X217655Y1004297D01*
X215249Y1002282D01*
X213350Y999901D01*
X211976Y997239D01*
X211143Y994385D01*
X210866Y991423D01*
X211164Y988442D01*
X212051Y985528D01*
X213545Y982768D01*
D11*
X290000Y750000D03*
X160000Y160000D03*
D12*
X155655Y439295D02*
X155655Y441045D01*
X178905Y441045D01*
X178905Y439295D01*
X155655Y439295D01*
X155655Y440957D02*
X178905Y440957D01*
X155655Y434695D02*
X155655Y432945D01*
X155655Y434695D02*
X178905Y434695D01*
X178905Y432945D01*
X155655Y432945D01*
X155655Y434607D02*
X178905Y434607D01*
X155655Y428345D02*
X155655Y426595D01*
X155655Y428345D02*
X178905Y428345D01*
X178905Y426595D01*
X155655Y426595D01*
X155655Y428257D02*
X178905Y428257D01*
X155655Y421995D02*
X155655Y420245D01*
X155655Y421995D02*
X178905Y421995D01*
X178905Y420245D01*
X155655Y420245D01*
X155655Y421907D02*
X178905Y421907D01*
X155655Y415645D02*
X155655Y413895D01*
X155655Y415645D02*
X178905Y415645D01*
X178905Y413895D01*
X155655Y413895D01*
X155655Y415557D02*
X178905Y415557D01*
X155655Y409295D02*
X155655Y407545D01*
X155655Y409295D02*
X178905Y409295D01*
X178905Y407545D01*
X155655Y407545D01*
X155655Y409207D02*
X178905Y409207D01*
X155655Y402945D02*
X155655Y401195D01*
X155655Y402945D02*
X178905Y402945D01*
X178905Y401195D01*
X155655Y401195D01*
X155655Y402857D02*
X178905Y402857D01*
X155655Y396595D02*
X155655Y394845D01*
X155655Y396595D02*
X178905Y396595D01*
X178905Y394845D01*
X155655Y394845D01*
X155655Y396507D02*
X178905Y396507D01*
X155655Y390245D02*
X155655Y388495D01*
X155655Y390245D02*
X178905Y390245D01*
X178905Y388495D01*
X155655Y388495D01*
X155655Y390157D02*
X178905Y390157D01*
X155655Y383895D02*
X155655Y382145D01*
X155655Y383895D02*
X178905Y383895D01*
X178905Y382145D01*
X155655Y382145D01*
X155655Y383807D02*
X178905Y383807D01*
X225655Y439295D02*
X225655Y441045D01*
X248905Y441045D01*
X248905Y439295D01*
X225655Y439295D01*
X225655Y440957D02*
X248905Y440957D01*
X225655Y434695D02*
X225655Y432945D01*
X225655Y434695D02*
X248905Y434695D01*
X248905Y432945D01*
X225655Y432945D01*
X225655Y434607D02*
X248905Y434607D01*
X225655Y428345D02*
X225655Y426595D01*
X225655Y428345D02*
X248905Y428345D01*
X248905Y426595D01*
X225655Y426595D01*
X225655Y428257D02*
X248905Y428257D01*
X225655Y421995D02*
X225655Y420245D01*
X225655Y421995D02*
X248905Y421995D01*
X248905Y420245D01*
X225655Y420245D01*
X225655Y421907D02*
X248905Y421907D01*
X225655Y415645D02*
X225655Y413895D01*
X225655Y415645D02*
X248905Y415645D01*
X248905Y413895D01*
X225655Y413895D01*
X225655Y415557D02*
X248905Y415557D01*
X225655Y409295D02*
X225655Y407545D01*
X225655Y409295D02*
X248905Y409295D01*
X248905Y407545D01*
X225655Y407545D01*
X225655Y409207D02*
X248905Y409207D01*
X225655Y402945D02*
X225655Y401195D01*
X225655Y402945D02*
X248905Y402945D01*
X248905Y401195D01*
X225655Y401195D01*
X225655Y402857D02*
X248905Y402857D01*
X225655Y396595D02*
X225655Y394845D01*
X225655Y396595D02*
X248905Y396595D01*
X248905Y394845D01*
X225655Y394845D01*
X225655Y396507D02*
X248905Y396507D01*
X225655Y390245D02*
X225655Y388495D01*
X225655Y390245D02*
X248905Y390245D01*
X248905Y388495D01*
X225655Y388495D01*
X225655Y390157D02*
X248905Y390157D01*
X225655Y383895D02*
X225655Y382145D01*
X225655Y383895D02*
X248905Y383895D01*
X248905Y382145D01*
X225655Y382145D01*
X225655Y383807D02*
X248905Y383807D01*
D11*
X240000Y670000D03*
X180000Y600000D03*
X100000Y470000D03*
X320000Y600000D03*
X270000Y470000D03*
X184600Y357300D03*
X144600Y279200D03*
X170000Y60000D03*
D13*
X289625Y813525D02*
X311375Y813525D01*
X289625Y813525D02*
X289625Y816775D01*
X311375Y816775D01*
X311375Y813525D01*
X311375Y816612D02*
X289625Y816612D01*
X289625Y800825D02*
X311375Y800825D01*
X289625Y800825D02*
X289625Y804075D01*
X311375Y804075D01*
X311375Y800825D01*
X311375Y803912D02*
X289625Y803912D01*
X289625Y788125D02*
X311375Y788125D01*
X289625Y788125D02*
X289625Y791375D01*
X311375Y791375D01*
X311375Y788125D01*
X311375Y791212D02*
X289625Y791212D01*
X289625Y775425D02*
X311375Y775425D01*
X289625Y775425D02*
X289625Y778675D01*
X311375Y778675D01*
X311375Y775425D01*
X311375Y778512D02*
X289625Y778512D01*
X339625Y775425D02*
X361375Y775425D01*
X339625Y775425D02*
X339625Y778675D01*
X361375Y778675D01*
X361375Y775425D01*
X361375Y778512D02*
X339625Y778512D01*
X339625Y788125D02*
X361375Y788125D01*
X339625Y788125D02*
X339625Y791375D01*
X361375Y791375D01*
X361375Y788125D01*
X361375Y791212D02*
X339625Y791212D01*
X339625Y800825D02*
X361375Y800825D01*
X339625Y800825D02*
X339625Y804075D01*
X361375Y804075D01*
X361375Y800825D01*
X361375Y803912D02*
X339625Y803912D01*
X339625Y813525D02*
X361375Y813525D01*
X339625Y813525D02*
X339625Y816775D01*
X361375Y816775D01*
X361375Y813525D01*
X361375Y816612D02*
X339625Y816612D01*
D14*
X264800Y874000D02*
X264800Y904000D01*
X264800Y874000D02*
X254800Y874000D01*
X254800Y904000D01*
X264800Y904000D01*
X264800Y883500D02*
X254800Y883500D01*
X254800Y893000D02*
X264800Y893000D01*
X264800Y902500D02*
X254800Y902500D01*
X140800Y904000D02*
X140800Y874000D01*
X130800Y874000D01*
X130800Y904000D01*
X140800Y904000D01*
X140800Y883500D02*
X130800Y883500D01*
X130800Y893000D02*
X140800Y893000D01*
X140800Y902500D02*
X130800Y902500D01*
D15*
X177800Y1003300D03*
X265000Y985000D03*
D16*
X320000Y990000D03*
X320000Y1020000D03*
X240000Y1030000D03*
D17*
X253440Y811580D02*
X263440Y811580D01*
X263440Y806580D01*
X253440Y806580D01*
X253440Y811580D01*
X253440Y811330D02*
X263440Y811330D01*
X243440Y811580D02*
X233440Y811580D01*
X243440Y811580D02*
X243440Y806580D01*
X233440Y806580D01*
X233440Y811580D01*
X233440Y811330D02*
X243440Y811330D01*
X305000Y882500D02*
X315000Y882500D01*
X305000Y882500D02*
X305000Y887500D01*
X315000Y887500D01*
X315000Y882500D01*
X315000Y887250D02*
X305000Y887250D01*
X325000Y882500D02*
X335000Y882500D01*
X325000Y882500D02*
X325000Y887500D01*
X335000Y887500D01*
X335000Y882500D01*
X335000Y887250D02*
X325000Y887250D01*
X345000Y742500D02*
X355000Y742500D01*
X345000Y742500D02*
X345000Y747500D01*
X355000Y747500D01*
X355000Y742500D01*
X355000Y747250D02*
X345000Y747250D01*
X365000Y742500D02*
X375000Y742500D01*
X365000Y742500D02*
X365000Y747500D01*
X375000Y747500D01*
X375000Y742500D01*
X375000Y747250D02*
X365000Y747250D01*
D18*
X350000Y908400D03*
X369400Y890200D03*
X383400Y868400D03*
X394500Y844700D03*
X402100Y819400D03*
X406900Y785200D03*
X407800Y758200D03*
X406200Y730300D03*
X401800Y704300D03*
X396400Y677500D03*
D17*
X290250Y847500D02*
X280250Y847500D01*
X280250Y852500D01*
X290250Y852500D01*
X290250Y847500D01*
X290250Y852250D02*
X280250Y852250D01*
X300250Y847500D02*
X310250Y847500D01*
X300250Y847500D02*
X300250Y852500D01*
X310250Y852500D01*
X310250Y847500D01*
X310250Y852250D02*
X300250Y852250D01*
D19*
X402590Y612140D03*
D20*
X148404Y520194D02*
X149707Y512809D01*
X137398Y510638D01*
X136095Y518023D01*
X148404Y520194D01*
X148833Y517763D02*
X136141Y517763D01*
X145365Y537429D02*
X144062Y544814D01*
X145365Y537429D02*
X133056Y535258D01*
X131753Y542643D01*
X144062Y544814D01*
X144491Y542383D02*
X131799Y542383D01*
X141024Y562049D02*
X139721Y569434D01*
X141024Y562049D02*
X128715Y559878D01*
X127412Y567263D01*
X139721Y569434D01*
X140150Y567003D02*
X127458Y567003D01*
X82602Y559362D02*
X83905Y551977D01*
X71596Y549806D01*
X70293Y557191D01*
X82602Y559362D01*
X83031Y556931D02*
X70339Y556931D01*
X86944Y534742D02*
X88247Y527357D01*
X75938Y525186D01*
X74635Y532571D01*
X86944Y534742D01*
X87373Y532311D02*
X74681Y532311D01*
X91285Y510122D02*
X92588Y502737D01*
X80279Y500566D01*
X78976Y507951D01*
X91285Y510122D01*
X91714Y507691D02*
X79022Y507691D01*
D21*
X72758Y579205D03*
D17*
X206410Y477130D02*
X216410Y477130D01*
X216410Y472130D01*
X206410Y472130D01*
X206410Y477130D01*
X206410Y476880D02*
X216410Y476880D01*
X196410Y477130D02*
X186410Y477130D01*
X196410Y477130D02*
X196410Y472130D01*
X186410Y472130D01*
X186410Y477130D01*
X186410Y476880D02*
X196410Y476880D01*
X325000Y852500D02*
X335000Y852500D01*
X325000Y852500D02*
X325000Y857500D01*
X335000Y857500D01*
X335000Y852500D01*
X335000Y857250D02*
X325000Y857250D01*
X345000Y852500D02*
X355000Y852500D01*
X345000Y852500D02*
X345000Y857500D01*
X355000Y857500D01*
X355000Y852500D01*
X355000Y857250D02*
X345000Y857250D01*
D22*
X302420Y681180D02*
X285420Y681180D01*
X302420Y681180D02*
X302420Y666180D01*
X285420Y666180D01*
X285420Y681180D01*
X285420Y680430D02*
X302420Y680430D01*
D23*
X87920Y685680D02*
X71920Y685680D01*
X87920Y685680D02*
X87920Y661680D01*
X71920Y661680D01*
X71920Y685680D01*
X71920Y676880D02*
X87920Y676880D01*
D24*
X85500Y822500D02*
X84500Y822500D01*
X84500Y823500D01*
X85500Y823500D01*
X85500Y822500D01*
X85500Y823450D02*
X84500Y823450D01*
X90500Y822500D02*
X91500Y822500D01*
X90500Y822500D02*
X90500Y823500D01*
X91500Y823500D01*
X91500Y822500D01*
X91500Y823450D02*
X90500Y823450D01*
X146300Y1061100D02*
X147300Y1061100D01*
X146300Y1061100D02*
X146300Y1062100D01*
X147300Y1062100D01*
X147300Y1061100D01*
X147300Y1062050D02*
X146300Y1062050D01*
X150800Y1065600D02*
X151800Y1065600D01*
X150800Y1065600D02*
X150800Y1066600D01*
X151800Y1066600D01*
X151800Y1065600D01*
X151800Y1066550D02*
X150800Y1066550D01*
X177300Y1091500D02*
X178300Y1091500D01*
X177300Y1091500D02*
X177300Y1092500D01*
X178300Y1092500D01*
X178300Y1091500D01*
X178300Y1092450D02*
X177300Y1092450D01*
X180700Y1092900D02*
X181700Y1092900D01*
X180700Y1092900D02*
X180700Y1093900D01*
X181700Y1093900D01*
X181700Y1092900D01*
X181700Y1093850D02*
X180700Y1093850D01*
X193600Y1094800D02*
X194600Y1094800D01*
X193600Y1094800D02*
X193600Y1095800D01*
X194600Y1095800D01*
X194600Y1094800D01*
X194600Y1095750D02*
X193600Y1095750D01*
X199700Y1097300D02*
X200700Y1097300D01*
X199700Y1097300D02*
X199700Y1098300D01*
X200700Y1098300D01*
X200700Y1097300D01*
X200700Y1098250D02*
X199700Y1098250D01*
D25*
X167500Y415000D02*
X167500Y410000D01*
X167280Y408420D01*
X167280Y414770D02*
X167500Y415000D01*
X350000Y835000D02*
X330000Y855000D01*
X350000Y835000D02*
X350000Y817500D01*
X350500Y815150D01*
X260000Y872500D02*
X260000Y887500D01*
X260000Y872500D02*
X260000Y810000D01*
X258440Y809080D01*
X260000Y887500D02*
X259800Y889000D01*
X260000Y707500D02*
X282500Y685000D01*
X292500Y675000D01*
X293920Y673680D01*
X315000Y855000D02*
X330000Y855000D01*
X315000Y855000D02*
X297500Y872500D01*
X260000Y872500D01*
X259800Y889000D01*
X282500Y685000D02*
X293920Y673680D01*
D26*
X350000Y835000D03*
D25*
X260000Y807520D02*
X258440Y809080D01*
X260000Y807520D02*
X260000Y707500D01*
X282500Y685000D02*
X282500Y545720D01*
X211410Y474630D01*
X211410Y473910D02*
X187500Y450000D01*
X211410Y473910D02*
X211410Y474630D01*
X178130Y415000D02*
X167500Y415000D01*
X178130Y415000D02*
X187500Y424370D01*
X187500Y450000D01*
X237500Y415000D02*
X237500Y410000D01*
X237280Y408420D01*
X367500Y747500D02*
X362500Y752500D01*
X370000Y707500D02*
X307500Y645000D01*
X370000Y707500D02*
X370000Y745000D01*
X237500Y415000D02*
X237280Y414770D01*
X132500Y555000D02*
X77500Y555000D01*
X132500Y555000D02*
X132500Y562500D01*
X77500Y555000D02*
X77099Y554584D01*
X132500Y562500D02*
X134218Y564656D01*
X302500Y877500D02*
X330000Y877500D01*
X330000Y885000D01*
X330000Y875000D02*
X350000Y855000D01*
X330000Y875000D02*
X330000Y877500D01*
X417500Y767500D02*
X410000Y760000D01*
X417500Y767500D02*
X417500Y822500D01*
X405000Y835000D01*
X405000Y847500D01*
X397500Y855000D01*
X370000Y855000D02*
X350000Y855000D01*
X370000Y855000D02*
X397500Y855000D01*
X410000Y760000D02*
X407800Y758200D01*
X370000Y855000D02*
X370000Y890000D01*
X369400Y890200D01*
X227500Y602986D02*
X202587Y602986D01*
X367500Y747500D02*
X372500Y752500D01*
X372500Y755000D01*
X367500Y747500D02*
X370000Y745000D01*
D26*
X155000Y530000D03*
X202587Y602986D03*
X372500Y755000D03*
D25*
X300650Y815000D02*
X300500Y815150D01*
X317500Y792019D02*
X339519Y770000D01*
X305981Y815000D02*
X300650Y815000D01*
X305981Y815000D02*
X317500Y803481D01*
X317500Y792019D01*
X339519Y770000D02*
X347543Y770000D01*
X362500Y755043D01*
X362500Y752500D01*
X302500Y877500D02*
X267166Y912834D01*
X235291Y912834D01*
X227500Y905043D01*
X227500Y602986D01*
X307500Y645000D02*
X307500Y474370D01*
X248130Y415000D01*
X237500Y415000D01*
X227500Y510720D02*
X227500Y602986D01*
X227500Y510720D02*
X191410Y474630D01*
X155000Y530000D02*
X155000Y542898D01*
X142898Y555000D01*
X132500Y555000D01*
X238460Y435000D02*
X237280Y433820D01*
X315254Y724746D02*
X290000Y750000D01*
X315254Y724746D02*
X315254Y657754D01*
X302500Y645000D01*
X302500Y488420D01*
X249080Y435000D01*
X238460Y435000D01*
D26*
X292500Y840000D03*
D25*
X292166Y840334D01*
X282791Y840334D01*
X279666Y837209D01*
X279666Y750334D01*
X312206Y717794D01*
X312206Y659706D01*
X297500Y645000D01*
X297500Y489637D01*
X248033Y440170D01*
X237280Y440170D01*
X210000Y930000D02*
X265000Y985000D01*
X210000Y930000D02*
X210000Y640000D01*
X162500Y592500D01*
X162500Y452500D01*
X166100Y435000D02*
X167280Y433820D01*
X152494Y442494D02*
X162500Y452500D01*
X166100Y435000D02*
X155480Y435000D01*
X152494Y437986D01*
X152494Y442494D01*
X202500Y912500D02*
X180000Y935000D01*
D26*
X237500Y907500D03*
X202500Y912500D03*
D25*
X180000Y1001100D02*
X177800Y1003300D01*
X180000Y1001100D02*
X180000Y935000D01*
X237500Y907500D02*
X237500Y810020D01*
X238440Y809080D01*
X180000Y600000D02*
X175000Y595000D01*
X175000Y447890D01*
X167280Y440170D01*
X167250Y427500D02*
X167280Y427470D01*
X167250Y427500D02*
X142500Y427500D01*
X100000Y470000D01*
X100000Y460000D02*
X62500Y497500D01*
X62500Y542500D01*
X195000Y877500D02*
X195000Y902500D01*
D26*
X195000Y902500D03*
X285000Y835000D03*
D25*
X166650Y390000D02*
X167280Y389370D01*
X60867Y743367D02*
X195000Y877500D01*
X60867Y743367D02*
X60867Y544133D01*
X62500Y542500D01*
X100000Y460000D02*
X100000Y446030D01*
X156030Y390000D01*
X166650Y390000D01*
X300500Y802450D02*
X300450Y802500D01*
X295119Y802500D01*
X285000Y812619D01*
X285000Y835000D01*
X290000Y537500D02*
X200000Y447500D01*
X290000Y537500D02*
X290000Y625000D01*
D26*
X290000Y625000D03*
D25*
X200000Y447500D02*
X200000Y417820D01*
X177900Y395720D01*
X167280Y395720D01*
X250140Y470000D02*
X270000Y470000D01*
X250140Y470000D02*
X205000Y424860D01*
X205000Y410120D01*
X177900Y383020D01*
X167280Y383020D01*
D26*
X222500Y370000D03*
D25*
X235520Y383020D01*
X237280Y383020D01*
X144600Y279200D02*
X145000Y278800D01*
X145000Y167137D01*
X157697Y154440D01*
X162303Y154440D01*
X215000Y207137D01*
X215000Y377710D01*
X226660Y389370D01*
X237280Y389370D01*
X317500Y505000D02*
X357500Y545000D01*
X317500Y505000D02*
X317500Y467500D01*
X275000Y425000D01*
X275000Y415000D01*
X255000Y395000D01*
X252500Y395000D02*
X237500Y395000D01*
X252500Y395000D02*
X255000Y395000D01*
X237500Y395000D02*
X237280Y395720D01*
X252500Y142500D02*
X170000Y60000D01*
X252500Y142500D02*
X252500Y395000D01*
D26*
X357500Y545000D03*
D25*
X405000Y662500D02*
X405000Y675000D01*
X405000Y662500D02*
X312500Y570000D01*
X312500Y467500D01*
X270000Y425000D01*
X210000Y210000D02*
X160000Y160000D01*
X237280Y402070D02*
X237710Y402500D01*
X405000Y675000D02*
X410086Y680086D01*
X410086Y709914D01*
X393814Y726186D01*
X393814Y844014D01*
X394500Y844700D01*
X248330Y402500D02*
X237710Y402500D01*
X248330Y402500D02*
X270000Y424170D01*
X270000Y425000D01*
X237280Y402070D02*
X226660Y402070D01*
X210000Y385410D01*
X210000Y210000D01*
X335000Y822500D02*
X307500Y850000D01*
X335000Y822500D02*
X335000Y785000D01*
X342500Y777500D01*
X350000Y777500D01*
X307500Y850000D02*
X305250Y850000D01*
X350000Y777500D02*
X350500Y777050D01*
X285000Y850000D02*
X270000Y865000D01*
X152500Y895000D02*
X137500Y895000D01*
X137500Y890000D01*
X285000Y850000D02*
X285250Y850000D01*
X137500Y890000D02*
X135800Y889000D01*
D26*
X270000Y865000D03*
X152500Y895000D03*
D25*
X310000Y885000D02*
X332500Y907500D01*
X350000Y907500D01*
X350000Y908400D01*
X168660Y422500D02*
X167280Y421120D01*
X168660Y422500D02*
X179280Y422500D01*
X181624Y591624D02*
X222500Y632500D01*
X181624Y591624D02*
X181624Y468376D01*
X182066Y467934D01*
X182066Y425286D01*
X179280Y422500D01*
X332500Y907500D02*
X324118Y915882D01*
X234028Y915882D01*
X222500Y904354D01*
X222500Y632500D01*
X350000Y750000D02*
X355000Y755000D01*
X350000Y750000D02*
X350000Y745000D01*
D26*
X355000Y755000D03*
D25*
X350000Y745000D02*
X332550Y745000D01*
X300500Y777050D01*
X350500Y789750D02*
X352750Y787500D01*
X358081Y787500D01*
X380000Y765581D01*
X380000Y693900D01*
X396400Y677500D01*
X352950Y800000D02*
X350500Y802450D01*
X352950Y800000D02*
X358281Y800000D01*
X385000Y773281D01*
X385000Y721100D01*
X401800Y704300D01*
X81476Y530000D02*
X81441Y529964D01*
X81476Y530000D02*
X128524Y530000D01*
X138559Y540036D01*
X81441Y529964D02*
X63915Y547490D01*
X63915Y657675D01*
X79920Y673680D01*
X87938Y507500D02*
X85782Y505344D01*
X87938Y507500D02*
X134985Y507500D01*
X142901Y515416D01*
D19*
X338200Y569200D03*
X106700Y1022000D03*
X101000Y884000D03*
D25*
X91000Y823000D02*
X85000Y823000D01*
X146800Y1061600D02*
X151300Y1066100D01*
X177800Y1092000D02*
X181200Y1093400D01*
X194100Y1095300D02*
X200200Y1097800D01*
M02*
